<svg width="250" height="190" viewBox="0 0 250 190" fill="none" xmlns="http://www.w3.org/2000/svg">
<path d="M194.512 9.24618C192.191 9.24618 189.754 7.47137 187.261 3.97901C187.203 3.89313 187.203 3.75 187.318 3.69275C187.404 3.6355 187.547 3.6355 187.605 3.75C190.098 7.24237 192.477 8.95992 194.713 8.81679C196.519 8.73092 197.78 7.47137 199.127 6.18321C200.475 4.86641 201.879 3.49237 203.914 3.37786C206.179 3.26336 208.529 4.78053 210.88 7.84351C210.966 7.92939 210.937 8.07252 210.851 8.1584C210.765 8.24427 210.622 8.21565 210.536 8.12977C208.271 5.1813 206.035 3.72137 203.943 3.83588C202.08 3.92176 200.79 5.1813 199.443 6.49809C198.124 7.81489 196.748 9.16031 194.77 9.27481C194.684 9.21756 194.598 9.24618 194.512 9.24618Z" fill="black"/>
<path d="M220.224 171.641C216.154 171.641 211.825 168.492 207.411 162.309C207.354 162.223 207.354 162.08 207.469 162.023C207.555 161.966 207.698 161.966 207.755 162.08C212.255 168.378 216.555 171.441 220.625 171.24C223.922 171.069 226.215 168.836 228.594 166.46C230.973 164.113 233.467 161.679 237.021 161.508C241.005 161.307 245.133 163.969 249.318 169.437C249.404 169.523 249.375 169.666 249.289 169.752C249.203 169.838 249.06 169.809 248.974 169.723C244.875 164.399 240.862 161.765 237.05 161.966C233.639 162.137 231.231 164.513 228.88 166.803C226.53 169.122 224.094 171.498 220.625 171.698C220.482 171.641 220.367 171.641 220.224 171.641Z" fill="black"/>
<path d="M12.4114 37.3282C9.17244 37.3282 5.76145 34.8378 2.26446 29.9427C2.20713 29.8569 2.20713 29.7137 2.32179 29.6565C2.40778 29.5992 2.5511 29.5992 2.60843 29.7137C6.13407 34.666 9.54507 37.0706 12.7267 36.8989C15.3065 36.7557 17.1123 35.0095 18.9755 33.1489C20.8673 31.2882 22.8164 29.3702 25.6541 29.2271C28.8071 29.084 32.0748 31.1737 35.3998 35.4962C35.4858 35.5821 35.4571 35.7252 35.3711 35.8111C35.2852 35.8969 35.1418 35.8683 35.0558 35.7824C31.8455 31.5744 28.6925 29.542 25.6828 29.6851C23.017 29.8282 21.1252 31.6889 19.2908 33.4924C17.4276 35.3244 15.5071 37.2137 12.7554 37.3569C12.6408 37.3282 12.5261 37.3282 12.4114 37.3282Z" fill="black"/>
<path fill-rule="evenodd" clip-rule="evenodd" d="M43.9704 74.1126C43.999 74.1985 44.0564 74.2271 44.1424 74.2271C44.1759 74.2271 44.1997 74.2173 44.2194 74.2091C44.2333 74.2034 44.2451 74.1985 44.257 74.1985L48.9579 71.5076C49.0725 71.4504 49.1012 71.3359 49.0439 71.2214L46.3495 66.5267C46.2921 66.4122 46.1775 66.3836 46.0628 66.4408L41.362 69.1317C41.2473 69.1889 41.2187 69.3034 41.276 69.4179L43.9704 74.1126ZM44.2283 73.7118L41.7346 69.3893L46.0628 66.8989L48.5566 71.2214L44.2283 73.7118Z" fill="black"/>
<path fill-rule="evenodd" clip-rule="evenodd" d="M108.12 6.89885C108.12 6.98473 108.206 7.07061 108.32 7.07061H108.378L112.075 6.49809C112.133 6.49809 112.19 6.46947 112.219 6.41221C112.247 6.35496 112.247 6.29771 112.247 6.24046L111.674 2.54771C111.674 2.49046 111.645 2.43321 111.588 2.40458C111.531 2.37595 111.474 2.37595 111.416 2.37595L107.719 2.94847C107.604 2.9771 107.518 3.0916 107.547 3.20611L108.12 6.89885ZM108.492 6.6126L108.005 3.34924L111.273 2.8626L111.76 6.12595L108.492 6.6126Z" fill="black"/>
<path d="M82.2078 12.3092C82.1791 12.3092 82.1504 12.3092 82.1218 12.2805C82.0071 12.2233 81.9498 12.1088 82.0071 11.9943L83.8416 7.41412C83.8989 7.29962 84.0136 7.24237 84.1282 7.29962C84.2429 7.35687 84.3002 7.47137 84.2429 7.58588L82.4084 12.166C82.3797 12.2519 82.2937 12.3092 82.2078 12.3092Z" fill="black"/>
<path d="M39.0686 9.30343C39.0113 9.30343 38.954 9.27481 38.8966 9.21756C38.8107 9.13168 38.8393 8.98855 38.9253 8.90267L42.7089 5.75382C42.7949 5.66794 42.9382 5.69656 43.0242 5.78244C43.1102 5.86832 43.0816 6.01145 42.9956 6.09733L39.2406 9.27481C39.1833 9.30343 39.126 9.30343 39.0686 9.30343Z" fill="black"/>
<path d="M3.72629 5.15267C3.6403 5.15267 3.58297 5.12405 3.55431 5.03817L0.9459 0.858779C0.888573 0.772901 0.917236 0.629771 1.03189 0.572519C1.14655 0.515267 1.2612 0.543893 1.31853 0.629771L3.92693 4.80916C3.98426 4.92366 3.9556 5.03817 3.86961 5.09542C3.81228 5.15267 3.78362 5.15267 3.72629 5.15267Z" fill="black"/>
<path d="M89.1157 46.5744C89.0584 46.5744 89.0011 46.5458 88.9438 46.4885C88.8578 46.4027 88.8864 46.2595 88.9724 46.1737L92.6987 42.9389C92.7847 42.8531 92.928 42.8817 93.014 42.9676C93.1 43.0534 93.0714 43.1966 92.9854 43.2824L89.2591 46.5172C89.2017 46.5744 89.1731 46.5744 89.1157 46.5744Z" fill="black"/>
<path d="M215.064 117.939C215.007 117.939 214.921 117.91 214.892 117.853L211.997 113.874C211.94 113.788 211.94 113.645 212.055 113.588C212.141 113.531 212.284 113.531 212.341 113.645L215.236 117.624C215.294 117.71 215.294 117.853 215.179 117.91C215.15 117.939 215.093 117.939 215.064 117.939Z" fill="black"/>
<path d="M191.904 147.052C191.818 147.052 191.732 146.994 191.703 146.908C191.675 146.794 191.732 146.679 191.847 146.651L196.519 145.105C196.634 145.076 196.748 145.134 196.777 145.248C196.806 145.363 196.748 145.477 196.634 145.506L191.961 147.052C191.961 147.023 191.933 147.052 191.904 147.052Z" fill="black"/>
<path d="M186.831 176.221C186.802 176.221 186.802 176.221 186.831 176.221C186.687 176.193 186.601 176.107 186.63 175.992L187.261 171.097C187.289 170.983 187.375 170.897 187.49 170.926C187.605 170.954 187.691 171.04 187.662 171.155L187.031 176.05C187.031 176.136 186.917 176.221 186.831 176.221Z" fill="black"/>
<path d="M231.517 182.118C231.46 182.118 231.403 182.09 231.374 182.061C231.288 181.975 231.288 181.832 231.374 181.746L234.986 178.368C235.072 178.282 235.215 178.282 235.301 178.368C235.387 178.454 235.387 178.597 235.301 178.683L231.689 182.061C231.632 182.09 231.575 182.118 231.517 182.118Z" fill="black"/>
<path d="M150.284 152.634C150.256 152.634 150.198 152.634 150.17 152.605C150.084 152.548 150.055 152.405 150.112 152.319L152.835 148.197C152.893 148.111 153.036 148.082 153.122 148.139C153.208 148.197 153.237 148.34 153.179 148.426L150.456 152.548C150.428 152.605 150.37 152.634 150.284 152.634Z" fill="black"/>
<path d="M150.428 180.429C150.37 180.429 150.313 180.401 150.284 180.372L146.816 176.851C146.73 176.765 146.73 176.622 146.816 176.536C146.902 176.45 147.045 176.45 147.131 176.536L150.6 180.057C150.686 180.143 150.686 180.286 150.6 180.372C150.514 180.401 150.456 180.429 150.428 180.429Z" fill="black"/>
<path d="M231.174 141.469C231.116 141.469 231.03 141.441 231.002 141.384C230.944 141.298 230.944 141.155 231.059 141.097L235.043 138.206C235.129 138.149 235.272 138.149 235.33 138.263C235.387 138.349 235.387 138.492 235.272 138.55L231.288 141.441C231.259 141.469 231.231 141.469 231.174 141.469Z" fill="black"/>
<path d="M243.098 94.1221C243.069 94.1221 243.04 94.1221 243.012 94.0935C242.897 94.0363 242.868 93.9218 242.897 93.8073L244.932 89.313C244.99 89.1985 245.104 89.1698 245.219 89.1985C245.333 89.2557 245.362 89.3702 245.333 89.4847L243.298 93.979C243.241 94.0935 243.184 94.1221 243.098 94.1221Z" fill="black"/>
<path d="M19.7493 60.6298C19.692 60.6298 19.6347 60.6011 19.606 60.5725L16.2237 56.9943C16.1377 56.9084 16.1377 56.7653 16.2237 56.6794C16.3097 56.5935 16.453 56.5935 16.539 56.6794L19.9213 60.2576C20.0073 60.3435 20.0073 60.4866 19.9213 60.5725C19.864 60.6298 19.8066 60.6298 19.7493 60.6298Z" fill="black"/>
<path d="M28.8358 98.8454C28.7785 98.8454 28.7498 98.8454 28.7212 98.8168C28.6352 98.7595 28.6065 98.6164 28.6639 98.5305L31.6162 94.5802C31.6736 94.4943 31.8169 94.4657 31.9029 94.5229C31.9889 94.5802 32.0175 94.7233 31.9602 94.8092L29.0078 98.7595C28.9792 98.8168 28.9218 98.8454 28.8358 98.8454Z" fill="black"/>
<path d="M5.15958 122.519C5.07359 122.519 5.01626 122.49 4.9876 122.405L2.46519 118.168C2.40786 118.053 2.43652 117.939 2.55118 117.882C2.66583 117.824 2.78049 117.853 2.83782 117.968L5.36023 122.204C5.41756 122.319 5.38889 122.433 5.27424 122.49C5.24558 122.519 5.21691 122.519 5.15958 122.519Z" fill="black"/>
<path d="M24.3354 160.62C24.3068 160.62 24.2781 160.62 24.2494 160.62C24.1348 160.592 24.0775 160.448 24.1348 160.334L25.826 155.697C25.8546 155.582 25.9979 155.525 26.1126 155.582C26.2273 155.611 26.2846 155.754 26.2273 155.868L24.5361 160.506C24.5074 160.563 24.4214 160.62 24.3354 160.62Z" fill="black"/>
<path d="M32.5047 187.414C32.4187 187.414 32.3327 187.357 32.304 187.271L30.8708 182.548C30.8422 182.433 30.8995 182.319 31.0141 182.29C31.1288 182.261 31.2435 182.319 31.2721 182.433L32.7053 187.156C32.734 187.271 32.6766 187.385 32.562 187.414C32.5333 187.414 32.5333 187.414 32.5047 187.414Z" fill="black"/>
<path d="M0.229338 179.055C0.143347 179.055 0.0860189 178.998 0.0286913 178.941C-0.0286362 178.826 0.0286913 178.712 0.114683 178.655L4.55757 176.508C4.67223 176.45 4.78688 176.508 4.84421 176.594C4.90154 176.708 4.84421 176.823 4.75822 176.88L0.315329 179.027C0.286665 179.055 0.258002 179.055 0.229338 179.055Z" fill="black"/>
<path d="M201.707 75.6584C201.65 75.6584 201.592 75.6298 201.535 75.5725C201.449 75.4866 201.478 75.3435 201.564 75.2576L205.433 72.2233C205.519 72.1374 205.663 72.166 205.749 72.2519C205.835 72.3378 205.806 72.4809 205.72 72.5668L201.85 75.6011C201.793 75.6584 201.764 75.6584 201.707 75.6584Z" fill="black"/>
<path d="M237.508 11.5076C237.48 11.5076 237.451 11.5076 237.451 11.5076L232.75 9.99046C232.635 9.96183 232.578 9.84733 232.607 9.73282C232.635 9.61832 232.75 9.56107 232.865 9.58969L237.566 11.0782C237.68 11.1069 237.737 11.2214 237.709 11.3359C237.709 11.4504 237.623 11.5076 237.508 11.5076Z" fill="black"/>
<path d="M233.008 49.895C232.865 49.895 232.779 49.7805 232.807 49.666L233.123 44.7424C233.123 44.6279 233.237 44.542 233.352 44.542C233.467 44.542 233.553 44.6565 233.553 44.771L233.237 49.6947C233.209 49.8092 233.123 49.895 233.008 49.895Z" fill="black"/>
<path d="M187.433 58.8263C188.794 58.8263 189.898 57.7241 189.898 56.3645C189.898 55.0049 188.794 53.9027 187.433 53.9027C186.071 53.9027 184.968 55.0049 184.968 56.3645C184.968 57.7241 186.071 58.8263 187.433 58.8263Z" fill="#FFDEE9"/>
<path fill-rule="evenodd" clip-rule="evenodd" d="M220.883 91.7462C221.141 92.2614 221.657 92.5477 222.202 92.5477C222.431 92.5477 222.632 92.4905 222.861 92.4046C223.578 92.0324 223.893 91.145 223.52 90.4294C223.348 90.0572 223.033 89.7996 222.66 89.6851C222.288 89.5706 221.915 89.5992 221.543 89.771C221.17 89.9427 220.912 90.2576 220.797 90.6298C220.683 91.0019 220.711 91.4027 220.883 91.7462ZM221.743 90.1431C221.887 90.0572 222.03 90.0286 222.202 90.0286C222.316 90.0286 222.431 90.0572 222.546 90.0859C222.804 90.1718 223.033 90.3435 223.148 90.6011C223.406 91.1164 223.205 91.7462 222.689 92.0038C222.173 92.2614 221.543 92.0611 221.285 91.5458C221.17 91.2882 221.141 91.0019 221.227 90.7443C221.313 90.4866 221.485 90.2576 221.743 90.1431Z" fill="black"/>
<path fill-rule="evenodd" clip-rule="evenodd" d="M7.4812 84.0458C7.73917 84.5611 8.25512 84.8473 8.79973 84.8473C9.02905 84.8473 9.25836 84.7901 9.459 84.7042C9.83163 84.5324 10.0896 84.2176 10.2043 83.8454C10.3189 83.4733 10.2903 83.0725 10.1183 82.729C9.74564 82.0134 8.85706 81.6985 8.14047 82.0706C7.76784 82.2424 7.50986 82.5573 7.39521 82.9294C7.28055 83.3015 7.30922 83.7023 7.4812 84.0458ZM8.34111 82.4427C8.48443 82.3569 8.65642 82.3282 8.79973 82.3282C9.17236 82.3282 9.54499 82.5573 9.74564 82.9008C9.8603 83.1584 9.88896 83.4447 9.80297 83.7023C9.71698 83.9599 9.54499 84.1889 9.28702 84.3034C8.77107 84.5611 8.14047 84.3607 7.88249 83.8454C7.62452 83.3302 7.82517 82.7004 8.34111 82.4427Z" fill="black"/>
<path fill-rule="evenodd" clip-rule="evenodd" d="M165.677 160.162C166.135 161.021 166.995 161.536 167.912 161.536C168.285 161.536 168.658 161.45 168.973 161.25C170.206 160.649 170.693 159.16 170.091 157.929C169.804 157.357 169.288 156.899 168.658 156.698C168.027 156.498 167.368 156.555 166.766 156.842C166.193 157.128 165.734 157.643 165.533 158.273C165.333 158.903 165.39 159.561 165.677 160.162ZM166.967 157.242C167.253 157.099 167.568 157.013 167.884 157.013C168.113 157.013 168.342 157.042 168.543 157.128C169.059 157.3 169.46 157.672 169.718 158.158C170.234 159.16 169.804 160.391 168.801 160.906C167.798 161.422 166.565 160.992 166.049 159.99C165.791 159.504 165.763 158.931 165.935 158.416C166.107 157.901 166.479 157.5 166.967 157.242Z" fill="black"/>
<path d="M58.2736 40.0191C59.8567 40.0191 61.14 38.7375 61.14 37.1565C61.14 35.5755 59.8567 34.2939 58.2736 34.2939C56.6905 34.2939 55.4072 35.5755 55.4072 37.1565C55.4072 38.7375 56.6905 40.0191 58.2736 40.0191Z" fill="#FFDEE9"/>
<path d="M161.263 2.8626C162.054 2.8626 162.696 2.22178 162.696 1.4313C162.696 0.640814 162.054 0 161.263 0C160.471 0 159.829 0.640814 159.829 1.4313C159.829 2.22178 160.471 2.8626 161.263 2.8626Z" fill="#FFDEE9"/>
<path d="M15.6505 139.781C16.442 139.781 17.0837 139.14 17.0837 138.349C17.0837 137.559 16.442 136.918 15.6505 136.918C14.8589 136.918 14.2173 137.559 14.2173 138.349C14.2173 139.14 14.8589 139.781 15.6505 139.781Z" fill="#FFDEE9"/>
<path fill-rule="evenodd" clip-rule="evenodd" d="M205.761 34.5167C205.795 34.5362 205.821 34.5515 205.863 34.5515C205.949 34.5515 206.007 34.5229 206.035 34.4656L209.332 30.3149C209.418 30.2004 209.389 30.0859 209.303 30L205.147 26.708C205.032 26.6221 204.917 26.6508 204.831 26.7366L201.535 30.8874C201.449 31.0019 201.478 31.1164 201.564 31.2023L205.72 34.4943C205.735 34.5019 205.749 34.5096 205.761 34.5167ZM205.835 34.0649L201.994 31.0305L205.032 27.1947L208.873 30.229L205.835 34.0649Z" fill="black"/>
<path d="M126.262 167.708L130.422 170.992L127.133 175.147L122.973 171.863L126.262 167.708Z" fill="#FFDEE9"/>
<path d="M172.729 116.485C172.672 116.485 172.586 116.456 172.529 116.399C172.443 116.284 172.471 116.141 172.557 116.055C172.615 115.998 172.729 115.912 172.901 115.74L173.359 115.339C173.474 115.254 173.617 115.254 173.703 115.368C173.789 115.483 173.789 115.626 173.675 115.712L173.216 116.112C173.044 116.256 172.901 116.37 172.844 116.427C172.844 116.456 172.787 116.485 172.729 116.485Z" fill="black"/>
<path d="M182.211 117.515C182.154 117.515 182.068 117.487 182.039 117.429C181.953 117.344 181.953 117.172 182.068 117.086C182.383 116.8 183.242 115.998 184.216 114.91C185.534 113.393 186.651 111.789 187.51 110.1C187.854 109.442 188.198 108.755 188.427 108.096C188.799 107.094 188.828 106.436 188.513 106.064C188.313 105.835 188.026 105.777 187.94 105.749C187.654 105.72 187.31 105.806 186.966 106.092C186.25 106.636 185.505 107.724 184.875 108.669C184.76 108.841 184.646 109.012 184.531 109.184C184.159 109.728 183.729 110.301 183.299 110.873C182.154 112.362 180.836 113.822 179.404 115.225C179.318 115.311 179.174 115.311 179.06 115.225C178.974 115.139 178.945 114.996 179.031 114.91C180.378 113.135 181.552 111.303 182.526 109.413C182.727 109.012 182.927 108.612 183.128 108.211C184.359 105.606 184.674 104.231 184.13 103.544C184.102 103.516 183.786 103.115 183.328 103.086C182.784 103.058 182.182 103.573 181.495 104.689C181.065 105.405 180.635 106.235 180.234 107.066V107.094C180.234 107.094 180.234 107.094 180.234 107.123L180.206 107.18C180.005 107.581 179.805 107.953 179.633 108.325C178.745 109.986 177.656 111.56 176.367 113.049L176.339 113.078C176.339 113.078 176.339 113.106 176.31 113.106C175.995 113.479 175.622 113.879 175.193 114.309C175.164 114.337 175.164 114.366 175.135 114.366C174.763 114.738 174.391 115.11 173.99 115.483C173.732 115.712 173.474 115.969 173.188 116.198C173.188 116.198 173.188 116.198 173.159 116.198C173.13 116.227 173.13 116.227 173.102 116.227L173.073 116.256L173.044 116.284L173.016 116.313L172.987 116.342C172.987 116.342 172.987 116.342 173.016 116.342L172.987 116.37L172.958 116.399C172.958 116.399 172.93 116.427 172.901 116.456C172.786 116.513 172.643 116.485 172.557 116.399C172.471 116.284 172.5 116.141 172.615 116.055C172.643 116.027 172.672 116.027 172.672 115.998C172.672 115.998 172.701 115.998 172.701 115.969L172.729 115.941L172.758 115.912C172.758 115.912 172.786 115.912 172.786 115.883L172.815 115.855L172.844 115.826C173.13 115.597 173.388 115.368 173.617 115.139C174.018 114.767 174.391 114.395 174.734 114.051C174.763 114.023 174.792 113.994 174.792 113.994C175.221 113.564 175.565 113.164 175.88 112.791L175.909 112.763L175.938 112.734C177.198 111.274 178.286 109.728 179.117 108.096C179.318 107.753 179.49 107.352 179.69 106.98L179.719 106.951V106.922L179.747 106.894C180.148 106.064 180.578 105.205 181.036 104.489C181.552 103.687 182.326 102.628 183.328 102.657C183.987 102.714 184.388 103.201 184.474 103.287C185.161 104.145 184.904 105.606 183.529 108.468C183.328 108.869 183.128 109.27 182.927 109.671C182.411 110.673 181.81 111.675 181.18 112.648C181.781 111.99 182.326 111.303 182.87 110.616C183.299 110.072 183.701 109.499 184.073 108.955C184.188 108.783 184.302 108.612 184.417 108.44C185.104 107.409 185.82 106.35 186.622 105.749C187.081 105.405 187.539 105.262 187.969 105.319C188.141 105.348 188.542 105.462 188.857 105.806C189.286 106.321 189.286 107.123 188.857 108.325C188.599 109.012 188.255 109.7 187.911 110.387C187.023 112.104 185.906 113.736 184.531 115.282C183.557 116.399 182.669 117.2 182.354 117.515C182.326 117.487 182.268 117.515 182.211 117.515Z" fill="black"/>
<path d="M184.674 120.579C184.617 120.579 184.56 120.55 184.503 120.493C184.417 120.407 184.417 120.235 184.503 120.149L184.818 119.863C185.333 119.376 186.078 118.661 186.909 117.859C186.909 117.859 186.909 117.859 186.938 117.83C188.456 116.342 189.831 114.939 191.034 113.679C191.32 113.393 191.75 112.935 192.036 112.448C192.323 111.99 192.409 111.56 192.294 111.217C192.18 110.816 191.836 110.473 191.435 110.329C191.148 110.243 190.833 110.272 190.461 110.473C189.773 110.787 188.943 111.56 187.997 112.448L187.94 112.505C186.708 113.622 185.62 114.652 184.646 115.511C183.385 116.656 182.555 117.344 182.383 117.458L182.354 117.487C182.24 117.544 182.096 117.544 182.01 117.429C181.924 117.315 181.953 117.172 182.068 117.086L182.096 117.057C182.182 116.971 182.927 116.37 184.331 115.11C185.305 114.252 186.422 113.25 187.625 112.104L187.682 112.047C188.656 111.131 189.516 110.358 190.26 109.986C190.747 109.757 191.177 109.7 191.607 109.843C192.151 110.014 192.638 110.501 192.781 111.074C192.924 111.56 192.81 112.104 192.466 112.677C192.151 113.192 191.721 113.679 191.406 113.994C190.203 115.254 188.799 116.656 187.281 118.145C187.281 118.145 187.281 118.145 187.253 118.174C186.422 118.975 185.706 119.691 185.161 120.178L184.846 120.464C184.789 120.55 184.732 120.579 184.674 120.579Z" fill="black"/>
<path d="M175.565 128.509C175.479 128.509 175.393 128.452 175.365 128.394C175.307 128.28 175.336 128.137 175.451 128.051C178.372 126.333 180.979 124.787 183.271 123.442C185.534 122.096 187.482 120.951 189.057 120.035C190.06 119.462 192.667 117.945 192.523 116.599C192.523 116.513 192.495 116.313 192.352 116.198C191.721 115.597 189.229 116.828 187.195 118.231C187.081 118.317 186.938 118.288 186.852 118.174C186.766 118.059 186.794 117.916 186.909 117.83C188.284 116.885 191.607 114.796 192.695 115.826C192.953 116.084 192.982 116.399 193.01 116.513C193.211 118.174 190.576 119.691 189.344 120.436C187.768 121.352 185.82 122.497 183.557 123.842C181.266 125.188 178.659 126.734 175.737 128.452C175.651 128.509 175.622 128.509 175.565 128.509Z" fill="black"/>
<path d="M168.318 117.372C168.261 117.372 168.232 117.344 168.175 117.315C168.06 117.229 168.031 117.086 168.117 116.971C169.349 115.225 169.521 114.967 169.55 114.967C170.123 114.137 170.638 113.278 171.125 112.448C171.182 112.362 171.24 112.276 171.268 112.162C171.669 111.446 172.042 110.759 172.357 110.129C172.615 109.642 172.844 109.213 173.073 108.812C173.073 108.812 173.073 108.783 173.102 108.783C173.932 107.266 174.649 106.35 175.565 106.407C176.138 106.436 176.568 106.865 176.682 107.008C176.998 107.352 177.341 108.096 176.74 110.387C176.396 111.675 175.88 112.935 175.222 114.166L175.164 114.252C175.164 114.28 175.136 114.309 175.107 114.337C175.021 114.423 174.849 114.423 174.763 114.337C174.677 114.252 174.677 114.137 174.735 114.051L174.792 113.937C175.451 112.763 175.938 111.532 176.281 110.272C176.682 108.755 176.711 107.753 176.339 107.323C176.281 107.266 175.966 106.922 175.565 106.894H175.537C174.878 106.894 174.276 107.753 173.56 109.041C173.56 109.041 173.56 109.07 173.531 109.07C173.302 109.47 173.102 109.9 172.844 110.358C172.529 110.988 172.156 111.675 171.755 112.391C171.698 112.477 171.641 112.562 171.612 112.677C171.125 113.507 170.61 114.366 170.037 115.225C170.037 115.225 169.865 115.483 168.604 117.229C168.461 117.344 168.404 117.372 168.318 117.372Z" fill="black"/>
<path d="M168.518 116.857C171.354 120.378 174.19 123.871 177.055 127.392C176.568 127.679 176.081 127.965 175.594 128.251C173.188 124.53 170.753 120.836 168.346 117.115C168.375 117.057 168.461 116.943 168.518 116.857Z" fill="black"/>
<path d="M104.724 103.372C104.667 103.372 104.609 103.344 104.552 103.287C104.466 103.201 104.466 103.029 104.552 102.943C105.211 102.313 105.87 101.597 106.5 100.882C106.844 100.481 107.159 100.08 107.789 99.2498C108.247 98.6486 108.906 97.7897 109.651 96.7304C110.425 95.6139 110.625 95.299 110.797 94.8695C111.026 94.2397 111.284 93.6098 111.026 93.0372C110.997 92.98 110.768 92.4646 110.31 92.3788C109.995 92.2929 109.708 92.436 109.479 92.5792C108.477 93.1518 107.846 94.0965 107.073 95.1844L106.815 95.528C106.815 95.528 106.758 95.6139 105.526 97.303C104.552 98.6486 103.435 99.9655 102.203 101.197C102.117 101.282 101.974 101.282 101.859 101.225C101.774 101.139 101.745 100.996 101.831 100.91C103.034 99.2498 104.094 97.5034 104.982 95.757C105.182 95.3848 105.354 95.0127 105.526 94.6405C106.643 92.207 106.901 90.89 106.414 90.2602C106.385 90.2316 106.099 89.888 105.698 89.8594C105.211 89.8307 104.667 90.3174 104.065 91.3481C103.664 92.0066 103.292 92.8082 102.919 93.5812L102.891 93.6098C102.891 93.6098 102.891 93.6098 102.891 93.6385C102.719 94.0106 102.518 94.3828 102.346 94.755C101.258 96.9308 99.9975 99.078 98.5938 101.082C98.5079 101.197 98.3647 101.225 98.2501 101.139C98.1355 101.053 98.1069 100.91 98.1928 100.796C99.5678 98.7917 100.828 96.7018 101.917 94.526C102.089 94.1538 102.289 93.8102 102.461 93.438C102.461 93.438 102.461 93.438 102.461 93.4094L102.49 93.3522C102.862 92.5792 103.234 91.7775 103.664 91.0904C104.122 90.3174 104.839 89.3154 105.755 89.3727C106.357 89.4299 106.729 89.888 106.815 89.9739C107.445 90.7755 107.216 92.1497 105.984 94.8409C105.813 95.2131 105.641 95.6139 105.44 95.9861C105.01 96.8163 104.581 97.6466 104.094 98.4482C104.466 97.9901 104.839 97.532 105.182 97.0453C106.385 95.4135 106.471 95.299 106.471 95.2703L106.729 94.9268C107.503 93.7816 108.19 92.8082 109.279 92.1784C109.594 92.0066 109.995 91.8062 110.482 91.9207C111.141 92.0925 111.456 92.7509 111.513 92.8655C111.857 93.6385 111.542 94.4401 111.284 95.0699C111.112 95.528 110.912 95.8715 110.081 97.0167C109.336 98.076 108.677 98.9349 108.219 99.5361C107.589 100.366 107.245 100.796 106.901 101.197C106.271 101.941 105.612 102.628 104.925 103.287C104.839 103.344 104.781 103.372 104.724 103.372Z" fill="black"/>
<path d="M106.93 106.235C106.872 106.235 106.815 106.207 106.758 106.178C106.672 106.092 106.672 105.92 106.758 105.835L106.987 105.606C107.474 105.119 108.133 104.46 108.935 103.659C108.935 103.659 108.935 103.659 108.963 103.63C109.68 102.886 110.424 102.141 111.141 101.368C111.628 100.824 112.143 100.28 112.659 99.7365C112.917 99.4502 113.289 99.0494 113.547 98.5913C113.805 98.1619 113.862 97.7611 113.776 97.4462C113.69 97.074 113.375 96.7304 113.031 96.6445C112.773 96.5586 112.487 96.5873 112.172 96.759C112 96.8449 111.828 96.9595 111.656 97.074C111.141 97.4462 110.596 97.9901 109.937 98.62L109.909 98.6486C108.849 99.6792 107.846 100.624 106.93 101.483C105.784 102.542 105.068 103.201 104.896 103.315C104.867 103.344 104.838 103.344 104.81 103.372C104.695 103.401 104.552 103.344 104.495 103.229C104.466 103.115 104.495 103 104.609 102.943C104.695 102.886 105.354 102.285 106.614 101.139C107.531 100.28 108.534 99.3357 109.594 98.3337L109.622 98.305C110.281 97.6752 110.854 97.1026 111.398 96.7304C111.599 96.5873 111.799 96.4441 111.971 96.3582C112.401 96.1292 112.831 96.1006 113.203 96.2151C113.719 96.3869 114.148 96.8449 114.292 97.3603C114.406 97.8183 114.32 98.3337 114.005 98.8776C113.719 99.3643 113.318 99.8224 113.031 100.109C112.516 100.653 112 101.225 111.513 101.741C110.797 102.514 110.052 103.258 109.336 104.002L109.307 104.031C108.534 104.833 107.846 105.491 107.388 105.978L107.159 106.207C107.044 106.235 106.987 106.235 106.93 106.235Z" fill="black"/>
<path d="M107.99 109.385C107.904 109.385 107.846 109.356 107.789 109.299C107.703 109.184 107.732 109.041 107.846 108.955C109.078 108.039 110.167 107.237 111.169 106.464C111.398 106.293 111.714 106.035 112.057 105.777C113.776 104.374 114.521 103.287 114.32 102.428C114.263 102.113 114.12 101.941 114.034 101.884C113.661 101.597 112.745 101.855 111.484 102.657C110.31 103.401 108.82 104.575 107.102 106.178C107.016 106.264 106.844 106.264 106.758 106.149C106.672 106.064 106.672 105.892 106.786 105.806C108.534 104.203 110.023 103 111.227 102.227C112.745 101.282 113.747 101.025 114.32 101.483C114.464 101.597 114.693 101.855 114.779 102.285C115.094 103.687 113.547 105.147 112.344 106.121C112 106.407 111.685 106.636 111.427 106.837C110.424 107.61 109.336 108.411 108.104 109.327C108.075 109.385 108.018 109.385 107.99 109.385Z" fill="black"/>
<path d="M98.2213 102.771C98.1926 102.771 98.1926 102.771 98.2213 102.771C98.078 102.771 97.9635 102.657 97.9921 102.514C98.0208 101.97 98.1067 101.397 98.1926 100.853C98.3072 100.195 98.4791 99.5934 98.6223 99.078C98.8801 98.1333 99.1093 97.3316 99.0234 96.3582C98.9947 96.0433 98.9374 95.6998 98.6796 95.4421C98.6796 95.4421 98.3359 95.1272 97.8202 95.0985C96.9609 95.0699 95.6718 97.9329 94.8984 100.653C94.8697 100.796 94.7265 100.853 94.6119 100.824C94.4687 100.796 94.4114 100.653 94.44 100.538C94.4973 100.366 94.8984 98.9062 95.4999 97.4748C96.302 95.5566 97.0754 94.6118 97.7916 94.6118H97.8202C98.5364 94.6405 98.9947 95.0699 99.0234 95.0985C99.3958 95.4707 99.4817 95.9574 99.5103 96.3296C99.5963 97.3603 99.3671 98.2191 99.1093 99.2212C98.9661 99.7651 98.8228 100.309 98.6796 100.968C98.5937 101.483 98.5077 102.027 98.4791 102.571C98.4504 102.657 98.3359 102.771 98.2213 102.771Z" fill="black"/>
<path d="M106.987 106.837C106.901 106.837 106.787 106.779 106.758 106.693C106.242 105.434 105.497 104.289 104.552 103.315C103.55 102.313 102.318 101.512 101 100.996C100.886 100.939 100.8 100.796 100.857 100.681C100.914 100.567 101.057 100.481 101.172 100.538C102.547 101.082 103.836 101.912 104.896 102.972C105.899 104.002 106.672 105.176 107.216 106.522C107.274 106.636 107.216 106.779 107.073 106.837C107.044 106.837 107.016 106.837 106.987 106.837Z" fill="black"/>
<path d="M88.4246 69.1604L83.2683 72.0805L82.3517 76.1745C82.1511 76.0028 81.1772 75.1725 79.7735 75.287C78.284 75.4016 77.4246 76.4608 77.1668 76.8044C76.1642 78.2072 76.2787 80.1254 77.1095 81.471C78.2267 83.3033 80.3178 83.5323 80.5756 83.5609C78.4845 85.5936 76.3933 87.6263 74.3022 89.6876C71.81 89.6876 69.2892 89.6876 66.797 89.6876C66.2241 87.7981 65.5366 84.9924 65.2215 81.5282C64.8204 77.1193 64.5626 74.4282 65.909 71.3934C66.3959 70.2769 68.4298 66.1543 73.185 64.4079C73.185 64.4079 78.8569 62.2893 84.7006 65.7535C86.534 66.8414 87.7657 68.3015 87.7657 68.3015C87.9949 68.5305 88.2241 68.8454 88.4246 69.1604Z" fill="black"/>
<path d="M83.1252 77.1766C83.0393 77.1766 82.9533 77.1193 82.9247 77.0621C82.7814 76.8044 82.6096 76.5754 82.4091 76.3463C82.2372 76.1459 82.0367 75.9741 81.8361 75.831C81.7216 75.7451 81.7216 75.602 81.7788 75.4874C81.8648 75.3729 82.008 75.3729 82.1226 75.4302C82.3518 75.602 82.5523 75.8024 82.7528 76.0028C82.982 76.2604 83.1825 76.5181 83.3257 76.8044C83.383 76.9189 83.3544 77.0621 83.2398 77.1479C83.2111 77.1479 83.1538 77.1766 83.1252 77.1766Z" fill="black"/>
<path d="M81.0913 83.9617C80.8908 83.9617 80.6903 83.9331 80.4611 83.9045C80.232 83.8758 80.0028 83.8472 79.7736 83.8186C79.6304 83.79 79.5445 83.6754 79.5731 83.5323C79.6018 83.3891 79.7163 83.3033 79.8596 83.3319C80.0887 83.3605 80.2893 83.3891 80.5184 83.4178C80.7189 83.4464 80.9195 83.4464 81.0913 83.475C81.2346 83.475 81.3205 83.5896 81.3205 83.7327C81.3492 83.8758 81.2346 83.9617 81.0913 83.9617Z" fill="black"/>
<path d="M83.2109 93.438C83.0677 93.438 82.9531 93.3235 82.9531 93.1804L82.9818 91.9779C82.9818 91.8634 83.0677 91.7775 83.1536 91.7489C83.6693 91.6058 84.1562 91.434 84.6146 91.2049C85.7891 90.6896 86.7917 89.9739 87.651 89.115C87.6797 89.0864 91.0026 85.565 90.7161 79.2665C90.7161 79.152 90.7161 79.0375 90.7161 79.0375C90.7161 78.8371 90.6875 78.4363 90.6302 77.8923C90.401 75.5447 90.0573 72.3382 88.2526 69.6184C88.1953 69.5325 88.138 69.4466 88.0807 69.3608C87.9948 69.2462 88.0234 69.1031 88.138 69.0172C88.2526 68.9313 88.3958 68.9599 88.4818 69.0745C88.5391 69.1603 88.5964 69.2462 88.6536 69.3321C90.5443 72.1664 90.8594 75.4302 91.1172 77.8064C91.1745 78.3504 91.2031 78.7798 91.2031 78.9802C91.2031 78.9802 91.2031 79.0947 91.2031 79.2093C91.5182 85.7367 88.1667 89.2868 88.0234 89.4299C87.1354 90.3461 86.0755 91.0904 84.8438 91.6344C84.4141 91.8348 83.9557 92.0066 83.4974 92.1497L83.4688 93.1804C83.4401 93.3235 83.3255 93.438 83.2109 93.438Z" fill="black"/>
<path d="M66.9403 94.4401C66.797 94.4401 66.7111 94.3256 66.6825 94.211L66.6538 89.4299C66.6538 89.2868 66.7684 89.1723 66.883 89.1723C66.9976 89.1723 67.1408 89.2868 67.1408 89.4013L67.1694 94.1824C67.1981 94.3256 67.0835 94.4401 66.9403 94.4401Z" fill="black"/>
<path d="M83.3828 91.7775C83.3255 92.0066 83.2396 92.2642 83.2109 92.6078C83.1823 92.8368 83.1823 93.0372 83.2109 93.209L81.0052 93.3522C80.8333 93.3235 80.6615 93.2663 80.4896 93.209C78.9427 92.7509 77.6823 92.0066 76.6797 91.2336C78.3411 91.6344 80.2604 91.8921 82.3802 91.8348C82.724 91.8062 83.0677 91.8062 83.3828 91.7775Z" fill="black"/>
<path d="M47.0026 189.26C46.9453 189.26 46.888 189.232 46.8307 189.203C46.7734 189.146 46.7448 189.089 46.7448 189.031C46.7448 183.993 46.7161 178.754 46.6589 173.457C46.6589 172.14 46.6302 170.795 46.6016 169.449C46.5729 166.93 46.5156 164.353 46.4583 161.547V161.204C46.2292 149.151 45.8568 136.897 45.3125 124.844C45.3125 124.701 45.3984 124.587 45.5417 124.587C45.6849 124.587 45.7995 124.673 45.7995 124.816C46.3151 136.869 46.6875 149.122 46.9453 161.175V161.519C47.0026 164.324 47.0312 166.901 47.0885 169.42C47.1172 170.766 47.1172 172.083 47.1458 173.428C47.2031 178.61 47.2318 183.764 47.2318 188.745L106.643 183.993C106.214 177.007 105.812 169.793 105.469 162.607C105.068 154.361 104.724 145.944 104.438 137.642C104.438 137.499 104.552 137.384 104.667 137.384C104.81 137.384 104.924 137.499 104.924 137.613C105.211 145.916 105.555 154.304 105.956 162.578C106.328 169.85 106.729 177.122 107.159 184.193C107.159 184.336 107.073 184.451 106.93 184.451L47.0026 189.26Z" fill="black"/>
<path d="M129.875 148.693C129.56 148.693 129.245 148.664 128.958 148.635C124.06 148.149 119.706 146.231 114.32 143.339C112.115 142.165 109.651 140.762 107.016 139.274C104.581 137.871 102.146 136.353 102.117 136.325C101.458 135.895 100.885 135.523 100.484 135.266C100.37 135.18 100.341 135.036 100.427 134.922C100.513 134.807 100.656 134.779 100.771 134.865C101.172 135.122 101.716 135.495 102.404 135.924C102.432 135.953 104.839 137.47 107.273 138.844C109.88 140.333 112.344 141.736 114.549 142.91C119.906 145.801 124.203 147.662 129.016 148.177C132.052 148.492 137.065 147.061 145.229 144.341C147.693 143.511 150.443 142.566 153.622 141.478L154.367 141.22C159.581 139.445 164.422 137.556 166.857 136.611C170.438 135.208 174.047 133.72 177.57 132.202C175.823 129.082 173.961 125.961 171.984 122.955C171.211 121.781 170.438 120.607 169.635 119.433C169.063 118.603 168.576 117.916 168.117 117.286C168.089 117.229 168.06 117.2 168.031 117.143L132.911 128.194C132.854 128.223 132.768 128.194 132.711 128.165C131.909 127.65 131.164 127.163 130.419 126.677C130.19 126.534 129.961 126.362 129.703 126.219L128.872 125.675C128.471 125.417 128.07 125.131 127.641 124.844C127.383 124.673 127.125 124.501 126.867 124.3C126.18 123.842 125.492 123.327 124.776 122.84C123.172 121.695 121.596 120.521 120.049 119.348C116.669 116.742 114.492 114.939 112.602 113.307C110.768 111.761 109.193 110.415 106.93 108.726L106.872 108.697C103.406 106.121 96.9323 101.34 89.3698 98.6486C88.9401 98.5054 88.4818 98.3337 87.9948 98.1905C87.4505 98.0187 74.2734 93.9534 61.1537 98.4482C61.0391 98.5054 60.8958 98.4195 60.8385 98.305C60.7813 98.1905 60.8672 98.0474 60.9818 97.9901C74.2448 93.4667 87.5651 97.5607 88.138 97.7324C88.625 97.8756 89.0833 98.0474 89.513 98.1905C97.1042 100.91 103.635 105.72 107.13 108.297L107.188 108.325C109.451 110.014 111.055 111.36 112.888 112.906C114.779 114.509 116.927 116.342 120.307 118.918C121.854 120.092 123.43 121.266 125.034 122.411C125.721 122.898 126.438 123.413 127.096 123.871C127.354 124.043 127.612 124.215 127.87 124.386C128.299 124.673 128.701 124.959 129.102 125.217L129.904 125.761C130.133 125.932 130.391 126.076 130.62 126.219C131.336 126.705 132.052 127.163 132.797 127.65L167.974 116.599C168.089 116.571 168.174 116.599 168.232 116.685L168.289 116.771C168.346 116.828 168.375 116.914 168.432 116.971C168.891 117.601 169.378 118.288 169.951 119.119C170.753 120.264 171.526 121.466 172.299 122.64C174.305 125.732 176.224 128.938 178.029 132.145C178.057 132.202 178.057 132.288 178.057 132.345C178.029 132.403 178 132.46 177.914 132.488C174.333 134.063 170.638 135.58 166.943 137.012C164.508 137.957 159.667 139.818 154.453 141.621L153.708 141.879C150.529 142.967 147.779 143.912 145.315 144.742C137.896 147.29 133.055 148.693 129.875 148.693Z" fill="black"/>
<path d="M46.9167 169.707C46.888 169.707 46.888 169.707 46.8594 169.707C46.8594 169.707 46.8307 169.707 46.8021 169.707C43.2787 168.991 40.3854 167.588 38.1797 165.498C35.9167 163.351 34.1979 160.345 33.0807 156.594C30.5026 147.948 31.3906 136.325 35.4583 125.474C39.9557 113.45 47.6042 104.289 56.9427 99.6792C58.2604 99.0208 59.6354 98.4482 61.0677 97.9615C61.2109 97.9042 61.3828 98.0187 61.3828 98.1905C61.3828 98.305 61.2969 98.3909 61.2109 98.4195C59.8073 98.9062 58.4323 99.4788 57.1432 100.109C47.8906 104.661 40.3568 113.708 35.888 125.617C31.8776 136.353 30.9896 147.862 33.5104 156.423C34.599 160.116 36.2891 163.036 38.4948 165.126C40.6432 167.159 43.4505 168.533 46.888 169.22C46.888 169.22 46.9167 169.22 46.9453 169.22C47.0885 169.249 47.1745 169.392 47.1458 169.506C47.1172 169.649 47.0026 169.707 46.9167 169.707Z" fill="black"/>
<path d="M90.573 92.7223C90.2292 94.6118 89.8855 96.5014 89.5417 98.3909C89.0834 98.2191 88.6251 98.076 88.1667 97.9328C87.3933 97.6752 74.2735 93.7243 61.1537 98.1905C60.4662 97.0167 59.8074 95.8715 59.1199 94.6977L81.0053 93.3235L83.211 93.1804L85.1876 93.0659L90.573 92.7223Z" fill="#FF735A"/>
<path d="M97.0183 185.252C96.9896 185.252 96.9896 185.252 97.0183 185.252C96.8464 185.224 96.7605 185.109 96.7891 184.995L102.031 136.096C102.06 135.953 102.175 135.867 102.289 135.867C102.432 135.867 102.518 136.01 102.518 136.124L97.2761 185.023C97.2475 185.166 97.1329 185.252 97.0183 185.252Z" fill="black"/>
<path d="M145.315 144.57C136.893 147.376 132.023 148.721 128.987 148.435C124.26 147.948 120.049 146.173 114.435 143.167C120.622 140.676 133.484 137.041 144.628 144.141C144.828 144.255 145.057 144.398 145.315 144.57Z" fill="#FF735A"/>
<path d="M46.8593 169.449C44.2525 168.934 41.0155 167.817 38.3515 165.298C36.0598 163.122 34.3697 160.087 33.3098 156.48C37.0911 157.052 42.2473 158.369 46.7161 161.204C46.7161 161.318 46.7161 161.433 46.7161 161.547C46.7734 164.21 46.802 166.844 46.8593 169.449Z" fill="#FF735A"/>
<path fill-rule="evenodd" clip-rule="evenodd" d="M134.716 59.0542C135.976 58.3098 137.667 57.4796 139.758 56.7352L156.802 56.0481C157.031 56.0767 157.346 56.134 157.719 56.2199C157.719 56.2199 158.521 56.3917 159.38 56.6493C160.268 56.907 162.216 57.6514 164.737 58.7965C164.995 58.911 165.281 59.0542 165.539 59.1973C165.825 59.3405 166.14 59.5122 166.455 59.6839L166.456 59.684C166.554 59.7463 166.652 59.8059 166.748 59.8644C166.961 59.994 167.166 60.1185 167.344 60.2566C167.249 60.4464 167.095 60.7147 166.915 61.029C166.877 61.0942 166.839 61.1612 166.799 61.23C163.648 66.641 159.667 70.1338 157.232 71.966C153.107 75.058 149.096 76.7471 146.232 77.6919C146.146 77.6633 146.06 77.6346 145.974 77.6346C145.745 77.6346 145.544 77.7492 145.458 77.9496C145.387 77.9782 145.315 77.9997 145.243 78.0211C145.172 78.0426 145.1 78.0641 145.029 78.0927C144.943 77.9352 144.864 77.7778 144.789 77.6275C144.713 77.4772 144.642 77.334 144.57 77.2052C144.513 77.0907 144.427 76.9189 144.312 76.7185C144.169 76.4608 143.94 76.1745 143.682 76.0314C143.568 75.9455 143.453 75.9169 143.338 75.9169C143.338 75.9169 142.937 75.9169 142.594 76.2891C142.422 76.4895 142.25 76.9762 142.995 78.6939C141.849 78.9802 140.846 79.1806 140.016 79.3238C139.93 79.0947 139.7 78.9516 139.471 78.9516C139.213 78.9516 138.956 79.152 138.898 79.4097C138.469 79.4956 138.039 79.5528 137.581 79.6101C136.148 79.7818 134.831 79.8105 133.628 79.7818C133.441 79.7675 133.262 79.7604 133.083 79.7532C132.904 79.7461 132.725 79.7389 132.539 79.7246C127.096 79.4097 122.427 77.9496 118.818 76.2891C119.305 75.4302 119.792 74.5713 120.336 73.7124C120.479 73.4548 120.651 73.1971 120.823 72.9394C121.596 71.737 122.427 70.5632 123.315 69.418L124.003 68.5591C124.661 67.7289 125.378 66.8986 126.122 66.097L126.122 66.097C126.352 65.8393 126.581 65.5817 126.838 65.324C127.669 64.4651 128.557 63.6349 129.445 62.8619C129.531 62.776 129.932 62.4325 130.362 62.0889C130.386 62.0699 130.41 62.0501 130.436 62.0296C131.18 61.4344 132.667 60.2443 134.716 59.0542ZM136.435 69.418C136.177 69.2462 135.919 69.0458 135.69 68.8454L136.435 69.418Z" fill="#FF735A"/>
<path d="M139.758 56.7352L139.747 56.4698C139.72 56.4709 139.694 56.476 139.669 56.485L139.758 56.7352ZM134.716 59.0542L134.849 59.2839L134.851 59.2829L134.716 59.0542ZM156.802 56.0481L156.835 55.7845C156.82 55.7827 156.806 55.7821 156.791 55.7827L156.802 56.0481ZM157.719 56.2199L157.659 56.4787L157.663 56.4796L157.719 56.2199ZM159.38 56.6493L159.304 56.9038L159.306 56.9044L159.38 56.6493ZM164.737 58.7965L164.627 59.0384L164.629 59.0393L164.737 58.7965ZM165.539 59.1973L165.41 59.4298L165.42 59.4349L165.539 59.1973ZM166.455 59.6839L166.328 59.9172L166.33 59.9183L166.455 59.6839ZM166.456 59.684L166.598 59.4599C166.592 59.4563 166.587 59.4529 166.581 59.4497L166.456 59.684ZM166.748 59.8644L166.886 59.6374L166.886 59.6374L166.748 59.8644ZM167.344 60.2566L167.581 60.3755C167.638 60.2622 167.607 60.1246 167.507 60.0469L167.344 60.2566ZM166.915 61.029L167.145 61.1612L167.145 61.1612L166.915 61.029ZM166.799 61.23L167.029 61.3637L167.03 61.3619L166.799 61.23ZM157.232 71.966L157.391 72.1786L157.391 72.1783L157.232 71.966ZM146.232 77.6919L146.148 77.9439C146.202 77.962 146.261 77.9621 146.315 77.9442L146.232 77.6919ZM145.458 77.9496L145.557 78.1962C145.622 78.1701 145.675 78.119 145.702 78.0543L145.458 77.9496ZM145.029 78.0927L144.795 78.22C144.86 78.338 145.002 78.3893 145.127 78.3394L145.029 78.0927ZM144.789 77.6275L145.026 77.5086V77.5086L144.789 77.6275ZM144.57 77.2052L144.332 77.3242L144.338 77.3343L144.57 77.2052ZM144.312 76.7185L144.08 76.8476L144.082 76.8503L144.312 76.7185ZM143.682 76.0314L143.523 76.2439C143.533 76.2512 143.543 76.2578 143.553 76.2636L143.682 76.0314ZM142.594 76.2891L142.398 76.1087L142.392 76.1161L142.594 76.2891ZM142.995 78.6939L143.059 78.9516C143.135 78.9327 143.198 78.8815 143.233 78.8115C143.267 78.7415 143.269 78.6599 143.238 78.5883L142.995 78.6939ZM140.016 79.3238L139.767 79.4171C139.812 79.5365 139.935 79.6072 140.061 79.5855L140.016 79.3238ZM138.898 79.4097L138.95 79.6701C139.054 79.6495 139.135 79.57 139.158 79.4673L138.898 79.4097ZM137.581 79.6101L137.612 79.8738L137.614 79.8736L137.581 79.6101ZM133.628 79.7818L133.607 80.0471L133.621 80.0474L133.628 79.7818ZM132.539 79.7246L132.559 79.4597L132.554 79.4594L132.539 79.7246ZM118.818 76.2891L118.587 76.158C118.55 76.2227 118.542 76.2998 118.565 76.3706C118.588 76.4413 118.639 76.4993 118.707 76.5304L118.818 76.2891ZM120.336 73.7124L120.56 73.8546C120.563 73.8503 120.566 73.8459 120.568 73.8415L120.336 73.7124ZM120.823 72.9394L121.044 73.0868L121.046 73.0831L120.823 72.9394ZM123.315 69.418L123.108 69.252L123.105 69.2552L123.315 69.418ZM124.003 68.5591L124.21 68.7251L124.211 68.7243L124.003 68.5591ZM126.122 66.097L126.317 66.2779L126.322 66.2719L126.122 66.097ZM126.122 66.097L125.924 65.9204L125.922 65.9221L126.122 66.097ZM126.838 65.324L127.026 65.5119L127.029 65.5087L126.838 65.324ZM129.445 62.8619L129.62 63.0622C129.624 63.0582 129.629 63.0541 129.633 63.0498L129.445 62.8619ZM130.362 62.0889L130.196 61.8814L130.196 61.8814L130.362 62.0889ZM130.436 62.0296L130.27 61.8222L130.27 61.8222L130.436 62.0296ZM136.435 69.418L136.288 69.6391C136.407 69.7185 136.567 69.6891 136.651 69.5727C136.734 69.4563 136.71 69.2947 136.597 69.2074L136.435 69.418ZM135.69 68.8454L135.852 68.6348C135.738 68.5474 135.576 68.5661 135.485 68.677C135.394 68.7879 135.407 68.951 135.515 69.0454L135.69 68.8454ZM139.669 56.485C137.562 57.235 135.856 58.0725 134.581 58.8255L134.851 59.2829C136.097 58.5472 137.772 57.7241 139.847 56.9855L139.669 56.485ZM156.791 55.7827L139.747 56.4698L139.768 57.0006L156.813 56.3135L156.791 55.7827ZM157.778 55.9611C157.4 55.8739 157.076 55.8146 156.835 55.7845L156.769 56.3117C156.987 56.3389 157.292 56.3941 157.659 56.4787L157.778 55.9611ZM159.456 56.3949C159.021 56.2643 158.601 56.1558 158.29 56.0799C158.135 56.042 158.006 56.0121 157.916 55.9917C157.871 55.9815 157.836 55.9737 157.812 55.9684C157.8 55.9657 157.791 55.9637 157.784 55.9623C157.781 55.9616 157.779 55.9611 157.777 55.9607C157.776 55.9606 157.776 55.9604 157.775 55.9603C157.775 55.9603 157.775 55.9602 157.775 55.9602C157.774 55.9602 157.774 55.9602 157.774 55.9602C157.774 55.9602 157.774 55.9602 157.774 55.9602C157.774 55.9602 157.774 55.9602 157.719 56.2199C157.663 56.4796 157.663 56.4796 157.663 56.4796C157.663 56.4796 157.663 56.4796 157.663 56.4796C157.663 56.4796 157.663 56.4796 157.663 56.4796C157.663 56.4796 157.663 56.4797 157.663 56.4797C157.664 56.4798 157.664 56.4799 157.665 56.48C157.666 56.4804 157.669 56.4808 157.672 56.4815C157.677 56.4827 157.686 56.4846 157.698 56.4872C157.721 56.4923 157.755 56.4999 157.799 56.5098C157.886 56.5296 158.012 56.5588 158.164 56.596C158.469 56.6705 158.88 56.7767 159.304 56.9038L159.456 56.3949ZM164.847 58.5547C162.323 57.4081 160.361 56.6573 159.454 56.3942L159.306 56.9044C160.175 57.1567 162.109 57.8946 164.627 59.0384L164.847 58.5547ZM165.668 58.9651C165.404 58.8183 165.11 58.6716 164.845 58.5538L164.629 59.0393C164.879 59.1505 165.159 59.2901 165.41 59.4296L165.668 58.9651ZM166.583 59.4507C166.269 59.2795 165.949 59.1054 165.658 58.9597L165.42 59.4349C165.702 59.5755 166.012 59.7449 166.328 59.9172L166.583 59.4507ZM166.581 59.4497L166.58 59.4496L166.33 59.9183L166.331 59.9184L166.581 59.4497ZM166.886 59.6374C166.789 59.5787 166.694 59.5205 166.598 59.4599L166.313 59.9082C166.414 59.9722 166.514 60.0331 166.61 60.0914L166.886 59.6374ZM167.507 60.0469C167.315 59.8977 167.096 59.7653 166.886 59.6374L166.61 60.0914C166.826 60.2228 167.017 60.3393 167.181 60.4663L167.507 60.0469ZM167.145 61.1612C167.324 60.8499 167.482 60.5736 167.581 60.3755L167.106 60.1378C167.015 60.3191 166.866 60.5794 166.684 60.8969L167.145 61.1612ZM167.03 61.3619C167.069 61.2933 167.108 61.2263 167.145 61.1612L166.684 60.8969C166.647 60.962 166.608 61.0292 166.569 61.0982L167.03 61.3619ZM157.391 72.1783C159.844 70.3328 163.854 66.8151 167.029 61.3637L166.57 61.0964C163.442 66.4669 159.489 69.9347 157.072 71.7538L157.391 72.1783ZM146.315 77.9442C149.199 76.993 153.237 75.2923 157.391 72.1786L157.072 71.7535C152.976 74.8237 148.994 76.5012 146.148 77.4396L146.315 77.9442ZM145.974 77.9003C146.009 77.9003 146.053 77.9123 146.148 77.9439L146.316 77.4399C146.239 77.4142 146.111 77.369 145.974 77.369V77.9003ZM145.702 78.0543C145.74 77.9676 145.832 77.9003 145.974 77.9003V77.369C145.657 77.369 145.349 77.5307 145.214 77.8449L145.702 78.0543ZM145.32 78.2756C145.39 78.2546 145.473 78.2299 145.557 78.1962L145.36 77.7029C145.301 77.7265 145.24 77.7447 145.167 77.7667L145.32 78.2756ZM145.127 78.3394C145.186 78.3158 145.246 78.2975 145.32 78.2756L145.167 77.7667C145.097 77.7877 145.014 77.8123 144.93 77.8461L145.127 78.3394ZM144.551 77.7463C144.626 77.896 144.707 78.0577 144.795 78.22L145.262 77.9655C145.178 77.8128 145.102 77.6595 145.026 77.5086L144.551 77.7463ZM144.338 77.3343C144.406 77.4571 144.475 77.5948 144.551 77.7463L145.026 77.5086C144.952 77.3596 144.877 77.211 144.802 77.0761L144.338 77.3343ZM144.082 76.8503C144.192 77.0439 144.276 77.21 144.333 77.324L144.808 77.0864C144.75 76.9714 144.662 76.794 144.543 76.5867L144.082 76.8503ZM143.553 76.2636C143.75 76.3728 143.949 76.611 144.08 76.8476L144.545 76.5894C144.39 76.3107 144.13 75.9763 143.811 75.7992L143.553 76.2636ZM143.338 76.1825C143.403 76.1825 143.46 76.1966 143.523 76.2439L143.842 75.8189C143.675 75.6944 143.503 75.6513 143.338 75.6513V76.1825ZM142.789 76.4693C142.924 76.3224 143.069 76.2512 143.177 76.216C143.231 76.1984 143.277 76.1899 143.306 76.1859C143.321 76.1839 143.331 76.1831 143.337 76.1827C143.34 76.1825 143.342 76.1825 143.342 76.1825C143.342 76.1825 143.342 76.1825 143.341 76.1825C143.341 76.1825 143.341 76.1825 143.34 76.1825C143.34 76.1825 143.34 76.1825 143.339 76.1825C143.339 76.1825 143.339 76.1825 143.339 76.1825C143.339 76.1825 143.339 76.1825 143.339 76.1825C143.339 76.1825 143.338 76.1825 143.338 75.9169C143.338 75.6513 143.338 75.6513 143.338 75.6513C143.338 75.6513 143.338 75.6513 143.338 75.6513C143.338 75.6513 143.338 75.6513 143.337 75.6513C143.337 75.6513 143.337 75.6513 143.336 75.6513C143.335 75.6513 143.334 75.6513 143.333 75.6513C143.331 75.6513 143.329 75.6514 143.326 75.6515C143.32 75.6516 143.313 75.652 143.304 75.6525C143.286 75.6536 143.263 75.6556 143.235 75.6595C143.178 75.6671 143.102 75.6819 143.013 75.7108C142.835 75.7687 142.607 75.8835 142.399 76.1088L142.789 76.4693ZM143.238 78.5883C142.871 77.74 142.74 77.2202 142.715 76.9015C142.691 76.5955 142.764 76.4981 142.795 76.462L142.392 76.1161C142.251 76.2805 142.153 76.5266 142.186 76.9435C142.218 77.3477 142.374 77.9301 142.751 78.7996L143.238 78.5883ZM140.061 79.5855C140.897 79.4414 141.906 79.2397 143.059 78.9516L142.93 78.4362C141.792 78.7207 140.795 78.9198 139.97 79.062L140.061 79.5855ZM139.471 79.2172C139.598 79.2172 139.723 79.2989 139.767 79.4171L140.264 79.2305C140.137 78.8905 139.803 78.686 139.471 78.686V79.2172ZM139.158 79.4673C139.187 79.3337 139.335 79.2172 139.471 79.2172V78.686C139.092 78.686 138.724 78.9703 138.639 79.352L139.158 79.4673ZM137.614 79.8736C138.072 79.8163 138.51 79.7581 138.95 79.6701L138.846 79.1492C138.427 79.233 138.006 79.2893 137.548 79.3465L137.614 79.8736ZM133.621 80.0474C134.833 80.0762 136.164 80.0475 137.612 79.8738L137.549 79.3463C136.133 79.5162 134.828 79.5447 133.634 79.5163L133.621 80.0474ZM133.073 80.0186C133.252 80.0258 133.427 80.0328 133.607 80.0467L133.648 79.517C133.456 79.5023 133.272 79.4949 133.094 79.4878L133.073 80.0186ZM132.519 79.9894C132.71 80.0042 132.894 80.0115 133.073 80.0186L133.094 79.4878C132.914 79.4806 132.74 79.4736 132.559 79.4597L132.519 79.9894ZM118.707 76.5304C122.341 78.2023 127.042 79.6726 132.524 79.9898L132.554 79.4594C127.15 79.1467 122.513 77.6969 118.929 76.0478L118.707 76.5304ZM120.111 73.5702C119.563 74.4355 119.073 75.3 118.587 76.158L119.049 76.4201C119.536 75.5604 120.02 74.7071 120.56 73.8546L120.111 73.5702ZM120.602 72.792C120.431 73.0479 120.253 73.3146 120.104 73.5834L120.568 73.8415C120.705 73.5949 120.871 73.3463 121.044 73.0868L120.602 72.792ZM123.105 69.2552C122.212 70.4065 121.377 71.5867 120.599 72.7957L121.046 73.0831C121.815 71.8873 122.642 70.7199 123.525 69.5808L123.105 69.2552ZM123.795 68.3931L123.108 69.252L123.522 69.584L124.21 68.7251L123.795 68.3931ZM125.928 65.9162C125.179 66.7225 124.458 67.558 123.794 68.394L124.211 68.7243C124.865 67.8998 125.576 67.0747 126.317 66.2778L125.928 65.9162ZM125.922 65.9221L125.922 65.9221L126.322 66.2719L126.322 66.2719L125.922 65.9221ZM126.651 65.1361C126.387 65.4001 126.152 65.6635 125.924 65.9204L126.321 66.2735C126.551 66.0151 126.775 65.7632 127.026 65.5119L126.651 65.1361ZM129.271 62.6615C128.378 63.4387 127.484 64.2741 126.648 65.1393L127.029 65.5087C127.854 64.6561 128.736 63.8311 129.62 63.0622L129.271 62.6615ZM130.196 61.8814C129.768 62.2237 129.355 62.5761 129.257 62.674L129.633 63.0498C129.707 62.9759 130.097 62.6412 130.528 62.2964L130.196 61.8814ZM130.27 61.8222C130.244 61.8427 130.22 61.8624 130.196 61.8814L130.528 62.2964C130.552 62.2773 130.576 62.2575 130.602 62.237L130.27 61.8222ZM134.583 58.8245C132.516 60.0249 131.016 61.2253 130.27 61.8222L130.602 62.237C131.343 61.6436 132.818 60.4637 134.849 59.2839L134.583 58.8245ZM136.582 69.197C136.335 69.0323 136.086 68.8391 135.865 68.6455L135.515 69.0454C135.752 69.2525 136.019 69.4602 136.288 69.6391L136.582 69.197ZM135.528 69.056L136.273 69.6286L136.597 69.2074L135.852 68.6348L135.528 69.056Z" fill="black"/>
<path d="M130.477 62.4325C130.477 62.7474 130.219 63.0337 129.875 63.0337C129.703 63.0337 129.56 62.9764 129.445 62.8619C129.732 62.6042 130.047 62.3466 130.362 62.0889C130.419 62.1748 130.477 62.2893 130.477 62.4325Z" fill="black"/>
<path d="M127.268 65.868C127.268 66.1829 127.01 66.4692 126.667 66.4692C126.409 66.4692 126.18 66.2974 126.122 66.0684C126.351 65.8107 126.609 65.5531 126.838 65.2954C127.096 65.3813 127.268 65.6103 127.268 65.868Z" fill="black"/>
<path d="M133.083 66.4692C133.415 66.4692 133.685 66.2 133.685 65.868C133.685 65.5359 133.415 65.2668 133.083 65.2668C132.751 65.2668 132.482 65.5359 132.482 65.868C132.482 66.2 132.751 66.4692 133.083 66.4692Z" fill="black"/>
<path d="M124.06 68.8454C124.06 69.1604 123.802 69.4466 123.458 69.4466C123.401 69.4466 123.344 69.4466 123.286 69.418C123.516 69.1317 123.745 68.8454 123.974 68.5591C124.031 68.645 124.06 68.7309 124.06 68.8454Z" fill="black"/>
<path d="M129.875 69.4466C130.207 69.4466 130.477 69.1775 130.477 68.8454C130.477 68.5134 130.207 68.2442 129.875 68.2442C129.543 68.2442 129.273 68.5134 129.273 68.8454C129.273 69.1775 129.543 69.4466 129.875 69.4466Z" fill="black"/>
<path d="M136.435 69.418C136.378 69.418 136.32 69.4466 136.263 69.4466C135.948 69.4466 135.661 69.189 135.661 68.8454C135.919 69.0458 136.177 69.2462 136.435 69.418Z" fill="black"/>
<path d="M156 56.363C156 56.6207 155.857 56.8211 155.628 56.907C155.742 56.6207 155.857 56.363 155.943 56.1054C155.971 56.1913 156 56.2771 156 56.363Z" fill="black"/>
<path d="M158.607 59.9131C158.939 59.9131 159.208 59.6439 159.208 59.3119C159.208 58.9798 158.939 58.7106 158.607 58.7106C158.274 58.7106 158.005 58.9798 158.005 59.3119C158.005 59.6439 158.274 59.9131 158.607 59.9131Z" fill="black"/>
<path d="M165.596 59.3119C165.596 59.6268 165.339 59.9131 164.995 59.9131C164.651 59.9131 164.393 59.6554 164.393 59.3119C164.393 59.0542 164.537 58.8538 164.766 58.7679C165.024 58.911 165.31 59.0542 165.568 59.1687C165.596 59.226 165.596 59.2832 165.596 59.3119Z" fill="black"/>
<path d="M155.398 63.3772C155.731 63.3772 156 63.1081 156 62.776C156 62.444 155.731 62.1748 155.398 62.1748C155.066 62.1748 154.797 62.444 154.797 62.776C154.797 63.1081 155.066 63.3772 155.398 63.3772Z" fill="black"/>
<path d="M161.815 63.3772C162.147 63.3772 162.417 63.1081 162.417 62.776C162.417 62.444 162.147 62.1748 161.815 62.1748C161.483 62.1748 161.214 62.444 161.214 62.776C161.214 63.1081 161.483 63.3772 161.815 63.3772Z" fill="black"/>
<path d="M152.19 66.3261C152.522 66.3261 152.792 66.0569 152.792 65.7248C152.792 65.3928 152.522 65.1236 152.19 65.1236C151.858 65.1236 151.589 65.3928 151.589 65.7248C151.589 66.0569 151.858 66.3261 152.19 66.3261Z" fill="black"/>
<path d="M158.607 66.3261C158.939 66.3261 159.208 66.0569 159.208 65.7248C159.208 65.3928 158.939 65.1236 158.607 65.1236C158.274 65.1236 158.005 65.3928 158.005 65.7248C158.005 66.0569 158.274 66.3261 158.607 66.3261Z" fill="black"/>
<path d="M149.24 69.4753C149.572 69.4753 149.841 69.2061 149.841 68.8741C149.841 68.542 149.572 68.2728 149.24 68.2728C148.907 68.2728 148.638 68.542 148.638 68.8741C148.638 69.2061 148.907 69.4753 149.24 69.4753Z" fill="black"/>
<path d="M155.628 69.4753C155.96 69.4753 156.229 69.2061 156.229 68.8741C156.229 68.542 155.96 68.2728 155.628 68.2728C155.295 68.2728 155.026 68.542 155.026 68.8741C155.026 69.2061 155.295 69.4753 155.628 69.4753Z" fill="black"/>
<path d="M146.031 72.4527C146.363 72.4527 146.633 72.1836 146.633 71.8515C146.633 71.5195 146.363 71.2503 146.031 71.2503C145.699 71.2503 145.43 71.5195 145.43 71.8515C145.43 72.1836 145.699 72.4527 146.031 72.4527Z" fill="black"/>
<path d="M152.448 72.4527C152.78 72.4527 153.05 72.1836 153.05 71.8515C153.05 71.5195 152.78 71.2503 152.448 71.2503C152.116 71.2503 151.846 71.5195 151.846 71.8515C151.846 72.1836 152.116 72.4527 152.448 72.4527Z" fill="black"/>
<path d="M120.852 73.1112C120.852 73.4261 120.622 73.6552 120.336 73.6838C120.508 73.4261 120.651 73.1685 120.823 72.9108C120.852 72.9967 120.852 73.0539 120.852 73.1112Z" fill="black"/>
<path d="M126.667 73.7124C126.999 73.7124 127.268 73.4432 127.268 73.1112C127.268 72.7792 126.999 72.51 126.667 72.51C126.335 72.51 126.065 72.7792 126.065 73.1112C126.065 73.4432 126.335 73.7124 126.667 73.7124Z" fill="black"/>
<path d="M133.083 73.7124C133.415 73.7124 133.685 73.4432 133.685 73.1112C133.685 72.7792 133.415 72.51 133.083 72.51C132.751 72.51 132.482 72.7792 132.482 73.1112C132.482 73.4432 132.751 73.7124 133.083 73.7124Z" fill="black"/>
<path d="M123.458 76.6899C123.79 76.6899 124.06 76.4207 124.06 76.0887C124.06 75.7566 123.79 75.4874 123.458 75.4874C123.126 75.4874 122.857 75.7566 122.857 76.0887C122.857 76.4207 123.126 76.6899 123.458 76.6899Z" fill="black"/>
<path d="M129.875 76.6899C130.207 76.6899 130.477 76.4207 130.477 76.0887C130.477 75.7566 130.207 75.4874 129.875 75.4874C129.543 75.4874 129.273 75.7566 129.273 76.0887C129.273 76.4207 129.543 76.6899 129.875 76.6899Z" fill="black"/>
<path d="M136.292 76.6899C136.624 76.6899 136.893 76.4207 136.893 76.0887C136.893 75.7566 136.624 75.4874 136.292 75.4874C135.96 75.4874 135.69 75.7566 135.69 76.0887C135.69 76.4207 135.96 76.6899 136.292 76.6899Z" fill="black"/>
<path d="M139.471 73.7124C139.804 73.7124 140.073 73.4432 140.073 73.1112C140.073 72.7792 139.804 72.51 139.471 72.51C139.139 72.51 138.87 72.7792 138.87 73.1112C138.87 73.4432 139.139 73.7124 139.471 73.7124Z" fill="black"/>
<path d="M133.656 79.5242C133.656 79.6101 133.628 79.696 133.599 79.7818C133.226 79.7818 132.854 79.7532 132.51 79.7246C132.482 79.6673 132.482 79.5814 132.482 79.5242C132.482 79.2093 132.74 78.923 133.083 78.923C133.398 78.9516 133.656 79.2093 133.656 79.5242Z" fill="black"/>
<path d="M140.331 70.6777C138.784 70.6777 137.409 70.3055 136.292 69.5898C136.005 69.418 135.747 69.2176 135.518 68.9886C134.659 68.2156 133.943 67.1563 133.427 65.868V65.8393L133.341 65.6103C133.341 65.6103 133.341 65.6103 133.341 65.5817C132.797 64.093 132.51 62.3179 132.453 60.3139C132.453 60.1707 132.568 60.0562 132.682 60.0562C132.826 60.0562 132.911 60.1707 132.911 60.2853C132.969 62.2321 133.255 63.9498 133.771 65.4099L133.857 65.6676V65.6962C134.344 66.8986 135.003 67.9007 135.805 68.6164C136.034 68.8168 136.263 68.9886 136.521 69.1604C137.839 70.0192 139.557 70.3342 141.591 70.0765C149.125 69.1604 153.451 61.3732 155.37 56.7925C155.37 56.7925 155.37 56.7925 155.37 56.7638C155.484 56.4776 155.599 56.2199 155.685 55.9909C155.714 55.9622 155.714 55.9336 155.714 55.905L155.771 55.7618C155.799 55.7046 155.799 55.6473 155.828 55.6187C155.885 55.5042 156 55.4183 156.143 55.4755C156.258 55.5328 156.344 55.6473 156.286 55.7904C156.258 55.8477 156.258 55.905 156.229 55.9622L156.172 56.0767C156.172 56.1054 156.143 56.134 156.143 56.1626C156.057 56.3917 155.943 56.6493 155.828 56.9356C155.828 56.9356 155.828 56.9356 155.828 56.9642C153.88 61.6595 149.469 69.6471 141.677 70.5632C141.219 70.6777 140.76 70.6777 140.331 70.6777Z" fill="black"/>
<path d="M136.177 83.5323C136.12 83.5037 136.492 82.1581 136.607 81.1561C136.664 80.6407 136.693 80.154 136.693 80.154C136.693 80.0395 136.693 79.925 136.693 79.8105C136.979 79.7818 137.266 79.7818 137.581 79.7532C137.609 79.7532 137.638 79.7532 137.695 79.7532C137.38 80.8984 136.177 83.5323 136.177 83.5323Z" fill="black"/>
<path fill-rule="evenodd" clip-rule="evenodd" d="M136.12 83.7613L136.206 83.79H136.292C136.492 83.6754 137.724 80.5835 137.924 79.8391L138.01 79.4956L137.552 79.5242C137.409 79.5385 137.265 79.5457 137.122 79.5528C136.979 79.56 136.836 79.5671 136.693 79.5814H136.463V79.8105V80.1254C136.463 80.154 136.435 80.6407 136.377 81.1274C136.292 81.6428 136.177 82.3012 136.062 82.7593C135.89 83.5609 135.862 83.7041 136.12 83.7613ZM136.95 80.1254V80.0109C137.094 80.0109 137.237 80.0109 137.38 79.9823C137.28 80.283 137.137 80.6399 136.992 81.0037C136.93 81.1595 136.867 81.3165 136.807 81.471C136.812 81.4513 136.817 81.4325 136.822 81.4143C136.845 81.3261 136.864 81.2509 136.864 81.1561C136.922 80.6407 136.95 80.154 136.95 80.1254Z" fill="black"/>
<path d="M140.531 79.2952C140.388 79.7246 140.159 80.3544 139.872 81.1561C139.385 82.5875 139.128 83.3033 139.099 83.3033C139.07 83.3033 139.213 82.7307 139.385 81.9291C139.615 80.8984 139.786 80.0395 139.872 79.4097C140.073 79.381 140.302 79.3524 140.531 79.2952Z" fill="black"/>
<path fill-rule="evenodd" clip-rule="evenodd" d="M139.041 83.5323C139.099 83.5609 139.127 83.5609 139.156 83.5609C139.299 83.5609 139.385 83.3319 139.786 82.1581L140.101 81.2419C140.168 81.054 140.232 80.8755 140.293 80.7069C140.491 80.156 140.651 79.7098 140.76 79.381L140.903 78.9802L140.474 79.0661C140.348 79.0818 140.232 79.106 140.119 79.1294C140.025 79.1488 139.934 79.1677 139.844 79.1806L139.672 79.2093L139.643 79.381C139.623 79.4931 139.603 79.6062 139.583 79.7202C139.459 80.4221 139.329 81.1576 139.156 81.8718C139.134 81.9691 139.117 82.0582 139.1 82.1422C139.073 82.2808 139.048 82.4055 139.013 82.5303L139.011 82.5393C138.812 83.3613 138.785 83.4752 139.041 83.5323ZM140.073 79.7818C140.08 79.7317 140.087 79.6816 140.101 79.6387C140.101 79.6387 140.13 79.6101 140.159 79.6387C140.111 79.7108 140.083 79.7829 140.058 79.872C140.064 79.843 140.068 79.8124 140.073 79.7818ZM140.044 79.925C140.049 79.9066 140.053 79.889 140.058 79.872C140.054 79.8905 140.05 79.9083 140.044 79.925Z" fill="black"/>
<path d="M143.367 79.4669C143.281 79.6673 143.224 79.8677 143.138 80.0681C143.052 79.9822 142.938 79.8964 142.823 79.8105C142.909 79.4955 142.995 79.1806 143.081 78.8657C143.167 79.0375 143.253 79.2379 143.367 79.4669Z" fill="black"/>
<path d="M143.224 80.4689L142.966 80.2399C142.88 80.154 142.766 80.0681 142.651 79.9822L142.508 79.8677L142.565 79.696C142.651 79.381 142.737 79.0661 142.823 78.7512L142.995 78.0927L143.281 78.7226C143.367 78.923 143.453 79.1234 143.568 79.3238L143.625 79.4097L143.596 79.4956C143.539 79.6101 143.51 79.7532 143.453 79.8677L143.224 80.4689Z" fill="black"/>
<path d="M146.346 79.5528C146.232 79.6387 146.146 79.7532 146.06 79.8391C145.945 79.6387 145.831 79.4383 145.716 79.2379C145.773 79.0089 145.859 78.7798 145.888 78.5794C146.031 78.923 146.174 79.2379 146.346 79.5528Z" fill="black"/>
<path d="M146.031 80.2685L145.716 79.7532C145.63 79.6101 145.573 79.4956 145.487 79.381L145.43 79.2951L145.458 79.1806C145.516 78.9516 145.573 78.7512 145.63 78.5508L145.802 77.8923L146.089 78.5222C146.232 78.8371 146.375 79.152 146.518 79.4669L146.604 79.6387L146.49 79.7532C146.375 79.8677 146.289 79.9536 146.232 80.0395L146.031 80.2685Z" fill="black"/>
<path d="M150.471 82.2726C149.354 80.2399 148.409 78.5508 147.75 77.2625C148.008 77.1766 148.265 77.0621 148.523 76.9762C149.268 79.2093 150.328 81.9004 150.471 82.2726Z" fill="black"/>
<path fill-rule="evenodd" clip-rule="evenodd" d="M147.549 77.377C148.18 78.608 149.068 80.2399 150.271 82.3871L150.729 82.2153C150.586 81.9004 149.526 79.152 148.781 76.9189L148.695 76.6612L148.466 76.7471C148.337 76.7901 148.208 76.8402 148.079 76.8903C147.95 76.9404 147.822 76.9905 147.693 77.0334L147.435 77.1193L147.549 77.377ZM149.039 79.152C148.667 78.4935 148.351 77.9209 148.094 77.4056C148.137 77.3913 148.187 77.3698 148.237 77.3484C148.287 77.3269 148.337 77.3054 148.38 77.2911C148.581 77.8923 148.81 78.5508 149.039 79.152Z" fill="black"/>
<path d="M189.544 91.0332C188.656 94.4114 186.45 96.2724 186.45 96.2724C182.956 99.1925 178.2 98.3909 177.083 98.1619C177.456 99.5361 177.857 100.968 178.344 102.428C178.859 104.031 179.404 105.548 179.976 107.008C179.776 107.409 179.575 107.81 179.375 108.182C178.659 109.528 177.656 111.131 176.138 112.877L176.109 112.906C175.766 113.307 175.393 113.708 174.992 114.137C174.963 114.166 174.963 114.194 174.935 114.194C174.963 114.166 174.963 114.108 174.992 114.08C175.823 112.591 176.253 111.303 176.51 110.358C177.112 108.068 176.711 107.438 176.51 107.209C176.453 107.152 176.081 106.722 175.565 106.693C174.763 106.636 174.104 107.552 173.331 108.984C172.815 109.9 172.242 111.074 171.526 112.333C171.469 112.419 171.411 112.505 171.383 112.62C170.982 113.307 170.466 114.166 169.807 115.139C169.406 115.769 168.919 116.427 168.375 117.143C168.318 117.057 168.232 116.943 168.174 116.857C156.401 120.55 144.656 124.243 132.883 127.965C132.195 127.536 131.422 127.02 130.591 126.476C130.362 126.333 130.133 126.161 129.875 126.018C129.703 125.904 129.56 125.789 129.388 125.703C129.273 125.617 129.159 125.56 129.073 125.474C128.672 125.217 128.271 124.93 127.841 124.644C127.583 124.472 127.325 124.3 127.068 124.129C126.409 123.671 125.721 123.184 125.005 122.669C125.664 117.716 126.323 112.763 127.01 107.81C118.588 111.532 115.208 109.442 114.378 108.812C113.461 108.154 112.745 107.209 112.258 105.978C113.49 104.976 114.865 103.601 114.607 102.37C114.578 102.285 114.492 101.912 114.234 101.712C113.69 101.282 112.601 101.712 111.427 102.485C111.398 102.199 111.37 101.884 111.341 101.569C111.828 101.025 112.344 100.481 112.859 99.9369C113.146 99.622 113.518 99.2212 113.776 98.7345C114.034 98.305 114.148 97.847 114.034 97.3889C113.919 96.9308 113.547 96.53 113.117 96.4155C112.773 96.301 112.43 96.3582 112.057 96.5586C111.885 96.6445 111.685 96.759 111.513 96.9022C112.229 91.2336 114.635 84.1335 118.846 76.375C122.914 78.2359 128.271 79.8677 134.601 79.8677C134.458 80.698 134.315 81.7 134.057 82.7879C134.029 82.9597 133.971 83.1315 133.914 83.3319C133.914 83.3605 133.885 83.4178 133.885 83.4464C133.857 83.5323 133.828 83.6182 133.799 83.7041C133.799 83.7327 133.771 83.7613 133.771 83.79C133.713 83.9617 133.656 84.1335 133.599 84.3339C133.57 84.4198 133.542 84.5057 133.513 84.5916C133.398 84.9638 133.226 85.3932 133.055 85.8226C132.997 85.9944 132.911 86.1376 132.854 86.3093C132.854 86.338 132.854 86.338 132.825 86.3666C132.797 86.4525 132.74 86.567 132.711 86.6529C132.654 86.7674 132.596 86.8819 132.539 86.9964C132.51 87.0537 132.482 87.111 132.453 87.1968C132.424 87.2255 132.424 87.2827 132.396 87.3114L132.797 87.7122L133.284 88.1989L134.659 89.6303L138.927 94.0106C139.242 93.5526 142.565 88.8001 145.029 85.1069C148.036 88.342 151.99 92.436 152.362 92.8082L155.885 87.7981L157.031 86.1662L157.432 85.5936L157.747 85.1355C157.719 85.1069 157.69 85.0783 157.661 85.021C157.633 84.9638 157.575 84.9065 157.547 84.8492C157.461 84.7347 157.404 84.6202 157.318 84.5343C157.26 84.4484 157.203 84.3625 157.146 84.2767L157.117 84.248C157.031 84.1049 156.917 83.9617 156.831 83.79C156.601 83.3891 156.372 83.017 156.2 82.6448C156.172 82.5589 156.115 82.5016 156.086 82.4157C156 82.244 155.914 82.0722 155.828 81.9004C155.799 81.8718 155.799 81.8432 155.771 81.8145C155.742 81.7286 155.685 81.6428 155.656 81.5569C155.628 81.5282 155.628 81.471 155.599 81.4423C155.513 81.2706 155.456 81.0988 155.37 80.927C154.883 79.7532 154.568 78.6367 154.253 77.7778C154.224 77.7492 154.224 77.6919 154.195 77.6633C153.88 76.8044 153.565 76.2318 153.135 76.1745C152.82 76.1459 152.505 76.375 152.362 76.5754C152.133 76.8616 152.104 77.2911 152.219 78.0927C152.276 78.4363 152.305 78.6653 152.333 78.7226C152.734 80.3258 153.365 81.8432 153.279 81.9004C153.25 81.9004 152.018 80.0109 151.474 78.923C150.987 77.9209 150.615 77.0048 150.357 76.1745C156.115 73.5693 162.588 69.0458 166.828 61.2873C167.029 60.9437 167.2 60.6002 167.372 60.228C182.096 72.5672 191.206 84.7061 189.544 91.0332Z" fill="#007E7A"/>
<path fill-rule="evenodd" clip-rule="evenodd" d="M132.711 128.165L132.797 128.223L168.031 117.2C168.046 117.229 168.06 117.251 168.074 117.272C168.089 117.293 168.103 117.315 168.117 117.344L168.318 117.63L168.518 117.372C168.662 117.17 168.805 116.97 168.948 116.771C169.29 116.295 169.627 115.824 169.951 115.339C170.523 114.481 171.039 113.622 171.526 112.791C171.555 112.677 171.612 112.591 171.669 112.505C172.07 111.789 172.443 111.102 172.758 110.473C172.908 110.21 173.046 109.947 173.18 109.692C173.25 109.558 173.319 109.427 173.388 109.299L173.445 109.184C174.161 107.867 174.792 106.98 175.451 107.037C175.83 107.064 176.132 107.373 176.212 107.455C176.217 107.459 176.221 107.463 176.224 107.466C176.596 107.896 176.568 108.898 176.167 110.415C175.823 111.675 175.336 112.906 174.677 114.08L173.789 115.683L174.992 114.481C175.01 114.481 175.017 114.47 175.026 114.455C175.032 114.445 175.039 114.434 175.049 114.423C175.479 113.994 175.852 113.593 176.167 113.221L176.253 113.135C177.542 111.646 178.63 110.072 179.49 108.44C179.603 108.194 179.729 107.948 179.86 107.693C179.927 107.563 179.995 107.43 180.062 107.295L180.12 107.18V107.066L180.091 107.008C179.518 105.52 178.945 104.002 178.458 102.456C178.029 101.168 177.628 99.851 177.284 98.5627C179.26 98.9062 183.357 99.1639 186.479 96.5586C186.565 96.5014 188.771 94.6405 189.659 91.205C191.32 84.9351 182.784 73.0539 167.43 60.1994L167.201 59.999L167.057 60.2853C166.971 60.457 166.878 60.6288 166.785 60.8006C166.692 60.9724 166.599 61.1441 166.513 61.3159C162.961 67.8148 157.461 72.7963 150.156 76.0887L149.956 76.1745L150.013 76.375C150.299 77.3197 150.672 78.2359 151.13 79.152C151.417 79.7246 151.904 80.5262 152.247 81.0702C152.881 82.0924 152.975 82.2456 153.095 82.2686C153.116 82.2726 153.138 82.2726 153.164 82.2726H153.221L153.279 82.244C153.508 82.1295 153.479 82.0149 153.164 81.0988C152.935 80.4689 152.677 79.6387 152.448 78.7798C152.448 78.7686 152.439 78.7269 152.425 78.6598C152.403 78.5549 152.368 78.388 152.333 78.1786C152.247 77.4629 152.276 77.0907 152.448 76.833C152.591 76.6612 152.82 76.4895 153.021 76.5181C153.365 76.5467 153.651 77.2338 153.88 77.835C153.909 77.8637 153.938 77.9209 153.938 77.9496C153.994 78.1376 154.063 78.338 154.136 78.5507C154.174 78.6619 154.213 78.7764 154.253 78.8943C154.289 78.9997 154.327 79.1079 154.365 79.2186C154.566 79.8001 154.79 80.4494 155.055 81.0988C155.094 81.2174 155.147 81.336 155.205 81.464C155.231 81.5214 155.257 81.5807 155.284 81.6428L155.341 81.7286C155.355 81.7716 155.377 81.8145 155.398 81.8575C155.42 81.9004 155.441 81.9434 155.456 81.9863C155.47 82.0006 155.477 82.0149 155.484 82.0292C155.492 82.0436 155.499 82.0579 155.513 82.0722L155.771 82.5875L155.885 82.8166C156.086 83.2174 156.286 83.5895 156.516 83.9617C156.559 84.0333 156.609 84.1049 156.659 84.1764C156.709 84.248 156.759 84.3196 156.802 84.3912C156.802 84.4198 156.831 84.4484 156.831 84.4484C156.859 84.4771 156.881 84.5128 156.902 84.5486C156.924 84.5844 156.945 84.6202 156.974 84.6488L157.003 84.7061C157.046 84.7634 157.081 84.8206 157.117 84.8779C157.153 84.9351 157.189 84.9924 157.232 85.0496L157.346 85.1928L152.247 92.4933C151.359 91.5771 147.865 87.9412 145.115 84.9924L144.914 84.7634L144.742 85.021C142.565 88.3134 139.701 92.4074 138.812 93.6671L132.596 87.2827L132.682 87.111C132.74 87.0251 132.768 86.9678 132.797 86.8819H132.883V86.6815C132.897 86.6529 132.911 86.6171 132.926 86.5813C132.94 86.5455 132.954 86.5097 132.969 86.4811L132.997 86.3952C133.026 86.3093 133.062 86.2306 133.098 86.1519C133.133 86.0731 133.169 85.9944 133.198 85.9085C133.334 85.5905 133.453 85.2544 133.567 84.929C133.597 84.8442 133.627 84.7602 133.656 84.6775C133.669 84.6398 133.676 84.6077 133.682 84.5786C133.69 84.5414 133.697 84.5092 133.714 84.4771L133.742 84.4198C133.771 84.3339 133.799 84.2409 133.828 84.1478C133.857 84.0548 133.885 83.9617 133.914 83.8758L133.943 83.7327C133.956 83.6933 133.963 83.6539 133.97 83.6173C133.977 83.574 133.984 83.5347 134 83.5037C134 83.475 134.007 83.4536 134.014 83.4321C134.021 83.4106 134.029 83.3891 134.029 83.3605C134.042 83.3148 134.055 83.2706 134.067 83.2276C134.111 83.0818 134.15 82.9492 134.172 82.8166C134.344 81.9863 134.487 81.1847 134.602 80.4976C134.659 80.2685 134.688 80.0681 134.716 79.8677L134.773 79.5814H134.487C129.159 79.5814 123.888 78.4363 118.846 76.1173L118.646 76.0314L118.531 76.2318C114.492 83.6754 111.943 90.8041 111.169 96.8449L111.083 97.4175L111.542 97.074C111.714 96.9595 111.885 96.8449 112.057 96.759C112.372 96.5873 112.659 96.5586 112.917 96.6445C113.26 96.7304 113.576 97.074 113.661 97.4462C113.747 97.7611 113.69 98.1619 113.432 98.5913C113.191 99.0206 112.849 99.3995 112.594 99.6811C112.577 99.7 112.561 99.7185 112.544 99.7365C112.029 100.28 111.513 100.824 111.026 101.368L110.969 101.454V101.569L110.969 101.569C110.997 101.884 111.026 102.199 111.055 102.485L111.083 102.886L111.427 102.685C112.688 101.884 113.604 101.626 113.977 101.912C114.12 102.027 114.206 102.227 114.263 102.456C114.464 103.315 113.719 104.403 112 105.806L111.857 105.92L111.914 106.092C112.43 107.352 113.174 108.325 114.12 109.012C115.581 110.1 119.161 111.389 126.609 108.211C126.065 112.448 125.492 116.656 124.919 120.865L124.661 122.783L124.776 122.869C125.106 123.093 125.43 123.324 125.751 123.552C126.126 123.819 126.497 124.082 126.867 124.329L127.641 124.844C127.815 124.961 127.985 125.077 128.153 125.192C128.396 125.359 128.634 125.522 128.872 125.675L129.703 126.219C129.864 126.308 130.015 126.409 130.16 126.507C130.248 126.566 130.334 126.623 130.419 126.677C131.164 127.163 131.909 127.65 132.711 128.165ZM126.097 123.107C125.811 122.903 125.523 122.697 125.234 122.497L125.492 120.836C125.797 118.508 126.109 116.188 126.421 113.871C126.697 111.83 126.971 109.791 127.24 107.753L127.297 107.323L126.896 107.495C119.104 110.902 115.638 109.356 114.492 108.526C113.661 107.924 113.003 107.066 112.516 105.978C113.69 105.004 115.094 103.601 114.807 102.256C114.721 101.912 114.578 101.626 114.349 101.454C113.805 101.025 112.888 101.225 111.57 101.998C111.57 101.927 111.563 101.862 111.556 101.798C111.549 101.733 111.542 101.669 111.542 101.597C111.785 101.34 112.029 101.075 112.272 100.81C112.516 100.545 112.759 100.28 113.003 100.023C113.289 99.7365 113.69 99.2784 113.977 98.7917C114.292 98.2478 114.378 97.7324 114.263 97.2744C114.12 96.759 113.69 96.301 113.174 96.1292C112.773 96.0147 112.372 96.0433 111.943 96.2724C111.901 96.2724 111.874 96.2877 111.84 96.3071C111.828 96.3143 111.815 96.3219 111.799 96.3296C112.63 90.4892 115.094 83.7041 118.932 76.604C123.888 78.8371 129.044 80.0109 134.286 80.0395C134.272 80.0968 134.265 80.154 134.258 80.2113C134.251 80.2685 134.243 80.3258 134.229 80.3831C134.211 80.4896 134.194 80.5982 134.176 80.7087C134.077 81.3112 133.969 81.9719 133.799 82.6734C133.767 82.7709 133.744 82.8685 133.719 82.9712C133.7 83.0495 133.681 83.1307 133.656 83.2174C133.656 83.2292 133.651 83.2411 133.646 83.255C133.637 83.2746 133.628 83.2983 133.628 83.3319C133.613 83.3748 133.606 83.4106 133.599 83.4464C133.592 83.4822 133.585 83.518 133.57 83.5609L133.542 83.7041C133.484 83.8758 133.427 84.0476 133.37 84.248L133.341 84.3053C133.327 84.3339 133.32 84.3625 133.313 84.3912C133.305 84.4198 133.298 84.4484 133.284 84.4771C133.169 84.8779 133.026 85.2787 132.854 85.6795C132.826 85.7654 132.79 85.8441 132.754 85.9228C132.718 86.0016 132.682 86.0803 132.654 86.1662L132.625 86.2521C132.596 86.338 132.568 86.3952 132.539 86.4525L132.51 86.5097L132.339 86.8533L132.253 86.9964L132.195 87.0537V87.111C132.195 87.1396 132.195 87.1682 132.167 87.1968L132.081 87.34L138.927 94.3828L139.099 94.1538C139.701 93.3235 142.68 89.0005 145.029 85.5077C148.151 88.8573 152.133 92.9513 152.161 92.98L152.362 93.1804L157.919 85.2501L158.005 85.1069L157.948 84.9924L157.919 84.9638L157.891 84.9351V84.8779L157.805 84.8206L157.776 84.792C157.747 84.7347 157.719 84.7061 157.69 84.6775L157.518 84.4198L157.49 84.3625L157.318 84.1049L157.289 84.0762C157.174 83.9331 157.089 83.79 157.003 83.6469L157.003 83.6468C156.773 83.2746 156.573 82.9024 156.372 82.5303L156.258 82.3012L156 81.7859C156 81.7573 156 81.7286 155.971 81.7C155.957 81.6571 155.936 81.6141 155.914 81.5712C155.893 81.5282 155.871 81.4853 155.857 81.4423L155.828 81.3851C155.828 81.3565 155.799 81.3278 155.799 81.3278L155.799 81.3277C155.714 81.156 155.628 80.9842 155.57 80.8125C155.301 80.2072 155.102 79.6195 154.919 79.0768C154.868 78.9265 154.818 78.7795 154.768 78.6367C154.717 78.4959 154.672 78.3494 154.627 78.2048C154.571 78.026 154.516 77.8502 154.453 77.6919C154.453 77.6776 154.446 77.6561 154.439 77.6346C154.432 77.6132 154.424 77.5917 154.424 77.5774C154.081 76.6612 153.737 76.0314 153.164 75.9455C152.734 75.8883 152.362 76.2032 152.161 76.4608C151.875 76.8044 151.846 77.2911 151.961 78.15C151.983 78.2703 152.005 78.3823 152.023 78.4779C152.054 78.6325 152.076 78.7444 152.076 78.7798C152.219 79.2951 152.362 79.8105 152.505 80.2685C152.19 79.7818 151.875 79.2379 151.674 78.8084C151.273 77.9782 150.93 77.1479 150.643 76.2891C157.919 72.9394 163.448 67.9293 167.029 61.4018C167.124 61.2491 167.22 61.071 167.315 60.8929C167.363 60.8038 167.411 60.7147 167.458 60.6288C182.297 73.0826 190.862 84.9638 189.286 90.9473C188.456 94.1288 186.449 95.9202 186.289 96.063C186.283 96.068 186.28 96.071 186.279 96.0719C183.128 98.7345 178.802 98.2478 177.112 97.9042L176.74 97.8183L176.854 98.1905C177.227 99.622 177.656 101.053 178.115 102.485C178.602 104.002 179.146 105.52 179.719 106.98C179.603 107.23 179.475 107.48 179.35 107.722C179.29 107.84 179.231 107.955 179.174 108.068C178.344 109.7 177.255 111.246 175.995 112.706L175.938 112.763C176.253 111.99 176.539 111.217 176.74 110.444C177.341 108.154 176.997 107.409 176.682 107.066C176.568 106.922 176.138 106.493 175.565 106.464C174.677 106.407 173.961 107.295 173.159 108.755L173.073 108.869C172.844 109.27 172.615 109.7 172.357 110.186C172.042 110.816 171.669 111.503 171.268 112.219C171.24 112.333 171.182 112.419 171.125 112.505C170.638 113.335 170.122 114.194 169.549 115.025L169.549 115.025C169.148 115.597 168.747 116.17 168.318 116.742L168.203 116.571L132.883 127.65C132.69 127.524 132.499 127.4 132.309 127.277C131.767 126.924 131.236 126.579 130.706 126.219C130.643 126.179 130.578 126.14 130.512 126.101C130.338 125.995 130.156 125.885 129.99 125.761L129.188 125.217C128.95 125.064 128.712 124.901 128.468 124.734C128.3 124.619 128.13 124.503 127.956 124.386L127.182 123.871C126.828 123.63 126.464 123.37 126.097 123.107Z" fill="black"/>
<path d="M151.245 56.5062C150.958 55.1606 149.956 50.0932 149.726 48.9194C150.07 49.0625 150.557 49.2343 151.13 49.263C151.417 49.2916 152.792 49.3775 153.823 48.5186C155.083 47.4593 155.398 45.398 154.51 43.9093C154.424 43.7661 153.737 42.6782 152.419 42.3347C151.388 42.077 150.529 42.3919 150.185 42.5351C149.411 42.8786 148.982 43.4226 148.781 43.6802C147.721 42.5923 146.547 41.2181 145.458 39.5576C143.682 36.8951 142.651 34.3757 141.992 32.4003C141.419 33.5741 140.531 35.0628 139.242 36.5515C137.552 38.4983 135.805 39.758 134.487 40.531C134.458 42.5064 134.573 49.2057 139.042 52.2118C139.414 52.4694 139.815 52.6698 140.245 52.8703C140.073 54.1586 139.901 55.4755 139.729 56.7638C139.099 56.9642 138.44 57.2219 137.753 57.5082C136.463 58.0522 135.318 58.682 134.344 59.2832C128.414 57.6514 122.484 55.9909 116.583 54.359C120.766 40.2447 129.646 30.1099 139.471 29.1365C144.542 28.6498 148.523 30.5966 149.268 30.9688C157.06 34.9196 161.5 44.625 160.898 55.905C157.69 56.0767 154.453 56.2771 151.245 56.5062Z" fill="black"/>
<path d="M146.976 51.496C146.432 52.1259 145.63 52.8989 144.542 53.586C143.253 54.3876 142.021 54.7884 141.018 54.9888C140.617 55.0747 140.13 55.132 140.13 55.132C140.044 55.132 139.987 55.1606 139.958 55.1606C139.987 54.6739 140.016 54.1299 140.13 53.5574C140.159 53.3283 140.216 53.0993 140.273 52.8703C140.474 52.9275 140.789 53.0134 141.19 53.0707C141.19 53.0707 141.792 53.1565 142.479 53.0993C143.281 53.042 144.943 52.5267 146.976 51.496Z" fill="black"/>
<path d="M151.503 49.5206C151.388 49.5206 151.245 49.5206 151.13 49.492C150.615 49.4634 150.128 49.3202 149.641 49.1198C149.555 49.0912 149.469 49.0339 149.411 49.0053C149.297 48.948 149.24 48.8049 149.297 48.6904C149.354 48.5758 149.497 48.5186 149.612 48.5758C149.669 48.6045 149.755 48.6331 149.812 48.6904C150.242 48.8908 150.672 49.0053 151.13 49.0339C152.133 49.1198 153.021 48.8621 153.651 48.3468C154.825 47.3448 155.112 45.4266 154.281 44.0524C154.167 43.852 153.536 42.8786 152.362 42.5637C152.219 42.5351 152.075 42.5064 151.904 42.4778C150.7 42.3633 149.526 42.9359 148.838 44.0238C148.753 44.1383 148.609 44.1669 148.495 44.1097C148.38 44.0238 148.351 43.8806 148.409 43.7661C149.211 42.5351 150.557 41.848 151.932 41.9911C152.104 42.0197 152.305 42.0484 152.448 42.077C153.766 42.4205 154.482 43.4512 154.682 43.7661C155.628 45.3407 155.284 47.5452 153.937 48.6904C153.365 49.2343 152.476 49.5206 151.503 49.5206Z" fill="black"/>
<path d="M143.195 84.9638C143.138 84.9638 143.08 84.9351 143.052 84.9065C142.937 84.8206 142.909 84.6775 142.995 84.5629L143.625 83.7327C143.711 83.6182 143.854 83.5895 143.969 83.6754C144.083 83.7613 144.112 83.9045 144.026 84.019L143.396 84.8492C143.367 84.9351 143.281 84.9638 143.195 84.9638Z" fill="black"/>
<path d="M136.32 78.0354C136.578 78.2931 136.693 78.6939 136.721 79.4955C136.721 79.5814 136.721 79.6959 136.721 79.7818C136.005 79.8391 135.289 79.8391 134.573 79.8391C134.601 79.7246 134.601 79.6101 134.63 79.4669C134.63 79.4383 134.659 79.381 134.659 79.3524C134.831 78.4649 135.06 77.835 135.489 77.7205C135.805 77.6346 136.12 77.835 136.32 78.0354Z" fill="black"/>
<path d="M140.331 76.6899C140.273 77.1479 140.216 77.1479 140.101 77.8637C140.016 78.3217 139.958 78.8371 139.901 79.4383C139.443 79.4955 139.013 79.5814 138.526 79.6387C138.24 79.6673 137.982 79.696 137.724 79.7246C138.125 78.2072 138.325 76.8616 138.526 75.831C138.669 75.058 138.841 74.1132 139.385 73.9701C139.7 73.8842 140.044 74.1132 140.044 74.1419C140.646 74.5999 140.445 75.831 140.331 76.6899Z" fill="black"/>
<path d="M143.023 78.7512C142.594 78.8657 142.164 78.9802 141.705 79.0661C141.304 79.152 140.903 79.2379 140.531 79.2951C141.133 77.5774 141.534 76.3177 141.705 75.5733C141.763 75.287 141.963 74.4854 142.508 74.285C142.794 74.1705 143.138 74.2564 143.367 74.3995C143.797 74.6858 143.969 75.3729 143.682 76.0314C143.625 75.9741 143.51 75.9169 143.367 75.8883C143.367 75.8883 143.08 75.831 142.823 76.0314C142.508 76.2604 142.508 76.6899 142.479 76.9762C142.422 77.7492 142.765 78.379 143.023 78.7512Z" fill="black"/>
<path d="M145.086 78.1786C145.258 78.1213 145.429 78.0641 145.601 78.0068L144.828 76.0314C144.599 76.1745 144.427 76.4608 144.312 76.7185L145.086 78.1786Z" fill="black"/>
<path d="M147.807 77.3483C147.062 77.6346 146.346 77.8923 145.658 78.0927C145.658 78.0641 145.63 78.0354 145.63 78.0068C145.315 77.2625 145.028 76.5754 144.856 76.0314C144.856 76.0028 144.828 75.9741 144.828 75.9169C144.599 75.1725 144.513 74.5427 144.856 74.1705C145.057 73.9415 145.401 73.8556 145.687 73.9128C146.289 74.0273 146.575 74.8003 146.69 75.058C146.89 75.5733 147.263 76.2891 147.75 77.2625C147.778 77.2911 147.778 77.3197 147.807 77.3483Z" fill="black"/>
<path d="M150.385 76.2604C149.755 76.5467 149.154 76.833 148.552 77.0621C148.552 77.0334 148.523 77.0048 148.523 76.9762C148.122 75.7451 147.807 74.6572 147.836 74.1705C147.836 73.9701 147.836 73.4261 148.18 73.1971C148.18 73.1971 148.409 73.0539 148.724 73.1112C149.354 73.2257 149.726 74.4568 150.357 76.2032C150.385 76.2032 150.385 76.2318 150.385 76.2604Z" fill="black"/>
<path d="M150.471 82.5016C150.385 82.5016 150.299 82.4444 150.271 82.3871C149.096 80.2972 148.237 78.6939 147.578 77.4629C147.521 77.3483 147.549 77.2052 147.693 77.1479C147.807 77.0907 147.95 77.1193 148.008 77.2625C148.294 77.8064 148.638 78.4363 149.01 79.152C148.781 78.4935 148.523 77.8064 148.323 77.1479C148.294 77.0334 148.351 76.8903 148.466 76.833C148.609 76.8044 148.724 76.8616 148.781 76.9762C149.469 79.0375 150.414 81.471 150.7 82.1867C150.758 82.3012 150.7 82.4444 150.586 82.5016C150.557 82.5016 150.5 82.5016 150.471 82.5016Z" fill="black"/>
<path d="M153.278 82.1581C153.192 82.1581 153.135 82.1294 153.078 82.0436C151.617 80.154 150.786 78.0927 150.156 76.3177C150.099 76.2032 150.185 76.06 150.299 76.0028C150.414 75.9455 150.557 76.0314 150.614 76.1459C151.273 77.9782 152.047 79.8964 153.479 81.7573C153.507 81.8145 153.536 81.8718 153.536 81.9004C153.536 82.0436 153.422 82.1581 153.278 82.1581Z" fill="black"/>
<path d="M148.495 84.0476C148.409 84.0476 148.323 83.9904 148.265 83.9045L148.208 83.79C148.008 83.4178 147.578 82.6161 147.091 81.6428C146.747 80.9843 146.403 80.2972 146.117 79.6673C145.974 79.3524 145.802 79.0375 145.659 78.7226C145.573 78.5508 145.515 78.379 145.429 78.2072C145.372 78.0927 145.429 77.9496 145.544 77.8923C145.659 77.835 145.802 77.8923 145.859 78.0068C145.945 78.1786 146.002 78.3504 146.088 78.5222C146.232 78.8371 146.375 79.152 146.518 79.4669C146.833 80.0968 147.148 80.7839 147.492 81.4423C147.979 82.3871 148.409 83.1887 148.609 83.5895L148.666 83.7041C148.724 83.8186 148.695 83.9617 148.552 84.019C148.58 84.019 148.523 84.0476 148.495 84.0476Z" fill="black"/>
<path d="M145.143 78.2645C144.799 78.379 144.427 78.4649 144.054 78.5794C143.711 78.6653 143.396 78.7512 143.052 78.8371C142.794 78.3504 142.479 77.6919 142.45 76.9475C142.422 76.5754 142.479 76.375 142.622 76.2318C142.823 76.0028 143.31 75.9455 143.338 75.9455C143.396 75.9455 143.453 75.9455 143.51 75.9741C143.596 76.0028 143.625 76.0314 143.682 76.06C143.94 76.2032 144.169 76.4895 144.312 76.7471C144.427 76.9475 144.513 77.0907 144.57 77.2338C144.713 77.4629 144.914 77.835 145.143 78.2645Z" fill="black"/>
<path d="M148.495 84.0476C148.409 84.0476 148.351 84.019 148.294 83.9617L148.265 83.9331C147.836 83.2174 147.406 82.5303 146.976 81.8718L146.833 81.6714C146.518 81.1847 146.203 80.698 145.831 80.0681C145.745 79.925 145.659 79.7818 145.487 79.4669L145.43 79.381C145.229 79.0375 145.143 78.8657 145.057 78.7226C144.971 78.5794 144.914 78.4935 144.828 78.2931L144.799 78.2645L145.229 78.0068L145.028 78.1213L145.258 78.0068L145.286 78.0641C145.372 78.2359 145.43 78.3217 145.515 78.4935C145.601 78.6367 145.687 78.8084 145.888 79.152L145.945 79.2379C146.117 79.5528 146.203 79.696 146.289 79.8391C146.633 80.4689 146.948 80.927 147.263 81.4137L147.406 81.6141C147.836 82.2726 148.265 82.9597 148.695 83.6754C148.781 83.7899 148.752 83.9331 148.638 84.019C148.609 84.0476 148.552 84.0476 148.495 84.0476Z" fill="black"/>
<path d="M146.833 84.9351C146.747 84.9351 146.69 84.9065 146.633 84.8492C146.002 83.9904 145.372 83.1315 144.771 82.244C144.713 82.1867 143.653 80.6407 143.138 79.5814C143.109 79.4955 142.937 79.152 142.88 79.0089L142.851 78.9516C142.823 78.923 142.823 78.8943 142.794 78.8371L142.765 78.8084L142.995 78.6939L143.224 78.608L142.995 78.6939L143.224 78.608L143.252 78.6653C143.252 78.6939 143.281 78.7226 143.281 78.7512L143.31 78.8084C143.367 78.9516 143.539 79.2951 143.567 79.3524C144.054 80.3544 145.172 81.929 145.172 81.9577C145.773 82.8166 146.403 83.7041 147.034 84.5343C147.12 84.6488 147.091 84.792 146.976 84.8779C146.948 84.9065 146.89 84.9351 146.833 84.9351Z" fill="black"/>
<path d="M152.362 93.0945C152.305 93.0945 152.247 93.0659 152.19 93.0086C152.161 92.98 147.979 88.6856 144.857 85.3073C144.484 84.9065 144.112 84.5057 143.768 84.1049C143.023 83.2746 142.479 82.6734 142.135 82.244C142.078 82.1867 142.021 82.1008 141.963 82.0436C141.82 81.9004 141.734 81.7573 141.648 81.6427C140.989 80.7266 140.789 80.0109 141.047 79.5528C141.075 79.4955 141.247 79.2093 141.591 79.0947C141.906 78.9802 142.221 79.0947 142.479 79.2379C142.766 79.381 142.966 79.5242 143.023 79.5814C143.424 79.925 144.427 81.0702 145.601 82.4444C145.687 82.5589 145.687 82.702 145.573 82.7879C145.458 82.8738 145.315 82.8738 145.229 82.7593C143.911 81.2133 143.023 80.2399 142.708 79.9536C142.68 79.925 142.508 79.8105 142.279 79.696C142.107 79.6101 141.935 79.5242 141.763 79.5814C141.591 79.6387 141.505 79.7818 141.505 79.8105C141.448 79.925 141.333 80.3258 142.078 81.3851C142.164 81.4996 142.25 81.6427 142.393 81.7859C142.45 81.8432 142.479 81.9004 142.536 81.9577C142.88 82.3871 143.424 82.9883 144.169 83.8186C144.513 84.1908 144.885 84.5916 145.258 84.9924C148.008 87.9412 151.502 91.5771 152.391 92.4933L157.489 85.1928L157.375 85.0496C157.289 84.9351 157.232 84.8206 157.146 84.7061C157.146 84.7061 157.146 84.6775 157.117 84.6775C157.06 84.5916 157.002 84.5057 156.945 84.4198C156.945 84.4198 156.917 84.3912 156.917 84.3625C156.831 84.2194 156.716 84.0762 156.63 83.9331C156.401 83.5609 156.2 83.1887 156 82.7879L155.885 82.5589C155.799 82.3871 155.713 82.2153 155.627 82.0436C155.599 82.0149 155.599 81.9863 155.57 81.9577C155.542 81.8718 155.484 81.7859 155.456 81.7C155.456 81.7 155.456 81.6714 155.427 81.6427L155.398 81.5855C155.312 81.3851 155.226 81.2133 155.169 81.0415C154.854 80.2685 154.596 79.4955 154.367 78.8371C154.252 78.4935 154.138 78.1786 154.052 77.8923C154.052 77.8637 154.023 77.8064 153.995 77.7778C153.766 77.1766 153.479 76.4895 153.135 76.4608C152.935 76.4322 152.706 76.604 152.562 76.7758C152.391 77.0334 152.362 77.4056 152.448 78.1213C152.476 78.2931 152.505 78.4935 152.562 78.7226C152.648 79.1234 152.82 79.8677 153.508 81.8432C153.508 81.8718 153.536 81.9004 153.536 81.929C153.536 82.0722 153.422 82.1867 153.307 82.1867C153.193 82.1867 153.107 82.1294 153.078 82.0149C153.078 82.0149 153.078 82.0149 153.078 81.9863C152.391 79.9822 152.219 79.2093 152.133 78.7798C152.075 78.5508 152.047 78.3504 152.018 78.15C151.904 77.2911 151.932 76.8044 152.219 76.4608C152.419 76.2032 152.792 75.8882 153.221 75.9455C153.794 76.0314 154.138 76.6612 154.482 77.5774C154.482 77.606 154.51 77.6633 154.51 77.6919C154.625 77.9782 154.711 78.3217 154.825 78.6367C155.055 79.2951 155.284 80.0395 155.627 80.8125C155.685 80.9843 155.771 81.156 155.857 81.3278C155.857 81.3278 155.885 81.3565 155.885 81.3851L155.914 81.4423C155.943 81.5282 156 81.6141 156.029 81.7C156.057 81.7286 156.057 81.7573 156.057 81.7859C156.143 81.9577 156.229 82.1294 156.315 82.3012L156.43 82.5303C156.63 82.9024 156.831 83.2746 157.06 83.6468C157.146 83.7899 157.232 83.9331 157.346 84.0762L157.375 84.1049C157.432 84.1908 157.489 84.2766 157.547 84.3625C157.547 84.3625 157.547 84.3912 157.575 84.3912C157.633 84.4771 157.719 84.5916 157.776 84.6775C157.805 84.7061 157.833 84.7347 157.862 84.792L157.891 84.8492C157.891 84.8492 157.891 84.8492 157.919 84.8779C157.948 84.9065 157.948 84.9351 157.976 84.9638L158.005 84.9924C158.034 85.0783 158.034 85.1642 158.005 85.25L157.69 85.7081C157.69 85.7081 157.69 85.7081 157.69 85.7367L152.648 92.9513C152.534 93.0659 152.448 93.0945 152.362 93.0945C152.362 93.0945 152.391 93.0945 152.362 93.0945Z" fill="black"/>
<path d="M141.677 84.2194C141.648 84.2194 141.62 84.2194 141.562 84.1908C141.448 84.1335 141.39 83.9904 141.448 83.8758L142.221 82.2153C142.278 82.1008 142.422 82.0436 142.536 82.1008C142.651 82.1581 142.708 82.3012 142.651 82.4157L141.877 84.0762C141.877 84.1621 141.792 84.2194 141.677 84.2194Z" fill="black"/>
<path d="M141.161 65.2954C141.133 65.2954 141.133 65.2954 141.104 65.2954C141.047 65.2954 140.989 65.2381 140.932 65.1809L136.406 58.1667C136.32 58.0522 136.377 57.909 136.463 57.8231C136.578 57.7372 136.721 57.7945 136.807 57.8804L141.219 64.6655L153.364 55.7618C153.479 55.6759 153.622 55.7046 153.708 55.8191C153.794 55.9336 153.765 56.0767 153.651 56.1626L141.304 65.2095C141.247 65.2668 141.219 65.2954 141.161 65.2954Z" fill="black"/>
<path d="M141.19 65.9252C141.68 65.9252 142.078 65.5279 142.078 65.0377C142.078 64.5476 141.68 64.1502 141.19 64.1502C140.7 64.1502 140.302 64.5476 140.302 65.0377C140.302 65.5279 140.7 65.9252 141.19 65.9252Z" fill="black"/>
<path d="M127.497 30.9974C127.469 30.9974 127.44 30.9974 127.411 30.9974L121.224 28.793C121.109 28.7357 121.023 28.6212 121.081 28.478C121.138 28.3635 121.253 28.2776 121.396 28.3349L127.583 30.5394C127.698 30.5966 127.784 30.7111 127.727 30.8543C127.669 30.9402 127.583 30.9974 127.497 30.9974Z" fill="black"/>
<path d="M133.886 25.5006C133.8 25.5006 133.714 25.4433 133.656 25.3574L130.878 19.4025C130.82 19.288 130.878 19.1449 130.992 19.0876C131.107 19.0304 131.25 19.0876 131.307 19.2021L134.086 25.157C134.143 25.2716 134.086 25.4147 133.971 25.472C133.971 25.5006 133.943 25.5006 133.886 25.5006Z" fill="black"/>
<path d="M141.505 24.5558C141.477 24.5558 141.448 24.5558 141.419 24.5558C141.305 24.4986 141.219 24.384 141.276 24.2409L143.453 18.057C143.51 17.9424 143.625 17.8566 143.768 17.9138C143.883 17.9711 143.969 18.0856 143.911 18.2287L141.734 24.4127C141.706 24.4986 141.62 24.5558 141.505 24.5558Z" fill="black"/>
</svg>
