<svg width="24" height="24" viewBox="0 0 24 24" fill="none" xmlns="http://www.w3.org/2000/svg">
<path d="M20.4853 3.51471C18.2188 1.24823 15.2053 0 12 0C9.56104 0 7.21289 0.72821 5.20935 2.10571C4.99603 2.25256 4.94202 2.54425 5.08868 2.75757C5.23535 2.97107 5.52722 3.0249 5.74054 2.87823C7.58698 1.60858 9.75146 0.9375 12 0.9375C18.0998 0.9375 23.0625 5.90021 23.0625 12C23.0625 18.0998 18.0998 23.0625 12 23.0625C5.90021 23.0625 0.9375 18.0998 0.9375 12C0.9375 9.75128 1.60858 7.58698 2.87805 5.74072C3.02472 5.5274 2.9707 5.23572 2.75739 5.08905C2.54425 4.94238 2.25238 4.99622 2.10553 5.20953C0.728027 7.21271 0 9.56085 0 12C0 15.2053 1.24823 18.2188 3.51471 20.4853C5.78119 22.7518 8.79474 24 12 24C15.2053 24 18.2188 22.7518 20.4853 20.4853C22.7518 18.2188 24 15.2053 24 12C24 8.79474 22.7518 5.78119 20.4853 3.51471Z" fill="#FF735A"/>
<path d="M3.54599 4.20651C3.63351 4.27938 3.7399 4.31509 3.84573 4.31509C3.98013 4.31509 4.11343 4.25759 4.20626 4.14627C4.37198 3.94741 4.34506 3.65188 4.14621 3.48599C3.94754 3.32046 3.65182 3.34719 3.48593 3.54605L3.48574 3.54641C3.32003 3.74527 3.34713 4.0408 3.54599 4.20651Z" fill="#009691"/>
<path d="M12.7496 17.3767C12.5006 17.5902 12.3362 17.7312 12 17.7312C11.6638 17.7312 11.4994 17.5902 11.2504 17.3767C10.9488 17.1183 10.5736 16.7966 9.89062 16.7966C9.20764 16.7966 8.83246 17.1183 8.53088 17.3767C8.28186 17.5902 8.11743 17.7312 7.78125 17.7312C7.52234 17.7312 7.3125 17.941 7.3125 18.2C7.3125 18.4587 7.52234 18.6687 7.78125 18.6687C8.46423 18.6687 8.8396 18.347 9.14099 18.0884C9.39001 17.8751 9.55444 17.7341 9.89062 17.7341C10.2268 17.7341 10.3912 17.8751 10.6403 18.0884C10.9418 18.347 11.317 18.6687 12 18.6687C12.683 18.6687 13.0582 18.347 13.3597 18.0884C13.6088 17.8751 13.7732 17.7341 14.1094 17.7341C14.4456 17.7341 14.61 17.8751 14.859 18.0884C15.1604 18.347 15.5358 18.6687 16.2188 18.6687C16.4777 18.6687 16.6875 18.4587 16.6875 18.2C16.6875 17.941 16.4777 17.7312 16.2188 17.7312C15.8826 17.7312 15.7181 17.5902 15.4691 17.3767C15.1675 17.1183 14.7924 16.7966 14.1094 16.7966C13.4264 16.7966 13.0512 17.1183 12.7496 17.3767Z" fill="#009691"/>
<path d="M16.7848 10.2623C16.6017 10.0792 16.3049 10.0792 16.1218 10.2623L14.7156 11.6686C14.5326 11.8517 14.5326 12.1483 14.7156 12.3314L16.1218 13.7377C16.2134 13.8292 16.3333 13.875 16.4532 13.875C16.5733 13.875 16.6933 13.8292 16.7848 13.7377C16.9678 13.5547 16.9678 13.2579 16.7848 13.0748L15.71 12L16.7848 10.9252C16.9679 10.7422 16.9679 10.4454 16.7848 10.2623Z" fill="#009691"/>
<path d="M7.21521 13.7377C7.30676 13.8292 7.4267 13.875 7.54663 13.875C7.66657 13.875 7.78668 13.8292 7.87805 13.7377L9.2843 12.3314C9.46741 12.1485 9.46741 11.8517 9.2843 11.6686L7.87805 10.2623C7.69513 10.0792 7.39832 10.0792 7.21521 10.2623C7.0321 10.4454 7.0321 10.7422 7.21521 10.9252L8.29004 12L7.21521 13.0748C7.0321 13.2578 7.0321 13.5546 7.21521 13.7377Z" fill="#009691"/>
</svg>
