<svg width="24" height="24" viewBox="0 0 24 24" fill="none" xmlns="http://www.w3.org/2000/svg">
<path d="M20.4853 3.51471C18.2188 1.24823 15.2053 0 12 0C9.56104 0 7.21289 0.72821 5.20935 2.10571C4.99603 2.25238 4.94202 2.54425 5.08868 2.75757C5.23535 2.97089 5.52722 3.0249 5.74054 2.87823C7.58698 1.60858 9.75146 0.9375 12 0.9375C18.0998 0.9375 23.0625 5.90021 23.0625 12C23.0625 18.0998 18.0998 23.0625 12 23.0625C5.90021 23.0625 0.9375 18.0998 0.9375 12C0.9375 9.75128 1.60858 7.58698 2.87805 5.74091C3.02472 5.52759 2.9707 5.23572 2.75739 5.08905C2.54425 4.94238 2.25238 4.9964 2.10553 5.20953C0.728027 7.21271 0 9.56085 0 12C0 15.2053 1.24823 18.2188 3.51471 20.4853C5.78119 22.7518 8.79474 24 12 24C15.2053 24 18.2188 22.7518 20.4853 20.4853C22.7518 18.2188 24 15.2053 24 12C24 8.79474 22.7518 5.78119 20.4853 3.51471Z" fill="#FF735A"/>
<path d="M9.18726 12C9.18726 11.4831 8.76666 11.0625 8.24976 11.0625C7.73285 11.0625 7.31226 11.4831 7.31226 12C7.31226 12.5169 7.73285 12.9375 8.24976 12.9375C8.76666 12.9375 9.18726 12.5169 9.18726 12Z" fill="#009691"/>
<path d="M14.8127 12C14.8127 12.5169 15.2333 12.9375 15.7502 12.9375C16.2672 12.9375 16.6877 12.5169 16.6877 12C16.6877 11.4831 16.2672 11.0625 15.7502 11.0625C15.2333 11.0625 14.8127 11.4831 14.8127 12Z" fill="#009691"/>
<path d="M10.1309 8.74188C9.5598 8.41211 8.90941 8.23779 8.24986 8.23779C7.5905 8.23779 6.93992 8.41211 6.369 8.74188C6.1447 8.87134 6.06797 9.1579 6.19743 9.3822C6.32689 9.60632 6.61363 9.68323 6.83775 9.55377C7.2664 9.30621 7.75474 9.17529 8.24986 9.17529C8.74516 9.17529 9.23332 9.30621 9.66215 9.55377C9.73613 9.59644 9.81669 9.61658 9.89616 9.61658C10.058 9.61658 10.2157 9.53253 10.3025 9.3822C10.4319 9.15808 10.3552 8.87134 10.1309 8.74188Z" fill="#009691"/>
<path d="M17.8029 9.3822C17.9324 9.1579 17.8555 8.87134 17.6313 8.74188C17.06 8.41211 16.4096 8.23779 15.7503 8.23779C15.0907 8.23779 14.4404 8.41211 13.8692 8.74188C13.6449 8.87134 13.5682 9.1579 13.6977 9.3822C13.7845 9.53253 13.9419 9.61658 14.104 9.61658C14.1835 9.61658 14.2642 9.59625 14.338 9.55377C14.7666 9.30621 15.255 9.17529 15.7503 9.17529C16.2454 9.17529 16.7337 9.30621 17.1626 9.55377C17.3869 9.68323 17.6734 9.60632 17.8029 9.3822Z" fill="#009691"/>
<path d="M3.84572 4.3149C3.97335 4.3149 4.10042 4.26327 4.19289 4.16146C4.36703 3.96993 4.35293 3.67348 4.1614 3.49935C3.96987 3.32522 3.67342 3.33932 3.49929 3.53084L3.49911 3.53103C3.32497 3.72256 3.33907 4.019 3.5306 4.19314C3.6205 4.2748 3.7333 4.3149 3.84572 4.3149Z" fill="#009691"/>
<path fill-rule="evenodd" clip-rule="evenodd" d="M7.31226 16.4236C7.31226 19.0048 9.54321 20.685 11.9999 20.685C14.4567 20.685 16.6876 19.0048 16.6876 16.4236C16.6876 15.4405 16.1127 14.78 15.2572 14.78H8.74268C7.88721 14.78 7.31226 15.4405 7.31226 16.4236ZM10.1039 19.3474C10.334 18.8415 11.0721 18.4969 11.9999 18.4969C12.9277 18.4969 13.6658 18.8415 13.896 19.3474C13.3524 19.605 12.7109 19.7475 11.9999 19.7475C11.2889 19.7475 10.6475 19.605 10.1039 19.3474ZM14.6883 18.8318C15.3586 18.2448 15.7501 17.4092 15.7501 16.4236C15.7501 16.1599 15.686 15.7175 15.2572 15.7175H8.74268C8.31384 15.7175 8.24976 16.1599 8.24976 16.4236C8.24976 17.4091 8.64124 18.2448 9.3114 18.8318C9.73676 18.0571 10.7402 17.5594 11.9999 17.5594C13.2597 17.5594 14.2631 18.0571 14.6883 18.8318Z" fill="#009691"/>
</svg>
