<svg width="24" height="17" viewBox="0 0 24 17" fill="none" xmlns="http://www.w3.org/2000/svg">
<path fill-rule="evenodd" clip-rule="evenodd" d="M21.4685 2.89132C22.8643 2.89132 23.9999 4.02686 23.9999 5.42257C23.9999 6.77435 22.9349 7.882 21.6 7.95049C21.0966 12.4812 17.2446 16.0164 12.5818 16.0164H11.4183C6.75553 16.0164 2.90353 12.4812 2.40014 7.95049C1.06509 7.882 0 6.77435 0 5.42257C0 4.02686 1.13559 2.89132 2.53139 2.89132H2.67492L3.06933 2.63777C5.73858 0.921863 8.82675 0.0148315 12 0.0148315C15.1733 0.0148315 18.2614 0.921863 20.9307 2.63777L21.3251 2.89132H21.4685ZM2.3437 3.84021C1.55297 3.93339 0.937406 4.60727 0.937406 5.42257C0.937406 6.23819 1.55339 6.9123 2.3445 7.00507L2.34411 6.97727L2.34411 6.97723C2.34391 6.96545 2.3437 6.95366 2.3437 6.94183V3.84021ZM12.5817 15.0789H11.4182C6.93145 15.0789 3.2812 11.4286 3.2812 6.94183V3.61605L3.57619 3.42639C8.69339 0.136613 15.3064 0.136613 20.4237 3.42639L20.7187 3.616V6.94183C20.7187 11.4286 17.0685 15.0789 12.5817 15.0789ZM21.6558 6.97728C21.6556 6.98654 21.6555 6.99579 21.6554 7.00507C22.4465 6.91225 23.0624 6.23819 23.0624 5.42257C23.0624 4.60727 22.4469 3.93344 21.6562 3.84025V6.94183C21.6562 6.95368 21.656 6.96548 21.6558 6.97728Z" fill="#FF735A"/>
<path d="M17.9723 5.79534C16.1873 4.64788 14.1221 4.04132 12 4.04132C9.87802 4.04132 7.81285 4.64784 6.02785 5.79534C5.81006 5.93535 5.74702 6.22537 5.88699 6.4431C6.027 6.66088 6.31706 6.72398 6.53475 6.58396C9.85481 4.4496 14.1452 4.4496 17.4653 6.58396C17.5438 6.63435 17.6316 6.65845 17.7183 6.65845C17.8725 6.65845 18.0235 6.58246 18.1131 6.4431C18.2531 6.22537 18.1901 5.9354 17.9723 5.79534Z" fill="#009691"/>
<path d="M16.4618 8.54395C13.7514 6.80151 10.2485 6.80151 7.5381 8.54395C7.32032 8.68397 7.25727 8.97398 7.39724 9.19172C7.53721 9.4095 7.82732 9.47254 8.04501 9.33257C10.4475 7.788 13.5523 7.788 15.9549 9.33257C16.0333 9.38297 16.1211 9.40706 16.2079 9.40706C16.362 9.40706 16.5131 9.33107 16.6026 9.19172C16.7427 8.97398 16.6796 8.68397 16.4618 8.54395Z" fill="#009691"/>
</svg>
