<svg width="24" height="24" viewBox="0 0 24 24" fill="none" xmlns="http://www.w3.org/2000/svg">
<path fill-rule="evenodd" clip-rule="evenodd" d="M20.4853 3.51471C18.2188 1.24823 15.2053 0 12 0C9.56104 0 7.21289 0.72821 5.20935 2.1059C4.99603 2.25256 4.94202 2.54425 5.08868 2.75757C5.23535 2.97107 5.52722 3.0249 5.74054 2.87823C7.58716 1.60858 9.75165 0.9375 12 0.9375C18.1 0.9375 23.0625 5.90021 23.0625 12C23.0625 16.1376 20.7786 19.7514 17.4058 21.6487C17.4 21.546 17.3967 21.4406 17.3967 21.3309C17.3967 20.3091 17.6521 19.7697 17.9225 19.1988L17.9231 19.1977L17.9231 19.1977C18.2115 18.5882 18.5385 17.8973 18.5385 16.6655C18.5385 15.433 18.2113 14.7418 17.9225 14.1321C17.6966 13.6553 17.4814 13.2001 17.4166 12.4677C17.6662 12.4572 17.8656 12.2521 17.8656 12C17.8656 11.7411 17.6556 11.5312 17.3969 11.5312H14.1035C13.8446 11.5312 13.6348 11.7411 13.6348 12C13.6348 12.2589 13.8446 12.4688 14.1035 12.4688H14.1205C14.191 13.4167 14.4695 14.0056 14.7195 14.5333C14.9899 15.1044 15.2452 15.6436 15.2452 16.6655C15.2452 17.6873 14.9899 18.2265 14.7195 18.7976C14.4307 19.4072 14.1035 20.0984 14.1035 21.3309C14.1035 21.9628 14.1905 22.4438 14.2998 22.8214C13.5577 22.9788 12.7885 23.0625 12 23.0625C11.2115 23.0625 10.4423 22.9788 9.7002 22.8214C9.80951 22.4438 9.89648 21.9628 9.89648 21.3309C9.89648 20.0982 9.56927 19.4072 9.28052 18.7976L9.28011 18.7967C9.00999 18.226 8.75482 17.6867 8.75482 16.6655C8.75482 15.6438 9.01017 15.1044 9.28039 14.5335L9.28052 14.5333C9.53046 14.0056 9.80896 13.4167 9.87946 12.4688H9.89648C10.1554 12.4688 10.3652 12.2589 10.3652 12C10.3652 11.7411 10.1554 11.5312 9.89648 11.5312H6.60333C6.34442 11.5312 6.13458 11.7411 6.13458 12C6.13458 12.2521 6.3338 12.4572 6.58337 12.4677C6.51855 13.2001 6.30341 13.6551 6.07745 14.1321L6.07722 14.1326C5.7887 14.7422 5.46167 15.4332 5.46167 16.6655C5.46167 17.8977 5.7887 18.5887 6.07722 19.1983L6.07745 19.1988C6.3479 19.7697 6.60333 20.3091 6.60333 21.3309C6.60333 21.4406 6.60004 21.546 6.59418 21.6486C3.22137 19.7514 0.9375 16.1376 0.9375 12C0.9375 9.75128 1.60858 7.58698 2.87805 5.74091C3.02472 5.5274 2.9707 5.23572 2.75757 5.08905C2.54425 4.94238 2.25238 4.99622 2.10571 5.20953C0.728027 7.21271 0 9.56085 0 12C0 15.2053 1.24823 18.2188 3.51471 20.4853C5.78119 22.7518 8.79474 24 12 24C15.2053 24 18.2188 22.7518 20.4853 20.4853C22.7518 18.2188 24 15.2053 24 12C24 8.79474 22.7518 5.78119 20.4853 3.51471ZM6.92487 18.7976C6.65442 18.2267 6.39899 17.6873 6.39899 16.6655C6.39899 15.6436 6.65442 15.1044 6.92487 14.5334C7.17462 14.0057 7.45331 13.4167 7.52362 12.4688H8.93903C8.87421 13.2006 8.65906 13.6555 8.43329 14.1321C8.14453 14.7418 7.81732 15.4329 7.81732 16.6655C7.81732 17.898 8.14453 18.5891 8.43329 19.1988L8.43342 19.1991C8.70363 19.7699 8.95898 20.3093 8.95898 21.3309C8.95898 21.8738 8.88647 22.2719 8.79218 22.5875C8.34668 22.4524 7.91309 22.29 7.49341 22.1021C7.5249 21.8588 7.54065 21.6039 7.54065 21.3309C7.54083 20.0984 7.21362 19.4073 6.92487 18.7976ZM15.5666 19.1991C15.2964 19.7699 15.041 20.3093 15.041 21.3309C15.041 21.8738 15.1135 22.2719 15.2078 22.5875C15.6531 22.4524 16.0867 22.2902 16.5066 22.1021C16.4751 21.8588 16.4592 21.6039 16.4592 21.3309C16.4592 20.0984 16.7864 19.4073 17.0751 18.7976C17.3456 18.2267 17.6008 17.6873 17.6008 16.6655C17.6008 15.6436 17.3456 15.1044 17.0751 14.5334C16.8252 14.0057 16.5467 13.4167 16.4762 12.4688H15.061C15.1258 13.2006 15.3409 13.6555 15.5667 14.1321C15.8555 14.7418 16.1827 15.433 16.1827 16.6655C16.1827 17.898 15.8555 18.5891 15.5667 19.1988L15.5666 19.1991Z" fill="#FF735A"/>
<path d="M3.84588 4.31512C3.966 4.31512 4.08593 4.26917 4.17748 4.17761C4.36059 3.99469 4.36059 3.69788 4.17748 3.51477C3.99456 3.33167 3.69775 3.33167 3.51464 3.51477L3.51446 3.51495C3.33135 3.69806 3.33154 3.99469 3.51446 4.1778C3.60601 4.26935 3.72594 4.31512 3.84588 4.31512Z" fill="#009691"/>
<path d="M9.94739 16.4257C10.0768 16.65 10.3634 16.7267 10.5877 16.5973C11.0165 16.3497 11.5049 16.219 12 16.219C12.4951 16.219 12.9835 16.3497 13.4123 16.5973C13.4861 16.64 13.5667 16.6603 13.6461 16.6603C13.8082 16.6603 13.9658 16.5762 14.0526 16.4257C14.1821 16.2016 14.1052 15.9149 13.881 15.7854C13.3099 15.4558 12.6595 15.2815 12 15.2815C11.3406 15.2815 10.6901 15.4558 10.119 15.7854C9.89484 15.9149 9.81793 16.2016 9.94739 16.4257Z" fill="#009691"/>
</svg>
