<svg width="24" height="24" viewBox="0 0 24 24" fill="none" xmlns="http://www.w3.org/2000/svg">
<path fill-rule="evenodd" clip-rule="evenodd" d="M20.4853 3.51471C18.2188 1.24823 15.2053 0 12 0C9.56104 0 7.21289 0.72821 5.20935 2.10571C4.99603 2.25256 4.94202 2.54425 5.08868 2.75757C5.23535 2.97107 5.52722 3.0249 5.74054 2.87823C7.58698 1.60858 9.75146 0.9375 12 0.9375C16.2389 0.9375 19.9279 3.33435 21.7846 6.84357H2.21082C2.41077 6.46527 2.63306 6.09705 2.87823 5.74072C3.0249 5.5274 2.97089 5.23572 2.75757 5.08905C2.54425 4.94238 2.25238 4.9964 2.10571 5.20953C0.728027 7.21271 0 9.56085 0 12C0 15.2053 1.24823 18.2188 3.51471 20.4853C5.78119 22.7518 8.79474 24 12 24C15.2053 24 18.2188 22.7518 20.4853 20.4853C22.7518 18.2188 24 15.2053 24 12C24 8.79474 22.7518 5.78119 20.4853 3.51471ZM1.77045 7.78125H22.2257C22.7644 9.08203 23.0625 10.5068 23.0625 12C23.0625 13.142 22.8885 14.2441 22.5657 15.2814H1.43427C1.11145 14.2441 0.9375 13.142 0.9375 12C0.9375 10.5364 1.22205 9.10876 1.77045 7.78125ZM1.77429 16.2188C3.43597 20.2319 7.39343 23.0625 12 23.0625C16.6066 23.0625 20.564 20.2319 22.2257 16.2188H1.77429Z" fill="#FF735A"/>
<path d="M3.54599 4.20651C3.63351 4.27938 3.7399 4.31509 3.84573 4.31509C3.98013 4.31509 4.11343 4.25759 4.20626 4.14627C4.37198 3.94741 4.34506 3.65188 4.14621 3.48599C3.94754 3.32046 3.65182 3.34719 3.48593 3.54605L3.48574 3.54641C3.32003 3.74527 3.34713 4.0408 3.54599 4.20651Z" fill="#009691"/>
<path fill-rule="evenodd" clip-rule="evenodd" d="M6.84351 12.4688C6.84351 11.6933 7.47449 11.0625 8.24976 11.0625C9.02521 11.0625 9.65601 11.6933 9.65601 12.4688C9.65601 13.2442 9.02521 13.875 8.24976 13.875C7.47449 13.875 6.84351 13.2442 6.84351 12.4688ZM7.78101 12.4688C7.78101 12.7273 7.99139 12.9375 8.24976 12.9375C8.5083 12.9375 8.71851 12.7273 8.71851 12.4688C8.71851 12.2102 8.5083 12 8.24976 12C7.99139 12 7.78101 12.2102 7.78101 12.4688Z" fill="#009691"/>
<path fill-rule="evenodd" clip-rule="evenodd" d="M14.344 12.4688C14.344 11.6933 14.9748 11.0625 15.7502 11.0625C16.5255 11.0625 17.1565 11.6933 17.1565 12.4688C17.1565 13.2442 16.5255 13.875 15.7502 13.875C14.9748 13.875 14.344 13.2442 14.344 12.4688ZM15.2815 12.4688C15.2815 12.7273 15.4917 12.9375 15.7502 12.9375C16.0086 12.9375 16.219 12.7273 16.219 12.4688C16.219 12.2102 16.0086 12 15.7502 12C15.4917 12 15.2815 12.2102 15.2815 12.4688Z" fill="#009691"/>
<path d="M6.72228 9.73227L9.53478 10.4858C9.57543 10.4967 9.61608 10.5019 9.65636 10.5019C9.86327 10.5019 10.0528 10.3638 10.1088 10.1543C10.1758 9.90439 10.0275 9.64731 9.77739 9.5803L6.96489 8.82663C6.71477 8.75962 6.45787 8.90812 6.39086 9.15806C6.32384 9.40818 6.47215 9.66507 6.72228 9.73227Z" fill="#009691"/>
<path d="M14.3436 10.5019C14.3837 10.5019 14.4247 10.4967 14.4651 10.4858L17.2776 9.73227C17.5278 9.66507 17.6761 9.40818 17.6091 9.15806C17.542 8.90812 17.285 8.75962 17.035 8.82663L14.2225 9.5803C13.9724 9.64731 13.8241 9.90439 13.8911 10.1543C13.9471 10.3638 14.1366 10.5019 14.3436 10.5019Z" fill="#009691"/>
<path d="M7.78101 17.1565C7.52228 17.1565 7.31226 17.3663 7.31226 17.6252C7.31226 17.884 7.52228 18.094 7.78101 18.094C9.24951 18.094 10.6301 18.6658 11.6685 19.7042C11.7601 19.7956 11.88 19.8416 11.9999 19.8416C12.1199 19.8416 12.2398 19.7956 12.3314 19.7042C12.5145 19.5211 12.5145 19.2243 12.3314 19.0412C11.1159 17.8259 9.5 17.1565 7.78101 17.1565V17.1565Z" fill="#009691"/>
</svg>
