<svg width="360" height="238" viewBox="0 0 360 238" fill="none" xmlns="http://www.w3.org/2000/svg">
<rect width="360" height="238" fill="white"/>
<mask id="mask0" mask-type="alpha" maskUnits="userSpaceOnUse" x="0" y="0" width="360" height="238">
<rect width="360" height="238" fill="white"/>
</mask>
<g mask="url(#mask0)">
<path fill-rule="evenodd" clip-rule="evenodd" d="M19.6348 142.174L24.4348 142.417C24.5044 142.417 24.574 142.383 24.6435 142.348C24.6783 142.313 24.7131 142.243 24.7131 142.174L24.887 137.409C24.887 137.27 24.7827 137.13 24.6435 137.13L19.8783 136.887C19.8087 136.887 19.7392 136.922 19.7044 136.957C19.6696 136.991 19.6348 137.061 19.6348 137.13L19.3914 141.896C19.3914 142.035 19.4957 142.174 19.6348 142.174ZM24.1914 141.896L19.9479 141.652L20.1914 137.409L24.4348 137.652L24.1914 141.896Z" fill="black"/>
<path fill-rule="evenodd" clip-rule="evenodd" d="M319.928 113.645C319.969 113.668 320.001 113.687 320.052 113.687L320.087 113.652L323.217 113.2C323.356 113.2 323.461 113.061 323.426 112.922L322.974 109.791C322.974 109.722 322.939 109.652 322.87 109.617C322.8 109.583 322.73 109.583 322.661 109.583L319.53 110.035C319.391 110.035 319.287 110.174 319.322 110.313L319.774 113.443C319.774 113.513 319.809 113.583 319.878 113.617C319.897 113.627 319.913 113.636 319.928 113.645ZM320.261 113.13L319.878 110.522L322.487 110.139L322.87 112.748L320.261 113.13Z" fill="black"/>
<path fill-rule="evenodd" clip-rule="evenodd" d="M153.583 141.93H153.687H153.791C153.861 141.896 153.896 141.861 153.931 141.791L155.078 138.835C155.148 138.696 155.078 138.522 154.939 138.487L151.983 137.339C151.844 137.27 151.67 137.339 151.635 137.478L150.487 140.435C150.452 140.504 150.452 140.574 150.487 140.643C150.522 140.713 150.557 140.748 150.626 140.783L153.583 141.93ZM153.548 141.339L151.078 140.4L152.017 137.93L154.487 138.87L153.548 141.339Z" fill="black"/>
<path d="M105.2 126.8C105.13 126.8 105.096 126.765 105.026 126.73C104.922 126.626 104.887 126.487 104.991 126.348L108.713 121.687C108.817 121.583 108.957 121.548 109.096 121.652C109.2 121.757 109.235 121.896 109.13 122.035L105.409 126.696C105.374 126.765 105.304 126.8 105.2 126.8Z" fill="black"/>
<path d="M29.7913 93.0609C29.7218 93.0609 29.6174 93.0261 29.5826 92.9565L26.3478 87.8783C26.2783 87.7739 26.3131 87.6 26.4174 87.5305C26.5218 87.4609 26.6957 87.4957 26.7652 87.6L29.9652 92.6435C30.0348 92.7478 30 92.9218 29.8957 92.9913C29.8609 93.0261 29.8261 93.0609 29.7913 93.0609Z" fill="black"/>
<path d="M158.974 92.0174C158.939 92.0174 158.87 92.0174 158.835 91.9826L153.652 88.9913C153.513 88.9217 153.478 88.7478 153.548 88.6435C153.618 88.5043 153.791 88.4696 153.896 88.5391L159.078 91.4956C159.218 91.5652 159.252 91.7391 159.183 91.8435C159.148 91.9478 159.044 92.0174 158.974 92.0174Z" fill="black"/>
<path d="M2.24345 195.461C2.1391 195.461 2.06954 195.391 1.99997 195.322L-0.643507 189.965C-0.713072 189.826 -0.643507 189.687 -0.539159 189.617C-0.400028 189.548 -0.260898 189.617 -0.191333 189.722L2.45215 195.078C2.52171 195.217 2.45215 195.356 2.3478 195.426C2.31301 195.461 2.27823 195.461 2.24345 195.461Z" fill="black"/>
<path d="M178.765 228.226C178.696 228.226 178.626 228.191 178.557 228.122L174.8 223.461C174.696 223.357 174.731 223.183 174.835 223.078C174.939 222.974 175.113 223.009 175.217 223.113L178.974 227.774C179.078 227.878 179.044 228.052 178.939 228.157C178.87 228.191 178.835 228.226 178.765 228.226Z" fill="black"/>
<path d="M292.713 215.113C292.609 215.113 292.504 215.043 292.47 214.974C292.4 214.835 292.47 214.696 292.609 214.626L298.07 212.226C298.209 212.157 298.348 212.226 298.417 212.365C298.487 212.504 298.418 212.643 298.278 212.713L292.817 215.113C292.783 215.078 292.748 215.113 292.713 215.113Z" fill="black"/>
<path d="M352.678 148.609C352.643 148.609 352.609 148.609 352.574 148.574C352.435 148.504 352.365 148.365 352.435 148.226L354.696 142.696C354.765 142.557 354.904 142.487 355.043 142.557C355.183 142.626 355.252 142.765 355.183 142.904L352.922 148.435C352.852 148.539 352.783 148.609 352.678 148.609Z" fill="black"/>
<path d="M275.217 127.183C275.113 127.183 275.009 127.113 274.974 127.043L272.47 121.617C272.4 121.478 272.47 121.339 272.609 121.27C272.748 121.2 272.887 121.27 272.957 121.409L275.461 126.835C275.531 126.974 275.461 127.113 275.322 127.183C275.287 127.148 275.252 127.183 275.217 127.183Z" fill="black"/>
<path d="M358.835 94.313C358.8 94.313 358.765 94.313 358.73 94.2783L353.304 91.7391C353.165 91.6696 353.13 91.5304 353.165 91.3913C353.235 91.2522 353.374 91.2174 353.513 91.2522L358.939 93.7913C359.078 93.8609 359.113 94 359.078 94.1391C359.043 94.2435 358.939 94.313 358.835 94.313Z" fill="black"/>
<path d="M53.2695 112.817C53.9035 112.817 54.4174 112.303 54.4174 111.67C54.4174 111.036 53.9035 110.522 53.2695 110.522C52.6356 110.522 52.1217 111.036 52.1217 111.67C52.1217 112.303 52.6356 112.817 53.2695 112.817Z" fill="#9050A6"/>
<path fill-rule="evenodd" clip-rule="evenodd" d="M218.904 112.817C218.904 113.583 219.53 114.209 220.296 114.209C221.061 114.209 221.687 113.583 221.687 112.817C221.687 112.052 221.061 111.426 220.296 111.426C219.53 111.426 218.904 112.052 218.904 112.817ZM219.426 112.783C219.426 112.296 219.809 111.913 220.296 111.913C220.783 111.913 221.165 112.296 221.165 112.783C221.165 113.27 220.783 113.652 220.296 113.652C219.809 113.652 219.426 113.27 219.426 112.783Z" fill="black"/>
<path fill-rule="evenodd" clip-rule="evenodd" d="M78.5217 202C78.5217 228.435 100.017 249.965 126.452 249.965C152.887 249.965 174.417 228.435 174.417 202C174.417 175.565 152.957 154.035 126.487 154.035C100.017 154.035 78.5217 175.565 78.5217 202ZM79.0087 202.035C79.0087 175.878 100.296 154.591 126.452 154.591C152.609 154.591 173.896 175.843 173.896 202C173.896 228.157 152.609 249.478 126.452 249.478C100.296 249.478 79.0087 228.191 79.0087 202.035Z" fill="black"/>
<path fill-rule="evenodd" clip-rule="evenodd" d="M84.713 202C84.713 225.026 103.426 243.739 126.452 243.739C149.478 243.739 168.191 225.026 168.191 202C168.191 178.974 149.478 160.261 126.452 160.261C103.426 160.261 84.713 178.974 84.713 202ZM85.2348 202C85.2348 179.287 103.739 160.783 126.452 160.783C149.2 160.783 167.67 179.287 167.67 202C167.67 224.748 149.165 243.217 126.452 243.217C103.739 243.217 85.2348 224.713 85.2348 202Z" fill="black"/>
<path fill-rule="evenodd" clip-rule="evenodd" d="M119.183 210.73C122.139 211.287 125.13 211.565 128.156 211.565C131.983 211.565 135.878 211.113 139.774 210.209C151.6 207.496 159.461 201.443 159.53 201.374C159.6 201.339 159.635 201.235 159.635 201.165C159.635 201.096 159.6 200.991 159.53 200.956C142.696 188.122 126.07 188.226 115.078 190.591C103.183 193.13 95.1478 198.8 95.0782 198.87C95.0087 198.904 94.9739 199.009 94.9739 199.078C94.9739 199.148 95.0087 199.252 95.0782 199.287C102.661 205.304 110.765 209.13 119.183 210.73ZM119.252 210.243C111.043 208.678 103.113 204.956 95.6695 199.113C97.2 198.07 104.643 193.374 115.148 191.078C125.965 188.748 142.313 188.643 158.904 201.165C157.443 202.243 150.104 207.287 139.635 209.722C132.783 211.322 125.896 211.496 119.252 210.243Z" fill="black"/>
<path d="M127.287 211.322C133.28 211.322 138.139 206.463 138.139 200.47C138.139 194.476 133.28 189.617 127.287 189.617C121.293 189.617 116.435 194.476 116.435 200.47C116.435 206.463 121.293 211.322 127.287 211.322Z" fill="black"/>
<path fill-rule="evenodd" clip-rule="evenodd" d="M194.835 202C194.835 225.026 213.548 243.739 236.574 243.739C259.6 243.739 278.313 225.026 278.383 201.965C278.383 193.513 275.843 185.339 271.078 178.383C271.009 178.313 270.939 178.278 270.869 178.278C270.8 178.278 270.73 178.278 270.661 178.348C270.104 178.939 269.722 179.252 269.409 179.183C269.2 179.148 269.061 178.974 268.991 178.8C268.922 178.487 269.269 178.07 270 177.27C270.069 177.165 270.069 177.026 270 176.922C269.773 176.619 269.564 176.353 269.374 176.11C269.302 176.018 269.232 175.93 269.165 175.843C269.096 175.739 268.922 175.739 268.817 175.809C268.678 175.878 268.539 175.983 268.4 176.087C267.565 176.643 266.835 177.13 266.452 176.922C266.243 176.783 266.139 176.504 266.139 176.261C266.139 175.739 266.8 175.287 267.287 174.974L267.774 174.661C267.809 174.626 267.878 174.557 267.878 174.487C267.878 174.417 267.843 174.348 267.809 174.278C267.739 174.209 267.678 174.139 267.617 174.07C267.556 174 267.496 173.93 267.426 173.861C267.322 173.757 267.217 173.757 267.113 173.791C265.443 174.557 264.504 174.8 264.226 174.557C264.052 174.417 264.017 174.104 264.052 173.93C264.122 173.583 264.539 173.374 265.478 172.922C265.583 172.887 265.722 172.817 265.861 172.748C265.93 172.713 266 172.643 266 172.574C266.035 172.47 266 172.4 265.93 172.33C265.748 172.166 265.565 171.992 265.373 171.809C265.198 171.643 265.016 171.469 264.817 171.287C264.469 170.939 264.087 170.591 263.67 170.243C256.156 163.809 246.522 160.261 236.574 160.261C213.548 160.261 194.835 178.974 194.835 202ZM195.356 202C195.356 179.287 213.861 160.783 236.574 160.783C246.383 160.783 255.913 164.296 263.391 170.626C263.767 170.939 264.115 171.253 264.435 171.541C264.47 171.572 264.505 171.604 264.539 171.635C264.683 171.779 264.827 171.913 264.966 172.043C265.096 172.165 265.221 172.282 265.339 172.4C265.339 172.435 265.304 172.435 265.304 172.435C264.261 172.957 263.704 173.235 263.6 173.826C263.53 174.174 263.6 174.661 263.948 174.939C264.365 175.287 265.026 175.322 267.217 174.348L267.252 174.383L267.009 174.557C266.978 174.577 266.947 174.599 266.915 174.62C266.364 174.997 265.617 175.506 265.617 176.296C265.617 176.678 265.791 177.2 266.209 177.409C266.869 177.757 267.67 177.235 268.678 176.539C268.713 176.522 268.748 176.496 268.783 176.47C268.817 176.443 268.852 176.417 268.887 176.4C268.963 176.491 269.039 176.589 269.118 176.691C269.22 176.822 269.326 176.959 269.443 177.096C268.713 177.896 268.296 178.383 268.469 178.974C268.574 179.322 268.887 179.6 269.235 179.704C269.756 179.843 270.243 179.496 270.765 178.974C275.356 185.791 277.791 193.722 277.791 202C277.791 224.748 259.287 243.217 236.574 243.217C213.861 243.217 195.356 224.713 195.356 202Z" fill="black"/>
<path fill-rule="evenodd" clip-rule="evenodd" d="M188.609 202C188.609 228.47 210.139 249.965 236.574 249.965C263.009 249.965 284.539 228.435 284.47 201.965C284.47 192.261 281.583 182.904 276.122 174.939C276.087 174.87 275.983 174.835 275.878 174.835C275.322 174.904 274.73 174.939 274.139 174.939C274.104 174.939 274 174.974 273.965 175.009C273.27 175.6 272.609 176.226 271.948 176.922C271.764 177.105 271.6 177.279 271.445 177.443C271.306 177.59 271.175 177.729 271.043 177.861C270.952 177.953 270.87 178.044 270.792 178.131C270.723 178.209 270.657 178.282 270.591 178.348C270.035 178.939 269.652 179.252 269.339 179.183C269.13 179.148 268.991 178.974 268.922 178.8C268.852 178.452 269.2 178.035 269.93 177.235L270.07 177.096C270.104 177.057 270.139 177.018 270.174 176.978C270.425 176.696 270.704 176.383 271.009 176.017C272.713 174 272.539 173.826 272.365 173.687C272.156 173.478 271.983 173.583 270.383 174.696C270.17 174.855 269.921 175.024 269.645 175.211C269.38 175.39 269.09 175.587 268.783 175.809C268.643 175.878 268.504 175.983 268.365 176.087C267.53 176.643 266.8 177.13 266.417 176.922C266.209 176.783 266.104 176.504 266.104 176.261C266.104 175.739 266.765 175.287 267.252 174.974L267.739 174.661C268.609 174.07 269.548 173.443 270.591 172.748L271.148 172.365C271.252 172.296 271.287 172.122 271.217 172.017C271.148 171.878 271.009 171.843 270.87 171.913C270.383 172.191 269.548 172.643 268.539 173.13C268.203 173.298 267.868 173.45 267.544 173.596C267.397 173.662 267.254 173.726 267.113 173.791C265.443 174.557 264.504 174.8 264.226 174.557C264.052 174.417 264.017 174.104 264.052 173.93C264.122 173.583 264.539 173.374 265.478 172.922C265.583 172.887 265.722 172.817 265.861 172.748L266.591 172.4C267.809 171.843 269.513 171.043 270.278 170.626C270.383 170.591 270.417 170.452 270.383 170.313C270.348 170.209 270.209 170.139 270.07 170.174C269.513 170.348 268.956 170.487 268.33 170.626C266.974 170.939 265.652 171.217 264.783 171.217L264.781 171.216C264.468 170.938 264.156 170.66 263.809 170.348C264.026 169.913 264.883 169.783 265.36 169.711C265.417 169.702 265.469 169.694 265.513 169.687C266.591 169.583 268.156 169.339 270.73 168.922C270.835 168.922 270.904 168.852 270.939 168.748C270.974 168.643 270.939 168.539 270.87 168.47C261.756 159.148 249.583 154.035 236.574 154.035C210.104 154.035 188.609 175.53 188.609 202ZM189.13 202C189.13 175.843 210.417 154.591 236.574 154.591C249.27 154.591 261.2 159.53 270.139 168.435C267.843 168.783 266.417 168.991 265.409 169.13L265.391 169.133C264.793 169.203 263.562 169.347 263.287 170.174C263.287 170.209 263.278 170.235 263.27 170.261C263.261 170.287 263.252 170.313 263.252 170.348C263.252 170.452 263.287 170.522 263.356 170.591C263.733 170.905 264.08 171.218 264.4 171.506C264.435 171.538 264.47 171.569 264.504 171.6C264.523 171.609 264.539 171.619 264.554 171.627C264.595 171.651 264.627 171.67 264.678 171.67C265.513 171.704 266.626 171.496 267.878 171.217C267.451 171.4 266.998 171.61 266.587 171.8C266.53 171.826 266.473 171.853 266.417 171.878L265.687 172.226C265.548 172.296 265.409 172.365 265.304 172.4C264.261 172.922 263.704 173.2 263.6 173.791C263.53 174.139 263.6 174.626 263.948 174.904C264.365 175.287 265.061 175.287 267.391 174.243C267.409 174.243 267.426 174.235 267.443 174.226C267.461 174.217 267.478 174.209 267.496 174.209L267.009 174.522C266.978 174.543 266.947 174.564 266.916 174.585C266.364 174.962 265.617 175.472 265.617 176.261C265.617 176.643 265.791 177.165 266.209 177.374C266.87 177.722 267.67 177.2 268.678 176.504C268.748 176.452 268.817 176.409 268.887 176.365C268.956 176.322 269.026 176.278 269.096 176.226C269.594 175.912 270.013 175.617 270.383 175.356C270.503 175.271 270.619 175.19 270.73 175.113C271.043 174.904 271.356 174.696 271.6 174.522C271.402 174.794 271.15 175.102 270.922 175.383C270.829 175.496 270.741 175.604 270.661 175.704C270.356 176.07 270.077 176.383 269.826 176.666C269.791 176.705 269.756 176.744 269.722 176.783L269.583 176.922C269.526 176.985 269.472 177.047 269.419 177.106C268.713 177.9 268.275 178.392 268.47 178.974C268.574 179.322 268.887 179.6 269.235 179.704C269.861 179.878 270.383 179.391 271.009 178.73C271.074 178.665 271.14 178.591 271.209 178.514C271.287 178.427 271.369 178.335 271.461 178.243C271.592 178.112 271.724 177.973 271.862 177.826C272.017 177.662 272.182 177.488 272.365 177.304C272.991 176.678 273.617 176.052 274.278 175.496C274.8 175.496 275.322 175.461 275.843 175.391C281.2 183.252 284.017 192.47 284.017 202C284.017 228.157 262.73 249.443 236.574 249.443C210.417 249.443 189.13 228.157 189.13 202Z" fill="black"/>
<path fill-rule="evenodd" clip-rule="evenodd" d="M229.304 210.73C232.261 211.287 235.252 211.565 238.278 211.565C242.104 211.565 246 211.113 249.896 210.209C261.722 207.496 269.583 201.443 269.652 201.374C269.722 201.339 269.757 201.235 269.757 201.165C269.757 201.096 269.722 200.991 269.652 200.956C252.817 188.122 236.191 188.226 225.2 190.591C213.304 193.13 205.27 198.8 205.2 198.87C205.13 198.904 205.096 199.009 205.096 199.078C205.096 199.148 205.13 199.252 205.2 199.287C212.783 205.304 220.887 209.13 229.304 210.73ZM229.374 210.243C221.165 208.678 213.235 204.956 205.791 199.113C207.322 198.07 214.765 193.339 225.27 191.078C236.087 188.748 252.435 188.643 269.026 201.165C267.565 202.243 260.226 207.287 249.757 209.722C242.904 211.322 236.017 211.496 229.374 210.243Z" fill="black"/>
<path d="M237.409 211.322C243.402 211.322 248.261 206.463 248.261 200.47C248.261 194.476 243.402 189.617 237.409 189.617C231.415 189.617 226.557 194.476 226.557 200.47C226.557 206.463 231.415 211.322 237.409 211.322Z" fill="black"/>
<path d="M180.261 146.244C170.835 148.539 164.991 158.209 167.322 167.6C169.235 167.113 171.148 166.661 173.096 166.174C171.6 160.017 175.322 153.722 181.374 152.261C187.426 150.765 193.652 154.626 195.148 160.783C197.304 160.261 199.496 159.704 201.652 159.183C199.322 149.757 189.687 143.913 180.261 146.244Z" fill="black"/>
<path d="M49.826 161.617C49.826 161.617 48.7478 169.409 49.2695 176.817C49.7217 183.287 50.1391 186.522 52.0173 188.191C52.2956 188.435 52.6086 188.678 52.9217 188.852C55.1825 190.209 58.4173 190.8 69.2695 187.461C71.2173 186.87 73.826 186 76.9217 184.852C77.3043 183.287 79.4956 176.783 80.0869 175.426C77.0608 175.983 74.0347 176.539 70.9739 177.096C67.3565 177.757 63.7739 178.383 60.1912 178.974C60.2956 178.139 60.3999 177.061 60.5739 175.774C60.7826 174.104 60.9565 172.783 61.026 172.017C61.026 172.017 61.0608 171.704 61.0956 171.426C62.0347 164.4 63.7739 158.696 60.9912 154C60.8869 153.861 60.6782 153.513 60.3652 153.096C60.5739 152.609 60.8173 152.087 61.026 151.6C59.0086 150.383 56.9565 149.13 54.9391 147.913C54.6956 148.33 54.4521 148.783 54.2086 149.2C52.7478 149.304 50.6956 149.583 48.3999 150.487C40.8869 153.443 37.4086 160.574 35.0086 165.339C30.3478 174.626 25.1304 184.609 18.8695 196.435C23.2869 197.13 27.7043 197.791 32.1912 198.452C38.0695 199.322 43.8782 200.157 49.6521 200.922C50.2086 198.765 50.7999 196.609 51.3912 194.417C51.913 192.539 52.3999 190.661 52.9217 188.783" fill="#FF735A"/>
<path d="M58.3826 271.809C58.2434 271.809 58.1391 271.704 58.1391 271.6L50.8347 230.313C44.226 224.609 38.6608 218.696 34.7304 213.235C33.0608 210.939 31.7739 208.783 30.8 206.626C29.513 203.878 28.5739 200.957 27.9478 197.93C27.913 197.791 28.0173 197.652 28.1565 197.617C28.2956 197.583 28.4347 197.687 28.4695 197.826C29.0608 200.783 30 203.67 31.2869 206.383C32.2608 208.504 33.5478 210.626 35.1826 212.887C39.113 218.348 44.6434 224.226 51.2521 229.93C51.2869 229.965 51.3217 230.035 51.3217 230.07L58.626 271.217L70.313 271.078C69.3391 261.687 68.1913 252.296 66.8695 243.113C65.026 230.243 64.226 227.252 62.5217 223.67C61.026 220.574 58.313 216.504 52.8869 208.435L52.0521 207.217C50.626 205.061 49.1652 202.939 47.7391 200.852C47.6695 200.748 47.7043 200.574 47.8087 200.504C47.913 200.435 48.0869 200.47 48.1565 200.574C49.5826 202.661 51.0434 204.817 52.5043 206.974L53.3391 208.191C58.7652 216.261 61.4782 220.33 63.0087 223.496C64.7826 227.148 65.5478 230.174 67.426 243.113C68.7478 252.4 69.9304 261.93 70.9043 271.391C70.9043 271.461 70.9043 271.53 70.8347 271.6C70.8 271.67 70.7304 271.67 70.626 271.704L58.3826 271.809Z" fill="black"/>
<path d="M34.9391 213.061C25.8957 231.183 16.887 249.304 7.87827 267.426C7.25218 267.287 6.66088 267.148 6.03479 267.009C3.28697 266.348 0.573923 265.722 -2.1739 265.061C-2.66086 264.957 -3.14782 264.817 -3.66956 264.713C4.71305 242.104 13.1304 219.461 21.5131 196.852C23.7391 197.2 25.9652 197.548 28.1565 197.896C28.5391 199.843 29.1652 202.139 30.1739 204.643C31.6348 208.226 33.4087 211.009 34.9391 213.061Z" fill="black"/>
<path d="M65.4434 271.739C65.3043 271.739 65.1999 271.635 65.1999 271.496C64.0173 261.374 62.9738 252.261 61.9999 243.635L61.9651 243.322C61.0956 235.496 60.6782 231.913 58.7304 227.043C56.8521 222.348 54.2782 218.522 49.1651 210.904L49.0608 210.73C46.5912 207.078 44.0521 203.461 41.4434 199.983C41.3738 199.878 41.3738 199.704 41.513 199.635C41.6173 199.565 41.7912 199.565 41.8608 199.704C44.4695 203.183 47.0086 206.8 49.4782 210.452L49.5825 210.626C54.7304 218.278 57.3043 222.104 59.2173 226.87C61.1999 231.809 61.6173 235.426 62.4869 243.287L62.5217 243.6C63.4956 252.226 64.5391 261.339 65.7217 271.461C65.7217 271.565 65.6173 271.704 65.4434 271.739C65.4434 271.739 65.4782 271.739 65.4434 271.739Z" fill="black"/>
<path d="M57.513 146.417C56.8173 146.348 56.226 146 55.8086 145.513C55.3912 144.991 55.2173 144.365 55.2869 143.704C55.3564 143.043 55.7043 142.417 56.2608 142C56.3304 141.93 56.3999 141.896 56.5043 141.861C56.5738 141.826 56.6782 141.757 56.7477 141.722C56.8173 141.687 56.9217 141.652 56.9912 141.617H57.026C57.0956 141.583 57.1999 141.583 57.2695 141.548C57.3738 141.548 57.4434 141.513 57.5477 141.513C57.6869 141.513 57.826 141.513 57.9999 141.513C58.6608 141.583 59.2521 141.896 59.6695 142.417C60.0869 142.939 60.2608 143.565 60.1912 144.226C60.1912 144.365 60.0869 144.47 59.9477 144.47C59.8086 144.47 59.7043 144.33 59.7043 144.191C59.7738 143.635 59.6347 143.148 59.2869 142.73C58.9738 142.313 58.4869 142.07 57.9651 142C57.8608 142 57.7217 142 57.6173 142C57.5477 142 57.4782 142 57.4086 142.035C57.3391 142.035 57.2695 142.07 57.1999 142.07H57.1651C57.0956 142.104 57.026 142.104 56.9564 142.139C56.8869 142.174 56.8173 142.209 56.7477 142.243C56.6782 142.278 56.6086 142.313 56.5738 142.348C56.1217 142.661 55.8434 143.148 55.8086 143.704C55.7391 144.226 55.913 144.713 56.226 145.13C56.5391 145.548 57.026 145.791 57.5477 145.861C57.6869 145.861 57.7912 146 57.7912 146.139C57.7564 146.313 57.6521 146.417 57.513 146.417Z" fill="black"/>
<path d="M67.8086 137.165C67.913 137.27 67.9825 137.339 68.0173 137.374C67.8086 137.861 67.2173 138.974 65.9303 139.809C64.3303 140.852 62.6608 140.748 62.1738 140.713C61.8608 141.13 60.3651 143.53 59.9477 144.226C60.0869 143.009 59.2173 141.93 57.9999 141.791C57.826 141.756 57.6869 141.791 57.6173 141.791C57.0608 141.826 56.6434 142.07 56.4347 142.209C56.713 138.348 59.426 135.391 62.5216 135.113C65.1651 134.8 67.1477 136.504 67.8086 137.165Z" fill="black"/>
<path d="M55.1478 148.226C55.113 148.226 55.0782 148.226 55.0434 148.191C54.9043 148.122 54.8695 147.983 54.9391 147.843L56.0869 145.478C56.1565 145.339 56.2956 145.304 56.4347 145.374C56.5739 145.443 56.6086 145.583 56.5391 145.722L55.3913 148.087C55.3217 148.157 55.2521 148.226 55.1478 148.226Z" fill="black"/>
<path d="M60.9565 151.739C60.9217 151.739 60.8869 151.739 60.8173 151.704C60.6782 151.635 60.6434 151.461 60.713 151.357L61.6521 149.652C61.7217 149.548 61.8608 149.478 61.9999 149.548C62.0695 149.583 62.1391 149.617 62.2086 149.652C63.113 150.035 64.5043 150.417 65.9304 149.965C68.9565 149.026 70.8695 144.748 69.826 141.13C69.4434 139.774 68.7478 138.522 67.8086 137.548C66.1391 135.774 63.913 135.078 61.8608 135.635C59.426 136.33 57.7217 138.8 57.6173 141.791C57.6173 141.93 57.513 142.035 57.3738 142.035C57.2347 142.035 57.1304 141.93 57.1304 141.791C57.2347 138.557 59.0782 135.913 61.7565 135.148C63.9825 134.522 66.3825 135.287 68.1912 137.2C69.1999 138.243 69.9304 139.565 70.3478 140.991C71.4608 144.852 69.3738 149.478 66.1043 150.487C64.5391 150.974 63.0434 150.557 62.0347 150.139L61.1999 151.635C61.1304 151.704 61.026 151.739 60.9565 151.739Z" fill="black"/>
<path d="M62.2434 149.722C62.1043 149.861 61.9651 150.035 61.826 150.209C61.6173 150.487 61.4782 150.73 61.3738 150.939C60.9912 150.487 60.5043 149.896 60.0521 149.061C59.7043 148.4 59.4956 147.809 59.3564 147.322C59.7391 147.913 60.3999 148.748 61.4434 149.339C61.7564 149.513 61.9999 149.617 62.2434 149.722Z" fill="black"/>
<path d="M79.7391 176.643C79.6 176.643 79.4956 176.539 79.4956 176.435C79.4609 176.296 79.5652 176.156 79.7043 176.156C79.9478 176.087 80.1217 176.052 80.3304 176.017C82.6956 175.391 84.6087 174.348 85.9652 172.887C86.0695 172.783 86.2087 172.609 86.3826 172.4C88.4 170.139 89.7217 168.887 90.4174 169.026C90.8 169.096 90.9739 169.339 90.9739 169.339C91.2522 169.687 91.1478 170.174 91.0782 170.417C91.0435 170.556 90.8695 170.626 90.7652 170.591C90.6261 170.556 90.5565 170.383 90.5913 170.278C90.6261 170.174 90.6956 169.861 90.5913 169.687C90.5913 169.687 90.4869 169.583 90.313 169.548C89.9304 169.478 88.7478 170.556 86.7652 172.748C86.5913 172.956 86.4522 173.096 86.313 173.235C84.8869 174.765 82.9043 175.878 80.4348 176.504C80.2261 176.574 80.0174 176.609 79.8087 176.643C79.8087 176.643 79.7739 176.643 79.7391 176.643Z" fill="black"/>
<path d="M89.1999 170.104C89.1304 170.104 89.0608 170.07 89.026 170.035C88.9217 169.93 88.9217 169.757 89.026 169.652C90.0695 168.609 91.0782 168.191 91.5999 168.574C91.8086 168.713 91.913 168.957 91.9478 169.339C91.9478 169.478 91.8434 169.617 91.7043 169.617C91.5651 169.617 91.426 169.513 91.426 169.374C91.426 169.2 91.3564 169.061 91.2869 168.991C91.0782 168.852 90.313 169.061 89.3738 170.035C89.3391 170.07 89.2695 170.104 89.1999 170.104Z" fill="black"/>
<path d="M89.6174 169.722C89.5478 169.722 89.4783 169.687 89.4435 169.652C89.3391 169.548 89.3391 169.374 89.4435 169.27C90.5913 168.191 91.6 167.774 92.1565 168.156C92.3305 168.296 92.4348 168.504 92.4696 168.783C92.5044 168.922 92.4 169.061 92.2609 169.061C92.1218 169.061 91.9826 168.991 91.9826 168.852C91.9826 168.748 91.9478 168.643 91.8783 168.574C91.6696 168.435 90.9044 168.643 89.8261 169.652C89.7565 169.722 89.687 169.722 89.6174 169.722Z" fill="black"/>
<path d="M77.3738 183.774C77.2347 183.774 77.0956 183.67 77.0956 183.496C77.0956 183.356 77.1999 183.252 77.3391 183.252H77.3738C77.9999 183.217 78.6608 183.113 79.2869 182.939C79.7043 182.835 80.0869 182.696 80.4695 182.522C82.1738 181.791 83.2869 180.643 83.913 179.809C84.0173 179.704 84.1565 179.67 84.2956 179.774C84.3999 179.878 84.4347 180.017 84.3304 180.156C83.6695 181.026 82.4869 182.243 80.6782 183.043C80.2608 183.217 79.8782 183.356 79.426 183.496C78.7651 183.67 78.0695 183.774 77.4086 183.809C77.4086 183.774 77.4086 183.774 77.3738 183.774Z" fill="black"/>
<path d="M80.087 176.261C79.6696 178.626 79.2174 180.991 78.8 183.357C78.5913 183.391 78.3478 183.461 78.1043 183.496C77.8609 183.53 77.6174 183.53 77.4087 183.53C78.2087 181.13 78.9739 178.765 79.7739 176.365C79.8783 176.33 79.9826 176.296 80.087 176.261Z" fill="black"/>
<path d="M355.148 196.887C355.496 196.783 355.809 196.643 356.156 196.539C356.156 196.539 376.922 243.704 387.009 266.73C383.774 267.565 380.539 268.435 377.304 269.27C366.522 251.67 355.53 234.209 344.4 216.852C343.669 215.704 342.939 214.557 342.174 213.409C340.052 210.104 337.896 206.8 335.739 203.496L355.148 196.887Z" fill="black"/>
<path d="M356.122 196.539C355.809 199.774 354.87 203.739 352.609 207.6C350.278 211.565 347.148 214.452 345.617 215.774C345.2 216.122 344.783 216.504 344.365 216.852C339.635 220.922 333.861 225.791 327.113 231.148C329.409 238.278 339.078 267.252 341.513 274.383C339.739 274.209 337.896 274 336.017 273.757C334.104 273.513 332.261 273.235 330.487 272.957C329.652 271.461 328.47 269.27 327.043 266.591C324.574 261.896 323.078 258.974 321.409 255.6C312.713 238 311.391 232.47 311.774 229.061C311.878 228.296 312.052 227.704 312.087 227.53C313.304 222.661 316.087 219.113 326.174 210.487C328.191 208.783 330.8 206.591 333.896 204.122" fill="#009691"/>
<path d="M323.182 155.148C323.043 155.148 322.904 155.043 322.904 154.87C322.904 154.696 323.008 154.591 323.182 154.591C323.53 154.591 323.843 154.522 324.156 154.348C324.782 154 325.2 153.304 325.2 152.609C325.2 151.496 324.295 150.591 323.182 150.591C322.626 150.591 322.069 150.835 321.687 151.252C321.652 151.287 321.617 151.357 321.582 151.391C321.513 151.496 321.339 151.53 321.2 151.426C321.061 151.322 321.061 151.183 321.165 151.043C321.2 150.974 321.269 150.939 321.304 150.87C321.791 150.348 322.452 150.035 323.182 150.035C324.574 150.035 325.721 151.183 325.721 152.574C325.721 153.478 325.235 154.348 324.4 154.8C324.052 155.009 323.6 155.148 323.182 155.148Z" fill="black"/>
<path d="M326.348 151.948C326.174 152.817 325.791 153.652 325.791 153.652C325.374 154.591 324.817 155.217 324.434 155.635C324.678 156.052 324.956 156.435 325.2 156.852C324.852 156.957 324.539 157.061 324.191 157.165C323.948 156.4 323.669 155.635 323.426 154.87C323.6 154.835 324.574 154.661 325.095 153.791C325.165 153.652 325.408 153.235 325.408 152.609C325.408 151.357 324.4 150.348 323.148 150.348C322.487 150.348 321.861 150.626 321.478 151.113L320.574 148.157C318.452 147.878 316.365 147.6 314.243 147.322C314.661 146.835 315.182 146.383 315.739 145.965C318.069 144.296 321.339 143.496 323.774 145.165C326.104 146.661 326.765 149.687 326.348 151.948Z" fill="black"/>
<path d="M318 158.696C317.756 158.696 317.513 158.661 317.269 158.626C317.13 158.591 316.956 158.556 316.782 158.522C316.469 158.452 313.791 157.756 312.539 155.217C311.182 152.504 312.295 149.235 314 147.217C314.035 147.183 314.069 147.148 314.104 147.113C314.556 146.626 315.078 146.139 315.669 145.722C317.791 144.191 321.269 143.043 324.017 144.922C326.417 146.522 327.043 149.722 326.626 152.017C326.417 153.2 325.895 154.348 325.095 155.356C324.956 155.53 324.817 155.704 324.678 155.843C324.574 155.948 324.4 155.948 324.295 155.843C324.191 155.739 324.191 155.565 324.295 155.461C324.435 155.322 324.574 155.148 324.678 155.009C325.443 154.07 325.93 153.026 326.104 151.913C326.487 149.791 325.895 146.835 323.704 145.374C321.2 143.67 317.965 144.748 315.982 146.174C315.426 146.591 314.939 147.009 314.522 147.496C314.487 147.53 314.452 147.565 314.452 147.6C313.235 149.026 311.6 152.191 313.026 155.043C314.174 157.339 316.643 158 316.922 158.07C317.061 158.104 317.2 158.139 317.374 158.139C317.582 158.174 317.826 158.209 318.035 158.209C318.174 158.209 318.278 158.348 318.278 158.487C318.243 158.591 318.139 158.696 318 158.696Z" fill="black"/>
<path d="M320.087 162.104C319.982 162.104 319.913 162.07 319.878 161.965L317.791 158.522C317.722 158.383 317.756 158.243 317.895 158.174C318.035 158.104 318.174 158.139 318.243 158.278L320.33 161.722C320.4 161.861 320.365 162 320.226 162.07C320.156 162.104 320.122 162.104 320.087 162.104Z" fill="black"/>
<path d="M326.522 159.183C326.452 159.183 326.348 159.148 326.313 159.078L324.226 155.774C324.156 155.635 324.191 155.496 324.295 155.426C324.4 155.357 324.574 155.391 324.643 155.496L326.73 158.8C326.8 158.939 326.765 159.078 326.661 159.148C326.626 159.148 326.591 159.183 326.522 159.183Z" fill="black"/>
<path d="M321.13 156.678C320.956 157.061 320.713 157.548 320.295 158.035C319.669 158.8 319.008 159.217 318.556 159.461C318.278 159.043 318 158.661 317.721 158.243C318.069 158.243 318.591 158.243 319.148 158.07C320.191 157.687 320.852 156.991 321.13 156.678Z" fill="black"/>
<path d="M270.696 168.922C270.556 168.922 270.452 168.817 270.452 168.713C270.417 168.574 270.522 168.435 270.661 168.4C271.322 168.296 272.017 168.191 272.748 168.052L273.582 167.913C273.722 167.878 273.826 167.878 273.965 167.843C274.104 167.809 274.243 167.913 274.278 168.052C274.313 168.191 274.209 168.33 274.069 168.365C273.93 168.4 273.826 168.4 273.687 168.435L272.852 168.574C272.122 168.678 271.426 168.817 270.765 168.922C270.696 168.922 270.696 168.922 270.696 168.922Z" fill="black"/>
<path d="M263.53 170.452C263.496 170.626 263.53 170.87 263.635 171.078C263.809 171.356 264.191 171.461 264.678 171.496" fill="black"/>
<path d="M264.678 171.739C264.052 171.704 263.635 171.53 263.426 171.217C263.287 170.974 263.217 170.696 263.287 170.417C263.322 170.278 263.461 170.174 263.6 170.209C263.739 170.243 263.843 170.383 263.809 170.522C263.774 170.661 263.809 170.835 263.878 170.939C263.982 171.113 264.296 171.217 264.713 171.252C264.852 171.252 264.956 171.391 264.956 171.53C264.922 171.635 264.817 171.739 264.678 171.739Z" fill="black"/>
<path d="M275.948 175.391C275.809 175.391 275.704 175.287 275.704 175.183C275.669 175.043 275.774 174.904 275.913 174.87C276.469 174.8 276.956 174.696 277.478 174.557C278.278 174.348 279.043 174.035 279.809 173.652C280.087 173.513 280.33 173.374 280.609 173.2L280.643 173.165C280.783 173.096 280.922 173.13 280.991 173.235C281.061 173.374 281.026 173.513 280.922 173.583L280.887 173.617C280.609 173.791 280.33 173.93 280.052 174.07C279.287 174.452 278.452 174.765 277.652 175.009C277.13 175.148 276.609 175.252 276.017 175.357C275.983 175.391 275.983 175.391 275.948 175.391Z" fill="black"/>
<path d="M275.948 175.113C275.252 175.217 274.661 175.217 274.174 175.217C273.409 175.878 272.713 176.539 272.156 177.096C271.6 177.652 271.183 178.139 270.8 178.522C270.452 178.035 270.104 177.548 269.756 177.061C270.07 176.713 270.417 176.33 270.835 175.844C270.974 175.67 272.365 174 272.226 173.861C272.122 173.757 271.148 174.487 268.956 176.017C268.539 175.496 268.087 174.939 267.635 174.452C268.678 173.757 269.791 173.026 271.043 172.157C270.522 172.435 269.722 172.852 268.678 173.374C268.122 173.652 267.67 173.861 267.252 174.035C266.765 173.513 266.313 173.026 265.791 172.504C266.939 171.983 269.27 170.939 270.209 170.417C269.791 170.522 269.2 170.696 268.47 170.87C267.009 171.183 265.652 171.496 264.713 171.461C264.33 171.113 263.948 170.765 263.565 170.452C263.565 170.417 263.565 170.383 263.6 170.348C263.843 169.652 265.061 169.513 265.548 169.444C266.73 169.304 268.504 169.026 270.73 168.678C272.609 170.661 274.383 172.817 275.948 175.113Z" fill="black"/>
<path d="M267.217 174.035C264.852 175.078 264.33 174.974 264.052 174.765C263.809 174.557 263.739 174.174 263.774 173.896C263.878 173.443 264.365 173.165 265.339 172.713C265.443 172.678 265.582 172.609 265.722 172.539C266.243 173.026 266.73 173.513 267.217 174.035Z" fill="black"/>
<path d="M268.922 176.017C268.782 176.122 268.643 176.191 268.504 176.296C267.53 176.956 266.8 177.443 266.278 177.165C265.965 176.991 265.826 176.609 265.826 176.296C265.826 175.6 266.591 175.113 267.078 174.765C267.252 174.661 267.391 174.556 267.565 174.452C268.052 174.974 268.469 175.496 268.922 176.017Z" fill="black"/>
<path d="M270.8 178.557C270.174 179.217 269.722 179.565 269.269 179.461C268.991 179.391 268.748 179.148 268.678 178.904C268.539 178.417 268.956 177.965 269.722 177.096C270.104 177.583 270.452 178.07 270.8 178.557Z" fill="black"/>
<path d="M280.887 169.409C280.852 169.409 280.817 169.409 280.783 169.374L280.47 169.235C276.365 167.6 273.096 166.383 271.983 166.104C271.009 165.861 270.73 166.07 270.661 166.139C270.591 166.209 270.591 166.313 270.557 166.348C270.522 166.661 271.53 167.357 273.513 168.017C273.652 168.052 273.722 168.226 273.687 168.33C273.652 168.47 273.478 168.539 273.374 168.504C271.809 167.983 270 167.183 270.07 166.313C270.07 166.243 270.104 166 270.278 165.791C270.591 165.443 271.217 165.374 272.122 165.617C273.27 165.93 276.539 167.113 280.678 168.783L280.991 168.922C281.13 168.991 281.2 169.13 281.13 169.27C281.096 169.339 280.991 169.409 280.887 169.409Z" fill="black"/>
<path d="M280.887 169.13C280.852 170.556 280.782 171.983 280.748 173.443C280.504 173.583 280.226 173.756 279.913 173.896L280.574 169.026C280.678 169.061 280.782 169.096 280.887 169.13Z" fill="black"/>
<path fill-rule="evenodd" clip-rule="evenodd" d="M329.13 205.757C329.165 205.861 329.269 205.93 329.374 205.93H329.478C330.452 205.583 342.348 201.513 350.765 198.661L359.043 195.843C359.113 195.809 359.148 195.774 359.182 195.704C359.217 195.635 359.217 195.565 359.182 195.496C356.226 188.922 352.504 182.73 348.156 177.061L347.948 176.783C341.617 168.504 332.922 157.165 324.608 158.8C322.487 159.217 319.53 161.861 313.617 167.148L313.617 167.148L313.582 167.183C310.695 169.722 307.878 172.435 305.2 175.183C297.095 173.096 289.026 171.009 280.922 168.887C280.852 168.852 280.782 168.887 280.713 168.922C280.643 168.991 280.608 169.061 280.608 169.13L280.435 178.452C280.435 178.557 280.469 178.661 280.574 178.696C285.235 180.817 290.069 182.87 294.974 184.713L295.495 184.922C301.374 187.148 302.765 187.67 304.817 187.391C309.061 186.8 312.643 183.843 316.435 180.678C317.513 179.809 318.556 178.87 319.53 177.896L329.13 205.757ZM319.704 177.165H319.635C319.6 177.165 319.53 177.2 319.495 177.235C318.417 178.278 317.304 179.322 316.122 180.296C312.365 183.426 308.852 186.348 304.782 186.904C302.835 187.183 301.617 186.73 295.704 184.47L295.182 184.261C290.348 182.417 285.582 180.435 280.956 178.313L281.095 169.478L305.2 175.739C305.269 175.774 305.374 175.739 305.443 175.67C308.156 172.887 310.974 170.174 313.895 167.565L313.93 167.53C319.774 162.313 322.695 159.704 324.678 159.322C332.678 157.757 341.269 168.922 347.53 177.096L347.739 177.374C351.982 182.939 355.635 188.991 358.556 195.426L350.556 198.174C347.998 199.045 345.116 200.028 342.317 200.983C336.403 203 330.859 204.891 329.513 205.339L319.878 177.339C319.878 177.235 319.808 177.2 319.704 177.165Z" fill="black"/>
<path d="M285.443 174.522C285.374 174.522 285.304 174.487 285.235 174.417L282.765 171.6C282.661 171.496 282.696 171.322 282.8 171.217C282.904 171.113 283.078 171.148 283.183 171.252L285.652 174.07C285.756 174.174 285.722 174.348 285.617 174.452C285.583 174.522 285.513 174.522 285.443 174.522Z" fill="black"/>
<path d="M322.348 174.209C322.278 174.209 322.209 174.174 322.139 174.104L319.669 171.287C319.565 171.183 319.6 171.009 319.704 170.904C319.809 170.8 319.982 170.835 320.087 170.939L322.556 173.757C322.661 173.861 322.626 174.035 322.522 174.139C322.487 174.174 322.417 174.209 322.348 174.209Z" fill="black"/>
<path d="M336.365 187.009C336.295 187.009 336.226 186.974 336.156 186.904L333.687 184.087C333.582 183.983 333.617 183.809 333.722 183.704C333.826 183.6 334 183.635 334.104 183.739L336.574 186.557C336.678 186.661 336.643 186.835 336.539 186.939C336.504 186.974 336.435 187.009 336.365 187.009Z" fill="black"/>
<path d="M337.617 197.2C337.548 197.2 337.478 197.165 337.409 197.096L334.939 194.278C334.835 194.174 334.869 194 334.974 193.896C335.078 193.791 335.252 193.826 335.356 193.93L337.826 196.748C337.93 196.852 337.896 197.026 337.791 197.13C337.722 197.165 337.652 197.2 337.617 197.2Z" fill="black"/>
<path d="M324.435 182.939H324.4C324.261 182.904 324.157 182.8 324.191 182.626L324.748 178.939C324.783 178.8 324.922 178.696 325.061 178.73C325.2 178.765 325.304 178.87 325.27 179.043L324.713 182.73C324.678 182.835 324.574 182.939 324.435 182.939Z" fill="black"/>
<path d="M335.356 203.913C335.287 203.913 335.217 203.878 335.148 203.809L333.722 202.174C333.617 202.07 333.652 201.896 333.756 201.791C333.861 201.687 334.035 201.722 334.139 201.826L335.565 203.461C335.67 203.565 335.635 203.739 335.53 203.843C335.461 203.878 335.426 203.913 335.356 203.913Z" fill="black"/>
<path d="M328.226 202.661C328.087 202.661 327.982 202.557 327.982 202.417C327.982 202.278 328.087 202.139 328.226 202.139L329.409 202.07C329.548 202.07 329.687 202.174 329.687 202.313C329.687 202.452 329.582 202.591 329.443 202.591L328.226 202.661C328.261 202.661 328.261 202.661 328.226 202.661Z" fill="black"/>
<path d="M330 175.078C329.93 175.078 329.861 175.044 329.791 174.974L327.322 172.157C327.217 172.052 327.252 171.878 327.356 171.774C327.461 171.67 327.635 171.704 327.739 171.809L330.209 174.626C330.313 174.73 330.278 174.904 330.174 175.009C330.139 175.078 330.069 175.078 330 175.078Z" fill="black"/>
<path d="M335.704 171.148C335.565 171.148 335.426 171.043 335.426 170.87L335.461 167.148C335.461 167.009 335.565 166.904 335.739 166.904C335.878 166.904 335.983 167.009 335.983 167.183L335.948 170.904C335.983 171.009 335.843 171.148 335.704 171.148Z" fill="black"/>
<path d="M350.174 185.026C350.035 185.026 349.93 184.922 349.93 184.817L349.409 181.13C349.374 180.991 349.478 180.852 349.617 180.852C349.756 180.817 349.896 180.922 349.896 181.061L350.417 184.748C350.452 184.887 350.348 185.026 350.209 185.026H350.174Z" fill="black"/>
<path d="M287.843 179.217C287.774 179.217 287.704 179.183 287.635 179.113C287.53 179.009 287.565 178.835 287.67 178.73L290.591 176.4C290.696 176.296 290.87 176.33 290.974 176.435C291.078 176.539 291.043 176.713 290.939 176.817L288.017 179.148C287.948 179.183 287.913 179.217 287.843 179.217Z" fill="black"/>
<path d="M316.4 180.678C316.365 180.678 316.33 180.678 316.261 180.643L314.626 179.704C314.487 179.635 314.452 179.461 314.522 179.357C314.591 179.217 314.765 179.183 314.869 179.252L316.504 180.191C316.643 180.261 316.678 180.435 316.609 180.539C316.574 180.609 316.469 180.678 316.4 180.678Z" fill="black"/>
<path d="M330.765 180.922C330.696 180.922 330.626 180.887 330.556 180.817C330.452 180.713 330.487 180.539 330.591 180.435L333.513 178.104C333.617 178 333.791 178.035 333.896 178.139C334 178.243 333.965 178.417 333.861 178.522L330.939 180.852C330.869 180.887 330.8 180.922 330.765 180.922Z" fill="black"/>
<path d="M344.226 199.774C344.156 199.774 344.087 199.739 344.017 199.67C343.913 199.565 343.948 199.391 344.052 199.287L346.974 196.956C347.078 196.852 347.252 196.887 347.356 196.991C347.461 197.096 347.426 197.27 347.322 197.374L344.4 199.704C344.33 199.774 344.261 199.774 344.226 199.774Z" fill="black"/>
<path d="M344.956 193.27C344.852 193.27 344.748 193.2 344.713 193.061C344.678 192.922 344.748 192.783 344.887 192.748L348.504 191.774C348.643 191.739 348.783 191.809 348.817 191.948C348.852 192.087 348.783 192.226 348.643 192.261L345.026 193.235C344.991 193.27 344.991 193.27 344.956 193.27Z" fill="black"/>
<path d="M342 190.417H341.965C341.826 190.383 341.722 190.243 341.756 190.104L342.417 186.417C342.452 186.278 342.591 186.174 342.73 186.209C342.87 186.243 342.974 186.383 342.939 186.522L342.278 190.209C342.243 190.348 342.139 190.417 342 190.417Z" fill="black"/>
<path d="M309.93 177.617C309.861 177.617 309.791 177.583 309.722 177.513C309.617 177.409 309.652 177.235 309.756 177.13L312.678 174.8C312.783 174.696 312.956 174.73 313.061 174.835C313.165 174.939 313.13 175.113 313.026 175.217L310.104 177.548C310.035 177.583 310 177.617 309.93 177.617Z" fill="black"/>
<path d="M325.513 190.591C325.443 190.591 325.374 190.557 325.304 190.487C325.2 190.383 325.235 190.209 325.339 190.104L328.261 187.774C328.365 187.67 328.539 187.704 328.643 187.809C328.748 187.913 328.713 188.087 328.609 188.191L325.687 190.522C325.652 190.591 325.582 190.591 325.513 190.591Z" fill="black"/>
<path d="M293.339 184.087C293.2 184.087 293.061 183.948 293.061 183.809L293.13 181.583C293.13 181.443 293.269 181.304 293.409 181.339C293.548 181.339 293.652 181.478 293.652 181.617L293.583 183.843C293.617 183.983 293.478 184.087 293.339 184.087Z" fill="black"/>
<path d="M299.6 181.548C299.496 181.548 299.391 181.478 299.357 181.374L298.243 177.791C298.209 177.652 298.278 177.513 298.417 177.478C298.557 177.444 298.696 177.513 298.73 177.652L299.843 181.235C299.878 181.374 299.809 181.513 299.67 181.548C299.67 181.513 299.635 181.548 299.6 181.548Z" fill="black"/>
<path d="M303.009 185.548C302.939 185.548 302.869 185.513 302.8 185.443C302.695 185.339 302.73 185.165 302.835 185.061L305.756 182.73C305.861 182.626 306.035 182.661 306.139 182.765C306.243 182.87 306.209 183.043 306.104 183.148L303.182 185.478C303.113 185.513 303.043 185.548 303.009 185.548Z" fill="black"/>
<path d="M295.461 175.53C295.322 175.53 295.217 175.426 295.217 175.287L294.974 172.887C294.974 172.748 295.078 172.609 295.217 172.609C295.356 172.609 295.496 172.713 295.496 172.852L295.739 175.252C295.704 175.391 295.6 175.53 295.461 175.53Z" fill="black"/>
<path d="M304.469 177.548C304.435 177.548 304.435 177.548 304.4 177.548C304.261 177.513 304.191 177.374 304.226 177.235L304.748 175.357C304.782 175.217 304.922 175.148 305.061 175.183C305.2 175.217 305.269 175.357 305.235 175.496L304.713 177.374C304.678 177.478 304.574 177.548 304.469 177.548Z" fill="black"/>
<path d="M323.148 165.617C323.113 165.617 323.078 165.617 323.078 165.617L319.565 164.4C319.426 164.365 319.356 164.191 319.391 164.052C319.426 163.913 319.6 163.843 319.739 163.878L323.252 165.096C323.391 165.13 323.461 165.304 323.426 165.443C323.356 165.583 323.252 165.617 323.148 165.617Z" fill="black"/>
<path d="M314.73 171.809C314.591 171.809 314.487 171.704 314.487 171.565L314.139 167.844C314.139 167.704 314.243 167.565 314.382 167.565C314.522 167.565 314.661 167.67 314.661 167.809L315.008 171.53C315.008 171.67 314.904 171.809 314.73 171.809C314.765 171.809 314.765 171.809 314.73 171.809Z" fill="black"/>
<path d="M329.687 197.2C329.548 197.2 329.443 197.096 329.443 196.957L329.095 193.235C329.095 193.096 329.2 192.957 329.339 192.957C329.478 192.957 329.617 193.061 329.617 193.2L329.965 196.922C329.965 197.061 329.861 197.2 329.687 197.2C329.687 197.2 329.722 197.2 329.687 197.2Z" fill="black"/>
<path d="M327.948 167.461C327.878 167.461 327.809 167.426 327.739 167.357C327.635 167.252 327.669 167.078 327.774 166.974L330.591 164.504C330.696 164.4 330.869 164.435 330.974 164.539C331.078 164.643 331.043 164.817 330.939 164.922L328.122 167.391C328.052 167.461 327.983 167.461 327.948 167.461Z" fill="black"/>
<path d="M346.139 182.383C346.07 182.383 346 182.348 345.93 182.278L343.565 179.357C343.461 179.252 343.496 179.078 343.6 178.974C343.704 178.87 343.878 178.904 343.983 179.009L346.348 181.93C346.452 182.035 346.417 182.209 346.313 182.313C346.243 182.348 346.174 182.383 346.139 182.383Z" fill="black"/>
<path d="M353.478 189.2C353.339 189.2 353.235 189.096 353.235 188.991C353.2 188.852 353.304 188.713 353.443 188.678L355.391 188.365C355.53 188.33 355.67 188.435 355.704 188.574C355.739 188.713 355.635 188.852 355.496 188.887L353.548 189.2C353.513 189.2 353.513 189.2 353.478 189.2Z" fill="black"/>
<path d="M339.078 178.243C339.043 178.243 339.043 178.243 339.009 178.243C338.87 178.209 338.8 178.07 338.835 177.93L339.774 174.313C339.809 174.174 339.948 174.104 340.087 174.139C340.226 174.174 340.296 174.313 340.261 174.452L339.322 178.07C339.287 178.174 339.183 178.243 339.078 178.243Z" fill="black"/>
<path d="M354.139 197.478C354 197.478 353.896 197.374 353.896 197.235L353.548 193.687C353.548 193.548 353.652 193.409 353.791 193.409C353.93 193.409 354.07 193.513 354.07 193.652L354.417 197.2C354.417 197.339 354.313 197.478 354.139 197.478C354.139 197.478 354.174 197.478 354.139 197.478Z" fill="black"/>
<path d="M328.365 161.026C328.226 161.026 328.122 160.922 328.122 160.783L327.982 159.148C327.982 159.009 328.087 158.87 328.226 158.87C328.365 158.87 328.504 158.974 328.504 159.113L328.643 160.748C328.643 160.887 328.539 161.026 328.365 161.026C328.4 161.026 328.4 161.026 328.365 161.026Z" fill="black"/>
<path d="M341.617 170.591C341.583 170.591 341.583 170.591 341.548 170.591C341.409 170.557 341.339 170.417 341.374 170.278L341.617 169.443C341.652 169.304 341.791 169.235 341.93 169.27C342.07 169.304 342.139 169.443 342.104 169.583L341.861 170.417C341.826 170.522 341.722 170.591 341.617 170.591Z" fill="black"/>
</g>
</svg>
