<svg width="51" height="52" viewBox="0 0 51 52" fill="none" xmlns="http://www.w3.org/2000/svg">
<path fill-rule="evenodd" clip-rule="evenodd" d="M27.0196 15.5741C26.1469 11.5595 25.8227 11.2104 21.7832 10.3377C21.11 10.1881 20.6113 9.58966 20.6113 8.86654C20.6113 8.14342 21.085 7.54498 21.7832 7.39537C25.7978 6.52264 26.1469 6.19849 27.0196 2.15901C27.1692 1.48576 27.7676 0.987061 28.4908 0.987061C29.2139 0.987061 29.8123 1.48576 29.9619 2.15901C30.8346 6.17355 31.1588 6.52264 35.1983 7.39537C35.8715 7.54498 36.3702 8.14342 36.3702 8.86654C36.3702 9.58966 35.8965 10.1881 35.1983 10.3377C31.1837 11.2104 30.8346 11.5346 29.9619 15.5741C29.8123 16.2473 29.2139 16.746 28.4908 16.746C27.7676 16.746 27.1692 16.2723 27.0196 15.5741ZM30.311 8.89148C29.538 8.41771 28.9645 7.8442 28.4908 7.07122C28.0419 7.8442 27.4684 8.41771 26.6705 8.89148C27.4435 9.36524 28.017 9.93875 28.4908 10.7117C28.9645 9.93875 29.538 9.36524 30.311 8.89148ZM40.1604 36.4699C37.6918 37.6419 35.0487 38.2154 32.2809 38.2154C21.9328 38.2154 13.5298 29.8122 13.5298 19.4891C13.5298 16.6964 14.1282 14.0283 15.2752 11.5597C15.5495 10.9862 15.4248 10.313 14.976 9.86414C14.5272 9.41531 13.8539 9.29064 13.2804 9.56492C5.65031 13.1556 0.688232 20.8854 0.688232 29.2886C0.688232 41.2824 10.4378 51.032 22.4315 51.032C30.8845 51.032 38.6144 46.0948 42.1302 38.4398C42.4045 37.8663 42.2798 37.193 41.831 36.7442C41.4071 36.3203 40.7339 36.1956 40.1604 36.4699ZM22.4565 48.0398C12.1085 48.0398 3.70538 39.6367 3.70538 29.2886C3.70538 23.379 6.52304 17.8683 11.136 14.3525C10.7371 16.0231 10.5376 17.7436 10.5376 19.4891C10.5376 31.458 20.2872 41.2076 32.2809 41.2076C34.0263 41.2076 35.7469 41.0081 37.3926 40.6091C33.9017 45.2221 28.391 48.0398 22.4565 48.0398ZM49.137 22.7055C44.0253 21.6084 43.4767 21.0349 42.3546 15.9232C42.205 15.225 41.6066 14.7513 40.8835 14.7513C40.1604 14.7513 39.5619 15.25 39.4123 15.9232C38.3152 21.0349 37.7417 21.5834 32.63 22.7055C31.9318 22.8551 31.458 23.4536 31.458 24.1767C31.458 24.8998 31.9567 25.4982 32.63 25.6478C37.7417 26.745 38.2902 27.3185 39.4123 32.4302C39.5619 33.1284 40.1604 33.6021 40.8835 33.6021C41.6066 33.6021 42.205 33.1034 42.3546 32.4302C43.4518 27.3185 44.0253 26.7699 49.137 25.6478C49.8352 25.4982 50.3089 24.8998 50.3089 24.1767C50.3089 23.4536 49.8352 22.8551 49.137 22.7055ZM40.9084 27.119C40.2102 25.7476 39.3126 24.8499 37.9411 24.1517C39.3126 23.4536 40.2102 22.5559 40.9084 21.1845C41.6066 22.5559 42.5043 23.4536 43.8757 24.1517C42.5043 24.8499 41.6066 25.7725 40.9084 27.119Z" fill="#FF735A"/>
</svg>
