<svg width="24" height="24" viewBox="0 0 24 24" fill="none" xmlns="http://www.w3.org/2000/svg">
<path d="M20.4853 3.51471C18.2188 1.24823 15.2053 0 12 0C9.56104 0 7.21289 0.72821 5.20935 2.10571C4.99603 2.25256 4.94202 2.54425 5.08868 2.75757C5.23535 2.97107 5.52722 3.0249 5.74054 2.87842C7.58716 1.60858 9.75165 0.9375 12 0.9375C18.0998 0.9375 23.0625 5.90021 23.0625 12C23.0625 18.0998 18.0998 23.0625 12 23.0625C5.90021 23.0625 0.9375 18.0998 0.9375 12C0.9375 9.75128 1.60858 7.58698 2.87805 5.74091C3.02472 5.52759 2.9707 5.23572 2.75739 5.08905C2.54425 4.94238 2.25238 4.9964 2.10553 5.20953C0.728027 7.21271 0 9.56085 0 12C0 15.2053 1.24823 18.2188 3.51471 20.4853C5.78119 22.7518 8.79474 24 12 24C15.2053 24 18.2188 22.7518 20.4853 20.4853C22.7518 18.2188 24 15.2053 24 12C24 8.79474 22.7518 5.78119 20.4853 3.51471Z" fill="#FF735A"/>
<path d="M7.44969 17.3373C7.26677 17.5204 7.26677 17.8173 7.44969 18.0004C7.6328 18.1833 7.92961 18.1833 8.11272 18.0004C9.15111 16.962 10.5317 16.3901 12 16.3901C13.4686 16.3901 14.8492 16.962 15.8876 18.0004C15.9791 18.0919 16.099 18.1375 16.219 18.1375C16.3389 18.1375 16.4588 18.0919 16.5504 18.0004C16.7335 17.8173 16.7335 17.5204 16.5504 17.3373C15.3349 16.1219 13.719 15.4526 12 15.4526C10.2812 15.4526 8.66515 16.1219 7.44969 17.3373Z" fill="#009691"/>
<path d="M8.24976 12.9375C8.76666 12.9375 9.18726 12.5169 9.18726 12C9.18726 11.4831 8.76666 11.0625 8.24976 11.0625C7.73285 11.0625 7.31226 11.4831 7.31226 12C7.31226 12.5169 7.73285 12.9375 8.24976 12.9375Z" fill="#009691"/>
<path d="M14.8127 12C14.8127 12.5169 15.2333 12.9375 15.7502 12.9375C16.2672 12.9375 16.6877 12.5169 16.6877 12C16.6877 11.4831 16.2672 11.0625 15.7502 11.0625C15.2333 11.0625 14.8127 11.4831 14.8127 12Z" fill="#009691"/>
<path d="M9.66215 8.30066C9.2335 8.54822 8.74516 8.67914 8.24986 8.67914C7.75474 8.67914 7.2664 8.54822 6.83775 8.30066C6.61345 8.17121 6.3267 8.24811 6.19743 8.47223C6.06797 8.69654 6.1447 8.9831 6.369 9.11255C6.94011 9.44232 7.5905 9.61664 8.24986 9.61664C8.90941 9.61664 9.5598 9.44232 10.1309 9.11255C10.3552 8.9831 10.4319 8.69654 10.3025 8.47223C10.173 8.24811 9.88646 8.17121 9.66215 8.30066Z" fill="#009691"/>
<path d="M17.8029 8.47223C17.6734 8.24811 17.3867 8.17121 17.1625 8.30066C16.7337 8.54822 16.2454 8.67914 15.7502 8.67914C15.2549 8.67914 14.7668 8.54822 14.338 8.30066C14.1138 8.17121 13.8271 8.24811 13.6976 8.47223C13.5682 8.69654 13.6451 8.9831 13.8692 9.11255C14.4403 9.44232 15.0907 9.61664 15.7502 9.61664C16.4096 9.61664 17.0602 9.44232 17.6313 9.11255C17.8554 8.9831 17.9323 8.69654 17.8029 8.47223Z" fill="#009691"/>
<path d="M3.84607 4.31484C3.95922 4.31484 4.07293 4.27419 4.16284 4.19161C4.35363 4.01674 4.36663 3.7203 4.19159 3.52932C4.0169 3.3387 3.72027 3.3257 3.52948 3.50057L3.52911 3.50094C3.33831 3.6758 3.3255 3.97225 3.50055 4.16304C3.59283 4.26375 3.71917 4.31484 3.84607 4.31484Z" fill="#009691"/>
</svg>
