<svg width="48" height="48" viewBox="0 0 48 48" fill="none" xmlns="http://www.w3.org/2000/svg">
<path fill-rule="evenodd" clip-rule="evenodd" d="M23.9964 3.87926C25.0671 3.88148 25.9374 3.01503 25.9395 1.94385C25.9419 0.872705 25.0752 0.00222826 24.0045 8.26898e-06C22.9329 -0.00218172 22.0629 0.864275 22.0605 1.93581C22.0584 3.0066 22.9248 3.87707 23.9964 3.87926ZM13.9361 6.57713C14.8651 6.04319 15.1852 4.85777 14.6516 3.92906C14.1181 2.99997 12.9323 2.6799 12.0036 3.21348C11.0749 3.74706 10.7544 4.93283 11.288 5.86154C11.8219 6.79025 13.0073 7.11031 13.9361 6.57713ZM6.57274 13.9431C6.03514 14.8696 4.84861 15.1853 3.92209 14.6477C2.99557 14.1101 2.67991 12.9232 3.21751 11.9967C3.75511 11.0702 4.942 10.7549 5.86852 11.2925C6.79501 11.8301 7.11034 13.0166 6.57274 13.9431ZM3.87928 24.0043C3.8815 22.9327 3.01504 22.0627 1.94386 22.0606C0.872708 22.0582 0.00222827 22.9249 8.26901e-06 23.9962C-0.00218173 25.0672 0.864278 25.9372 1.93582 25.9393C3.00661 25.942 3.87709 25.0753 3.87928 24.0043ZM3.21349 35.9967C2.67991 35.0676 2.99998 33.8826 3.92905 33.3486C4.85776 32.8152 6.04321 33.1356 6.57712 34.0644C7.1107 34.9929 6.79027 36.1788 5.86156 36.7119C4.93285 37.2459 3.74707 36.9255 3.21349 35.9967ZM13.9432 41.427C13.0167 40.8897 11.8301 41.205 11.2925 42.1314C10.7549 43.0581 11.0702 44.2449 11.9968 44.7825C12.9233 45.3198 14.1102 45.0048 14.6478 44.0784C15.1854 43.1517 14.8697 41.9646 13.9432 41.427ZM22.0605 46.0563C22.0629 44.9853 22.9329 44.1189 24.0045 44.121C25.0752 44.1231 25.9419 44.9934 25.9395 46.0647C25.9374 47.1357 25.0671 48.0021 23.9964 48C22.9248 47.9976 22.0584 47.1276 22.0605 46.0563ZM34.0641 41.4231C33.1353 41.9565 32.8149 43.1421 33.3486 44.0709C33.8826 44.9997 35.0676 45.3201 35.9967 44.7864C36.9252 44.253 37.2456 43.0674 36.7119 42.1389C36.1785 41.2098 34.9929 40.8894 34.0641 41.4231ZM41.427 34.0569C41.9646 33.1305 43.152 32.8155 44.0784 33.3531C45.0048 33.8904 45.3198 35.0772 44.7825 36.0036C44.2449 36.9303 43.0581 37.2459 42.1317 36.7083C41.205 36.1707 40.8897 34.9833 41.427 34.0569ZM46.065 22.0606C44.9934 22.0582 44.1234 22.9249 44.121 23.9962C44.1189 25.0672 44.9853 25.9372 46.0566 25.9393C47.1276 25.942 47.9979 25.0753 48 24.0043C48.0021 22.9327 47.1357 22.0627 46.065 22.0606ZM44.787 12.0039C45.3207 12.9326 45 14.1184 44.0715 14.652C43.1427 15.1855 41.9568 14.8655 41.4237 13.9364C40.8897 13.0077 41.2101 11.8222 42.1392 11.2883C43.068 10.7548 44.2533 11.0752 44.787 12.0039ZM34.0566 6.57272C34.9833 7.11031 36.1704 6.79498 36.708 5.8685C37.2456 4.94198 36.93 3.7551 36.0036 3.2175C35.0769 2.6799 33.8901 2.99556 33.3528 3.92207C32.8152 4.84859 33.1302 6.03512 34.0566 6.57272ZM10.5396 24.001C10.5396 16.5765 16.5783 10.5373 24 10.5373C31.4247 10.5373 37.4637 16.5765 37.4637 24.001C37.4637 31.4226 31.4247 37.4613 24 37.4613C16.5783 37.4613 10.5396 31.4226 10.5396 24.001ZM14.4159 24.001C14.4159 29.2855 18.7155 33.5847 24 33.5847C29.2845 33.5847 33.5874 29.2855 33.5874 24.001C33.5874 18.7165 29.2845 14.4137 24 14.4137C18.7155 14.4137 14.4159 18.7165 14.4159 24.001Z" fill="#FF735A"/>
</svg>
