<svg width="190" height="190" viewBox="0 0 190 190" fill="none" xmlns="http://www.w3.org/2000/svg">
<mask id="mask0" mask-type="alpha" maskUnits="userSpaceOnUse" x="0" y="0" width="190" height="190">
<rect width="190" height="190" fill="white"/>
</mask>
<g mask="url(#mask0)">
<path fill-rule="evenodd" clip-rule="evenodd" d="M5.66301 166.674C5.87666 166.824 6.09031 166.888 6.32532 166.888H6.32532C6.38941 166.888 6.4535 166.888 6.5176 166.866C6.83807 166.824 7.09444 166.653 7.26536 166.397C7.43627 166.141 7.50037 165.864 7.45764 165.544C7.41491 165.224 7.24399 164.967 6.98762 164.797C6.73124 164.626 6.43214 164.562 6.13304 164.605C5.81257 164.647 5.55619 164.818 5.38528 165.074C5.21436 165.33 5.15027 165.608 5.19299 165.928C5.23572 166.248 5.40664 166.504 5.66301 166.674ZM6.17576 164.946C6.21849 164.925 6.28259 164.925 6.32532 164.925C6.49623 164.925 6.64579 164.989 6.79534 165.074C6.98762 165.202 7.09444 165.394 7.13717 165.608C7.1799 165.821 7.13717 166.056 7.00898 166.226C6.8808 166.418 6.68851 166.525 6.47487 166.568C6.26122 166.61 6.02621 166.568 5.8553 166.44C5.66301 166.312 5.55619 166.12 5.51346 165.906C5.47073 165.693 5.51346 165.458 5.64165 165.288C5.76984 165.095 5.96212 164.989 6.17576 164.946Z" fill="black"/>
<path fill-rule="evenodd" clip-rule="evenodd" d="M8.7823 78.8999C8.95322 78.9639 9.12414 78.9853 9.29505 78.9853C10.0428 78.9853 10.7478 78.4946 10.9829 77.7265C11.111 77.2784 11.0683 76.7877 10.8547 76.3823C10.6197 75.977 10.2565 75.6569 9.8078 75.5289C9.35915 75.4009 8.86776 75.4222 8.46183 75.6569C8.05591 75.8916 7.73544 76.2543 7.60725 76.7024C7.32951 77.6411 7.86363 78.6226 8.7823 78.8999ZM8.63275 75.9556C8.82503 75.849 9.06004 75.785 9.29505 75.785C9.42324 75.785 9.57279 75.8063 9.72234 75.849C10.0855 75.977 10.406 76.2117 10.5769 76.553C10.7692 76.8944 10.7906 77.2784 10.6837 77.6411C10.4487 78.4092 9.63688 78.8359 8.88912 78.6012C8.12 78.3666 7.69271 77.5558 7.92772 76.8091C8.05591 76.4464 8.29092 76.1263 8.63275 75.9556Z" fill="black"/>
<path fill-rule="evenodd" clip-rule="evenodd" d="M77.1704 87.8609C77.2558 87.8822 77.3626 87.9035 77.4481 87.9035C77.5977 87.9035 77.7686 87.8609 77.9181 87.7968C78.1531 87.6902 78.3027 87.4768 78.3881 87.2421C78.5377 86.7301 78.26 86.1967 77.7472 86.0473C77.5122 85.962 77.2558 85.9833 77.0208 86.1113C76.7858 86.218 76.6149 86.4314 76.5508 86.6661C76.4653 86.9008 76.4867 87.1568 76.6149 87.3915C76.7217 87.6262 76.9353 87.7755 77.1704 87.8609ZM77.149 86.3887C77.2345 86.3247 77.3413 86.3034 77.4481 86.3034C77.5122 86.3034 77.5763 86.3247 77.6404 86.3674C77.9822 86.474 78.1745 86.8154 78.0677 87.1568C78.0036 87.3275 77.8968 87.4555 77.7472 87.5408C77.5977 87.6262 77.4267 87.6262 77.2558 87.5835C77.0849 87.5195 76.9567 87.4128 76.8713 87.2635C76.7858 87.1141 76.7858 86.9434 76.8285 86.7727C76.8926 86.6021 76.9994 86.474 77.149 86.3887Z" fill="black"/>
<path fill-rule="evenodd" clip-rule="evenodd" d="M4.97944 25.4331C5.0008 25.4544 5.04353 25.4757 5.08626 25.4757C5.12899 25.4757 5.17172 25.4544 5.19308 25.4331L8.35504 22.2754C8.41913 22.2114 8.41913 22.1047 8.35504 22.0407L5.19308 18.8831C5.12899 18.8191 5.02217 18.8191 4.95807 18.8831L1.79612 22.0407C1.73202 22.1047 1.73202 22.2114 1.79612 22.2754L4.97944 25.4331ZM5.0649 25.0704L2.13795 22.1474L5.08626 19.2244L7.99184 22.1474L5.0649 25.0704Z" fill="black"/>
<path fill-rule="evenodd" clip-rule="evenodd" d="M38.3724 141.242C38.3937 141.264 38.4365 141.285 38.4792 141.285C38.5219 141.285 38.5647 141.264 38.6074 141.242L40.3379 139.514C40.3593 139.493 40.3806 139.45 40.3806 139.408C40.3806 139.365 40.3593 139.322 40.3379 139.301L38.6074 137.573C38.5433 137.509 38.4365 137.509 38.3724 137.573L36.6419 139.301C36.6205 139.322 36.5991 139.365 36.5991 139.408C36.5991 139.45 36.6205 139.493 36.6419 139.514L38.3724 141.242ZM38.5006 140.901L36.9837 139.386L38.5006 137.871L40.0175 139.386L38.5006 140.901Z" fill="black"/>
<path fill-rule="evenodd" clip-rule="evenodd" d="M115.755 90.9332C115.776 90.9545 115.819 90.9545 115.84 90.9545C115.905 90.9545 115.947 90.9332 115.969 90.8905L117.101 89.2477C117.144 89.1837 117.122 89.077 117.058 89.0343L115.413 87.9035C115.349 87.8609 115.242 87.8822 115.199 87.9462L114.067 89.5891C114.024 89.6531 114.046 89.7597 114.11 89.8024L115.755 90.9332ZM115.798 90.5705L114.409 89.6317L115.349 88.2449L116.738 89.1837L115.798 90.5705Z" fill="black"/>
<path fill-rule="evenodd" clip-rule="evenodd" d="M79.1787 52.9772L81.3579 54.4707C81.3793 54.4921 81.422 54.4921 81.4434 54.4921C81.4861 54.4921 81.5288 54.4707 81.5716 54.4494L83.0671 52.2732C83.0884 52.2305 83.0884 52.1878 83.0884 52.1452C83.0884 52.1025 83.0671 52.0598 83.0244 52.0385L80.8452 50.545C80.7811 50.5023 80.6742 50.5237 80.6315 50.5877L79.136 52.7639C79.0933 52.8279 79.1146 52.9346 79.1787 52.9772ZM81.4006 54.108L79.4778 52.8066L80.7811 50.8864L82.7039 52.1878L81.4006 54.108Z" fill="black"/>
<path fill-rule="evenodd" clip-rule="evenodd" d="M183.331 37.189H183.352C183.374 37.189 183.416 37.1676 183.459 37.1463L186.066 35.4181C186.13 35.3754 186.151 35.2688 186.108 35.2048L184.378 32.6018C184.356 32.5805 184.314 32.5378 184.271 32.5378C184.228 32.5378 184.185 32.5378 184.143 32.5591L181.536 34.2873C181.515 34.3087 181.472 34.3513 181.472 34.394C181.472 34.4367 181.472 34.4793 181.494 34.522L183.224 37.125C183.245 37.1463 183.288 37.189 183.331 37.189ZM183.395 36.8049L181.835 34.458L184.185 32.9005L185.745 35.2474L183.395 36.8049Z" fill="black"/>
<path fill-rule="evenodd" clip-rule="evenodd" d="M180.575 147.707H180.596C180.639 147.707 180.66 147.686 180.703 147.643L183.694 145.403C183.758 145.36 183.758 145.253 183.715 145.189L181.472 142.202C181.429 142.138 181.322 142.138 181.258 142.181L178.267 144.421C178.225 144.443 178.203 144.485 178.203 144.528C178.182 144.571 178.203 144.613 178.225 144.656L180.468 147.643C180.489 147.686 180.532 147.707 180.575 147.707ZM180.639 147.323L178.588 144.592L181.322 142.544L183.373 145.275L180.639 147.323Z" fill="black"/>
<path d="M169.957 51.1851C169.893 51.1851 169.829 51.1424 169.807 51.0997L167.714 46.3632C167.671 46.2779 167.714 46.1926 167.799 46.1499C167.884 46.1072 167.97 46.1499 168.013 46.2352L170.106 50.9717C170.149 51.0571 170.106 51.1424 170.021 51.1851C170 51.1851 169.978 51.1851 169.957 51.1851Z" fill="black"/>
<path d="M104.538 58.0551C104.517 58.0551 104.496 58.0551 104.474 58.0338C104.389 57.9911 104.346 57.9057 104.389 57.8204L106.269 52.9986C106.312 52.9132 106.397 52.8706 106.483 52.9132C106.568 52.9559 106.611 53.0412 106.568 53.1266L104.688 57.9484C104.667 58.0338 104.602 58.0551 104.538 58.0551Z" fill="black"/>
<path d="M105.478 170.387C105.414 170.387 105.329 170.344 105.329 170.259C105.307 170.173 105.372 170.088 105.457 170.067L110.499 168.957C110.585 168.936 110.67 169 110.691 169.085C110.713 169.171 110.649 169.256 110.563 169.277L105.521 170.387C105.5 170.387 105.5 170.387 105.478 170.387Z" fill="black"/>
<path d="M85.8869 29.7215C85.8656 29.7215 85.8228 29.7215 85.8015 29.7002C85.7374 29.6575 85.6947 29.5508 85.7588 29.4868L88.5361 25.1344C88.5789 25.0704 88.6857 25.0277 88.7498 25.0917C88.8139 25.1344 88.8566 25.241 88.7925 25.305L86.0151 29.6575C85.9938 29.6788 85.951 29.7215 85.8869 29.7215Z" fill="black"/>
<path d="M137.205 41.0934C137.183 41.0934 137.141 41.0934 137.119 41.072C137.055 41.0294 137.013 40.9227 137.077 40.8587L139.854 36.5062C139.897 36.4422 140.004 36.3995 140.068 36.4635C140.132 36.5062 140.174 36.6129 140.11 36.6769L137.333 41.0294C137.312 41.072 137.248 41.0934 137.205 41.0934Z" fill="black"/>
<path d="M42.8803 20.3765C42.8162 20.3765 42.7521 20.3339 42.7307 20.2699L40.9147 15.4267C40.8934 15.3414 40.9361 15.256 41.0002 15.2133C41.0857 15.192 41.1711 15.2347 41.2138 15.2987L43.0298 20.1419C43.0512 20.2272 43.0085 20.3125 42.9444 20.3552C42.923 20.3765 42.9016 20.3765 42.8803 20.3765Z" fill="black"/>
<path d="M75.0767 155.857C75.0339 155.857 74.9912 155.836 74.9699 155.815L71.2097 152.273C71.1456 152.209 71.1456 152.102 71.2097 152.038C71.2738 151.974 71.3806 151.974 71.4447 152.038L75.2049 155.58C75.269 155.644 75.269 155.751 75.2049 155.815C75.1621 155.836 75.1194 155.857 75.0767 155.857Z" fill="black"/>
<path d="M66.0823 119.672C66.061 119.672 66.0396 119.672 66.0182 119.651C65.9328 119.608 65.89 119.523 65.9328 119.437L67.9624 114.68C68.0051 114.594 68.0906 114.552 68.1761 114.594C68.2615 114.637 68.3042 114.722 68.2615 114.808L66.2319 119.565C66.1892 119.651 66.1251 119.672 66.0823 119.672Z" fill="black"/>
<path d="M114.195 147.195C114.11 147.195 114.046 147.152 114.046 147.067L113.042 141.989C113.02 141.904 113.084 141.818 113.17 141.797C113.255 141.776 113.341 141.84 113.362 141.925L114.366 147.003C114.388 147.088 114.324 147.174 114.238 147.195C114.217 147.195 114.217 147.195 114.195 147.195Z" fill="black"/>
<path d="M150.366 152.55C150.323 152.55 150.302 152.529 150.259 152.508C150.195 152.444 150.173 152.358 150.237 152.273L153.442 148.219C153.506 148.155 153.592 148.134 153.677 148.198C153.741 148.262 153.763 148.347 153.698 148.432L150.494 152.486C150.451 152.529 150.408 152.55 150.366 152.55Z" fill="black"/>
<path d="M177.776 171.859C177.733 171.859 177.691 171.838 177.648 171.795L174.464 167.72C174.4 167.656 174.422 167.549 174.486 167.485C174.55 167.421 174.657 167.442 174.721 167.506L177.904 171.582C177.968 171.646 177.947 171.752 177.883 171.816C177.84 171.859 177.819 171.859 177.776 171.859Z" fill="black"/>
<path d="M97.7661 108.684C97.7233 108.684 97.6593 108.663 97.6379 108.62L94.5828 104.46C94.54 104.396 94.54 104.289 94.6255 104.247C94.6896 104.204 94.7964 104.204 94.8391 104.289L97.8943 108.45C97.937 108.514 97.937 108.62 97.8515 108.663C97.8302 108.684 97.8088 108.684 97.7661 108.684Z" fill="black"/>
<path d="M10.3633 106.978C10.3419 106.978 10.3206 106.978 10.2778 106.956C10.1924 106.914 10.171 106.807 10.2137 106.743L12.692 102.198C12.7348 102.113 12.8416 102.092 12.9057 102.134C12.9911 102.177 13.0125 102.284 12.9698 102.348L10.4915 106.892C10.4701 106.935 10.4274 106.978 10.3633 106.978Z" fill="black"/>
<path d="M13.6535 144.144C13.6108 144.144 13.5894 144.144 13.5467 144.101L9.42335 140.965C9.35925 140.901 9.33789 140.816 9.40198 140.73C9.46607 140.666 9.55153 140.645 9.63699 140.709L13.7604 143.867C13.8244 143.931 13.8458 144.016 13.7817 144.101C13.7604 144.123 13.7176 144.144 13.6535 144.144Z" fill="black"/>
<path d="M-1.00256 53.8093C-1.06665 53.8093 -1.15211 53.7667 -1.15211 53.6813C-1.17347 53.596 -1.10938 53.5106 -1.02392 53.4893L4.01812 52.3372C4.10357 52.3158 4.18903 52.3798 4.2104 52.4652C4.23176 52.5505 4.16767 52.6359 4.08221 52.6572L-0.959828 53.8093C-0.981193 53.8093 -1.00256 53.8093 -1.00256 53.8093Z" fill="black"/>
<path d="M40.2737 55.0468C40.231 55.0468 40.1882 55.0255 40.1669 55.0041L36.4494 51.4198C36.3853 51.3557 36.3853 51.2491 36.4494 51.1851C36.5135 51.1211 36.6204 51.1211 36.6844 51.1851L40.4019 54.7694C40.466 54.8334 40.466 54.9401 40.4019 55.0041C40.3592 55.0255 40.3164 55.0468 40.2737 55.0468Z" fill="black"/>
<path d="M55.0581 91.4239C55.0154 91.4239 54.9726 91.4026 54.9299 91.3599L51.7252 87.3061C51.6611 87.2421 51.6825 87.1355 51.7466 87.0715C51.8107 87.0074 51.9175 87.0288 51.9816 87.0928L55.1863 91.1465C55.2504 91.2105 55.229 91.3172 55.1649 91.3812C55.1222 91.4239 55.1008 91.4239 55.0581 91.4239Z" fill="black"/>
<path d="M182.989 114.509C182.946 114.509 182.925 114.488 182.882 114.466L178.844 111.245C178.78 111.181 178.759 111.095 178.823 111.01C178.887 110.946 178.972 110.925 179.058 110.989L183.096 114.21C183.16 114.274 183.181 114.36 183.117 114.445C183.096 114.488 183.032 114.509 182.989 114.509Z" fill="black"/>
<path d="M190.146 72.7766C190.082 72.7766 190.039 72.7553 190.018 72.6913C189.975 72.606 189.997 72.5206 190.082 72.4779L194.547 69.8537C194.633 69.811 194.718 69.8323 194.761 69.9177C194.804 70.003 194.782 70.0884 194.697 70.131L190.232 72.7553C190.21 72.7766 190.167 72.7766 190.146 72.7766Z" fill="black"/>
<path d="M67.0506 162.578C62.5887 162.557 53.6862 162.664 50.9962 162.664C50.8894 162.664 47.5804 162.642 46.8545 162.642C47.1107 160.442 47.3455 158.22 47.6017 156.019C47.1961 156.04 46.8118 156.04 46.4062 156.062C46.6196 151.105 47.2815 133.585 47.4096 129.761C45.9365 127.86 38.9554 118.309 37.1194 115.596C36.2868 129.163 35.4755 142.73 34.6429 156.318C34.3227 156.34 33.8103 156.361 33.1912 156.404C33.5114 156.681 33.8316 156.916 34.1305 157.13C34.3867 157.28 34.9418 157.6 36.116 157.963C38.6138 158.754 39.4678 158.369 40.6633 158.882C41.5599 159.267 42.7128 160.164 43.6094 162.621C39.1475 162.6 30.245 162.706 27.555 162.706C27.4483 162.706 24.1392 162.685 23.4133 162.685C23.6268 160.698 23.2425 124.356 22.8369 106.516C25.9325 106.281 46.15 104.7 46.705 104.657C47.7511 106.366 48.968 108.353 50.2703 110.575C57.5717 122.903 58.3616 126.022 58.7032 128.501C58.7032 128.501 58.7459 128.757 58.7672 128.992C59.2796 134.291 58.2762 140.572 58.2762 140.572C57.9986 142.751 57.6784 144.973 57.3795 147.195C56.9525 150.122 56.5256 153.028 56.0772 155.87C56.611 156.404 57.1233 156.831 57.593 157.13C57.8492 157.28 58.4043 157.6 59.5785 157.963C62.0763 158.754 62.9303 158.369 64.1258 158.882C65.0011 159.224 66.1753 160.121 67.0506 162.578Z" fill="black"/>
<path d="M64.1043 56.4352C64.083 56.9693 64.0403 57.5676 63.9976 58.2513C63.8909 59.7682 63.6987 61.6056 63.3571 63.6781C63.2931 64.1054 63.2077 64.5327 63.1223 64.9813C62.9729 65.7291 62.8448 66.4556 62.7167 67.1179C61.756 72.0319 60.9874 74.959 58.5323 77.2237C57.23 78.4202 55.1591 79.3175 50.9747 81.0481C48.3702 82.1377 46.1712 82.9069 44.6127 83.3983C45.0397 87.7141 45.4667 92.0299 45.8937 96.3457C46.1712 99.0805 46.4274 101.815 46.7049 104.55C45.4027 104.593 38.998 105.02 34.8563 105.405C30.0101 105.853 25.5695 106.216 22.8368 106.43C22.7728 106.43 22.4952 106.452 22.4312 106.452C21.9188 101.238 21.0649 92.2222 20.2963 83.8256C19.6772 77.0741 19.1007 70.7073 18.8232 67.0965C18.7592 66.2846 18.6951 65.6223 18.6738 65.1095C18.6524 64.7036 18.6097 64.2122 18.5884 63.6353C18.5243 62.2252 18.5457 60.3451 19.0154 58.2085C19.1221 57.7599 19.2288 57.2898 19.3783 56.8198C19.7626 55.5592 20.2536 54.4696 21.6199 52.269C22.2604 51.2434 23.0717 50.0042 24.1604 48.3805C24.4807 47.9104 24.8009 47.419 25.1852 46.8849C25.2492 46.7781 25.3346 46.6712 25.3987 46.5644C26.4234 45.0688 27.5976 43.3596 28.9426 41.4795C29.2842 41.0094 29.6258 40.5394 29.9674 40.048C30.0314 40.0907 30.1382 40.1334 30.2236 40.1975C31.2056 40.753 33.618 42.1845 35.0057 43.0391C35.1765 43.146 35.326 43.2314 35.4754 43.3169C35.6248 43.4023 35.7316 43.4878 35.817 43.5305C35.7316 43.6587 35.6675 43.7869 35.5821 43.9365C35.1338 44.727 34.6001 45.603 34.0664 46.5217C34.0023 46.6285 33.9383 46.7353 33.8742 46.8422C32.9562 48.4018 32.0169 50.0042 31.2697 51.2648C31.0989 51.5853 30.8854 51.9057 30.6932 52.2262C29.6044 54.085 28.3235 56.2856 27.2134 58.1658C26.9572 58.5931 26.701 59.0204 26.4661 59.4264C26.6583 60.8151 26.8504 62.2039 27.0426 63.5926C27.2134 64.7463 27.3628 65.9001 27.5336 67.0538C27.7471 68.6135 27.9606 70.1731 28.1954 71.7542C28.4516 71.7969 30.6292 72.2669 33.0416 72.7797C34.6001 73.1002 36.244 73.4634 37.5462 73.7411C38.8272 74.0189 39.7879 74.2325 39.98 74.2753C41.5385 73.848 43.097 73.442 44.6554 73.0361C47.8364 72.1815 51.0174 71.3269 54.1771 70.4936C54.476 69.3612 54.7535 68.2289 55.031 67.0538C55.3086 65.9214 55.5648 64.7677 55.8209 63.5926C55.949 63.0371 56.0558 62.4816 56.1839 61.9261C56.376 60.986 56.5682 60.0459 56.7603 59.1272C56.8244 58.8068 56.8884 58.4863 56.9524 58.1658C57.0805 57.5035 57.2086 56.8411 57.3367 56.2002C57.3367 56.2002 57.3367 56.2002 57.3367 56.1788C57.3581 56.1788 57.3794 56.1788 57.4008 56.1788C58.3828 56.2002 59.3649 56.2216 60.3469 56.2643C60.4964 56.2643 60.6458 56.2643 60.7953 56.2856C61.5425 56.307 62.0335 56.3284 62.9942 56.3497C63.165 56.4138 63.9763 56.4352 64.1043 56.4352Z" fill="#FF735A"/>
<path fill-rule="evenodd" clip-rule="evenodd" d="M150.915 100.529L165.501 101.855L170.142 156.222H160.197L150.915 100.529Z" fill="#FEB4AB"/>
<path fill-rule="evenodd" clip-rule="evenodd" d="M142.959 100.529H158.871L140.97 156.222H132.351L142.959 100.529Z" fill="#FEB4AB"/>
<path d="M37.0127 41.3512C36.9487 41.3512 36.906 41.3299 36.8846 41.2658C36.8419 41.1803 36.8633 41.0949 36.9273 41.0521L37.5251 40.6676C37.7813 40.518 38.0161 40.3684 38.2296 40.2402C38.5285 40.048 38.806 39.877 39.0622 39.7275C39.2117 39.642 39.4465 39.4925 39.5319 39.2361C39.6173 38.937 39.4465 38.6378 39.4465 38.6378C39.3184 38.4028 39.0836 38.3174 38.8914 38.2319C38.6566 38.1464 38.4217 38.0396 38.3577 37.7619C38.315 37.6123 38.3577 37.4841 38.4004 37.3773C38.4431 37.2705 38.4644 37.1636 38.4431 36.9927C38.4217 36.9073 38.4004 36.7577 38.2936 36.6295C38.1869 36.5013 38.0802 36.4586 37.9307 36.4158C37.7813 36.3731 37.6105 36.3304 37.461 36.1381C37.3329 35.9672 37.3116 35.8176 37.2902 35.6894C37.2902 35.5826 37.2689 35.4758 37.1835 35.3262C37.0981 35.2194 37.0554 35.1767 36.9487 35.1339C36.8633 35.0912 36.7565 35.0271 36.6284 34.8989C36.3509 34.6425 36.2655 34.4075 36.1801 34.2366C36.1374 34.1084 36.0947 34.0443 36.052 34.0016C35.7318 33.7879 34.643 34.5998 34.0239 35.2194C32.7002 36.5227 31.4406 38.1037 30.2878 39.877C30.2237 39.9625 30.1597 40.0693 30.0956 40.1762L30.0743 40.1975C30.0316 40.2616 29.9249 40.283 29.8608 40.2402C29.7968 40.1975 29.7754 40.0907 29.8181 40.0266C29.8822 39.9198 29.9462 39.8129 30.0103 39.7275C31.1631 37.9328 32.444 36.3304 33.789 35.0057C34.0879 34.728 35.561 33.3179 36.2228 33.7452C36.3722 33.8306 36.4149 33.9802 36.479 34.1298C36.543 34.3007 36.6071 34.4716 36.8419 34.6853C36.9487 34.7921 37.0341 34.8348 37.0981 34.8775C37.2049 34.9416 37.3116 35.0057 37.4397 35.1767C37.5891 35.3903 37.5891 35.5612 37.6105 35.6894C37.6105 35.7963 37.6318 35.8603 37.6959 35.9672C37.7813 36.074 37.888 36.0954 38.0161 36.1381C38.1656 36.1808 38.379 36.2449 38.5498 36.4586C38.6993 36.6509 38.742 36.8645 38.742 36.9713C38.7847 37.2277 38.7206 37.3987 38.6779 37.5268C38.6566 37.6123 38.6352 37.655 38.6566 37.7191C38.6779 37.826 38.806 37.8901 38.9982 37.9755C39.233 38.061 39.5319 38.1892 39.724 38.5097C39.724 38.5097 39.9802 38.9156 39.8521 39.3643C39.7454 39.7488 39.4038 39.9411 39.233 40.048C38.9768 40.1975 38.7206 40.3684 38.4004 40.5607C38.1869 40.6889 37.9521 40.8385 37.6959 40.988L37.0981 41.3726C37.0554 41.3299 37.0341 41.3512 37.0127 41.3512Z" fill="black"/>
<path d="M35.4542 43.5519C35.3902 43.5519 35.3475 43.5305 35.3048 43.4664C35.2621 43.3809 35.3048 43.2955 35.3688 43.2528C35.5183 43.1887 35.7531 43.0605 36.0306 42.9109C37.1621 42.3554 38.0588 41.9922 38.806 41.7144C39.7667 41.3299 40.4072 41.0735 40.4072 40.8171C40.4072 40.6248 40.1296 40.3898 39.9162 40.3043C39.6173 40.1548 39.2543 40.2616 38.9555 40.3257C38.742 40.3684 38.5498 40.4539 38.3577 40.5607C38.2723 40.6035 38.1869 40.5821 38.1442 40.4966C38.1015 40.4112 38.1228 40.3257 38.2082 40.283C38.4217 40.1761 38.6352 40.0907 38.8701 40.0266C39.2116 39.9411 39.6386 39.8343 40.0443 40.0266C40.2791 40.1334 40.7274 40.4325 40.7274 40.8385C40.7274 41.3299 40.1296 41.5649 38.9341 42.0349C38.2082 42.334 37.2902 42.6759 36.1801 43.2314C35.9026 43.3809 35.6677 43.4878 35.5183 43.5519C35.5183 43.5305 35.4969 43.5519 35.4542 43.5519Z" fill="black"/>
<path d="M36.3298 42.9536L35.3264 43.3809L29.9678 40.0907C30.0318 39.9839 30.0959 39.8984 30.1599 39.7916L36.3298 42.9536Z" fill="black"/>
<path d="M63.9118 56.5848C63.8265 56.5848 63.7411 56.5207 63.7411 56.4352C63.7411 56.0934 63.7411 55.7729 63.7411 55.4524C63.7197 54.9396 63.6984 54.4482 63.6557 53.9568C63.5703 53.1022 63.4422 52.269 63.2714 51.4784C63.2714 51.4357 63.0365 50.3674 62.6736 49.6837C62.5028 49.3633 62.332 49.171 62.1826 49.1496C62.1185 49.1496 61.841 49.171 61.5848 49.3205C61.4994 49.3633 61.4567 49.406 61.3927 49.4487C61.3286 49.5128 61.2432 49.5769 61.1151 49.6197C60.9016 49.6837 60.7522 49.6197 60.6241 49.5769C60.5387 49.5342 60.4533 49.5128 60.3466 49.5128C60.1971 49.5342 60.1117 49.6197 59.9836 49.7265C59.8555 49.8547 59.6848 50.0256 59.3859 50.0256C59.2578 50.0256 59.1937 50.0042 59.1297 49.9829C59.0656 49.9615 59.0229 49.9401 58.8948 49.9401C58.5746 49.9188 58.3825 50.0042 58.2544 50.0683C58.0836 50.1538 58.0195 50.282 57.9555 50.4102C57.8701 50.5597 57.7847 50.7307 57.5499 50.8588C57.3791 50.9443 57.2723 50.9443 57.1656 50.9443C57.0588 50.9443 56.9734 50.9443 56.824 51.0298C56.7173 51.0725 56.4397 51.2007 56.3543 51.4357C56.2476 51.7135 56.4184 52.0339 56.5038 52.2262C56.5892 52.3972 56.6746 52.5894 56.7813 52.7817L56.8026 52.8458C56.8453 52.9526 56.9094 53.0595 56.9521 53.1877C56.9521 53.1877 56.9521 53.1877 56.9521 53.209C57.1229 53.5936 57.315 54.0209 57.5285 54.5123C57.5712 54.5978 57.5285 54.6832 57.4431 54.726C57.3577 54.7687 57.2723 54.726 57.2296 54.6405C57.0161 54.1491 56.8453 53.7218 56.6746 53.3372V53.3159C56.6105 53.1877 56.5678 53.0808 56.5251 52.974L56.5038 52.9099C56.4184 52.7176 56.333 52.5253 56.2476 52.3544C56.1408 52.1194 55.9273 51.7135 56.0768 51.2862C56.2049 50.9443 56.5678 50.7734 56.6959 50.7093C56.9307 50.6025 57.0588 50.6025 57.1869 50.6025C57.2723 50.6025 57.3364 50.6025 57.4431 50.5384C57.5926 50.4529 57.6566 50.3461 57.7207 50.2179C57.806 50.0683 57.8914 49.876 58.1476 49.7478C58.3611 49.6197 58.6387 49.5769 58.9589 49.5769C59.1297 49.5769 59.2151 49.6197 59.2791 49.641C59.3218 49.6624 59.3432 49.6624 59.4072 49.6624C59.578 49.6624 59.6634 49.5556 59.7915 49.4487C59.9196 49.3205 60.069 49.171 60.3466 49.1496C60.5387 49.1283 60.6668 49.1923 60.7736 49.2351C60.8803 49.2778 60.9443 49.2992 61.0511 49.2778C61.1151 49.2564 61.1365 49.2351 61.2005 49.1923C61.2646 49.1496 61.3286 49.0855 61.4354 49.0214C61.7343 48.8505 62.0758 48.8078 62.2039 48.8078C62.4815 48.8078 62.7163 49.0428 62.9725 49.5128C63.3568 50.2392 63.5916 51.3289 63.613 51.393C63.7838 52.2049 63.9332 53.0595 63.9972 53.9141C64.0399 54.4055 64.0826 54.9183 64.0826 55.431C64.0826 55.7515 64.104 56.072 64.0826 56.4138C64.0613 56.5207 63.9972 56.5848 63.9118 56.5848Z" fill="black"/>
<path d="M57.4433 56.4352C57.4006 56.4352 57.3579 56.4138 57.3365 56.3925L56.995 56.0293C56.9096 55.9224 56.8028 55.8156 56.6961 55.6874C56.1196 55.0037 55.3724 54.1705 54.9241 53.4227C54.5185 52.739 54.4117 52.269 54.6039 51.9271C54.7747 51.6707 55.1162 51.5425 55.3938 51.5639C55.6073 51.5853 55.8208 51.6707 56.5039 52.5681L56.6747 52.7817C56.7601 52.8886 56.8242 52.9954 56.8882 53.0595L56.9523 53.1449C56.9736 53.1663 56.995 53.209 56.995 53.2518C56.995 53.3372 56.9309 53.4227 56.8242 53.4227C56.7815 53.4227 56.7388 53.4013 56.7174 53.38L56.6961 53.3586L56.632 53.2518C56.568 53.1663 56.5039 53.0809 56.4185 52.974L56.2477 52.7604C55.65 52.0126 55.4578 51.8844 55.3511 51.8844C55.1803 51.863 54.9668 51.9485 54.8601 52.098C54.7747 52.2476 54.7533 52.5681 55.1803 53.2518C55.6073 53.9568 56.3331 54.7901 56.9096 55.4738C57.0163 55.602 57.123 55.7088 57.2084 55.7943L57.55 56.1575C57.6141 56.2216 57.6141 56.3284 57.55 56.3925C57.5287 56.4138 57.486 56.4352 57.4433 56.4352Z" fill="black"/>
<path d="M63.9121 56.4138L60.8378 56.3497L57.3579 56.2856C57.3579 56.2856 57.3579 56.2856 57.3579 56.2643C57.3793 56.2643 57.4006 56.2643 57.422 56.2643C57.3579 56.2002 57.2939 56.1147 57.2085 56.0293C58.6389 55.9011 62.4176 55.5806 63.8907 55.4524C63.9121 55.7729 63.9121 56.0934 63.9121 56.4138Z" fill="black"/>
<path d="M41.9655 63.6567C41.9442 63.678 41.9015 63.678 41.8801 63.6994C41.8588 63.6994 41.8588 63.7208 41.8374 63.7208C41.7307 63.7635 41.624 63.8062 41.5172 63.849C41.3678 63.9131 41.2183 63.9772 41.0689 64.0413C40.9408 64.4899 40.7913 64.96 40.6633 65.4086C40.5352 65.836 40.4284 66.2633 40.3003 66.6692C40.1722 66.6692 39.6172 66.6051 39.5104 66.5837C39.6812 66.0282 39.5318 65.4514 39.1261 65.0882C38.5924 64.6181 37.8025 64.789 37.3755 65.0454C36.7564 65.43 36.5002 66.1778 36.5856 66.8188C36.6069 66.9256 36.6283 67.0324 36.6496 67.1179C36.8631 67.7802 37.4182 68.122 37.5036 68.1648C37.4823 68.2075 37.4396 68.2289 37.4182 68.2716C37.0339 68.7203 36.6069 69.1689 36.18 69.6176C35.6035 70.2158 35.0485 70.7927 34.4934 71.3482C34.1732 71.3055 33.8529 71.2414 33.5327 71.1987C33.3833 71.1773 33.2338 71.1559 33.0844 71.1346C32.5079 71.0491 31.9102 70.9423 31.3338 70.8568C31.2911 70.8568 31.2484 70.8354 31.2057 70.8354C31.1416 69.4253 31.163 68.2075 31.227 67.1606C31.2911 66.1137 31.4192 65.2377 31.5472 64.5754C31.5899 64.2763 31.654 63.9985 31.7394 63.7208C31.8248 63.4003 31.9529 63.1012 32.145 62.7593C33.2552 60.8578 35.3901 60.3664 35.6462 60.3023C35.7316 60.281 36.18 60.1955 36.8418 60.1955C37.8452 60.1955 39.2969 60.4091 40.5352 61.4347C40.8981 61.7338 41.6026 62.332 41.8801 63.3576C41.9228 63.443 41.9442 63.5712 41.9655 63.6567Z" fill="black"/>
<path d="M38.0586 68.6989C38.0373 68.6989 38.0373 68.6989 38.0159 68.6989C37.8665 68.6562 37.717 68.6134 37.5889 68.5493C37.4395 68.4852 37.2687 68.3784 37.1406 68.293C37.0765 68.2502 37.0552 68.1434 37.0979 68.0793C37.1406 68.0152 37.2473 67.9938 37.3114 68.0366C37.4395 68.122 37.5676 68.2075 37.717 68.2716C37.8451 68.3357 37.9732 68.3784 38.1013 68.3998C38.1867 68.4212 38.2294 68.5066 38.208 68.5921C38.1867 68.6562 38.1226 68.6989 38.0586 68.6989Z" fill="black"/>
<path d="M37.5888 73.9762C37.5034 73.9762 37.418 73.9121 37.418 73.8052V72.1601C37.418 72.0746 37.482 72.0105 37.5888 72.0105C37.6315 72.0105 37.6742 72.0105 37.7169 72.0105C38.4214 72.0319 39.745 71.9251 40.7271 70.985C41.581 70.1518 41.7091 69.0621 41.8799 67.6947C41.9013 67.5025 41.9226 67.3102 41.944 67.1179C42.0294 66.0069 41.944 64.8532 41.6878 63.7208C41.6878 63.7208 41.6878 63.7208 41.6878 63.6994C41.6878 63.6567 41.6664 63.614 41.6664 63.5499C41.6451 63.4858 41.6024 63.4217 41.5597 63.3362C41.5597 63.3362 41.4316 63.1012 41.3035 62.9089C41.09 62.6098 40.6203 62.0757 40.3001 61.8406C40.0866 61.6697 38.1652 60.1955 35.7955 60.7083C33.9808 61.0928 33.0201 62.3961 32.5291 63.4217C32.465 63.5285 32.4223 63.6353 32.401 63.7208C32.2302 64.1267 32.1448 64.4472 32.1021 64.6609C31.974 65.3018 31.8459 66.1351 31.7605 67.1179C31.6538 68.1648 31.5897 69.404 31.547 70.7927V70.8141L31.5043 72.4379C31.5043 72.5233 31.4189 72.5874 31.3335 72.5874C31.2481 72.5874 31.1841 72.5019 31.1841 72.4165L31.2268 70.7714V70.75C31.2695 69.3612 31.3549 68.1221 31.4403 67.0751C31.5257 66.071 31.6538 65.2377 31.8032 64.5754C31.8459 64.3617 31.9526 63.9985 32.1234 63.5712C32.1661 63.4644 32.2088 63.3576 32.2729 63.2507C32.7853 62.1611 33.8314 60.751 35.7528 60.3451C38.2719 59.8109 40.3001 61.3706 40.5349 61.5415C40.8552 61.7979 41.3675 62.3534 41.6024 62.6952C41.7518 62.9089 41.8799 63.1439 41.8799 63.1653C41.9226 63.2721 41.9653 63.3362 42.008 63.4003V63.4217C42.0294 63.4858 42.0294 63.5285 42.0507 63.5926V63.614C42.3069 64.7677 42.3923 65.9428 42.3069 67.0965C42.2855 67.2888 42.2642 67.5025 42.2428 67.6947C42.072 69.1262 41.9226 70.28 40.9833 71.1773C39.9585 72.1815 38.5708 72.3097 37.8023 72.3097V73.7839C37.7382 73.9121 37.6742 73.9762 37.5888 73.9762Z" fill="black"/>
<path d="M37.6955 72.0319C37.6955 72.1174 37.6742 72.2028 37.6742 72.2883C37.6315 72.7583 37.6102 73.207 37.5888 73.6343C37.3753 73.3993 37.1832 73.1857 36.9697 72.972C36.5641 72.5233 36.1371 72.0533 35.7314 71.6046C36.1157 71.7755 36.6068 71.9251 37.1832 71.9892C37.354 72.0106 37.5248 72.0319 37.6955 72.0319Z" fill="black"/>
<path fill-rule="evenodd" clip-rule="evenodd" d="M168.028 98.8008C167.965 98.8093 167.902 98.8171 167.839 98.8241C167.778 98.9451 167.721 99.0662 167.665 99.1858C167.582 99.3618 167.501 99.5347 167.412 99.7001L166.515 101.495L166.366 101.452L166.515 101.516C166.473 101.586 166.441 101.656 166.405 101.731C166.386 101.772 166.367 101.814 166.344 101.858L166.302 101.965C166.238 102.093 166.152 102.243 166.067 102.392C166.065 102.396 166.062 102.399 166.06 102.402H165.68C165.724 102.343 165.768 102.276 165.811 102.2C165.862 102.124 165.905 102.04 165.945 101.962C165.972 101.909 165.998 101.859 166.024 101.815L166.067 101.708C166.099 101.655 166.126 101.602 166.152 101.548C166.179 101.495 166.206 101.441 166.238 101.388C166.238 101.388 166.238 101.367 166.259 101.367C166.359 101.167 166.461 100.968 166.563 100.768C166.767 100.37 166.971 99.9707 167.156 99.5719C167.23 99.4116 167.311 99.2514 167.391 99.0912C167.471 98.9309 167.551 98.7707 167.625 98.6104C167.647 98.5677 167.689 98.525 167.754 98.525C167.845 98.5182 167.936 98.5093 168.028 98.4983V98.8008ZM164.551 101.452C164.42 101.832 164.338 102.142 164.375 102.402H164.769C164.717 102.232 164.761 101.979 164.914 101.537C164.999 101.26 165.128 100.939 165.298 100.533L165.491 100.085C165.583 99.8436 165.68 99.5985 165.779 99.3476C165.908 99.0204 166.041 98.6834 166.174 98.3327C166.216 98.2686 166.174 98.1831 166.11 98.1404C166.024 98.0977 165.939 98.119 165.896 98.1831C165.021 99.2514 164.338 100.127 163.889 100.768C163.889 100.768 163.655 101.067 163.356 101.409C162.544 102.328 162.288 102.328 162.267 102.328C162.096 102.307 161.925 102.136 161.861 102.008C161.797 101.901 161.797 101.751 161.819 101.58C161.877 101.207 162.152 100.798 162.329 100.535C162.345 100.512 162.36 100.49 162.374 100.469C162.587 100.17 162.758 99.9778 162.758 99.9778C163.569 99.1232 164.807 97.5208 164.786 97.2644C164.786 97.2217 164.765 97.1576 164.722 97.1362C164.594 97.0294 164.551 97.0508 163.996 97.6063C163.761 97.8413 163.42 98.1831 162.929 98.6532C162.653 98.9173 162.438 99.1139 162.275 99.2621C162.149 99.3776 162.055 99.4636 161.989 99.5291C160.409 100.982 160.047 101.067 159.897 101.025C159.705 100.961 159.577 100.726 159.556 100.555C159.534 100.213 159.897 99.8496 160.431 99.3155C160.58 99.1659 160.687 99.0805 160.687 99.0805C161.221 98.6318 162.224 97.6917 163.697 96.303C163.761 96.2389 163.761 96.1534 163.719 96.0893C163.655 96.0252 163.569 96.0039 163.505 96.0466C160.858 97.4353 159.235 98.2472 159.022 98.3113C158.83 98.3754 158.702 98.3113 158.702 98.3113C158.659 98.29 158.638 98.2686 158.638 98.2686C158.595 98.2259 158.531 98.1404 158.488 98.0336C158.467 97.9695 158.445 97.9054 158.445 97.8413C158.467 97.3541 159.285 96.9719 159.611 96.8197L159.62 96.8157C160.059 96.6126 160.504 96.407 160.953 96.1994C161.259 96.0579 161.567 95.9155 161.877 95.7723H161.128C160.576 96.029 160.03 96.2841 159.491 96.538C159.471 96.5482 159.449 96.559 159.426 96.5705C159.01 96.7762 158.167 97.1938 158.146 97.8413C158.146 97.9392 158.171 98.0247 158.193 98.0977C158.199 98.1202 158.205 98.1416 158.211 98.1618C158.275 98.3113 158.36 98.4609 158.445 98.525C158.467 98.5463 158.509 98.5891 158.573 98.6104C158.577 98.6104 158.586 98.6133 158.599 98.6177C158.667 98.6403 158.857 98.7033 159.107 98.6318C159.321 98.5677 160.708 97.884 162.608 96.9012C161.605 97.8413 160.879 98.5036 160.474 98.8668C160.474 98.8668 160.345 98.9736 160.196 99.1232C159.598 99.7001 159.171 100.127 159.235 100.619C159.278 100.918 159.47 101.26 159.79 101.367C160.068 101.473 160.452 101.431 162.203 99.8069C162.294 99.7157 162.408 99.6088 162.54 99.4864C162.716 99.3222 162.922 99.1299 163.142 98.9095C163.217 98.8348 163.286 98.7628 163.352 98.6942C163.475 98.5667 163.586 98.4513 163.697 98.354C163.356 98.7814 162.929 99.2941 162.502 99.7642C162.48 99.7855 162.288 99.9778 162.075 100.298C161.883 100.576 161.562 101.067 161.477 101.537C161.434 101.794 161.477 102.008 161.562 102.178C161.6 102.254 161.651 102.331 161.714 102.402H162.8C162.995 102.248 163.245 102.009 163.569 101.644C163.789 101.393 163.962 101.165 164.047 101.054C164.078 101.013 164.097 100.988 164.103 100.982C164.444 100.491 164.893 99.8924 165.469 99.1873C165.362 99.465 165.256 99.7428 165.149 99.9992L164.957 100.448C164.786 100.854 164.658 101.174 164.551 101.452Z" fill="black"/>
<path d="M163.975 100.875C164.316 100.384 164.914 99.5932 165.981 98.2899C165.725 98.9523 165.49 99.5505 165.298 100.042C165.042 100.662 164.85 101.132 164.722 101.495C164.295 101.495 163.868 101.516 163.441 101.516C163.74 101.174 163.975 100.875 163.975 100.875Z" fill="black"/>
<path d="M167.326 101.431C167.092 101.431 166.835 101.431 166.601 101.452C166.537 101.452 166.472 101.452 166.387 101.452H166.366C166.366 101.452 166.366 101.431 166.387 101.431C166.686 100.832 166.985 100.234 167.284 99.636C167.284 100.234 167.305 100.832 167.326 101.431Z" fill="black"/>
<path fill-rule="evenodd" clip-rule="evenodd" d="M162.309 65.1095C163.526 65.3659 167.86 66.3915 172.642 69.5963C176.144 71.9464 182.57 76.2622 182.612 82.2445C182.612 83.9751 181.972 85.4066 180.67 88.2055C178.471 92.9486 175.909 96.3884 174.094 98.5463C173.304 98.0549 172.493 97.5421 171.682 97.008C170.55 96.2816 169.397 95.5124 168.244 94.7006C167.839 94.4442 167.455 94.1665 167.07 93.8887L167.07 93.8887C166.974 93.8246 166.878 93.7551 166.782 93.6857C166.686 93.6163 166.59 93.5468 166.494 93.4827C163.121 95.021 160.623 96.1748 159.534 96.6875C159.171 96.8371 158.296 97.2644 158.274 97.8413C158.274 97.9695 158.317 98.0976 158.317 98.0976C158.36 98.2258 158.445 98.3327 158.509 98.3968C158.509 98.4181 158.552 98.4395 158.595 98.4609C158.595 98.4609 158.766 98.5463 159.022 98.4822C159.257 98.4181 161.071 97.4994 163.526 96.2175C161.84 97.7985 160.943 98.6104 160.516 98.995C160.516 98.995 160.409 99.0805 160.26 99.23C159.684 99.8069 159.299 100.191 159.342 100.597C159.363 100.811 159.534 101.11 159.79 101.196C159.982 101.281 160.324 101.26 162.032 99.6787C162.096 99.6146 162.197 99.5184 162.35 99.3741C162.502 99.2299 162.704 99.0377 162.971 98.7813C163.462 98.308 163.811 97.9616 164.054 97.7203C164.393 97.3843 164.526 97.252 164.551 97.2644C164.594 97.3071 163.59 98.7813 162.566 99.871C162.523 99.8923 162.352 100.085 162.16 100.362C161.968 100.64 161.648 101.11 161.584 101.537C158.029 101.612 154.48 101.682 150.93 101.751C147.381 101.821 143.832 101.89 140.277 101.965C140.854 98.2472 141.409 94.4869 141.943 90.6839C142.327 87.885 142.711 85.1075 143.095 82.3514C142.732 82.8428 142.177 83.5265 141.473 84.2956C139.359 86.6244 134.385 92.0726 130.542 91.0898C130.073 90.9616 129.667 90.6625 129.667 90.6625C129.112 90.342 128.728 89.9574 128.471 89.6583C128.461 89.3378 128.37 86.9823 128.279 84.6268C128.188 82.2713 128.098 79.9157 128.087 79.5952C128.076 79.3068 127.991 77.0475 127.906 74.7881C127.82 72.5287 127.735 70.2693 127.724 69.9808C128.386 71.4764 129.069 72.9506 129.774 74.4676C130.713 76.4759 131.652 78.4415 132.592 80.3644C133.787 78.6338 137.075 74.0403 141.345 70.2586C144.632 67.3529 147.024 66.2205 148.539 65.6437C148.945 65.4941 149.329 65.3659 149.714 65.2377V63.5926C151.187 63.6353 152.702 63.6567 154.24 63.6567C155.734 63.6567 157.228 63.6353 158.659 63.5926V64.4686C159.94 64.6172 161.044 64.8467 161.927 65.0305C162.06 65.058 162.187 65.0845 162.309 65.1095ZM166.985 91.1966C168.223 89.8506 169.483 88.4405 170.742 86.9449C172.045 85.3853 173.283 83.8683 174.457 82.3727C173.562 81.8959 172.667 81.4288 171.765 80.9583C171.333 80.7331 170.9 80.5072 170.465 80.2789C169.162 79.5952 167.86 78.9329 166.579 78.292C166.611 79.4135 166.649 80.6044 166.686 81.7953C166.723 82.9866 166.761 84.1779 166.793 85.2998L166.985 91.1966Z" fill="#009691"/>
<path d="M129.283 159.352C129.496 160.997 129.71 162.536 129.88 163.946C127.703 163.924 125.077 163.924 122.045 163.946C122.942 161.083 124.18 160.079 125.205 159.694C126.635 159.16 127.639 159.673 129.283 159.352Z" fill="black"/>
<path d="M142.092 163.988C141.324 164.01 140.256 164.01 138.975 164.01L138.036 162.813V164.01H137.972C135.303 164.01 133.361 163.967 132.592 163.946C132.144 163.946 131.653 163.946 131.119 163.946C131.098 162.343 131.055 160.613 131.012 158.711C131.866 158.241 132.806 157.472 133.788 156.233H141.217C141.516 158.818 141.815 161.403 142.092 163.988Z" fill="black"/>
<path d="M165.469 162.813L166.409 164.01C167.583 164.01 168.586 163.988 169.291 163.988C169.013 161.403 168.714 158.839 168.437 156.254C165.939 156.276 163.463 156.276 160.965 156.297C159.342 158.369 157.805 159.074 156.674 159.331C154.902 159.737 153.898 159.138 152.404 159.694C151.4 160.079 150.141 161.083 149.244 163.946C153.685 163.924 157.25 163.946 159.791 163.967C160.559 163.967 162.502 164.031 165.17 164.031C165.277 164.031 165.363 164.031 165.448 164.031V162.813H165.469Z" fill="black"/>
<path d="M151.123 63.7849C151.037 63.7849 150.973 63.7208 150.973 63.6567C150.931 63.443 150.888 63.2294 150.845 63.0157C149.756 63.1012 148.774 62.8875 147.984 62.3534C145.999 61.0501 145.999 58.4008 145.999 57.5248C145.999 56.9266 146.084 55.3883 146.81 53.9354C146.832 53.9141 146.832 53.8927 146.853 53.8713C147.365 52.8458 148.113 52.0553 149.073 51.5639C149.329 51.4357 151.528 50.3247 153.557 51.2861C154.966 51.9698 155.862 53.4227 156.481 56.0292L156.503 56.1361C156.524 56.2215 156.481 56.307 156.396 56.3283C156.311 56.3497 156.225 56.307 156.204 56.2215L156.182 56.0933C155.585 53.5936 154.752 52.1835 153.428 51.5639C151.55 50.6665 149.458 51.7134 149.223 51.8203C148.326 52.2903 147.622 53.0381 147.131 53.9995C147.109 54.0209 147.109 54.0423 147.109 54.0423C146.426 55.431 146.341 56.9266 146.341 57.5034C146.341 58.3367 146.341 60.8364 148.177 62.0543C148.945 62.5457 149.906 62.7593 150.973 62.6525C151.059 62.6525 151.123 62.6952 151.144 62.7807C151.187 63.0371 151.251 63.3148 151.294 63.5712C151.315 63.6567 151.251 63.7421 151.165 63.7635C151.144 63.7849 151.144 63.7849 151.123 63.7849Z" fill="black"/>
<path d="M155.584 59.8109C155.542 59.8109 155.52 59.8109 155.478 59.8109C155.392 59.8109 155.328 59.7254 155.328 59.64C155.328 59.5545 155.414 59.4904 155.499 59.4904C155.713 59.4904 155.905 59.4691 156.097 59.405C156.759 59.1486 157.463 58.2726 157.122 57.2684C156.972 56.8411 156.673 56.5206 156.268 56.3284C155.862 56.1361 155.414 56.1147 154.987 56.2643C154.752 56.3497 154.56 56.4779 154.538 56.4993C154.218 56.7557 154.09 57.0975 154.026 57.2898C154.005 57.3753 153.919 57.418 153.834 57.3966C153.748 57.3753 153.706 57.2898 153.727 57.2043C153.791 56.9907 153.941 56.5634 154.346 56.2429C154.496 56.0933 154.859 55.9651 154.88 55.9438C155.371 55.7729 155.926 55.7942 156.396 56.0292C156.865 56.2643 157.228 56.6702 157.42 57.1616C157.826 58.3367 156.994 59.3836 156.225 59.6827C156.011 59.7895 155.798 59.8109 155.584 59.8109Z" fill="black"/>
<path d="M156.759 56.2856C156.631 56.2002 155.756 55.7301 154.902 56.0506C154.496 56.2002 154.218 56.4993 154.218 56.4993C153.984 56.7557 153.898 57.0334 153.855 57.183C153.3 56.3497 152.745 55.5165 152.19 54.6832C151.592 54.5123 151.144 54.2773 150.867 54.1277C149.927 53.5936 149.095 52.739 149.095 52.739C148.903 52.9526 148.625 53.1663 148.305 53.4013C147.75 53.7645 147.216 53.9141 146.853 53.9995C146.981 53.5722 147.493 52.098 148.967 51.1793C150.589 50.1538 152.575 50.3033 154.005 51.0725C155.841 52.0339 156.93 54.1064 156.759 56.2856Z" fill="black"/>
<path d="M157.079 58.7426L157.165 60.986L156.354 59.4477L157.079 58.7426Z" fill="black"/>
<path d="M157.591 63.7849C157.506 63.7849 157.442 63.7208 157.442 63.6567C157.293 62.7593 157.165 61.862 157.015 60.9646L156.951 60.5801C156.887 60.0887 156.802 59.5973 156.738 59.1058C156.716 59.0204 156.78 58.9349 156.866 58.9349C156.951 58.9136 157.036 58.9777 157.036 59.0631C157.1 59.5545 157.186 60.0459 157.25 60.5373L157.314 60.9219C157.442 61.8193 157.591 62.7166 157.741 63.6139C157.762 63.6994 157.698 63.7849 157.613 63.8062C157.591 63.7849 157.591 63.7849 157.591 63.7849Z" fill="black"/>
<path d="M160.089 156.446C160.004 156.446 159.94 156.382 159.94 156.318C159.406 152.729 158.83 148.926 158.232 145.016L158.104 144.161C157.186 138.243 156.225 132.239 155.222 126.3L155.072 125.381C155.008 125.039 154.965 124.698 154.901 124.377C154.133 119.826 153.343 115.233 152.468 110.276C152.446 110.19 152.51 110.105 152.596 110.084C152.681 110.062 152.766 110.126 152.788 110.212C153.663 115.147 154.453 119.762 155.222 124.313C155.286 124.655 155.328 124.997 155.392 125.317L155.542 126.236C156.524 132.175 157.506 138.179 158.424 144.097L158.552 144.952C159.15 148.798 159.726 152.558 160.239 156.126L163.569 156.105C163.911 156.105 164.231 156.105 164.551 156.105C165.853 156.105 167.134 156.083 168.437 156.083L170.422 156.062L166.43 101.452C166.43 101.367 166.494 101.281 166.579 101.281C166.665 101.281 166.75 101.345 166.75 101.431L170.764 156.211C170.764 156.254 170.742 156.297 170.721 156.34C170.7 156.382 170.657 156.382 170.614 156.382L168.458 156.404C167.156 156.404 165.875 156.425 164.572 156.425C164.252 156.425 163.911 156.425 163.59 156.425L160.089 156.446Z" fill="black"/>
<path d="M141.857 156.382H132.058C132.015 156.382 131.973 156.361 131.93 156.318C131.909 156.275 131.887 156.233 131.887 156.19L142.69 101.602C142.711 101.516 142.797 101.452 142.882 101.473C142.967 101.495 143.031 101.58 143.01 101.666L132.229 156.062H141.708L141.772 155.848L149.906 130.423L153.813 118.202C153.834 118.117 153.919 118.074 154.005 118.096C154.09 118.117 154.133 118.202 154.111 118.288L150.205 130.509L150.119 130.765L141.964 156.254C141.985 156.34 141.943 156.382 141.857 156.382Z" fill="black"/>
<path d="M143.416 102.285C143.699 102.285 143.928 102.056 143.928 101.772C143.928 101.489 143.699 101.26 143.416 101.26C143.133 101.26 142.903 101.489 142.903 101.772C142.903 102.056 143.133 102.285 143.416 102.285Z" fill="black"/>
<path d="M149.052 102.285C149.335 102.285 149.564 102.056 149.564 101.772C149.564 101.489 149.335 101.26 149.052 101.26C148.769 101.26 148.54 101.489 148.54 101.772C148.54 102.056 148.769 102.285 149.052 102.285Z" fill="black"/>
<path d="M154.688 102.285C154.971 102.285 155.201 102.056 155.201 101.772C155.201 101.489 154.971 101.26 154.688 101.26C154.405 101.26 154.176 101.489 154.176 101.772C154.176 102.056 154.405 102.285 154.688 102.285Z" fill="black"/>
<path d="M160.345 102.285C160.628 102.285 160.858 102.056 160.858 101.772C160.858 101.489 160.628 101.26 160.345 101.26C160.062 101.26 159.833 101.489 159.833 101.772C159.833 102.056 160.062 102.285 160.345 102.285Z" fill="black"/>
<path d="M166.494 101.772C166.494 102.072 166.259 102.285 165.982 102.285C165.96 102.285 165.939 102.285 165.917 102.285C166.003 102.136 166.088 102.007 166.152 101.879C166.216 101.73 166.302 101.602 166.366 101.452C166.366 101.452 166.366 101.431 166.387 101.431L166.409 101.452C166.451 101.537 166.494 101.666 166.494 101.772Z" fill="black"/>
<path d="M146.234 104.913C146.517 104.913 146.746 104.684 146.746 104.4C146.746 104.117 146.517 103.888 146.234 103.888C145.951 103.888 145.721 104.117 145.721 104.4C145.721 104.684 145.951 104.913 146.234 104.913Z" fill="black"/>
<path d="M151.87 104.913C152.153 104.913 152.382 104.684 152.382 104.4C152.382 104.117 152.153 103.888 151.87 103.888C151.587 103.888 151.357 104.117 151.357 104.4C151.357 104.684 151.587 104.913 151.87 104.913Z" fill="black"/>
<path d="M157.528 104.913C157.81 104.913 158.04 104.684 158.04 104.4C158.04 104.117 157.81 103.888 157.528 103.888C157.245 103.888 157.015 104.117 157.015 104.4C157.015 104.684 157.245 104.913 157.528 104.913Z" fill="black"/>
<path d="M163.163 104.913C163.446 104.913 163.676 104.684 163.676 104.4C163.676 104.117 163.446 103.888 163.163 103.888C162.88 103.888 162.651 104.117 162.651 104.4C162.651 104.684 162.88 104.913 163.163 104.913Z" fill="black"/>
<path d="M143.416 107.947C143.699 107.947 143.928 107.718 143.928 107.434C143.928 107.151 143.699 106.922 143.416 106.922C143.133 106.922 142.903 107.151 142.903 107.434C142.903 107.718 143.133 107.947 143.416 107.947Z" fill="black"/>
<path d="M149.052 107.947C149.335 107.947 149.564 107.718 149.564 107.434C149.564 107.151 149.335 106.922 149.052 106.922C148.769 106.922 148.54 107.151 148.54 107.434C148.54 107.718 148.769 107.947 149.052 107.947Z" fill="black"/>
<path d="M154.688 107.947C154.971 107.947 155.201 107.718 155.201 107.434C155.201 107.151 154.971 106.922 154.688 106.922C154.405 106.922 154.176 107.151 154.176 107.434C154.176 107.718 154.405 107.947 154.688 107.947Z" fill="black"/>
<path d="M160.345 107.947C160.628 107.947 160.858 107.718 160.858 107.434C160.858 107.151 160.628 106.922 160.345 106.922C160.062 106.922 159.833 107.151 159.833 107.434C159.833 107.718 160.062 107.947 160.345 107.947Z" fill="black"/>
<path d="M165.982 107.947C166.265 107.947 166.494 107.718 166.494 107.434C166.494 107.151 166.265 106.922 165.982 106.922C165.699 106.922 165.469 107.151 165.469 107.434C165.469 107.718 165.699 107.947 165.982 107.947Z" fill="black"/>
<path d="M146.234 110.554C146.517 110.554 146.746 110.324 146.746 110.041C146.746 109.758 146.517 109.528 146.234 109.528C145.951 109.528 145.721 109.758 145.721 110.041C145.721 110.324 145.951 110.554 146.234 110.554Z" fill="black"/>
<path d="M151.87 110.554C152.153 110.554 152.382 110.324 152.382 110.041C152.382 109.758 152.153 109.528 151.87 109.528C151.587 109.528 151.357 109.758 151.357 110.041C151.357 110.324 151.587 110.554 151.87 110.554Z" fill="black"/>
<path d="M157.528 110.554C157.81 110.554 158.04 110.324 158.04 110.041C158.04 109.758 157.81 109.528 157.528 109.528C157.245 109.528 157.015 109.758 157.015 110.041C157.015 110.324 157.245 110.554 157.528 110.554Z" fill="black"/>
<path d="M163.163 110.554C163.446 110.554 163.676 110.324 163.676 110.041C163.676 109.758 163.446 109.528 163.163 109.528C162.88 109.528 162.651 109.758 162.651 110.041C162.651 110.324 162.88 110.554 163.163 110.554Z" fill="black"/>
<path d="M143.416 113.801C143.699 113.801 143.928 113.572 143.928 113.288C143.928 113.005 143.699 112.776 143.416 112.776C143.133 112.776 142.903 113.005 142.903 113.288C142.903 113.572 143.133 113.801 143.416 113.801Z" fill="black"/>
<path d="M149.052 113.801C149.335 113.801 149.564 113.572 149.564 113.288C149.564 113.005 149.335 112.776 149.052 112.776C148.769 112.776 148.54 113.005 148.54 113.288C148.54 113.572 148.769 113.801 149.052 113.801Z" fill="black"/>
<path d="M154.688 113.801C154.971 113.801 155.201 113.572 155.201 113.288C155.201 113.005 154.971 112.776 154.688 112.776C154.405 112.776 154.176 113.005 154.176 113.288C154.176 113.572 154.405 113.801 154.688 113.801Z" fill="black"/>
<path d="M160.345 113.801C160.628 113.801 160.858 113.572 160.858 113.288C160.858 113.005 160.628 112.776 160.345 112.776C160.062 112.776 159.833 113.005 159.833 113.288C159.833 113.572 160.062 113.801 160.345 113.801Z" fill="black"/>
<path d="M165.982 113.801C166.265 113.801 166.494 113.572 166.494 113.288C166.494 113.005 166.265 112.776 165.982 112.776C165.699 112.776 165.469 113.005 165.469 113.288C165.469 113.572 165.699 113.801 165.982 113.801Z" fill="black"/>
<path d="M140.598 116.429C140.881 116.429 141.11 116.2 141.11 115.916C141.11 115.633 140.881 115.404 140.598 115.404C140.315 115.404 140.085 115.633 140.085 115.916C140.085 116.2 140.315 116.429 140.598 116.429Z" fill="black"/>
<path d="M146.234 116.429C146.517 116.429 146.746 116.2 146.746 115.916C146.746 115.633 146.517 115.404 146.234 115.404C145.951 115.404 145.722 115.633 145.722 115.916C145.722 116.2 145.951 116.429 146.234 116.429Z" fill="black"/>
<path d="M151.87 116.429C152.153 116.429 152.383 116.2 152.383 115.916C152.383 115.633 152.153 115.404 151.87 115.404C151.587 115.404 151.358 115.633 151.358 115.916C151.358 116.2 151.587 116.429 151.87 116.429Z" fill="black"/>
<path d="M157.528 116.429C157.81 116.429 158.04 116.2 158.04 115.916C158.04 115.633 157.81 115.404 157.528 115.404C157.245 115.404 157.015 115.633 157.015 115.916C157.015 116.2 157.245 116.429 157.528 116.429Z" fill="black"/>
<path d="M163.164 116.429C163.447 116.429 163.676 116.2 163.676 115.916C163.676 115.633 163.447 115.404 163.164 115.404C162.881 115.404 162.651 115.633 162.651 115.916C162.651 116.2 162.881 116.429 163.164 116.429Z" fill="black"/>
<path d="M143.416 119.463C143.699 119.463 143.928 119.233 143.928 118.95C143.928 118.667 143.699 118.437 143.416 118.437C143.133 118.437 142.903 118.667 142.903 118.95C142.903 119.233 143.133 119.463 143.416 119.463Z" fill="black"/>
<path d="M149.052 119.463C149.335 119.463 149.564 119.233 149.564 118.95C149.564 118.667 149.335 118.437 149.052 118.437C148.769 118.437 148.54 118.667 148.54 118.95C148.54 119.233 148.769 119.463 149.052 119.463Z" fill="black"/>
<path d="M154.688 119.463C154.971 119.463 155.201 119.233 155.201 118.95C155.201 118.667 154.971 118.437 154.688 118.437C154.405 118.437 154.176 118.667 154.176 118.95C154.176 119.233 154.405 119.463 154.688 119.463Z" fill="black"/>
<path d="M160.345 119.463C160.628 119.463 160.858 119.233 160.858 118.95C160.858 118.667 160.628 118.437 160.345 118.437C160.062 118.437 159.833 118.667 159.833 118.95C159.833 119.233 160.062 119.463 160.345 119.463Z" fill="black"/>
<path d="M165.982 119.463C166.265 119.463 166.494 119.233 166.494 118.95C166.494 118.667 166.265 118.437 165.982 118.437C165.699 118.437 165.469 118.667 165.469 118.95C165.469 119.233 165.699 119.463 165.982 119.463Z" fill="black"/>
<path d="M140.598 122.07C140.881 122.07 141.11 121.84 141.11 121.557C141.11 121.274 140.881 121.044 140.598 121.044C140.315 121.044 140.085 121.274 140.085 121.557C140.085 121.84 140.315 122.07 140.598 122.07Z" fill="black"/>
<path d="M146.234 122.07C146.517 122.07 146.746 121.84 146.746 121.557C146.746 121.274 146.517 121.044 146.234 121.044C145.951 121.044 145.722 121.274 145.722 121.557C145.722 121.84 145.951 122.07 146.234 122.07Z" fill="black"/>
<path d="M151.87 122.07C152.153 122.07 152.383 121.84 152.383 121.557C152.383 121.274 152.153 121.044 151.87 121.044C151.587 121.044 151.358 121.274 151.358 121.557C151.358 121.84 151.587 122.07 151.87 122.07Z" fill="black"/>
<path d="M157.528 122.07C157.81 122.07 158.04 121.84 158.04 121.557C158.04 121.274 157.81 121.044 157.528 121.044C157.245 121.044 157.015 121.274 157.015 121.557C157.015 121.84 157.245 122.07 157.528 122.07Z" fill="black"/>
<path d="M163.164 122.07C163.447 122.07 163.676 121.84 163.676 121.557C163.676 121.274 163.447 121.044 163.164 121.044C162.881 121.044 162.651 121.274 162.651 121.557C162.651 121.84 162.881 122.07 163.164 122.07Z" fill="black"/>
<path d="M138.804 124.804C138.804 125.082 138.569 125.317 138.292 125.317C138.249 125.317 138.228 125.317 138.185 125.317L138.377 124.292C138.633 124.356 138.804 124.569 138.804 124.804Z" fill="black"/>
<path d="M143.928 125.317C144.211 125.317 144.44 125.088 144.44 124.804C144.44 124.521 144.211 124.292 143.928 124.292C143.645 124.292 143.416 124.521 143.416 124.804C143.416 125.088 143.645 125.317 143.928 125.317Z" fill="black"/>
<path d="M149.585 125.317C149.868 125.317 150.098 125.088 150.098 124.804C150.098 124.521 149.868 124.292 149.585 124.292C149.302 124.292 149.073 124.521 149.073 124.804C149.073 125.088 149.302 125.317 149.585 125.317Z" fill="black"/>
<path d="M155.734 124.804C155.734 125.082 155.499 125.317 155.222 125.317C155.158 124.975 155.115 124.633 155.051 124.313C155.093 124.292 155.158 124.292 155.222 124.292C155.499 124.292 155.734 124.527 155.734 124.804Z" fill="black"/>
<path d="M160.858 125.317C161.141 125.317 161.37 125.088 161.37 124.804C161.37 124.521 161.141 124.292 160.858 124.292C160.575 124.292 160.345 124.521 160.345 124.804C160.345 125.088 160.575 125.317 160.858 125.317Z" fill="black"/>
<path d="M166.494 125.317C166.777 125.317 167.006 125.088 167.006 124.804C167.006 124.521 166.777 124.292 166.494 124.292C166.211 124.292 165.981 124.521 165.981 124.804C165.981 125.088 166.211 125.317 166.494 125.317Z" fill="black"/>
<path d="M141.11 127.945C141.393 127.945 141.622 127.715 141.622 127.432C141.622 127.149 141.393 126.919 141.11 126.919C140.827 126.919 140.597 127.149 140.597 127.432C140.597 127.715 140.827 127.945 141.11 127.945Z" fill="black"/>
<path d="M146.746 127.945C147.029 127.945 147.258 127.715 147.258 127.432C147.258 127.149 147.029 126.919 146.746 126.919C146.463 126.919 146.233 127.149 146.233 127.432C146.233 127.715 146.463 127.945 146.746 127.945Z" fill="black"/>
<path d="M158.039 127.945C158.322 127.945 158.552 127.715 158.552 127.432C158.552 127.149 158.322 126.919 158.039 126.919C157.756 126.919 157.527 127.149 157.527 127.432C157.527 127.715 157.756 127.945 158.039 127.945Z" fill="black"/>
<path d="M163.675 127.945C163.958 127.945 164.188 127.715 164.188 127.432C164.188 127.149 163.958 126.919 163.675 126.919C163.392 126.919 163.163 127.149 163.163 127.432C163.163 127.715 163.392 127.945 163.675 127.945Z" fill="black"/>
<path d="M138.292 130.979C138.575 130.979 138.804 130.749 138.804 130.466C138.804 130.183 138.575 129.953 138.292 129.953C138.009 129.953 137.779 130.183 137.779 130.466C137.779 130.749 138.009 130.979 138.292 130.979Z" fill="black"/>
<path d="M143.928 130.979C144.211 130.979 144.44 130.749 144.44 130.466C144.44 130.183 144.211 129.953 143.928 129.953C143.645 129.953 143.416 130.183 143.416 130.466C143.416 130.749 143.645 130.979 143.928 130.979Z" fill="black"/>
<path d="M149.585 130.979C149.868 130.979 150.098 130.749 150.098 130.466C150.098 130.183 149.868 129.953 149.585 129.953C149.302 129.953 149.073 130.183 149.073 130.466C149.073 130.749 149.302 130.979 149.585 130.979Z" fill="black"/>
<path d="M160.858 130.979C161.141 130.979 161.37 130.749 161.37 130.466C161.37 130.183 161.141 129.953 160.858 129.953C160.575 129.953 160.345 130.183 160.345 130.466C160.345 130.749 160.575 130.979 160.858 130.979Z" fill="black"/>
<path d="M166.494 130.979C166.777 130.979 167.006 130.749 167.006 130.466C167.006 130.183 166.777 129.953 166.494 129.953C166.211 129.953 165.981 130.183 165.981 130.466C165.981 130.749 166.211 130.979 166.494 130.979Z" fill="black"/>
<path d="M141.11 133.586C141.393 133.586 141.622 133.356 141.622 133.073C141.622 132.79 141.393 132.56 141.11 132.56C140.827 132.56 140.597 132.79 140.597 133.073C140.597 133.356 140.827 133.586 141.11 133.586Z" fill="black"/>
<path d="M146.746 133.586C147.029 133.586 147.258 133.356 147.258 133.073C147.258 132.79 147.029 132.56 146.746 132.56C146.463 132.56 146.233 132.79 146.233 133.073C146.233 133.356 146.463 133.586 146.746 133.586Z" fill="black"/>
<path d="M158.039 133.586C158.322 133.586 158.552 133.356 158.552 133.073C158.552 132.79 158.322 132.56 158.039 132.56C157.756 132.56 157.527 132.79 157.527 133.073C157.527 133.356 157.756 133.586 158.039 133.586Z" fill="black"/>
<path d="M163.675 133.586C163.958 133.586 164.188 133.356 164.188 133.073C164.188 132.79 163.958 132.56 163.675 132.56C163.392 132.56 163.163 132.79 163.163 133.073C163.163 133.356 163.392 133.586 163.675 133.586Z" fill="black"/>
<path d="M168.928 133.415C168.842 133.329 168.8 133.201 168.8 133.073C168.8 132.966 168.821 132.88 168.885 132.795C168.906 133.009 168.906 133.201 168.928 133.415Z" fill="black"/>
<path d="M138.292 136.833C138.575 136.833 138.804 136.603 138.804 136.32C138.804 136.037 138.575 135.807 138.292 135.807C138.009 135.807 137.779 136.037 137.779 136.32C137.779 136.603 138.009 136.833 138.292 136.833Z" fill="black"/>
<path d="M143.928 136.833C144.211 136.833 144.44 136.603 144.44 136.32C144.44 136.037 144.211 135.807 143.928 135.807C143.645 135.807 143.416 136.037 143.416 136.32C143.416 136.603 143.645 136.833 143.928 136.833Z" fill="black"/>
<path d="M160.858 136.833C161.141 136.833 161.37 136.603 161.37 136.32C161.37 136.037 161.141 135.807 160.858 135.807C160.575 135.807 160.345 136.037 160.345 136.32C160.345 136.603 160.575 136.833 160.858 136.833Z" fill="black"/>
<path d="M166.494 136.833C166.777 136.833 167.006 136.603 167.006 136.32C167.006 136.037 166.777 135.807 166.494 135.807C166.211 135.807 165.981 136.037 165.981 136.32C165.981 136.603 166.211 136.833 166.494 136.833Z" fill="black"/>
<path d="M135.986 138.948C135.986 139.226 135.751 139.461 135.474 139.461C135.452 139.461 135.431 139.461 135.41 139.461L135.602 138.435C135.815 138.5 135.986 138.692 135.986 138.948Z" fill="black"/>
<path d="M141.11 139.461C141.393 139.461 141.622 139.231 141.622 138.948C141.622 138.665 141.393 138.435 141.11 138.435C140.827 138.435 140.598 138.665 140.598 138.948C140.598 139.231 140.827 139.461 141.11 139.461Z" fill="black"/>
<path d="M146.746 139.461C147.029 139.461 147.259 139.231 147.259 138.948C147.259 138.665 147.029 138.435 146.746 138.435C146.463 138.435 146.234 138.665 146.234 138.948C146.234 139.231 146.463 139.461 146.746 139.461Z" fill="black"/>
<path d="M158.04 139.461C158.323 139.461 158.552 139.231 158.552 138.948C158.552 138.665 158.323 138.435 158.04 138.435C157.757 138.435 157.527 138.665 157.527 138.948C157.527 139.231 157.757 139.461 158.04 139.461Z" fill="black"/>
<path d="M163.676 139.461C163.959 139.461 164.188 139.231 164.188 138.948C164.188 138.665 163.959 138.435 163.676 138.435C163.393 138.435 163.164 138.665 163.164 138.948C163.164 139.231 163.393 139.461 163.676 139.461Z" fill="black"/>
<path d="M169.376 139.461C169.355 139.461 169.355 139.461 169.333 139.461C169.056 139.461 168.821 139.226 168.821 138.948C168.821 138.67 169.034 138.435 169.312 138.435C169.312 138.756 169.355 139.119 169.376 139.461Z" fill="black"/>
<path d="M138.292 142.495C138.575 142.495 138.804 142.265 138.804 141.982C138.804 141.699 138.575 141.469 138.292 141.469C138.009 141.469 137.779 141.699 137.779 141.982C137.779 142.265 138.009 142.495 138.292 142.495Z" fill="black"/>
<path d="M143.928 142.495C144.211 142.495 144.44 142.265 144.44 141.982C144.44 141.699 144.211 141.469 143.928 141.469C143.645 141.469 143.416 141.699 143.416 141.982C143.416 142.265 143.645 142.495 143.928 142.495Z" fill="black"/>
<path d="M160.858 142.495C161.141 142.495 161.37 142.265 161.37 141.982C161.37 141.699 161.141 141.469 160.858 141.469C160.575 141.469 160.345 141.699 160.345 141.982C160.345 142.265 160.575 142.495 160.858 142.495Z" fill="black"/>
<path d="M166.494 142.495C166.777 142.495 167.006 142.265 167.006 141.982C167.006 141.699 166.777 141.469 166.494 141.469C166.211 141.469 165.981 141.699 165.981 141.982C165.981 142.265 166.211 142.495 166.494 142.495Z" fill="black"/>
<path d="M135.474 145.101C135.757 145.101 135.986 144.872 135.986 144.589C135.986 144.305 135.757 144.076 135.474 144.076C135.191 144.076 134.961 144.305 134.961 144.589C134.961 144.872 135.191 145.101 135.474 145.101Z" fill="black"/>
<path d="M141.11 145.101C141.393 145.101 141.622 144.872 141.622 144.589C141.622 144.305 141.393 144.076 141.11 144.076C140.827 144.076 140.598 144.305 140.598 144.589C140.598 144.872 140.827 145.101 141.11 145.101Z" fill="black"/>
<path d="M158.552 144.589C158.552 144.738 158.488 144.888 158.381 144.973C158.338 144.695 158.296 144.396 158.253 144.119C158.424 144.204 158.552 144.375 158.552 144.589Z" fill="black"/>
<path d="M163.676 145.101C163.959 145.101 164.188 144.872 164.188 144.589C164.188 144.305 163.959 144.076 163.676 144.076C163.393 144.076 163.164 144.305 163.164 144.589C163.164 144.872 163.393 145.101 163.676 145.101Z" fill="black"/>
<path d="M169.333 145.101C169.616 145.101 169.846 144.872 169.846 144.589C169.846 144.305 169.616 144.076 169.333 144.076C169.05 144.076 168.821 144.305 168.821 144.589C168.821 144.872 169.05 145.101 169.333 145.101Z" fill="black"/>
<path d="M138.655 148.349C138.938 148.349 139.167 148.119 139.167 147.836C139.167 147.553 138.938 147.323 138.655 147.323C138.372 147.323 138.143 147.553 138.143 147.836C138.143 148.119 138.372 148.349 138.655 148.349Z" fill="black"/>
<path d="M144.675 147.473L144.398 148.37C144.376 148.37 144.355 148.37 144.312 148.37C144.035 148.37 143.8 148.135 143.8 147.858C143.8 147.58 144.035 147.345 144.312 147.345C144.44 147.323 144.568 147.366 144.675 147.473Z" fill="black"/>
<path d="M161.221 148.349C161.504 148.349 161.733 148.119 161.733 147.836C161.733 147.553 161.504 147.323 161.221 147.323C160.938 147.323 160.708 147.553 160.708 147.836C160.708 148.119 160.938 148.349 161.221 148.349Z" fill="black"/>
<path d="M166.878 148.349C167.161 148.349 167.39 148.119 167.39 147.836C167.39 147.553 167.161 147.323 166.878 147.323C166.595 147.323 166.366 147.553 166.366 147.836C166.366 148.119 166.595 148.349 166.878 148.349Z" fill="black"/>
<path d="M135.837 150.977C136.12 150.977 136.349 150.747 136.349 150.464C136.349 150.181 136.12 149.951 135.837 149.951C135.554 149.951 135.324 150.181 135.324 150.464C135.324 150.747 135.554 150.977 135.837 150.977Z" fill="black"/>
<path d="M141.473 150.977C141.756 150.977 141.985 150.747 141.985 150.464C141.985 150.181 141.756 149.951 141.473 149.951C141.19 149.951 140.96 150.181 140.96 150.464C140.96 150.747 141.19 150.977 141.473 150.977Z" fill="black"/>
<path d="M164.06 150.977C164.343 150.977 164.573 150.747 164.573 150.464C164.573 150.181 164.343 149.951 164.06 149.951C163.777 149.951 163.548 150.181 163.548 150.464C163.548 150.747 163.777 150.977 164.06 150.977Z" fill="black"/>
<path d="M169.696 150.977C169.979 150.977 170.209 150.747 170.209 150.464C170.209 150.181 169.979 149.951 169.696 149.951C169.413 149.951 169.184 150.181 169.184 150.464C169.184 150.747 169.413 150.977 169.696 150.977Z" fill="black"/>
<path d="M133.019 154.011C133.302 154.011 133.531 153.781 133.531 153.498C133.531 153.215 133.302 152.985 133.019 152.985C132.736 152.985 132.506 153.215 132.506 153.498C132.506 153.781 132.736 154.011 133.019 154.011Z" fill="black"/>
<path d="M138.655 154.011C138.938 154.011 139.167 153.781 139.167 153.498C139.167 153.215 138.938 152.985 138.655 152.985C138.372 152.985 138.143 153.215 138.143 153.498C138.143 153.781 138.372 154.011 138.655 154.011Z" fill="black"/>
<path d="M161.221 154.011C161.504 154.011 161.733 153.781 161.733 153.498C161.733 153.215 161.504 152.985 161.221 152.985C160.938 152.985 160.708 153.215 160.708 153.498C160.708 153.781 160.938 154.011 161.221 154.011Z" fill="black"/>
<path d="M166.878 154.011C167.161 154.011 167.39 153.781 167.39 153.498C167.39 153.215 167.161 152.985 166.878 152.985C166.595 152.985 166.366 153.215 166.366 153.498C166.366 153.781 166.595 154.011 166.878 154.011Z" fill="black"/>
<path d="M136.37 156.105C136.37 156.147 136.37 156.19 136.349 156.233H135.346C135.346 156.19 135.324 156.147 135.324 156.105C135.324 155.827 135.559 155.592 135.837 155.592C136.135 155.592 136.37 155.827 136.37 156.105Z" fill="black"/>
<path d="M141.964 155.912L141.857 156.233H140.982C140.982 156.19 140.96 156.147 140.96 156.105C140.96 155.827 141.195 155.592 141.473 155.592C141.708 155.592 141.878 155.72 141.964 155.912Z" fill="black"/>
<path d="M164.573 156.105C164.573 156.169 164.573 156.211 164.551 156.276C164.231 156.276 163.889 156.276 163.569 156.276C163.548 156.233 163.548 156.169 163.548 156.105C163.548 155.827 163.783 155.592 164.06 155.592C164.338 155.592 164.573 155.827 164.573 156.105Z" fill="black"/>
<path d="M170.209 156.105C170.209 156.147 170.209 156.19 170.187 156.233C169.846 156.233 169.526 156.233 169.184 156.233C169.163 156.19 169.163 156.147 169.163 156.105C169.163 155.827 169.397 155.592 169.675 155.592C169.974 155.592 170.209 155.827 170.209 156.105Z" fill="black"/>
<path fill-rule="evenodd" clip-rule="evenodd" d="M119.377 68.1861C119.441 68.2075 119.526 68.2075 119.59 68.2075C120.444 68.2075 121.17 67.2461 121.255 67.0751C121.554 66.6692 121.746 66.1778 121.81 65.6437C122.536 65.9 125.12 66.7546 126.123 66.6051C126.251 66.5837 126.593 66.5196 126.742 66.2632C126.87 66.0282 126.785 65.7718 126.763 65.7077C126.614 65.2377 126.038 65.0668 125.141 64.8318C124.65 64.7036 124.052 64.5327 123.39 64.2763C123.545 64.297 123.721 64.3227 123.913 64.351C124.118 64.3811 124.344 64.4141 124.586 64.4472C124.972 64.4976 125.398 64.5613 125.843 64.6278C125.964 64.6458 126.086 64.664 126.208 64.6822L126.239 64.6869C126.778 64.7699 127.153 64.8278 127.447 64.6181C127.447 64.5967 127.468 64.5967 127.468 64.5967C127.489 64.5967 127.511 64.5754 127.532 64.554C127.767 64.319 127.874 63.9344 127.767 63.6353C127.703 63.443 127.575 63.2935 127.383 63.1653C127.383 63.1439 127.361 63.1439 127.361 63.1439C126.998 62.9302 126.422 62.8021 125.739 62.6525C124.991 62.5029 124.244 62.3534 123.518 62.2466C124.137 62.1825 124.906 62.1184 125.675 62.1397C125.952 62.1397 126.187 62.1611 126.4 62.1825C126.431 62.1845 126.461 62.1865 126.49 62.1885C126.769 62.2075 126.999 62.2232 127.212 62.2038C127.468 62.1611 127.681 62.0756 127.831 61.9047C128.044 61.6697 128.151 61.3492 128.087 61.0501C128.002 60.7083 127.724 60.4305 127.318 60.3023C127.532 60.0459 127.489 59.6613 127.383 59.405C127.318 59.2768 127.212 59.1486 127.084 59.0631C126.721 58.8067 126.144 58.7213 125.376 58.6785C123.604 58.5504 122.622 58.4863 121.768 58.764C121.618 58.8067 121.49 58.8495 121.362 58.9136C120.401 59.2981 119.505 60.0032 118.822 60.8578C118.032 61.8833 117.562 63.0584 117.541 64.1908C117.519 64.9813 117.711 65.8359 118.117 66.6906L118.138 66.7333C118.288 67.0751 118.459 67.417 118.651 67.6734C118.864 67.9511 119.099 68.122 119.377 68.1861ZM121.875 59.0418C122.28 58.9136 122.728 58.8708 123.305 58.8708C123.86 58.8708 124.522 58.9136 125.44 59.0204C126.059 59.0631 126.657 59.1272 126.977 59.3409C127.062 59.405 127.126 59.4691 127.169 59.5545C127.276 59.7468 127.254 60.0032 127.148 60.1314C127.137 60.1421 127.126 60.1474 127.116 60.1528C127.105 60.1581 127.094 60.1634 127.084 60.1741C126.934 60.2596 126.614 60.2596 125.909 60.2382H125.675C125.373 60.2382 125.159 60.2286 125.018 60.2222C124.949 60.2191 124.898 60.2168 124.863 60.2168C124.137 60.1741 123.369 60.2168 122.558 60.3237C122.472 60.3237 122.408 60.4091 122.43 60.4946C122.43 60.5801 122.515 60.6442 122.6 60.6228C123.39 60.4946 124.137 60.4732 124.842 60.516C124.97 60.516 125.205 60.516 125.675 60.5373H125.909C126.057 60.5373 126.189 60.539 126.306 60.5404C126.612 60.5442 126.823 60.5469 126.977 60.516C126.998 60.5373 126.998 60.5373 127.02 60.5373C127.041 60.5373 127.062 60.5427 127.084 60.548C127.105 60.5534 127.126 60.5587 127.148 60.5587C127.532 60.6228 127.81 60.8364 127.874 61.1142C127.916 61.2851 127.852 61.5201 127.703 61.6697C127.596 61.7765 127.468 61.8406 127.276 61.862C127.108 61.8806 126.909 61.8668 126.648 61.8488C126.61 61.8461 126.57 61.8434 126.529 61.8406C126.315 61.8193 126.08 61.7979 125.803 61.7979C124.693 61.7552 123.625 61.8833 122.921 62.0115L122.536 62.0756C122.451 62.097 122.408 62.1611 122.408 62.2466C122.43 62.332 122.472 62.3961 122.558 62.3961C122.686 62.3961 122.814 62.4175 122.942 62.4388C123.881 62.567 124.821 62.738 125.781 62.9302C126.4 63.0584 126.956 63.1866 127.276 63.3789C127.276 63.4003 127.297 63.4003 127.297 63.4003C127.425 63.4857 127.511 63.5712 127.553 63.6994C127.617 63.9131 127.553 64.1481 127.404 64.2976C127.393 64.2976 127.388 64.303 127.383 64.3083C127.377 64.3137 127.372 64.319 127.361 64.319L127.34 64.3404C127.155 64.4431 126.872 64.4075 126.394 64.3476C126.375 64.3452 126.356 64.3428 126.336 64.3404C125.76 64.2763 125.205 64.1908 124.714 64.1053C124.244 64.0199 123.817 63.9558 123.497 63.9131C123.297 63.888 123.111 63.8703 122.958 63.8557C122.849 63.8453 122.757 63.8364 122.686 63.8276L122.451 63.8062C122.366 63.8062 122.301 63.8703 122.28 63.9344C122.259 64.0199 122.301 64.084 122.366 64.1267L122.408 64.1481L122.408 64.1481C122.451 64.1694 122.494 64.1908 122.558 64.2122C122.686 64.2763 122.899 64.3617 123.113 64.4472L123.113 64.4472C123.86 64.7463 124.543 64.9386 125.098 65.0882C125.845 65.2804 126.4 65.43 126.507 65.7505C126.507 65.7505 126.571 65.9214 126.507 66.0496C126.434 66.1774 126.268 66.2116 126.168 66.2322C126.151 66.2357 126.135 66.2388 126.123 66.2419C125.055 66.4128 121.832 65.2591 121.789 65.2377C121.725 65.2163 121.682 65.2377 121.64 65.2591C121.597 65.3018 121.576 65.3445 121.576 65.3873C121.533 65.9214 121.362 66.4342 121.063 66.8615C120.978 66.9897 120.209 68.0366 119.462 67.887C119.249 67.8443 119.078 67.7161 118.907 67.4811C118.715 67.2461 118.565 66.9256 118.416 66.5837L118.395 66.541C118.032 65.7291 117.84 64.9386 117.861 64.1908C117.882 63.1225 118.309 62.0115 119.078 61.0501C119.718 60.2168 120.572 59.5759 121.49 59.1913C121.618 59.1272 121.746 59.0845 121.875 59.0418Z" fill="black"/>
<path d="M145.529 67.2888C145.465 67.2888 145.401 67.2461 145.38 67.182C143.95 62.6525 141.943 58.3367 139.445 54.3841C136.904 50.3888 131.631 42.0777 124.629 37.7405C124.543 37.6978 124.522 37.5909 124.586 37.5268C124.629 37.4414 124.736 37.42 124.8 37.4841C131.866 41.8426 137.161 50.1965 139.701 54.2132C142.22 58.1871 144.227 62.5243 145.679 67.0751C145.7 67.1606 145.657 67.2461 145.572 67.2674C145.572 67.2888 145.551 67.2888 145.529 67.2888Z" fill="black"/>
<path d="M108.297 76.7537C105.201 76.7537 102.02 75.9418 99.2662 74.4462C96.1066 72.737 93.7582 70.2799 92.4559 67.3529C91.1109 64.3404 91.1323 61.862 91.2817 60.6655C91.7941 56.2215 94.0784 50.7734 97.4302 46.1157C102.426 39.1293 108.788 34.963 114.872 34.6425C116.153 34.5784 117.434 34.6853 118.715 34.9416C119.377 35.0698 120.06 35.2621 120.743 35.4971C121.341 35.7108 121.939 35.9458 122.537 36.2236C122.622 36.2663 122.643 36.3518 122.622 36.4372C122.579 36.5227 122.494 36.544 122.408 36.5227C121.832 36.2449 121.234 36.0099 120.637 35.8176C119.975 35.5826 119.313 35.3903 118.651 35.2621C117.391 35.0057 116.132 34.8989 114.894 34.963C108.916 35.2621 102.639 39.407 97.7078 46.2867C94.3987 50.9229 92.1143 56.307 91.602 60.6869C91.4952 61.627 91.3885 64.1695 92.7548 67.2033C94.0357 70.0663 96.3414 72.4592 99.437 74.1257C102.319 75.6854 105.671 76.4973 108.873 76.3904C113.719 76.2409 117.413 74.0616 119.654 72.2456C119.719 72.1815 119.825 72.2028 119.889 72.2669C119.953 72.331 119.932 72.4379 119.868 72.5019C117.584 74.3394 113.805 76.5614 108.895 76.7109C108.681 76.7537 108.489 76.7537 108.297 76.7537Z" fill="black"/>
<path d="M25.4199 82.095C25.3558 82.095 25.2918 82.0523 25.2704 81.9882C24.4378 79.7662 23.6693 77.5014 23.0075 75.2581L22.9861 75.2154C21.7479 71.0491 19.8905 64.7891 18.8658 58.1231C17.1792 47.0344 18.5882 39.1934 23.0288 34.8562C24.267 33.6384 25.8682 32.5915 27.384 31.9505C29.2627 31.1813 31.0133 31.0318 32.465 31.5446C33.5752 31.9291 34.5572 32.7197 35.4325 33.9375C35.4752 34.0016 35.4752 34.1084 35.3899 34.1511C35.3258 34.1939 35.2191 34.1939 35.1764 34.1084C34.3438 32.9547 33.4257 32.2069 32.3796 31.8437C29.4548 30.8181 25.5907 32.8051 23.2636 35.0912C18.8871 39.3643 17.5208 47.0985 19.186 58.0803C20.1894 64.725 22.0681 70.985 23.285 75.1299L23.3063 75.1726C23.9682 77.416 24.7367 79.6593 25.5693 81.8813C25.5907 81.9668 25.548 82.0523 25.4839 82.095C25.4626 82.0736 25.4412 82.095 25.4199 82.095Z" fill="black"/>
<path fill-rule="evenodd" clip-rule="evenodd" d="M77.2766 169.501C73.3057 169.501 69.9325 168.475 67.5842 166.51C66.3886 165.505 65.3425 164.159 64.5953 162.664C63.9548 161.382 63.5492 160.014 63.4211 158.69C63.3144 157.536 63.3998 156.446 63.6773 155.421C64.574 152.237 67.6696 149.396 72.1528 147.644C76.4013 145.977 81.5037 145.486 85.7521 146.319C90.6127 147.254 93.6374 149.667 96.5676 152.004L96.6187 152.045L96.7761 152.169C97.8281 153 98.8276 153.789 99.8851 154.481C101.486 148.819 100.953 141.533 98.348 133.415C93.9288 135.444 86.1578 137.816 78.5789 138.628C72.0461 139.333 63.3144 139.141 58.7457 134.141C58.4468 133.799 58.1479 133.457 57.8917 133.094C54.9406 128.951 55.6422 123.73 55.986 121.172L55.9917 121.13C56.44 117.839 57.6996 114.506 59.5356 111.75C61.6919 108.503 64.5526 106.152 67.8404 104.977C69.3348 104.443 70.8933 104.123 72.4731 104.059C72.4304 103.054 72.4731 102.093 72.6225 101.174C72.8147 100.085 73.1349 99.0591 73.6046 98.1618C76.2091 93.1623 82.6992 92.4572 89.5522 91.7308C93.1389 91.3462 96.8536 90.9403 100.099 89.8934C89.1893 84.1033 84.6847 77.8433 82.2722 73.613C80.7992 71.0277 79.5609 68.2075 78.5362 64.96C73.9035 67.8443 70.8506 71.6687 70.1033 75.4504C69.6337 77.9074 70.2314 79.7662 70.8933 81.7318C71.6405 83.9752 72.409 86.3253 71.3629 89.5729C69.6977 94.7006 65.065 97.8199 61.6065 98.9309C56.8243 100.469 50.6331 99.5291 45.8082 96.5166C43.161 94.8715 41.2182 92.7136 40.3642 90.4702C38.7417 86.2399 40.2788 79.8944 44.5486 73.0147C47.5802 68.1221 51.7859 63.2935 56.6962 59.0845C57.849 58.0803 59.0659 57.1189 60.2828 56.2002C61.4143 55.3456 62.5672 54.555 63.72 53.8073C66.8156 51.7776 70.0393 50.0683 73.263 48.7437C72.5371 47.9104 71.6618 47.3977 70.6157 47.1626C67.9684 46.5644 65.492 48.1027 62.8874 49.7478C62.802 49.7906 62.7166 49.7692 62.6739 49.7051C62.6312 49.641 62.6526 49.5342 62.7166 49.4915C65.3852 47.8036 67.9257 46.2226 70.7011 46.8635C71.854 47.1199 72.7933 47.7181 73.5832 48.6368C79.3261 46.308 85.0263 45.1757 90.5129 45.2825C92.7973 45.3252 95.1884 45.5816 97.6008 46.0516C105.543 47.5899 113.677 51.393 118.822 55.9652C118.886 56.0293 118.886 56.1147 118.843 56.2002C118.779 56.2643 118.694 56.2643 118.608 56.2215C113.506 51.6921 105.415 47.9104 97.5367 46.3721C95.1457 45.9021 92.7759 45.6457 90.5129 45.603C85.0903 45.4961 79.4755 46.6071 73.7967 48.8932C75.291 50.8586 76.0382 53.9347 76.9774 57.8012L76.9777 57.8026C77.4687 59.8323 78.0238 62.1184 78.7497 64.4686C82.6779 62.097 87.1612 60.7083 91.4523 60.5374C94.0782 60.4305 96.576 60.7937 98.839 61.6056C101.081 62.4175 106.525 64.8959 108.894 70.6004C108.894 70.6136 108.903 70.6268 108.914 70.6451C108.921 70.6564 108.929 70.6696 108.937 70.6859C110.752 75.0872 110.453 80.4499 108.169 84.317C106.653 86.9022 104.283 88.7396 100.953 89.9575C103.813 91.4317 106.631 92.6709 109.364 93.8673C115.128 96.3884 120.103 98.5677 122.75 101.943C123.881 103.375 124.5 104.913 124.693 106.665C124.885 108.417 124.586 110.233 123.817 112.049V112.071C122.195 115.874 118.672 119.292 115.726 121.856C122.408 131.15 124.778 146.768 117.797 153.071C115.683 154.994 111.606 157.002 107.912 157.152C106.14 157.229 104.509 156.863 104.221 156.798C104.193 156.792 104.178 156.788 104.176 156.788C102.81 156.446 101.508 155.87 100.12 155.015C99.5222 156.981 98.6469 158.754 97.5367 160.249C94.0996 164.928 87.3319 168.497 80.2868 169.351C79.2407 169.437 78.2373 169.501 77.2766 169.501ZM81.525 146.234C78.4081 146.234 75.163 146.811 72.3023 147.943C67.9044 149.652 64.8942 152.408 64.0189 155.506C63.7414 156.489 63.656 157.536 63.7627 158.668C63.8908 159.95 64.2751 161.275 64.8942 162.514C65.6201 163.988 66.6235 165.27 67.7977 166.253C70.6371 168.646 75.0776 169.608 80.2441 168.988C87.1825 168.155 93.8647 164.629 97.2592 160.014C98.3694 158.519 99.2233 156.746 99.8211 154.78C98.6682 154.032 97.5794 153.178 96.448 152.259C93.5445 149.93 90.5343 147.537 85.7308 146.597C84.3858 146.362 82.9768 146.234 81.525 146.234ZM104.262 156.446C102.895 156.105 101.593 155.528 100.205 154.652C101.849 148.904 101.316 141.512 98.6682 133.265C103.579 130.979 107.998 128.223 111.841 125.061C112.972 124.142 114.232 123.095 115.47 122.027C122.088 131.214 124.436 146.597 117.583 152.793C115.513 154.673 111.52 156.639 107.912 156.788C106.18 156.866 104.589 156.518 104.306 156.456C104.279 156.45 104.264 156.446 104.262 156.446ZM56.3333 121.151C55.9917 123.651 55.2872 128.821 58.1693 132.902C58.4255 133.244 58.703 133.586 59.0019 133.927C63.4852 138.82 72.1101 139.012 78.5575 138.307C86.1151 137.495 93.8647 135.102 98.2626 133.094C95.167 123.629 91.3029 117.946 90.086 116.301C86.1151 117.369 81.952 118.16 78.1732 115.404C75.099 113.16 72.836 108.716 72.4944 104.358C70.9359 104.422 69.3988 104.742 67.9471 105.255C63.3784 106.922 57.5715 112.092 56.3333 121.151ZM98.5615 132.966C95.5299 123.672 91.7298 118.01 90.4275 116.215C90.8012 116.116 91.1748 116.009 91.5442 115.903C91.808 115.827 92.0697 115.753 92.3276 115.681L92.3839 115.665C97.3407 114.239 102.467 112.763 107.72 115.169C111.264 116.771 113.442 119.292 115.256 121.77C114.018 122.839 112.759 123.907 111.627 124.826C107.827 127.966 103.429 130.701 98.5615 132.966ZM101.721 113.545C103.749 113.545 105.799 113.908 107.87 114.848C111.456 116.493 113.677 119.014 115.513 121.535C118.416 118.993 121.896 115.639 123.497 111.9V111.878C124.266 110.084 124.543 108.374 124.351 106.644C124.159 104.956 123.561 103.46 122.472 102.093C119.889 98.8027 114.936 96.6234 109.215 94.1237C106.397 92.8845 103.493 91.6026 100.526 90.0643C97.2438 91.1801 93.4645 91.5906 89.78 91.9907L89.6163 92.0085L89.6097 92.0092C82.8445 92.7354 76.4645 93.4202 73.9248 98.2686C73.4765 99.1232 73.1562 100.106 72.9854 101.174C72.836 102.05 72.7933 103.012 72.836 103.994C73.4978 103.973 74.181 103.994 74.7788 104.059C81.9734 104.849 86.3712 110.703 90.2568 115.895C90.9177 115.703 91.6 115.511 92.2823 115.319L92.2849 115.318L92.6077 115.228C95.5603 114.4 98.6109 113.545 101.721 113.545ZM78.3867 115.147C75.3765 112.947 73.1562 108.609 72.836 104.336C73.4978 104.315 74.1383 104.358 74.7147 104.4C81.7172 105.17 86.0724 110.896 89.8938 116.023C86.051 117.07 82.0161 117.797 78.3867 115.147ZM73.4765 49.0214C70.2314 50.3461 67.0077 52.0553 63.8908 54.085C62.7593 54.8328 61.6065 55.6233 60.475 56.4779C59.2581 57.3966 58.0625 58.3581 56.9097 59.3409C52.0421 63.5285 47.8577 68.3357 44.8262 73.1856C40.6204 79.9585 39.1047 86.2185 40.6845 90.342C41.5171 92.5213 43.3958 94.6151 46.0004 96.2175C50.7398 99.1659 56.8456 100.106 61.5211 98.5891C64.8942 97.4994 69.4202 94.4442 71.064 89.4233C72.0888 86.2612 71.3416 83.9752 70.5944 81.7745C69.9539 79.8516 69.2921 77.8647 69.7831 75.3222C70.5517 71.4337 73.69 67.5238 78.4294 64.5754C77.6822 62.1825 77.1271 59.875 76.6361 57.8239C75.7181 53.9996 74.9709 50.9229 73.4765 49.0214ZM82.5711 73.4207C81.0767 70.8568 79.8598 68.0152 78.8351 64.7677C82.7206 62.3961 87.1825 61.0074 91.4736 60.8151C94.0569 60.7296 96.512 61.0715 98.7323 61.8834C100.91 62.6739 106.268 65.1095 108.596 70.7073C108.596 70.7179 108.601 70.7286 108.606 70.7393C108.612 70.75 108.617 70.7607 108.617 70.7714C110.389 75.0872 110.111 80.343 107.87 84.1247C106.354 86.7099 103.963 88.5473 100.547 89.7224C95.2311 86.9449 87.6308 82.2232 82.5711 73.4207Z" fill="black"/>
<path d="M51.7431 53.8927C51.0172 53.8927 50.2913 53.8286 49.5441 53.7218C47.9216 53.4868 44.1428 52.9313 41.6236 49.9828C40.3214 48.4445 40.0225 47.0771 39.6168 45.1756C39.4034 44.2356 39.1899 43.1459 38.7842 41.864C38.6348 41.394 38.464 40.8812 38.2719 40.3684C38.2505 40.283 38.2719 40.1975 38.3573 40.1548C38.4427 40.112 38.528 40.1548 38.5707 40.2189C38.5707 40.2189 38.5921 40.2402 38.5921 40.2616C38.7842 40.7744 38.955 41.2871 39.1045 41.7572C39.5101 43.0605 39.7449 44.1501 39.9584 45.0902C40.3641 46.949 40.6416 48.2736 41.9012 49.7478C44.3563 52.6108 48.0497 53.1449 49.6295 53.3799C51.4869 53.6577 53.2588 53.5722 55.0521 53.1449C55.5432 53.0381 56.0555 52.8885 56.5252 52.7176L56.6106 52.6962L56.6747 52.8458L56.7174 52.9954L56.632 53.0167C56.1409 53.1876 55.6286 53.3372 55.1162 53.4654C53.9847 53.7431 52.8745 53.8927 51.7431 53.8927Z" fill="black"/>
<path d="M131.332 174.607C131.247 174.607 131.183 174.543 131.183 174.479C130.478 169.415 129.795 164.33 129.155 159.373C127.084 143.606 125.184 127.667 123.497 111.985C123.134 108.674 122.793 105.319 122.451 102.029C121.405 91.9444 120.444 81.7104 119.548 71.6473C119.462 70.4295 119.377 69.233 119.292 68.0366C119.292 67.9511 119.356 67.8657 119.441 67.8657C119.526 67.8657 119.612 67.9298 119.612 68.0152C119.697 69.1903 119.783 70.4081 119.868 71.6046C120.765 81.689 121.725 91.9017 122.771 101.986C123.113 105.276 123.455 108.631 123.817 111.942C125.504 127.625 127.404 143.563 129.475 159.331C130.009 163.433 130.564 167.621 131.14 171.83C131.14 171.787 131.14 171.744 131.14 171.723V171.68C131.14 171.616 131.033 165.142 130.905 158.733C130.799 153.37 129.688 123.501 127.618 70.0022C127.49 67.9511 127.361 65.9641 127.255 64.4686L127.404 64.4472H127.575C127.682 65.9428 127.81 67.9298 127.938 69.9808C130.009 123.501 131.119 153.348 131.226 158.733C131.354 165.142 131.46 171.616 131.46 171.68V171.723C131.482 172.641 131.482 173.56 131.503 174.457C131.482 174.543 131.418 174.607 131.332 174.607Z" fill="black"/>
<path d="M118.95 61.1142C118.864 61.1142 118.8 61.0501 118.8 60.9646C118.693 59.0845 118.608 57.5462 118.544 56.1147C118.117 46.9917 118.096 39.9198 118.523 35.1126C118.864 31.0531 119.505 28.5748 120.465 27.5706C120.828 27.2074 121.17 27.0578 121.533 27.186C121.981 27.3356 123.348 27.7629 124.885 37.6123C125.696 42.8254 126.443 50.0897 127.148 59.1699C127.148 59.2554 127.084 59.3409 126.998 59.3409C126.913 59.3409 126.827 59.2768 126.827 59.1913C126.123 50.111 125.354 42.8682 124.564 37.655C123.326 29.6644 122.173 27.7201 121.447 27.4851C121.213 27.421 120.956 27.5065 120.7 27.7842C119.804 28.7243 119.184 31.2027 118.843 35.1339C118.437 39.9198 118.437 46.9703 118.864 56.0933C118.928 57.5248 119.014 59.0631 119.12 60.9433C119.12 61.0287 119.056 61.1142 118.95 61.1142C118.971 61.1142 118.971 61.1142 118.95 61.1142Z" fill="black"/>
<path fill-rule="evenodd" clip-rule="evenodd" d="M121.49 48.7864H122.75C122.835 48.7864 122.899 48.7223 122.921 48.6368C123.177 45.7952 123.198 42.8895 123.006 40.0266C122.878 38.1037 122.622 35.9458 122.344 34.2366C121.835 31.245 121.495 31.2453 121.323 31.2454C121.322 31.2454 121.321 31.2454 121.32 31.2454C121.149 31.2454 120.807 31.2668 120.615 34.3648C120.487 36.074 120.466 38.2319 120.508 40.1548C120.594 42.9964 120.871 45.8593 121.341 48.6582C121.341 48.7223 121.405 48.7864 121.49 48.7864ZM122.6 48.4659H121.618C121.149 45.7311 120.893 42.9323 120.828 40.1334C120.722 35.9672 120.999 32.0787 121.32 31.5873C121.704 32.0573 122.387 35.9885 122.665 40.048C122.857 42.8468 122.835 45.6884 122.6 48.4659Z" fill="black"/>
<path d="M127.297 63.2508H127.126C127.105 62.9944 127.084 62.7166 127.062 62.4389L127.041 62.0116C127.041 61.9261 127.105 61.8406 127.19 61.8406C127.276 61.8406 127.361 61.9047 127.361 61.9902L127.383 62.4175C127.404 62.6953 127.425 62.9516 127.447 63.2294L127.297 63.2508Z" fill="black"/>
</g>
</svg>
