<svg width="190" height="190" viewBox="0 0 190 190" fill="none" xmlns="http://www.w3.org/2000/svg">
<mask id="mask0" mask-type="alpha" maskUnits="userSpaceOnUse" x="0" y="0" width="190" height="190">
<rect width="190" height="190" fill="white"/>
</mask>
<g mask="url(#mask0)">
<path d="M180.199 27.933C177.486 27.933 174.619 25.8567 171.701 21.7299C171.65 21.653 171.65 21.5249 171.752 21.4736C171.829 21.4224 171.957 21.4224 172.008 21.5249C174.952 25.6773 177.793 27.7023 180.455 27.5741C182.631 27.4459 184.115 25.9849 185.702 24.4213C187.289 22.8578 188.928 21.2429 191.308 21.1148C193.944 20.9866 196.709 22.7552 199.473 26.395C199.55 26.4719 199.525 26.6001 199.448 26.677C199.371 26.7539 199.243 26.7282 199.166 26.6513C196.479 23.1397 193.842 21.3967 191.334 21.5249C189.107 21.6274 187.597 23.1397 185.984 24.7033C184.423 26.2412 182.81 27.8304 180.506 27.9586C180.404 27.933 180.302 27.933 180.199 27.933Z" fill="black"/>
<path d="M10.7502 90.9883C8.2417 90.9883 5.60526 89.0659 2.89202 85.2467C2.84083 85.1698 2.84083 85.0417 2.94322 84.9904C3.02001 84.9391 3.14799 84.9391 3.19918 85.0417C5.93801 88.8609 8.54886 90.732 11.0061 90.6039C13.0027 90.5013 14.3849 89.1428 15.8439 87.7074C17.3029 86.272 18.8131 84.7597 21.04 84.6572C23.4972 84.529 26.0313 86.1695 28.5909 89.5273C28.6677 89.6042 28.6421 89.7324 28.5654 89.8093C28.4886 89.8862 28.3606 89.8605 28.2838 89.7836C25.8009 86.5283 23.3693 84.9391 21.0656 85.0673C19.0178 85.1698 17.61 86.554 16.1254 88.015C14.692 89.4504 13.1818 90.9115 11.0573 91.014C10.9293 90.9883 10.827 90.9883 10.7502 90.9883Z" fill="black"/>
<path fill-rule="evenodd" clip-rule="evenodd" d="M14.0777 56.718C14.1033 56.7436 14.1545 56.7693 14.2056 56.7693L17.482 56.5386C17.4973 56.5309 17.5126 56.5256 17.5272 56.5204C17.5615 56.5084 17.592 56.4977 17.61 56.4617C17.6356 56.4361 17.6612 56.3848 17.6612 56.3335L17.4308 53.0526C17.4308 52.9501 17.3284 52.8732 17.226 52.8732L13.9497 53.1039C13.8473 53.1039 13.7705 53.2064 13.7705 53.3089L14.0009 56.5898C14.0085 56.6051 14.0139 56.6204 14.019 56.6351C14.031 56.6694 14.0418 56.7 14.0777 56.718ZM14.3592 56.3848L14.1545 53.4883L17.0469 53.2833L17.2516 56.1797L14.3592 56.3848Z" fill="black"/>
<path d="M153.225 68.1578L154.979 71.9485L151.194 73.7054L149.439 69.9147L153.225 68.1578Z" fill="#01BDB7"/>
<path d="M43.002 45.6705C42.9508 45.6705 42.8996 45.6448 42.874 45.6192C42.7972 45.5423 42.7972 45.4141 42.874 45.3372L45.5104 42.5433C45.5872 42.4664 45.7152 42.4664 45.792 42.5433C45.8688 42.6202 45.8688 42.7484 45.792 42.8253L43.13 45.6192C43.1044 45.6448 43.0532 45.6705 43.002 45.6705Z" fill="black"/>
<path d="M117.872 26.0106C117.82 26.0106 117.769 25.9849 117.744 25.9593C117.667 25.8824 117.667 25.7542 117.744 25.6773L120.354 22.8834C120.431 22.8065 120.559 22.8065 120.636 22.8834C120.713 22.9603 120.713 23.0885 120.636 23.1654L118.025 25.9593C117.974 25.9849 117.923 26.0106 117.872 26.0106Z" fill="black"/>
<path d="M154.603 24.8058C154.551 24.8058 154.475 24.7802 154.449 24.7289L152.376 21.4992C152.325 21.4223 152.35 21.2942 152.427 21.2429C152.529 21.1917 152.632 21.2173 152.683 21.2942L154.756 24.5239C154.807 24.6007 154.782 24.7289 154.705 24.7802C154.679 24.8058 154.654 24.8058 154.603 24.8058Z" fill="black"/>
<path d="M177.205 106.983C177.179 106.983 177.153 106.983 177.128 106.957L173.723 105.214C173.621 105.163 173.595 105.06 173.647 104.958C173.698 104.855 173.8 104.83 173.903 104.881L177.307 106.624C177.409 106.675 177.435 106.778 177.384 106.88C177.358 106.957 177.281 106.983 177.205 106.983Z" fill="black"/>
<path d="M163.971 149.943C163.894 149.943 163.843 149.917 163.792 149.84C163.741 149.738 163.766 149.635 163.868 149.584L167.222 147.738C167.324 147.687 167.426 147.713 167.478 147.815C167.529 147.918 167.503 148.02 167.401 148.071L164.048 149.917C164.022 149.943 163.996 149.943 163.971 149.943Z" fill="black"/>
<path d="M141.446 53.1039C141.421 53.1039 141.395 53.1039 141.369 53.0782C141.267 53.027 141.241 52.9245 141.293 52.8219L143.008 49.3872C143.059 49.2847 143.161 49.259 143.264 49.3103C143.366 49.3616 143.392 49.4641 143.34 49.5666L141.625 53.0013C141.574 53.0526 141.497 53.1039 141.446 53.1039Z" fill="black"/>
<path d="M172.827 68.7396C172.802 68.7396 172.751 68.7396 172.725 68.7139C172.623 68.6627 172.597 68.5345 172.648 68.4576L174.593 65.1511C174.645 65.0485 174.773 65.0229 174.849 65.0742C174.952 65.1254 174.977 65.2536 174.926 65.3305L172.981 68.637C172.955 68.7139 172.904 68.7396 172.827 68.7396Z" fill="black"/>
<path d="M68.5728 155.659C68.4704 155.659 68.3936 155.582 68.3936 155.505C68.368 155.402 68.4448 155.3 68.5472 155.274L72.3355 154.633C72.4379 154.608 72.5403 154.685 72.5659 154.787C72.5915 154.89 72.5147 154.992 72.4123 155.018L68.624 155.659C68.5728 155.659 68.5728 155.659 68.5728 155.659Z" fill="black"/>
<path d="M19.1715 18.0902C19.1203 18.0902 19.0435 18.0645 19.0179 18.0133L16.8422 14.8605C16.791 14.7836 16.791 14.6554 16.8934 14.6042C16.9702 14.5529 17.0982 14.5529 17.1494 14.6554L19.3251 17.8082C19.3763 17.8851 19.3763 18.0133 19.2739 18.0645C19.2483 18.0902 19.2227 18.0902 19.1715 18.0902Z" fill="black"/>
<path d="M44.2048 135.46C44.1536 135.46 44.1024 135.435 44.0512 135.409C43.9745 135.332 43.9745 135.204 44.0512 135.127L46.8669 132.538C46.9437 132.461 47.0716 132.461 47.1484 132.538C47.2252 132.615 47.2252 132.743 47.1484 132.82L44.3328 135.409C44.3072 135.435 44.256 135.46 44.2048 135.46Z" fill="black"/>
<path d="M50.9367 171.192C50.9111 171.192 50.8855 171.192 50.8855 171.192C50.7831 171.166 50.7319 171.038 50.7575 170.961L51.9349 167.321C51.9605 167.219 52.0885 167.167 52.1653 167.193C52.2677 167.219 52.3189 167.347 52.2933 167.424L51.1159 171.064C51.0903 171.14 51.0135 171.192 50.9367 171.192Z" fill="black"/>
<path fill-rule="evenodd" clip-rule="evenodd" d="M68.7519 19.0385C69.0591 19.3461 69.4686 19.5256 69.9038 19.5256C70.3389 19.5256 70.7484 19.3461 71.0556 19.0385C71.3628 18.731 71.5419 18.3208 71.5419 17.8851C71.5419 17.4493 71.3628 17.0392 71.0556 16.7316C70.4157 16.0908 69.3918 16.0908 68.7519 16.7316C68.112 17.3724 68.112 18.3977 68.7519 19.0385ZM69.0335 18.7822C68.5471 18.2952 68.5471 17.5006 69.0335 17.0136C69.5198 16.5266 70.3133 16.5266 70.774 17.0392C71.0044 17.2699 71.1324 17.5775 71.1324 17.9107C71.1324 18.2439 71.0044 18.5515 70.774 18.7822C70.5437 19.0129 70.2365 19.1411 69.9038 19.1411C69.571 19.1411 69.2638 19.0129 69.0335 18.7822Z" fill="black"/>
<path d="M19.1713 163.579C19.9347 163.579 20.5535 162.959 20.5535 162.195C20.5535 161.43 19.9347 160.811 19.1713 160.811C18.4079 160.811 17.7891 161.43 17.7891 162.195C17.7891 162.959 18.4079 163.579 19.1713 163.579Z" fill="#01BDB7"/>
<path d="M66.2945 60.4859C66.9024 60.4859 67.3951 59.9925 67.3951 59.3837C67.3951 58.775 66.9024 58.2816 66.2945 58.2816C65.6866 58.2816 65.1938 58.775 65.1938 59.3837C65.1938 59.9925 65.6866 60.4859 66.2945 60.4859Z" fill="#01BDB7"/>
<path d="M179.022 170.987C180.026 170.987 180.839 170.172 180.839 169.167C180.839 168.162 180.026 167.347 179.022 167.347C178.018 167.347 177.205 168.162 177.205 169.167C177.205 170.172 178.018 170.987 179.022 170.987Z" fill="#01BDB7"/>
<path d="M27.3879 122.516C28.844 122.516 30.0244 121.334 30.0244 119.876C30.0244 118.418 28.844 117.236 27.3879 117.236C25.9318 117.236 24.7515 118.418 24.7515 119.876C24.7515 121.334 25.9318 122.516 27.3879 122.516Z" fill="#01BDB7"/>
<path fill-rule="evenodd" clip-rule="evenodd" d="M78.566 38.146C78.5915 38.1716 78.6171 38.1716 78.6426 38.1716C78.6925 38.1716 78.7364 38.1533 78.7741 38.1375C78.8137 38.121 78.8465 38.1073 78.8727 38.1204C78.911 38.0309 78.9494 37.9477 78.9877 37.8645C79.0261 37.7814 79.0644 37.6982 79.1027 37.6087C79.1027 37.5831 79.1027 37.5575 79.1283 37.5319C79.4862 36.8411 79.9974 36.2781 80.6875 35.792C80.8664 35.6641 81.0709 35.5361 81.2754 35.4082C82.1189 34.8964 83.0647 34.5638 83.9082 34.2823C84.0871 34.2056 84.2661 34.1544 84.445 34.1032C85.723 33.6938 87.0522 33.5147 88.4325 33.4891C88.4836 33.4891 88.5348 33.4636 88.5859 33.4124C88.637 33.3612 88.637 33.2845 88.637 33.2333L87.4101 24.329H97.6345C97.7623 24.329 97.8646 24.2266 97.8646 24.0987C97.8646 23.9708 97.7623 23.8684 97.6345 23.8684H87.1545C87.1033 23.8684 87.0522 23.894 87.0011 23.9452C86.95 23.9963 86.95 24.0731 86.95 24.1243L88.1769 33.0286C86.8477 33.0542 85.5441 33.2589 84.3172 33.6427C84.1127 33.6938 83.9338 33.745 83.7293 33.8218C83.6827 33.8387 83.6358 33.8558 83.5886 33.8729C82.7815 34.1661 81.8906 34.4897 81.0454 34.9732C80.8409 35.0755 80.6108 35.2291 80.4319 35.357C79.6906 35.8943 79.1283 36.5084 78.7449 37.2249C78.7321 37.2377 78.7257 37.2505 78.7193 37.2632C78.7129 37.276 78.7065 37.2888 78.6938 37.3016C78.6147 37.4401 78.5509 37.5939 78.4906 37.7393C78.4729 37.782 78.4555 37.8239 78.4381 37.8645C78.387 37.9669 78.4637 38.0948 78.566 38.146ZM90.3496 47.6388C90.324 47.6388 90.2985 47.6388 90.2729 47.6132C89.7361 47.4085 89.2249 47.1526 88.7137 46.8968C88.6114 46.8456 88.5603 46.7177 88.6114 46.6153C88.6626 46.513 88.7904 46.4618 88.8926 46.513C89.276 46.7177 89.6595 46.8968 90.0684 47.0503L88.6626 36.6875C87.0011 36.6875 85.5441 36.8666 84.4194 37.1737C84.2405 37.2249 84.0871 37.276 83.9338 37.3272C83.8315 37.3784 83.7037 37.3016 83.6526 37.1993C83.6015 37.0969 83.6782 36.969 83.7804 36.9178C83.9338 36.8666 84.1127 36.8155 84.2916 36.7643C85.493 36.4317 87.0778 36.2526 88.8415 36.2526C88.9437 36.2526 89.046 36.3293 89.046 36.4317L90.5285 47.3573C90.5285 47.4341 90.503 47.5109 90.4518 47.562C90.4518 47.6132 90.4007 47.6388 90.3496 47.6388ZM101.187 60.3812H92.0878C91.9855 60.3812 91.8833 60.3044 91.8833 60.2021L91.7299 59.0251L91.6815 58.6613L91.6815 58.6612C91.544 57.6265 91.4044 56.5756 91.2442 55.5452C91.0653 54.2147 90.8864 52.9097 90.6819 51.5792C89.5316 51.1954 88.4325 50.7093 87.359 50.1463C87.1033 50.0184 86.8477 49.8649 86.6177 49.7114C86.5154 49.6602 86.4899 49.5067 86.541 49.4043C86.5921 49.302 86.7455 49.2764 86.8477 49.3276C87.0778 49.4811 87.3334 49.609 87.589 49.7369C88.6626 50.3254 89.8128 50.8116 90.9631 51.1954C91.0397 51.221 91.0909 51.2978 91.1164 51.3745C91.2996 52.5892 91.4622 53.8243 91.6227 55.0433L91.6788 55.4684C91.7554 56.0441 91.8385 56.6261 91.9216 57.2081L91.9216 57.2084L91.9216 57.2086C92.0047 57.7906 92.0878 58.3727 92.1644 58.9483L92.2922 59.9462H101.187C101.315 59.9462 101.418 60.0485 101.418 60.1765C101.418 60.3044 101.315 60.3812 101.187 60.3812Z" fill="black"/>
<path opacity="0.1" d="M113.457 31.2886C112.357 39.3486 111.258 47.4341 110.134 55.494C109.929 57.0548 109.699 58.6156 109.495 60.1509H101.187C101.29 58.4109 101.417 56.671 101.52 54.9311C100.983 54.4705 100.369 53.8053 99.807 52.9353C98.7078 51.2465 98.3755 49.5834 98.2733 48.6111C98.0688 48.6623 97.8132 48.6878 97.5065 48.6878C95.5383 48.5855 93.5189 46.2059 93.4423 43.7495C93.3656 41.5235 94.8737 39.0927 96.4585 38.9648C97.2509 38.888 97.7876 39.3486 97.7876 39.3486C97.9666 39.5021 98.1966 39.7324 98.4267 40.3976C98.6056 40.8838 98.8356 41.677 98.8612 42.7005C98.9123 42.0096 99.0146 41.0373 99.2957 39.9371C99.3213 39.8859 99.3213 39.8347 99.3469 39.7579C99.3469 39.7324 99.3724 39.6812 99.3724 39.6556C99.3724 39.63 99.398 39.6044 99.398 39.5533C99.398 39.5277 99.4235 39.5021 99.4235 39.4765C99.4747 39.2718 99.5514 39.0415 99.628 38.7856C99.6536 38.7089 99.6792 38.6321 99.7047 38.5809C99.7047 38.5298 99.7303 38.5042 99.7558 38.453C99.7558 38.4018 99.7814 38.3762 99.807 38.3251C99.8581 38.1716 99.9092 37.9924 99.9859 37.8133C99.9859 37.7877 99.9859 37.7877 100.011 37.7622C100.037 37.711 100.063 37.6342 100.088 37.5575C100.088 37.5575 100.088 37.5575 100.088 37.5319C100.139 37.4039 100.19 37.276 100.241 37.1481V37.1225C100.267 37.0713 100.293 36.9945 100.318 36.9434C100.344 36.8666 100.395 36.7898 100.42 36.6875C100.497 36.5084 100.599 36.3037 100.702 36.1246C100.753 36.0222 100.804 35.9455 100.855 35.8431C100.932 35.7152 100.983 35.5873 101.059 35.4593C101.136 35.3058 101.238 35.1779 101.315 35.0243C101.341 34.9988 101.341 34.9732 101.366 34.9476C101.417 34.8452 101.494 34.7685 101.571 34.6661C101.673 34.5126 101.801 34.3591 101.929 34.18C101.98 34.1288 102.005 34.0776 102.056 34.0009C102.082 33.9753 102.082 33.9497 102.107 33.9497C102.159 33.8985 102.21 33.8217 102.261 33.7706C102.312 33.6938 102.389 33.6426 102.44 33.5659C102.491 33.4891 102.568 33.4379 102.644 33.3612C102.695 33.31 102.772 33.2332 102.823 33.1821C102.9 33.1053 102.977 33.0541 103.053 32.9774C103.104 32.9262 103.155 32.875 103.207 32.8239C103.283 32.7471 103.36 32.6703 103.462 32.6192C103.513 32.568 103.59 32.5168 103.641 32.4656C103.794 32.3377 103.948 32.2353 104.127 32.133C104.203 32.0818 104.28 32.0307 104.357 31.9795C106.836 30.4443 110.389 30.1628 113.457 31.2886Z" fill="black"/>
<path fill-rule="evenodd" clip-rule="evenodd" d="M101.187 60.3811H109.495C109.597 60.3811 109.699 60.2788 109.648 60.0997L109.827 58.8459C109.904 58.283 109.98 57.7137 110.057 57.1444C110.134 56.5751 110.211 56.0058 110.287 55.4428C111.291 48.2469 112.275 41.0306 113.257 33.8302C113.375 32.9657 113.492 32.1015 113.61 31.2375C113.636 31.1351 113.585 31.0328 113.482 31.0072C110.338 29.8558 106.734 30.1372 104.127 31.7492L103.897 31.9027C103.856 31.9319 103.817 31.9597 103.778 31.9869C103.648 32.0787 103.53 32.1622 103.411 32.2609C103.386 32.2865 103.354 32.3121 103.322 32.3377C103.29 32.3633 103.258 32.3889 103.232 32.4145C103.194 32.4528 103.149 32.4912 103.105 32.5296C103.06 32.568 103.015 32.6064 102.977 32.6448C102.9 32.6959 102.849 32.7471 102.798 32.7983C102.721 32.8494 102.644 32.9262 102.568 33.003L102.389 33.1821C102.312 33.2333 102.235 33.31 102.184 33.3868C102.159 33.4252 102.127 33.4571 102.095 33.4891C102.063 33.5211 102.031 33.5531 102.005 33.5915C101.98 33.6299 101.954 33.6618 101.929 33.6938C101.903 33.7258 101.878 33.7578 101.852 33.7962C101.852 33.8218 101.827 33.8473 101.827 33.8473C101.801 33.8985 101.75 33.9753 101.699 34.0265C101.571 34.18 101.443 34.3591 101.341 34.5126L101.315 34.5382C101.29 34.5894 101.258 34.6341 101.226 34.6789C101.194 34.7237 101.162 34.7685 101.136 34.8197C101.111 34.8452 101.085 34.8708 101.085 34.8964C101.047 34.9732 101.002 35.0435 100.957 35.1139C100.913 35.1843 100.868 35.2546 100.83 35.3314C100.791 35.3954 100.759 35.4593 100.727 35.5233C100.695 35.5873 100.663 35.6512 100.625 35.7152C100.574 35.792 100.523 35.8943 100.472 35.9967C100.37 36.1758 100.267 36.3805 100.191 36.5596L100.088 36.8154L100.088 36.8155C100.063 36.8666 100.037 36.9178 100.012 36.9946V37.0201C99.9605 37.1737 99.9094 37.3016 99.8583 37.4295C99.8455 37.4551 99.8391 37.4807 99.8327 37.5063C99.8263 37.5319 99.82 37.5575 99.8072 37.5831L99.7816 37.6342C99.7816 37.6342 99.7561 37.6598 99.7561 37.6854C99.7305 37.775 99.6985 37.8645 99.6666 37.9541C99.6346 38.0436 99.6027 38.1332 99.5771 38.2227C99.5771 38.2355 99.5707 38.2547 99.5643 38.2739C99.558 38.2931 99.5516 38.3123 99.5516 38.3251C99.526 38.3763 99.5004 38.4274 99.5004 38.453L99.4238 38.6833C99.3886 38.8124 99.3534 38.9307 99.3207 39.0407C99.2821 39.1706 99.2469 39.2889 99.2193 39.3997L99.0915 39.8603L99.0914 39.8604C99.0148 40.2186 98.9381 40.5768 98.8614 40.9606C98.8103 40.7303 98.7336 40.5 98.6569 40.2953C98.3758 39.5533 98.1457 39.2974 97.9412 39.1439C97.9157 39.1183 97.3022 38.6321 96.4587 38.7089C94.7716 38.8624 93.1613 41.3444 93.238 43.724C93.3147 46.2571 95.3851 48.7646 97.5067 48.8925C97.7112 48.8925 97.8901 48.8925 98.0946 48.867C98.2991 50.3766 98.8103 51.8095 99.6282 53.0632C100.088 53.7797 100.676 54.4449 101.315 55.0334L100.983 60.1509C100.983 60.202 101.009 60.2532 101.034 60.3044C101.06 60.3556 101.136 60.3811 101.187 60.3811ZM109.316 59.9462H101.418L101.699 54.9311C101.699 54.8543 101.673 54.8032 101.622 54.752C100.957 54.1891 100.395 53.5238 99.935 52.8074C99.1426 51.5536 98.6058 50.0951 98.4524 48.5599C98.4475 48.5501 98.4426 48.5393 98.4375 48.528C98.4161 48.4811 98.3915 48.427 98.3502 48.4064C98.2991 48.3808 98.2224 48.3552 98.1713 48.3808C97.9412 48.432 97.7112 48.4576 97.4811 48.432C95.6152 48.3296 93.6981 45.9756 93.6214 43.6984C93.5703 41.5746 95.0017 39.2718 96.4587 39.1439C97.1488 39.0927 97.6345 39.4765 97.6345 39.4765C97.7879 39.6044 97.9923 39.8091 98.2224 40.4488C98.478 41.1397 98.6058 41.8817 98.6314 42.6749C98.6314 42.7772 98.7081 42.8796 98.8359 42.8796C98.9637 42.8796 99.0659 42.8028 99.0659 42.6749C99.117 41.7538 99.2704 40.8326 99.5004 39.9371L99.6283 39.4765C99.6635 39.3352 99.711 39.1816 99.7623 39.0159C99.7853 38.9416 99.809 38.8649 99.8327 38.7857C99.8583 38.7345 99.8839 38.6577 99.9094 38.581L99.9094 38.581C99.9222 38.5554 99.9286 38.5362 99.935 38.517C99.9414 38.4978 99.9478 38.4786 99.9605 38.453V38.4274C99.9605 38.4146 99.9669 38.4018 99.9733 38.3891C99.9797 38.3763 99.9861 38.3635 99.9861 38.3507V38.3251C100.007 38.2612 100.033 38.1973 100.06 38.1315C100.097 38.0393 100.135 37.9435 100.165 37.8389L100.191 37.7366C100.191 37.6854 100.216 37.6342 100.242 37.5831L100.395 37.1993L100.421 37.1481L100.497 36.9946L100.6 36.7643C100.651 36.6747 100.695 36.5788 100.74 36.4828C100.785 36.3869 100.83 36.2909 100.881 36.2014C100.906 36.1502 100.932 36.1054 100.957 36.0606C100.983 36.0158 101.009 35.9711 101.034 35.9199C101.071 35.8278 101.121 35.7489 101.175 35.6642C101.196 35.6313 101.217 35.5975 101.239 35.5617C101.315 35.4082 101.392 35.2802 101.494 35.1267C101.51 35.1267 101.516 35.1169 101.524 35.1034C101.53 35.0951 101.536 35.0853 101.545 35.0755C101.564 35.0469 101.583 35.0148 101.604 34.9805C101.638 34.9226 101.676 34.8583 101.724 34.7941C101.788 34.7173 101.846 34.6405 101.903 34.5638C101.961 34.487 102.018 34.4103 102.082 34.3335C102.108 34.2567 102.159 34.2056 102.21 34.1544L102.235 34.1288L102.261 34.1032C102.312 34.0265 102.363 33.9753 102.414 33.9241C102.44 33.8857 102.472 33.8537 102.504 33.8218C102.536 33.7898 102.568 33.7578 102.593 33.7194C102.644 33.6426 102.696 33.5915 102.772 33.5147L102.772 33.5147L102.951 33.3356C103.028 33.2844 103.105 33.2077 103.181 33.1309C103.232 33.1053 103.283 33.0541 103.335 33.003L103.335 33.003C103.373 32.9646 103.418 32.9326 103.462 32.9006C103.507 32.8686 103.552 32.8367 103.59 32.7983C103.641 32.7727 103.718 32.7215 103.769 32.6703C103.846 32.6192 103.923 32.5616 103.999 32.504C104.076 32.4465 104.153 32.3889 104.229 32.3377C104.28 32.3121 104.357 32.2609 104.434 32.2098C106.836 30.7257 110.287 30.4187 113.227 31.4422L109.929 55.4684C109.853 56.0313 109.776 56.6007 109.699 57.17C109.623 57.7393 109.546 58.3086 109.469 58.8715L109.316 59.9462Z" fill="black"/>
<path d="M127.336 69.1831C127.311 69.1831 127.285 69.1831 127.259 69.1575C125.649 68.5179 124.039 67.9038 122.454 67.3664C120.383 66.6244 118.262 65.9336 116.166 65.3195C116.089 65.2939 116.013 65.2171 116.013 65.1148C115.91 63.6819 115.885 57.3107 115.987 55.9034C115.987 55.8523 116.013 55.8011 116.064 55.7499C116.677 55.2382 117.239 54.6497 117.751 54.01C118.85 52.6539 119.693 51.0675 120.205 49.3531C120.23 49.2508 120.358 49.174 120.46 49.1996C120.665 49.2508 120.844 49.2508 121.048 49.2508C122.786 49.1484 124.55 46.7433 124.627 44.4148C124.678 42.6493 123.809 40.4488 122.479 40.1418C121.815 39.9883 121.176 40.2953 121.099 40.3465C120.179 40.8071 119.923 41.7794 119.872 42.0864C119.847 42.2143 119.744 42.2911 119.617 42.2655C119.489 42.2399 119.412 42.1376 119.438 42.0096C119.514 41.677 119.821 40.5256 120.895 39.9883C121.022 39.9115 121.764 39.5533 122.582 39.758C124.141 40.1418 125.138 42.4958 125.061 44.466C124.984 47.0503 123.042 49.609 121.074 49.7369C120.895 49.7369 120.741 49.7369 120.562 49.7114C120.026 51.4257 119.182 52.9865 118.083 54.3426C117.572 54.9567 117.009 55.5452 116.422 56.0569C116.345 57.5666 116.345 63.3237 116.447 64.9613C118.492 65.5753 120.562 66.2662 122.607 66.9826C124.192 67.5455 125.802 68.1341 127.413 68.7737C127.515 68.8249 127.592 68.9528 127.541 69.0552C127.489 69.1319 127.413 69.1831 127.336 69.1831Z" fill="black"/>
<path d="M89.8637 67.52C89.7615 67.52 89.6848 67.4432 89.6593 67.3408C89.6337 67.2129 89.7104 67.1106 89.8126 67.085C90.4261 66.9315 91.014 66.8035 91.6275 66.65C93.3912 66.2406 95.206 65.8568 97.0975 65.4986C98.2989 65.2683 99.5003 65.038 100.651 64.8333L100.957 60.1253C100.957 59.9974 101.059 59.9206 101.187 59.9206C101.315 59.9206 101.392 60.0229 101.392 60.1509L101.085 65.0124C101.085 65.1148 101.008 65.1915 100.906 65.2171C99.6792 65.4218 98.4267 65.6777 97.1742 65.908C95.3082 66.2662 93.4678 66.6756 91.7297 67.0594C91.1162 67.1873 90.5028 67.3408 89.9149 67.4688C89.9149 67.52 89.8893 67.52 89.8637 67.52Z" fill="black"/>
<path fill-rule="evenodd" clip-rule="evenodd" d="M98.6569 42.6749C98.6825 42.7773 98.7592 42.8796 98.887 42.8796C98.9892 42.8796 99.0914 42.8028 99.0659 42.7261C99.117 41.8049 99.2704 40.8838 99.5004 39.9883L99.6282 39.5277C99.6635 39.3864 99.711 39.2328 99.7623 39.0671C99.7852 38.9928 99.809 38.9161 99.8327 38.8368C99.8583 38.7857 99.8838 38.7089 99.9094 38.6322C99.9222 38.6066 99.9286 38.5874 99.935 38.5682C99.9414 38.549 99.9477 38.5298 99.9605 38.5042V38.4786C99.9605 38.4658 99.9669 38.453 99.9733 38.4402C99.9797 38.4275 99.9861 38.4147 99.9861 38.4019V38.3763C100.037 38.2228 100.088 38.0692 100.165 37.8901L100.191 37.7878C100.191 37.7562 100.2 37.7343 100.214 37.7041C100.222 37.6854 100.232 37.6636 100.242 37.6343L100.395 37.2505L100.421 37.1993L100.497 37.0458L100.6 36.8155C100.651 36.7259 100.695 36.63 100.74 36.534C100.785 36.4381 100.83 36.3421 100.881 36.2526C100.906 36.2014 100.932 36.1566 100.957 36.1118C100.983 36.067 101.009 36.0223 101.034 35.9711C101.085 35.8688 101.162 35.7408 101.239 35.6129L101.239 35.6129C101.315 35.4594 101.392 35.3314 101.494 35.1779C101.51 35.1779 101.516 35.1681 101.524 35.1546C101.53 35.1463 101.536 35.1365 101.545 35.1267C101.596 35.0244 101.648 34.9476 101.724 34.8453C101.788 34.7685 101.846 34.6917 101.903 34.615C101.961 34.5382 102.018 34.4615 102.082 34.3847C102.108 34.3079 102.159 34.2568 102.21 34.2056L102.235 34.18L102.261 34.1544C102.312 34.0777 102.363 34.0265 102.414 33.9753C102.44 33.9369 102.472 33.9049 102.504 33.873C102.536 33.841 102.568 33.809 102.593 33.7706C102.644 33.6938 102.696 33.6427 102.772 33.5659L102.951 33.3868C102.985 33.3367 103.029 33.2974 103.077 33.2548C103.102 33.2323 103.129 33.2087 103.156 33.1821L103.309 33.0286C103.347 32.9902 103.392 32.9582 103.437 32.9262C103.482 32.8942 103.526 32.8623 103.565 32.8239C103.616 32.7983 103.692 32.7471 103.744 32.6959C103.82 32.6448 103.897 32.5872 103.974 32.5296C104.05 32.4721 104.127 32.4145 104.204 32.3633C104.255 32.3377 104.331 32.2866 104.408 32.2354C106.888 30.7002 110.415 30.4187 113.38 31.5189C113.431 31.5445 113.508 31.5189 113.559 31.4934C113.61 31.4678 113.661 31.4166 113.661 31.3398L114.658 24.1243C114.658 24.0475 114.658 23.9963 114.607 23.9452C114.581 23.894 114.505 23.8684 114.454 23.8684H97.66C97.5833 23.8684 97.5322 23.894 97.4811 23.9452C97.43 23.9963 97.4044 24.0475 97.43 24.1243C97.4555 24.2778 97.5067 24.4057 97.5578 24.5337L97.5578 24.5337C98.4013 26.5551 101.213 27.2459 103.948 26.8877C103.002 27.3994 101.852 28.1414 100.83 29.1138C99.4749 30.3931 98.5802 31.8004 98.5547 31.8516C98.478 31.9539 98.4269 32.0307 98.4013 32.0819L98.3757 32.133C97.1488 34.1544 96.4331 36.4573 96.2542 38.9136C96.2286 38.9904 96.2542 39.0671 96.3053 39.0927C96.3564 39.1183 96.4331 39.1439 96.4842 39.1439C97.1744 39.0927 97.66 39.4765 97.66 39.4765C97.8134 39.6045 98.0179 39.8092 98.2479 40.4488C98.5035 41.1397 98.6313 41.8817 98.6569 42.6749ZM97.9412 39.1439C97.9156 39.1183 97.43 38.7345 96.7143 38.7089C96.9443 36.4061 97.6345 34.2823 98.7336 32.3377L98.7592 32.2866C98.7697 32.2654 98.7847 32.2398 98.8023 32.2098C98.8271 32.1674 98.857 32.1162 98.887 32.0563C98.887 32.0307 99.7816 30.6234 101.085 29.3952C102.747 27.8344 104.792 26.8365 105.584 26.4783C105.712 26.4271 105.763 26.2992 105.712 26.1968C105.686 26.0945 105.558 26.0433 105.456 26.0689C101.673 27.1947 98.6569 26.0433 97.9156 24.3034C97.9156 24.2906 97.9092 24.2778 97.9029 24.265C97.8965 24.2522 97.8901 24.2394 97.8901 24.2266H114.147C113.994 25.3397 113.84 26.4591 113.687 27.5785C113.533 28.698 113.38 29.8174 113.227 30.9304C110.134 29.8814 106.683 30.214 104.127 31.7748L103.897 31.9283C103.856 31.9575 103.817 31.9853 103.778 32.0125C103.648 32.1043 103.53 32.1878 103.411 32.2866C103.386 32.3121 103.354 32.3377 103.322 32.3633C103.29 32.3889 103.258 32.4145 103.232 32.4401C103.156 32.4913 103.053 32.568 102.977 32.6448C102.9 32.696 102.849 32.7471 102.798 32.7983C102.721 32.8495 102.644 32.9262 102.568 33.003L102.389 33.1821C102.312 33.2333 102.235 33.31 102.184 33.3868C102.159 33.4252 102.127 33.4572 102.095 33.4891C102.063 33.5211 102.031 33.5531 102.005 33.5915C101.98 33.6299 101.954 33.6619 101.929 33.6938C101.903 33.7258 101.878 33.7578 101.852 33.7962C101.852 33.8218 101.826 33.8474 101.826 33.8474C101.801 33.8985 101.75 33.9753 101.699 34.0265C101.571 34.18 101.443 34.3591 101.341 34.5126C101.302 34.5638 101.271 34.615 101.239 34.6662C101.207 34.7173 101.175 34.7685 101.136 34.8197C101.111 34.8453 101.085 34.8709 101.085 34.8964C101.047 34.9732 101.002 35.0436 100.957 35.1139C100.913 35.1843 100.868 35.2547 100.83 35.3314C100.791 35.3954 100.759 35.4594 100.727 35.5233C100.695 35.5873 100.663 35.6513 100.625 35.7152C100.574 35.792 100.523 35.8943 100.472 35.9967L100.472 35.9967C100.369 36.1758 100.267 36.3805 100.191 36.5596L100.088 36.8155C100.063 36.8922 100.037 36.9434 100.012 36.9946L100.216 37.0713L100.012 37.0202C99.9605 37.1737 99.9094 37.3016 99.8583 37.4296L99.8583 37.4296C99.8455 37.4551 99.8391 37.4807 99.8327 37.5063C99.8263 37.5319 99.8199 37.5575 99.8072 37.5831L99.7816 37.6343C99.7816 37.647 99.7752 37.6534 99.7688 37.6598C99.7624 37.6662 99.756 37.6726 99.756 37.6854C99.7305 37.775 99.6985 37.8645 99.6666 37.9541C99.6346 38.0436 99.6027 38.1332 99.5771 38.2228C99.5771 38.2356 99.5707 38.2547 99.5643 38.2739C99.5579 38.2931 99.5515 38.3123 99.5515 38.3251C99.526 38.3763 99.5004 38.4275 99.5004 38.453L99.4237 38.6833C99.3886 38.8124 99.3534 38.9307 99.3207 39.0407C99.2821 39.1706 99.2469 39.2889 99.2193 39.3998L99.0914 39.8603C99.0148 40.2185 98.9381 40.5768 98.8614 40.9606C98.8103 40.7303 98.7336 40.5 98.6569 40.2953C98.3757 39.5533 98.1457 39.2974 97.9412 39.1439Z" fill="black"/>
<path d="M122.505 39.9371C121.764 39.758 121.048 40.1162 120.972 40.1674C119.924 40.7047 119.668 41.8305 119.617 42.0352C119.617 41.9585 119.642 41.8817 119.642 41.805C119.642 41.7538 119.642 41.7026 119.668 41.6514C119.668 41.6003 119.668 41.5235 119.694 41.4723C119.694 41.37 119.719 41.2676 119.719 41.1653C119.719 41.0885 119.719 41.0118 119.719 40.935C119.745 40.3977 119.719 39.758 119.617 39.016C119.617 38.9648 119.591 38.888 119.591 38.8369C119.591 38.8113 119.591 38.7857 119.591 38.7601C119.591 38.7089 119.566 38.6577 119.566 38.6066C119.54 38.5042 119.54 38.4019 119.515 38.2995C119.489 38.2228 119.489 38.146 119.464 38.0437C119.438 37.9669 119.438 37.8901 119.412 37.8134C119.387 37.711 119.361 37.6343 119.336 37.5319C119.31 37.4552 119.285 37.404 119.285 37.3272C119.259 37.2505 119.234 37.1737 119.208 37.0969C119.182 36.9946 119.157 36.9178 119.106 36.8155C119.08 36.7387 119.055 36.662 119.003 36.5596C118.978 36.4828 118.927 36.3805 118.901 36.3037C118.876 36.227 118.85 36.1502 118.799 36.0735C118.799 36.0479 118.773 36.0223 118.773 36.0223C118.748 35.9455 118.697 35.8943 118.671 35.8176V35.792C118.62 35.7152 118.594 35.6385 118.543 35.5361C118.492 35.4594 118.441 35.3826 118.416 35.3058C118.364 35.2035 118.288 35.1011 118.237 34.9988C118.211 34.9476 118.16 34.8709 118.109 34.8197C118.109 34.8197 118.109 34.8197 118.083 34.7941C118.032 34.7173 117.981 34.6662 117.955 34.5894C117.879 34.4871 117.828 34.3847 117.751 34.3079C116.626 32.8751 115.144 31.8772 113.508 31.2887C113.84 28.8835 114.172 26.4783 114.505 24.0731H97.7111C97.4555 23.024 97.7622 21.6679 98.5546 20.8747C99.7049 19.7233 101.826 19.5442 103.641 20.6956C100.676 18.6998 99.6282 15.3479 100.727 12.8916C101.392 11.4075 103.002 9.97463 104.638 10.0258C107.015 10.1282 109.597 13.4033 109.623 18.3672C109.725 14.0174 111.489 11.1005 113.431 10.8446C114.965 10.6399 116.217 12.1751 116.294 12.2775C117.879 14.2733 117.47 17.9066 114.939 21.1306C115.246 20.7724 116.882 18.8533 119.131 19.058C119.489 19.0836 120.895 19.2116 121.508 20.2351C122.147 21.3353 121.508 22.7426 121.278 23.2032C119.847 26.248 115.502 26.7598 114.811 26.8365C115.348 27.0924 116.064 27.4762 116.831 28.0647C116.831 28.0647 117.316 28.4741 117.828 28.9347C122.326 33.1565 122.505 38.7857 122.505 39.9371Z" fill="#009691"/>
<path fill-rule="evenodd" clip-rule="evenodd" d="M119.847 42.0864L119.413 42.0097V41.9585C119.413 41.9355 119.418 41.9125 119.423 41.8871C119.43 41.8561 119.438 41.8216 119.438 41.7794L119.464 41.6258C119.464 41.5747 119.464 41.4979 119.489 41.4467C119.489 41.3956 119.496 41.3444 119.502 41.2933L119.502 41.2932L119.502 41.2932C119.508 41.242 119.515 41.1908 119.515 41.1397V40.9094C119.54 40.2697 119.515 39.6301 119.413 39.016V38.9904C119.413 38.9392 119.413 38.9136 119.387 38.8624V38.7857C119.387 38.737 119.377 38.6986 119.369 38.6705C119.365 38.6543 119.362 38.6415 119.362 38.6322C119.349 38.581 119.342 38.5298 119.336 38.4787L119.336 38.4786L119.336 38.4786C119.33 38.4274 119.323 38.3763 119.31 38.3251C119.297 38.2836 119.29 38.242 119.283 38.1964C119.277 38.1577 119.271 38.1162 119.259 38.0692C119.246 38.0309 119.24 37.9925 119.234 37.9541C119.227 37.9157 119.221 37.8773 119.208 37.839C119.195 37.7878 119.183 37.743 119.17 37.6982C119.157 37.6535 119.144 37.6087 119.131 37.5575C119.119 37.5191 119.112 37.4872 119.106 37.4552L119.106 37.4552L119.106 37.4551C119.099 37.4231 119.093 37.3912 119.08 37.3528L119.004 37.1225C118.978 37.0202 118.953 36.9434 118.901 36.8411C118.876 36.7643 118.85 36.6875 118.799 36.6108C118.789 36.5797 118.774 36.5486 118.759 36.5158C118.736 36.4676 118.712 36.4158 118.697 36.3549C118.671 36.2781 118.646 36.2014 118.595 36.1502L118.569 36.0734C118.544 35.9967 118.518 35.9455 118.467 35.8688L118.441 35.8432C118.429 35.8048 118.409 35.7728 118.39 35.7408L118.39 35.7408L118.39 35.7408C118.371 35.7088 118.352 35.6768 118.339 35.6385L118.314 35.6129L118.288 35.5617C118.275 35.5361 118.256 35.5041 118.237 35.4722C118.218 35.4402 118.198 35.4082 118.186 35.3826C118.16 35.3314 118.128 35.2802 118.096 35.2291C118.064 35.1779 118.032 35.1267 118.007 35.0756C117.981 35.0244 117.956 34.9732 117.905 34.922L117.879 34.8709L117.879 34.8708C117.828 34.7941 117.777 34.7173 117.726 34.6662C117.687 34.615 117.655 34.5702 117.623 34.5254L117.623 34.5253C117.591 34.4806 117.559 34.4358 117.521 34.3847C116.473 33.0798 115.042 32.0563 113.355 31.4422L113.201 31.391L113.227 31.2119C113.38 30.048 113.54 28.8842 113.7 27.7203L113.7 27.7193L113.7 27.7182C113.86 26.5543 114.019 25.3905 114.173 24.2266H97.4557L97.4046 24.0731C97.0978 22.8961 97.4812 21.4888 98.2992 20.67C99.245 19.7233 100.753 19.4163 102.236 19.8257C100.242 17.8043 99.5006 14.9897 100.523 12.7636C101.213 11.254 102.875 9.69317 104.664 9.76993C106.734 9.84669 108.984 12.2007 109.648 16.0132C110.185 12.9683 111.617 10.819 113.406 10.5887C115.016 10.384 116.32 11.9192 116.448 12.0984C117.905 13.915 117.726 16.8831 116.115 19.6977C116.882 19.1604 117.93 18.6998 119.131 18.8022C120.691 18.9301 121.381 19.5698 121.688 20.1071C122.396 21.2976 121.702 22.7639 121.465 23.2649L121.458 23.2799C120.256 25.813 117.138 26.6574 115.527 26.9389C116.039 27.2203 116.524 27.5274 116.959 27.8856C116.959 27.8856 117.47 28.295 117.956 28.7555C122.173 32.696 122.659 37.839 122.684 39.8859V40.1674L122.403 40.0906C121.739 39.9371 121.1 40.2441 121.023 40.2953C120.154 40.8326 119.898 41.805 119.847 42.0864ZM118.748 35.4849C118.761 35.5233 118.78 35.5553 118.799 35.5873C118.818 35.6193 118.838 35.6513 118.85 35.6896C118.85 35.6896 118.85 35.7152 118.876 35.7152C118.884 35.7307 118.891 35.7486 118.9 35.768L118.9 35.7681C118.919 35.8129 118.942 35.8664 118.978 35.9199L119.004 35.9711C119.016 36.0095 119.036 36.0478 119.055 36.0862L119.055 36.0862C119.074 36.1246 119.093 36.163 119.106 36.2014C119.119 36.2398 119.138 36.2845 119.157 36.3293C119.176 36.3741 119.195 36.4189 119.208 36.4573C119.221 36.4956 119.24 36.5404 119.259 36.5852C119.278 36.63 119.298 36.6747 119.31 36.7131C119.326 36.7774 119.353 36.8416 119.376 36.8995L119.376 36.8995L119.376 36.8996C119.39 36.9339 119.403 36.966 119.413 36.9946L119.489 37.2249C119.493 37.2359 119.497 37.2464 119.5 37.2565C119.502 37.2611 119.503 37.2656 119.505 37.2701C119.524 37.3241 119.54 37.3688 119.54 37.4296C119.566 37.5319 119.592 37.6343 119.617 37.711C119.643 37.7878 119.668 37.8645 119.668 37.9413C119.681 37.9797 119.687 38.0245 119.694 38.0692C119.7 38.114 119.707 38.1588 119.719 38.1972C119.745 38.2995 119.77 38.4019 119.77 38.5042C119.77 38.5298 119.777 38.5554 119.783 38.581C119.79 38.6066 119.796 38.6322 119.796 38.6577V38.7345C119.796 38.7601 119.802 38.7793 119.809 38.7985L119.809 38.7985C119.815 38.8177 119.822 38.8369 119.822 38.8624V38.888C119.898 39.4765 119.924 40.0906 119.924 40.7047C120.154 40.3977 120.435 40.0906 120.87 39.8859C120.997 39.8092 121.585 39.5277 122.275 39.6045C122.224 37.4807 121.611 32.7215 117.674 29.0626C117.189 28.602 116.703 28.2182 116.703 28.2182C116.09 27.7576 115.425 27.3483 114.735 27.0156L114.275 26.7853C114.173 27.5018 114.077 28.2182 113.981 28.9347C113.885 29.6511 113.789 30.3675 113.687 31.084C115.374 31.7236 116.805 32.7727 117.879 34.1032L118.109 34.4103C118.135 34.4359 118.154 34.4679 118.173 34.4998C118.192 34.5318 118.211 34.5638 118.237 34.5894L118.288 34.6662C118.301 34.6917 118.32 34.7173 118.339 34.7429C118.358 34.7685 118.377 34.7941 118.39 34.8197C118.429 34.8709 118.46 34.922 118.492 34.9732C118.524 35.0244 118.556 35.0756 118.595 35.1267C118.615 35.157 118.631 35.1873 118.646 35.216C118.67 35.2601 118.692 35.3004 118.722 35.3314L118.774 35.3826L118.748 35.4849ZM114.684 23.8428H97.8135C97.6346 22.8705 97.9669 21.6935 98.657 21.0282C99.7817 19.8768 101.801 19.8257 103.463 20.8747L103.693 20.5165C101.009 18.6742 99.8329 15.4247 100.932 12.9939C101.571 11.6122 103.079 10.2049 104.689 10.2305C107.501 10.3584 109.444 14.5291 109.469 18.3672H109.904C110.006 14.4524 111.54 11.3307 113.508 11.0749C114.83 10.9064 115.971 12.2088 116.145 12.4072C116.156 12.4198 116.163 12.4279 116.166 12.431C117.751 14.4268 117.189 17.9578 114.812 21.0282L115.144 21.3097C115.553 20.798 117.087 19.1348 119.157 19.3139C120.256 19.3907 120.997 19.7745 121.355 20.3886C121.936 21.3743 121.32 22.6846 121.107 23.1357L121.1 23.152C119.796 25.941 115.962 26.5295 114.812 26.6574L114.3 26.7086C114.364 26.2736 114.422 25.8386 114.479 25.4036C114.537 24.9687 114.594 24.5337 114.658 24.0987L114.684 23.8428Z" fill="black"/>
<path fill-rule="evenodd" clip-rule="evenodd" d="M160.489 123.888C159.85 119.155 158.112 113.244 154.917 105.261C154.752 104.848 154.587 104.44 154.424 104.036L154.422 104.032C154.181 103.435 153.944 102.847 153.715 102.267C152.079 98.1477 150.622 94.6679 149.191 91.5974C147.146 87.2476 145.101 83.7678 142.443 80.6206C141.293 79.2645 140.066 77.9595 138.66 76.6802C134.493 72.8933 130.429 70.5393 127.566 69.1064C127.53 69.0883 127.497 69.0733 127.466 69.0594C127.41 69.0339 127.36 69.0115 127.311 68.9785C126.263 73.7632 123.604 77.8316 120.026 80.6206C116.856 83.0769 112.996 84.5354 108.932 84.6377C107.91 84.6633 106.938 84.5866 105.967 84.4586C102.644 83.9725 99.6025 82.5652 97.0975 80.6462C93.7745 78.113 91.3718 74.6332 90.4005 71.1789C89.9659 69.6437 89.8637 68.2876 89.8637 67.3409C88.9946 67.52 87.7421 67.827 86.2596 68.3132C85.7716 68.4695 85.2836 68.6557 84.8069 68.8375C84.6595 68.8938 84.5131 68.9496 84.3681 69.004C80.2272 70.6928 76.5208 73.3027 71.0252 78.1898C70.7915 78.4024 70.5539 78.6171 70.3129 78.8347L70.3124 78.8352C69.6837 79.4031 69.0319 79.9918 68.3669 80.6206C67.5489 81.3882 66.7309 82.1814 65.8619 83.0258C66.3475 82.2326 66.8332 81.4394 67.3189 80.6206C68.0346 79.418 68.7503 78.2154 69.4915 76.9616C73.1212 70.7184 76.3163 64.7054 79.1281 58.9739L79.4348 58.3598L76.5208 57.3619C75.0361 56.8592 73.5514 56.3519 72.0647 55.8438C70.0704 55.1623 68.0726 54.4796 66.0664 53.8053C65.5169 53.6134 64.9674 53.4279 64.4179 53.2425L64.4177 53.2424C63.8681 53.0569 63.3185 52.8714 62.769 52.6795C62.4622 52.5771 62.1555 52.4748 61.8743 52.3724C60.0339 54.6753 58.398 56.9013 56.9411 58.9739C54.2827 62.7864 52.2889 66.1639 50.8064 68.7993L50.6349 69.1092C48.7083 72.59 46.5326 76.5208 44.6462 80.6206C43.2403 83.691 42.0134 86.8382 41.1699 89.9599C40.0196 94.2073 39.5851 98.4036 40.4286 102.242C40.6075 103.086 40.8632 103.93 41.1699 104.749C41.3064 105.101 41.4578 105.437 41.6128 105.782L41.6128 105.782C41.6609 105.889 41.7094 105.996 41.7578 106.105L41.7637 106.117C42.356 107.277 43.8904 110.282 47.1767 112.144C51.4966 114.575 56.1742 113.526 61.951 112.144C62.2066 112.093 62.4877 112.016 62.7688 111.939L62.769 111.939C66.6031 110.967 71.8943 109.176 77.7222 105.721C77.6946 105.874 77.652 106.078 77.5985 106.335L77.5984 106.336L77.5983 106.336C77.5529 106.554 77.4996 106.81 77.441 107.103C76.8531 109.943 75.6262 116.161 74.1181 123.863C73.6889 126.054 73.2337 128.363 72.7633 130.75L72.7632 130.751C71.8328 135.472 70.8426 140.496 69.875 145.509C69.116 149.372 68.3636 153.216 67.6437 156.893C66.933 160.523 66.254 163.991 65.6318 167.156C64.6554 172.154 63.8138 176.362 63.2409 179.226L62.999 180.436C63.1141 180.436 63.2355 180.429 63.3569 180.423C63.4783 180.417 63.5997 180.41 63.7147 180.41C65.5807 180.346 67.4467 180.276 69.3126 180.205C71.1786 180.135 73.0445 180.065 74.9105 180.001C76.4953 179.937 78.0801 179.879 79.6648 179.822H79.6649C81.2497 179.764 82.8344 179.707 84.4192 179.643C84.9815 179.617 85.5439 179.591 86.0807 179.591C87.9466 179.527 89.8126 179.457 91.6785 179.387C93.5445 179.316 95.4105 179.246 97.2764 179.182L97.5653 179.172L97.5672 179.172C100.386 179.073 103.227 178.973 106.044 178.849C106.862 178.824 107.654 178.798 108.472 178.747C110.338 178.683 112.204 178.613 114.07 178.542C115.936 178.472 117.802 178.402 119.668 178.338C120.997 178.286 122.333 178.235 123.668 178.184L123.673 178.184C125.007 178.133 126.341 178.082 127.669 178.031C128.193 178.005 128.723 177.986 129.253 177.967C129.784 177.947 130.314 177.928 130.838 177.903C132.702 177.839 134.566 177.768 136.429 177.698L136.436 177.698C138.302 177.628 140.168 177.557 142.034 177.493L143.516 177.442C143.414 176.342 143.312 175.242 143.235 174.167C143.031 171.813 142.826 169.484 142.622 167.156C142.558 166.465 142.5 165.768 142.443 165.071C142.385 164.373 142.328 163.676 142.264 162.985C142.187 162.039 142.111 161.067 142.034 160.095L142.034 160.094C141.995 159.57 141.951 159.051 141.906 158.533L141.906 158.533C141.861 158.015 141.817 157.497 141.778 156.972C141.714 156.102 141.644 155.239 141.574 154.375C141.503 153.512 141.433 152.648 141.369 151.778C141.19 149.68 141.037 147.608 140.884 145.509L140.883 145.508V145.508C140.781 144.255 140.679 143.001 140.602 141.748C141.011 141.927 141.497 142.106 142.059 142.285C143.363 142.695 145.101 143.079 147.12 143.079C147.606 143.079 148.373 143.079 149.319 142.976C150.469 142.874 151.849 142.592 153.255 142.03C154.124 141.671 154.993 141.211 155.811 140.571C155.837 140.546 155.862 140.526 155.888 140.507C155.913 140.488 155.939 140.469 155.965 140.443C156.604 139.931 158.981 137.91 160.233 133.176C160.54 131.974 160.745 130.72 160.847 129.364C160.847 127.726 160.77 125.91 160.489 123.888ZM99.398 98.2501C99.4491 98.1221 99.5769 97.8151 99.9092 97.6616C101.52 96.8684 105.149 101.551 105.609 102.165L105.303 101.704C104.996 101.269 103.283 98.6339 102.133 95.8193C101.98 95.4611 101.852 95.0773 101.724 94.6936L101.724 94.6935C101.596 94.2841 101.341 93.4653 101.698 92.7233C101.929 92.2883 102.389 91.8021 102.925 91.8021C103.546 91.8021 103.998 92.5028 104.281 92.9415L104.306 92.9791C104.996 94.0794 105.456 94.9493 105.865 95.7937C105.871 95.8058 105.877 95.8193 105.883 95.8335C105.904 95.8797 105.928 95.9337 105.967 95.9728C106.085 96.208 106.199 96.4431 106.316 96.6819L106.316 96.682C106.554 97.1707 106.8 97.6745 107.092 98.2245C107.092 98.2245 107.603 99.1968 108.37 100.399C108.728 100.962 109.162 101.602 109.597 102.216C109.561 102.158 109.522 102.098 109.482 102.034C109.38 101.874 109.265 101.694 109.137 101.474C109.127 101.455 109.114 101.436 109.1 101.416C109.077 101.381 109.051 101.343 109.035 101.295C108.919 101.107 108.803 100.902 108.678 100.681L108.678 100.681L108.678 100.681C108.582 100.511 108.481 100.332 108.37 100.144C108.309 100.021 108.242 99.8934 108.172 99.7597C108.096 99.6131 108.016 99.4596 107.935 99.2991C107.923 99.2736 107.91 99.2544 107.897 99.2352C107.884 99.216 107.871 99.1968 107.859 99.1712C107.782 99.0177 107.705 98.8642 107.654 98.7362C107.629 98.6978 107.609 98.6531 107.59 98.6083C107.571 98.5635 107.552 98.5187 107.526 98.4804C107.169 97.6872 106.811 96.7916 106.478 95.8193C106.427 95.6659 106.376 95.487 106.325 95.308L106.325 95.3076C106.299 95.2052 106.274 95.1029 106.223 95.0005C106.217 94.9845 106.212 94.9696 106.207 94.9554C106.188 94.9013 106.172 94.8566 106.172 94.7958C106.159 94.7702 106.152 94.7382 106.146 94.7063C106.14 94.6743 106.133 94.6423 106.121 94.6167C106.108 94.5785 106.095 94.5339 106.082 94.4893L106.082 94.4888C106.069 94.444 106.057 94.3992 106.044 94.3608C106.018 94.2841 105.993 94.2073 105.993 94.1305C105.98 94.0922 105.974 94.0538 105.967 94.0154C105.961 93.977 105.954 93.9386 105.942 93.9003V93.8747C105.763 93.1582 105.584 92.365 105.507 91.623C105.379 90.6251 105.43 89.7552 105.942 89.3202C105.95 89.3114 105.956 89.3057 105.961 89.3019C105.964 89.2993 105.967 89.2976 105.97 89.2966C105.976 89.2946 105.982 89.2946 105.993 89.2946C106.006 89.2946 106.012 89.2882 106.018 89.2818C106.025 89.2754 106.031 89.269 106.044 89.269C106.057 89.269 106.063 89.2626 106.069 89.2562C106.076 89.2498 106.082 89.2434 106.095 89.2434C106.108 89.2306 106.127 89.2242 106.146 89.2178C106.165 89.2114 106.184 89.205 106.197 89.1922C106.21 89.1922 106.229 89.1858 106.248 89.1795C106.268 89.1731 106.287 89.1667 106.299 89.1667C106.31 89.1667 106.317 89.1667 106.322 89.1647C106.33 89.162 106.336 89.1558 106.351 89.1411H106.402H106.453H106.504H106.53H106.581H106.76C107.143 89.1667 107.475 89.4225 107.782 89.8063C107.862 89.9021 107.932 90.0079 108.004 90.1175L108.004 90.1176C108.047 90.1836 108.092 90.2508 108.14 90.3181C108.153 90.3436 108.165 90.3628 108.178 90.3819L108.178 90.382C108.191 90.4012 108.204 90.4204 108.217 90.446C108.229 90.4716 108.242 90.4908 108.255 90.51C108.268 90.5292 108.28 90.5484 108.293 90.5739C108.344 90.6763 108.395 90.7786 108.447 90.9066C108.453 90.9203 108.46 90.9322 108.467 90.9432C108.484 90.9733 108.498 90.997 108.498 91.0345C108.51 91.0473 108.517 91.0665 108.523 91.0857C108.53 91.1049 108.536 91.1241 108.549 91.1369C108.549 91.1497 108.555 91.1624 108.562 91.1752C108.568 91.188 108.574 91.2008 108.574 91.2136L108.651 91.3671C108.677 91.4183 108.702 91.4695 108.702 91.5207C108.856 91.9045 109.009 92.3139 109.162 92.7233C109.188 92.7744 109.213 92.8256 109.213 92.9024C109.252 93.0176 109.29 93.1264 109.329 93.2352C109.367 93.3439 109.405 93.4525 109.443 93.5676L109.597 93.9514C109.648 94.0794 109.699 94.2329 109.75 94.3864C109.771 94.4503 109.797 94.5141 109.824 94.5798L109.824 94.58L109.824 94.5801C109.861 94.6723 109.899 94.7681 109.929 94.8726C109.936 94.8923 109.942 94.9103 109.949 94.9275C109.955 94.9438 109.961 94.9594 109.967 94.9749C109.98 95.0069 109.993 95.0389 110.006 95.0773C110.108 95.3587 110.236 95.6402 110.364 95.9216L110.364 95.9223C110.492 96.2036 110.619 96.4848 110.747 96.7916C110.764 96.8412 110.791 96.8907 110.822 96.9472C110.839 96.9782 110.857 97.0112 110.875 97.0475C110.881 97.0603 110.888 97.0727 110.894 97.0848C110.901 97.0977 110.907 97.1102 110.914 97.1226C110.951 97.1912 110.984 97.253 111.003 97.3289C111.068 97.449 111.129 97.5737 111.191 97.7011C111.274 97.8723 111.36 98.0484 111.463 98.2245C111.501 98.3012 111.546 98.3844 111.591 98.4676C111.635 98.5507 111.68 98.6339 111.718 98.7106C111.8 98.8558 111.882 99.0043 111.964 99.1548L111.965 99.1551C112.115 99.4289 112.269 99.7094 112.434 99.99C112.485 100.067 112.536 100.144 112.587 100.246C112.626 100.314 112.669 100.382 112.713 100.452L112.713 100.452C112.783 100.565 112.856 100.682 112.92 100.809C112.255 99.248 111.77 97.7895 111.361 96.4846C111.309 96.331 111.258 96.1775 111.233 96.024C111.233 96.0112 111.226 95.9984 111.22 95.9856C111.214 95.9728 111.207 95.96 111.207 95.9472C111.182 95.8706 111.163 95.8004 111.143 95.7301L111.143 95.7297C111.124 95.6594 111.105 95.589 111.079 95.5122C111.054 95.4099 111.028 95.3139 111.003 95.218C110.977 95.122 110.952 95.0261 110.926 94.9237C110.9 94.847 110.881 94.7702 110.862 94.6934C110.843 94.6167 110.824 94.5399 110.798 94.4632C110.785 94.3992 110.773 94.3416 110.76 94.2841C110.747 94.2265 110.734 94.1689 110.722 94.105C110.709 94.0409 110.696 93.9833 110.683 93.9257C110.67 93.8682 110.658 93.8107 110.645 93.7467L110.491 93.0559C110.031 90.6763 109.725 88.962 110.645 88.2199C110.926 87.9897 111.437 87.785 111.897 87.9129C112.68 88.1089 112.939 89.0554 113.568 91.362L113.568 91.3623C113.76 92.067 113.987 92.8987 114.275 93.8747L114.428 94.412C114.479 94.5911 114.53 94.7702 114.581 94.9237C114.607 95.0133 114.632 95.0964 114.658 95.1796L114.658 95.1797C114.684 95.2628 114.709 95.346 114.735 95.4355C114.76 95.5251 114.786 95.6083 114.811 95.6915C114.837 95.7746 114.862 95.8577 114.888 95.9472C114.914 95.9984 114.939 96.0752 114.939 96.1263L115.169 96.7404C115.195 96.7916 115.214 96.8492 115.233 96.9067C115.252 96.9643 115.271 97.0219 115.297 97.0731C115.323 97.1754 115.374 97.2778 115.425 97.3801C115.476 97.4952 115.521 97.6104 115.565 97.7255C115.61 97.8407 115.655 97.9558 115.706 98.071C115.731 98.1733 115.783 98.2501 115.834 98.3268C115.834 98.3396 115.84 98.3524 115.847 98.3652L115.847 98.3653C115.853 98.378 115.859 98.3908 115.859 98.4036C115.872 98.442 115.891 98.4803 115.91 98.5187C115.93 98.5571 115.949 98.5955 115.962 98.6339C116.013 98.7362 116.064 98.8386 116.089 98.9153C116.123 98.9989 116.167 99.0825 116.215 99.1732C116.241 99.2214 116.267 99.2715 116.294 99.3247C116.652 100.067 117.112 100.86 117.163 100.937C116.703 99.2224 116.575 97.7639 116.524 96.7404C116.498 96.4334 116.498 96.1775 116.498 95.9472C116.524 94.8982 116.703 94.3864 117.086 94.0538C117.112 94.041 117.137 94.0218 117.163 94.0026L117.163 94.0026C117.189 93.9834 117.214 93.9642 117.24 93.9514C117.255 93.9356 117.271 93.9296 117.293 93.9212C117.307 93.9161 117.322 93.91 117.342 93.9003C117.355 93.9003 117.361 93.8939 117.367 93.8875C117.374 93.8811 117.38 93.8747 117.393 93.8747C117.406 93.8747 117.412 93.8683 117.419 93.8619C117.425 93.8555 117.431 93.8491 117.444 93.8491C117.457 93.8363 117.476 93.8299 117.495 93.8235C117.514 93.8171 117.534 93.8107 117.546 93.7979C117.572 93.7723 117.623 93.7723 117.649 93.7723C117.659 93.7723 117.666 93.7723 117.671 93.7704C117.679 93.7677 117.685 93.7615 117.7 93.7468L117.7 93.7467C117.712 93.7339 117.719 93.7339 117.725 93.7339C117.732 93.7339 117.738 93.7339 117.751 93.7212C117.776 93.7212 117.796 93.7148 117.815 93.7084C117.834 93.702 117.853 93.6956 117.879 93.6956C117.904 93.6956 117.955 93.6956 117.981 93.67H118.006H118.032H118.134H118.185H118.288H118.339C118.415 93.6956 118.492 93.7212 118.569 93.7723C118.582 93.7851 118.601 93.7979 118.62 93.8107C118.639 93.8235 118.658 93.8363 118.671 93.8491C118.697 93.8747 118.722 93.9003 118.748 93.9003L118.799 93.9514L118.824 93.977L118.85 94.0026C118.876 94.0282 118.901 94.0538 118.901 94.0794C118.911 94.0891 118.917 94.0989 118.922 94.1073C118.93 94.1208 118.936 94.1305 118.952 94.1305C118.965 94.1433 118.978 94.1625 118.991 94.1817C119.003 94.2009 119.016 94.2201 119.029 94.2329C119.054 94.2585 119.08 94.3097 119.08 94.3352L119.08 94.3353C119.106 94.3865 119.131 94.4376 119.157 94.4632C119.167 94.4943 119.182 94.5253 119.197 94.5581L119.197 94.5582C119.219 94.6063 119.244 94.6582 119.259 94.7191L119.284 94.8214C119.297 94.847 119.304 94.8662 119.31 94.8854C119.316 94.9045 119.323 94.9237 119.336 94.9493C119.336 94.9749 119.336 95.0005 119.361 95.0005C119.361 95.0261 119.361 95.0517 119.387 95.0517C119.387 95.0645 119.393 95.0837 119.4 95.1029C119.406 95.1221 119.412 95.1412 119.412 95.154C119.416 95.1706 119.421 95.1879 119.425 95.2057C119.447 95.2972 119.472 95.4009 119.515 95.4867C119.515 95.4995 119.521 95.5186 119.527 95.5378C119.534 95.557 119.54 95.5762 119.54 95.589C119.54 95.619 119.549 95.649 119.556 95.6738L119.556 95.6739C119.561 95.6914 119.566 95.7064 119.566 95.7169C119.566 95.7425 119.572 95.7681 119.578 95.7936L119.578 95.7937L119.578 95.7938C119.585 95.8194 119.591 95.8449 119.591 95.8705C119.68 96.2694 119.762 96.7052 119.85 97.1704L119.85 97.1708L119.85 97.171C120.016 98.0483 120.202 99.0302 120.486 100.067C120.537 100.297 120.614 100.527 120.69 100.758C120.703 100.783 120.71 100.809 120.716 100.834C120.722 100.86 120.729 100.886 120.741 100.911C120.754 100.962 120.773 101.02 120.793 101.077C120.812 101.135 120.831 101.193 120.844 101.244C120.856 101.269 120.863 101.289 120.869 101.308C120.876 101.327 120.882 101.346 120.895 101.372L120.895 101.372C120.972 101.602 121.048 101.832 121.15 102.063C121.158 102.084 121.165 102.104 121.172 102.123C121.178 102.137 121.183 102.151 121.189 102.165C121.202 102.197 121.214 102.229 121.227 102.267C121.24 102.28 121.246 102.299 121.253 102.318C121.259 102.338 121.265 102.357 121.278 102.37C121.457 102.856 121.687 103.393 121.943 103.93L122.25 104.544C122.25 104.552 122.252 104.558 122.255 104.562C122.257 104.565 122.26 104.568 122.262 104.57C122.266 104.573 122.269 104.576 122.271 104.58C122.274 104.584 122.275 104.589 122.275 104.596C122.31 104.683 122.357 104.771 122.399 104.85C122.419 104.887 122.438 104.921 122.454 104.954C122.531 105.107 122.607 105.261 122.71 105.414C122.761 105.491 122.812 105.568 122.837 105.67L122.914 105.824V105.849L122.326 106.361H122.301L121.585 107.001L119.591 108.843L113.201 114.472C112.894 114.14 112.587 113.833 112.281 113.526L112.255 113.5C112.127 113.372 112.025 113.27 111.923 113.142L111.693 112.907C110.604 111.792 109.581 110.746 108.626 109.79L108.523 109.687L108.421 109.585L108.268 109.432L108.114 109.278L107.782 108.945L107.245 108.408L106.657 107.82L106.427 107.589L105.993 107.154L105.865 107.026L104.203 105.363L104.025 105.184C103.972 105.149 103.932 105.102 103.895 105.06C103.878 105.04 103.862 105.021 103.846 105.005C103.59 104.749 103.36 104.519 103.104 104.289C102.925 104.11 102.721 103.905 102.516 103.726L102.389 103.598L102.261 103.47C102.117 103.313 101.967 103.157 101.814 102.996L101.814 102.996L101.814 102.996C101.666 102.843 101.516 102.686 101.366 102.523C101.29 102.446 101.213 102.37 101.136 102.267L101.111 102.242C101.092 102.224 101.078 102.205 101.064 102.188L101.064 102.188C101.038 102.157 101.016 102.13 100.983 102.114C100.932 102.05 100.881 101.992 100.829 101.935C100.778 101.877 100.727 101.819 100.676 101.755C100.65 101.73 100.625 101.698 100.599 101.666C100.574 101.634 100.548 101.602 100.523 101.576C100.497 101.551 100.472 101.525 100.446 101.474C100.42 101.423 100.369 101.372 100.344 101.346C100.318 101.295 100.267 101.244 100.241 101.218L99.9348 100.758L99.9347 100.758C99.9092 100.706 99.8836 100.655 99.8581 100.63C99.7303 100.425 99.628 100.246 99.5513 100.041C99.5386 100.016 99.5322 99.9964 99.5258 99.9772C99.5194 99.958 99.513 99.9388 99.5002 99.9132C99.4874 99.8748 99.4683 99.8365 99.4491 99.7981L99.4491 99.7981C99.4299 99.7597 99.4108 99.7213 99.398 99.6829C99.3852 99.6574 99.3788 99.6382 99.3724 99.619C99.366 99.5998 99.3596 99.5806 99.3469 99.555C99.3469 99.5422 99.3405 99.523 99.3341 99.5038C99.3277 99.4846 99.3213 99.4655 99.3213 99.4527C99.2957 99.4015 99.2957 99.3503 99.2957 99.3247V99.2736C99.2702 99.1968 99.2702 99.12 99.2702 99.0433V99.0177V98.9921V98.8897C99.2702 98.6339 99.3213 98.4292 99.398 98.2501ZM58.4747 94.3608L62.7434 87.785L65.7852 83.1281C65.6387 83.3627 65.4928 83.5967 65.3472 83.8302C64.4766 85.2264 63.6194 86.6012 62.7434 87.9385C61.312 90.139 59.8806 92.2883 58.4747 94.3608Z" fill="#FF735A"/>
<path d="M146.814 122.507C146.762 122.507 146.737 122.507 146.686 122.481L122.863 106.029C122.761 105.952 122.735 105.824 122.812 105.721C122.888 105.619 123.016 105.594 123.118 105.67L146.941 122.097C147.044 122.174 147.069 122.302 146.992 122.404C146.941 122.481 146.89 122.507 146.814 122.507Z" fill="black"/>
<path d="M142.826 142.695C142.801 142.695 142.775 142.695 142.775 142.695C142.008 142.465 141.216 142.234 140.449 141.953C133.599 139.599 128.921 136.272 122.582 131.488C117.546 127.675 112.536 123.76 107.68 119.846C107.629 119.794 107.603 119.743 107.603 119.692C107.603 119.641 107.629 119.564 107.68 119.513L122.863 105.696C122.94 105.619 123.093 105.619 123.17 105.721C123.246 105.824 123.246 105.952 123.144 106.029L108.14 119.692C112.92 123.556 117.879 127.419 122.837 131.181C129.151 135.94 133.803 139.266 140.577 141.595C141.344 141.85 142.11 142.106 142.877 142.337C143.005 142.362 143.056 142.49 143.031 142.618C143.005 142.644 142.928 142.695 142.826 142.695Z" fill="black"/>
<path d="M136.053 115.086C135.95 115.086 135.848 115.01 135.848 114.907L132.832 95.7937C132.806 95.6658 132.883 95.5634 133.011 95.5379C133.139 95.5123 133.241 95.589 133.267 95.717L136.257 114.831C136.283 114.958 136.206 115.061 136.078 115.086H136.053Z" fill="black"/>
<path d="M77.4155 107.333C77.3899 107.333 77.3899 107.333 77.3643 107.333C77.2365 107.308 77.1854 107.18 77.211 107.078L78.8213 100.399C78.8469 100.271 78.9747 100.22 79.0769 100.246C79.2047 100.271 79.2559 100.399 79.2303 100.502L77.62 107.18C77.5944 107.282 77.5177 107.333 77.4155 107.333Z" fill="black"/>
<path d="M108.242 80.6717C107.118 80.6717 106.121 80.5438 105.303 80.3903C99.1937 79.1877 93.9026 74.0447 91.4743 66.957C91.4232 66.8547 91.4998 66.7268 91.6021 66.6756C91.7043 66.6244 91.8321 66.7012 91.8833 66.8035C94.2604 73.7376 99.4238 78.7783 105.379 79.9553C107.578 80.3903 111.105 80.5182 115.297 78.6759C121.176 76.066 124.014 70.9486 125.189 68.1341C125.24 68.0317 125.368 67.9805 125.47 68.0061C125.573 68.0573 125.624 68.1852 125.598 68.2876C124.397 71.1789 121.509 76.3987 115.502 79.0597C112.741 80.2879 110.262 80.6717 108.242 80.6717Z" fill="black"/>
<path d="M41.1187 104.979C40.9909 104.979 40.8887 104.877 40.8887 104.775V89.9855C40.8887 89.8575 40.9909 89.7552 41.1187 89.7552C41.2465 89.7552 41.3488 89.8575 41.3488 89.9855V104.749C41.3488 104.877 41.2465 104.979 41.1187 104.979Z" fill="black"/>
<path d="M62.7432 112.169C62.6154 112.169 62.5132 112.067 62.5132 111.965V52.6795C62.5132 52.5516 62.6154 52.4492 62.7432 52.4492C62.871 52.4492 62.9733 52.5516 62.9733 52.6795V111.939C62.9733 112.067 62.871 112.169 62.7432 112.169Z" fill="black"/>
<path d="M84.3682 179.873C84.2404 179.873 84.1382 179.771 84.1382 179.668V68.9785C84.1382 68.8505 84.2404 68.7482 84.3682 68.7482C84.496 68.7482 84.5983 68.8505 84.5983 68.9785V179.643C84.5727 179.771 84.4705 179.873 84.3682 179.873Z" fill="black"/>
<path d="M105.967 89.5249C105.839 89.5249 105.763 89.4225 105.763 89.2946V84.4075C105.763 84.2795 105.865 84.1772 105.967 84.1772C106.069 84.1772 106.172 84.2795 106.172 84.4075V89.2946C106.197 89.4225 106.095 89.5249 105.967 89.5249Z" fill="black"/>
<path d="M105.967 96.2031C105.839 96.2031 105.763 96.1008 105.763 95.9984V93.8747C105.763 93.7468 105.865 93.6444 105.967 93.6444C106.069 93.6444 106.172 93.7468 106.172 93.8491V95.9728C106.197 96.1264 106.095 96.2031 105.967 96.2031Z" fill="black"/>
<path d="M105.967 179.08C105.839 179.08 105.763 178.977 105.763 178.875V107.129C105.763 107.001 105.865 106.924 105.967 106.924C106.069 106.924 106.172 107.026 106.172 107.129V178.849C106.197 178.977 106.095 179.08 105.967 179.08Z" fill="black"/>
<path d="M127.592 178.261C127.464 178.261 127.387 178.159 127.387 178.056V69.1064C127.387 68.9784 127.489 68.8761 127.592 68.8761C127.694 68.8761 127.796 68.9784 127.796 69.1064V178.056C127.822 178.184 127.72 178.261 127.592 178.261Z" fill="black"/>
<path d="M149.217 143.232C149.089 143.232 149.012 143.13 149.012 143.027V91.5975C149.012 91.4695 149.114 91.3672 149.217 91.3672C149.319 91.3672 149.421 91.4695 149.421 91.5975V143.002C149.421 143.13 149.319 143.232 149.217 143.232Z" fill="black"/>
<path d="M142.545 167.386H65.5806C65.4528 167.386 65.3506 167.284 65.3506 167.182C65.3506 167.079 65.4528 166.977 65.5806 166.977H142.545C142.673 166.977 142.749 167.079 142.749 167.182C142.749 167.284 142.673 167.386 142.545 167.386Z" fill="black"/>
<path d="M140.807 145.74H69.8238C69.696 145.74 69.5938 145.637 69.5938 145.535C69.5938 145.433 69.696 145.33 69.8238 145.33H140.807C140.935 145.33 141.011 145.433 141.011 145.535C141.011 145.637 140.909 145.74 140.807 145.74Z" fill="black"/>
<path d="M160.489 124.093H74.067C73.9392 124.093 73.8369 123.991 73.8369 123.888C73.8369 123.786 73.9392 123.684 74.067 123.684H160.489C160.617 123.684 160.693 123.786 160.693 123.888C160.693 123.991 160.617 124.093 160.489 124.093Z" fill="black"/>
<path d="M101.136 102.472H40.3775C40.2497 102.472 40.1475 102.37 40.1475 102.267C40.1475 102.165 40.2497 102.063 40.3775 102.063H101.136C101.264 102.063 101.366 102.165 101.366 102.267C101.366 102.37 101.264 102.472 101.136 102.472Z" fill="black"/>
<path d="M153.741 102.472H121.253C121.125 102.472 121.048 102.37 121.048 102.267C121.048 102.165 121.151 102.063 121.253 102.063H153.741C153.869 102.063 153.945 102.165 153.945 102.267C153.945 102.37 153.869 102.472 153.741 102.472Z" fill="black"/>
<path d="M142.468 80.8253H120.051C119.923 80.8253 119.847 80.723 119.847 80.595C119.847 80.4671 119.949 80.3647 120.051 80.3647H142.468C142.596 80.3647 142.673 80.4671 142.673 80.595C142.673 80.723 142.596 80.8253 142.468 80.8253Z" fill="black"/>
<path d="M97.1231 80.8253H68.3414C68.2136 80.8253 68.1113 80.723 68.1113 80.595C68.1113 80.4671 68.2136 80.3647 68.3414 80.3647H97.0976C97.2254 80.3647 97.3276 80.4671 97.3276 80.595C97.3276 80.723 97.2254 80.8253 97.1231 80.8253Z" fill="black"/>
<path d="M67.2933 80.8253H44.6207C44.4929 80.8253 44.3906 80.723 44.3906 80.595C44.3906 80.4671 44.4929 80.3647 44.6207 80.3647H67.2933C67.4211 80.3647 67.5234 80.4671 67.5234 80.595C67.5234 80.723 67.4211 80.8253 67.2933 80.8253Z" fill="black"/>
<path d="M79.0767 59.1786H56.8897C56.7619 59.1786 56.6597 59.0763 56.6597 58.9484C56.6597 58.8204 56.7619 58.7181 56.8897 58.7181H79.0767C79.2045 58.7181 79.3068 58.8204 79.3068 58.9484C79.3068 59.0763 79.2045 59.1786 79.0767 59.1786Z" fill="black"/>
<path d="M118.237 102.805C118.135 102.805 118.032 102.677 117.981 102.6C117.956 102.574 117.956 102.549 117.956 102.523C117.93 102.472 117.905 102.421 117.853 102.37C117.623 102.011 117.24 101.397 116.984 100.937C116.984 100.937 116.984 100.937 116.984 100.911C116.857 100.706 116.448 99.9644 116.115 99.2991C116.064 99.1712 115.987 99.0433 115.936 98.9153V98.8897C115.885 98.7874 115.834 98.685 115.809 98.5827L115.706 98.3524C115.706 98.3268 115.681 98.3012 115.681 98.2756C115.655 98.1989 115.604 98.0965 115.578 98.0198C115.476 97.7895 115.4 97.5592 115.297 97.3289L115.272 97.2266C115.246 97.1498 115.221 97.073 115.195 97.0219C115.144 96.9195 115.118 96.7916 115.067 96.6892C114.991 96.5101 114.939 96.331 114.863 96.1519L114.761 95.896C114.709 95.7169 114.658 95.5634 114.582 95.3843L114.428 94.8726C114.377 94.719 114.326 94.5911 114.3 94.4376L114.275 94.3608C114.224 94.1817 114.173 94.0282 114.122 93.8491C113.815 92.8256 113.585 91.93 113.38 91.2392C112.792 89.0899 112.562 88.1943 111.898 88.0408C111.514 87.9385 111.08 88.1176 110.824 88.3223C110.006 88.9875 110.338 90.8298 110.747 92.9535C110.799 93.1838 110.85 93.4141 110.901 93.6444C110.926 93.7723 110.952 93.8747 110.978 93.977C111.003 94.1049 111.029 94.2073 111.054 94.3352C111.08 94.4888 111.131 94.6423 111.182 94.7958C111.233 94.9493 111.259 95.1028 111.31 95.2564L111.335 95.3843C111.386 95.5122 111.412 95.6658 111.463 95.7937C111.463 95.8193 111.489 95.8449 111.489 95.8705C111.54 96.024 111.591 96.1775 111.617 96.3566C112.051 97.7895 112.562 99.248 113.15 100.655C113.201 100.758 113.15 100.886 113.048 100.937C112.946 100.988 112.818 100.962 112.767 100.86L112.434 100.297C112.383 100.22 112.332 100.118 112.281 100.041C112.026 99.6062 111.795 99.1712 111.565 98.7362C111.489 98.5827 111.386 98.4036 111.31 98.2501C111.156 97.943 111.003 97.636 110.85 97.3545L110.594 96.8172C110.466 96.5101 110.313 96.2287 110.185 95.9472C110.057 95.6658 109.93 95.3587 109.827 95.1028L109.802 95.0517C109.776 95.0005 109.751 94.9493 109.751 94.9237L109.725 94.8726C109.674 94.719 109.597 94.5911 109.546 94.4376C109.495 94.2841 109.444 94.1561 109.393 94.0026C109.342 93.8747 109.29 93.7467 109.265 93.6188C109.188 93.3885 109.112 93.1582 109.009 92.9279C108.984 92.8768 108.958 92.8256 108.958 92.7488C108.805 92.365 108.677 91.9556 108.498 91.5718C108.473 91.5207 108.447 91.4695 108.447 91.4439V91.4183C108.421 91.3671 108.421 91.3415 108.396 91.2904C108.37 91.2648 108.37 91.2392 108.37 91.2136L108.268 90.9833C108.217 90.881 108.166 90.7786 108.115 90.6763C108.089 90.6251 108.064 90.5995 108.038 90.5483C108.012 90.4972 107.987 90.4716 107.961 90.4204C107.859 90.2157 107.731 90.0622 107.629 89.9343C107.348 89.576 107.067 89.3713 106.76 89.3458C106.632 89.3458 106.377 89.3458 106.146 89.5249C106.146 89.5249 106.146 89.5249 106.121 89.5249C105.737 89.8319 105.635 90.5228 105.763 91.623C105.84 92.3394 106.019 93.1071 106.198 93.8491C106.198 93.8491 106.198 93.8747 106.198 93.9003C106.223 93.977 106.223 94.0282 106.249 94.1049C106.274 94.1817 106.3 94.2585 106.3 94.3352V94.3608C106.325 94.4376 106.351 94.5143 106.351 94.5911C106.377 94.6423 106.377 94.719 106.402 94.7702C106.402 94.8214 106.428 94.847 106.428 94.8981L106.453 94.9749C106.479 95.0773 106.504 95.154 106.53 95.2564L106.555 95.3331C106.607 95.4867 106.658 95.6402 106.709 95.7937C106.99 96.6637 107.348 97.5592 107.731 98.4292C107.757 98.5059 107.808 98.6083 107.859 98.685C107.936 98.8386 108.012 98.9921 108.064 99.12L108.14 99.248C108.294 99.5294 108.421 99.8109 108.575 100.067C108.779 100.425 108.984 100.783 109.214 101.218L109.316 101.397C109.495 101.679 109.648 101.935 109.776 102.114L109.597 102.242L109.418 102.37L109.597 102.242L109.393 102.344C109.265 102.165 109.112 101.909 108.933 101.602L108.83 101.423C108.575 101.013 108.37 100.63 108.166 100.271C108.012 100.016 107.885 99.7341 107.731 99.4271L107.655 99.2991C107.578 99.1456 107.501 98.9921 107.45 98.8386C107.399 98.7618 107.373 98.6594 107.322 98.5827C106.913 97.6871 106.555 96.7916 106.274 95.896C106.223 95.7425 106.172 95.589 106.121 95.4355L106.095 95.3587C106.07 95.2564 106.044 95.1796 106.019 95.0773L105.993 95.0005C105.993 94.9493 105.968 94.9237 105.968 94.8726C105.942 94.8214 105.942 94.7702 105.916 94.6935C105.891 94.6167 105.865 94.5399 105.865 94.4632V94.4376C105.84 94.3608 105.814 94.2841 105.814 94.1817C105.789 94.1049 105.789 94.0282 105.763 93.9514C105.584 93.1838 105.405 92.3906 105.303 91.6742C105.15 90.3948 105.303 89.6016 105.84 89.1922C105.84 89.1922 105.84 89.1922 105.865 89.1666C106.198 88.9108 106.555 88.8852 106.76 88.9108C107.194 88.9619 107.578 89.1922 107.936 89.6528C108.064 89.8063 108.191 89.9854 108.294 90.1901C108.319 90.2413 108.345 90.2669 108.37 90.3181C108.396 90.3436 108.421 90.3948 108.447 90.446C108.498 90.5483 108.549 90.6507 108.6 90.7786L108.703 91.0345C108.703 91.0601 108.728 91.0857 108.728 91.1113C108.754 91.1368 108.754 91.188 108.779 91.2392V91.2648C108.805 91.316 108.83 91.3671 108.83 91.4183C108.984 91.8021 109.137 92.2115 109.29 92.6209C109.316 92.6721 109.342 92.7232 109.342 92.8C109.418 93.0303 109.495 93.235 109.572 93.4653C109.623 93.5932 109.674 93.7211 109.725 93.8491C109.776 93.977 109.827 94.1305 109.878 94.2841C109.93 94.412 109.981 94.5655 110.057 94.6935L110.083 94.7446C110.108 94.7958 110.134 94.847 110.134 94.8726L110.16 94.9237C110.262 95.2052 110.39 95.4867 110.517 95.7681C110.645 96.0496 110.773 96.331 110.901 96.6381L111.156 97.1754C111.31 97.4569 111.438 97.7639 111.617 98.0709C111.617 98.0709 111.617 98.0965 111.642 98.0965C111.463 97.5592 111.284 97.0219 111.131 96.4845C111.08 96.331 111.029 96.1775 111.003 96.024C111.003 95.9984 110.978 95.9728 110.978 95.9472C110.926 95.7937 110.901 95.6658 110.85 95.5122L110.824 95.3843C110.773 95.2308 110.747 95.0773 110.696 94.9237C110.645 94.7702 110.62 94.6167 110.569 94.4632C110.543 94.3352 110.517 94.2329 110.492 94.1049C110.466 94.0026 110.441 93.8747 110.415 93.7467C110.364 93.5164 110.313 93.2862 110.262 93.0559C109.827 90.7019 109.469 88.834 110.492 88.0152C110.799 87.7594 111.361 87.5035 111.949 87.657C112.843 87.8873 113.125 88.834 113.738 91.1624C113.943 91.9045 114.173 92.7488 114.454 93.7467C114.505 93.9258 114.556 94.1049 114.607 94.2841L114.633 94.3864C114.684 94.5399 114.709 94.6679 114.761 94.8214L114.914 95.3331C114.965 95.5122 115.016 95.6658 115.067 95.8193L115.144 96.0752C115.195 96.2543 115.272 96.4334 115.323 96.6125C115.374 96.7148 115.4 96.8428 115.451 96.9451C115.476 97.0219 115.502 97.0986 115.527 97.1498L115.553 97.2522C115.63 97.4824 115.732 97.7127 115.834 97.9174C115.86 98.0198 115.911 98.0965 115.936 98.1733L116.064 98.4803C116.115 98.5827 116.141 98.685 116.192 98.7618V98.7874C116.243 98.9153 116.32 99.0433 116.371 99.1456C116.703 99.8109 117.112 100.553 117.214 100.758C117.214 100.758 117.214 100.758 117.214 100.783C117.47 101.244 117.853 101.832 118.083 102.19C118.339 102.6 118.39 102.702 118.211 102.83C118.314 102.779 118.288 102.805 118.237 102.805Z" fill="black"/>
<path d="M107.271 104.826C107.194 104.826 107.143 104.8 107.092 104.724C106.657 104.084 106.248 103.47 105.865 102.932L105.814 102.83C105.712 102.677 105.609 102.523 105.507 102.37C105.481 102.344 105.456 102.318 105.43 102.267C105.354 102.165 105.277 102.037 105.2 101.935L105.124 101.807C104.664 101.09 103.028 98.5827 101.954 95.8705C101.801 95.4866 101.647 95.1028 101.545 94.7446C101.417 94.3608 101.111 93.4653 101.545 92.6209C101.801 92.1092 102.337 91.5974 102.951 91.5974C102.951 91.5974 102.951 91.5974 102.977 91.5974C103.769 91.623 104.255 92.4418 104.536 92.8768C105.226 94.0026 105.712 94.8981 106.095 95.6913C106.121 95.7425 106.146 95.8193 106.197 95.8705L106.453 96.3822C106.734 96.9195 106.99 97.4824 107.322 98.0965C107.322 98.0965 107.859 99.0688 108.6 100.246C109.009 100.886 109.418 101.5 109.801 102.037C109.827 102.063 109.827 102.063 109.827 102.088C109.878 102.19 109.852 102.318 109.75 102.37C109.648 102.446 109.52 102.421 109.443 102.318C109.443 102.318 109.443 102.318 109.418 102.293C109.009 101.755 108.6 101.141 108.191 100.476C107.424 99.2735 106.913 98.3012 106.887 98.3012C106.555 97.6871 106.274 97.1242 105.993 96.5613L105.737 96.0496C105.712 95.9984 105.686 95.9216 105.635 95.8705C105.251 95.0773 104.791 94.1817 104.076 93.0815C103.846 92.6977 103.411 92.0068 102.874 92.0068C102.465 91.9812 102.031 92.3906 101.826 92.8C101.494 93.4653 101.75 94.2585 101.852 94.5911C101.98 94.9493 102.107 95.3331 102.261 95.6913C103.334 98.3524 104.945 100.834 105.405 101.551L105.481 101.679C105.558 101.781 105.635 101.909 105.712 102.011C105.737 102.037 105.763 102.063 105.763 102.114C105.865 102.267 105.967 102.421 106.069 102.574L106.121 102.677C106.504 103.24 106.887 103.828 107.347 104.468C107.424 104.57 107.399 104.698 107.296 104.775C107.347 104.8 107.296 104.826 107.271 104.826Z" fill="black"/>
<path d="M113.176 114.677C113.124 114.677 113.073 114.651 113.022 114.6C112.741 114.319 112.46 114.037 112.204 113.756L112.102 113.653L112.076 113.628C112.076 113.628 112.076 113.628 112.051 113.602L111.719 113.27C110.543 112.067 109.444 110.941 108.421 109.918L107.91 109.406C107.808 109.304 107.705 109.201 107.578 109.073L107.041 108.536C106.606 108.101 106.197 107.692 105.788 107.282L105.737 107.231C105.712 107.206 105.686 107.18 105.661 107.154C105.073 106.566 104.51 106.029 103.999 105.491C103.948 105.44 103.871 105.363 103.82 105.312C103.769 105.261 103.718 105.21 103.667 105.159L103.36 104.852C103.207 104.698 103.053 104.544 102.9 104.391L102.849 104.34C102.287 103.777 101.596 103.086 100.957 102.37C99.347 100.527 98.7591 99.1456 99.1681 98.1477C99.3215 97.8151 99.526 97.5592 99.7816 97.4313C101.469 96.6125 104.792 100.706 105.763 101.986C105.84 102.088 105.814 102.216 105.712 102.293C105.609 102.37 105.482 102.344 105.405 102.242C103.437 99.683 101.008 97.3034 99.9605 97.8151C99.7049 97.943 99.6026 98.1989 99.5515 98.3013C99.2192 99.12 99.7816 100.374 101.264 102.063C101.903 102.779 102.593 103.47 103.156 104.007L103.207 104.058C103.36 104.212 103.513 104.365 103.667 104.519L103.974 104.826C104.025 104.877 104.076 104.928 104.127 104.979C104.178 105.031 104.255 105.107 104.306 105.159C104.843 105.67 105.379 106.233 105.967 106.822C105.993 106.847 106.018 106.873 106.044 106.899L106.07 106.95C106.479 107.359 106.888 107.768 107.322 108.203L107.859 108.741C107.961 108.843 108.063 108.945 108.191 109.073L108.702 109.585C109.725 110.609 110.798 111.734 112 112.937L112.332 113.295C112.358 113.321 112.358 113.321 112.358 113.321L112.46 113.423C112.69 113.653 112.92 113.884 113.15 114.114L122.173 106.182L122.199 106.156L122.659 105.747C122.659 105.747 122.659 105.747 122.659 105.722L122.531 105.466C122.454 105.312 122.352 105.159 122.275 105.005C122.275 105.005 122.275 105.005 122.275 104.979C122.224 104.852 122.147 104.724 122.096 104.621C122.096 104.621 122.096 104.596 122.071 104.57C121.969 104.34 121.866 104.135 121.764 103.93C121.508 103.393 121.278 102.881 121.074 102.344L120.997 102.139C120.972 102.088 120.972 102.063 120.946 102.011C120.844 101.781 120.767 101.525 120.691 101.295C120.691 101.269 120.665 101.244 120.665 101.218L120.639 101.167C120.588 101.039 120.563 100.937 120.537 100.809L120.486 100.655C120.409 100.399 120.333 100.169 120.282 99.9388C120 98.8642 119.796 97.8663 119.617 96.9707C119.54 96.5357 119.438 96.1008 119.361 95.717C119.361 95.6658 119.336 95.6146 119.336 95.5634C119.055 94.3097 118.748 93.7468 118.262 93.6444C117.904 93.5421 117.444 93.7468 117.189 93.9514C116.831 94.2329 116.703 94.7446 116.677 95.6658C116.677 95.8961 116.677 96.1519 116.703 96.459C116.754 97.8407 116.984 99.248 117.342 100.63C117.342 100.655 117.342 100.655 117.342 100.681C117.342 100.809 117.24 100.886 117.138 100.886C117.035 100.886 116.933 100.809 116.933 100.706C116.575 99.2991 116.345 97.8663 116.268 96.459C116.243 96.1263 116.243 95.8705 116.243 95.6402C116.268 94.5655 116.447 93.977 116.907 93.5932C117.24 93.3118 117.802 93.0559 118.364 93.1838C119.131 93.3885 119.464 94.2329 119.745 95.4355C119.745 95.4867 119.77 95.5378 119.77 95.589C119.847 95.9728 119.949 96.4078 120.026 96.8428C120.205 97.7383 120.384 98.7362 120.665 99.7853C120.716 99.99 120.793 100.22 120.869 100.476L120.921 100.63C120.946 100.732 120.997 100.86 121.023 100.962L121.048 101.013C121.048 101.039 121.074 101.065 121.074 101.09C121.151 101.321 121.227 101.551 121.33 101.781C121.355 101.832 121.355 101.858 121.381 101.909L121.457 102.114C121.662 102.625 121.866 103.137 122.122 103.675C122.224 103.879 122.326 104.084 122.429 104.289L122.454 104.314C122.531 104.468 122.582 104.57 122.659 104.698C122.659 104.698 122.659 104.698 122.659 104.724C122.735 104.877 122.812 105.005 122.889 105.159L123.017 105.414L123.093 105.568C123.093 105.568 123.093 105.594 123.119 105.594C123.17 105.67 123.144 105.798 123.068 105.849L122.48 106.361C122.48 106.361 122.48 106.361 122.454 106.387L113.252 114.472C113.278 114.651 113.227 114.677 113.176 114.677Z" fill="black"/>
<path d="M122.991 105.824C122.787 106.003 122.582 106.182 122.403 106.361C122.403 106.361 122.403 106.361 122.378 106.361L121.688 107.001C121.279 107.385 120.87 107.768 120.435 108.152C120.154 108.408 119.873 108.69 119.566 108.945C117.496 110.839 115.425 112.758 113.355 114.651L113.329 114.626C113.099 114.395 112.895 114.165 112.665 113.935C112.537 113.781 112.383 113.653 112.256 113.5L112.23 113.474C114.684 111.632 117.138 109.79 119.592 107.948C120.001 107.64 120.435 107.308 120.844 107.001C121.483 106.515 122.148 106.029 122.787 105.542C122.812 105.594 122.863 105.645 122.889 105.67C122.915 105.721 122.966 105.773 122.991 105.824Z" fill="black"/>
<path d="M108.395 73.6353C108.344 73.6353 108.268 73.6097 108.242 73.5585L100.727 65.166C100.65 65.0892 100.65 64.9357 100.753 64.8589C100.829 64.7822 100.983 64.7822 101.059 64.8845L108.421 73.098L116.089 64.9613C116.166 64.8845 116.319 64.8589 116.396 64.9613C116.473 65.038 116.498 65.1915 116.396 65.2683L108.574 73.5841C108.523 73.6097 108.472 73.6353 108.395 73.6353Z" fill="black"/>
<path d="M108.446 75.2217C109.11 75.2217 109.648 74.6832 109.648 74.0191C109.648 73.3549 109.11 72.8165 108.446 72.8165C107.783 72.8165 107.245 73.3549 107.245 74.0191C107.245 74.6832 107.783 75.2217 108.446 75.2217Z" fill="black"/>
<path d="M78.5909 42.7773C78.5398 42.7773 78.4631 42.7517 78.412 42.7005C78.3353 42.5982 78.3353 42.4702 78.4376 42.3935C79.2044 41.7538 79.9457 41.1909 80.6869 40.7047L80.8148 40.6279C81.4538 40.2186 82.0672 39.8859 82.6551 39.6045C82.7318 39.5789 82.8085 39.5277 82.9108 39.4765C83.2175 39.323 83.6265 39.0671 83.7798 38.6066C83.9076 38.2228 83.8565 37.6854 83.652 37.276C83.5753 37.1481 83.4987 37.0202 83.3964 36.9434C83.3197 36.8922 83.2431 36.8411 83.1664 36.8155C82.6807 36.6364 81.735 36.8155 80.3802 37.3784C79.5367 37.7366 79.1533 37.9157 78.7187 38.146C77.3896 38.8624 76.4949 39.5277 76.086 39.8092L76.0093 39.8603C74.6801 40.8326 73.0186 41.6258 71.0249 42.2655C70.8971 42.2911 70.7948 42.2399 70.7437 42.112C70.7181 42.0096 70.7693 41.8817 70.8971 41.8305C72.8397 41.2164 74.4756 40.4232 75.7537 39.5021L75.8303 39.4509C76.2393 39.1695 77.1595 38.4786 78.5143 37.7622C78.9488 37.5319 79.3578 37.3272 80.2013 36.969C81.7094 36.3549 82.6807 36.1502 83.2942 36.3805C83.422 36.4317 83.5498 36.4828 83.652 36.5852C83.7798 36.7131 83.9076 36.8666 84.0099 37.0458C84.2911 37.5575 84.3677 38.2228 84.1633 38.7345C84.0099 39.1695 83.652 39.5533 83.0897 39.8347C82.9874 39.8859 82.9108 39.9371 82.8341 39.9627C82.2462 40.2441 81.6583 40.5768 81.0448 40.9606L80.9937 40.9862C80.9681 41.0118 80.9426 41.0118 80.917 41.0373C80.2013 41.5235 79.4345 42.0864 78.6932 42.7005C78.6932 42.7773 78.6421 42.7773 78.5909 42.7773Z" fill="black"/>
<path d="M76.4952 57.5666C76.3674 57.5666 76.2651 57.4643 76.2651 57.3363C76.2651 57.2596 76.3163 57.1828 76.3674 57.1572C76.8019 56.8246 77.5176 56.2873 78.4123 55.5964C79.4858 54.7776 80.4827 54.0356 81.3773 53.3703C82.4765 52.5515 83.4222 51.8351 84.2402 51.1954C85.2626 50.4022 86.0295 49.8137 86.5918 49.3276C86.694 49.2508 86.7963 49.1485 86.9241 49.0461C87.6654 48.432 88.7134 47.5876 88.6111 46.7177C88.56 46.3083 88.3044 45.9245 88.2277 45.8221C87.7421 45.1825 87.0519 45.0289 86.7707 45.0034C86.694 45.0034 86.6429 44.9522 86.6174 44.8754C86.5918 44.8242 86.5918 44.7475 86.6174 44.6707C86.9241 44.1078 86.8219 43.417 86.3873 42.982C85.9783 42.547 85.3138 42.4191 84.777 42.6749C84.6747 42.7261 84.5725 42.6749 84.4958 42.5982C84.4447 42.4958 84.4702 42.3935 84.5469 42.3167C85.1859 41.805 85.3904 40.8838 84.9815 40.2697C84.8281 40.0395 84.598 39.8604 84.3169 39.7324C84.0613 39.6301 83.7545 39.6045 83.4734 39.6301C83.3456 39.6557 83.2433 39.5533 83.2177 39.451C83.1922 39.323 83.2944 39.2207 83.3967 39.1951C83.7545 39.1439 84.1379 39.1951 84.4447 39.323C84.8025 39.4765 85.1093 39.7068 85.3138 40.0139C85.7227 40.6535 85.6716 41.4723 85.2626 42.112C85.7739 42.0864 86.3106 42.2911 86.6685 42.6749C87.1797 43.1867 87.3331 43.9543 87.0775 44.6195C87.4864 44.7219 88.0743 44.9778 88.5344 45.5663C88.6623 45.7454 88.969 46.1804 89.0201 46.6921C89.1479 47.7923 87.9977 48.7135 87.1797 49.4043C87.0775 49.5067 86.9497 49.5834 86.8474 49.6602C86.2595 50.1464 85.5182 50.7604 84.4702 51.5536C83.6523 52.1933 82.681 52.9098 81.6074 53.7285C80.7128 54.3938 79.7414 55.1358 78.6423 55.9546C77.7477 56.6199 77.032 57.1828 76.5974 57.5154C76.5719 57.5666 76.5207 57.5666 76.4952 57.5666Z" fill="black"/>
<path d="M66.0406 54.01C66.0151 54.01 66.0151 54.01 65.9895 54.01C65.8617 53.9844 65.785 53.8821 65.8106 53.7541C66.1684 51.963 66.5774 50.1464 67.0375 48.3809C68.2133 43.8264 68.8268 41.5235 69.8748 40.2442C70.5649 39.4254 71.025 39.1951 71.6385 38.9136C72.2775 38.6066 73.1721 38.1972 74.8081 36.8667C75.5493 36.2526 76.1628 35.6897 76.7251 35.1779C78.0799 33.9497 78.9745 33.131 79.9458 33.4124C80.5337 33.5915 81.0194 34.1289 81.3517 35.05C81.4028 35.1523 81.3261 35.2803 81.2239 35.3314C81.1216 35.3826 80.9938 35.3059 80.9427 35.2035C80.6615 34.4359 80.2781 33.9753 79.818 33.8218C79.0768 33.6171 78.2588 34.3591 77.0063 35.5106C76.444 36.0223 75.8305 36.5852 75.0892 37.1993C73.4022 38.581 72.5076 38.9904 71.843 39.2974C71.2295 39.5789 70.8461 39.758 70.2326 40.5256C69.2357 41.7282 68.6223 44.1334 67.4976 48.4832C67.0375 50.2231 66.6285 52.0398 66.2962 53.8309C66.2195 53.9333 66.1429 54.01 66.0406 54.01Z" fill="black"/>
<path d="M81.786 44.8242C81.7093 44.8242 81.6582 44.7987 81.6071 44.7475C81.5304 44.6451 81.556 44.5172 81.6582 44.4404L84.521 42.3423C84.6233 42.2655 84.7511 42.2911 84.8278 42.3935C84.9045 42.4958 84.8789 42.6238 84.7767 42.7005L81.9138 44.7987C81.8883 44.7987 81.8371 44.8242 81.786 44.8242Z" fill="black"/>
<path d="M85.0835 47.1271C85.0324 47.1271 84.9813 47.1015 84.9557 47.0759C84.8535 46.9991 84.8535 46.8712 84.9301 46.7689L86.6427 44.6451C86.7194 44.5428 86.8472 44.5428 86.9495 44.6195C87.0517 44.6963 87.0517 44.8242 86.975 44.9266L85.2624 47.0503C85.2113 47.1015 85.1602 47.1271 85.0835 47.1271Z" fill="black"/>
</g>
</svg>
