<svg width="190" height="190" viewBox="0 0 190 190" fill="none" xmlns="http://www.w3.org/2000/svg">
<path d="M143.429 70.6586C141.334 70.6586 139.146 69.0444 136.884 65.8903C136.847 65.8346 136.847 65.7419 136.921 65.7048C136.977 65.6677 137.07 65.6677 137.107 65.7419C139.387 68.9331 141.575 70.5101 143.633 70.3988C145.302 70.306 146.451 69.1743 147.675 67.9683C148.899 66.7623 150.159 65.5192 151.995 65.4265C154.034 65.3337 156.148 66.6881 158.28 69.4897C158.336 69.5453 158.317 69.6381 158.262 69.6938C158.206 69.7494 158.113 69.7309 158.058 69.6752C155.981 66.9664 153.942 65.6305 152.013 65.7233C150.289 65.8161 149.065 67.0221 147.879 68.1724C146.674 69.3598 145.431 70.5843 143.652 70.6771C143.577 70.6586 143.503 70.6586 143.429 70.6586Z" fill="black"/>
<path d="M20.4304 34.0896C18.7061 34.0896 16.8892 32.7723 15.0351 30.1563C14.998 30.1006 14.998 30.0079 15.0722 29.9708C15.1278 29.9336 15.2205 29.9336 15.2576 30.0079C17.1302 32.6239 18.9286 33.9041 20.5973 33.8299C21.9693 33.7557 22.9149 32.828 23.8975 31.8447C24.8987 30.8613 25.937 29.8223 27.4573 29.7481C29.1445 29.6739 30.8873 30.7871 32.6487 33.0877C32.7043 33.1434 32.6858 33.2362 32.6302 33.2918C32.5745 33.3475 32.4818 33.3289 32.4262 33.2733C30.7205 31.0469 29.0704 29.9522 27.4759 30.045C26.0668 30.1192 25.1027 31.0654 24.1015 32.0487C23.1188 32.995 22.0805 33.9969 20.6158 34.0711C20.5602 34.0896 20.5046 34.0896 20.4304 34.0896Z" fill="black"/>
<path fill-rule="evenodd" clip-rule="evenodd" d="M11.327 134.427C11.3455 134.446 11.3826 134.464 11.4197 134.464C11.4568 134.464 11.4939 134.446 11.5124 134.427L17.7977 128.138C17.8162 128.119 17.8348 128.082 17.8348 128.045C17.8348 128.008 17.8162 127.971 17.7977 127.952L11.5309 121.644C11.4753 121.588 11.3826 121.588 11.327 121.644L5.04172 127.933C4.98609 127.989 4.98609 128.082 5.04172 128.138L11.327 134.427ZM11.42 134.13L5.33866 128.045L11.42 121.959L17.5013 128.045L11.42 134.13Z" fill="black"/>
<path fill-rule="evenodd" clip-rule="evenodd" d="M92.5352 54.7212C92.5352 54.7769 92.5908 54.8325 92.665 54.8325H92.7021L97.9305 54.0347C98.0047 54.0162 98.0603 53.942 98.0418 53.8678L97.2445 48.6357C97.226 48.5615 97.1518 48.5058 97.0777 48.5243L91.8492 49.3221C91.775 49.3407 91.7194 49.4149 91.738 49.4891L92.5352 54.7212ZM92.7943 54.5357L92.0341 49.5819L96.9845 48.8212L97.7446 53.775L92.7943 54.5357Z" fill="black"/>
<path d="M159.986 33.4403C159.949 33.4403 159.893 33.4217 159.874 33.3846L157.39 29.6368C157.353 29.5811 157.371 29.4884 157.427 29.4513C157.483 29.4141 157.575 29.4327 157.612 29.4884L160.097 33.2362C160.134 33.2918 160.115 33.3846 160.06 33.4217C160.023 33.4403 160.004 33.4403 159.986 33.4403Z" fill="black"/>
<path d="M82.1526 83.7389C82.1156 83.7389 82.0785 83.7203 82.0414 83.6832C81.9858 83.6275 82.0043 83.5348 82.0599 83.4791L85.4529 80.5291C85.5085 80.4734 85.6012 80.492 85.6568 80.5476C85.7124 80.6033 85.6939 80.6961 85.6383 80.7517L82.2453 83.7017C82.2268 83.7203 82.1897 83.7389 82.1526 83.7389Z" fill="black"/>
<path d="M155.351 161.812C155.314 161.812 155.258 161.794 155.24 161.756L152.607 158.12C152.57 158.064 152.57 157.972 152.644 157.934C152.7 157.897 152.792 157.897 152.829 157.972L155.462 161.608C155.499 161.664 155.499 161.756 155.425 161.794C155.425 161.812 155.388 161.812 155.351 161.812Z" fill="black"/>
<path d="M14.9612 83.8874C14.9241 83.8874 14.887 83.8688 14.8685 83.8502L11.7907 80.5848C11.7351 80.5292 11.7351 80.4364 11.7907 80.3807C11.8464 80.3251 11.9391 80.3251 11.9947 80.3807L15.0724 83.6462C15.1281 83.7018 15.1281 83.7946 15.0724 83.8502C15.0354 83.8874 14.9983 83.8874 14.9612 83.8874Z" fill="black"/>
<path d="M31.2028 143.036C31.1657 143.036 31.1472 143.036 31.1286 143.017C31.073 142.98 31.0545 142.888 31.0916 142.832L33.7614 139.214C33.7985 139.158 33.8912 139.14 33.9468 139.177C34.0024 139.214 34.021 139.307 33.9839 139.362L31.314 142.98C31.2955 143.017 31.2584 143.036 31.2028 143.036Z" fill="black"/>
<path d="M181.104 107.135C181.067 107.135 181.03 107.116 180.993 107.079C180.937 107.024 180.955 106.931 181.011 106.875L184.552 104.092C184.608 104.037 184.701 104.055 184.756 104.111C184.812 104.166 184.793 104.259 184.738 104.315L181.197 107.098C181.159 107.135 181.122 107.135 181.104 107.135Z" fill="black"/>
<path d="M165.585 92.8857C167.275 92.8857 168.644 91.5151 168.644 89.8244C168.644 88.1337 167.275 86.7631 165.585 86.7631C163.896 86.7631 162.526 88.1337 162.526 89.8244C162.526 91.5151 163.896 92.8857 165.585 92.8857Z" fill="#FFDEE9"/>
<path d="M101.731 29.8595C102.745 29.8595 103.567 29.0371 103.567 28.0227C103.567 27.0082 102.745 26.1859 101.731 26.1859C100.717 26.1859 99.8955 27.0082 99.8955 28.0227C99.8955 29.0371 100.717 29.8595 101.731 29.8595Z" fill="#FFDEE9"/>
<path d="M33.0747 107.358C34.5083 107.358 35.6704 106.195 35.6704 104.76C35.6704 103.326 34.5083 102.163 33.0747 102.163C31.6411 102.163 30.479 103.326 30.479 104.76C30.479 106.195 31.6411 107.358 33.0747 107.358Z" fill="#FFDEE9"/>
<path d="M172.687 45.5743C173.403 45.5743 173.984 44.9928 173.984 44.2756C173.984 43.5583 173.403 42.9768 172.687 42.9768C171.97 42.9768 171.389 43.5583 171.389 44.2756C171.389 44.9928 171.97 45.5743 172.687 45.5743Z" fill="#FFDEE9"/>
<path d="M18.2983 154.168C19.0151 154.168 19.5962 153.587 19.5962 152.869C19.5962 152.152 19.0151 151.571 18.2983 151.571C17.5816 151.571 17.0005 152.152 17.0005 152.869C17.0005 153.587 17.5816 154.168 18.2983 154.168Z" fill="#FFDEE9"/>
<path fill-rule="evenodd" clip-rule="evenodd" d="M176.217 73.7161C176.239 73.7287 176.256 73.7386 176.283 73.7386C176.339 73.7386 176.376 73.72 176.394 73.6829L181.196 67.5974C181.233 67.5603 181.233 67.5232 181.233 67.4861C181.233 67.449 181.215 67.4118 181.178 67.3933L175.096 62.5879C175.022 62.5323 174.948 62.5508 174.892 62.6065L170.09 68.692C170.053 68.7291 170.053 68.7663 170.053 68.8034C170.053 68.8405 170.072 68.8776 170.109 68.8961L176.19 73.7015C176.2 73.7065 176.209 73.7114 176.217 73.7161ZM176.265 73.4232L170.406 68.7848L175.041 62.9219L180.9 67.5603L176.265 73.4232Z" fill="black"/>
<path d="M120.686 136.353C121.409 137.281 122.15 138.209 122.873 139.136C121.409 139.136 119.945 139.136 118.48 139.136C119.222 138.209 119.945 137.281 120.686 136.353Z" fill="#009691"/>
<path fill-rule="evenodd" clip-rule="evenodd" d="M118.369 139.21C118.406 139.247 118.443 139.284 118.499 139.284C119.963 139.284 121.428 139.284 122.873 139.266C122.929 139.266 122.985 139.247 123.003 139.192C123.022 139.136 123.022 139.08 122.985 139.043C122.623 138.579 122.257 138.116 121.891 137.652C121.525 137.188 121.159 136.724 120.797 136.26C120.76 136.223 120.723 136.205 120.686 136.205C120.649 136.205 120.594 136.223 120.575 136.26L120.575 136.261C119.834 137.207 119.092 138.153 118.388 139.062C118.351 139.099 118.332 139.173 118.369 139.21L118.369 139.21ZM118.777 139.006C119.389 138.208 120.038 137.392 120.687 136.576C121.335 137.392 121.965 138.19 122.596 139.006H118.777Z" fill="black"/>
<path d="M157.534 126.187C158.034 128.079 159.498 133.645 160.944 139.155C157.941 139.155 154.92 139.155 151.917 139.136H152.881H151.917C152.399 138.042 152.881 136.966 153.363 135.871C154.772 132.606 156.162 129.378 157.534 126.187Z" fill="#009691"/>
<path fill-rule="evenodd" clip-rule="evenodd" d="M151.899 139.266L160.925 139.285C160.981 139.285 161.018 139.266 161.055 139.21C161.074 139.192 161.092 139.136 161.074 139.099C159.554 133.274 158.145 127.949 157.663 126.131C157.645 126.057 157.589 126.02 157.533 126.02C157.478 126.02 157.422 126.057 157.404 126.113C156.014 129.396 154.605 132.662 153.233 135.797C152.992 136.344 152.751 136.887 152.51 137.429C152.269 137.972 152.029 138.515 151.788 139.062C151.769 139.08 151.769 139.099 151.769 139.118C151.769 139.21 151.825 139.266 151.899 139.266ZM160.759 139.006H152.918C152.91 139.006 152.906 139.006 152.902 139.005C152.896 139.003 152.892 138.998 152.881 138.988H152.121C152.303 138.57 152.488 138.153 152.674 137.734C152.942 137.129 153.211 136.522 153.474 135.908C154.79 132.884 156.143 129.749 157.496 126.595C158.052 128.691 159.35 133.626 160.759 139.006Z" fill="black"/>
<path fill-rule="evenodd" clip-rule="evenodd" d="M152.641 95.1218C152.682 95.1682 152.724 95.2146 152.77 95.261C152.774 95.2649 152.778 95.268 152.782 95.2703C151.797 95.4275 151.012 95.9967 150.662 96.2512C150.647 96.2618 150.633 96.2718 150.62 96.2813C149.379 97.2089 148.897 98.4519 148.748 98.86C148.656 99.0641 148.526 99.4351 148.452 99.9546C148.448 99.9834 148.443 100.016 148.437 100.051C148.303 100.952 147.859 103.92 149.267 105.205L148.656 106.633C147.636 106.633 145.968 106.745 144.17 107.283C140.074 108.526 134.94 113.238 131.01 120.454C128.407 119.017 125.803 117.574 123.199 116.132C120.594 114.69 117.99 113.247 115.385 111.809C115.385 111.809 112.92 105.91 111.549 106.633C111.141 106.856 111.048 107.338 111.141 107.913C110.029 107.153 109.176 106.485 108.62 106.021L108.615 106.016C108.166 105.642 107.042 104.704 106.303 104.815C106.211 104.834 105.951 104.889 105.766 105.093C105.599 105.279 105.58 105.52 105.58 105.613C105.58 105.613 105.562 105.947 105.747 106.281C105.913 106.582 106.997 107.632 107.547 108.163C107.673 108.286 107.771 108.381 107.823 108.433C105.97 107.375 104.598 106.726 104.135 106.745C103.708 106.763 103.486 106.967 103.486 106.967C103.245 107.171 103.208 107.505 103.208 107.598C103.189 107.746 103.208 107.95 103.393 108.321C103.523 108.581 104.246 109.416 104.246 109.416C104.246 109.416 103.746 109.268 103.597 109.268C103.171 109.286 102.949 109.49 102.949 109.49C102.708 109.694 102.671 110.028 102.671 110.121C102.652 110.418 102.745 110.64 102.856 110.844C103.06 111.29 103.393 111.587 103.653 111.772C103.746 111.828 103.838 111.865 103.931 111.902C103.542 111.754 103.097 111.642 102.782 111.865C102.559 112.013 102.467 112.273 102.43 112.477C102.338 112.991 102.863 113.468 103.072 113.658L103.078 113.664C104.357 114.833 112.272 118.989 112.772 119.248L112.272 120.695C113.05 121.094 113.833 121.489 114.616 121.883C115.399 122.277 116.182 122.671 116.961 123.07C115.311 124.332 112.846 126.669 108.843 130.918C106.971 132.903 104.227 136.001 101.484 139.136C99.6002 139.139 97.7454 139.141 95.9279 139.144C84.9435 139.159 75.3275 139.173 68.9184 139.173C68.8257 136.251 68.7377 133.325 68.6496 130.398C68.5616 127.472 68.4735 124.545 68.3809 121.623C74.8496 109.119 81.5963 100.734 87.2124 94.9827C90.1733 91.9593 92.9924 89.4969 95.6073 87.213C101.914 81.7049 107.032 77.2345 110.084 68.435C111.901 63.222 112.513 57.8049 112.42 52.5918H127.303C127.211 57.8049 127.822 63.222 129.639 68.435C132.692 77.2345 137.81 81.7049 144.116 87.213C146.731 89.4969 149.55 91.9593 152.511 94.9827C152.557 95.0291 152.599 95.0754 152.641 95.1218ZM152.845 95.261C152.815 95.2756 152.798 95.2787 152.782 95.2703C152.803 95.267 152.824 95.2639 152.845 95.261ZM157.571 100.585C164.318 108.674 171.936 120.454 178.571 137.837C178.812 138.487 178.349 139.192 177.663 139.192C176.755 139.192 175.745 139.188 174.64 139.184C173.308 139.179 171.84 139.173 170.249 139.173C169.971 138.338 169.693 137.485 169.415 136.594C167.722 131.274 166.505 128.004 165.157 124.383C164.719 123.206 164.267 121.992 163.78 120.658C161.945 115.612 158.961 110.585 154.55 108.266C154.346 108.154 154.142 108.062 153.938 107.969L154.791 105.001C154.865 105.112 154.976 105.242 155.124 105.353C155.662 105.724 156.607 105.687 157.163 105.075C157.812 104.351 157.552 103.257 157.089 102.83C157.071 102.793 157.033 102.756 156.996 102.737C157.003 102.723 157.008 102.712 157.012 102.702C157.018 102.686 157.022 102.675 157.033 102.663C157.163 102.403 157.423 101.81 157.534 100.993C157.552 100.864 157.571 100.715 157.571 100.585Z" fill="#009691"/>
<path fill-rule="evenodd" clip-rule="evenodd" d="M68.9182 139.322C68.8441 139.322 68.7885 139.266 68.7885 139.192L68.251 121.642C68.251 121.623 68.251 121.586 68.2695 121.568C73.6632 111.141 80.0207 102.181 87.1381 94.89C90.1037 91.8661 92.8654 89.4358 95.5529 87.0983L95.6121 87.0464C101.942 81.5055 106.943 77.1273 109.973 68.398C111.623 63.6488 112.401 58.343 112.29 52.6105C112.29 52.5733 112.309 52.5362 112.327 52.5177C112.346 52.4991 112.383 52.4806 112.42 52.4806H127.303C127.34 52.4806 127.377 52.4991 127.396 52.5177C127.415 52.5362 127.433 52.5733 127.433 52.6105C127.34 58.343 128.119 63.6673 129.75 68.398C132.79 77.1545 137.813 81.5513 144.17 87.0983L144.548 87.4289C147.101 89.6642 149.759 91.9907 152.585 94.89C152.617 94.9217 152.646 94.9533 152.675 94.9842C152.73 95.0439 152.783 95.1008 152.844 95.1497L152.882 95.1869C152.919 95.224 152.937 95.2796 152.919 95.3353C152.9 95.3909 152.863 95.428 152.807 95.428C151.769 95.5764 150.954 96.1887 150.639 96.4298C149.823 97.042 149.212 97.8954 148.822 98.9343L148.797 99.0086C148.722 99.2322 148.611 99.56 148.544 99.9918V100.029C148.025 103.201 148.674 104.556 149.323 105.131C149.36 105.168 149.378 105.242 149.36 105.279L148.748 106.708C148.73 106.763 148.674 106.8 148.618 106.8C147.562 106.8 145.912 106.93 144.17 107.45C139.796 108.785 134.773 113.794 131.084 120.547C131.071 120.573 131.05 120.59 131.031 120.604C131.023 120.61 131.016 120.616 131.01 120.621C130.973 120.64 130.936 120.621 130.899 120.603L115.274 111.958C115.27 111.953 115.264 111.949 115.259 111.944C115.24 111.929 115.219 111.912 115.219 111.883C115.218 111.882 115.213 111.871 115.204 111.851L115.204 111.851C115.026 111.436 113.212 107.224 111.938 106.763C111.79 106.708 111.678 106.708 111.567 106.782C111.271 106.949 111.159 107.32 111.234 107.913C111.234 107.969 111.215 108.025 111.178 108.043C111.122 108.08 111.067 108.08 111.03 108.043C110.14 107.431 109.287 106.782 108.509 106.132L108.472 106.095C108.027 105.724 106.952 104.852 106.303 104.945L106.29 104.948C106.19 104.967 105.981 105.008 105.84 105.168C105.71 105.316 105.692 105.52 105.692 105.613C105.692 105.613 105.673 105.91 105.84 106.207C106.007 106.503 107.156 107.617 107.656 108.099C107.698 108.14 107.736 108.177 107.771 108.209C107.829 108.263 107.874 108.305 107.897 108.34C107.934 108.377 107.953 108.433 107.934 108.488C107.897 108.563 107.805 108.6 107.73 108.563C105.895 107.524 104.561 106.893 104.135 106.893H104.116C103.745 106.893 103.56 107.06 103.542 107.079C103.412 107.208 103.338 107.375 103.319 107.617C103.319 107.746 103.319 107.932 103.486 108.266C103.579 108.47 104.116 109.101 104.32 109.323C104.357 109.379 104.376 109.435 104.339 109.49C104.301 109.546 104.246 109.565 104.172 109.546C104.138 109.537 104.102 109.527 104.063 109.516L104.062 109.516C103.869 109.462 103.637 109.398 103.56 109.398C103.189 109.398 103.004 109.565 103.004 109.583C102.874 109.713 102.8 109.88 102.782 110.121C102.764 110.366 102.846 110.546 102.933 110.737L102.948 110.77C103.115 111.104 103.375 111.401 103.69 111.642L103.949 111.754C104.023 111.791 104.042 111.865 104.023 111.939C103.986 112.013 103.912 112.05 103.838 112.013C103.375 111.828 103.041 111.809 102.819 111.958C102.67 112.05 102.578 112.236 102.522 112.477C102.45 112.913 102.909 113.331 103.12 113.522L103.134 113.535C104.413 114.703 112.457 118.915 112.79 119.082C112.846 119.119 112.883 119.193 112.865 119.249L112.401 120.566L112.531 120.64C113.272 121.011 114.014 121.387 114.755 121.762C115.497 122.138 116.238 122.514 116.979 122.885C117.016 122.903 117.053 122.94 117.053 122.996C117.053 123.052 117.035 123.089 116.998 123.126C115.2 124.517 112.624 127.003 108.898 130.955C107.286 132.662 104.82 135.426 101.54 139.155C101.521 139.192 101.484 139.21 101.429 139.21C88.2131 139.303 76.3878 139.322 68.9182 139.322ZM174.622 139.314L174.626 139.314C175.729 139.318 176.738 139.321 177.645 139.321C178.015 139.321 178.367 139.136 178.59 138.876C178.812 138.561 178.849 138.171 178.72 137.819C173.066 123.014 166.005 110.473 157.701 100.53C157.664 100.474 157.608 100.455 157.553 100.474C157.478 100.493 157.441 100.548 157.441 100.604C157.441 100.734 157.423 100.864 157.404 100.993C157.275 101.903 156.978 102.496 156.922 102.607L156.885 102.682C156.848 102.756 156.867 102.83 156.922 102.867C156.932 102.872 156.94 102.877 156.947 102.884C156.955 102.89 156.962 102.897 156.969 102.904C156.983 102.918 156.997 102.932 157.015 102.941C157.423 103.331 157.664 104.333 157.071 104.982C156.57 105.539 155.681 105.557 155.217 105.223C155.106 105.131 154.995 105.038 154.921 104.908C154.902 104.871 154.847 104.852 154.791 104.852C154.735 104.852 154.698 104.889 154.68 104.945L153.827 107.913C153.809 107.987 153.846 108.043 153.901 108.08C154.039 108.155 154.176 108.222 154.307 108.286L154.308 108.286C154.371 108.317 154.434 108.347 154.494 108.377C159.258 110.882 162.112 116.466 163.651 120.695C164.034 121.77 164.405 122.768 164.763 123.732L164.763 123.733L164.985 124.332L165.143 124.758L165.143 124.759C166.45 128.294 167.627 131.477 169.267 136.631C169.414 137.074 169.554 137.516 169.692 137.95L169.693 137.952C169.78 138.227 169.866 138.499 169.953 138.765L170.101 139.21C170.119 139.266 170.175 139.303 170.231 139.303C171.821 139.303 173.29 139.308 174.622 139.314ZM174.677 139.035C173.364 139.03 171.914 139.025 170.341 139.025L170.23 138.654C170.144 138.388 170.058 138.116 169.97 137.841L169.97 137.839C169.832 137.405 169.692 136.963 169.544 136.52C167.82 131.14 166.634 127.931 165.244 124.202C165.042 123.656 164.839 123.101 164.631 122.53C164.4 121.899 164.163 121.248 163.91 120.566C162.334 116.28 159.461 110.64 154.605 108.099C154.495 108.03 154.374 107.971 154.244 107.908L154.177 107.875C154.153 107.863 154.129 107.851 154.105 107.839L154.846 105.242C154.895 105.308 154.945 105.344 155.007 105.39L155.031 105.409C155.606 105.817 156.644 105.78 157.256 105.112C157.96 104.333 157.682 103.164 157.181 102.682L157.163 102.663L157.168 102.652C157.249 102.47 157.518 101.865 157.645 100.994C157.663 100.975 157.663 100.938 157.663 100.919C165.856 110.807 172.843 123.237 178.441 137.875C178.552 138.153 178.515 138.431 178.348 138.672C178.181 138.913 177.922 139.043 177.644 139.043C176.755 139.043 175.764 139.039 174.679 139.035H174.678H174.677ZM69.048 139.043L68.529 121.66C73.9042 111.271 80.2246 102.348 87.3049 95.0569C90.2237 92.0807 92.945 89.6975 95.5748 87.3945L95.7013 87.2837L95.7515 87.2398C102.104 81.6764 107.145 77.2611 110.196 68.4537C111.827 63.7229 112.624 58.4171 112.531 52.7032H127.137C127.044 58.4171 127.822 63.7229 129.472 68.4537C132.53 77.2843 137.572 81.6996 143.966 87.2837L144.093 87.3945C146.722 89.6975 149.444 92.0807 152.363 95.0569L152.474 95.1683C151.51 95.3909 150.75 95.9474 150.453 96.1701C149.601 96.8194 148.952 97.6913 148.544 98.8044C148.452 99.027 148.322 99.3981 148.248 99.9175V99.9546C147.822 102.533 148.081 104.314 149.026 105.242L148.489 106.503C147.414 106.522 145.801 106.652 144.059 107.171C139.629 108.507 134.588 113.535 130.881 120.287L115.422 111.735C115.219 111.216 113.402 107.004 112.012 106.503C111.79 106.429 111.604 106.429 111.419 106.522C111.067 106.707 110.9 107.079 110.918 107.635C110.121 107.079 109.362 106.485 108.657 105.91L108.62 105.873L108.6 105.857C108.074 105.424 106.998 104.539 106.229 104.667C106.224 104.668 106.218 104.669 106.212 104.67C106.09 104.689 105.811 104.735 105.599 104.982C105.395 105.205 105.376 105.465 105.376 105.576C105.376 105.577 105.376 105.578 105.376 105.58C105.375 105.626 105.367 105.963 105.562 106.318C105.692 106.559 106.248 107.134 106.915 107.783C105.766 107.171 104.579 106.596 104.079 106.596H104.061C103.597 106.615 103.338 106.837 103.319 106.856C103.134 107.041 103.023 107.283 103.004 107.598C103.004 107.765 103.004 107.988 103.208 108.396C103.282 108.563 103.56 108.915 103.782 109.175L103.782 109.175C103.69 109.156 103.597 109.138 103.542 109.138C103.078 109.156 102.819 109.379 102.8 109.397C102.615 109.564 102.504 109.806 102.485 110.121C102.467 110.436 102.578 110.678 102.689 110.919C102.819 111.16 102.985 111.401 103.189 111.605C102.985 111.605 102.819 111.661 102.67 111.754C102.467 111.902 102.337 112.125 102.263 112.459C102.172 113.042 102.706 113.535 102.954 113.764L102.967 113.776C104.209 114.907 111.345 118.673 112.587 119.323L112.123 120.658C112.105 120.714 112.142 120.788 112.197 120.825L112.438 120.955C113.009 121.244 113.579 121.531 114.149 121.816C115.004 122.245 115.856 122.673 116.701 123.107C114.903 124.536 112.364 127.003 108.75 130.843C107.137 132.55 104.691 135.296 101.429 139.006C99.5472 139.009 97.6954 139.011 95.8812 139.014C84.9873 139.03 75.4513 139.043 69.048 139.043Z" fill="black"/>
<path d="M152.807 95.4465C152.77 95.4465 152.752 95.4279 152.714 95.4094L152.622 95.3166C152.566 95.2609 152.529 95.2053 152.473 95.1682L152.399 95.094C149.434 92.07 146.672 89.6583 144.003 87.3208C137.608 81.7367 132.567 77.3213 129.49 68.4907C127.841 63.7229 127.044 58.3614 127.155 52.5918C127.155 52.5176 127.21 52.4619 127.303 52.4619C127.377 52.4619 127.433 52.5176 127.433 52.6103C127.34 58.3428 128.119 63.6672 129.75 68.3979C132.789 77.1544 137.812 81.5512 144.17 87.1167C146.839 89.4542 149.619 91.866 152.585 94.9085L152.659 94.9827C152.714 95.0383 152.752 95.0754 152.807 95.1311L152.881 95.2053C152.937 95.2609 152.937 95.3351 152.9 95.4094C152.9 95.4279 152.863 95.4465 152.807 95.4465Z" fill="black"/>
<path d="M112.42 52.7403C112.345 52.7403 112.29 52.6846 112.271 52.6104C112.216 49.234 111.845 45.635 111.178 41.9246C110.751 39.5314 110.177 37.064 109.491 34.541C109.398 34.1885 109.473 33.836 109.676 33.5577C109.899 33.2795 110.214 33.1125 110.566 33.1125H129.12C129.472 33.1125 129.805 33.2795 130.009 33.5577C130.232 33.836 130.287 34.207 130.195 34.541C129.509 37.0455 128.953 39.5314 128.508 41.9246C127.841 45.635 127.47 49.234 127.414 52.6104C127.414 52.6846 127.34 52.7403 127.266 52.7403C127.192 52.7403 127.136 52.6846 127.136 52.5919C127.192 49.1969 127.563 45.5979 128.248 41.8689C128.675 39.4758 129.249 36.9898 129.935 34.4668C130.009 34.207 129.954 33.9288 129.787 33.7247C129.62 33.5206 129.379 33.3908 129.12 33.3908H110.585C110.325 33.3908 110.066 33.5206 109.917 33.7247C109.751 33.9288 109.695 34.207 109.769 34.4668C110.455 36.9898 111.03 39.4758 111.456 41.8689C112.123 45.5979 112.494 49.1969 112.568 52.5919C112.568 52.6846 112.494 52.7403 112.42 52.7403Z" fill="black"/>
<path d="M68.9179 139.173C65.8226 139.173 63.4686 139.173 62.0971 139.173C61.4113 139.173 60.9294 138.487 61.1703 137.819C63.4872 131.752 65.9153 126.391 68.3989 121.605C68.5658 127.486 68.7326 133.329 68.9179 139.173Z" fill="black"/>
<path d="M58.3898 64.9474C58.3528 64.9474 58.3157 64.9289 58.2972 64.9103C58.2416 64.8547 58.2416 64.7619 58.2972 64.7063L82.6706 38.641C83.0598 38.2143 83.0784 37.565 82.7077 37.1383L70.1966 22.6679C69.9927 22.4267 69.6776 22.2783 69.3625 22.2783C69.0474 22.2783 68.7323 22.4081 68.5285 22.6308L41.1709 51.887C41.1153 51.9426 41.0226 51.9426 40.967 51.887C40.9114 51.8313 40.9114 51.7386 40.967 51.6829L68.306 22.4452C68.5655 22.167 68.9362 22 69.3255 22H69.344C69.7332 22 70.1225 22.1855 70.3819 22.4823L82.893 36.9528C83.3564 37.4908 83.3564 38.307 82.856 38.8265L58.501 64.9103C58.464 64.9474 58.4269 64.9474 58.3898 64.9474Z" fill="black"/>
<path d="M36.5181 56.6548C36.8332 56.3208 37.1297 55.9869 37.4448 55.653C37.6116 56.2652 37.8155 56.9516 38.0565 57.6751C38.0935 57.805 38.1306 57.9163 38.1491 58.0461C37.6302 57.267 37.0185 56.7661 36.5181 56.6548Z" fill="#762AE2"/>
<path fill-rule="evenodd" clip-rule="evenodd" d="M38.0573 58.1575C38.0759 58.1946 38.1315 58.2132 38.1685 58.2132C38.1778 58.2132 38.1871 58.2085 38.1963 58.2039C38.2056 58.1992 38.2149 58.1946 38.2241 58.1946C38.2797 58.1575 38.3168 58.1019 38.2983 58.0276L38.2056 57.6752V57.6566C37.9646 56.9516 37.7608 56.2652 37.594 55.6345C37.594 55.5974 37.5569 55.5603 37.5013 55.5417C37.4642 55.5231 37.4086 55.5417 37.3715 55.5788C37.214 55.7458 37.0611 55.9127 36.9082 56.0797C36.7552 56.2467 36.6023 56.4136 36.4448 56.5806C36.4077 56.6177 36.4077 56.6734 36.4077 56.7105C36.4077 56.7476 36.4448 56.7847 36.5004 56.8032C36.9823 56.9145 37.5754 57.434 38.0573 58.1575ZM37.8162 57.3968C37.4825 57.0258 37.1118 56.729 36.7782 56.5991C36.9821 56.3765 37.186 56.1539 37.3899 55.9498C37.4284 56.0819 37.4669 56.2189 37.5063 56.3593C37.5999 56.6923 37.6989 57.0445 37.8162 57.3968Z" fill="black"/>
<path d="M69.8072 52.6105L66.8231 55.8014L62.7269 60.1796L58.9272 64.261L58.3897 64.8361C57.6298 64.5022 56.8142 64.3723 56.0172 64.5949C53.9043 65.1886 52.7366 67.9899 53.1814 70.4202C50.3456 73.4627 47.4912 76.5052 44.6553 79.5477C39.5397 85.0205 32.1813 85.7997 28.2704 81.2916C25.657 78.2676 25.2307 73.574 26.8062 69.1772C27.5661 67.0252 28.8079 64.9474 30.4761 63.1665L35.5732 57.7122C35.6288 57.9163 35.74 58.1018 35.8512 58.2688C36.6112 59.3448 38.8539 61.3855 39.1134 61.6081C38.4832 59.2891 38.1681 58.1204 38.1681 58.1204C38.1681 58.1204 38.5759 59.5489 39.3543 62.4244C39.8548 62.5728 40.3923 62.7583 40.9113 62.9438C42.2643 63.4447 43.4876 63.9827 44.5812 64.5393C44.7851 63.8714 45.1558 62.4429 44.7295 60.6805C44.4329 59.4561 43.8769 58.5656 43.5062 58.0462C43.9695 56.8217 44.3958 55.6901 44.7665 54.6326C44.9148 54.2245 45.1372 53.5752 44.8221 53.167C44.8036 53.1485 44.6183 52.9073 44.3402 52.8888C43.9139 52.8702 43.5988 53.4082 43.3949 53.7792C43.0428 54.3914 42.5053 55.3747 41.9122 56.7661C41.9122 56.7661 42.3755 54.0204 42.5609 53.3154C42.5979 53.1485 42.6721 52.9073 42.6906 52.6476H69.8072V52.6105Z" fill="#FF735A"/>
<path fill-rule="evenodd" clip-rule="evenodd" d="M34.9065 84.3156H34.7026C32.1077 84.26 29.7908 83.2025 28.1783 81.3473C25.6205 78.3976 25.0459 73.6854 26.6769 69.0846C27.4739 66.8584 28.7529 64.762 30.3839 63.0181L35.481 57.5639C35.5181 57.5268 35.5737 57.5083 35.6108 57.5268C35.6664 57.5454 35.7035 57.5825 35.7035 57.6381C35.7378 57.8098 35.8356 57.9657 35.9235 58.1056L35.9444 58.139C36.5375 58.9924 38.0759 60.4394 38.8359 61.1259C38.7192 60.7088 38.6175 60.333 38.5274 60.0001C38.4172 59.5927 38.3244 59.2495 38.2427 58.9738C38.1501 58.6585 38.0945 58.4359 38.0574 58.2875L38.0574 58.2874C38.0203 58.1761 38.0018 58.1205 38.0018 58.1019H38.0203C38.0031 57.964 38.0339 57.9542 38.0829 57.9387L38.0945 57.9349C38.1315 57.9164 38.1686 57.9349 38.2057 57.9535C38.2185 57.9535 38.2224 57.9623 38.2358 57.9922L38.2358 57.9922C38.2419 58.0056 38.2498 58.0232 38.2613 58.0463H38.2798C38.2798 58.0648 38.2983 58.1576 38.3725 58.3802C38.4481 58.6261 38.5574 59.0262 38.7323 59.6666L38.7323 59.6667L38.7323 59.6667C38.9006 60.2826 39.1295 61.1207 39.4475 62.2575C39.9294 62.4059 40.4484 62.5729 40.9488 62.7584C42.1536 63.2037 43.3399 63.7046 44.4705 64.2797C44.73 63.4077 44.9153 62.1277 44.5817 60.6621C44.3593 59.7345 43.9515 58.8625 43.3769 58.0834C43.3399 58.0463 43.3399 57.9906 43.3584 57.9535C43.7847 56.8589 44.1925 55.7458 44.6188 54.54C44.7485 54.206 44.9709 53.5753 44.6929 53.2042C44.6929 53.2042 44.5261 53.0002 44.3222 52.9816C43.97 52.9631 43.6549 53.5011 43.4881 53.7979C42.9877 54.6698 42.4872 55.6716 42.0053 56.7662C41.9868 56.8218 41.9127 56.8589 41.8385 56.8404C41.7644 56.8218 41.7273 56.7476 41.7458 56.692C41.7644 56.5807 42.2092 53.9463 42.3946 53.2413V53.2228C42.4033 53.1834 42.4141 53.141 42.4255 53.0962L42.4256 53.096C42.4625 52.9507 42.5058 52.7806 42.5058 52.6106C42.5058 52.5364 42.5799 52.4807 42.6355 52.4807H69.7707C69.8263 52.4807 69.8819 52.5178 69.9004 52.5735C69.919 52.6291 69.919 52.6848 69.8819 52.7219L58.4644 64.929C58.4273 64.9661 58.3532 64.9846 58.2976 64.9661C57.5191 64.6136 56.7221 64.5394 56.0178 64.7249C53.8677 65.3186 52.8668 68.1384 53.2746 70.3832C53.2746 70.4203 53.2746 70.476 53.2375 70.4945L44.7114 79.622C41.9497 82.6089 38.3725 84.3156 34.9065 84.3156ZM35.5177 57.9349L30.5689 63.2222C28.9564 64.9289 27.7145 67.0067 26.9361 69.1958C25.3421 73.7039 25.8796 78.2862 28.3818 81.1803C29.9758 83.0169 32.1629 84.0002 34.7022 84.0558C38.1497 84.1301 41.7455 82.4418 44.5443 79.4364L53.0147 70.3646C52.5143 67.452 54.1268 64.966 55.9618 64.4466C56.7032 64.2425 57.5187 64.3167 58.3343 64.6507L69.4552 52.7404H44.5257C44.7852 52.8146 44.9335 53.0372 44.9335 53.0372C45.2855 53.4776 45.0526 54.1688 44.9171 54.571L44.8964 54.6327C44.4887 55.8014 44.0809 56.896 43.6546 57.972C44.2292 58.7697 44.6369 59.6602 44.8594 60.5878C45.2486 62.2204 44.9891 63.6118 44.6925 64.5208C44.674 64.5579 44.6555 64.595 44.6184 64.6136C44.5813 64.6321 44.5443 64.6321 44.5072 64.6136C43.3395 64.0199 42.0977 63.4819 40.8558 63.0181C40.3368 62.8326 39.7993 62.6471 39.2989 62.4986C39.2618 62.4801 39.2247 62.443 39.2062 62.4059L39.2062 62.4058C39.1321 62.1461 39.0579 61.8864 39.0023 61.6453C38.5575 61.2557 36.463 59.3263 35.7216 58.2874C35.687 58.218 35.6451 58.1486 35.6005 58.0747C35.5736 58.0301 35.5457 57.9838 35.5177 57.9349ZM42.7115 53.1973C42.746 53.0646 42.7866 52.9088 42.8019 52.7405V52.7219H44.1179C43.7351 52.8496 43.4599 53.3181 43.2746 53.6336L43.2652 53.6495C42.9131 54.2617 42.5609 54.9296 42.2273 55.6531C42.3756 54.7997 42.5795 53.7052 42.6907 53.297V53.2785C42.6971 53.2525 42.7042 53.2254 42.7115 53.1973Z" fill="black"/>
<path d="M78.7601 165.758C72.6992 165.276 66.6382 164.793 60.5773 164.311C60.4846 162.252 60.3734 160.192 60.2808 158.133C62.82 158.115 65.3779 158.096 67.9172 158.078C68.084 158.653 68.2508 159.228 68.4176 159.821C69.0478 159.692 72.069 159.116 75.0346 160.972C77.6295 162.586 78.5377 165.053 78.7601 165.758Z" fill="black"/>
<path d="M53.4781 168.634C48.0103 166.092 42.5425 163.55 37.0562 161.009C37.6863 159.098 38.3351 157.187 38.9838 155.276C41.3933 155.87 43.8214 156.464 46.2309 157.057C46.1568 157.929 46.0641 158.801 45.9715 159.654C46.6387 159.766 49.6414 160.341 51.7173 163.142C53.4225 165.443 53.4781 167.836 53.4781 168.634Z" fill="black"/>
<path d="M74.4038 72.9432C73.8292 74.4459 73.1249 75.5776 71.7348 77.7852C70.771 79.3065 69.6403 80.9762 68.3243 82.7571C69.0287 91.3095 69.7145 99.8433 70.4188 108.396C61.244 108.414 52.0877 108.451 42.9129 108.47C43.4505 105.798 43.9694 103.053 44.4513 100.233C45.2298 95.6692 45.8415 91.2539 46.3419 87.0055C45.0815 86.9498 43.228 86.7643 41.078 86.1521C37.8158 85.2245 33.7937 84.0929 32.3666 81.0875C30.995 78.1934 32.6446 74.7613 35.6472 68.565C36.9818 65.8008 38.3163 63.6302 39.2616 62.2017C40.1142 62.48 41.0224 62.8139 41.9862 63.2035C42.9871 63.6117 43.8953 64.0569 44.7294 64.4836C44.7294 64.5021 44.7108 64.5207 44.7108 64.5578C43.9138 67.0623 41.0594 72.5351 39.5396 76.4495C41.4857 76.8391 43.1539 77.0988 44.3957 77.2658C48.8997 77.878 51.7726 77.8594 52.477 77.8594C52.9589 77.8594 53.3666 77.8409 53.6632 77.8409C53.6447 77.3029 53.6261 76.7834 53.6076 76.2454C55.9801 76.3196 58.3525 76.3939 60.725 76.4681C60.725 76.7278 60.7065 76.9875 60.7065 77.2658C60.7065 77.4699 60.7065 77.6554 60.7065 77.8594C61.5406 77.7481 62.3746 77.6554 63.2272 77.5441C64.4691 75.9672 65.7665 74.1676 67.0084 72.1269C67.7683 70.9025 68.4356 69.6967 69.0472 68.5464C68.1946 67.3035 67.2493 66.0234 66.2114 64.7062C65.0066 63.1664 63.7833 61.7565 62.6156 60.4764C63.8945 59.085 65.1734 57.6936 66.4523 56.3022C68.5653 58.3058 70.2334 60.0683 71.4382 61.3669C74.8486 65.1144 75.2379 66.1162 75.4047 66.9881C75.8125 69.1401 75.1267 71.0324 74.4038 72.9432Z" fill="black"/>
<path d="M59.4644 74.9282C59.4088 74.9282 59.3532 74.8911 59.3346 74.8354C59.3161 74.7612 59.3532 74.687 59.4273 74.6685C59.5571 74.6314 59.6683 74.5757 59.7795 74.5201C60.8174 74.0192 61.2993 73.0174 61.5218 72.2567C62.0037 70.6427 61.7627 68.6948 60.9286 67.2849C60.7062 66.8953 60.3911 66.5242 60.0575 66.1717C59.5385 65.6523 58.9454 65.2256 58.3338 64.9473C58.2596 64.9102 58.2411 64.836 58.2596 64.7618C58.2967 64.6876 58.3708 64.669 58.445 64.6876C59.0752 64.9659 59.7053 65.4111 60.2429 65.9677C60.595 66.3202 60.9101 66.7283 61.1511 67.1364C62.0407 68.6206 62.2817 70.6613 61.7813 72.3309C61.4291 73.4997 60.7804 74.3345 59.8907 74.7612C59.7609 74.8169 59.6312 74.8725 59.5015 74.9096C59.5015 74.9282 59.4829 74.9282 59.4644 74.9282Z" fill="black"/>
<path d="M59.6681 76.5978C59.594 76.5978 59.5384 76.5422 59.5384 76.468L59.3345 74.7983V74.7798C59.3345 74.7056 59.3901 74.6313 59.4828 74.6313C59.5754 74.6313 59.631 74.687 59.631 74.7798L59.8349 76.4309C59.8164 76.5051 59.7608 76.5793 59.6681 76.5978C59.6866 76.5978 59.6866 76.5978 59.6681 76.5978Z" fill="black"/>
<path d="M54.979 76.4493C54.8863 76.4493 54.8307 76.3751 54.8493 76.3008L54.9975 73.7221C54.9975 73.6479 55.0717 73.5923 55.1458 73.5923C55.22 73.5923 55.2756 73.6665 55.2756 73.7407L55.1273 76.3194C55.1273 76.3936 55.0531 76.4493 54.979 76.4493Z" fill="black"/>
<path d="M60.1507 66.0605C60.0951 66.5985 59.9097 67.1365 59.4649 67.489C59.4093 67.5447 59.1312 67.7487 58.5381 67.8229C57.0368 68.027 56.073 67.0067 55.4242 67.5076C55.276 67.6189 55.2204 67.7487 55.1648 67.8415C54.9053 68.3795 55.2945 68.8804 55.5169 69.808C55.6837 70.4944 55.7579 71.422 55.4984 71.5147C55.2945 71.589 55.1277 71.1252 54.479 70.9582C54.3678 70.9396 53.9415 70.8283 53.4781 71.0324C53.3669 71.0881 53.2927 71.1437 53.2371 71.1808C53.2186 71.1808 53.2186 71.1994 53.2001 71.1994C53.1259 70.7541 53.0703 70.2161 53.0703 69.5854C53.0703 69.3071 53.0703 69.0474 53.0888 68.7134C53.0888 68.7134 53.1815 67.8415 53.4781 67.0809C53.5893 66.8211 54.2936 65.0402 55.9803 64.5393C57.426 64.1497 59.0571 64.7433 60.1507 66.0605Z" fill="black"/>
<path d="M59.5203 74.6129C59.2608 74.6686 58.9272 74.7243 58.5565 74.7057C57.6112 74.6686 56.9254 74.2419 56.5918 74.0193C56.8328 74.2976 57.1664 74.6315 57.6483 74.9283C58.4268 75.4107 59.1867 75.5591 59.6315 75.6147C59.5945 75.2808 59.5574 74.9469 59.5203 74.6129Z" fill="black"/>
<path d="M54.2564 74.0192C53.8301 74.0192 53.4408 73.8893 53.1443 73.6482C52.5512 73.1473 52.4029 72.164 52.8106 71.459C52.8848 71.3477 53.274 70.7355 54.034 70.6613C54.6085 70.6057 55.0534 70.8839 55.2202 71.0138C55.2758 71.0695 55.2943 71.1437 55.2387 71.2179C55.1831 71.2735 55.109 71.2921 55.0348 71.2364C54.9051 71.1251 54.5344 70.9025 54.0525 70.9396C53.4223 71.0138 53.0887 71.5147 53.0331 71.6075C52.6809 72.2011 52.8106 73.0174 53.3111 73.4441C53.5706 73.6667 53.9598 73.778 54.3861 73.7409C54.6085 73.7224 54.831 73.6667 55.0348 73.5554C55.109 73.5183 55.1831 73.5554 55.2202 73.6111C55.2573 73.6667 55.2202 73.7595 55.1646 73.7966C54.9236 73.9264 54.6641 74.0006 54.4047 74.0192C54.3676 74.0192 54.312 74.0192 54.2564 74.0192Z" fill="black"/>
<path d="M56.7207 118.173C56.7022 118.173 56.7022 118.173 56.6836 118.173C56.6095 118.154 56.5539 118.08 56.5724 118.006L58.0923 111.401C58.1108 111.327 58.185 111.271 58.2591 111.29C58.3333 111.309 58.3889 111.383 58.3703 111.457L56.8505 118.061C56.8505 118.136 56.7763 118.173 56.7207 118.173Z" fill="black"/>
<path d="M68.3793 121.772C68.3052 121.772 68.2496 121.716 68.2496 121.642C68.1198 117.227 67.9901 112.83 67.8604 108.414C67.8604 108.34 67.916 108.266 67.9901 108.266C68.0642 108.266 68.1384 108.322 68.1384 108.396C68.2681 112.811 68.3979 117.208 68.5276 121.623C68.5276 121.698 68.472 121.772 68.3793 121.772Z" fill="black"/>
<path d="M59.4825 158.263C59.4084 158.263 59.3528 158.208 59.3528 158.133L56.6467 118.97L47.824 157.428C47.824 157.465 47.787 157.503 47.7684 157.521C47.7314 157.54 47.6943 157.54 47.6572 157.54L38.9643 155.406C38.538 155.295 38.1117 155.202 37.6854 155.091C37.6113 155.072 37.5742 154.998 37.5742 154.924C40.2062 139.786 42.8196 124.647 45.4516 109.509L45.6369 108.433C45.6555 108.359 45.7296 108.303 45.8037 108.322C45.8779 108.34 45.9335 108.414 45.9149 108.489L45.7296 109.565C43.1162 124.666 40.5027 139.767 37.8708 154.85C38.26 154.942 38.6492 155.035 39.0199 155.128L47.5831 157.243L56.5911 118.006C56.6096 117.932 56.6652 117.894 56.7393 117.894C56.8135 117.894 56.8691 117.95 56.8691 118.024L59.6123 157.985L69.3246 157.911L69.306 157.595C69.1207 151.455 68.9353 145.314 68.75 139.192C68.75 139.118 68.8056 139.044 68.8797 139.044C68.9539 139.044 69.028 139.099 69.028 139.173C69.2134 145.314 69.3987 151.455 69.5841 157.577L69.6026 158.041C69.6026 158.078 69.5841 158.115 69.5655 158.133C69.547 158.152 69.5099 158.17 69.4728 158.17L59.4825 158.263Z" fill="black"/>
<path d="M41.2256 155.963H41.2071C41.1329 155.944 41.0773 155.87 41.0959 155.796L50.2151 108.414C50.2336 108.34 50.3077 108.284 50.3819 108.303C50.456 108.322 50.5116 108.396 50.4931 108.47L41.3739 155.851C41.3554 155.926 41.2998 155.963 41.2256 155.963Z" fill="black"/>
<path d="M65.0061 158.207C64.932 158.207 64.8764 158.152 64.8764 158.096L57.7775 112.941C57.759 112.867 57.8146 112.793 57.8887 112.774C57.9629 112.755 58.037 112.811 58.0555 112.885L65.1544 158.04C65.173 158.115 65.1174 158.189 65.0432 158.207C65.0247 158.207 65.0061 158.207 65.0061 158.207Z" fill="black"/>
<path d="M37.5752 56.2095C37.5196 56.2095 37.464 56.1723 37.4455 56.0981C37.2416 55.2262 37.0006 54.3914 36.7411 53.6122L36.7226 53.5565C36.5743 53.0927 36.426 52.6661 36.667 52.295C36.9079 51.9425 37.4269 51.7756 37.8162 51.924C37.9459 51.9796 38.1498 52.1095 38.4649 52.7588C38.5761 52.9814 38.6688 53.2041 38.7614 53.4452C39.0395 52.5176 39.2989 51.7941 39.4102 51.5344C39.4843 51.3489 39.6326 51.1077 39.8921 50.9964C39.9106 50.9964 39.9291 50.9778 39.9477 50.9778C40.0589 50.9407 40.3554 50.8851 40.652 51.0149C40.9115 51.1448 41.1154 51.386 41.208 51.7199C41.3193 52.091 41.208 52.4063 41.1524 52.5547C41.1154 52.629 41.0412 52.6475 40.9671 52.629C40.893 52.5919 40.8559 52.5176 40.893 52.4434C40.9486 52.3321 41.0227 52.0724 40.9486 51.7941C40.9115 51.6457 40.8003 51.386 40.5408 51.2747C40.3369 51.1819 40.133 51.219 40.0403 51.2376C40.0218 51.2376 40.0033 51.2376 40.0033 51.2561C39.8735 51.3118 39.7809 51.4231 39.6882 51.6457C39.577 51.8869 39.2804 52.7032 38.9282 53.9647C38.9097 54.0203 38.8541 54.0574 38.7985 54.0574C38.7429 54.0574 38.6873 54.0203 38.6688 53.9647C38.5575 53.5936 38.4278 53.2412 38.2425 52.8887C38.0386 52.4805 37.8718 52.2394 37.742 52.1837C37.464 52.0724 37.0933 52.2023 36.9265 52.4434C36.7597 52.6846 36.8709 53.0556 37.0006 53.4638L37.0191 53.5194C37.2786 54.2986 37.5196 55.152 37.7235 56.0239C37.742 56.0981 37.7049 56.1723 37.6123 56.1909C37.5937 56.2095 37.5752 56.2095 37.5752 56.2095Z" fill="black"/>
<path d="M40.003 56.5248H39.9844C39.9103 56.5062 39.8547 56.432 39.8732 56.3578C40.0586 55.2447 40.3922 53.6678 40.8926 52.4619C40.9853 52.2208 41.2633 51.5529 41.7638 51.4787C41.7823 51.4787 42.3384 51.3859 42.6164 51.7384C42.7832 51.9425 42.8573 52.2208 42.8388 52.5918C42.8388 52.666 42.7647 52.7217 42.6905 52.7217C42.6164 52.7217 42.5608 52.6474 42.5608 52.5732C42.5793 52.2764 42.5237 52.0723 42.4125 51.9054C42.2642 51.7199 41.9306 51.7199 41.8194 51.7384C41.4672 51.7941 41.2448 52.3321 41.1707 52.5547C40.6888 53.7234 40.3551 55.2818 40.1698 56.3949C40.1327 56.4877 40.0771 56.5248 40.003 56.5248Z" fill="black"/>
<path d="M35.7216 58.1574C35.666 58.1574 35.6289 58.1389 35.5918 58.0832C35.4992 57.9163 35.4065 57.638 35.4621 57.3226C35.4806 57.2298 35.5177 57.1371 35.5548 57.0629C35.6104 56.9701 35.7216 56.7104 36.0367 56.5805C36.2962 56.4692 36.5371 56.5249 36.6483 56.562C36.7225 56.5805 36.7595 56.6547 36.741 56.7289C36.7225 56.8032 36.6483 56.8403 36.5742 56.8217C36.4815 56.8032 36.3332 56.766 36.1479 56.8403C35.944 56.933 35.8513 57.1185 35.8143 57.1927C35.7772 57.2484 35.7587 57.3226 35.7401 57.3968C35.7031 57.6194 35.7587 57.8421 35.8328 57.9719C35.8699 58.0461 35.8328 58.1203 35.7772 58.1574C35.7772 58.1574 35.7587 58.1574 35.7216 58.1574Z" fill="black"/>
<path d="M38.7801 56.7288C38.7245 56.7288 38.6504 56.6917 38.6504 56.6175C38.5021 55.9867 38.6504 54.0017 38.6504 53.9275C38.6504 53.8533 38.7245 53.7976 38.7987 53.7976C38.8728 53.7976 38.9284 53.8718 38.9284 53.946C38.9284 53.9646 38.7987 55.9682 38.9284 56.5618C38.9469 56.636 38.8913 56.7102 38.8172 56.7288C38.7987 56.7288 38.7801 56.7288 38.7801 56.7288Z" fill="black"/>
<path d="M37.9644 57.7123C37.9829 58.6584 38.0014 59.6046 38.0385 60.5322L39.1135 61.534C38.7243 60.2724 38.3351 58.9924 37.9644 57.7123Z" fill="black"/>
<path d="M137.461 154.701C127.396 154.905 117.332 155.109 107.267 155.295C107.267 155.221 107.267 155.146 107.267 155.054C109.658 151.325 112.179 147.633 114.829 143.997C114.866 143.978 114.922 143.96 114.959 143.941L126.747 144.386C127.804 145.833 128.731 147.039 129.49 147.948C131.01 149.822 131.956 150.787 132.4 151.232C133.197 152.03 133.679 152.512 134.421 153.05C135.588 153.922 136.682 154.423 137.461 154.701Z" fill="black"/>
<path d="M105.339 158.3C105.321 158.3 105.284 158.3 105.265 158.282C100.854 155.536 96.4611 152.809 92.0497 150.063C92.0127 150.045 91.9941 150.007 91.9941 149.97C91.9941 149.933 91.9941 149.896 92.0312 149.859C92.4946 149.34 93.4399 148.245 94.6261 146.872C96.4425 144.776 98.9262 141.9 101.41 139.08C101.465 139.025 101.54 139.025 101.614 139.062C101.669 139.118 101.669 139.192 101.632 139.266C99.1672 142.086 96.6649 144.961 94.8485 147.058C93.7364 148.338 92.8653 149.358 92.3648 149.915C96.6835 152.605 101.002 155.295 105.321 157.985C105.969 156.927 106.581 155.944 107.193 154.998C109.602 151.232 112.142 147.522 114.755 143.941C115.904 142.364 117.146 140.713 118.406 139.08C118.462 139.025 118.536 139.006 118.61 139.062C118.666 139.118 118.684 139.192 118.629 139.266C117.35 140.917 116.127 142.55 114.977 144.127C112.364 147.707 109.825 151.417 107.415 155.165C106.804 156.13 106.173 157.113 105.525 158.189C105.506 158.207 105.506 158.207 105.506 158.226C105.488 158.244 105.488 158.263 105.469 158.282C105.413 158.282 105.376 158.3 105.339 158.3Z" fill="black"/>
<path d="M139.778 155.221C134.718 155.221 130.621 149.766 126.655 144.498C126.618 144.442 124.06 140.954 123.652 140.323C123.634 140.323 123.634 140.305 123.634 140.286C123.504 140.101 123.356 139.934 123.226 139.748C123.078 139.563 122.948 139.396 122.8 139.21C122.744 139.155 122.763 139.062 122.818 139.006C122.874 138.951 122.966 138.969 123.022 139.025C123.17 139.21 123.3 139.377 123.448 139.563C123.597 139.748 123.726 139.915 123.875 140.101C123.875 140.101 123.875 140.119 123.893 140.119C124.004 140.268 126.451 143.663 126.914 144.294C130.844 149.525 134.903 154.924 139.815 154.924C139.889 154.924 139.982 154.924 140.056 154.924C142.132 154.849 144.3 152.605 145.764 150.712C147.266 148.764 148.322 146.854 148.526 146.446C147.21 145.147 146.005 143.922 144.801 142.661C144.078 141.9 143.336 141.14 142.632 140.379C141.742 139.433 140.89 138.524 140.056 137.633C139.351 136.873 138.666 136.131 137.98 135.407C134.81 132.049 131.956 129.174 128.36 126.168C127.582 125.519 126.655 124.758 125.728 124.109C123.282 122.421 121.261 121.809 119.315 122.198C118.537 122.365 117.795 122.681 117.091 123.144C117.035 123.182 116.943 123.163 116.906 123.107C116.868 123.052 116.887 122.959 116.943 122.922C117.665 122.439 118.462 122.106 119.278 121.939C121.28 121.53 123.393 122.143 125.895 123.887C126.84 124.536 127.767 125.296 128.545 125.946C132.16 128.97 135.014 131.827 138.184 135.203C138.869 135.927 139.555 136.669 140.26 137.429C141.094 138.32 141.928 139.229 142.836 140.175C143.559 140.936 144.282 141.696 145.004 142.457C146.228 143.718 147.47 144.98 148.804 146.297C148.841 146.334 148.86 146.39 148.841 146.446C148.823 146.538 144.319 155.035 140.074 155.183C139.944 155.221 139.852 155.221 139.778 155.221Z" fill="black"/>
<path d="M97.9625 143.31L86.7303 142.884L86.1742 142.865L85.6367 151.399C85.6738 151.399 85.6923 151.399 85.7294 151.399C87.3234 151.436 88.6579 151.881 89.7144 152.419C91.1416 153.124 92.0313 153.996 92.3093 154.293C93.2546 153.477 94.1999 152.679 95.1451 151.863C94.1443 151.232 93.1434 150.62 92.1239 149.989C93.477 148.449 95.4417 146.186 97.9625 143.31Z" fill="black"/>
<path d="M148.618 106.819C148.6 106.819 148.581 106.819 148.563 106.8C148.489 106.763 148.452 106.689 148.489 106.615L149.063 105.261C148.118 104.333 147.858 102.552 148.285 99.9733V99.9548C148.359 99.4353 148.489 99.0643 148.581 98.8417C148.674 98.5819 148.952 97.8213 149.601 97.0607C149.656 97.005 149.73 96.9865 149.805 97.0421C149.86 97.0978 149.879 97.172 149.823 97.2462C149.211 97.9697 148.952 98.6933 148.859 98.9344C148.785 99.1571 148.655 99.5095 148.581 99.9919V100.01C148.081 103.127 148.692 104.481 149.304 105.075C149.323 105.094 149.341 105.112 149.341 105.112C149.378 105.149 149.397 105.223 149.378 105.279L148.767 106.726C148.73 106.8 148.674 106.819 148.618 106.819Z" fill="black"/>
<path d="M157.627 100.66C157.59 100.827 157.553 101.049 157.553 101.049C157.516 101.216 157.478 101.402 157.423 101.587C157.404 101.68 157.367 101.773 157.349 101.866C157.256 102.181 157.126 102.459 156.997 102.719C156.737 102.515 156.403 102.385 156.033 102.385C155.959 102.385 155.884 102.385 155.81 102.404C155.755 101.996 155.755 101.643 155.792 101.365C155.847 100.66 156.051 100.307 155.829 99.9363C155.477 99.3797 154.772 99.7322 154.087 99.1757C153.364 98.5634 153.66 97.7101 153.086 97.4689C152.474 97.2092 151.936 98.0626 150.991 97.9512C150.361 97.877 149.898 97.4132 149.62 97.0608C149.898 96.7083 150.472 96.059 151.455 95.6137C151.77 95.4653 152.641 95.0943 153.753 95.2241C155.328 95.3911 156.7 96.4671 157.256 97.8028C157.404 98.1368 157.478 98.4521 157.516 98.6562C157.534 98.8232 157.719 100.14 157.627 100.66Z" fill="black"/>
<path d="M149.249 105.038C149.471 105.261 149.805 105.539 150.287 105.761C151.288 106.225 152.214 106.077 152.585 106.003C152.307 106.151 151.936 106.318 151.473 106.392C150.25 106.596 149.267 106.04 148.952 105.836C149.045 105.576 149.137 105.316 149.249 105.038Z" fill="black"/>
<path d="M155.958 105.706C155.606 105.706 155.291 105.613 155.032 105.428C154.883 105.335 154.772 105.205 154.661 105.038C154.624 104.982 154.642 104.89 154.698 104.852C154.772 104.815 154.846 104.834 154.883 104.89C154.957 105.019 155.069 105.112 155.18 105.205C155.643 105.539 156.533 105.52 157.033 104.964C157.626 104.314 157.386 103.313 156.978 102.923C156.941 102.904 156.922 102.867 156.885 102.849C156.57 102.589 156.144 102.496 155.754 102.552C155.68 102.571 155.606 102.515 155.588 102.441C155.569 102.366 155.625 102.292 155.699 102.274C156.181 102.199 156.663 102.311 157.052 102.626C157.089 102.663 157.126 102.682 157.163 102.719C157.664 103.201 157.942 104.37 157.237 105.149C156.922 105.52 156.422 105.706 155.958 105.706Z" fill="black"/>
<path d="M167.505 151.696C167.004 151.696 166.485 151.677 165.985 151.622C165.336 151.566 164.669 151.455 164.039 151.306C163.983 151.288 163.946 151.251 163.928 151.213C163.724 150.434 163.446 149.34 163.094 148.023L162.538 145.852C162 143.811 161.407 141.511 160.795 139.173L160.591 138.431C160.313 137.337 160.017 136.261 159.739 135.203C159.35 133.682 158.96 132.235 158.627 130.955L157.996 128.58C157.811 127.894 157.663 127.3 157.533 126.818L157.477 126.614C157.125 127.449 156.755 128.283 156.402 129.137C155.402 131.474 154.401 133.775 153.455 135.927C153.177 136.576 152.881 137.225 152.603 137.875C152.417 138.32 152.214 138.747 152.028 139.192C152.028 139.192 152.028 139.192 152.028 139.21C151.009 141.529 149.934 143.904 148.766 146.501C148.766 146.52 148.748 146.538 148.748 146.557C148.71 146.631 148.636 146.65 148.562 146.613C148.488 146.575 148.469 146.501 148.507 146.427C148.507 146.409 148.525 146.409 148.525 146.39C149.693 143.793 150.768 141.4 151.787 139.099C151.787 139.099 151.787 139.099 151.787 139.081C151.991 138.635 152.176 138.19 152.38 137.763C152.658 137.114 152.955 136.465 153.233 135.815C154.178 133.645 155.161 131.363 156.18 129.025C156.588 128.061 157.014 127.096 157.422 126.131C157.44 126.076 157.496 126.039 157.552 126.039C157.607 126.039 157.663 126.076 157.681 126.15L157.83 126.744C157.959 127.226 158.108 127.82 158.293 128.506L158.923 130.881C159.257 132.179 159.646 133.626 160.035 135.129C160.313 136.186 160.591 137.262 160.888 138.357L161.092 139.099C161.703 141.418 162.315 143.737 162.834 145.778L163.39 147.948C163.724 149.21 164.002 150.286 164.206 151.065C164.799 151.195 165.41 151.306 166.022 151.362C167.171 151.473 168.32 151.455 169.451 151.306C170.934 151.121 172.361 150.713 173.733 150.1L173.714 150.045C173.584 149.674 173.455 149.266 173.306 148.839C172.861 147.54 172.38 146.112 171.879 144.59C171.453 143.292 170.989 141.882 170.489 140.361L169.97 138.765C169.748 138.079 169.525 137.355 169.284 136.632C168.71 134.851 168.191 133.237 167.653 131.715C167.579 131.493 167.505 131.27 167.431 131.048L167.097 130.101C166.745 129.063 166.374 127.987 165.948 126.818C165.188 124.684 164.447 122.681 163.631 120.696C163.464 120.269 163.279 119.805 163.075 119.341C162.389 117.709 161.407 115.538 159.961 113.461C159.146 112.273 158.33 111.383 157.774 110.845C157.681 110.752 157.57 110.659 157.57 110.659C156.958 110.084 156.328 109.565 155.68 109.119C153.567 110.715 151.139 111.55 149.174 111.364C148.822 111.327 148.507 111.271 148.21 111.179C146.875 110.733 145.893 109.88 145.838 109.843C144.929 109.045 144.41 108.155 144.132 107.505C143.261 107.802 142.409 108.192 141.612 108.637C141.334 108.785 140.889 109.045 140.351 109.416C139.443 110.047 138.498 110.863 137.552 111.809C137.386 111.995 137.2 112.162 137.033 112.347C135.458 114.036 133.882 116.095 132.344 118.488C131.899 119.174 131.473 119.879 131.065 120.603C131.028 120.677 130.935 120.696 130.88 120.659L124.819 117.301C124.819 117.301 124.8 117.301 124.8 117.282C124.04 116.855 123.262 116.429 122.502 116.002L117.739 113.368C117.331 113.145 116.923 112.904 116.497 112.681C116.126 112.477 115.774 112.273 115.403 112.069L112.419 120.64L113.754 121.326C114.829 121.864 115.922 122.421 116.997 122.959C117.071 122.996 117.09 123.07 117.053 123.145C117.016 123.219 116.942 123.237 116.867 123.2C115.792 122.644 114.717 122.106 113.624 121.568L112.178 120.826C112.122 120.788 112.085 120.714 112.104 120.659L115.181 111.809C115.199 111.772 115.218 111.735 115.255 111.717C115.292 111.698 115.329 111.698 115.366 111.717C115.774 111.939 116.182 112.18 116.608 112.403C117.016 112.626 117.423 112.867 117.85 113.089L122.613 115.724C123.392 116.151 124.17 116.577 124.93 117.004C124.93 117.004 124.949 117.004 124.949 117.022L130.88 120.306C131.269 119.638 131.677 118.952 132.103 118.303C133.642 115.891 135.236 113.813 136.83 112.125C136.996 111.939 137.182 111.754 137.367 111.568C138.312 110.604 139.276 109.787 140.203 109.156C140.759 108.767 141.204 108.507 141.482 108.359C142.334 107.895 143.224 107.487 144.169 107.171C144.244 107.153 144.318 107.19 144.336 107.246C144.596 107.876 145.096 108.785 146.023 109.602C146.041 109.602 147.005 110.455 148.284 110.882C148.562 110.975 148.877 111.03 149.192 111.067C151.12 111.253 153.511 110.399 155.587 108.823C155.643 108.785 155.698 108.785 155.754 108.823C156.44 109.286 157.125 109.843 157.756 110.455C157.756 110.455 157.848 110.548 157.959 110.659C158.515 111.197 159.35 112.106 160.165 113.312C161.611 115.408 162.593 117.579 163.297 119.249C163.483 119.712 163.668 120.158 163.853 120.603C164.65 122.607 165.41 124.61 166.17 126.744C166.578 127.894 166.949 128.97 167.32 130.027L167.653 130.973C167.727 131.196 167.801 131.419 167.876 131.641C168.395 133.181 168.932 134.795 169.507 136.576C169.748 137.3 169.97 138.023 170.192 138.71L170.711 140.305C171.212 141.826 171.675 143.236 172.102 144.535C172.602 146.056 173.084 147.485 173.529 148.783C173.677 149.21 173.807 149.618 173.937 149.989L173.992 150.156C174.011 150.23 173.992 150.304 173.918 150.323C172.491 150.972 170.989 151.399 169.451 151.603C168.821 151.659 168.154 151.696 167.505 151.696Z" fill="black"/>
<path d="M133.716 131.085C133.697 131.085 133.679 131.085 133.66 131.085C133.586 131.066 133.549 130.973 133.586 130.899L138.034 119.23C138.053 119.156 138.145 119.119 138.22 119.156C138.294 119.174 138.331 119.267 138.294 119.341L133.845 131.011C133.827 131.048 133.771 131.085 133.716 131.085Z" fill="black"/>
<path d="M143.594 110.659C143.738 110.659 143.854 110.543 143.854 110.399C143.854 110.256 143.738 110.14 143.594 110.14C143.451 110.14 143.335 110.256 143.335 110.399C143.335 110.543 143.451 110.659 143.594 110.659Z" fill="black"/>
<path d="M138.85 112.904C138.993 112.904 139.109 112.788 139.109 112.644C139.109 112.501 138.993 112.384 138.85 112.384C138.707 112.384 138.59 112.501 138.59 112.644C138.59 112.788 138.707 112.904 138.85 112.904Z" fill="black"/>
<path d="M146.226 116.002C146.37 116.002 146.486 115.886 146.486 115.742C146.486 115.599 146.37 115.483 146.226 115.483C146.083 115.483 145.967 115.599 145.967 115.742C145.967 115.886 146.083 116.002 146.226 116.002Z" fill="black"/>
<path d="M142.335 117.56C142.478 117.56 142.594 117.444 142.594 117.301C142.594 117.157 142.478 117.041 142.335 117.041C142.191 117.041 142.075 117.157 142.075 117.301C142.075 117.444 142.191 117.56 142.335 117.56Z" fill="black"/>
<path d="M146.097 122.273C146.241 122.273 146.357 122.156 146.357 122.013C146.357 121.869 146.241 121.753 146.097 121.753C145.954 121.753 145.838 121.869 145.838 122.013C145.838 122.156 145.954 122.273 146.097 122.273Z" fill="black"/>
<path d="M147.487 127.133C147.63 127.133 147.747 127.017 147.747 126.873C147.747 126.73 147.63 126.614 147.487 126.614C147.344 126.614 147.228 126.73 147.228 126.873C147.228 127.017 147.344 127.133 147.487 127.133Z" fill="black"/>
<path d="M140.74 126.447C140.883 126.447 140.999 126.331 140.999 126.187C140.999 126.044 140.883 125.927 140.74 125.927C140.597 125.927 140.48 126.044 140.48 126.187C140.48 126.331 140.597 126.447 140.74 126.447Z" fill="black"/>
<path d="M139.851 120.9C139.994 120.9 140.11 120.783 140.11 120.64C140.11 120.497 139.994 120.38 139.851 120.38C139.707 120.38 139.591 120.497 139.591 120.64C139.591 120.783 139.707 120.9 139.851 120.9Z" fill="black"/>
<path d="M131.306 122.755C131.45 122.755 131.566 122.639 131.566 122.495C131.566 122.352 131.45 122.235 131.306 122.235C131.163 122.235 131.047 122.352 131.047 122.495C131.047 122.639 131.163 122.755 131.306 122.755Z" fill="black"/>
<path d="M132.807 127.857C132.951 127.857 133.067 127.74 133.067 127.597C133.067 127.453 132.951 127.337 132.807 127.337C132.664 127.337 132.548 127.453 132.548 127.597C132.548 127.74 132.664 127.857 132.807 127.857Z" fill="black"/>
<path d="M127.951 124.443C128.095 124.443 128.211 124.327 128.211 124.183C128.211 124.04 128.095 123.924 127.951 123.924C127.808 123.924 127.692 124.04 127.692 124.183C127.692 124.327 127.808 124.443 127.951 124.443Z" fill="black"/>
<path d="M123.8 119.657C123.943 119.657 124.059 119.54 124.059 119.397C124.059 119.254 123.943 119.137 123.8 119.137C123.656 119.137 123.54 119.254 123.54 119.397C123.54 119.54 123.656 119.657 123.8 119.657Z" fill="black"/>
<path d="M118.499 122.124C118.642 122.124 118.758 122.008 118.758 121.864C118.758 121.721 118.642 121.605 118.499 121.605C118.355 121.605 118.239 121.721 118.239 121.864C118.239 122.008 118.355 122.124 118.499 122.124Z" fill="black"/>
<path d="M118.869 116.002C119.013 116.002 119.129 115.886 119.129 115.742C119.129 115.599 119.013 115.483 118.869 115.483C118.726 115.483 118.61 115.599 118.61 115.742C118.61 115.886 118.726 116.002 118.869 116.002Z" fill="black"/>
<path d="M134.754 120.751C134.897 120.751 135.013 120.635 135.013 120.492C135.013 120.348 134.897 120.232 134.754 120.232C134.61 120.232 134.494 120.348 134.494 120.492C134.494 120.635 134.61 120.751 134.754 120.751Z" fill="black"/>
<path d="M135.94 116.225C136.083 116.225 136.2 116.108 136.2 115.965C136.2 115.821 136.083 115.705 135.94 115.705C135.797 115.705 135.681 115.821 135.681 115.965C135.681 116.108 135.797 116.225 135.94 116.225Z" fill="black"/>
<path d="M115.885 118.228C116.028 118.228 116.144 118.112 116.144 117.969C116.144 117.825 116.028 117.709 115.885 117.709C115.742 117.709 115.625 117.825 115.625 117.969C115.625 118.112 115.742 118.228 115.885 118.228Z" fill="black"/>
<path d="M139.11 132.365C139.253 132.365 139.369 132.248 139.369 132.105C139.369 131.961 139.253 131.845 139.11 131.845C138.966 131.845 138.85 131.961 138.85 132.105C138.85 132.248 138.966 132.365 139.11 132.365Z" fill="black"/>
<path d="M136.366 129.693C136.51 129.693 136.626 129.577 136.626 129.434C136.626 129.29 136.51 129.174 136.366 129.174C136.223 129.174 136.107 129.29 136.107 129.434C136.107 129.577 136.223 129.693 136.366 129.693Z" fill="black"/>
<path d="M149.989 121.048C150.133 121.048 150.249 120.932 150.249 120.788C150.249 120.645 150.133 120.529 149.989 120.529C149.846 120.529 149.73 120.645 149.73 120.788C149.73 120.932 149.846 121.048 149.989 121.048Z" fill="black"/>
<path d="M154.79 122.273C154.933 122.273 155.049 122.156 155.049 122.013C155.049 121.869 154.933 121.753 154.79 121.753C154.646 121.753 154.53 121.869 154.53 122.013C154.53 122.156 154.646 122.273 154.79 122.273Z" fill="black"/>
<path d="M151.657 125.612C151.801 125.612 151.917 125.496 151.917 125.352C151.917 125.209 151.801 125.092 151.657 125.092C151.514 125.092 151.398 125.209 151.398 125.352C151.398 125.496 151.514 125.612 151.657 125.612Z" fill="black"/>
<path d="M147.227 132.365C147.371 132.365 147.487 132.248 147.487 132.105C147.487 131.961 147.371 131.845 147.227 131.845C147.084 131.845 146.968 131.961 146.968 132.105C146.968 132.248 147.084 132.365 147.227 132.365Z" fill="black"/>
<path d="M141.871 136.075C142.014 136.075 142.13 135.959 142.13 135.815C142.13 135.672 142.014 135.556 141.871 135.556C141.728 135.556 141.611 135.672 141.611 135.815C141.611 135.959 141.728 136.075 141.871 136.075Z" fill="black"/>
<path d="M143.075 129.693C143.219 129.693 143.335 129.577 143.335 129.434C143.335 129.29 143.219 129.174 143.075 129.174C142.932 129.174 142.816 129.29 142.816 129.434C142.816 129.577 142.932 129.693 143.075 129.693Z" fill="black"/>
<path d="M145.152 139.711C145.295 139.711 145.412 139.595 145.412 139.451C145.412 139.308 145.295 139.192 145.152 139.192C145.009 139.192 144.893 139.308 144.893 139.451C144.893 139.595 145.009 139.711 145.152 139.711Z" fill="black"/>
<path d="M149.693 140.286C149.836 140.286 149.952 140.17 149.952 140.027C149.952 139.883 149.836 139.767 149.693 139.767C149.549 139.767 149.433 139.883 149.433 140.027C149.433 140.17 149.549 140.286 149.693 140.286Z" fill="black"/>
<path d="M150.749 134.628C150.893 134.628 151.009 134.512 151.009 134.368C151.009 134.225 150.893 134.109 150.749 134.109C150.606 134.109 150.49 134.225 150.49 134.368C150.49 134.512 150.606 134.628 150.749 134.628Z" fill="black"/>
<path d="M154.697 129.693C154.841 129.693 154.957 129.577 154.957 129.434C154.957 129.29 154.841 129.174 154.697 129.174C154.554 129.174 154.438 129.29 154.438 129.434C154.438 129.577 154.554 129.693 154.697 129.693Z" fill="black"/>
<path d="M147.487 136.873C147.63 136.873 147.747 136.757 147.747 136.613C147.747 136.47 147.63 136.353 147.487 136.353C147.344 136.353 147.228 136.47 147.228 136.613C147.228 136.757 147.344 136.873 147.487 136.873Z" fill="black"/>
<path d="M147.784 143.236C147.927 143.236 148.043 143.12 148.043 142.976C148.043 142.833 147.927 142.717 147.784 142.717C147.641 142.717 147.524 142.833 147.524 142.976C147.524 143.12 147.641 143.236 147.784 143.236Z" fill="black"/>
<path d="M158.627 125.612C158.77 125.612 158.886 125.496 158.886 125.352C158.886 125.209 158.77 125.092 158.627 125.092C158.483 125.092 158.367 125.209 158.367 125.352C158.367 125.496 158.483 125.612 158.627 125.612Z" fill="black"/>
<path d="M163.705 128.246C163.849 128.246 163.965 128.13 163.965 127.986C163.965 127.843 163.849 127.727 163.705 127.727C163.562 127.727 163.446 127.843 163.446 127.986C163.446 128.13 163.562 128.246 163.705 128.246Z" fill="black"/>
<path d="M160.925 132.921C161.068 132.921 161.185 132.805 161.185 132.662C161.185 132.518 161.068 132.402 160.925 132.402C160.782 132.402 160.666 132.518 160.666 132.662C160.666 132.805 160.782 132.921 160.925 132.921Z" fill="black"/>
<path d="M165.28 133.366C165.424 133.366 165.54 133.25 165.54 133.107C165.54 132.963 165.424 132.847 165.28 132.847C165.137 132.847 165.021 132.963 165.021 133.107C165.021 133.25 165.137 133.366 165.28 133.366Z" fill="black"/>
<path d="M163.446 136.613C163.589 136.613 163.705 136.497 163.705 136.353C163.705 136.21 163.589 136.094 163.446 136.094C163.302 136.094 163.186 136.21 163.186 136.353C163.186 136.497 163.302 136.613 163.446 136.613Z" fill="black"/>
<path d="M164.075 141.288C164.219 141.288 164.335 141.172 164.335 141.028C164.335 140.885 164.219 140.769 164.075 140.769C163.932 140.769 163.816 140.885 163.816 141.028C163.816 141.172 163.932 141.288 164.075 141.288Z" fill="black"/>
<path d="M166.949 145.407C167.092 145.407 167.208 145.29 167.208 145.147C167.208 145.003 167.092 144.887 166.949 144.887C166.806 144.887 166.689 145.003 166.689 145.147C166.689 145.29 166.806 145.407 166.949 145.407Z" fill="black"/>
<path d="M170.489 148.523C170.632 148.523 170.748 148.407 170.748 148.264C170.748 148.12 170.632 148.004 170.489 148.004C170.346 148.004 170.229 148.12 170.229 148.264C170.229 148.407 170.346 148.523 170.489 148.523Z" fill="black"/>
<path d="M164.075 149.896C164.219 149.896 164.335 149.78 164.335 149.637C164.335 149.493 164.219 149.377 164.075 149.377C163.932 149.377 163.816 149.493 163.816 149.637C163.816 149.78 163.932 149.896 164.075 149.896Z" fill="black"/>
<path d="M168.394 143.236C168.538 143.236 168.654 143.12 168.654 142.976C168.654 142.833 168.538 142.717 168.394 142.717C168.251 142.717 168.135 142.833 168.135 142.976C168.135 143.12 168.251 143.236 168.394 143.236Z" fill="black"/>
<path d="M166.949 138.58C167.092 138.58 167.208 138.463 167.208 138.32C167.208 138.176 167.092 138.06 166.949 138.06C166.806 138.06 166.689 138.176 166.689 138.32C166.689 138.463 166.806 138.58 166.949 138.58Z" fill="black"/>
<path d="M158.627 120.399C158.77 120.399 158.886 120.283 158.886 120.139C158.886 119.996 158.77 119.879 158.627 119.879C158.483 119.879 158.367 119.996 158.367 120.139C158.367 120.283 158.483 120.399 158.627 120.399Z" fill="black"/>
<path d="M162.519 122.718C162.662 122.718 162.778 122.602 162.778 122.458C162.778 122.315 162.662 122.198 162.519 122.198C162.375 122.198 162.259 122.315 162.259 122.458C162.259 122.602 162.375 122.718 162.519 122.718Z" fill="black"/>
<path d="M150.212 113.164C150.355 113.164 150.471 113.047 150.471 112.904C150.471 112.76 150.355 112.644 150.212 112.644C150.068 112.644 149.952 112.76 149.952 112.904C149.952 113.047 150.068 113.164 150.212 113.164Z" fill="black"/>
<path d="M151.657 116.726C151.801 116.726 151.917 116.609 151.917 116.466C151.917 116.322 151.801 116.206 151.657 116.206C151.514 116.206 151.398 116.322 151.398 116.466C151.398 116.609 151.514 116.726 151.657 116.726Z" fill="black"/>
<path d="M155.05 113.869C155.193 113.869 155.309 113.752 155.309 113.609C155.309 113.466 155.193 113.349 155.05 113.349C154.906 113.349 154.79 113.466 154.79 113.609C154.79 113.752 154.906 113.869 155.05 113.869Z" fill="black"/>
<path d="M157.811 116.41C157.954 116.41 158.07 116.294 158.07 116.15C158.07 116.007 157.954 115.891 157.811 115.891C157.667 115.891 157.551 116.007 157.551 116.15C157.551 116.294 157.667 116.41 157.811 116.41Z" fill="black"/>
<path d="M158.627 112.904C158.77 112.904 158.886 112.788 158.886 112.644C158.886 112.501 158.77 112.384 158.627 112.384C158.483 112.384 158.367 112.501 158.367 112.644C158.367 112.788 158.483 112.904 158.627 112.904Z" fill="black"/>
<path d="M175.919 155.796C175.845 155.796 175.79 155.74 175.771 155.666C175.771 155.592 175.827 155.517 175.901 155.517C177.754 155.499 180.053 155.146 180.368 154.219C180.386 154.144 180.479 153.903 180.368 153.718C180.182 153.384 179.515 153.365 178.588 153.365H178.273C177.346 153.347 176.401 153.31 175.437 153.235C175.363 153.235 175.308 153.161 175.308 153.087C175.308 153.013 175.382 152.957 175.456 152.957C176.401 153.031 177.346 153.068 178.273 153.087H178.588C179.626 153.087 180.368 153.106 180.627 153.588C180.738 153.792 180.738 154.033 180.627 154.311C180.201 155.647 176.92 155.777 175.919 155.796C175.919 155.796 175.938 155.796 175.919 155.796Z" fill="black"/>
<path d="M174.4 156.278C173.232 156.278 171.638 156 170.063 155.684C165.985 154.85 165.244 153.959 164.984 153.644C164.428 152.976 164.076 152.141 163.928 151.195C163.909 151.121 163.965 151.046 164.039 151.028C164.113 151.009 164.187 151.065 164.206 151.139C164.354 152.048 164.688 152.827 165.207 153.458C165.818 154.2 167.487 154.85 170.119 155.388C173.64 156.111 175.549 156.167 175.79 155.592V155.573C175.957 155.239 175.716 154.812 175.716 154.794C175.457 154.312 174.752 154.2 174.196 154.126L174.067 154.107C172.899 153.922 171.713 153.551 170.489 152.994C170.415 152.957 170.397 152.883 170.415 152.809C170.452 152.735 170.526 152.716 170.6 152.735C171.787 153.273 172.973 153.644 174.104 153.829L174.233 153.848C174.826 153.941 175.623 154.052 175.957 154.664C175.976 154.683 176.272 155.221 176.031 155.684C175.883 156.13 175.271 156.278 174.4 156.278Z" fill="black"/>
<path d="M180.572 154.145C180.517 154.145 180.461 154.107 180.442 154.033C180.424 153.959 180.461 153.885 180.535 153.866C181.184 153.699 181.647 153.217 181.647 152.716C181.647 152.364 181.406 152.104 181.369 152.067C180.924 151.621 180.146 151.733 179.59 151.807L179.497 151.826C178.274 151.993 176.958 152.011 175.549 151.9C175.475 151.9 175.419 151.826 175.419 151.751C175.419 151.677 175.494 151.621 175.568 151.621C176.958 151.733 178.255 151.714 179.46 151.547L179.553 151.529C180.146 151.455 181.036 151.325 181.573 151.863C181.629 151.918 181.925 152.234 181.925 152.697C181.925 153.328 181.388 153.903 180.609 154.107C180.609 154.145 180.591 154.145 180.572 154.145Z" fill="black"/>
<path d="M181.518 152.178C181.48 152.178 181.443 152.16 181.425 152.141C181.369 152.085 181.369 152.011 181.406 151.937C181.462 151.863 181.647 151.64 181.629 151.306C181.61 150.972 181.388 150.768 181.295 150.694C181.147 150.583 180.98 150.508 180.758 150.471C180.35 150.416 180.016 150.508 179.961 150.527C179.423 150.675 177.996 150.842 175.642 151.009C175.568 151.009 175.494 150.954 175.494 150.88C175.494 150.805 175.549 150.731 175.623 150.731C177.94 150.564 179.386 150.397 179.886 150.249C179.979 150.212 180.35 150.137 180.795 150.193C181.054 150.23 181.295 150.323 181.48 150.471C181.592 150.564 181.87 150.842 181.907 151.269C181.944 151.714 181.703 152.03 181.629 152.104C181.592 152.16 181.555 152.178 181.518 152.178Z" fill="black"/>
<path d="M179.293 150.638C179.237 150.638 179.182 150.601 179.163 150.564C179.052 150.304 178.885 150.119 178.7 150.008C178.329 149.785 177.903 149.878 177.699 149.933C176.92 150.1 175.716 150.212 173.899 150.323C173.825 150.323 173.751 150.267 173.751 150.193C173.751 150.119 173.807 150.045 173.881 150.045C175.679 149.952 176.865 149.822 177.625 149.674C177.866 149.618 178.366 149.525 178.83 149.785C179.071 149.933 179.274 150.156 179.423 150.471C179.46 150.546 179.423 150.62 179.349 150.657C179.33 150.638 179.311 150.638 179.293 150.638Z" fill="black"/>
<path d="M112.549 114.629C112.493 114.629 112.438 114.592 112.419 114.536C112.215 113.998 112.104 113.423 112.104 112.848C112.085 112.31 112.178 111.791 112.326 111.271C112.122 110.937 111.159 109.249 110.973 107.969C110.955 107.895 111.01 107.821 111.085 107.802C111.159 107.784 111.233 107.839 111.251 107.913C111.455 109.249 112.586 111.142 112.604 111.16C112.623 111.197 112.623 111.234 112.623 111.271C112.456 111.772 112.382 112.292 112.401 112.811C112.401 113.368 112.512 113.887 112.697 114.407C112.716 114.481 112.697 114.555 112.623 114.592C112.586 114.629 112.567 114.629 112.549 114.629Z" fill="black"/>
<path d="M107.896 114.703C107.841 114.703 107.767 114.666 107.767 114.592C107.637 113.98 107.451 112.422 108.434 110.956C109.045 110.065 109.824 109.583 110.398 109.323C110.473 109.286 110.547 109.323 110.584 109.398C110.621 109.472 110.584 109.546 110.51 109.583C109.991 109.824 109.231 110.27 108.675 111.104C107.748 112.477 107.933 113.943 108.045 114.518C108.063 114.592 108.007 114.666 107.933 114.685C107.915 114.703 107.896 114.703 107.896 114.703Z" fill="black"/>
<path d="M107.804 113.998C107.785 113.998 107.767 113.998 107.748 113.98L103.856 112.069C103.782 112.032 103.763 111.958 103.8 111.884C103.837 111.809 103.911 111.791 103.986 111.828L107.878 113.739C107.952 113.776 107.971 113.85 107.934 113.924C107.896 113.961 107.859 113.998 107.804 113.998Z" fill="black"/>
<path d="M108.064 111.791C108.045 111.791 108.008 111.791 107.989 111.772L104.153 109.583C104.079 109.546 104.06 109.453 104.097 109.398C104.134 109.323 104.227 109.305 104.282 109.342L108.119 111.531C108.193 111.568 108.212 111.661 108.175 111.717C108.156 111.754 108.119 111.791 108.064 111.791Z" fill="black"/>
<path d="M109.658 110.047C109.621 110.047 109.602 110.028 109.565 110.01L107.693 108.581C107.638 108.526 107.619 108.451 107.675 108.377C107.73 108.303 107.804 108.303 107.879 108.359L109.751 109.787C109.806 109.843 109.825 109.917 109.769 109.991C109.751 110.028 109.695 110.047 109.658 110.047Z" fill="black"/>
<path d="M115.273 111.698C114.069 114.035 112.864 116.354 111.659 118.692L112.79 119.174C113.624 116.688 114.458 114.202 115.273 111.698Z" fill="black"/>
<path d="M96.6277 163.049C96.6091 163.049 96.5906 163.049 96.5535 163.031C93.7177 161.454 90.8633 159.877 88.0275 158.3C85.1916 156.723 82.3372 155.146 79.5014 153.569C79.4643 153.551 79.4458 153.514 79.4272 153.477C79.4272 153.44 79.4272 153.402 79.4643 153.365C79.7794 152.994 80.1686 152.679 80.5949 152.419C80.8174 152.289 81.0583 152.178 81.2993 152.085C81.3734 152.067 81.4476 152.104 81.4846 152.159C81.5032 152.234 81.4661 152.308 81.4105 152.345C81.1881 152.438 80.9656 152.531 80.7432 152.66C80.3911 152.864 80.076 153.124 79.7979 153.421C82.5967 154.979 85.377 156.519 88.1757 158.078C90.993 159.636 93.7918 161.194 96.6091 162.753L101.539 156.037C99.3523 154.72 97.1837 153.384 94.9966 152.067C94.9225 152.03 94.9039 151.937 94.941 151.881C94.9781 151.807 95.0707 151.788 95.1263 151.826C97.3505 153.18 99.5747 154.534 101.799 155.87C101.836 155.888 101.855 155.926 101.855 155.963C101.855 156 101.855 156.037 101.836 156.074L96.7389 162.994C96.7203 163.031 96.6833 163.049 96.6277 163.049Z" fill="black"/>
<path d="M86.7295 142.884L86.1735 142.865L85.636 151.399C83.6527 151.362 82.0587 151.955 80.9652 152.549C80.9095 146.557 80.8539 140.546 80.7983 134.554C81.5397 134.851 84.079 136.019 85.6174 138.914C86.3959 140.305 86.6739 141.696 86.7295 142.884Z" fill="black"/>
<path d="M98.0727 161.102C98.0541 161.102 98.0356 161.102 97.9985 161.083L81.5766 152.326C81.5024 152.289 81.4839 152.215 81.521 152.141C81.558 152.067 81.6322 152.048 81.7063 152.085L98.1283 160.842C98.2024 160.879 98.221 160.953 98.1839 161.027C98.1654 161.064 98.1097 161.102 98.0727 161.102Z" fill="black"/>
<path d="M101.651 156.074C101.224 156.667 100.798 157.243 100.353 157.836C98.4628 155.963 96.5722 154.089 94.7002 152.215C94.8299 152.104 94.9597 152.011 95.0894 151.9C97.2766 153.291 99.4637 154.682 101.651 156.074Z" fill="black"/>
</svg>
