<svg width="190" height="190" viewBox="0 0 190 190" fill="none" xmlns="http://www.w3.org/2000/svg">
<mask id="mask0" mask-type="alpha" maskUnits="userSpaceOnUse" x="0" y="0" width="190" height="190">
<rect width="190" height="190" fill="white"/>
</mask>
<g mask="url(#mask0)">
<path d="M149.179 27.7483C146.525 27.7483 143.703 25.6999 140.839 21.6659C140.798 21.6032 140.798 21.4987 140.881 21.4569C140.944 21.4151 141.048 21.4151 141.09 21.4987C144.016 25.5954 146.817 27.5811 149.451 27.4556C151.604 27.3302 153.067 25.888 154.634 24.3622C156.181 22.8364 157.79 21.2479 160.131 21.1225C162.723 20.9971 165.419 22.7319 168.137 26.2852C168.199 26.3479 168.178 26.4524 168.116 26.5151C168.053 26.5778 167.948 26.5569 167.886 26.4942C165.231 23.0245 162.619 21.3315 160.131 21.436C157.916 21.5405 156.348 23.0872 154.843 24.5712C153.318 26.0761 151.729 27.6438 149.472 27.7692C149.367 27.7483 149.284 27.7483 149.179 27.7483Z" fill="black"/>
<path d="M8.51349 123.247C7.1549 123.247 5.71272 122.202 4.24963 120.154C4.20782 120.091 4.20782 119.986 4.29143 119.945C4.35413 119.903 4.45864 119.903 4.50044 119.986C5.94263 122.014 7.34301 123.017 8.63889 122.934C9.68396 122.871 10.4155 122.16 11.1888 121.387C11.9831 120.614 12.7982 119.798 14.0105 119.736C15.3482 119.673 16.7277 120.551 18.1072 122.369C18.1699 122.432 18.149 122.536 18.0863 122.599C18.0236 122.641 17.9191 122.641 17.8564 122.578C16.5396 120.864 15.2437 120.007 14.0314 120.07C12.9446 120.133 12.213 120.864 11.4188 121.638C10.6454 122.411 9.83027 123.205 8.6598 123.268C8.61799 123.247 8.57619 123.247 8.51349 123.247Z" fill="black"/>
<path d="M12.8399 11.6959C10.6035 11.6959 8.26255 9.98201 5.83801 6.59597C5.7962 6.53326 5.7962 6.42876 5.87981 6.38695C5.94251 6.34515 6.04702 6.34515 6.08882 6.42876C8.53427 9.8148 10.8752 11.4869 13.0698 11.3615C14.8465 11.257 16.0796 10.0656 17.3755 8.76972C18.6714 7.49473 20.03 6.15704 21.9947 6.05253C24.1684 5.94802 26.4258 7.41113 28.704 10.3791C28.7667 10.4418 28.7458 10.5463 28.6831 10.6091C28.6204 10.6718 28.5159 10.6509 28.4532 10.5882C26.2376 7.70375 24.0639 6.28245 21.9947 6.38695C20.1554 6.47056 18.9013 7.70375 17.5845 8.99964C16.3095 10.2537 14.9719 11.5705 13.0698 11.675C13.0071 11.6959 12.9235 11.6959 12.8399 11.6959Z" fill="black"/>
<path fill-rule="evenodd" clip-rule="evenodd" d="M188.243 102.178C188.264 102.199 188.306 102.22 188.348 102.22C188.39 102.22 188.431 102.199 188.473 102.158L190.94 99.6912C191.002 99.6285 191.002 99.524 190.94 99.4613L188.473 96.9949C188.411 96.9322 188.306 96.9322 188.243 96.9949L185.777 99.4613C185.714 99.524 185.714 99.6285 185.777 99.6912L188.243 102.178ZM188.348 101.844L186.091 99.5867L188.348 97.3293L190.605 99.5867L188.348 101.844Z" fill="black"/>
<path fill-rule="evenodd" clip-rule="evenodd" d="M-1.26854 98.9596C-1.01773 99.1268 -0.725109 99.2105 -0.432491 99.2105C0.0900412 99.2105 0.591672 98.9596 0.88429 98.4789C1.34412 97.7683 1.13511 96.7859 0.40356 96.326C-0.307083 95.8662 -1.28944 96.0752 -1.74927 96.8068C-2.2091 97.5174 -2.00009 98.4998 -1.26854 98.9596ZM-1.12223 98.7088C-1.68657 98.3326 -1.87468 97.5592 -1.49846 96.974C-1.12223 96.3888 -0.348886 96.2215 0.23635 96.5978C0.800685 96.974 0.988796 97.7683 0.612573 98.3326C0.23635 98.8969 -0.536997 99.085 -1.12223 98.7088Z" fill="black"/>
<path fill-rule="evenodd" clip-rule="evenodd" d="M188.473 148.454C188.641 148.559 188.829 148.622 189.017 148.622C189.1 148.622 189.163 148.622 189.247 148.601C189.518 148.538 189.748 148.371 189.895 148.141C190.062 147.911 190.104 147.639 190.041 147.367C189.978 147.096 189.811 146.866 189.581 146.72C189.351 146.552 189.079 146.511 188.808 146.573C188.536 146.636 188.306 146.803 188.16 147.033C187.993 147.263 187.951 147.535 188.014 147.806C188.076 148.078 188.243 148.308 188.473 148.454ZM188.85 146.887C188.912 146.866 188.954 146.866 189.017 146.866C189.163 146.866 189.288 146.908 189.393 146.991C189.56 147.096 189.665 147.263 189.707 147.451C189.748 147.639 189.707 147.827 189.602 147.995C189.498 148.162 189.33 148.266 189.142 148.308C188.954 148.35 188.766 148.308 188.599 148.204C188.432 148.099 188.327 147.932 188.285 147.744C188.243 147.556 188.285 147.367 188.39 147.2C188.494 147.033 188.661 146.929 188.85 146.887Z" fill="black"/>
<path opacity="0.4" d="M144.318 85.3263C143.503 81.7543 142.647 79.2058 141.853 77.9734C140.496 75.8636 138.721 74.7983 138.721 74.7983C137.154 73.8374 135.609 73.5867 134.648 73.5031V72.396H127.463V73.4822C126.753 73.6285 125.959 73.8582 125.145 74.1925C124.936 74.276 124.706 74.3805 124.456 74.5058C121.26 76.1352 114.013 85.201 113.365 85.8068C111.089 82.9032 108.833 79.9996 106.557 77.0752C106.536 77.0543 106.536 77.0543 106.515 77.0334C105.241 78.1823 103.967 79.3521 102.693 80.501C102.547 80.6263 102.401 80.7725 102.254 80.8979C103.048 82.2765 104.301 84.3237 106.118 86.5797C109.209 90.4233 111.904 93.7864 114.66 93.3477C116.415 93.0553 117.793 91.3215 119.255 89.5041C120.153 88.397 120.738 87.3526 121.114 86.6215C121.093 88.4597 121.072 90.3188 121.01 92.1988C120.884 96.7109 120.634 101.098 120.32 105.317C120.634 105.275 120.926 105.254 121.239 105.213C119.422 116.681 117.626 128.17 115.809 139.638C111.653 143.022 106.912 145.445 101.523 146.239C100.772 146.343 85.5459 148.432 77.8601 139.763C71.845 132.974 72.8684 122.383 68.9837 121.903C68.6078 121.861 68.1274 121.799 67.6052 121.694C67.4799 121.673 67.3546 121.652 67.2293 121.631C65.2661 121.255 62.718 120.524 61.0472 119.083C60.9219 118.979 60.8174 118.874 60.713 118.77C60.525 118.582 60.3371 118.352 60.1909 118.143C58.0814 115.198 48.85 122.78 39.2009 119.375C31.6194 116.702 26.6904 108.304 25.3747 102.267C20.5919 80.0623 56.2435 48.311 93.19 38.6602C101.69 36.446 118.817 31.9548 131.995 35.7984C132.392 35.9029 132.768 36.0282 133.144 36.1535C134.209 36.5086 135.233 36.9264 136.214 37.386C136.59 37.574 136.966 37.762 137.342 37.95C139.452 39.0989 141.373 40.5402 143.044 42.3785C152.442 52.6977 149.226 69.7431 144.318 85.3263Z" fill="#DDF6F3"/>
<path d="M136.193 37.4069C127.087 44.0496 113.532 56.6666 94.5263 80.6263C82.705 95.5202 74.2046 108.722 68.106 120.002C67.7927 120.566 67.5003 121.13 67.208 121.673C52.5881 149.31 52.5672 164.872 52.5672 164.872L39.8896 160.193C45.2781 147.2 52.0659 133.225 60.6917 118.791C60.6917 118.77 60.7125 118.77 60.7125 118.749C60.9841 118.289 61.2556 117.83 61.548 117.37C83.6658 80.7935 109.794 54.2644 131.974 35.7985C132.371 35.9029 132.747 36.0282 133.123 36.1536C134.167 36.5087 135.211 36.9265 136.193 37.4069Z" fill="#009691"/>
<path fill-rule="evenodd" clip-rule="evenodd" d="M52.5048 165.018H52.5674C52.5883 165.018 52.6301 164.997 52.6718 164.976C52.7136 164.955 52.7345 164.893 52.7345 164.851C52.7345 164.809 52.7554 160.882 54.5724 153.634C57.6008 141.518 63.1982 129.611 67.3544 121.736C67.4559 121.547 67.5573 121.356 67.6597 121.164C67.8522 120.801 68.0479 120.433 68.2525 120.065C75.1029 107.385 84.0002 94.1624 94.6518 80.7308C110.692 60.4893 124.706 45.9505 136.298 37.5322C136.339 37.4904 136.36 37.4487 136.36 37.386C136.36 37.3233 136.318 37.2816 136.277 37.2607C135.316 36.7802 134.272 36.3624 133.186 36.0073C132.789 35.882 132.392 35.7567 132.016 35.6522C131.953 35.6313 131.912 35.6313 131.87 35.6731C103.653 59.1733 79.9484 86.6215 61.4229 117.287C61.1306 117.746 60.8592 118.205 60.5877 118.665L60.5875 118.665L60.5666 118.707C52.6718 131.909 45.6543 145.842 39.7437 160.13C39.7228 160.172 39.7228 160.214 39.7437 160.255C39.7646 160.297 39.7855 160.318 39.8272 160.339L52.5048 165.018ZM52.4003 164.621L40.0779 160.088C45.9885 145.884 52.9642 132.013 60.7963 118.874L60.8172 118.853L60.6919 118.77L60.8381 118.832C60.9738 118.603 61.1148 118.373 61.2558 118.143C61.3968 117.913 61.5378 117.683 61.6735 117.454C80.1781 86.8513 103.841 59.4239 132.016 35.9447C132.371 36.0491 132.726 36.1535 133.081 36.2789C134.063 36.6131 135.003 36.9891 135.901 37.4069C124.33 45.867 110.379 60.3639 94.4012 80.501C83.7287 93.9535 74.8314 107.197 67.9601 119.898C67.7555 120.266 67.5598 120.634 67.3673 120.997C67.2649 121.189 67.1635 121.38 67.062 121.569C53.5073 147.158 52.4839 162.616 52.4003 164.621Z" fill="black"/>
<path d="M110.045 55.8937C109.982 55.8937 109.919 55.8519 109.898 55.8101C107.935 51.6114 106.557 47.2874 105.805 42.9843C105.45 40.8954 105.157 38.514 104.99 35.9029C104.99 35.8193 105.053 35.7358 105.136 35.7358C105.22 35.7358 105.304 35.7984 105.304 35.882C105.471 38.4931 105.742 40.8536 106.118 42.9425C106.87 47.2456 108.227 51.5279 110.191 55.7057C110.233 55.7893 110.191 55.8728 110.107 55.9146C110.086 55.8937 110.065 55.8937 110.045 55.8937Z" fill="black"/>
<path d="M84.0212 85.0757C83.9585 85.0757 83.9168 85.0548 83.875 84.9921C79.6352 77.0125 76.1265 68.5733 73.4531 59.9462C72.1791 55.8519 71.093 51.6323 70.195 47.4336C70.1741 47.3501 70.2367 47.2665 70.3203 47.2456C70.4038 47.2247 70.4874 47.2874 70.5082 47.371C71.4063 51.5697 72.4924 55.7684 73.7455 59.8417C76.398 68.448 79.9067 76.8663 84.1465 84.825C84.1883 84.9086 84.1674 84.9921 84.0839 85.0339C84.063 85.0757 84.0421 85.0757 84.0212 85.0757Z" fill="black"/>
<path d="M112.635 59.4239C112.551 59.4239 112.488 59.3612 112.488 59.2986C112.468 59.215 112.53 59.1315 112.614 59.1315C112.823 59.1106 133.311 56.2697 147.869 51.2563C147.952 51.2354 148.036 51.2772 148.077 51.3607C148.098 51.4443 148.057 51.5279 147.973 51.5696C133.395 56.583 112.864 59.4239 112.656 59.4448C112.656 59.4239 112.656 59.4239 112.635 59.4239Z" fill="black"/>
<path d="M70.5919 103.395C70.5084 103.395 62.7807 103.082 53.7999 100.575C45.4875 98.2775 34.3764 93.5984 28.5911 84.3863C28.5493 84.3028 28.5702 84.2192 28.6328 84.1774C28.6955 84.1357 28.7999 84.1565 28.8417 84.2192C31.9954 89.2535 38.9085 96.1469 53.8626 100.283C62.8225 102.769 70.5084 103.082 70.571 103.082C70.6546 103.082 70.7172 103.166 70.7172 103.249C70.7381 103.333 70.6755 103.395 70.5919 103.395Z" fill="black"/>
<path d="M89.8274 89.0446C88.7831 89.0446 88.1983 89.0237 88.1774 89.0237C88.0939 89.0237 88.0312 88.9402 88.0312 88.8566C88.0312 88.773 88.0939 88.7104 88.1774 88.7104C88.261 88.7104 96.4064 88.8566 107.371 88.0419C112.091 87.6868 116.665 87.2064 121.01 86.6006H121.072C129.51 85.4308 137.029 83.8015 143.399 81.7961C144.088 81.5872 144.777 81.3574 145.508 81.1068C145.592 81.0859 145.675 81.1277 145.717 81.2112C145.738 81.2948 145.696 81.3783 145.613 81.4201C144.882 81.6708 144.193 81.9005 143.503 82.1094C137.112 84.1357 129.573 85.765 121.114 86.9348H121.051C116.707 87.5406 112.112 88.021 107.392 88.3761C99.3094 88.961 92.7514 89.0446 89.8274 89.0446Z" fill="black"/>
<path d="M113.407 126.728C110.045 126.728 106.661 126.311 103.341 125.454C98.2862 124.18 93.2946 121.945 88.5327 118.791C80.3873 113.443 75.6045 107.239 75.5627 107.176C75.5001 107.114 75.521 107.009 75.5836 106.946C75.6463 106.905 75.7507 106.905 75.8134 106.967C75.8551 107.03 80.617 113.192 88.7206 118.519C93.4617 121.652 98.4324 123.867 103.445 125.141C109.711 126.728 116.102 126.812 122.43 125.391C122.513 125.371 122.597 125.433 122.618 125.517C122.639 125.6 122.576 125.684 122.493 125.705C119.443 126.373 116.415 126.728 113.407 126.728Z" fill="black"/>
<path d="M131.494 112.607C131.619 114.383 131.724 116.138 131.849 117.913C130.909 119.814 129.886 121.715 128.8 123.574C129.719 119.919 130.596 116.263 131.494 112.607Z" fill="#00BE75"/>
<path d="M65.0991 30.8895C65.2244 34.8793 66.4149 37.5114 67.8978 37.7202C68.775 37.8456 69.8193 37.1353 70.0699 36.2789C70.5294 34.7958 68.6706 32.5398 65.0991 30.8895Z" fill="black"/>
<path fill-rule="evenodd" clip-rule="evenodd" d="M103.737 9.14402C103.8 9.16491 103.884 9.16491 103.946 9.16491C104.844 9.16491 105.847 8.45468 106.097 7.57734C106.578 5.90622 104.489 3.62932 101.001 2.02086C100.96 1.99997 100.897 2.02086 100.855 2.04175C100.813 2.06264 100.792 2.10442 100.792 2.16708C100.918 6.11511 102.087 8.91424 103.737 9.14402ZM103.8 8.85158C102.359 8.64269 101.273 6.01067 101.127 2.41775C104.677 4.10976 106.16 6.24045 105.805 7.51468C105.575 8.28757 104.573 8.95602 103.8 8.85158Z" fill="black"/>
<path d="M60.0449 58.2542C60.1702 62.244 61.3607 64.876 62.8436 65.0849C63.7208 65.2102 64.7651 64.5 65.0157 63.6435C65.4752 62.1604 63.6164 59.9044 60.0449 58.2542Z" fill="black"/>
<path fill-rule="evenodd" clip-rule="evenodd" d="M41.2061 57.0217C41.2687 57.0426 41.3523 57.0426 41.4149 57.0426C42.313 57.0426 43.2946 56.3324 43.5453 55.4759C44.0256 53.8048 41.958 51.507 38.4701 49.8985C38.4283 49.8777 38.3657 49.8985 38.3239 49.9194C38.2821 49.9403 38.2612 49.9821 38.2612 50.0448C38.3865 53.9928 39.5561 56.7919 41.2061 57.0217ZM41.2479 56.7293C39.8068 56.5204 38.7207 53.8884 38.5745 50.2954C42.1459 51.9874 43.6288 54.1181 43.2529 55.3924C43.0231 56.1653 42.0206 56.8337 41.2479 56.7293Z" fill="black"/>
<path d="M42.334 29.0304C42.4593 33.0202 43.6498 35.6522 45.1326 35.8611C46.0098 35.9864 47.0541 35.2762 47.3047 34.4198C47.7642 32.9366 45.9263 30.6806 42.334 29.0304Z" fill="black"/>
<path d="M42.334 4.59021C42.4593 8.58002 43.6498 11.212 45.1326 11.4209C46.0098 11.5463 47.0541 10.836 47.3047 9.97958C47.7642 8.49646 45.9263 6.24044 42.334 4.59021Z" fill="black"/>
<path d="M86.9873 35.7985C87.1126 39.7883 88.3031 42.4203 89.786 42.6292C90.6632 42.7545 91.7074 42.0443 91.9581 41.1878C92.4175 39.7047 90.5587 37.4487 86.9873 35.7985Z" fill="black"/>
<path d="M83.1235 56.8755C83.2488 60.8653 84.4393 63.4973 85.9222 63.7062C86.7994 63.8315 87.8437 63.1213 88.0943 62.2649C88.5538 60.7817 86.695 58.5257 83.1235 56.8755Z" fill="black"/>
<path fill-rule="evenodd" clip-rule="evenodd" d="M117.125 36.0073C117.188 36.0282 117.271 36.0282 117.334 36.0282C118.232 36.0282 119.214 35.318 119.464 34.4615C119.945 32.7904 117.877 30.4926 114.389 28.8841C114.347 28.8633 114.285 28.8841 114.243 28.905C114.201 28.9259 114.18 28.9677 114.18 29.0304C114.305 32.9784 115.475 35.7775 117.125 36.0073ZM117.167 35.7149C115.726 35.506 114.64 32.8739 114.493 29.281C118.044 30.973 119.548 33.1037 119.172 34.378C118.942 35.1509 117.94 35.8193 117.167 35.7149Z" fill="black"/>
<path d="M93.3154 15.6405C93.4407 19.6303 94.6312 22.2623 96.1141 22.4712C96.9913 22.5966 98.0356 21.8863 98.2862 21.0299C98.7457 19.5468 96.8869 17.2907 93.3154 15.6405Z" fill="black"/>
<path d="M118.691 11.0658C118.817 15.0556 120.007 17.6876 121.49 17.8965C122.367 18.0218 123.412 17.3116 123.662 16.4552C124.101 14.972 122.263 12.716 118.691 11.0658Z" fill="black"/>
<path fill-rule="evenodd" clip-rule="evenodd" d="M71.9287 15.9956C71.9914 16.0165 72.0749 16.0165 72.1376 16.0165C73.0357 16.0165 74.0173 15.2854 74.2679 14.4499C74.7483 12.7787 72.6806 10.4809 69.1927 8.87248C69.151 8.85159 69.0883 8.87248 69.0465 8.89337C69.0048 8.91426 68.9839 8.95604 68.9839 9.01871C69.1092 12.9667 70.2788 15.7659 71.9287 15.9956ZM71.9705 15.6823C70.5294 15.4734 69.4434 12.8414 69.2972 9.24849C72.8477 10.9614 74.3515 13.0921 73.9755 14.3454C73.7458 15.1183 72.7433 15.7868 71.9705 15.6823Z" fill="black"/>
<path d="M144.527 102.476C144.464 102.476 144.422 102.455 144.38 102.393L143.608 100.868C143.566 100.784 143.608 100.701 143.67 100.659C143.754 100.617 143.837 100.659 143.879 100.722L144.652 102.246C144.694 102.33 144.652 102.414 144.589 102.455C144.589 102.455 144.568 102.476 144.527 102.476Z" fill="black"/>
<path d="M139.473 102.288C139.41 102.288 139.368 102.267 139.326 102.205L138.762 101.098C138.721 101.014 138.762 100.93 138.825 100.889C138.909 100.847 138.992 100.889 139.034 100.951L139.598 102.058C139.64 102.142 139.598 102.226 139.535 102.267C139.535 102.288 139.514 102.288 139.473 102.288Z" fill="black"/>
<path d="M144.318 106.194C144.255 106.194 144.213 106.174 144.172 106.111L143.545 104.878C143.503 104.795 143.545 104.711 143.608 104.67C143.691 104.628 143.775 104.67 143.817 104.732L144.443 105.965C144.485 106.048 144.443 106.132 144.381 106.174C144.36 106.174 144.339 106.194 144.318 106.194Z" fill="black"/>
<path d="M143.921 97.8597C143.858 97.8597 143.817 97.8388 143.775 97.7762L143.002 96.2513C142.96 96.1677 143.002 96.0842 143.065 96.0424C143.148 96.0006 143.232 96.0424 143.274 96.1051L144.046 97.63C144.088 97.7135 144.046 97.7971 143.984 97.8388C143.963 97.8597 143.942 97.8597 143.921 97.8597Z" fill="black"/>
<path d="M145.968 94.6219C145.947 94.6219 145.905 94.6219 145.884 94.601L145.592 94.413C145.529 94.3713 145.508 94.2668 145.55 94.2041C145.592 94.1415 145.696 94.1206 145.759 94.1624L146.051 94.3504C146.114 94.3921 146.135 94.4966 146.093 94.5593C146.051 94.5801 146.01 94.6219 145.968 94.6219Z" fill="black"/>
<path d="M145.049 99.1967C144.965 99.1967 144.903 99.134 144.903 99.0504C144.903 98.9669 144.965 98.8833 145.049 98.8833L146.532 98.758C146.615 98.758 146.699 98.8207 146.699 98.9042C146.699 98.9878 146.636 99.0713 146.553 99.0713L145.049 99.1967Z" fill="black"/>
<path d="M141.248 99.8233C141.185 99.8233 141.122 99.7815 141.102 99.698L140.559 97.6508C140.538 97.5673 140.579 97.4837 140.663 97.4628C140.747 97.442 140.83 97.4837 140.851 97.5673L141.394 99.6144C141.415 99.698 141.373 99.7815 141.29 99.8024C141.269 99.8024 141.269 99.8233 141.248 99.8233Z" fill="black"/>
<path d="M147.012 103.583C146.991 103.583 146.95 103.583 146.929 103.562L146.365 103.186C146.302 103.145 146.281 103.04 146.323 102.978C146.365 102.915 146.469 102.894 146.532 102.936L147.096 103.312C147.158 103.354 147.179 103.458 147.138 103.521C147.117 103.562 147.054 103.583 147.012 103.583Z" fill="black"/>
<path d="M144.84 87.9792C144.819 87.9792 144.778 87.9792 144.757 87.9583L144.067 87.4988C144.005 87.457 143.984 87.3526 144.026 87.2899C144.067 87.2272 144.172 87.2063 144.234 87.2481L144.924 87.7077C144.986 87.7495 145.007 87.8539 144.965 87.9166C144.945 87.9375 144.903 87.9792 144.84 87.9792Z" fill="black"/>
<path d="M141.666 107.093C141.645 107.093 141.645 107.093 141.624 107.093C141.54 107.072 141.499 106.988 141.519 106.905L141.624 106.57C141.645 106.487 141.728 106.445 141.812 106.466C141.895 106.487 141.937 106.57 141.916 106.654L141.812 106.988C141.791 107.03 141.728 107.093 141.666 107.093Z" fill="black"/>
<path d="M143.566 93.0762C143.545 93.0762 143.545 93.0762 143.524 93.0762C143.441 93.0553 143.399 92.9717 143.42 92.8882L143.879 91.2588C143.9 91.1753 143.984 91.1335 144.067 91.1544C144.151 91.1753 144.193 91.2588 144.172 91.3424L143.712 92.9717C143.691 93.0344 143.629 93.0762 143.566 93.0762Z" fill="black"/>
<path d="M141.77 103.333C141.749 103.333 141.749 103.333 141.728 103.333C141.645 103.312 141.603 103.228 141.624 103.145L142.083 101.515C142.104 101.432 142.188 101.39 142.271 101.411C142.355 101.432 142.397 101.515 142.376 101.599L141.916 103.228C141.916 103.291 141.854 103.333 141.77 103.333Z" fill="black"/>
<path d="M140.391 103.333C140.308 103.333 140.245 103.27 140.245 103.186L139.869 83.1956C139.869 83.1121 139.932 83.0285 140.015 83.0285C140.099 83.0285 140.182 83.0912 140.182 83.1747L140.558 103.166C140.558 103.249 140.475 103.333 140.391 103.333Z" fill="black"/>
<path d="M144.318 85.3263C143.023 89.4415 141.603 93.4522 140.287 97.2122C140.245 97.3584 140.182 97.4837 140.141 97.63C139.535 99.322 138.846 101.286 138.052 103.437C132.434 104.043 126.837 104.649 121.218 105.254C120.905 105.296 120.613 105.317 120.299 105.359C120.634 101.139 120.863 96.7526 120.989 92.2406C121.051 90.3606 121.072 88.5014 121.093 86.6632C120.717 87.3943 120.132 88.4179 119.234 89.5459C117.772 91.3632 116.394 93.1179 114.639 93.3895C111.862 93.849 109.167 90.4859 106.097 86.6214C104.28 84.3654 103.027 82.3183 102.233 80.9396C102.38 80.8143 102.526 80.6681 102.672 80.5427C103.946 79.3938 105.22 78.224 106.494 77.0751C106.515 77.096 106.515 77.096 106.536 77.1169C108.812 80.0205 111.068 82.9241 113.345 85.8485C113.992 85.2219 121.239 76.1769 124.435 74.5476C124.685 74.4222 124.894 74.3178 125.124 74.2342C125.959 73.9 126.732 73.6702 127.442 73.524V72.396H134.648V73.4822C135.609 73.5658 137.154 73.8165 138.72 74.7773C138.72 74.7773 140.496 75.8636 141.853 77.9525C142.647 79.2058 143.503 81.7543 144.318 85.3263Z" fill="black"/>
<path d="M140.475 107.49C140.433 107.49 140.412 107.49 140.392 107.469C140.35 107.448 140.329 107.385 140.329 107.343L140.245 103.354L138.052 103.583C137.969 103.583 137.885 103.521 137.885 103.437C137.885 103.354 137.948 103.27 138.031 103.27L140.392 103.019C140.433 103.019 140.475 103.019 140.517 103.061C140.559 103.103 140.579 103.124 140.579 103.166L140.663 107.114L147.033 104.962C146.386 97.4628 145.383 90.5068 144.214 85.3681C144.193 85.2845 144.255 85.201 144.339 85.1801C144.422 85.1592 144.506 85.2219 144.527 85.3054C145.717 90.4859 146.72 97.5046 147.367 105.066C147.367 105.129 147.326 105.213 147.263 105.234L140.579 107.51C140.517 107.49 140.496 107.49 140.475 107.49Z" fill="black"/>
<path d="M104.927 76.4485C104.844 76.4485 104.76 76.3858 104.76 76.2814C104.781 74.6311 104.781 73.2316 104.802 72.1454V71.0173C104.802 70.7458 104.802 70.0356 104.51 69.8893C104.405 69.8476 104.28 69.8476 104.176 69.9102C103.925 70.0564 103.946 70.5996 103.946 70.9547V70.9965C103.967 71.8529 103.946 72.772 103.841 73.7538C103.883 74.3805 103.904 74.4849 103.716 74.5058C103.674 74.5058 103.633 74.4849 103.591 74.464C103.528 74.4014 103.528 74.3805 103.528 73.7956V73.7538C103.507 73.524 103.486 73.2525 103.465 72.96C103.424 72.5631 103.382 72.2289 103.382 72.1454C103.277 71.3098 103.11 69.9311 102.63 69.8058C102.463 69.764 102.317 69.8684 102.317 69.8893C102.045 70.0982 102.171 70.7458 102.275 71.3307L102.296 71.456C102.463 72.3542 102.567 73.3151 102.63 74.2969C102.63 74.3805 102.567 74.464 102.484 74.464C102.4 74.464 102.317 74.4014 102.317 74.3178C102.254 73.3569 102.129 72.4169 101.983 71.5187L101.962 71.3933C101.836 70.704 101.711 69.9729 102.129 69.6596C102.15 69.6387 102.4 69.4507 102.714 69.5342C103.34 69.6804 103.528 70.8085 103.674 71.8111C103.674 71.5396 103.674 71.2889 103.674 71.0382V70.9965C103.653 70.5787 103.633 69.9311 104.05 69.6804C104.238 69.576 104.489 69.5551 104.698 69.6387C105.178 69.8684 105.157 70.6622 105.157 71.0591V72.1871C105.157 73.2734 105.136 74.6729 105.115 76.3232C105.074 76.3649 105.011 76.4485 104.927 76.4485Z" fill="black"/>
<path d="M102.693 80.689C102.651 80.689 102.609 80.6681 102.588 80.6472C102.192 80.2712 101.857 79.8326 101.565 79.3939C101.356 79.0597 101.168 78.7254 100.98 78.3703C100.73 77.8481 100.625 77.493 100.416 76.8245C100.354 76.6365 100.312 76.4276 100.228 76.1979L100.082 75.7174C99.7897 74.7147 99.6226 74.1716 99.5391 73.9836C99.4764 73.8165 99.4138 73.6703 99.3511 73.5241C99.0796 72.8138 98.8916 72.3334 99.1631 71.9783C99.2885 71.8112 99.5182 71.6649 99.7688 71.6858C100.145 71.7276 100.312 72.1245 100.646 72.8974C100.709 73.0436 100.771 73.2107 100.855 73.3987C100.876 73.4405 100.876 73.4614 100.897 73.5032C100.792 73.0645 100.688 72.6676 100.562 72.2498L100.542 72.1663C100.375 71.6023 100.187 70.9965 100.521 70.6205C100.646 70.4743 100.876 70.3071 101.147 70.3489C101.565 70.4116 101.774 70.9338 102.108 72.1454C102.296 72.8347 102.463 73.5241 102.609 74.2134C102.63 74.297 102.567 74.3805 102.484 74.4014C102.4 74.4223 102.317 74.3596 102.296 74.2761C102.15 73.5867 101.983 72.8974 101.795 72.2289C101.481 71.1218 101.293 70.6831 101.085 70.6623C100.959 70.6414 100.834 70.7249 100.75 70.8294C100.521 71.1009 100.688 71.6023 100.834 72.0827L100.855 72.1663C101.106 72.9601 101.314 73.8374 101.481 74.7356C101.502 74.8192 101.461 74.8818 101.377 74.9027C101.293 74.9236 101.231 74.9027 101.189 74.8192C100.98 74.4014 100.771 73.9627 100.562 73.5241C100.479 73.3361 100.416 73.1689 100.354 73.0227C100.082 72.3961 99.9359 72.02 99.7271 71.9992C99.6017 71.9783 99.4764 72.0827 99.3929 72.1663C99.2258 72.3961 99.3929 72.7929 99.6226 73.4196C99.6853 73.5658 99.7479 73.7121 99.8106 73.9001C99.8941 74.0881 100.04 74.6103 100.354 75.6547L100.5 76.1352C100.583 76.3859 100.625 76.5947 100.688 76.7619C100.876 77.4303 100.98 77.7645 101.231 78.2659C101.398 78.6001 101.586 78.9343 101.795 79.2477C102.087 79.6654 102.4 80.0832 102.776 80.4383C102.839 80.501 102.839 80.6054 102.776 80.6681C102.776 80.6681 102.735 80.689 102.693 80.689Z" fill="black"/>
<path d="M103.069 77.7227C103.048 77.7227 103.027 77.7227 102.985 77.7018C102.902 77.66 102.881 77.5556 102.923 77.4929C103.111 77.1378 103.382 76.8454 103.696 76.6156C104.092 76.3231 104.489 76.1978 104.782 76.156C104.949 75.5502 105.116 74.9445 105.304 74.276C105.387 73.9418 105.533 73.5031 105.909 73.3569C106.118 73.2733 106.369 73.3151 106.536 73.4196C106.87 73.6284 106.891 74.088 106.891 74.6102C106.87 75.3413 106.807 76.1769 106.682 77.1378C106.661 77.2214 106.599 77.284 106.515 77.2631C106.432 77.2423 106.369 77.1796 106.39 77.096C106.515 76.156 106.578 75.3413 106.578 74.6102C106.578 74.1925 106.578 73.8164 106.369 73.6911C106.264 73.6284 106.139 73.6076 106.014 73.6493C105.784 73.7329 105.68 74.0671 105.596 74.3596C105.387 75.0698 105.22 75.7174 105.053 76.344C105.032 76.4067 104.99 76.4485 104.928 76.4485C104.656 76.4902 104.259 76.5947 103.883 76.8662C103.591 77.0751 103.361 77.3467 103.194 77.6391C103.173 77.7018 103.111 77.7227 103.069 77.7227Z" fill="black"/>
<path d="M100.897 75.3414C100.855 75.3414 100.813 75.3205 100.792 75.2996C100.73 75.2369 100.73 75.1325 100.771 75.0698C101.022 74.7774 101.732 74.1298 102.797 74.088C103.236 74.0671 103.674 74.1716 104.071 74.3596C104.155 74.4014 104.176 74.4849 104.155 74.5685C104.113 74.652 104.029 74.6729 103.946 74.652C103.591 74.4849 103.194 74.4014 102.818 74.4222C101.878 74.464 101.252 75.0489 101.022 75.2996C100.98 75.3205 100.938 75.3414 100.897 75.3414Z" fill="black"/>
<path d="M135.107 69.4298C134.856 69.8893 134.543 70.2236 134.313 70.4533C134.188 70.0147 134.063 69.576 133.958 69.1582C134.042 69.0329 134.334 68.5942 134.251 68.0093C134.23 67.9049 134.125 67.1946 133.541 66.9022C133.186 66.7351 132.851 66.7977 132.726 66.8395C132.162 66.9857 131.703 67.5498 131.577 68.26V68.2809L131.034 68.26L130.784 65.5862C130.596 65.628 130.324 65.6489 129.99 65.628C129.489 65.5862 129.134 65.44 128.925 65.3564C128.591 65.2102 128.027 64.9386 127.526 64.3955C127.379 64.2284 127.254 64.0822 127.191 63.9777C128.34 62.4319 130.115 61.659 131.765 61.9515C133.436 62.2439 134.355 63.5391 134.668 63.9777C135.734 65.5026 136.026 67.7378 135.107 69.4298Z" fill="black"/>
<path d="M133.332 69.6178C133.249 69.6178 133.186 69.5551 133.186 69.4716C133.186 69.388 133.249 69.3044 133.332 69.3044C133.437 69.3044 133.625 69.2835 133.792 69.1582C133.98 69.0329 134.063 68.8449 134.084 68.7613C134.105 68.6778 134.209 68.636 134.293 68.6778C134.377 68.6987 134.418 68.8031 134.377 68.8867C134.335 69.012 134.209 69.2418 133.959 69.4298C133.729 69.576 133.458 69.6178 133.332 69.6178Z" fill="black"/>
<path d="M131.452 68.5942C131.369 68.5942 131.306 68.5316 131.306 68.448C131.306 68.3645 131.306 68.26 131.327 68.1764C131.348 68.0511 131.369 67.9049 131.431 67.8004C131.473 67.7169 131.557 67.6751 131.64 67.7169C131.724 67.7587 131.766 67.8422 131.724 67.9258C131.682 68.0302 131.661 68.1347 131.64 68.2391C131.64 68.3227 131.619 68.3853 131.64 68.4689C131.619 68.5107 131.557 68.5942 131.452 68.5942Z" fill="black"/>
<path d="M134.314 72.5631C134.23 72.5631 134.146 72.4796 134.146 72.396L134.167 71.6649C134.188 71.1218 134.209 70.5787 134.23 70.0356C134.23 69.952 134.314 69.8893 134.397 69.8893C134.481 69.8893 134.543 69.9729 134.543 70.0565C134.522 70.5996 134.502 71.1427 134.481 71.6858L134.46 72.4169C134.481 72.5005 134.397 72.5631 134.314 72.5631Z" fill="black"/>
<path d="M128.361 72.5631C128.278 72.5631 128.194 72.5005 128.194 72.396C128.194 72.1036 128.194 71.8111 128.215 71.5187C127.609 71.4142 126.628 71.1427 125.959 70.3071C124.623 68.6778 125.583 66.3173 125.897 65.628C126.189 65.0013 126.628 64.3955 127.129 63.8733C127.192 63.8106 127.296 63.8106 127.359 63.8733C127.421 63.936 127.421 64.0404 127.359 64.1031C126.857 64.6044 126.461 65.1893 126.168 65.7742C125.855 66.4218 124.978 68.636 126.189 70.1191C126.857 70.9338 127.86 71.1636 128.382 71.2262C128.466 71.2262 128.528 71.3098 128.528 71.3933C128.528 71.7276 128.507 72.0827 128.507 72.4169C128.507 72.5005 128.445 72.5631 128.361 72.5631Z" fill="black"/>
<path d="M132.058 71.2263C131.285 71.6231 130.512 72.02 129.739 72.4378C129.259 72.4378 128.8 72.4169 128.319 72.4169C128.319 72.2289 128.319 72.0618 128.319 71.8529C128.319 71.644 128.319 71.456 128.298 71.268C128.34 71.268 128.403 71.2889 128.465 71.2889C128.465 71.2889 129.029 71.3725 129.531 71.3934C129.99 71.4351 130.888 71.3934 132.058 71.2263Z" fill="black"/>
<path d="M138.031 103.437C136.423 107.74 134.397 112.795 131.849 117.913C131.724 116.138 131.619 114.383 131.494 112.607C130.596 116.263 129.698 119.919 128.821 123.574C125.291 129.653 120.989 135.439 115.788 139.68C117.605 128.212 119.401 116.723 121.218 105.254C126.774 104.649 132.329 104.043 137.885 103.458C137.927 103.437 137.989 103.437 138.031 103.437Z" fill="black"/>
<path fill-rule="evenodd" clip-rule="evenodd" d="M115.705 139.805C115.726 139.826 115.767 139.826 115.788 139.826C115.809 139.826 115.851 139.826 115.893 139.784C120.571 135.982 124.957 130.551 128.967 123.637C128.979 123.625 128.984 123.62 128.986 123.614C128.988 123.609 128.988 123.604 128.988 123.595C129.395 121.935 129.802 120.269 130.21 118.603C130.617 116.937 131.024 115.271 131.431 113.61L131.724 117.913C131.724 117.997 131.787 118.039 131.849 118.059C131.912 118.08 131.974 118.039 132.016 117.976C134.126 113.715 136.152 108.973 138.198 103.479C138.219 103.437 138.219 103.374 138.177 103.333C138.136 103.291 138.094 103.27 138.031 103.27L121.198 105.087C121.114 105.087 121.072 105.15 121.051 105.213L115.621 139.638C115.621 139.701 115.642 139.763 115.705 139.805ZM115.997 139.304L121.344 105.401L137.802 103.604C135.88 108.764 133.959 113.255 131.974 117.307L131.661 112.587C131.661 112.503 131.599 112.44 131.515 112.44C131.431 112.44 131.369 112.482 131.348 112.566C130.899 114.393 130.455 116.216 130.011 118.039C129.567 119.861 129.124 121.684 128.675 123.511C124.769 130.238 120.508 135.544 115.997 139.304Z" fill="black"/>
<path d="M133.958 149.101C133.917 149.101 133.896 149.08 133.854 149.059C133.812 149.038 133.791 148.996 133.791 148.954L131.703 117.913C131.703 117.83 131.765 117.746 131.849 117.746C131.932 117.746 132.016 117.809 132.016 117.892L134.104 148.787C135.107 148.683 140.454 148.119 141.414 148.014L141.059 107.072C141.059 106.988 141.122 106.905 141.206 106.905C141.289 106.905 141.352 106.967 141.373 107.051L141.728 148.119C141.728 148.202 141.665 148.265 141.582 148.286C141.373 148.328 134.021 149.101 133.958 149.101Z" fill="black"/>
<path d="M122.68 148.808H122.659C122.513 148.787 119.359 148.349 117.02 148.014L114.535 147.659C114.493 147.659 114.451 147.638 114.43 147.597C114.41 147.555 114.389 147.513 114.41 147.471L115.642 139.638C115.663 139.554 115.725 139.492 115.83 139.512C115.913 139.533 115.976 139.596 115.955 139.7L114.744 147.367L117.083 147.701C119.171 147.993 121.928 148.39 122.597 148.474L128.695 123.532C128.716 123.449 128.8 123.407 128.883 123.407C128.967 123.428 129.009 123.511 129.009 123.595L122.868 148.683C122.826 148.766 122.764 148.808 122.68 148.808Z" fill="black"/>
<path d="M119.548 148.369C119.527 148.369 119.527 148.369 119.506 148.369C119.422 148.349 119.38 148.265 119.401 148.181L124.038 129.945C124.059 129.862 124.142 129.82 124.226 129.841C124.309 129.862 124.351 129.945 124.33 130.029L119.694 148.265C119.673 148.307 119.61 148.369 119.548 148.369Z" fill="black"/>
<path d="M135.734 148.913C135.65 148.913 135.588 148.85 135.588 148.766L133.583 113.965C133.583 113.882 133.645 113.798 133.729 113.798C133.812 113.798 133.896 113.861 133.896 113.944L135.88 148.745C135.88 148.85 135.817 148.913 135.734 148.913Z" fill="black"/>
<path d="M142.709 112.795H142.689C142.417 112.774 142.208 112.545 142.104 112.357C141.874 111.918 142.125 111.479 142.396 111.041C142.668 110.602 142.96 110.101 142.918 109.453C142.918 109.265 142.877 109.182 142.835 109.014C142.772 108.806 142.668 108.492 142.542 107.803C142.459 107.427 142.396 107.051 142.354 106.675C142.334 106.591 142.396 106.508 142.48 106.508C142.563 106.487 142.647 106.55 142.647 106.633C142.689 107.009 142.751 107.385 142.835 107.74C142.96 108.409 143.065 108.722 143.127 108.91C143.19 109.098 143.232 109.202 143.232 109.432C143.273 110.184 142.939 110.748 142.668 111.208C142.396 111.667 142.25 111.939 142.396 112.21C142.459 112.336 142.605 112.482 142.73 112.482C142.73 112.482 142.73 112.482 142.751 112.482C143.211 112.482 143.858 111.062 144.025 109.704C144.046 109.453 144.067 109.202 144.067 108.952C144.067 108.868 144.13 108.785 144.213 108.785C144.297 108.785 144.38 108.847 144.38 108.931C144.38 109.202 144.38 109.474 144.339 109.725C144.151 110.999 143.503 112.795 142.709 112.795Z" fill="black"/>
<path d="M143.9 113.777C143.817 113.777 143.691 113.756 143.587 113.715C143.169 113.506 143.002 112.858 143.19 112.148C143.211 112.064 143.294 112.022 143.378 112.043C143.461 112.064 143.503 112.148 143.482 112.231C143.315 112.858 143.482 113.318 143.733 113.422C143.879 113.485 144.046 113.443 144.046 113.443C144.401 113.318 144.527 112.628 144.589 112.273C144.756 111.25 144.882 110.122 144.944 108.889C144.944 108.806 145.028 108.743 145.111 108.743C145.195 108.743 145.258 108.826 145.258 108.91C145.195 110.142 145.07 111.291 144.903 112.336C144.798 112.942 144.652 113.589 144.151 113.756C144.109 113.735 144.025 113.777 143.9 113.777Z" fill="black"/>
<path d="M144.798 114.279C144.694 114.279 144.568 114.258 144.443 114.195C144.171 114.049 144.046 113.756 144.004 113.61C143.983 113.526 144.025 113.443 144.109 113.422C144.192 113.401 144.276 113.443 144.297 113.526C144.318 113.631 144.401 113.84 144.568 113.923C144.714 114.007 144.861 113.965 144.861 113.965C144.944 113.944 145.32 113.798 145.592 111.981C145.738 111.02 145.78 110.017 145.717 109.014C145.717 108.931 145.78 108.847 145.863 108.847C145.947 108.847 146.03 108.91 146.03 108.994C146.093 110.017 146.051 111.041 145.905 112.022C145.696 113.464 145.362 114.195 144.923 114.279C144.923 114.258 144.861 114.279 144.798 114.279Z" fill="black"/>
<path d="M145.863 114.111C145.696 114.111 145.571 114.049 145.55 114.049C145.424 113.986 145.299 113.882 145.216 113.756C145.174 113.694 145.195 113.589 145.257 113.547C145.32 113.506 145.424 113.527 145.466 113.589C145.508 113.652 145.571 113.735 145.675 113.777C145.675 113.777 145.821 113.84 145.967 113.798C146.072 113.777 146.448 113.527 146.552 111.751C146.615 110.832 146.594 109.996 146.51 109.14C146.427 108.283 146.302 107.427 146.114 106.57C146.093 106.487 146.155 106.403 146.239 106.382C146.323 106.362 146.406 106.424 146.427 106.508C146.615 107.364 146.74 108.242 146.824 109.119C146.907 109.996 146.928 110.832 146.866 111.772C146.782 113.213 146.51 113.965 146.051 114.091C145.988 114.111 145.926 114.111 145.863 114.111Z" fill="black"/>
<path d="M146.97 110.623C146.866 110.623 146.761 110.602 146.678 110.56C146.594 110.518 146.573 110.414 146.615 110.351C146.657 110.268 146.761 110.247 146.824 110.289C146.907 110.33 147.074 110.33 147.179 110.268C147.409 110.122 147.367 109.474 147.095 108.2C146.886 107.239 146.615 106.32 146.281 105.401C146.26 105.317 146.302 105.234 146.385 105.192C146.469 105.171 146.552 105.213 146.594 105.296C146.928 106.236 147.2 107.155 147.409 108.137C147.743 109.662 147.743 110.289 147.367 110.539C147.241 110.581 147.095 110.623 146.97 110.623Z" fill="black"/>
<path d="M142.521 106.884C143.879 106.529 145.216 106.174 146.573 105.798C146.511 105.63 146.469 105.463 146.406 105.296C145.111 105.756 143.795 106.215 142.5 106.696C142.521 106.758 142.521 106.821 142.521 106.884Z" fill="black"/>
<path d="M115.495 147.638C115.391 148.181 115.308 148.745 115.203 149.289C114.493 149.372 113.428 149.518 112.175 149.811C110.253 150.27 109.272 150.5 108.415 151.169C107.977 151.524 106.828 152.568 106.431 154.887C110.379 154.657 114.326 154.427 118.273 154.197L119.359 152.84L119.965 154.093C120.633 154.051 121.302 154.009 121.949 153.968C121.949 152.15 121.97 150.333 121.97 148.537C119.819 148.244 117.647 147.931 115.495 147.638Z" fill="black"/>
<path d="M136.715 152.589L137.843 153.989C141.769 154.427 145.717 154.845 149.643 155.284C149.372 152.944 148.286 151.837 147.847 151.482C147.012 150.751 146.072 150.479 144.15 149.936C142.918 149.581 141.853 149.372 141.143 149.247C141.101 148.892 141.059 148.557 141.017 148.202C138.804 148.432 136.59 148.662 134.397 148.892C134.313 150.458 134.251 152.025 134.167 153.571C134.814 153.633 135.462 153.717 136.109 153.78L136.715 152.589Z" fill="black"/>
</g>
</svg>
