<svg width="190" height="190" viewBox="0 0 190 190" fill="none" xmlns="http://www.w3.org/2000/svg">
<mask id="mask0" mask-type="alpha" maskUnits="userSpaceOnUse" x="0" y="0" width="190" height="190">
<rect width="190" height="190" fill="white"/>
</mask>
<g mask="url(#mask0)">
<path fill-rule="evenodd" clip-rule="evenodd" d="M18.1284 168.384C18.1284 169.353 18.9128 170.137 19.883 170.137C20.8532 170.137 21.6376 169.353 21.6376 168.384C21.6376 167.414 20.8532 166.63 19.883 166.63C18.9128 166.63 18.1284 167.414 18.1284 168.384ZM18.4381 168.404C18.4381 167.6 19.0986 166.96 19.883 166.96C20.6674 166.96 21.328 167.6 21.328 168.404C21.328 169.209 20.688 169.848 19.883 169.848C19.078 169.848 18.4381 169.209 18.4381 168.404Z" fill="black"/>
<path fill-rule="evenodd" clip-rule="evenodd" d="M41.5988 64.2225C41.764 64.2844 41.9291 64.3051 42.0942 64.3051C42.3832 64.3051 42.6516 64.2432 42.8993 64.0988C43.2915 63.8718 43.6011 63.5211 43.725 63.0879C43.8488 62.6547 43.8282 62.1802 43.6011 61.7882C43.374 61.3962 43.0231 61.0868 42.5896 60.963C41.6814 60.6948 40.7318 61.2106 40.4635 62.0977C40.3396 62.5309 40.3603 63.0054 40.5874 63.3973C40.8144 63.7893 41.1653 64.0988 41.5988 64.2225ZM40.7731 62.2214C40.9589 61.6232 41.4956 61.2312 42.0942 61.2312C42.2387 61.2312 42.3626 61.2518 42.5071 61.2931C42.858 61.4169 43.1676 61.6438 43.3328 61.9739C43.5185 62.304 43.5392 62.6753 43.436 63.026C43.3121 63.3767 43.0851 63.6655 42.7548 63.8512C42.4245 64.0369 42.0529 64.0575 41.702 63.9544C41.3511 63.8306 41.0415 63.6036 40.8763 63.2736C40.6906 62.9435 40.6699 62.5721 40.7731 62.2214Z" fill="black"/>
<path fill-rule="evenodd" clip-rule="evenodd" d="M169.952 24.4272C170.096 24.5097 170.282 24.5716 170.447 24.5716H170.612C170.839 24.5303 171.046 24.3859 171.17 24.2003C171.314 23.994 171.355 23.767 171.314 23.5401C171.273 23.3132 171.128 23.1069 170.943 22.9831C170.53 22.7149 169.993 22.818 169.725 23.21C169.456 23.6226 169.56 24.159 169.952 24.4272ZM169.993 23.3751C170.096 23.21 170.261 23.1275 170.447 23.1275C170.55 23.1275 170.674 23.1688 170.757 23.2513C170.881 23.3338 170.963 23.4576 170.984 23.602C171.025 23.7464 170.984 23.8908 170.901 24.0146C170.819 24.1384 170.695 24.2209 170.55 24.2415C170.406 24.2828 170.261 24.2415 170.138 24.159C169.89 23.9733 169.828 23.6226 169.993 23.3751Z" fill="black"/>
<path fill-rule="evenodd" clip-rule="evenodd" d="M184.112 169.106C184.257 169.188 184.443 169.25 184.608 169.25H184.773C185 169.209 185.206 169.064 185.33 168.879C185.599 168.466 185.495 167.93 185.103 167.661C184.69 167.393 184.154 167.496 183.885 167.888C183.741 168.095 183.699 168.322 183.741 168.549C183.782 168.776 183.927 168.982 184.112 169.106ZM184.154 168.074C184.257 167.909 184.422 167.827 184.608 167.827C184.711 167.827 184.814 167.868 184.917 167.909C185.165 168.095 185.227 168.445 185.062 168.693C184.979 168.817 184.855 168.899 184.711 168.92C184.566 168.961 184.422 168.92 184.298 168.837C184.174 168.755 184.092 168.631 184.071 168.487C184.03 168.342 184.071 168.198 184.154 168.074Z" fill="black"/>
<path fill-rule="evenodd" clip-rule="evenodd" d="M157.463 101.068C157.67 101.192 157.897 101.274 158.144 101.274C158.206 101.274 158.289 101.274 158.371 101.253C158.702 101.192 158.97 101.006 159.156 100.738C159.548 100.181 159.404 99.4174 158.846 99.046C158.578 98.8604 158.248 98.7985 157.938 98.8604C157.608 98.9223 157.339 99.1079 157.154 99.3761C156.761 99.9331 156.906 100.696 157.463 101.068ZM157.979 99.1904C158.041 99.1698 158.082 99.1698 158.144 99.1698C158.33 99.1698 158.495 99.2111 158.66 99.3349C159.073 99.6237 159.176 100.181 158.887 100.593C158.764 100.779 158.557 100.923 158.31 100.965C158.062 101.006 157.835 100.965 157.628 100.82C157.215 100.531 157.112 99.9744 157.401 99.5618C157.525 99.3761 157.732 99.2317 157.979 99.1904Z" fill="black"/>
<path fill-rule="evenodd" clip-rule="evenodd" d="M16.9105 32.411C16.9312 32.4317 16.9725 32.4523 17.0138 32.4523C17.055 32.4523 17.0963 32.4523 17.117 32.411L19.9862 29.5434C20.0069 29.5228 20.0275 29.4816 20.0275 29.4403C20.0275 29.399 20.0069 29.3578 19.9862 29.3371L17.1376 26.4696C17.0757 26.4077 16.9725 26.4077 16.9105 26.4696L14.0413 29.3371C14.0206 29.3578 14 29.399 14 29.4403C14 29.4816 14.0206 29.5228 14.0413 29.5434L16.9105 32.411ZM17.0138 32.0809L14.3716 29.4403L17.0138 26.7997L19.656 29.4403L17.0138 32.0809Z" fill="black"/>
<path fill-rule="evenodd" clip-rule="evenodd" d="M36.7685 151.549L39.8855 151.838C39.9681 151.838 40.03 151.776 40.03 151.694L40.319 148.599C40.319 148.517 40.257 148.434 40.1745 148.434L37.0782 148.146C36.9956 148.146 36.913 148.207 36.913 148.29L36.624 151.384C36.624 151.405 36.6447 151.446 36.6653 151.488C36.6859 151.529 36.7272 151.549 36.7685 151.549ZM39.741 151.508L36.9543 151.261L37.202 148.476L39.9887 148.723L39.741 151.508Z" fill="black"/>
<path fill-rule="evenodd" clip-rule="evenodd" d="M123.465 128.877H123.486C123.527 128.877 123.568 128.877 123.61 128.836L125.86 127.144C125.922 127.103 125.922 127 125.88 126.938L124.167 124.669C124.126 124.607 124.023 124.607 123.961 124.648L121.711 126.34C121.669 126.36 121.649 126.401 121.649 126.443C121.628 126.484 121.649 126.525 121.669 126.566L123.362 128.815C123.383 128.856 123.424 128.877 123.465 128.877ZM123.527 128.506L122.02 126.505L124.023 124.999L125.529 127L123.527 128.506Z" fill="black"/>
<path d="M183.039 107.69C182.997 107.69 182.977 107.669 182.935 107.649C182.874 107.587 182.853 107.504 182.915 107.422L186.032 103.523C186.094 103.461 186.176 103.44 186.259 103.502C186.321 103.564 186.341 103.647 186.28 103.729L183.163 107.628C183.142 107.669 183.08 107.69 183.039 107.69Z" fill="black"/>
<path d="M186.156 15.123C186.115 15.123 186.094 15.1024 186.053 15.0818C185.991 15.0199 185.97 14.9374 186.032 14.8548L189.149 10.9558C189.211 10.8939 189.293 10.8732 189.376 10.9351C189.438 10.997 189.459 11.0795 189.397 11.1621L186.28 15.0611C186.259 15.1024 186.218 15.123 186.156 15.123Z" fill="black"/>
<path d="M180.004 146.144C179.963 146.144 179.901 146.124 179.881 146.082C179.839 146.021 179.839 145.917 179.922 145.876L184.03 143.009C184.092 142.967 184.195 142.967 184.236 143.05C184.277 143.112 184.277 143.215 184.195 143.256L180.087 146.124C180.066 146.124 180.046 146.144 180.004 146.144Z" fill="black"/>
<path d="M169.725 71.1955C169.683 71.1955 169.621 71.1748 169.601 71.1336C169.56 71.0717 169.56 70.9685 169.642 70.9273L173.729 68.0597C173.791 68.0184 173.894 68.0184 173.936 68.101C173.977 68.1628 173.977 68.266 173.894 68.3073L169.807 71.1748C169.787 71.1955 169.766 71.1955 169.725 71.1955Z" fill="black"/>
<path d="M32.3507 100.222C32.3094 100.222 32.2888 100.201 32.2475 100.181C32.1856 100.119 32.1649 100.036 32.2268 99.9537L35.3438 96.0546C35.4057 95.9928 35.4883 95.9721 35.5709 96.034C35.6328 96.0959 35.6534 96.1784 35.5915 96.2609L32.4746 100.16C32.4333 100.201 32.392 100.222 32.3507 100.222Z" fill="black"/>
<path d="M19.8833 62.7165C19.8626 62.7165 19.842 62.7165 19.8213 62.6959L15.3213 60.5297C15.2388 60.4885 15.2181 60.4059 15.2594 60.3234C15.3007 60.2409 15.3833 60.2203 15.4658 60.2615L19.9658 62.4483C20.0484 62.4896 20.069 62.5721 20.0278 62.6546C20.0071 62.6959 19.9452 62.7165 19.8833 62.7165Z" fill="black"/>
<path d="M40.2981 38.3731C40.2362 38.3731 40.1743 38.3318 40.1536 38.2699L38.3165 33.6282C38.2752 33.5457 38.3165 33.4631 38.3991 33.4219C38.4816 33.3806 38.5642 33.4219 38.6055 33.5044L40.4426 38.1462C40.4839 38.2287 40.4426 38.3112 40.3601 38.3525C40.3394 38.3731 40.3188 38.3731 40.2981 38.3731Z" fill="black"/>
<path d="M63.7888 18.6714C63.7476 18.6714 63.7063 18.6508 63.6856 18.6301L60.1558 15.1024C60.0939 15.0405 60.0939 14.9373 60.1558 14.8755C60.2177 14.8136 60.321 14.8136 60.3829 14.8755L63.9127 18.4032C63.9746 18.4651 63.9746 18.5682 63.9127 18.6301C63.8714 18.6508 63.8301 18.6714 63.7888 18.6714Z" fill="black"/>
<path d="M62.1997 87.5139C62.1584 87.5139 62.1171 87.4932 62.0965 87.4726L58.4634 84.048C58.4015 83.9861 58.4015 83.883 58.4634 83.8211C58.5254 83.7592 58.6286 83.7592 58.6905 83.8211L62.3235 87.2457C62.3854 87.3076 62.3854 87.4107 62.3235 87.4726C62.2822 87.5139 62.241 87.5139 62.1997 87.5139Z" fill="black"/>
<path d="M86.1855 165.042C86.1442 165.042 86.0823 165.021 86.0617 164.98L83.3369 160.771C83.2956 160.709 83.3163 160.606 83.3782 160.565C83.4401 160.524 83.5433 160.544 83.5846 160.606L86.2887 164.815C86.33 164.876 86.3094 164.98 86.2475 165.021C86.2475 165.042 86.2062 165.042 86.1855 165.042Z" fill="black"/>
<path d="M50.7223 117.365C50.6603 117.365 50.6191 117.345 50.5778 117.283C50.5365 117.2 50.5571 117.118 50.6397 117.077L55.0571 114.725C55.1397 114.684 55.2223 114.704 55.2635 114.787C55.3048 114.869 55.2842 114.952 55.2016 114.993L50.7842 117.345C50.7842 117.365 50.7636 117.365 50.7223 117.365Z" fill="black"/>
<path d="M158.144 128.753C158.103 128.753 158.062 128.733 158.021 128.712L154.656 125.019C154.594 124.957 154.594 124.854 154.677 124.792C154.739 124.73 154.842 124.73 154.904 124.813L158.268 128.506C158.33 128.568 158.33 128.671 158.248 128.733C158.206 128.753 158.186 128.753 158.144 128.753Z" fill="black"/>
<path d="M158.537 175.336C158.516 175.336 158.495 175.336 158.475 175.315C158.392 175.274 158.351 175.192 158.392 175.109L160.353 170.508C160.394 170.426 160.477 170.385 160.56 170.426C160.642 170.467 160.683 170.55 160.642 170.632L158.681 175.233C158.661 175.295 158.599 175.336 158.537 175.336Z" fill="black"/>
<path d="M117.989 70.356C117.907 70.356 117.845 70.294 117.845 70.2321C117.824 70.1496 117.886 70.067 117.969 70.0464C122.122 69.4066 123.878 67.5906 124.457 66.9921C125.345 66.0841 125.593 65.4443 126.006 64.4537C126.337 63.6283 126.75 62.617 127.701 61.0486C128.961 58.9643 129.932 57.953 130.635 57.2101C131.11 56.7148 131.441 56.364 131.627 55.9306C131.689 55.8068 131.792 55.4766 131.792 55.167C131.833 54.032 130.49 53.1652 129.044 52.2366C127.411 51.1841 125.738 50.1109 125.531 48.4187C125.469 47.9647 125.573 47.7377 125.696 47.4694C125.8 47.2217 125.944 46.9122 126.027 46.2312C126.192 44.8691 125.924 43.3213 125.304 42.0212C124.746 40.8242 123.981 40.0194 123.32 39.9162C122.783 39.8336 122.411 40.3083 121.833 41.01C121.233 41.7529 120.386 42.7848 118.94 43.5483C117.638 44.2294 116.77 44.2294 115.572 44.2294C114.683 44.2294 113.588 44.2294 111.977 44.5183C109.187 45.0342 105.736 45.6533 104.228 48.233C102.513 51.1428 104.166 54.9607 104.228 55.1258C104.827 56.5084 105.633 57.272 106.398 58.015C107.286 58.8611 108.113 59.6659 108.443 61.255C108.691 62.39 108.505 63.0711 108.34 63.6902C108.195 64.268 108.051 64.7839 108.299 65.5681C108.547 66.3936 109.104 67.1572 109.931 67.8382C109.993 67.9001 110.014 67.9827 109.952 68.0652C109.89 68.1271 109.807 68.1478 109.724 68.0859C108.857 67.3636 108.257 66.5587 107.989 65.6507C107.72 64.7633 107.865 64.2061 108.03 63.587C108.195 62.9885 108.361 62.3488 108.133 61.2963C107.803 59.7897 107.059 59.0674 106.17 58.2007C105.427 57.4784 104.559 56.6529 103.939 55.2083C103.856 55.0432 102.162 51.0809 103.959 48.0266C105.55 45.3231 109.084 44.6834 111.915 44.1674C113.547 43.8579 114.663 43.8785 115.572 43.8785C116.729 43.8785 117.555 43.8785 118.795 43.2388C120.18 42.4958 120.965 41.5465 121.585 40.7623C122.184 40.0194 122.659 39.4415 123.362 39.5654C124.147 39.6892 124.973 40.5353 125.593 41.8561C126.234 43.2181 126.502 44.8278 126.358 46.2312C126.275 46.9535 126.13 47.2836 126.006 47.5519C125.903 47.7996 125.82 47.9647 125.862 48.3568C126.027 49.9046 127.659 50.9364 129.23 51.9476C130.738 52.9176 132.185 53.8463 132.123 55.1464C132.102 55.4972 131.999 55.8687 131.937 56.0132C131.73 56.5084 131.379 56.8799 130.883 57.3958C130.18 58.1181 129.23 59.1294 127.99 61.1724C127.06 62.6996 126.647 63.7108 126.316 64.5363C125.924 65.5062 125.635 66.2079 124.705 67.1572C124.105 67.7763 122.287 69.6543 118.051 70.3147C118.01 70.356 118.01 70.356 117.989 70.356Z" fill="black"/>
<path d="M112.142 83.1303C112.08 83.1303 112.018 83.0891 111.997 83.0272C111.976 82.9446 112.018 82.8621 112.1 82.8414C122.328 79.7046 128.816 76.6916 129.746 75.4533C130.035 75.0612 130.242 74.7517 130.407 74.4215C130.924 73.4515 131.358 72.399 131.606 71.4085C131.978 69.9845 133.569 69.0558 135.428 67.9827C137.061 67.0334 138.92 65.9396 140.305 64.3093C142.144 62.1424 143.631 58.2626 142.619 54.8987C141.896 52.4842 139.912 50.6681 136.916 47.9028C136.131 47.1805 135.49 46.6439 134.974 46.2312C133.837 45.3025 133.217 44.7866 132.804 43.6309C132.267 42.1656 132.598 41.0719 132.949 39.8956C133.217 39.0082 133.486 38.1001 133.445 36.9032C133.383 34.2616 131.564 30.5057 127.659 28.0498C123.072 25.1813 117.865 26.4814 112.348 27.8641C108.774 28.7721 106.604 29.3087 104.352 31.0835C103.133 32.0328 102.265 32.9821 101.335 33.9933C100.199 35.2316 98.8969 36.6349 96.686 38.3478C94.5165 40.04 93.0494 40.5559 91.7477 40.9893C90.5286 41.4021 89.5781 41.7323 88.421 42.9086C87.1193 44.2087 86.2514 45.8803 85.7969 47.9853C85.7762 48.0679 85.6935 48.1298 85.6109 48.1091C85.5282 48.0885 85.4663 48.0059 85.4869 47.9234C85.9622 45.7565 86.8506 44.0436 88.1937 42.7022C89.4128 41.4846 90.4459 41.1131 91.6444 40.7004C92.9254 40.267 94.3718 39.7511 96.5001 38.1001C98.6903 36.3872 99.9714 35.0046 101.108 33.7663C102.038 32.7551 102.926 31.8058 104.145 30.8359C106.459 29.0198 108.629 28.4626 112.266 27.5546C117.844 26.1512 123.113 24.8305 127.824 27.7609C130.717 29.577 133.672 33.0853 133.755 36.8619C133.775 38.1001 133.486 39.0907 133.238 39.9575C132.887 41.1131 132.598 42.1244 133.093 43.5071C133.486 44.5802 134.044 45.0342 135.18 45.9629C135.697 46.3962 136.337 46.9122 137.143 47.6551C140.181 50.4411 142.185 52.2778 142.949 54.7749C144.003 58.2626 142.454 62.2456 140.573 64.4744C139.148 66.146 137.288 67.2397 135.614 68.2097C133.817 69.2622 132.288 70.1496 131.936 71.4497C131.668 72.4816 131.234 73.5341 130.697 74.5453C130.511 74.8755 130.304 75.2057 130.015 75.6184C128.878 77.1456 121.398 80.3031 112.224 83.1097C112.183 83.1303 112.162 83.1303 112.142 83.1303Z" fill="black"/>
<path d="M113.03 105.687C110.344 105.687 107.286 105.274 104.104 104.015C102.554 103.396 101.067 102.632 99.6822 101.704C99.6203 101.662 99.5996 101.559 99.6409 101.497C99.6822 101.435 99.7856 101.415 99.8475 101.456C101.232 102.364 102.699 103.148 104.207 103.747C111.914 106.801 119.002 104.799 121.316 104.139C122.39 103.829 131.916 100.961 136.999 93.3664C138.776 90.7248 139.685 88.6611 139.706 88.6405C140.47 87.0101 140.966 85.6068 141.4 84.3686C141.979 82.697 142.474 81.2524 143.446 79.849C144.169 78.7965 145.016 78.033 145.574 77.517C145.698 77.3932 145.801 77.3107 145.904 77.2075C148.983 74.2564 151.38 73.142 153.302 72.2339C154.851 71.5116 156.07 70.9338 157.042 69.6543C158.385 67.9001 158.075 66.373 157.517 63.6283C157.083 61.5026 156.504 58.5928 156.525 54.3415C156.525 49.6982 157.103 46.9535 157.579 44.7659C158.095 42.2895 158.447 40.6591 157.599 37.9763C156.628 34.8601 155.079 33.6425 152 31.2486C150.244 29.8866 148.074 28.1943 145.264 25.5528C139.995 20.6205 136.772 16.4518 134.437 13.3975C131.379 9.39388 129.684 7.20635 126.585 7.35081C124.725 7.43336 123.63 8.19693 121.936 9.35261C120.179 10.5496 117.762 12.2005 113.278 13.7483C107.823 15.6263 104.6 15.3167 101.748 15.0485C99.2483 14.8008 97.0994 14.5944 94.0207 15.9565C90.2188 17.6281 88.8551 20.3316 87.1607 23.778C85.3838 27.3688 83.1522 31.8471 77.222 36.5111C75.3831 37.9557 74.04 38.7605 72.9656 39.4003C71.3745 40.3496 70.4241 40.9068 69.2876 42.6609C64.8452 49.4506 67.9032 58.8404 69.5562 63.8965C69.8455 64.7839 70.1141 65.465 70.1968 65.7332L70.2174 65.7539C71.6432 69.4686 73.5648 72.9769 75.9616 76.1344C76.003 76.1963 76.003 76.2995 75.941 76.3614C75.879 76.4026 75.7757 76.4026 75.7137 76.3407C73.3168 73.142 71.3539 69.6337 69.9282 65.8777L69.9075 65.8571C69.8042 65.5888 69.5562 64.9078 69.2463 64.0204C67.5933 58.923 64.5146 49.4299 69.019 42.5165C70.1968 40.7004 71.2299 40.0813 72.8003 39.1526C73.8747 38.5129 75.1971 37.7287 77.0361 36.2841C82.9042 31.6407 85.1151 27.2244 86.8921 23.6541C88.6278 20.1665 90.0122 17.4011 93.9174 15.6882C97.0788 14.3055 99.269 14.5119 101.81 14.7595C104.621 15.0278 107.823 15.3374 113.216 13.48C117.659 11.9323 120.056 10.3019 121.812 9.1256C123.486 7.99056 124.684 7.16507 126.626 7.08253C129.891 6.91743 131.606 9.16688 134.747 13.253C137.081 16.3073 140.284 20.476 145.553 25.3877C148.363 28.0086 150.533 29.7008 152.268 31.0629C155.306 33.4361 156.98 34.7363 157.971 37.9557C158.839 40.721 158.467 42.4752 157.951 44.9104C157.496 47.0979 156.918 49.822 156.918 54.4241C156.918 58.6547 157.496 61.5439 157.909 63.6489C158.447 66.3936 158.777 68.0446 157.372 69.9226C156.36 71.264 155.099 71.8418 153.508 72.5848C151.607 73.4722 149.231 74.5866 146.194 77.4964C146.09 77.579 145.987 77.6821 145.863 77.806C145.326 78.3013 144.479 79.0648 143.797 80.076C142.867 81.4587 142.371 82.8827 141.793 84.5337C141.359 85.7925 140.863 87.1959 140.098 88.8468C140.098 88.8675 139.148 90.9518 137.371 93.6346C132.246 101.332 122.597 104.221 121.523 104.531C120.035 104.82 116.935 105.687 113.03 105.687Z" fill="black"/>
<path d="M104.621 78.1775C104.6 78.1775 104.559 78.1775 104.538 78.1568C103.319 77.3933 102.038 76.9186 100.53 76.7122C98.6079 76.4439 97.4508 76.7535 96.6243 76.9805C96.5417 77.0011 96.459 76.9599 96.4384 76.8773C96.4177 76.7948 96.459 76.7122 96.5417 76.6916C97.4095 76.4646 98.5873 76.155 100.571 76.4233C102.141 76.6503 103.464 77.125 104.703 77.9092C104.765 77.9505 104.807 78.0536 104.745 78.1156C104.724 78.1568 104.683 78.1775 104.621 78.1775Z" fill="black"/>
<path d="M117.411 66.7857C117.37 66.7857 117.308 66.7651 117.287 66.7238C117.246 66.6619 117.246 66.5587 117.328 66.5175C117.824 66.1666 118.258 65.7539 118.609 65.2792C118.878 64.9284 119.043 64.6808 119.126 64.3093C119.271 63.7108 119.105 63.133 118.94 62.7615C118.899 62.679 118.94 62.5964 119.023 62.5551C119.105 62.5139 119.188 62.5551 119.229 62.6377C119.415 63.0504 119.601 63.6902 119.436 64.3712C119.333 64.8252 119.105 65.1141 118.857 65.4443C118.485 65.9603 118.031 66.3936 117.494 66.7651C117.473 66.7857 117.452 66.7857 117.411 66.7857Z" fill="black"/>
<path d="M118.093 68.3129C118.051 68.3129 118.01 68.2923 117.989 68.2716C117.927 68.2097 117.927 68.1065 117.989 68.0446C118.155 67.9001 118.299 67.7144 118.423 67.5493C118.609 67.3017 118.878 66.9096 118.981 66.3524C119.084 65.7952 118.981 65.3205 118.857 65.0109C118.837 64.9284 118.878 64.8458 118.961 64.8046C119.043 64.7839 119.126 64.8252 119.167 64.9078C119.291 65.2586 119.415 65.7952 119.291 66.4143C119.167 67.0334 118.878 67.4461 118.671 67.735C118.527 67.9414 118.382 68.1065 118.196 68.2923C118.175 68.2923 118.134 68.3129 118.093 68.3129Z" fill="black"/>
<path d="M115.469 72.6673C115.427 72.6673 115.386 72.6467 115.345 72.6054C115.283 72.5435 115.303 72.4403 115.365 72.3784C116.254 71.6354 117.101 70.8719 117.886 70.067C118.444 69.4892 118.857 69.0352 118.94 68.3748C118.981 68.024 118.94 67.6525 118.795 67.281C118.775 67.1985 118.795 67.1159 118.878 67.0746C118.961 67.054 119.043 67.0746 119.084 67.1572C119.25 67.5699 119.291 67.9827 119.25 68.3954C119.146 69.159 118.713 69.6543 118.113 70.2734C117.328 71.0782 116.46 71.8625 115.572 72.6054C115.531 72.6673 115.489 72.6673 115.469 72.6673Z" fill="black"/>
<path d="M116.481 65.3205C116.439 65.3205 116.398 65.2999 116.377 65.2792C116.316 65.2173 116.316 65.1141 116.377 65.0522C117.266 64.1442 118.154 63.2362 119.022 62.3281C119.208 62.1217 119.415 61.9154 119.601 61.7296L119.642 61.6884L119.663 61.6677C120.469 60.8216 120.779 60.2025 120.634 59.831C120.593 59.7072 120.489 59.6453 120.448 59.604C120.262 59.4802 119.931 59.5834 119.456 59.9136C119.27 60.0374 119.064 60.1819 118.816 60.3882C118.526 60.6152 118.237 60.8835 117.907 61.1518C117.679 61.3375 117.452 61.5439 117.204 61.7503C116.171 62.617 115.055 63.4632 113.877 64.268C113.815 64.3093 113.712 64.3093 113.671 64.2267C113.629 64.1648 113.629 64.0616 113.712 64.0204C114.869 63.2155 115.985 62.3694 117.018 61.5026C117.266 61.2963 117.493 61.1105 117.721 60.9042C118.051 60.6359 118.361 60.3676 118.63 60.1406C118.878 59.9342 119.105 59.7691 119.291 59.6453C119.704 59.377 120.221 59.0881 120.613 59.3357C120.696 59.3976 120.841 59.5008 120.923 59.7072C121.192 60.3676 120.469 61.255 119.911 61.8535L119.89 61.8741L119.849 61.9154C119.663 62.1217 119.477 62.3281 119.27 62.5345C118.402 63.4425 117.514 64.3712 116.625 65.2792C116.563 65.3205 116.522 65.3205 116.481 65.3205Z" fill="black"/>
<path d="M110.84 66.8889C110.819 66.8889 110.799 66.8889 110.778 66.8683C110.695 66.827 110.675 66.7445 110.695 66.6619C111.005 66.0015 111.336 65.3412 111.729 64.7427C112.617 63.36 113.526 61.9154 115.159 61.2137C115.427 61.0899 115.84 60.9661 116.667 60.6772C117.328 60.4502 117.989 60.2644 118.651 60.0787C118.733 60.058 118.816 60.0993 118.836 60.1819C118.857 60.2644 118.816 60.347 118.733 60.3676C118.093 60.5533 117.431 60.7597 116.791 60.9661C115.964 61.2344 115.551 61.3788 115.303 61.482C113.753 62.163 112.865 63.5664 111.997 64.9078C111.625 65.5062 111.274 66.1254 110.985 66.7858C110.943 66.8477 110.881 66.8889 110.84 66.8889Z" fill="black"/>
<path d="M110.902 66.5793C112.658 68.3541 114.435 70.1083 116.191 71.8831C115.943 72.0895 115.716 72.3165 115.468 72.5228C113.919 70.5829 112.39 68.6637 110.84 66.7238C110.861 66.6825 110.881 66.6413 110.902 66.5793Z" fill="black"/>
<path d="M119.332 59.7897C119.126 59.9136 118.919 60.0787 118.692 60.2644V60.2231L118.134 57.4578C118.237 57.4578 118.361 57.4371 118.485 57.4165C118.609 57.3958 118.733 57.3546 118.836 57.3133C119.022 58.1388 119.188 58.9643 119.332 59.7897Z" fill="black"/>
<path d="M120.221 64.1648L119.518 64.3093L119.146 62.4519C119.353 62.2456 119.56 62.0186 119.766 61.8122L120.221 64.1648Z" fill="black"/>
<path d="M118.299 57.6641C118.258 57.6641 118.216 57.6435 118.196 57.6229C117.783 57.2101 117.617 56.7355 117.783 56.4465C117.803 56.4053 117.948 56.1989 118.175 56.1576C118.361 56.137 118.506 56.2195 118.568 56.2608C118.836 56.4465 118.96 56.9006 118.857 57.4371C118.836 57.5197 118.754 57.5816 118.671 57.5609C118.588 57.5403 118.526 57.4578 118.547 57.3752C118.63 56.9625 118.568 56.6323 118.402 56.5084C118.382 56.4878 118.299 56.4465 118.216 56.4465C118.113 56.4672 118.051 56.5704 118.031 56.5704C117.948 56.7148 118.072 57.045 118.402 57.3752C118.464 57.4371 118.464 57.5403 118.402 57.6022C118.382 57.6435 118.34 57.6641 118.299 57.6641Z" fill="black"/>
<path d="M68.9366 173.088L55.5886 171.602C55.5473 171.602 55.5059 171.581 55.4853 171.54C55.4646 171.499 55.444 171.457 55.4646 171.416L73.4617 110.846C73.4824 110.763 73.565 110.722 73.6477 110.743C73.7303 110.763 73.7716 110.846 73.751 110.929L55.8159 171.313L68.854 172.757C73.1104 160.85 77.4289 148.756 81.7061 136.849C84.8881 127.975 88.1115 118.977 91.3142 110.124C91.3348 110.041 91.4381 110 91.5208 110.021C91.6034 110.041 91.6448 110.144 91.6241 110.227C88.4421 119.08 85.198 128.078 82.016 136.952C77.7388 148.901 73.3997 161.035 69.1226 172.984C69.0606 173.046 68.9986 173.088 68.9366 173.088Z" fill="black"/>
<path d="M60.4028 171.911C60.3822 171.911 60.3615 171.911 60.3615 171.911C60.2789 171.891 60.2375 171.787 60.2582 171.705L81.1894 110.64C81.21 110.557 81.3133 110.516 81.396 110.536C81.4786 110.557 81.52 110.66 81.4993 110.743L60.5475 171.808C60.5268 171.87 60.4648 171.911 60.4028 171.911Z" fill="black"/>
<path d="M122.618 182.189C122.515 180.971 122.184 179.341 120.965 178.123C119.436 176.596 117.473 176.72 113.444 176.059C111.791 175.791 109.476 175.337 106.708 174.532C106.522 173.934 106.336 173.335 106.129 172.716C107.39 172.572 108.423 172.468 108.919 172.427C105.922 151.522 102.906 130.616 99.9097 109.711C97.0789 109.855 94.2688 110.02 91.438 110.165L85.2393 126.943C88.9998 142.627 92.7604 158.332 96.521 174.016C96.8103 173.954 97.2442 173.892 97.7401 173.81C98.3806 176.555 99.0005 179.299 99.6411 182.044C107.307 182.085 114.973 182.127 122.618 182.189Z" fill="black"/>
<path d="M78.7927 118.172C78.7101 118.172 78.6274 118.11 78.6274 118.007C78.6274 117.904 78.6894 117.842 78.7927 117.842C79.7019 117.842 82.8426 117.636 85.1155 115.056C86.6445 113.322 87.0164 111.362 87.0991 110.33C87.0991 110.248 87.1817 110.186 87.2644 110.186C87.347 110.186 87.409 110.268 87.409 110.351C87.3057 111.403 86.9131 113.446 85.3428 115.242C83.0079 117.966 79.7432 118.172 78.7927 118.172Z" fill="black"/>
<path fill-rule="evenodd" clip-rule="evenodd" d="M116.543 57.272C116.853 57.6848 117.555 58.3039 118.341 58.3039C118.444 58.3039 118.526 58.3039 118.609 58.2832C119.56 58.0975 120.035 56.9831 120.179 56.3433C120.51 54.8368 119.456 53.0208 117.493 51.7413C117.431 51.7 117.328 51.7206 117.287 51.7825C115.902 53.8669 115.613 56.0338 116.543 57.272ZM116.811 57.0656C115.964 55.9719 116.233 54.0113 117.473 52.0715C119.229 53.289 120.179 54.9194 119.911 56.2402C119.787 56.7767 119.374 57.7879 118.568 57.953C117.824 58.1181 117.121 57.4577 116.811 57.0656Z" fill="black"/>
<path fill-rule="evenodd" clip-rule="evenodd" d="M117.163 57.6022C117.369 57.8705 117.845 58.3038 118.382 58.3038H118.547C119.208 58.1594 119.539 57.4164 119.622 56.9831C119.849 55.9718 119.146 54.7543 117.845 53.9081C117.783 53.8669 117.679 53.8875 117.638 53.9494C116.729 55.3321 116.543 56.7767 117.163 57.6022ZM117.411 57.4371C116.873 56.7354 117.039 55.4972 117.824 54.259C118.94 55.0225 119.518 56.0544 119.332 56.9212C119.27 57.2513 119.002 57.8911 118.506 57.9943C118.051 58.0975 117.597 57.6641 117.411 57.4371Z" fill="black"/>
<path d="M83.8962 51.9064C83.9789 52.8969 84.0615 53.8669 84.1442 54.8575C84.1029 54.94 83.297 55.3528 83.1937 55.3321C83.1317 55.1464 82.9871 54.8162 82.6565 54.5066C82.5532 54.4034 82.0986 54.0113 81.3961 53.9494C81.3961 53.9494 80.6935 53.8875 80.0117 54.3415C79.9704 54.3622 79.9497 54.3828 79.9084 54.4034C79.7431 54.5273 79.6397 54.6305 79.5984 54.6511C79.5158 54.7336 78.586 55.7861 79.0199 57.0656C79.2678 57.8086 79.867 58.2832 80.4043 58.4896C80.5489 58.5515 80.6729 58.5721 80.7555 58.5928C80.9002 59.1706 81.1068 59.9961 81.2308 60.5739C81.3961 61.2343 81.5614 61.8947 81.706 62.5551H80.5489C80.5282 61.8122 80.5076 61.0692 80.4869 60.3263C79.8257 59.7691 78.4413 58.4277 78.0281 56.3227C77.3669 53.062 79.1645 48.8521 82.7598 47.944C84.8261 47.4281 86.7477 48.171 88.2354 49.3267C86.6444 50.2967 83.8962 51.9064 83.8962 51.9064Z" fill="black"/>
<path d="M81.2309 58.9643C81.0243 58.9643 80.797 58.9436 80.5904 58.9024C80.5077 58.8817 80.4457 58.7992 80.4664 58.7166C80.4871 58.6341 80.5697 58.5722 80.6524 58.5928C80.921 58.6547 81.2103 58.6754 81.4789 58.6341C81.6648 58.6134 81.8508 58.5722 82.0368 58.5103C82.1194 58.4896 82.2021 58.5309 82.2434 58.6134C82.264 58.696 82.2227 58.7785 82.1401 58.8198C81.9334 58.8817 81.7268 58.9436 81.5202 58.9643C81.4169 58.9436 81.3342 58.9643 81.2309 58.9643Z" fill="black"/>
<path d="M88.3387 66.2079C88.2561 66.2079 88.1941 66.146 88.1941 66.0841C88.1941 66.0222 88.1734 65.9396 88.1734 65.8571V65.8364C88.0701 65.0522 87.8635 63.3187 87.7395 62.0392C87.6775 61.5439 87.6362 61.1105 87.6155 60.8422C87.6155 60.7597 87.6775 60.6771 87.7602 60.6771C88.0081 60.6565 88.2561 60.6152 88.4834 60.5533C89.3305 60.3469 90.0537 59.9548 90.5703 59.4389C92.4712 57.4577 91.5208 53.8462 90.467 52.0302C89.9091 51.0809 89.1239 50.1728 88.2148 49.4712C87.3883 48.8108 86.5204 48.3774 85.6113 48.1298C84.7021 47.8821 83.7723 47.8821 82.8838 48.1091C79.3505 49.0172 77.6355 53.1446 78.2761 56.3021C78.648 58.1594 79.8051 59.4595 80.6936 60.2231C80.7349 60.2438 80.7556 60.285 80.7556 60.3469C80.7762 60.801 80.7969 62.1217 80.8176 62.5758C80.8382 63.1742 80.8589 64.3712 80.8795 65.1348V65.403C80.8795 65.4856 80.8176 65.5681 80.7349 65.5681C80.6523 65.5681 80.5696 65.5062 80.5696 65.4237V65.1554C80.5489 64.4125 80.5283 63.2155 80.5076 62.5964C80.5076 62.163 80.4663 60.9454 80.4456 60.4295C79.5158 59.6246 78.3794 58.3039 77.9868 56.3846C77.3049 53.0827 79.1232 48.7695 82.8218 47.8202C83.7723 47.5726 84.7434 47.5932 85.7146 47.8408C86.6444 48.0885 87.5536 48.5425 88.4214 49.2235C89.3512 49.9458 90.1777 50.8745 90.7562 51.8651C91.8514 53.7637 92.8432 57.5403 90.8182 59.6453C90.2603 60.2231 89.4958 60.6359 88.5867 60.8629C88.3801 60.9041 88.1941 60.9454 87.9875 60.9661C88.0081 61.2343 88.0495 61.6058 88.0908 61.9979C88.2354 63.2774 88.4214 65.0109 88.5247 65.7951V65.8364C88.5454 65.919 88.5454 66.0015 88.5454 66.0428C88.566 66.1253 88.504 66.2079 88.4214 66.2285C88.3594 66.2079 88.3387 66.2079 88.3387 66.2079Z" fill="black"/>
<path d="M88.4831 60.6772C88.2558 60.7184 88.0079 60.7803 87.7393 60.801C87.7599 61.0486 87.8013 61.482 87.8633 61.9979C87.1194 61.7709 86.1069 61.3582 85.1565 60.5121C84.6606 60.058 84.2886 59.604 84.02 59.1913C84.4746 59.604 85.6524 60.5533 87.3054 60.6359C87.7599 60.6565 88.1525 60.5946 88.5038 60.5327C88.5038 60.574 88.5038 60.6359 88.4831 60.6772Z" fill="black"/>
<path d="M55.2372 182.106C55.1959 182.106 55.1339 182.085 55.1132 182.044C55.0925 182.003 55.0719 181.962 55.0925 181.9L55.9397 178.783C56.5802 176.41 57.2414 174.037 57.882 171.643C57.9027 171.56 57.9853 171.519 58.068 171.54C58.1506 171.56 58.1919 171.643 58.1713 171.726C57.5307 174.099 56.8695 176.472 56.229 178.866L55.4438 181.776L78.9371 181.631C79.0818 180.496 78.8958 179.588 78.3999 178.907C77.5941 177.793 76.1477 177.607 73.7508 177.318C73.1516 177.236 72.4904 177.153 71.7672 177.05C69.5977 176.74 67.5107 176.307 65.3825 175.75C65.3412 175.729 65.2998 175.709 65.2792 175.688C65.2585 175.647 65.2585 175.605 65.2585 175.564L66.0644 172.572C66.085 172.489 66.1677 172.448 66.2503 172.468C66.333 172.489 66.3743 172.572 66.3536 172.654L65.5891 175.502C67.6554 176.039 69.701 176.451 71.7879 176.761C72.5111 176.864 73.1929 176.947 73.7715 177.029C76.251 177.339 77.7387 177.525 78.6272 178.742C79.1851 179.526 79.371 180.558 79.1851 181.838C79.1644 181.92 79.1024 181.962 79.0404 181.962L55.2372 182.106Z" fill="black"/>
<path d="M78.9992 179.96C72.7177 179.939 61.374 179.919 55.8364 179.939V179.63C61.374 179.609 72.7177 179.63 78.9992 179.65C79.0818 179.65 79.1438 179.712 79.1438 179.815C79.1438 179.919 79.0818 179.96 78.9992 179.96Z" fill="black"/>
<path d="M57.8408 172.427C60.5063 172.943 63.1924 173.459 65.8579 173.954C65.9819 173.521 66.1058 173.067 66.2505 172.634C63.5024 172.345 60.7749 172.056 58.0268 171.787C57.9648 171.994 57.9028 172.2 57.8408 172.427Z" fill="black"/>
<path d="M112.142 82.9652C111.914 83.4811 111.687 83.9764 111.481 84.4305C105.86 96.7095 103.381 97.762 101.872 97.7827C100.674 97.8033 99.6822 97.1636 99.021 96.627C99.6822 100.94 100.323 105.274 100.984 109.587C100.653 109.608 100.302 109.628 99.9715 109.649L98.959 109.711C96.2935 109.855 93.6487 110.02 90.9833 110.165C87.6979 110.351 84.3919 110.536 81.1066 110.722C78.5651 110.867 76.0442 110.99 73.5027 111.135C73.0482 111.156 72.5936 111.176 72.1597 111.217C73.1308 102.323 73.8333 95.3888 74.2259 91.3645C75.6723 76.6503 75.8376 68.2922 80.6726 65.1141C80.7553 65.0522 80.8379 65.0109 80.9206 64.949C81.5198 64.5775 82.7802 63.8759 84.4126 63.9171C84.9911 63.9378 85.5283 64.041 86.0656 64.268C86.8094 64.5775 87.5119 65.0728 88.2971 65.8158C89.9915 67.4461 91.9751 70.1908 94.9298 74.4627C95.4877 75.2882 96.0456 76.0724 96.5621 76.836C98.4838 79.6426 100.157 82.1191 101.5 84.1209C102.534 82.0985 103.567 80.076 104.621 78.0329" fill="#FF735A"/>
<path d="M104.621 78.0329C105.282 76.7534 105.922 75.4946 106.584 74.2151C107.927 71.6148 109.27 69.0351 110.613 66.4761C111.625 67.7556 112.638 69.0351 113.671 70.3353C114.477 71.3259 115.262 72.3164 116.047 73.2864C114.642 77.1249 113.278 80.4062 112.121 82.9858" fill="#FF735A"/>
<path d="M82.8833 81.3555C84.7016 83.8939 86.7472 86.5354 89.0614 89.2389C92.636 93.4076 96.19 96.9985 99.5373 100.032C99.3927 98.8558 99.248 97.6795 99.1034 96.5238C96.6032 94.6252 93.9584 92.4377 91.2516 89.9406C88.0283 86.9895 85.2595 84.0796 82.8833 81.3555Z" fill="black"/>
</g>
</svg>
