<svg width="190" height="190" viewBox="0 0 190 190" fill="none" xmlns="http://www.w3.org/2000/svg">
<mask id="mask0" mask-type="alpha" maskUnits="userSpaceOnUse" x="0" y="0" width="190" height="190">
<rect width="190" height="190" fill="white"/>
</mask>
<g mask="url(#mask0)">
<path d="M5.66072 149.668C3.92786 149.668 2.09872 148.341 0.211818 145.705C0.17331 145.647 0.17331 145.551 0.250326 145.512C0.308088 145.474 0.404359 145.474 0.442867 145.551C2.32977 148.187 4.13965 149.476 5.81476 149.379C7.1818 149.303 8.1445 148.379 9.14571 147.379C10.1662 146.378 11.2059 145.339 12.727 145.281C14.4213 145.205 16.1927 146.34 17.9641 148.648C18.0218 148.706 18.0026 148.802 17.9448 148.86C17.8871 148.918 17.7908 148.898 17.733 148.841C16.0194 146.609 14.3443 145.512 12.7462 145.589C11.3214 145.666 10.3587 146.609 9.33825 147.609C8.33704 148.591 7.29732 149.61 5.81476 149.687C5.7955 149.668 5.71849 149.668 5.66072 149.668Z" fill="black"/>
<path d="M187.15 134.854C185.648 134.854 184.088 133.719 182.471 131.468C182.433 131.41 182.433 131.314 182.51 131.275C182.567 131.237 182.664 131.237 182.702 131.314C184.3 133.565 185.86 134.661 187.285 134.584C188.459 134.527 189.268 133.719 190.115 132.872C190.981 132.006 191.886 131.121 193.196 131.064C194.659 130.987 196.161 131.968 197.682 133.95C197.74 134.007 197.72 134.103 197.663 134.161C197.605 134.219 197.509 134.2 197.451 134.142C195.987 132.237 194.563 131.295 193.196 131.371C191.983 131.429 191.174 132.237 190.308 133.103C189.46 133.95 188.575 134.815 187.285 134.892C187.246 134.854 187.188 134.854 187.15 134.854Z" fill="black"/>
<path d="M30.8258 15.4547C28.3806 15.4547 25.8005 13.5692 23.1435 9.85605C23.105 9.79833 23.105 9.70213 23.182 9.66366C23.2397 9.62518 23.336 9.62518 23.3745 9.70213C26.0508 13.473 28.6501 15.3008 31.0761 15.1661C33.0593 15.0507 34.4071 13.7231 35.8512 12.3187C37.276 10.9142 38.7585 9.45202 40.915 9.33659C43.3025 9.22115 45.7863 10.818 48.2893 14.0887C48.3471 14.1464 48.3278 14.2426 48.27 14.3003C48.2123 14.358 48.116 14.3388 48.0582 14.2811C45.613 11.0874 43.2062 9.52898 40.9342 9.64442C38.8933 9.74061 37.4492 11.1643 36.063 12.5303C34.6574 13.9155 33.1941 15.3585 31.1147 15.4739C30.9991 15.4547 30.9221 15.4547 30.8258 15.4547Z" fill="black"/>
<path d="M182.439 54.4609L185.21 56.9631L182.706 59.7326L179.934 57.2303L182.439 54.4609Z" fill="#FFD6D3"/>
<path d="M173.037 168.946C174.536 168.946 175.751 167.731 175.751 166.233C175.751 164.735 174.536 163.52 173.037 163.52C171.537 163.52 170.322 164.735 170.322 166.233C170.322 167.731 171.537 168.946 173.037 168.946Z" fill="#FFD6D3"/>
<path d="M11.0901 40.6966C12.0153 40.6966 12.7653 39.9472 12.7653 39.0228C12.7653 38.0984 12.0153 37.349 11.0901 37.349C10.165 37.349 9.41504 38.0984 9.41504 39.0228C9.41504 39.9472 10.165 40.6966 11.0901 40.6966Z" fill="#FFD6D3"/>
<path d="M72.9155 15.8779C74.1171 15.8779 75.0912 14.9046 75.0912 13.7039C75.0912 12.5032 74.1171 11.5298 72.9155 11.5298C71.7138 11.5298 70.7397 12.5032 70.7397 13.7039C70.7397 14.9046 71.7138 15.8779 72.9155 15.8779Z" fill="#FFD6D3"/>
<path fill-rule="evenodd" clip-rule="evenodd" d="M29.5165 57.2232C29.9208 57.4733 30.3829 57.5888 30.845 57.5888C31.7885 57.5888 32.6742 57.1078 33.1748 56.242C33.9064 54.9722 33.4828 53.3176 32.1928 52.5865C30.9221 51.8554 29.2662 52.298 28.5345 53.5677C27.8029 54.8375 28.2265 56.4921 29.5165 57.2232ZM28.7848 53.7217C29.2277 52.9521 30.0364 52.5288 30.8643 52.5288C31.2686 52.5288 31.673 52.625 32.058 52.8367C33.2133 53.4908 33.5984 54.9722 32.9437 56.1073C32.2891 57.2617 30.8065 57.6465 29.6705 56.9923C28.5153 56.3382 28.1302 54.8568 28.7848 53.7217Z" fill="black"/>
<path fill-rule="evenodd" clip-rule="evenodd" d="M189.653 11.7222C189.787 11.7992 189.941 11.8377 190.076 11.8377C190.365 11.8377 190.654 11.6838 190.789 11.4144C191.02 11.0104 190.885 10.5102 190.481 10.2793C190.076 10.0484 189.576 10.1831 189.345 10.5871C189.114 10.9911 189.248 11.4914 189.653 11.7222ZM189.807 11.4914C189.556 11.3374 189.46 10.9911 189.614 10.741C189.768 10.4717 190.096 10.3755 190.346 10.5486C190.596 10.7025 190.692 11.0489 190.538 11.299C190.461 11.4144 190.346 11.5106 190.211 11.5491C190.076 11.5876 189.941 11.5683 189.807 11.4914Z" fill="black"/>
<path d="M104.085 136.376C101.177 142.303 95.341 146.613 88.2723 147.268C78.9695 148.134 70.5719 142.341 67.7983 133.836L74.4818 129.506C73.981 125.696 72.5942 121.059 70.283 116.671C73.4609 112.034 78.6035 108.801 84.6513 108.243C92.7215 107.492 100.118 111.745 103.739 118.461C102.101 124.349 102.602 130.873 104.085 136.376Z" fill="black"/>
<path d="M74.4816 129.487L67.7981 133.817C67.3551 132.451 67.047 131.027 66.9122 129.545C66.4692 124.792 67.7596 120.289 70.2828 116.633C72.594 121.039 74 125.677 74.4816 129.487Z" fill="#009691"/>
<path d="M122.422 125.85L119.706 126.081C118.666 130.488 116.123 134.74 115.122 139.994C114.91 141.052 114.775 142.13 114.717 143.207L106.455 142.842C105.549 140.975 104.721 138.782 104.085 136.395C105.626 133.259 106.358 129.68 106.012 125.946C105.761 123.233 104.971 120.712 103.739 118.442C103.854 118.037 103.97 117.653 104.105 117.248C105.723 112.399 108.669 108.666 110.21 104.606C111.077 102.316 111.501 99.9296 110.981 97.1971C110.961 97.1394 110.961 97.0624 110.942 96.9854C110.499 94.8302 109.151 91.4819 110.538 87.7487C111.154 86.0938 112.676 83.419 114.448 83.5152C116.605 83.6307 117.76 87.8257 117.838 88.0758C118.878 91.963 117.221 95.1958 116.605 97.2356C116.586 97.2933 116.566 97.3703 116.547 97.428C115.796 100.122 115.988 102.527 116.624 104.875C116.932 106.01 117.356 107.146 117.818 108.281C117.799 108.397 117.76 108.493 117.741 108.589C116.797 112.63 118.666 115.921 119.417 118.095C119.436 118.172 119.455 118.23 119.494 118.307L121.593 118.134C122.229 120.654 122.46 123.252 122.422 125.85Z" fill="#009691"/>
<path d="M110.21 104.606C111.077 102.316 111.501 99.9297 110.981 97.1971L116.547 97.4473C115.796 100.141 115.989 102.547 116.624 104.894L110.21 104.606Z" fill="black"/>
<path d="M122.422 125.85C122.325 132.45 120.361 138.916 117.992 143.342L114.717 143.188C114.794 142.111 114.929 141.033 115.122 139.975C116.123 134.74 118.666 130.468 119.706 126.062L122.422 125.85Z" fill="black"/>
<path fill-rule="evenodd" clip-rule="evenodd" d="M114.717 143.342L118.011 143.496C118.049 143.496 118.107 143.458 118.126 143.419C120.823 138.377 122.479 131.815 122.576 125.85C122.576 125.792 122.576 125.754 122.537 125.735C122.499 125.715 122.46 125.696 122.422 125.696L119.706 125.927C119.629 125.946 119.59 125.985 119.571 126.043C119.109 128.005 118.358 129.91 117.549 131.95L117.545 131.96C116.564 134.458 115.545 137.053 114.987 139.955C114.794 140.994 114.66 142.091 114.583 143.188C114.583 143.234 114.595 143.255 114.609 143.282C114.613 143.288 114.617 143.296 114.621 143.304C114.64 143.323 114.679 143.342 114.717 143.342ZM117.915 143.188L114.871 143.053C114.948 142.014 115.083 140.994 115.295 140.013C115.827 137.185 116.827 134.638 117.797 132.169C117.811 132.134 117.824 132.1 117.838 132.066C118.627 130.064 119.378 128.159 119.841 126.216L122.287 126.004C122.171 131.854 120.534 138.262 117.915 143.188Z" fill="black"/>
<path d="M121.613 118.134L119.513 118.307C119.494 118.23 119.475 118.172 119.436 118.095C118.685 115.921 116.836 112.649 117.761 108.589C117.78 108.493 117.818 108.377 117.838 108.281C119.089 111.283 120.669 114.381 121.593 118.018C121.593 118.076 121.593 118.095 121.613 118.134Z" fill="black"/>
<path fill-rule="evenodd" clip-rule="evenodd" d="M119.359 118.365C119.378 118.422 119.436 118.461 119.494 118.461L121.612 118.249C121.651 118.249 121.689 118.23 121.709 118.191C121.728 118.153 121.728 118.114 121.728 118.076L121.709 117.98C121.041 115.291 119.995 112.905 118.982 110.596L118.954 110.533C118.862 110.322 118.769 110.114 118.678 109.908C118.426 109.342 118.179 108.788 117.953 108.223C117.934 108.166 117.876 108.127 117.818 108.127C117.76 108.146 117.703 108.185 117.683 108.243C117.672 108.309 117.655 108.376 117.638 108.438C117.626 108.485 117.614 108.529 117.606 108.57C116.825 111.92 117.948 114.762 118.774 116.853C118.782 116.876 118.791 116.899 118.8 116.921C118.993 117.364 119.147 117.768 119.282 118.153L119.359 118.365ZM119.068 116.751C118.261 114.717 117.17 111.966 117.876 108.743L117.876 108.743C118.146 109.378 118.415 110.013 118.723 110.667L118.752 110.733C119.745 113.003 120.771 115.35 121.439 117.999L119.609 118.153L119.571 118.057C119.469 117.767 119.346 117.455 119.217 117.129C119.175 117.023 119.132 116.915 119.089 116.806L119.068 116.751Z" fill="black"/>
<path fill-rule="evenodd" clip-rule="evenodd" d="M120.938 166.203C120.957 166.241 120.996 166.261 121.054 166.261L133.13 165.222C133.188 165.222 133.226 165.183 133.246 165.125C135.692 158.679 137.213 147.787 133.496 138.358C132.458 135.728 131.098 133.472 129.779 131.282C129.727 131.197 129.676 131.112 129.625 131.027C129.587 130.965 129.55 130.903 129.512 130.842C128.398 129.005 127.345 127.271 126.581 125.446C125.464 122.81 125.118 120.385 125.484 117.826C125.493 117.787 125.498 117.754 125.503 117.72C125.508 117.686 125.512 117.653 125.522 117.614C125.568 117.311 125.637 116.984 125.712 116.633C125.732 116.538 125.752 116.442 125.772 116.344L125.776 116.329C126.238 114.118 126.867 111.103 125.541 107.877C125.503 107.742 125.021 106.626 124.27 105.549C123.269 104.144 122.267 103.451 121.265 103.528C119.07 103.701 117.953 107.492 117.76 108.243C117.741 108.281 117.741 108.3 117.76 108.339C117.901 108.662 118.042 108.99 118.185 109.32C118.373 109.757 118.564 110.199 118.762 110.648L118.79 110.714C119.783 112.984 120.81 115.331 121.477 117.98L119.532 118.153C119.474 118.153 119.436 118.191 119.416 118.211C119.397 118.23 119.378 118.288 119.397 118.326C120.206 120.77 120.264 123.214 119.609 126.023C119.609 126.081 119.609 126.12 119.648 126.158C119.667 126.197 119.725 126.216 119.763 126.216L122.306 126.004C122.19 131.854 120.553 138.262 117.933 143.188L114.736 143.054C114.659 143.054 114.582 143.111 114.582 143.188C113.966 152.136 117.452 160.93 120.938 166.203ZM121.131 165.972C117.722 160.757 114.293 152.117 114.852 143.342L117.972 143.496C118.03 143.496 118.087 143.477 118.107 143.419C120.803 138.377 122.46 131.816 122.556 125.85C122.556 125.792 122.556 125.754 122.517 125.735C122.479 125.715 122.44 125.696 122.402 125.696L119.898 125.908C120.514 123.195 120.437 120.808 119.686 118.422L121.612 118.249C121.651 118.249 121.689 118.23 121.708 118.191C121.728 118.153 121.728 118.114 121.728 118.076L121.708 117.98C121.04 115.291 119.994 112.905 118.982 110.596L118.954 110.533C118.891 110.389 118.828 110.247 118.766 110.106C118.489 109.476 118.224 108.876 117.972 108.262C118.492 106.28 119.667 103.932 121.208 103.817C122.306 103.74 123.307 104.798 123.943 105.722C124.694 106.799 125.175 107.935 125.195 107.993C126.504 111.148 125.888 114.112 125.426 116.286C125.413 116.347 125.4 116.408 125.388 116.469C125.305 116.864 125.225 117.242 125.175 117.576C125.165 117.606 125.16 117.642 125.155 117.681C125.151 117.715 125.146 117.751 125.137 117.787C124.771 120.404 125.118 122.867 126.254 125.562C127.062 127.463 128.157 129.269 129.311 131.171L129.316 131.181L129.39 131.302C130.735 133.516 132.128 135.809 133.168 138.474C136.597 147.191 135.538 158.044 132.957 164.952L121.131 165.972Z" fill="black"/>
<path fill-rule="evenodd" clip-rule="evenodd" d="M119.609 126.177C119.647 126.216 119.686 126.235 119.725 126.235L126.427 125.658C126.485 125.639 126.523 125.619 126.543 125.581C126.562 125.542 126.562 125.485 126.543 125.446C125.426 122.81 125.079 120.385 125.445 117.826C125.445 117.787 125.445 117.749 125.406 117.71C125.387 117.691 125.329 117.672 125.291 117.672L119.493 118.172C119.436 118.172 119.397 118.211 119.378 118.23C119.359 118.249 119.339 118.307 119.359 118.345C120.168 120.789 120.225 123.233 119.57 126.043C119.57 126.1 119.57 126.139 119.609 126.177ZM119.898 125.927C120.514 123.214 120.437 120.828 119.686 118.442L125.117 117.98C124.79 120.462 125.117 122.829 126.177 125.388L119.898 125.927Z" fill="black"/>
<path d="M57.706 184.676L44.8977 184.542C41.1612 177.499 38.4262 166.107 41.3152 156.312C42.9139 150.886 46.0341 146.633 47.5942 142.072C48.4609 139.513 48.8461 136.857 48.1527 133.836C48.1335 133.759 48.1142 133.682 48.095 133.605C47.5171 131.238 45.8993 127.563 47.3053 123.387C47.6712 122.29 48.3646 120.789 49.2891 119.75C50.8877 123.118 53.1605 126.177 55.6836 128.794C55.3755 130.757 54.7013 132.431 54.3739 133.682C54.3546 133.759 54.3354 133.836 54.3161 133.913C53.5842 136.915 53.8731 139.571 54.6821 142.168C56.1074 146.729 59.0928 151.039 60.6529 156.543C63.5227 166.357 61.1344 177.71 57.706 184.676Z" fill="#009691"/>
<path d="M47.5942 142.072C48.461 139.513 48.8462 136.857 48.1528 133.836L54.3354 133.894C53.6035 136.896 53.8924 139.551 54.7014 142.149L47.5942 142.072Z" fill="black"/>
<path d="M55.7221 128.775C53.1798 126.158 50.907 123.098 49.3276 119.731C49.9632 119.019 50.6951 118.519 51.5041 118.538C53.9117 118.595 55.3369 123.175 55.4332 123.464C55.9918 125.388 55.9725 127.178 55.7221 128.775Z" fill="black"/>
<path fill-rule="evenodd" clip-rule="evenodd" d="M55.6259 128.891C55.6451 128.91 55.6836 128.929 55.7222 128.929C55.7222 128.929 55.7414 128.929 55.7799 128.91C55.8377 128.891 55.8762 128.852 55.8762 128.794C56.1844 126.87 56.0881 125.119 55.5681 123.426C55.5103 123.233 54.0272 118.461 51.5041 118.403C50.7144 118.384 49.9633 118.807 49.2121 119.654C49.1736 119.692 49.1736 119.75 49.1928 119.808C50.6952 122.983 52.8716 126.043 55.6259 128.891ZM55.6066 128.486C52.9872 125.735 50.9263 122.81 49.4817 119.769C50.1559 119.038 50.8107 118.672 51.4848 118.692C53.7961 118.749 55.2214 123.329 55.2792 123.522C55.7414 125.1 55.857 126.716 55.6066 128.486Z" fill="black"/>
<path d="M64.7936 135.914C64.7744 135.914 64.7551 135.914 64.7166 135.895C61.5771 134.182 58.3221 131.7 55.5871 128.871C55.5486 128.833 55.5486 128.794 55.5486 128.756C55.8567 126.87 55.7604 125.157 55.2597 123.503C55.2019 123.31 53.7766 118.73 51.4653 118.673C50.7719 118.653 50.0786 119.038 49.4044 119.827C49.3659 119.866 49.3274 119.885 49.2696 119.866C49.2311 119.866 49.1733 119.827 49.1541 119.789C48.6148 118.653 48.1718 117.518 47.8251 116.383C46.9776 113.669 46.6694 111.014 46.3805 108.454C46.1494 106.376 45.9183 104.413 45.4175 102.547C44.7049 99.872 43.5492 97.8515 41.758 96.1388C41.7002 96.1003 41.6617 96.0426 41.6039 96.0041C41.315 95.7347 40.9876 95.4653 40.6409 95.1767C38.9845 93.7912 36.7117 91.8668 35.845 88.6532C35.3828 86.9406 35.0168 83.7847 36.6154 82.7841C38.503 81.591 41.835 84.2273 42.201 84.5352C44.8012 86.6712 45.6294 89.5192 46.2265 91.5782C46.342 92.0015 46.4768 92.4057 46.5924 92.752C46.6117 92.829 46.6309 92.8867 46.6694 92.9445C47.5169 95.2729 48.9037 97.1587 51.0416 98.8906C52.5632 100.122 54.2966 101.161 56.1456 102.239C58.3221 103.528 60.5948 104.875 62.7328 106.703C65.7182 109.243 68.2991 112.572 70.3985 116.575C70.437 116.652 70.4177 116.729 70.3407 116.767C70.2636 116.806 70.1866 116.787 70.1481 116.71C68.0679 112.746 65.5063 109.455 62.5402 106.934C60.4215 105.125 58.168 103.798 55.9916 102.508C54.1426 101.411 52.4091 100.372 50.8683 99.1407C48.6918 97.3704 47.2665 95.4461 46.4191 93.0599C46.3998 93.0022 46.3805 92.9252 46.342 92.8675C46.2265 92.5019 46.0916 92.0978 45.9761 91.6744C45.379 89.6346 44.57 86.8444 42.0469 84.7661C41.9121 84.6507 38.5607 81.9181 36.7888 83.0342C35.9991 83.5346 35.8065 84.6507 35.768 85.4974C35.7294 86.421 35.8643 87.5756 36.1532 88.5955C37.0006 91.7321 39.2156 93.5987 40.8528 94.965C41.1994 95.2536 41.5269 95.5423 41.8158 95.8117C41.8736 95.8694 41.9121 95.9079 41.9699 95.9656C43.7996 97.7168 44.9938 99.795 45.7064 102.508C46.2072 104.394 46.4383 106.376 46.6694 108.454C46.9584 111.014 47.2665 113.65 48.0947 116.325C48.4222 117.383 48.8459 118.442 49.3274 119.5C50.0208 118.769 50.7334 118.403 51.4653 118.422C52.5247 118.442 53.5262 119.269 54.4122 120.866C55.1056 122.079 55.4715 123.31 55.5293 123.445C56.0301 125.119 56.1456 126.851 55.8375 128.756C58.5147 131.508 61.6927 133.952 64.7551 135.626L67.6827 133.721C67.7405 133.682 67.8368 133.701 67.8753 133.759C67.9139 133.817 67.8946 133.913 67.8368 133.952L64.8322 135.895C64.8514 135.914 64.8322 135.914 64.7936 135.914Z" fill="black"/>
<path d="M45.5716 102.508C44.9552 100.141 43.8959 97.9669 41.8735 96.0426L46.5539 93.0022C47.4976 95.6385 49.0577 97.4858 50.9645 99.0061L45.5716 102.508Z" fill="black"/>
<path fill-rule="evenodd" clip-rule="evenodd" d="M75.2716 92.3094C75.7338 92.598 76.9472 93.3293 78.5266 93.3293C78.6614 93.3293 78.777 93.3293 78.9503 93.31C80.7739 93.1758 82.0044 92.105 82.6038 91.5834L82.6098 91.5781C84.1314 90.2504 86.3079 87.1522 87.4635 83.5153C89.1199 78.2426 87.7717 75.0675 86.3271 73.3164C84.4203 71.0072 81.2616 69.6987 78.257 69.9681C74.5397 70.3145 72.2669 72.9123 71.6506 73.7013C69.8016 76.0874 69.166 79.3972 69.8593 83.0534C70.6105 87.0368 72.8255 90.8469 75.2716 92.3094ZM78.2762 70.276C78.5266 70.2567 78.7963 70.2375 79.0466 70.2375C81.7046 70.2375 84.4011 71.4691 86.0767 73.5281C87.4635 75.2215 88.7732 78.3196 87.1553 83.4575C86.019 87.0368 83.881 90.0772 82.3787 91.3857C81.8202 91.886 80.626 92.9059 78.8926 93.0406C77.2361 93.1753 75.9649 92.4056 75.4257 92.0785C73.0566 90.6545 70.8802 86.9213 70.1483 83.0149C69.4741 79.4357 70.0905 76.2029 71.8817 73.8937C72.4595 73.124 74.6745 70.6031 78.2762 70.276Z" fill="black"/>
<path d="M78.7579 92.6365C81.0768 92.6365 82.9567 90.7583 82.9567 88.4415C82.9567 86.1246 81.0768 84.2465 78.7579 84.2465C76.439 84.2465 74.5591 86.1246 74.5591 88.4415C74.5591 90.7583 76.439 92.6365 78.7579 92.6365Z" fill="black"/>
<path d="M82.1283 70.7763C82.1091 70.7763 82.0898 70.7763 82.0898 70.7763C82.0128 70.7571 81.9742 70.6609 81.9935 70.6031C82.4172 69.3331 82.7447 68.0823 82.3595 66.639C82.0513 65.4845 81.146 63.4832 79.7208 63.4062C78.2377 63.3292 77.1206 65.3113 76.7161 66.3696C76.2539 67.6397 76.4079 68.7558 76.7546 70.4299C76.7739 70.5069 76.7161 70.5839 76.6391 70.6031C76.562 70.6224 76.485 70.5646 76.4657 70.4877C76.119 68.7558 75.9457 67.6204 76.4465 66.2734C76.8702 65.1381 78.0836 63.0213 79.74 63.1176C81.3386 63.2138 82.3209 65.3305 82.6484 66.5621C83.0528 68.0823 82.7061 69.3716 82.2632 70.6801C82.2439 70.7378 82.1861 70.7763 82.1283 70.7763Z" fill="black"/>
<path d="M76.4658 69.641C77.0436 69.4101 78.2378 69.006 79.7594 69.1599C80.9343 69.2946 81.8203 69.6988 82.3403 69.9874C82.2825 70.1798 82.2247 70.3723 82.167 70.5647C81.4736 70.3338 80.4528 70.0836 79.2008 70.0836C78.1608 70.0836 77.3133 70.2568 76.6777 70.43C76.6006 70.1606 76.5236 69.9104 76.4658 69.641Z" fill="black"/>
<path d="M20.4944 134.048C20.4366 134.048 20.3981 134.028 20.3596 133.971C20.3211 133.894 20.3403 133.817 20.4174 133.778L105.568 85.7282C105.645 85.6897 105.722 85.709 105.761 85.786C105.799 85.8629 105.78 85.9399 105.703 85.9784L20.5522 134.028C20.5329 134.028 20.5137 134.048 20.4944 134.048Z" fill="black"/>
<path d="M111.982 198.666C111.963 198.666 111.943 198.666 111.924 198.666C111.847 198.647 111.809 198.551 111.847 198.474C122.479 170.86 134.016 143.188 146.15 116.229C147.71 112.765 149.29 109.282 150.869 105.837C150.908 105.76 150.985 105.741 151.062 105.76C151.139 105.799 151.158 105.876 151.139 105.953C149.559 109.397 147.98 112.9 146.42 116.344C134.305 143.284 122.768 170.956 112.117 198.57C112.098 198.628 112.04 198.666 111.982 198.666Z" fill="black"/>
<path d="M127.179 22.3605C127.159 22.3605 127.14 22.3605 127.121 22.3413C127.044 22.3028 127.005 22.2258 127.044 22.1489C127.275 21.5908 128.508 18.7621 129.259 17.3958C129.394 17.1456 129.721 16.5683 130.222 16.5299C130.434 16.5106 130.723 16.6068 130.877 16.8378C131.108 17.2034 130.858 17.7037 130.742 17.9539C130.646 18.1655 130.549 18.358 130.453 18.5311C131.281 17.2611 131.666 16.8955 132.129 16.934C132.36 16.9532 132.591 17.0879 132.707 17.2803C132.976 17.7422 132.552 18.358 132.225 18.8583L131.936 19.3009C131.455 20.0321 130.992 20.7249 130.511 21.4561L130.453 21.5331C130.415 21.5908 130.318 21.61 130.26 21.5716C130.203 21.5331 130.183 21.4369 130.222 21.3791L130.26 21.3022L130.28 21.2829C130.761 20.5517 131.223 19.8589 131.705 19.1277L131.994 18.6851C132.264 18.281 132.649 17.7037 132.475 17.415C132.418 17.2996 132.264 17.2226 132.129 17.2034C131.782 17.1649 131.358 17.646 130.453 19.1084C130.241 19.4548 129.586 20.4939 129.374 20.8788C129.297 21.052 129.278 21.1097 129.182 21.1097C129.143 21.1097 129.124 21.0905 129.086 21.0712C128.989 20.9943 129.028 20.8981 129.124 20.7441L129.182 20.6094C129.374 20.1861 129.779 19.3009 130.511 17.7999C130.607 17.6267 130.819 17.2034 130.665 16.9725C130.588 16.857 130.434 16.78 130.26 16.7993C129.914 16.8185 129.644 17.2996 129.529 17.5113C128.777 18.8583 127.564 21.687 127.333 22.2451C127.275 22.322 127.237 22.3605 127.179 22.3605Z" fill="black"/>
<path d="M128.835 26.4593C128.796 26.4593 128.758 26.4401 128.739 26.4209C128.681 26.3631 128.681 26.2669 128.739 26.2092C130.626 24.2849 131.917 22.9763 132.88 22.0911L132.899 22.0719C133.207 21.7833 134.016 21.0328 133.843 20.5902C133.823 20.5132 133.766 20.4747 133.727 20.4362C133.457 20.3015 132.86 20.8596 132.36 21.3022C131.994 21.6486 131.628 22.0142 131.281 22.4183C131.223 22.476 131.146 22.4953 131.088 22.4375C131.031 22.399 131.011 22.3028 131.05 22.2451C131.551 21.4946 132.071 20.7634 132.591 20.0899L132.687 19.9552C133.111 19.4163 133.515 18.8968 133.361 18.6274C133.323 18.5504 133.226 18.4734 133.13 18.4734C132.822 18.4157 132.437 18.8968 131.84 19.6665C131.416 20.2246 130.973 20.8211 130.491 21.4561C130.453 21.5139 130.357 21.5331 130.279 21.4946C130.222 21.4561 130.202 21.3599 130.241 21.3022L130.26 21.2829C130.722 20.6479 131.185 20.0514 131.608 19.4933C132.321 18.5697 132.706 18.1078 133.188 18.1848C133.38 18.2233 133.554 18.3387 133.631 18.4927C133.862 18.916 133.419 19.4741 132.918 20.1283L132.822 20.263C132.649 20.494 132.475 20.7249 132.283 20.975C132.899 20.417 133.419 19.9744 133.843 20.1861C133.958 20.2438 134.055 20.3593 134.112 20.494C134.343 21.1097 133.496 21.8987 133.092 22.2836L133.072 22.3028C132.109 23.188 130.838 24.4965 128.951 26.4209C128.893 26.4401 128.873 26.4593 128.835 26.4593Z" fill="black"/>
<path d="M128.835 26.4593C128.816 26.4593 128.777 26.4593 128.758 26.4401L124.694 23.9192C124.636 23.8808 124.617 23.8038 124.636 23.7461L124.771 23.4189C125.407 21.8795 125.907 20.6672 126.215 19.8782C126.312 19.6088 126.543 19.0122 127.024 18.8968C127.198 18.8583 127.467 18.8775 127.641 19.0507C127.93 19.3201 127.853 19.8012 127.776 20.1668C127.641 20.8788 127.487 21.5523 127.294 22.2643C127.275 22.3413 127.198 22.3798 127.121 22.3605C127.044 22.3413 127.005 22.2643 127.024 22.1874C127.217 21.4946 127.371 20.8211 127.506 20.1283C127.564 19.7627 127.622 19.4356 127.448 19.2816C127.352 19.1854 127.198 19.1854 127.082 19.2047C126.736 19.2816 126.562 19.782 126.466 19.9936C126.158 20.7826 125.657 22.0142 125.021 23.5536L124.925 23.7653L128.873 26.2092C128.95 26.2477 128.97 26.3439 128.912 26.4016C128.931 26.4401 128.873 26.4593 128.835 26.4593Z" fill="black"/>
<path fill-rule="evenodd" clip-rule="evenodd" d="M167.472 28.5761C162.425 25.4202 156.551 21.9757 149.887 18.3964C142.78 14.5863 137.31 12.027 130.106 11.9692H129.201C129.105 12.4888 128.854 13.451 128.122 14.4324C128.007 14.5863 127.198 15.6447 125.927 16.222C123.21 17.4488 120.26 15.5333 119.924 15.3148L119.898 15.2983C117.702 16.9532 112.348 21.4946 110.865 29.0187C110.017 33.2521 109.671 42.1425 114.486 44.2592C117.702 45.664 121.593 43.374 122.826 42.5658C123.057 43.7012 123.808 49.147 123.924 50.5325C128.373 49.2817 132.976 47.8577 137.714 46.2797C141.797 44.9135 145.726 43.5087 149.482 42.0847C148.23 38.7364 146.959 35.3881 145.688 32.0398L145.688 32.0396L145.688 32.0393C144.802 29.7111 143.916 27.3828 143.011 25.0546C143.992 25.4872 144.979 25.9198 145.965 26.3525L145.967 26.3535L145.97 26.3545C146.956 26.7871 147.942 27.2198 148.924 27.6524C151.591 28.8262 154.264 29.9952 156.936 31.1643C159.609 32.3333 162.281 33.5023 164.949 34.6761C165.777 32.6171 166.624 30.5966 167.472 28.5761ZM132.957 22.2066C131.955 23.1303 130.607 24.4965 128.835 26.3246C127.859 25.7119 126.884 25.1092 125.9 24.502L125.9 24.502L125.9 24.5016C125.525 24.2699 125.149 24.0376 124.771 23.8038C125.484 22.0911 126.023 20.7634 126.35 19.9167C126.358 19.8983 126.366 19.8779 126.375 19.8558C126.479 19.6 126.673 19.12 127.063 19.0315C127.217 18.993 127.429 19.0315 127.564 19.1469C127.795 19.3586 127.737 19.7627 127.66 20.1283C127.564 20.6479 127.41 21.3599 127.179 22.2066C127.313 21.8795 128.604 18.8775 129.374 17.4535C129.528 17.1841 129.817 16.6838 130.222 16.6646C130.414 16.6453 130.645 16.7415 130.742 16.9147C130.924 17.2063 130.727 17.6359 130.623 17.8604L130.607 17.8961C129.927 19.2539 129.533 20.1169 129.324 20.5742L129.323 20.5745C129.272 20.6874 129.231 20.7755 129.201 20.8403C129.379 20.5175 129.868 19.7209 130.146 19.268L130.28 19.0507C131.262 17.4728 131.686 17.0302 132.09 17.0687C132.263 17.0879 132.456 17.1841 132.552 17.3381C132.764 17.7229 132.379 18.3002 132.071 18.7621C131.772 19.2046 131.488 19.6327 131.204 20.0607L131.204 20.0609C130.92 20.4891 130.636 20.9173 130.337 21.3599C130.819 20.6864 131.281 20.0898 131.686 19.5703C132.34 18.7043 132.726 18.2425 133.111 18.3195C133.246 18.3387 133.38 18.4349 133.458 18.5504C133.632 18.8819 133.253 19.3875 132.807 19.981C132.761 20.042 132.715 20.104 132.668 20.1668C132.283 20.6671 131.743 21.3984 131.146 22.3028C131.57 21.8025 131.955 21.4369 132.225 21.1867C132.841 20.6286 133.4 20.1283 133.746 20.3015C133.881 20.3592 133.939 20.4939 133.939 20.5324C134.149 21.0405 133.45 21.7239 133.061 22.1037L133.061 22.1038C133.023 22.1412 132.988 22.1756 132.957 22.2066ZM129.22 20.8403C129.162 20.9365 129.143 20.975 129.143 20.9943C129.143 20.9943 129.162 20.9365 129.22 20.8403Z" fill="#FF735A"/>
<path d="M171.343 34.503C171.266 34.503 171.208 34.4452 171.208 34.3875C171.17 34.1566 171.15 33.9449 171.131 33.714C171.112 33.4638 171.112 33.1944 171.131 32.9443C171.015 33.002 170.9 33.0405 170.765 33.0982C170.168 33.3099 169.648 33.3676 169.398 33.3676C169.224 33.3676 169.051 33.3676 168.877 33.3484C168.8 33.3484 168.743 33.2714 168.743 33.1944C168.743 33.1174 168.82 33.0597 168.897 33.0597C169.051 33.079 169.224 33.079 169.378 33.079C169.609 33.079 170.091 33.0212 170.649 32.8288C170.842 32.7518 171.035 32.6749 171.208 32.5786C171.247 32.5594 171.304 32.5594 171.362 32.5786C171.401 32.6171 171.439 32.6556 171.42 32.7133C171.381 33.0405 171.381 33.3676 171.401 33.6947C171.42 33.9064 171.439 34.1181 171.478 34.3298C171.497 34.4067 171.439 34.4837 171.362 34.503C171.343 34.503 171.343 34.503 171.343 34.503Z" fill="black"/>
<path d="M169.802 37.274C169.725 37.274 169.648 37.274 169.59 37.2547C169.455 37.2162 169.359 37.1585 169.359 37.1585C169.244 37.0815 169.128 37.0046 169.051 36.9084C169.051 36.9084 169.012 36.8506 168.974 36.7544C168.974 36.7352 168.897 36.5812 168.897 36.408C168.897 36.1001 169.455 35.696 170.149 35.4844C170.226 35.4651 170.303 35.5036 170.322 35.5806C170.341 35.6575 170.303 35.7345 170.226 35.7538C169.532 35.9462 169.205 36.2926 169.186 36.3888C169.186 36.5042 169.244 36.6197 169.244 36.6197C169.263 36.6774 169.301 36.7159 169.301 36.7159C169.359 36.7737 169.417 36.8314 169.513 36.8891C169.513 36.8891 169.59 36.9276 169.686 36.9661C170.052 37.0623 170.727 36.7352 170.958 36.5812C171.882 36.0232 172.344 35.7345 172.556 35.3304C172.614 35.215 172.672 34.7531 172.787 34.0604C172.922 33.1175 172.942 32.6171 172.71 32.1361C172.653 32.0398 172.614 31.9629 172.576 31.9051C172.479 31.7512 172.344 31.6165 172.171 31.4625C171.17 30.5774 169.937 30.0578 169.128 29.7114C169.032 29.6729 168.935 29.6344 168.839 29.596C168.704 29.5382 168.454 29.4228 168.165 29.2881C167.529 28.9994 166.643 28.5953 166.393 28.4991C166.316 28.4799 166.277 28.3836 166.316 28.3067C166.335 28.2297 166.431 28.1912 166.508 28.2297C166.759 28.3259 167.626 28.7108 168.3 29.0187C168.589 29.1534 168.839 29.2688 168.974 29.3266C169.051 29.365 169.147 29.4035 169.263 29.442C170.033 29.7691 171.343 30.3272 172.383 31.2509C172.576 31.4241 172.71 31.578 172.826 31.7512C172.864 31.8089 172.922 31.9051 172.98 32.0206C173.269 32.5786 173.25 33.1175 173.096 34.1181C172.961 35.0033 172.922 35.3304 172.845 35.4651C172.595 35.927 172.113 36.2348 171.15 36.8121C170.996 36.8891 170.341 37.274 169.802 37.274Z" fill="black"/>
<path d="M171.073 35.8885C170.823 35.8885 170.515 35.85 170.149 35.773C169.494 35.6191 168.839 35.3882 168.377 35.1957C168.261 35.1572 168.184 35.1188 168.126 35.0995L168.069 35.0803C167.895 35.0033 167.722 34.9263 167.529 34.8494C167.529 34.8494 167.24 34.7147 167.009 34.6184C165.796 34.0411 165.045 33.2329 164.698 32.8096C164.64 32.7519 164.659 32.6556 164.717 32.5979C164.775 32.5402 164.871 32.5594 164.929 32.6171C165.257 33.0213 165.969 33.791 167.125 34.349C167.356 34.4645 167.626 34.5799 167.626 34.5799C167.799 34.6569 167.992 34.7339 168.165 34.8109L168.223 34.8301C168.28 34.8494 168.357 34.8878 168.473 34.9263C168.916 35.0995 169.571 35.3497 170.187 35.4844C170.958 35.6576 171.478 35.6383 171.67 35.4074C171.767 35.3112 171.824 35.0995 171.786 34.9456C171.728 34.7724 171.555 34.6377 171.247 34.503C171.131 34.4645 171.035 34.426 170.938 34.3875L170.881 34.3683C170.707 34.3105 170.553 34.2528 170.38 34.1758C170.072 34.0411 169.764 33.9064 169.475 33.7525C169.321 33.6755 169.166 33.5793 169.012 33.5023C168.955 33.4638 168.916 33.4446 168.858 33.4061C168.82 33.3869 168.8 33.3676 168.781 33.3484C168.646 33.2714 168.512 33.1944 168.377 33.0982C168.319 33.0597 168.3 32.9635 168.338 32.9058C168.377 32.8481 168.473 32.8288 168.531 32.8673C168.666 32.9635 168.8 33.0405 168.935 33.1175C168.955 33.1367 168.993 33.156 169.012 33.156C169.051 33.1752 169.109 33.2137 169.147 33.2329C169.301 33.3291 169.455 33.4061 169.609 33.4831C169.898 33.637 170.206 33.7717 170.495 33.9064C170.649 33.9642 170.823 34.0411 170.977 34.0989L171.035 34.1181C171.131 34.1566 171.247 34.1951 171.362 34.2336C171.747 34.4068 171.978 34.5992 172.056 34.8494C172.152 35.138 172.036 35.4266 171.882 35.5998C171.747 35.7923 171.458 35.8885 171.073 35.8885Z" fill="black"/>
<path d="M169.802 33.791C169.763 33.791 169.725 33.7717 169.686 33.7332C169.628 33.6755 169.648 33.5793 169.706 33.5216L170.437 32.8865C170.495 32.8288 170.592 32.8481 170.649 32.9058C170.707 32.9635 170.688 33.0597 170.63 33.1175L169.898 33.7525C169.879 33.791 169.84 33.791 169.802 33.791Z" fill="black"/>
<path d="M168.608 36.639C168.473 36.639 168.338 36.6197 168.204 36.5427C167.973 36.4273 167.78 36.1964 167.722 35.9655C167.722 35.9462 167.722 35.9462 167.722 35.927C167.684 35.7153 167.761 35.5229 167.934 35.3304C168.03 35.215 168.184 35.0803 168.358 34.9456C168.416 34.9071 168.512 34.9071 168.55 34.9841C168.589 35.0418 168.589 35.138 168.512 35.1765C168.358 35.2919 168.223 35.4074 168.146 35.5036C168.03 35.6383 167.973 35.773 167.992 35.8692V35.8885C168.03 36.0232 168.146 36.1964 168.319 36.2733C168.589 36.408 168.878 36.2926 168.974 36.2541C169.051 36.2156 169.128 36.2541 169.167 36.3311C169.205 36.408 169.167 36.485 169.09 36.5235C169.013 36.5812 168.82 36.639 168.608 36.639Z" fill="black"/>
<path d="M167.856 36.0809H167.837C167.76 36.0616 167.664 36.0424 167.606 36.0039C167.356 35.8692 167.144 35.619 167.105 35.3689C167.105 35.3496 167.105 35.3304 167.105 35.3111C167.086 35.0802 167.221 34.8301 167.51 34.5799C167.568 34.5222 167.664 34.5222 167.722 34.5992C167.779 34.6569 167.779 34.7531 167.702 34.8108C167.491 35.0033 167.394 35.1764 167.394 35.3111V35.3304C167.413 35.4651 167.548 35.6575 167.722 35.7537C167.779 35.773 167.818 35.7922 167.876 35.8115C167.953 35.8307 168.011 35.8884 167.991 35.9847C167.991 36.0424 167.934 36.0809 167.856 36.0809Z" fill="black"/>
<path d="M168.03 35.5614H168.011C167.934 35.5421 167.876 35.4651 167.895 35.3882C167.915 35.3112 167.992 35.2535 168.069 35.2727C168.146 35.292 168.204 35.3689 168.184 35.4459C168.165 35.5229 168.107 35.5614 168.03 35.5614Z" fill="black"/>
<path d="M167.241 35.4651C167.202 35.4651 167.183 35.4651 167.144 35.4266C166.952 35.2919 166.817 35.0803 166.798 34.8878C166.778 34.7146 166.817 34.5415 166.952 34.3683C166.99 34.3105 167.087 34.2913 167.144 34.3298C167.202 34.3683 167.221 34.4645 167.183 34.5222C167.106 34.6377 167.067 34.7339 167.087 34.8301C167.106 34.9456 167.202 35.0803 167.318 35.1765C167.375 35.215 167.395 35.3112 167.337 35.3881C167.337 35.4459 167.298 35.4651 167.241 35.4651Z" fill="black"/>
<path d="M166.932 86.8636C166.682 87.5371 166.335 88.4607 165.912 89.5768C165.334 89.2497 164.64 89.4806 164.429 89.9425C164.178 90.4428 164.467 91.1933 165.16 91.4049C164.602 92.8289 164.063 94.2722 163.504 95.6962C162.233 98.9675 160.962 102.258 159.69 105.529C157.957 104.105 157.475 102.835 157.379 101.931C157.244 100.699 157.784 99.8912 158.111 96.9277C158.15 96.5044 158.246 95.7346 158.053 94.7917C157.88 93.945 157.533 92.9636 156.878 91.8283C156.898 91.7513 156.936 91.6743 156.955 91.6166C157.225 90.8854 157.514 90.1541 157.803 89.4037C158.361 88.7879 158.939 88.1528 159.498 87.5371C160.095 86.8828 160.692 86.2285 161.289 85.5743C161.347 85.5165 161.405 85.4396 161.462 85.3818C163.273 85.8822 165.103 86.3825 166.932 86.8636Z" fill="black"/>
<path d="M142.086 104.144C141.431 104.394 140.507 104.76 139.409 105.164C139.274 104.51 138.638 104.144 138.138 104.279C137.618 104.433 137.232 105.145 137.541 105.799C136.115 106.338 134.69 106.857 133.265 107.396C129.99 108.608 126.735 109.821 123.461 111.033C123.365 108.762 123.981 107.569 124.598 106.896C125.426 105.972 126.37 105.857 128.777 104.125C129.124 103.874 129.74 103.432 130.318 102.662C130.414 102.527 130.761 102.085 131.069 101.431C131.416 100.699 131.589 100.026 131.685 99.5255C134.247 99.2369 136.828 98.9675 139.39 98.6788C140.276 100.507 141.181 102.335 142.086 104.144Z" fill="black"/>
<path d="M125.927 8.69792C125.85 8.69792 125.792 8.64019 125.792 8.58246C125.773 8.50549 125.83 8.42852 125.907 8.40927C126.697 8.25533 127.275 7.54333 127.256 6.73512C127.256 6.52345 127.198 6.33102 127.121 6.15783C127.102 6.11934 127.102 6.1001 127.082 6.08086C126.986 5.88842 126.87 5.73448 126.716 5.59978C126.389 5.31113 125.984 5.15719 125.541 5.17643C124.964 5.19567 124.424 5.5228 124.155 6.04237C124.058 6.21556 124.001 6.40799 123.981 6.60042C123.962 6.67739 123.904 6.73512 123.827 6.71588C123.75 6.69664 123.692 6.63891 123.712 6.56193C123.75 6.33102 123.808 6.11934 123.924 5.90767C124.251 5.31113 124.867 4.92627 125.561 4.90702C126.062 4.88778 126.562 5.06097 126.928 5.40735C127.102 5.56129 127.256 5.75372 127.352 5.9654C127.371 6.00388 127.391 6.02313 127.391 6.06161C127.487 6.27329 127.545 6.5042 127.545 6.75437C127.583 7.69728 126.909 8.54398 125.965 8.71716C125.946 8.69792 125.927 8.69792 125.927 8.69792Z" fill="black"/>
<path d="M115.295 5.27264C115.796 5.09945 116.605 4.75308 117.414 4.04108C118.126 3.40606 118.55 2.73255 118.762 2.28995C119.051 2.79028 119.763 3.86789 121.112 4.65686C122.441 5.44583 123.712 5.54204 124.29 5.56129C124.367 5.46507 124.501 5.34961 124.675 5.2534C124.694 5.23415 124.925 5.09945 125.214 5.04172C125.811 4.90702 126.37 5.15718 126.505 5.23415C126.485 5.11869 126.447 4.96475 126.408 4.77232C126.312 4.38746 125.657 1.90509 123.346 0.750503C122.075 0.115479 120.9 0.173209 120.495 0.192452C120.072 0.211695 117.837 0.346397 116.393 2.21298C115.449 3.40606 115.314 4.69535 115.295 5.27264Z" fill="black"/>
<path d="M119.763 15.6447C119.725 15.6447 119.686 15.6254 119.648 15.5869C119.59 15.5292 119.609 15.433 119.667 15.3753C120.341 14.8172 121.034 14.2784 121.708 13.7204L121.612 13.3932C121.574 13.22 121.516 13.0468 121.477 12.8929C121.362 12.9121 121.246 12.9314 121.131 12.9314C120.765 12.9699 120.418 12.9506 120.071 12.8929C117.433 12.4696 115.526 9.5446 115.198 6.94677C115.121 6.36948 115.121 5.79219 115.198 5.21489C115.218 5.13792 115.275 5.08019 115.352 5.09943C115.43 5.11868 115.487 5.17641 115.468 5.25338C115.391 5.81143 115.391 6.36948 115.468 6.92753C115.776 9.40989 117.587 12.2194 120.091 12.6235C120.418 12.6812 120.745 12.6812 121.073 12.662C121.227 12.6427 121.381 12.6235 121.535 12.6043C121.612 12.585 121.689 12.6427 121.708 12.7197C121.766 12.9314 121.805 13.1431 121.863 13.3547L121.978 13.7588C121.997 13.8166 121.978 13.8743 121.94 13.9128C121.227 14.4901 120.534 15.0481 119.821 15.6254C119.821 15.6254 119.802 15.6447 119.763 15.6447Z" fill="black"/>
<path d="M129.605 12.2002C129.586 12.2002 129.586 12.2002 129.605 12.2002L127.564 12.1039C127.506 12.1039 127.448 12.0655 127.429 12.0077L126.254 8.44775C126.235 8.37077 126.273 8.2938 126.35 8.27456C126.427 8.25531 126.504 8.2938 126.524 8.37077L127.66 11.8345L129.586 11.9308C129.663 11.9308 129.721 12.0077 129.721 12.0847C129.74 12.1424 129.682 12.2002 129.605 12.2002Z" fill="black"/>
<path d="M124.328 10.9493C124.308 11.0071 123.538 12.4888 121.824 13.5664C121.805 13.5087 121.785 13.4509 121.766 13.374C121.708 13.1238 121.631 12.8929 121.554 12.662C121.708 12.6235 121.862 12.585 122.036 12.5273C123.095 12.1424 123.827 11.4881 124.328 10.9493Z" fill="black"/>
<path d="M129.278 60.3465C129.259 60.3465 129.239 60.3465 129.22 60.3272C129.143 60.308 129.105 60.2118 129.143 60.1348L129.259 59.8462C129.663 58.7685 130.029 57.8449 130.703 56.2092C131.57 54.1117 132.417 52.0912 133.323 50.0129C133.361 49.9359 133.438 49.8974 133.515 49.9359C133.592 49.9744 133.631 50.0514 133.592 50.1284C132.687 52.1874 131.84 54.2272 130.973 56.3247C130.299 57.9603 129.952 58.884 129.528 59.9424L129.413 60.231C129.393 60.308 129.336 60.3465 129.278 60.3465Z" fill="black"/>
<path d="M130.048 99.8526C129.971 99.8526 129.914 99.7949 129.914 99.7372C129.875 99.4678 125.907 72.5659 127.217 66.1194C127.256 65.9655 127.275 65.8115 127.313 65.6576C127.391 65.3112 127.487 64.9456 127.602 64.5415C127.93 63.4062 128.373 62.1361 129.124 60.1925C127.911 57.4985 126.89 54.689 126.119 51.841C126.023 51.4562 125.907 51.0713 125.811 50.6672C125.753 50.4363 125.696 50.2246 125.657 49.9937C125.638 49.9167 125.696 49.8397 125.773 49.8205C125.85 49.8013 125.927 49.859 125.946 49.936C126.004 50.1476 126.062 50.3785 126.1 50.5902C126.196 50.9751 126.293 51.3792 126.408 51.7448C127.198 54.612 128.219 57.4215 129.432 60.1156C129.451 60.1541 129.451 60.1925 129.432 60.231C128.662 62.2131 128.219 63.4831 127.891 64.6185C127.776 65.0033 127.679 65.3689 127.622 65.7153C127.583 65.8693 127.545 66.0232 127.525 66.1772C126.35 71.9309 129.605 95.7923 130.203 99.5448L133.188 99.2176C135.249 98.9867 137.329 98.775 139.39 98.5441L139.698 98.5056L138.465 76.9726C138.408 76.0874 138.369 75.2022 138.311 74.317L138.003 68.8327C138.003 68.8135 138.003 68.775 138.022 68.7557C138.388 68.1207 138.754 67.4857 139.12 66.8314C139.12 66.8314 139.12 66.8314 139.12 66.8122C139.178 66.7352 139.216 66.639 139.255 66.562C139.255 66.5428 139.274 66.5428 139.274 66.5428C140.199 64.8494 141.085 63.0983 141.894 61.3664C142.317 60.462 142.722 59.5383 143.126 58.5761C144.783 54.6698 146.189 51.283 146.747 47.0495C146.805 46.6261 146.844 46.1835 146.882 45.7602C146.921 45.3753 146.94 44.9905 146.959 44.5864C146.979 44.0476 146.998 43.4895 146.998 42.9507C146.998 42.8737 147.056 42.7968 147.133 42.7968C147.21 42.7968 147.267 42.8545 147.287 42.9315C147.287 43.4703 147.287 44.0283 147.248 44.5864C147.229 44.9905 147.21 45.3946 147.171 45.7794C147.133 46.222 147.094 46.6646 147.036 47.088C146.478 51.3407 145.033 54.7467 143.377 58.6723C142.972 59.6537 142.568 60.5582 142.144 61.4818C141.335 63.233 140.449 64.9841 139.505 66.6967C139.505 66.6967 139.505 66.716 139.486 66.716C139.448 66.7929 139.409 66.8699 139.351 66.9661C139.351 66.9661 139.351 66.9661 139.351 66.9854C138.985 67.6396 138.619 68.2747 138.253 68.8904L138.562 74.3363C138.619 75.2214 138.658 76.1066 138.716 76.9918L139.948 98.6596C139.948 98.7365 139.891 98.7943 139.814 98.8135L139.371 98.8713C137.31 99.1022 135.23 99.3138 133.169 99.5448L130.048 99.8526C130.068 99.8526 130.068 99.8526 130.048 99.8526Z" fill="black"/>
<path d="M155.607 91.9245C155.569 91.9245 155.53 91.9053 155.511 91.886C150.696 87.7103 146.112 83.1881 141.874 78.4543C140.603 77.0303 139.409 75.7026 138.311 74.4133C138.253 74.3555 138.273 74.2593 138.331 74.2016C138.388 74.1439 138.485 74.1631 138.542 74.2208C139.64 75.5101 140.834 76.8379 142.106 78.2619C146.304 82.9572 150.85 87.4409 155.607 91.5781L156.147 90.9816C156.667 90.4236 157.167 89.8655 157.687 89.2882C158.246 88.6724 158.824 88.0374 159.382 87.4216C159.922 86.8443 160.442 86.2478 160.981 85.6705L161.347 85.2664C161.385 85.2279 161.424 85.1702 161.462 85.1317L159.286 82.4954C159.286 82.4954 159.286 82.4954 159.286 82.4761C159.132 82.2837 158.959 82.0913 158.805 81.8988L156.031 78.5505C151.331 72.8546 146.613 67.1779 141.913 61.4819C141.855 61.4242 141.874 61.3279 141.932 61.2702C141.99 61.2125 142.086 61.2317 142.144 61.2895C146.844 66.9854 151.563 72.6621 156.262 78.3581L159.036 81.7064C159.19 81.8988 159.363 82.0913 159.517 82.2837C159.517 82.2837 159.517 82.2837 159.517 82.303L161.771 85.0162C161.809 85.074 161.809 85.1509 161.771 85.2087C161.694 85.2856 161.636 85.3626 161.559 85.4396L161.193 85.8437C160.654 86.421 160.133 87.0175 159.594 87.5948C159.036 88.2106 158.458 88.8456 157.899 89.4614C157.379 90.0195 156.878 90.5775 156.358 91.1548L155.723 91.8475C155.684 91.9245 155.646 91.9245 155.607 91.9245Z" fill="black"/>
<path d="M156.936 91.7513C156.898 91.7513 156.879 91.7513 156.859 91.7321L156.166 91.2125C156.108 91.174 156.089 91.0778 156.127 91.0201C156.166 90.9623 156.262 90.9431 156.32 90.9816L157.013 91.5011C157.071 91.5396 157.09 91.6358 157.052 91.6936C157.033 91.7321 156.975 91.7513 156.936 91.7513Z" fill="black"/>
<path d="M138.118 46.1258C138.157 46.2028 138.195 46.2797 138.195 46.376C138.234 46.7031 138.003 47.011 137.675 47.0687C137.348 47.1072 137.04 46.8763 136.982 46.5491V46.5299L138.118 46.1258Z" fill="black"/>
<path d="M142.414 46.4337C142.754 46.4337 143.03 46.158 143.03 45.8179C143.03 45.4778 142.754 45.2021 142.414 45.2021C142.073 45.2021 141.797 45.4778 141.797 45.8179C141.797 46.158 142.073 46.4337 142.414 46.4337Z" fill="black"/>
<path d="M147.113 44.5864C147.094 45.0097 147.074 45.3946 147.036 45.7602C146.824 45.6832 146.651 45.4908 146.631 45.2599C146.574 44.952 146.805 44.6441 147.113 44.5864Z" fill="black"/>
<path d="M126.254 51.8026C126.138 51.3985 126.042 51.0136 125.946 50.648C126.273 50.6287 126.543 50.8596 126.601 51.1868C126.639 51.4369 126.485 51.6871 126.254 51.8026Z" fill="black"/>
<path d="M130.799 51.2445C131.14 51.2445 131.416 50.9688 131.416 50.6287C131.416 50.2886 131.14 50.0129 130.799 50.0129C130.459 50.0129 130.183 50.2886 130.183 50.6287C130.183 50.9688 130.459 51.2445 130.799 51.2445Z" fill="black"/>
<path d="M135.614 50.6095C135.955 50.6095 136.231 50.3338 136.231 49.9937C136.231 49.6536 135.955 49.3779 135.614 49.3779C135.274 49.3779 134.998 49.6536 134.998 49.9937C134.998 50.3338 135.274 50.6095 135.614 50.6095Z" fill="black"/>
<path d="M140.43 49.9744C140.77 49.9744 141.046 49.6987 141.046 49.3586C141.046 49.0186 140.77 48.7429 140.43 48.7429C140.089 48.7429 139.813 49.0186 139.813 49.3586C139.813 49.6987 140.089 49.9744 140.43 49.9744Z" fill="black"/>
<path d="M145.245 49.3394C145.585 49.3394 145.861 49.0637 145.861 48.7236C145.861 48.3835 145.585 48.1078 145.245 48.1078C144.904 48.1078 144.628 48.3835 144.628 48.7236C144.628 49.0637 144.904 49.3394 145.245 49.3394Z" fill="black"/>
<path d="M129.124 55.2663C129.464 55.2663 129.74 54.9906 129.74 54.6505C129.74 54.3104 129.464 54.0347 129.124 54.0347C128.783 54.0347 128.507 54.3104 128.507 54.6505C128.507 54.9906 128.783 55.2663 129.124 55.2663Z" fill="black"/>
<path d="M133.939 54.6313C134.279 54.6313 134.555 54.3556 134.555 54.0155C134.555 53.6754 134.279 53.3997 133.939 53.3997C133.599 53.3997 133.323 53.6754 133.323 54.0155C133.323 54.3556 133.599 54.6313 133.939 54.6313Z" fill="black"/>
<path d="M138.754 54.0155C139.094 54.0155 139.37 53.7398 139.37 53.3997C139.37 53.0596 139.094 52.7839 138.754 52.7839C138.414 52.7839 138.138 53.0596 138.138 53.3997C138.138 53.7398 138.414 54.0155 138.754 54.0155Z" fill="black"/>
<path d="M143.569 53.3805C143.91 53.3805 144.186 53.1048 144.186 52.7647C144.186 52.4246 143.91 52.1489 143.569 52.1489C143.229 52.1489 142.953 52.4246 142.953 52.7647C142.953 53.1048 143.229 53.3805 143.569 53.3805Z" fill="black"/>
<path d="M131.955 58.1913C132.296 58.1913 132.572 57.9156 132.572 57.5755C132.572 57.2354 132.296 56.9597 131.955 56.9597C131.615 56.9597 131.339 57.2354 131.339 57.5755C131.339 57.9156 131.615 58.1913 131.955 58.1913Z" fill="black"/>
<path d="M136.77 57.5563C137.111 57.5563 137.386 57.2806 137.386 56.9405C137.386 56.6004 137.111 56.3247 136.77 56.3247C136.43 56.3247 136.154 56.6004 136.154 56.9405C136.154 57.2806 136.43 57.5563 136.77 57.5563Z" fill="black"/>
<path d="M141.586 56.9212C141.926 56.9212 142.202 56.6455 142.202 56.3054C142.202 55.9653 141.926 55.6896 141.586 55.6896C141.245 55.6896 140.969 55.9653 140.969 56.3054C140.969 56.6455 141.245 56.9212 141.586 56.9212Z" fill="black"/>
<path d="M129.798 62.2707C130.138 62.2707 130.414 61.9951 130.414 61.655C130.414 61.3149 130.138 61.0392 129.798 61.0392C129.458 61.0392 129.182 61.3149 129.182 61.655C129.182 61.9951 129.458 62.2707 129.798 62.2707Z" fill="black"/>
<path d="M134.613 61.6357C134.953 61.6357 135.229 61.36 135.229 61.02C135.229 60.6799 134.953 60.4042 134.613 60.4042C134.273 60.4042 133.997 60.6799 133.997 61.02C133.997 61.36 134.273 61.6357 134.613 61.6357Z" fill="black"/>
<path d="M139.428 61.02C139.769 61.02 140.045 60.7443 140.045 60.4042C140.045 60.0641 139.769 59.7885 139.428 59.7885C139.088 59.7885 138.812 60.0641 138.812 60.4042C138.812 60.7443 139.088 61.02 139.428 61.02Z" fill="black"/>
<path d="M127.91 65.8116C127.756 65.8308 127.602 65.7924 127.467 65.6961C127.544 65.3305 127.641 64.9649 127.756 64.5993C128.084 64.5608 128.392 64.7917 128.45 65.1188C128.469 65.4652 128.238 65.7731 127.91 65.8116Z" fill="black"/>
<path d="M132.629 65.1958C132.969 65.1958 133.245 64.9201 133.245 64.58C133.245 64.2399 132.969 63.9642 132.629 63.9642C132.289 63.9642 132.013 64.2399 132.013 64.58C132.013 64.9201 132.289 65.1958 132.629 65.1958Z" fill="black"/>
<path d="M137.444 64.5608C137.785 64.5608 138.061 64.2851 138.061 63.945C138.061 63.6049 137.785 63.3292 137.444 63.3292C137.104 63.3292 136.828 63.6049 136.828 63.945C136.828 64.2851 137.104 64.5608 137.444 64.5608Z" fill="black"/>
<path d="M142.259 63.9258C142.6 63.9258 142.876 63.6501 142.876 63.31C142.876 62.9699 142.6 62.6942 142.259 62.6942C141.919 62.6942 141.643 62.9699 141.643 63.31C141.643 63.6501 141.919 63.9258 142.259 63.9258Z" fill="black"/>
<path d="M130.202 68.9289C130.543 68.9289 130.819 68.6533 130.819 68.3132C130.819 67.9731 130.543 67.6974 130.202 67.6974C129.862 67.6974 129.586 67.9731 129.586 68.3132C129.586 68.6533 129.862 68.9289 130.202 68.9289Z" fill="black"/>
<path d="M134.998 68.2939C135.339 68.2939 135.615 68.0182 135.615 67.6782C135.615 67.3381 135.339 67.0624 134.998 67.0624C134.658 67.0624 134.382 67.3381 134.382 67.6782C134.382 68.0182 134.658 68.2939 134.998 68.2939Z" fill="black"/>
<path d="M139.814 67.6589C140.154 67.6589 140.43 67.3832 140.43 67.0431C140.43 66.7031 140.154 66.4274 139.814 66.4274C139.473 66.4274 139.197 66.7031 139.197 67.0431C139.197 67.3832 139.473 67.6589 139.814 67.6589Z" fill="black"/>
<path d="M144.629 67.0431C144.969 67.0431 145.245 66.7674 145.245 66.4273C145.245 66.0872 144.969 65.8115 144.629 65.8115C144.288 65.8115 144.012 66.0872 144.012 66.4273C144.012 66.7674 144.288 67.0431 144.629 67.0431Z" fill="black"/>
<path d="M128.218 72.4697C128.559 72.4697 128.835 72.194 128.835 71.8539C128.835 71.5139 128.559 71.2382 128.218 71.2382C127.878 71.2382 127.602 71.5139 127.602 71.8539C127.602 72.194 127.878 72.4697 128.218 72.4697Z" fill="black"/>
<path d="M133.034 71.8346C133.374 71.8346 133.65 71.5589 133.65 71.2188C133.65 70.8787 133.374 70.603 133.034 70.603C132.693 70.603 132.417 70.8787 132.417 71.2188C132.417 71.5589 132.693 71.8346 133.034 71.8346Z" fill="black"/>
<path d="M137.83 71.2189C138.17 71.2189 138.446 70.9432 138.446 70.6031C138.446 70.263 138.17 69.9873 137.83 69.9873C137.489 69.9873 137.213 70.263 137.213 70.6031C137.213 70.9432 137.489 71.2189 137.83 71.2189Z" fill="black"/>
<path d="M142.645 70.5839C142.985 70.5839 143.261 70.3082 143.261 69.9681C143.261 69.628 142.985 69.3523 142.645 69.3523C142.304 69.3523 142.028 69.628 142.028 69.9681C142.028 70.3082 142.304 70.5839 142.645 70.5839Z" fill="black"/>
<path d="M147.46 69.9488C147.8 69.9488 148.076 69.6732 148.076 69.3331C148.076 68.993 147.8 68.7173 147.46 68.7173C147.12 68.7173 146.844 68.993 146.844 69.3331C146.844 69.6732 147.12 69.9488 147.46 69.9488Z" fill="black"/>
<path d="M130.877 75.9335C131.217 75.9335 131.493 75.6578 131.493 75.3177C131.493 74.9776 131.217 74.7019 130.877 74.7019C130.536 74.7019 130.26 74.9776 130.26 75.3177C130.26 75.6578 130.536 75.9335 130.877 75.9335Z" fill="black"/>
<path d="M135.692 75.2985C136.032 75.2985 136.308 75.0228 136.308 74.6827C136.308 74.3426 136.032 74.0669 135.692 74.0669C135.351 74.0669 135.075 74.3426 135.075 74.6827C135.075 75.0228 135.351 75.2985 135.692 75.2985Z" fill="black"/>
<path d="M140.507 74.6634C140.847 74.6634 141.123 74.3878 141.123 74.0477C141.123 73.7076 140.847 73.4319 140.507 73.4319C140.167 73.4319 139.891 73.7076 139.891 74.0477C139.891 74.3878 140.167 74.6634 140.507 74.6634Z" fill="black"/>
<path d="M145.322 74.0476C145.662 74.0476 145.938 73.7719 145.938 73.4318C145.938 73.0917 145.662 72.816 145.322 72.816C144.982 72.816 144.706 73.0917 144.706 73.4318C144.706 73.7719 144.982 74.0476 145.322 74.0476Z" fill="black"/>
<path d="M150.137 73.4126C150.477 73.4126 150.753 73.1369 150.753 72.7968C150.753 72.4567 150.477 72.181 150.137 72.181C149.796 72.181 149.521 72.4567 149.521 72.7968C149.521 73.1369 149.796 73.4126 150.137 73.4126Z" fill="black"/>
<path d="M128.893 79.4741C129.233 79.4741 129.509 79.1984 129.509 78.8583C129.509 78.5182 129.233 78.2426 128.893 78.2426C128.552 78.2426 128.276 78.5182 128.276 78.8583C128.276 79.1984 128.552 79.4741 128.893 79.4741Z" fill="black"/>
<path d="M133.708 78.8391C134.048 78.8391 134.324 78.5634 134.324 78.2233C134.324 77.8832 134.048 77.6075 133.708 77.6075C133.367 77.6075 133.091 77.8832 133.091 78.2233C133.091 78.5634 133.367 78.8391 133.708 78.8391Z" fill="black"/>
<path d="M138.658 78.2041C138.638 78.2041 138.619 78.2041 138.6 78.2041C138.272 78.2426 137.964 78.0117 137.907 77.6846C137.868 77.3574 138.099 77.0496 138.427 76.9918C138.465 76.9918 138.523 76.9918 138.561 76.9918C138.6 77.3959 138.638 77.8 138.658 78.2041Z" fill="black"/>
<path d="M143.338 77.5884C143.678 77.5884 143.954 77.3127 143.954 76.9726C143.954 76.6325 143.678 76.3568 143.338 76.3568C142.998 76.3568 142.722 76.6325 142.722 76.9726C142.722 77.3127 142.998 77.5884 143.338 77.5884Z" fill="black"/>
<path d="M148.153 76.9534C148.494 76.9534 148.77 76.6777 148.77 76.3376C148.77 75.9975 148.494 75.7218 148.153 75.7218C147.813 75.7218 147.537 75.9975 147.537 76.3376C147.537 76.6777 147.813 76.9534 148.153 76.9534Z" fill="black"/>
<path d="M152.968 76.3184C153.309 76.3184 153.585 76.0427 153.585 75.7026C153.585 75.3625 153.309 75.0868 152.968 75.0868C152.628 75.0868 152.352 75.3625 152.352 75.7026C152.352 76.0427 152.628 76.3184 152.968 76.3184Z" fill="black"/>
<path d="M132.032 82.8802C132.373 82.8802 132.649 82.6045 132.649 82.2645C132.649 81.9244 132.373 81.6487 132.032 81.6487C131.692 81.6487 131.416 81.9244 131.416 82.2645C131.416 82.6045 131.692 82.8802 132.032 82.8802Z" fill="black"/>
<path d="M136.847 82.2452C137.188 82.2452 137.464 81.9695 137.464 81.6295C137.464 81.2894 137.188 81.0137 136.847 81.0137C136.507 81.0137 136.231 81.2894 136.231 81.6295C136.231 81.9695 136.507 82.2452 136.847 82.2452Z" fill="black"/>
<path d="M146.478 80.9751C146.818 80.9751 147.094 80.6994 147.094 80.3593C147.094 80.0192 146.818 79.7435 146.478 79.7435C146.137 79.7435 145.861 80.0192 145.861 80.3593C145.861 80.6994 146.137 80.9751 146.478 80.9751Z" fill="black"/>
<path d="M151.293 80.3594C151.633 80.3594 151.909 80.0837 151.909 79.7436C151.909 79.4035 151.633 79.1278 151.293 79.1278C150.952 79.1278 150.676 79.4035 150.676 79.7436C150.676 80.0837 150.952 80.3594 151.293 80.3594Z" fill="black"/>
<path d="M156.705 79.1855C156.666 79.4549 156.455 79.6858 156.185 79.7243C155.857 79.7628 155.549 79.5318 155.491 79.2047C155.453 78.8776 155.684 78.5697 156.012 78.512C156.05 78.512 156.089 78.512 156.127 78.512C156.32 78.7236 156.512 78.9546 156.705 79.1855Z" fill="black"/>
<path d="M130.048 86.4209C130.389 86.4209 130.665 86.1452 130.665 85.8051C130.665 85.465 130.389 85.1893 130.048 85.1893C129.708 85.1893 129.432 85.465 129.432 85.8051C129.432 86.1452 129.708 86.4209 130.048 86.4209Z" fill="black"/>
<path d="M134.863 85.7859C135.204 85.7859 135.48 85.5102 135.48 85.1701C135.48 84.83 135.204 84.5543 134.863 84.5543C134.523 84.5543 134.247 84.83 134.247 85.1701C134.247 85.5102 134.523 85.7859 134.863 85.7859Z" fill="black"/>
<path d="M149.309 83.9001C149.649 83.9001 149.925 83.6244 149.925 83.2844C149.925 82.9443 149.649 82.6686 149.309 82.6686C148.968 82.6686 148.692 82.9443 148.692 83.2844C148.692 83.6244 148.968 83.9001 149.309 83.9001Z" fill="black"/>
<path d="M154.124 83.265C154.465 83.265 154.74 82.9893 154.74 82.6492C154.74 82.3091 154.465 82.0334 154.124 82.0334C153.784 82.0334 153.508 82.3091 153.508 82.6492C153.508 82.9893 153.784 83.265 154.124 83.265Z" fill="black"/>
<path d="M159.382 82.4183C159.286 82.5338 159.151 82.5915 158.997 82.63C158.669 82.6685 158.361 82.4376 158.303 82.1105C158.265 81.8603 158.4 81.6294 158.592 81.5139C158.881 81.8026 159.132 82.1105 159.382 82.4183Z" fill="black"/>
<path d="M132.706 89.8848C133.047 89.8848 133.323 89.6091 133.323 89.269C133.323 88.9289 133.047 88.6532 132.706 88.6532C132.366 88.6532 132.09 88.9289 132.09 89.269C132.09 89.6091 132.366 89.8848 132.706 89.8848Z" fill="black"/>
<path d="M137.522 89.2496C137.862 89.2496 138.138 88.9739 138.138 88.6338C138.138 88.2938 137.862 88.0181 137.522 88.0181C137.181 88.0181 136.905 88.2938 136.905 88.6338C136.905 88.9739 137.181 89.2496 137.522 89.2496Z" fill="black"/>
<path d="M151.967 87.3639C152.307 87.3639 152.583 87.0882 152.583 86.7481C152.583 86.408 152.307 86.1323 151.967 86.1323C151.627 86.1323 151.351 86.408 151.351 86.7481C151.351 87.0882 151.627 87.3639 151.967 87.3639Z" fill="black"/>
<path d="M156.782 86.7289C157.122 86.7289 157.398 86.4532 157.398 86.1131C157.398 85.773 157.122 85.4973 156.782 85.4973C156.441 85.4973 156.166 85.773 156.166 86.1131C156.166 86.4532 156.441 86.7289 156.782 86.7289Z" fill="black"/>
<path d="M161.655 85.1509C161.578 85.2278 161.52 85.3048 161.443 85.3818C161.385 85.4395 161.327 85.5165 161.27 85.5742C161.212 85.6512 161.135 85.7089 161.077 85.7859C161.039 85.7089 161 85.632 161 85.555C160.961 85.2471 161.154 84.9584 161.443 84.8815C161.501 84.9777 161.578 85.0547 161.655 85.1509Z" fill="black"/>
<path d="M130.722 93.4254C131.063 93.4254 131.339 93.1497 131.339 92.8096C131.339 92.4695 131.063 92.1938 130.722 92.1938C130.382 92.1938 130.106 92.4695 130.106 92.8096C130.106 93.1497 130.382 93.4254 130.722 93.4254Z" fill="black"/>
<path d="M135.538 92.7904C135.878 92.7904 136.154 92.5147 136.154 92.1746C136.154 91.8345 135.878 91.5588 135.538 91.5588C135.197 91.5588 134.921 91.8345 134.921 92.1746C134.921 92.5147 135.197 92.7904 135.538 92.7904Z" fill="black"/>
<path d="M154.798 90.2695C155.138 90.2695 155.414 89.9938 155.414 89.6537C155.414 89.3137 155.138 89.038 154.798 89.038C154.458 89.038 154.182 89.3137 154.182 89.6537C154.182 89.9938 154.458 90.2695 154.798 90.2695Z" fill="black"/>
<path d="M133.496 96.9084C133.836 96.9084 134.112 96.6327 134.112 96.2927C134.112 95.9526 133.836 95.6769 133.496 95.6769C133.155 95.6769 132.879 95.9526 132.879 96.2927C132.879 96.6327 133.155 96.9084 133.496 96.9084Z" fill="black"/>
<path d="M138.311 96.2734C138.652 96.2734 138.928 95.9977 138.928 95.6577C138.928 95.3176 138.652 95.0419 138.311 95.0419C137.971 95.0419 137.695 95.3176 137.695 95.6577C137.695 95.9977 137.971 96.2734 138.311 96.2734Z" fill="black"/>
</g>
</svg>
