<svg width="140" height="114" viewBox="0 0 140 114" fill="none" xmlns="http://www.w3.org/2000/svg">
<path d="M140 30.3827V63.7771C140 76.849 134.808 89.3856 125.564 98.6288C116.321 107.872 103.785 113.065 90.7127 113.064H0V79.6699C0 61.8252 9.48402 46.1939 23.6881 37.5445C26.1358 36.0526 28.7098 34.7787 31.3806 33.7376C32.9523 33.1235 34.5551 32.5921 36.1823 32.1455C36.214 32.135 36.2473 32.1259 36.279 32.1183C36.7598 31.9868 37.2436 31.8628 37.7305 31.7464C37.7577 31.7388 37.7834 31.7328 37.8106 31.7268C40.811 31.0119 43.8718 30.5801 46.9529 30.4371C47.3173 30.4205 47.6816 30.4069 48.049 30.3993C48.1806 30.3948 48.3136 30.3918 48.4482 30.3918C48.7264 30.3857 49.0061 30.3827 49.2873 30.3827H140Z" fill="#FFB2A8"/>
<path d="M65.3132 91.5443C29.3174 91.5443 0.123848 101.251 0.00146484 113.24H130.625C130.503 101.251 101.309 91.5443 65.3132 91.5443Z" fill="#F2F2F2"/>
<g opacity="0.1">
<path d="M53.2181 107.982C59.898 107.982 65.3131 106.478 65.3131 104.622C65.3131 102.767 59.898 101.262 53.2181 101.262C46.5382 101.262 41.123 102.767 41.123 104.622C41.123 106.478 46.5382 107.982 53.2181 107.982Z" fill="black"/>
</g>
<g opacity="0.1">
<path d="M79.3736 101.934C86.0535 101.934 91.4686 100.43 91.4686 98.5746C91.4686 96.719 86.0535 95.2148 79.3736 95.2148C72.6937 95.2148 67.2786 96.719 67.2786 98.5746C67.2786 100.43 72.6937 101.934 79.3736 101.934Z" fill="black"/>
</g>
<g opacity="0.1">
<path d="M53.218 107.646C59.23 107.646 64.1036 106.292 64.1036 104.622C64.1036 102.952 59.23 101.598 53.218 101.598C47.2061 101.598 42.3325 102.952 42.3325 104.622C42.3325 106.292 47.2061 107.646 53.218 107.646Z" fill="black"/>
</g>
<g opacity="0.1">
<path d="M79.3736 101.598C85.3855 101.598 90.2591 100.245 90.2591 98.5745C90.2591 96.9046 85.3855 95.5508 79.3736 95.5508C73.3617 95.5508 68.488 96.9046 68.488 98.5745C68.488 100.245 73.3617 101.598 79.3736 101.598Z" fill="black"/>
</g>
<path d="M20.864 44.9028C21.4485 44.9028 21.9223 44.4289 21.9223 43.8444C21.9223 43.26 21.4485 42.7861 20.864 42.7861C20.2795 42.7861 19.8057 43.26 19.8057 43.8444C19.8057 44.4289 20.2795 44.9028 20.864 44.9028Z" fill="#F2F2F2"/>
<path d="M111.879 86.3283C112.464 86.3283 112.937 85.8545 112.937 85.27C112.937 84.6855 112.464 84.2117 111.879 84.2117C111.295 84.2117 110.821 84.6855 110.821 85.27C110.821 85.8545 111.295 86.3283 111.879 86.3283Z" fill="#F2F2F2"/>
<path d="M61.987 52.311C62.5715 52.311 63.0453 51.8371 63.0453 51.2527C63.0453 50.6682 62.5715 50.1943 61.987 50.1943C61.4025 50.1943 60.9287 50.6682 60.9287 51.2527C60.9287 51.8371 61.4025 52.311 61.987 52.311Z" fill="#F2F2F2"/>
<path d="M114.449 45.5076C114.783 45.5076 115.054 45.2368 115.054 44.9028C115.054 44.5689 114.783 44.2981 114.449 44.2981C114.115 44.2981 113.844 44.5689 113.844 44.9028C113.844 45.2368 114.115 45.5076 114.449 45.5076Z" fill="#FF6584"/>
<path d="M23.283 75.7451C23.617 75.7451 23.8877 75.4744 23.8877 75.1404C23.8877 74.8064 23.617 74.5356 23.283 74.5356C22.949 74.5356 22.6782 74.8064 22.6782 75.1404C22.6782 75.4744 22.949 75.7451 23.283 75.7451Z" fill="#FF6584"/>
<path d="M14.2117 87.8889H13.9362V87.6134H13.8824V87.8889H13.6069V87.9427H13.8824V88.2182H13.9362V87.9427H14.2117V87.8889Z" fill="#F2F2F2"/>
<path d="M102.657 65.513H102.381V65.2375H102.327V65.513H102.052V65.5668H102.327V65.8423H102.381V65.5668H102.657V65.513Z" fill="#F2F2F2"/>
<path d="M125.486 60.9774H125.21V60.7019H125.157V60.9774H124.881V61.0312H125.157V61.3067H125.21V61.0312H125.486V60.9774Z" fill="#F2F2F2"/>
<path d="M76.3499 73.0725H76.0744V72.797H76.0206V73.0725H75.7451V73.1263H76.0206V73.4017H76.0744V73.1263H76.3499V73.0725Z" fill="#F2F2F2"/>
<path d="M118.834 74.5843H118.558V74.3088H118.504V74.5843H118.229V74.6381H118.504V74.9136H118.558V74.6381H118.834V74.5843Z" fill="#F2F2F2"/>
<path d="M67.5811 81.0854H67.3056V80.8099H67.2518V81.0854H66.9763V81.1392H67.2518V81.4147H67.3056V81.1392H67.5811V81.0854Z" fill="#F2F2F2"/>
<path d="M86.9331 81.3878H86.6577V81.1123H86.6038V81.3878H86.3284V81.4416H86.6038V81.7171H86.6577V81.4416H86.9331V81.3878Z" fill="#F2F2F2"/>
<path d="M14.5139 55.6859H14.2385V55.4104H14.1846V55.6859H13.9092V55.7397H14.1846V56.0152H14.2385V55.7397H14.5139V55.6859Z" fill="#F2F2F2"/>
<rect x="102.354" y="34.8774" width="0.434579" height="8.77849" fill="#E6E6E6"/>
<path d="M92.4889 58.2144L88.4907 67.4274L89.273 68.7311L89.0122 69.1657L90.8375 70.1218V69.6003L91.5328 69.4265L94.4879 64.0377L92.4889 58.2144Z" fill="#E6E6E6"/>
<path d="M89.3599 69.0787C89.3599 69.0787 86.4048 73.6853 89.7076 74.3806C93.0104 75.0759 90.316 69.5133 90.316 69.5133L89.3599 69.0787Z" fill="#E6E6E6"/>
<path d="M93.6187 66.9927L92.5757 70.3824L92.1411 74.7282L91.3589 76.2927L92.228 83.3329L93.6187 84.7235L94.2271 91.6768V94.8058L95.8785 97.674L93.7519 100.692C93.5475 100.981 93.5184 101.359 93.676 101.676C93.8337 101.993 94.1527 102.198 94.5064 102.209C94.9759 102.221 95.5948 102.089 96.4 101.672C98.9206 100.368 98.8336 99.1515 98.8336 99.1515C98.8336 99.1515 100.398 99.1515 100.485 97.9347C100.572 96.7179 99.529 88.0263 99.529 88.0263L98.5729 84.289V74.1198H98.9206L99.0944 82.8114L99.8766 86.0273L99.9635 87.4179L101.093 101.324C101.093 101.324 106.135 102.715 106.395 101.585C106.656 100.455 104.483 99.7599 104.483 99.7599L105.787 97.2394V92.3721L105.352 91.3291L104.57 84.289L105.874 82.8983L106.569 82.0291V75.0759L105.7 72.3815L105.439 70.1217L104.049 66.6451C104.049 66.6451 97.7037 64.5591 93.6187 66.9927Z" fill="white"/>
<path d="M104.918 47.3498C104.918 50.2203 103.064 52.7623 100.331 53.6395C97.5977 54.5168 94.6109 53.5285 92.9404 51.1942C91.2698 48.8599 91.2981 45.7139 93.0103 43.4099L93.012 43.4082C94.7113 41.1223 97.6847 40.1832 100.389 41.0784C103.093 41.9736 104.918 44.5015 104.918 47.3498Z" fill="#2D2D31"/>
<g opacity="0.1">
<path d="M103.979 44.6111L103.44 47.6974C99.3907 37.1859 92.9494 43.6428 92.8381 43.7558C94.1913 41.9361 96.3833 40.9376 98.6444 41.1112C100.905 41.2848 102.919 42.6061 103.979 44.6111Z" fill="black"/>
</g>
<path d="M104.153 44.2634L103.614 47.3498C99.5645 36.8382 93.1232 43.2952 93.012 43.4082C94.3651 41.5884 96.5572 40.59 98.8182 40.7636C101.079 40.9371 103.093 42.2584 104.153 44.2634Z" fill="white"/>
<path d="M103.247 42.9605L104.153 46.1037C104.153 46.1037 102.273 51.7375 93.5567 51.9339L93.271 52.7387L92.3149 52.9994L91.8804 54.8246L93.0972 66.3844C93.0972 66.3844 92.5757 67.5143 93.4449 67.4274C93.4449 67.4274 99.1813 65.5153 104.135 67.2536C104.135 67.2536 105.178 67.6882 104.918 66.7321C104.918 66.7321 108.394 64.5592 108.134 62.2994C107.873 60.0396 108.394 49.5228 108.394 49.5228C108.394 49.5228 108.916 46.4807 107.351 45.7854C107.351 45.7854 105.054 42.5692 103.247 42.9605Z" fill="white"/>
<path d="M101.342 64.9227C101.342 64.9227 95.8965 65.4696 97.4039 68.4895C98.9113 71.5094 101.596 65.9419 101.596 65.9419L101.342 64.9227Z" fill="#E6E6E6"/>
<path d="M104.136 51.4349C104.136 51.4349 103.179 52.5648 103.527 54.39C103.875 56.2153 105.179 60.3003 105.179 60.3003L100.572 64.5592L101.963 66.4713L108.221 63.2555L109.611 62.3863C109.265 58.8708 108.405 55.4252 107.057 52.1599L106.83 51.6087C106.83 51.6087 105.179 50.9134 104.136 51.4349Z" fill="#E6E6E6"/>
<path d="M103.701 48.3493C104.589 48.3493 105.309 47.6294 105.309 46.7414C105.309 45.8533 104.589 45.1334 103.701 45.1334C102.813 45.1334 102.093 45.8533 102.093 46.7414C102.093 47.6294 102.813 48.3493 103.701 48.3493Z" fill="#E6E6E6"/>
<path d="M102.571 36.0074C103.219 36.0074 103.744 35.482 103.744 34.834C103.744 34.186 103.219 33.6606 102.571 33.6606C101.923 33.6606 101.398 34.186 101.398 34.834C101.398 35.482 101.923 36.0074 102.571 36.0074Z" fill="#E6E6E6"/>
<path d="M72.7215 53.2668H72.446V52.9913H72.3922V53.2668H72.1167V53.3206H72.3922V53.5961H72.446V53.3206H72.7215V53.2668Z" fill="#F2F2F2"/>
<path d="M97.5161 44.8002H97.2407V44.5248H97.1868V44.8002H96.9114V44.8541H97.1868V45.1295H97.2407V44.8541H97.5161V44.8002Z" fill="#F2F2F2"/>
<path d="M94.7947 47.3704H94.5192V47.095H94.4654V47.3704H94.1899V47.4243H94.4654V47.6997H94.5192V47.4243H94.7947V47.3704Z" fill="#F2F2F2"/>
<path d="M84.0606 40.972C84.3946 40.972 84.6653 40.7012 84.6653 40.3672C84.6653 40.0332 84.3946 39.7625 84.0606 39.7625C83.7266 39.7625 83.4558 40.0332 83.4558 40.3672C83.4558 40.7012 83.7266 40.972 84.0606 40.972Z" fill="#F2F2F2"/>
<path d="M54.27 44.6298C54.27 86.8179 48.965 86.8179 42.423 86.8179C39.0407 86.8179 35.9894 86.8179 33.8316 80.9903C33.2112 79.3154 32.6632 77.1558 32.2038 74.3758C31.1692 68.1267 30.5759 58.7359 30.5759 44.6298C30.5759 39.2055 31.218 33.8879 32.2038 28.9212C32.6776 26.5301 33.2311 24.2222 33.8316 22.021C34.566 19.326 35.3708 16.792 36.1829 14.4733C36.7274 12.9142 37.2772 11.4509 37.8108 10.0998C40.276 3.86339 42.423 0 42.423 0C42.423 0 54.27 21.3301 54.27 44.6298Z" fill="#F2F2F2"/>
<g opacity="0.1">
<path d="M37.8109 10.0999V83.6527H36.1831V14.4733C36.7275 12.9142 37.2774 11.451 37.8109 10.0999Z" fill="black"/>
</g>
<path d="M42.0614 35.6316C45.6575 35.6316 48.5727 32.7163 48.5727 29.1202C48.5727 25.5241 45.6575 22.6089 42.0614 22.6089C38.4653 22.6089 35.55 25.5241 35.55 29.1202C35.55 32.7163 38.4653 35.6316 42.0614 35.6316Z" fill="#2D2D31"/>
<path d="M56.35 82.8387C54.9023 79.275 53.0434 78.6601 51.8283 78.7136V78.1361H32.8368V78.7136C31.6218 78.6601 29.7628 79.275 28.3151 82.8387C25.9638 88.6266 29.762 98.5745 29.762 98.5745C29.762 98.5745 27.7322 84.7004 34.4728 84.6091C35.0566 85.3706 35.7729 86.0205 36.5874 86.5276V90.2592H47.4729V86.8674C48.537 86.3277 49.4664 85.556 50.1923 84.6091C56.933 84.7004 54.9031 98.5745 54.9031 98.5745C54.9031 98.5745 58.7013 88.6266 56.35 82.8387Z" fill="#FF735A"/>
<path d="M42.0612 34.1845C44.8582 34.1845 47.1256 31.9171 47.1256 29.1202C47.1256 26.3232 44.8582 24.0558 42.0612 24.0558C39.2642 24.0558 36.9968 26.3232 36.9968 29.1202C36.9968 31.9171 39.2642 34.1845 42.0612 34.1845Z" fill="#FF735A"/>
<path d="M127.906 30.3827H127.604C127.649 37.1989 133.184 42.7029 140 42.7106V42.4082C133.35 42.401 127.951 37.0321 127.906 30.3827Z" fill="#FF735A"/>
<path d="M122.313 30.3827H122.01C122.058 40.2873 130.095 48.2942 140 48.3045V48.0021C130.263 47.9912 122.361 40.1201 122.313 30.3827Z" fill="#FF735A"/>
<path d="M116.566 30.3827H116.263C116.301 43.4393 126.934 54.0496 140 54.0496V53.7473C127.101 53.7473 116.604 43.273 116.566 30.3827Z" fill="#FF735A"/>
</svg>
