<svg width="190" height="190" viewBox="0 0 190 190" fill="none" xmlns="http://www.w3.org/2000/svg">
<mask id="mask0" mask-type="alpha" maskUnits="userSpaceOnUse" x="0" y="0" width="190" height="190">
<rect width="190" height="190" fill="white"/>
</mask>
<g mask="url(#mask0)">
<path d="M175.848 104.161C172.709 104.161 169.393 101.748 165.999 96.963C165.96 96.9041 165.96 96.8061 166.039 96.7669C166.097 96.7276 166.196 96.7276 166.235 96.8061C169.688 101.65 173.023 104.023 176.162 103.867C178.712 103.729 180.458 102.003 182.322 100.179C184.166 98.3751 186.049 96.4923 188.796 96.3746C191.856 96.2177 195.034 98.277 198.252 102.474C198.311 102.533 198.291 102.631 198.232 102.69C198.173 102.749 198.075 102.729 198.016 102.67C194.858 98.5516 191.778 96.5315 188.815 96.6884C186.187 96.8257 184.323 98.6496 182.518 100.415C180.713 102.199 178.83 104.043 176.181 104.18C176.064 104.161 175.946 104.161 175.848 104.161Z" fill="black"/>
<path d="M0.578621 156.82C-2.0306 156.82 -4.77714 154.819 -7.60216 150.858C-7.64139 150.799 -7.64139 150.701 -7.56292 150.661C-7.48445 150.622 -7.40598 150.622 -7.36674 150.701C-4.50249 154.702 -1.75594 156.663 0.833657 156.526C2.9328 156.408 4.38455 154.996 5.91476 153.486C7.44498 151.975 9.01443 150.426 11.2901 150.308C13.8405 150.171 16.4693 151.877 19.1374 155.368C19.1963 155.427 19.1766 155.525 19.1178 155.584C19.0589 155.623 18.9608 155.623 18.902 155.565C16.2928 152.172 13.7424 150.505 11.3098 150.622C9.13214 150.72 7.60193 152.25 6.13056 153.701C4.63958 155.172 3.08975 156.702 0.872893 156.839C0.755184 156.82 0.657094 156.82 0.578621 156.82Z" fill="black"/>
<path d="M14.8805 73.6243C14.8413 73.6243 14.802 73.6047 14.7824 73.5851C14.7236 73.5263 14.7236 73.4282 14.7824 73.3694L18.0979 69.9568C18.1567 69.898 18.2548 69.898 18.3137 69.9568C18.3725 70.0157 18.3725 70.1137 18.3137 70.1726L14.9786 73.5655C14.959 73.6047 14.9197 73.6243 14.8805 73.6243Z" fill="black"/>
<path d="M12.9776 41.6367C12.9384 41.6367 12.8992 41.6171 12.8599 41.5778L9.95643 37.8319C9.89758 37.7731 9.9172 37.675 9.97605 37.6162C10.0349 37.5573 10.133 37.5769 10.1919 37.6358L13.0953 41.3817C13.1542 41.4406 13.1346 41.5386 13.0757 41.5975C13.0365 41.6171 13.0169 41.6367 12.9776 41.6367Z" fill="black"/>
<path d="M18.8826 20.4358C18.8629 20.4358 18.8629 20.4358 18.8433 20.4358C18.7649 20.4162 18.7256 20.3377 18.7452 20.2593L19.9223 15.6504C19.9419 15.5719 20.0204 15.5327 20.0989 15.5523C20.1774 15.5719 20.2166 15.6504 20.197 15.7288L19.0199 20.3377C19.0003 20.377 18.9414 20.4358 18.8826 20.4358Z" fill="black"/>
<path d="M45.2493 8.72726C45.1904 8.72726 45.1512 8.70765 45.1315 8.64881L42.64 4.60868C42.6008 4.53023 42.6204 4.45178 42.6793 4.41256C42.7578 4.37333 42.8362 4.39295 42.8755 4.45178L45.367 8.49192C45.4062 8.57037 45.3866 8.64881 45.3277 8.68804C45.3081 8.70765 45.2885 8.72726 45.2493 8.72726Z" fill="black"/>
<path d="M86.1337 10.3747C86.0945 10.3747 86.0749 10.3747 86.0356 10.3355C85.9768 10.2962 85.9572 10.1982 86.016 10.1197L88.8803 6.31493C88.9195 6.2561 89.0176 6.23648 89.0961 6.29532C89.1745 6.35416 89.1745 6.43261 89.1157 6.51106L86.2514 10.3158C86.2318 10.3551 86.173 10.3747 86.1337 10.3747Z" fill="black"/>
<path d="M111.323 9.29602C111.284 9.29602 111.245 9.27641 111.206 9.25679L108.008 5.74619C107.949 5.68735 107.949 5.58929 108.008 5.53046C108.067 5.47162 108.165 5.47162 108.224 5.53046L111.441 9.04106C111.5 9.09989 111.5 9.19796 111.441 9.25679C111.402 9.27641 111.363 9.29602 111.323 9.29602Z" fill="black"/>
<path d="M17.1562 2.62782C17.1366 2.62782 17.1366 2.62782 17.117 2.62782L12.546 1.29419C12.4675 1.27458 12.4283 1.19613 12.4479 1.11768C12.4675 1.03923 12.546 1 12.6244 1.01962L17.1955 2.35325C17.2739 2.37286 17.3132 2.45131 17.2936 2.52976C17.2739 2.5886 17.2151 2.62782 17.1562 2.62782Z" fill="black"/>
<path d="M156.877 9.31563C156.838 9.31563 156.799 9.29602 156.779 9.27641C156.72 9.21757 156.72 9.13912 156.759 9.06067L159.937 5.51085C159.996 5.45201 160.075 5.45201 160.153 5.49123C160.212 5.55007 160.212 5.62852 160.173 5.70697L157.014 9.2568C156.975 9.29602 156.916 9.31563 156.877 9.31563Z" fill="black"/>
<path d="M137.259 6.49145C137.2 6.49145 137.141 6.45223 137.121 6.39339C137.102 6.31494 137.141 6.23649 137.219 6.21688L141.751 4.78518C141.83 4.76557 141.908 4.80479 141.928 4.88324C141.947 4.96169 141.908 5.04014 141.83 5.05975L137.298 6.49145C137.278 6.49145 137.278 6.49145 137.259 6.49145Z" fill="black"/>
<path d="M20.6875 178.334C20.6483 178.334 20.6091 178.315 20.5894 178.295C20.5306 178.236 20.5306 178.138 20.5698 178.079L23.748 174.549C23.8068 174.49 23.9049 174.49 23.9638 174.53C24.0226 174.588 24.0226 174.687 23.9834 174.745L20.8052 178.276C20.766 178.315 20.7268 178.334 20.6875 178.334Z" fill="black"/>
<path d="M166.117 74.3304C166.078 74.3304 166.019 74.3108 165.999 74.2715L163.155 70.4668C163.115 70.4079 163.115 70.3099 163.194 70.2706C163.253 70.2314 163.351 70.2314 163.39 70.3099L166.235 74.1146C166.274 74.1735 166.274 74.2715 166.195 74.3108C166.176 74.3108 166.137 74.3304 166.117 74.3304Z" fill="black"/>
<path d="M185.598 53.6198C185.539 53.6198 185.48 53.5806 185.461 53.5218C185.441 53.4433 185.461 53.3649 185.539 53.3256L189.973 51.639C190.051 51.6194 190.13 51.639 190.169 51.7174C190.189 51.7959 190.169 51.8743 190.091 51.9135L185.657 53.6002C185.637 53.6198 185.618 53.6198 185.598 53.6198Z" fill="black"/>
<path d="M172.983 29.0064C172.944 29.0064 172.905 28.9867 172.865 28.9475L169.825 25.2996C169.766 25.2408 169.785 25.1427 169.844 25.0839C169.903 25.0251 170.001 25.0447 170.06 25.1035L173.101 28.7514C173.16 28.8102 173.14 28.9083 173.081 28.9671C173.062 28.9867 173.022 29.0064 172.983 29.0064Z" fill="black"/>
<path d="M181.439 13.1989C181.38 13.1989 181.321 13.1596 181.302 13.1008C181.262 13.0223 181.302 12.9439 181.38 12.9047L185.774 11.0807C185.853 11.0415 185.931 11.0807 185.971 11.1592C186.01 11.2376 185.971 11.3161 185.892 11.3553L181.498 13.1792C181.478 13.1989 181.458 13.1989 181.439 13.1989Z" fill="black"/>
<path d="M173.179 126.401C173.14 126.401 173.101 126.381 173.081 126.362L169.648 123.087C169.589 123.028 169.589 122.93 169.648 122.871C169.707 122.812 169.805 122.812 169.864 122.871L173.297 126.146C173.356 126.205 173.356 126.303 173.297 126.362C173.258 126.381 173.219 126.401 173.179 126.401Z" fill="black"/>
<path d="M50.409 165.704C50.3894 165.704 50.3502 165.704 50.3305 165.684L46.3873 163.037C46.3284 162.998 46.3088 162.9 46.348 162.841C46.3873 162.782 46.4854 162.762 46.5442 162.801L50.4875 165.449C50.5463 165.488 50.566 165.586 50.5267 165.645C50.4875 165.665 50.4482 165.704 50.409 165.704Z" fill="black"/>
<path d="M71.6947 173.196C71.6751 173.196 71.6555 173.196 71.6358 173.176C71.5574 173.137 71.5378 173.059 71.5574 172.98L73.578 168.685C73.6173 168.607 73.6957 168.587 73.7742 168.607C73.8527 168.646 73.8723 168.724 73.8527 168.803L71.832 173.118C71.7928 173.157 71.7536 173.196 71.6947 173.196Z" fill="black"/>
<path d="M168.373 180.433C168.334 180.433 168.314 180.413 168.275 180.394L164.606 177.373C164.548 177.315 164.528 177.236 164.587 177.158C164.646 177.099 164.724 177.079 164.803 177.138L168.471 180.158C168.53 180.217 168.55 180.296 168.491 180.374C168.452 180.413 168.412 180.433 168.373 180.433Z" fill="black"/>
<path d="M190.032 145.837C190.012 145.837 189.973 145.837 189.953 145.817C189.894 145.778 189.875 145.68 189.914 145.621L192.602 141.699C192.641 141.64 192.739 141.62 192.798 141.659C192.857 141.699 192.876 141.797 192.837 141.856L190.149 145.778C190.13 145.817 190.091 145.837 190.032 145.837Z" fill="black"/>
<path d="M48.4274 180.276C49.7276 180.276 50.7816 179.222 50.7816 177.923C50.7816 176.623 49.7276 175.569 48.4274 175.569C47.1272 175.569 46.0732 176.623 46.0732 177.923C46.0732 179.222 47.1272 180.276 48.4274 180.276Z" fill="#FFD6D3"/>
<path fill-rule="evenodd" clip-rule="evenodd" d="M13.6838 132.638C14.0173 132.932 14.4489 133.089 14.8805 133.089H14.9982C15.469 133.05 15.9006 132.814 16.2341 132.461C16.5676 132.108 16.7246 131.638 16.6854 131.147C16.6461 130.677 16.4303 130.225 16.0576 129.912C15.7044 129.578 15.2336 129.421 14.7432 129.461C13.7426 129.539 12.9971 130.402 13.056 131.402C13.0952 131.873 13.311 132.324 13.6838 132.638ZM13.8603 132.422C13.5661 132.167 13.3699 131.794 13.3503 131.383C13.2914 130.539 13.9388 129.814 14.7628 129.774C15.1551 129.755 15.5475 129.872 15.8614 130.147C16.1557 130.402 16.3518 130.775 16.3715 131.186C16.3911 131.579 16.2734 131.971 15.9987 132.285C15.7437 132.579 15.3709 132.775 14.959 132.795C14.5666 132.814 14.1742 132.697 13.8603 132.422Z" fill="black"/>
<path fill-rule="evenodd" clip-rule="evenodd" d="M123.624 13.042C123.801 13.14 123.997 13.1989 124.193 13.1989C124.527 13.1989 124.88 13.0223 125.076 12.7282C125.233 12.4928 125.272 12.1986 125.213 11.9437C125.154 11.6887 124.997 11.4534 124.762 11.2965C124.272 10.9827 123.624 11.1199 123.31 11.6103C123.153 11.8456 123.114 12.1202 123.173 12.3947C123.232 12.6497 123.389 12.8851 123.624 13.042ZM124.821 12.5516C124.605 12.9047 124.134 13.0027 123.781 12.787C123.605 12.6693 123.487 12.5124 123.448 12.3163C123.408 12.1202 123.428 11.9241 123.546 11.7475C123.761 11.3945 124.232 11.2965 124.585 11.5122C124.762 11.6103 124.88 11.7868 124.919 11.9829C124.958 12.179 124.939 12.3751 124.821 12.5516Z" fill="black"/>
<path fill-rule="evenodd" clip-rule="evenodd" d="M189.109 175.922C189.306 176.04 189.521 176.099 189.737 176.099C189.774 176.099 189.811 176.094 189.85 176.09C189.894 176.084 189.94 176.079 189.992 176.079C190.306 176.001 190.561 175.824 190.738 175.549C190.914 175.295 190.973 174.981 190.895 174.667C190.816 174.353 190.64 174.098 190.365 173.922C189.816 173.588 189.09 173.745 188.737 174.294C188.403 174.843 188.56 175.569 189.109 175.922ZM189.541 174.039C189.6 174.02 189.678 174.02 189.737 174.02C189.894 174.02 190.071 174.059 190.208 174.157C190.62 174.432 190.738 174.981 190.483 175.393C190.365 175.589 190.169 175.726 189.933 175.785C189.698 175.844 189.463 175.785 189.266 175.667C188.854 175.393 188.737 174.843 188.992 174.432C189.109 174.235 189.306 174.098 189.541 174.039Z" fill="black"/>
<path fill-rule="evenodd" clip-rule="evenodd" d="M29.8136 66.4236H154.937C155.016 66.4236 155.094 66.3451 155.094 66.2666V57.1259C155.094 57.0278 155.016 56.9689 154.937 56.9689H29.8136C29.7156 56.9689 29.6567 57.0474 29.6567 57.1259V66.2666C29.6567 66.3647 29.7352 66.4236 29.8136 66.4236ZM154.8 66.1293H29.9705V57.2828H154.8V66.1293Z" fill="black"/>
<path fill-rule="evenodd" clip-rule="evenodd" d="M29.8136 66.4236H154.937C155.016 66.4236 155.094 66.3451 155.094 66.2666V17.9343C155.094 17.8362 155.016 17.7774 154.937 17.7774H29.8136C29.7156 17.7774 29.6567 17.8558 29.6567 17.9343V66.2666C29.6567 66.3647 29.7352 66.4236 29.8136 66.4236ZM154.8 66.1293H29.9705V18.0716H154.8V66.1293Z" fill="black"/>
<path fill-rule="evenodd" clip-rule="evenodd" d="M83.777 97.357H154.937C155.016 97.357 155.094 97.2982 155.114 97.2197V72.2493C155.114 72.1513 155.035 72.0924 154.957 72.0924H83.777C83.6789 72.0924 83.6201 72.1709 83.6201 72.2493V97.2001C83.6201 97.2982 83.6986 97.357 83.777 97.357ZM154.8 97.0628H83.9142V72.3866H154.8V97.0628Z" fill="black"/>
<path d="M84.3838 107.392L106.782 103.183L124.444 143.403L154.957 157.718L155.237 173.776L120.426 163.186C120.426 163.186 115.115 161.325 110.857 157.118C106.627 153.466 107.347 153.466 103.467 148.152C99.5876 142.837 84.3838 107.392 84.3838 107.392Z" fill="#FFB2A8"/>
<path d="M69.321 112.8L91.7189 113.409L90.1131 155.097L114.503 184.118L89.5901 187.214L68.4287 155.748L69.321 112.8Z" fill="#FFB2A8"/>
<path fill-rule="evenodd" clip-rule="evenodd" d="M29.8136 155.026H76.914C76.9924 155.026 77.0708 154.948 77.0708 154.869V71.7197C77.0708 71.6216 76.9924 71.5628 76.914 71.5628H29.8136C29.7156 71.5628 29.6567 71.6412 29.6567 71.7197V154.869C29.6567 154.967 29.7352 155.026 29.8136 155.026ZM76.7767 154.732H29.9705V71.8766H76.7767V154.732Z" fill="black"/>
<path d="M111.877 36.3139C111.837 36.3139 111.798 36.2943 111.779 36.2747C110.053 34.4701 106.876 31.057 104.935 28.507C104.465 27.8793 103.484 26.6043 103.935 25.6824C104.112 25.3293 104.445 25.0743 104.817 25.0155C105.661 24.8978 106.386 25.8197 106.916 26.4866L106.974 26.5651C107.7 27.487 108.504 28.4285 109.406 29.3701C109.014 28.8012 108.7 28.2912 108.563 28.0951C108.151 27.4674 107.798 26.9378 107.484 26.4866C106.367 24.8389 105.896 24.1524 106.19 23.407C106.367 22.9558 106.798 22.6028 107.21 22.5439C108.112 22.4066 108.876 23.5443 110.014 25.2508L110.112 25.3881C111.092 26.8593 112.132 28.3697 113.19 29.8997C113.23 29.9585 113.23 30.0566 113.151 30.0958C113.092 30.1351 112.994 30.1351 112.955 30.0566C111.896 28.5266 110.857 27.0162 109.877 25.5451L109.778 25.4078C108.739 23.8581 107.994 22.7205 107.269 22.8381C106.955 22.8774 106.621 23.1716 106.484 23.5247C106.249 24.1131 106.68 24.7605 107.739 26.3297C108.053 26.7808 108.406 27.3105 108.818 27.9382C108.955 28.1539 109.308 28.7032 109.72 29.3112C110.033 29.782 110.347 30.2332 110.622 30.6255L110.68 30.7039C111.406 31.567 111.426 31.5866 111.406 31.7043C111.406 31.7435 111.386 31.7828 111.347 31.8024C111.21 31.9005 111.171 31.9201 110.406 30.8216C110.406 30.8216 110.406 30.8216 110.386 30.802C109.014 29.4485 107.798 28.0951 106.759 26.7612L106.7 26.6828C106.249 26.0943 105.563 25.2116 104.876 25.3097C104.602 25.3489 104.327 25.5451 104.21 25.8001C103.837 26.5651 104.778 27.8008 105.17 28.3305C107.112 30.8805 110.269 34.2739 111.994 36.0785C112.053 36.1374 112.053 36.2355 111.994 36.2943C111.955 36.2943 111.916 36.3139 111.877 36.3139Z" fill="black"/>
<path d="M120.916 35.902C120.858 35.902 120.799 35.8628 120.779 35.8039C120.779 35.7843 120.76 35.7255 120.72 35.647C120.662 35.5097 120.583 35.2939 120.465 35.0193C119.995 33.8032 119.054 31.5082 118.485 30.1939C117.897 28.8601 117.308 27.6243 116.995 27.0162L116.916 26.8593C116.838 26.7024 116.779 26.5847 116.524 26.0159L116.25 25.4078C115.406 23.5443 114.975 22.6028 114.367 22.5635C114.093 22.5439 113.779 22.7205 113.602 22.9559C113.289 23.407 113.563 24.0739 114.073 25.2901C114.21 25.6235 114.348 25.9766 114.504 26.3885C114.838 27.2712 115.171 28.1932 115.446 29.1347C115.465 29.2132 115.426 29.2916 115.367 29.3112C115.308 29.3505 115.21 29.3112 115.191 29.2524C114.269 27.7028 113.426 26.1728 112.661 24.7016L112.563 24.5251C111.916 23.2893 111.367 22.2301 110.661 22.2301C110.387 22.2301 110.112 22.3674 109.955 22.5832C109.583 23.1128 110.092 24.1524 111.092 26.0551C111.74 27.2909 112.406 28.5266 113.073 29.7232C113.112 29.8016 113.093 29.8801 113.014 29.9193C112.936 29.9585 112.857 29.9389 112.818 29.8605C112.151 28.6443 111.485 27.4085 110.818 26.1924C109.72 24.1328 109.21 23.0932 109.681 22.4262C109.896 22.132 110.269 21.9359 110.622 21.9359C111.504 21.9359 112.112 23.0735 112.798 24.3878L112.896 24.5643C113.465 25.6432 114.073 26.7612 114.72 27.8989C114.563 27.4085 114.387 26.9378 114.21 26.4866C114.053 26.0747 113.897 25.7216 113.779 25.4078C113.23 24.0935 112.936 23.3678 113.347 22.7793C113.583 22.4459 113.995 22.2497 114.367 22.2693C115.171 22.3085 115.583 23.2305 116.505 25.2705L116.779 25.8785C117.034 26.4278 117.093 26.5455 117.171 26.7024L117.25 26.8397C117.563 27.4674 118.171 28.7228 118.74 30.037C119.328 31.3709 120.25 33.6659 120.72 34.882C120.838 35.1566 120.916 35.3724 120.975 35.5097C121.015 35.5882 121.034 35.647 121.034 35.6666C121.054 35.7451 121.015 35.8236 120.936 35.8628C120.956 35.902 120.936 35.902 120.916 35.902Z" fill="black"/>
<path d="M110.955 39.7074C110.916 39.7074 110.877 39.6878 110.857 39.6682C110.798 39.6093 110.739 39.5505 110.681 39.4916C110.641 39.472 110.622 39.4328 110.583 39.4132C109.739 38.6285 108.837 37.9812 107.896 37.4909C107.602 37.3339 107.328 37.1966 107.053 37.0789C106.151 36.6474 105.425 36.3139 105.249 35.5685C105.131 35.0782 105.269 34.5289 105.602 34.2347C106.229 33.6659 107.367 34.0385 108.681 34.4897C109.524 34.7839 110.171 35.1174 110.7 35.3724C111.132 35.5882 111.563 35.8235 111.975 36.0785C112.191 35.8824 112.426 35.6862 112.661 35.5097C112.936 35.3135 113.406 35.0389 113.995 34.8624C114.72 34.627 115.485 34.5682 116.25 34.6662C116.328 34.6859 116.387 34.7447 116.387 34.8232C116.367 34.9016 116.308 34.9605 116.23 34.9605C115.504 34.8624 114.779 34.9409 114.093 35.1566C113.524 35.3332 113.093 35.5882 112.838 35.7647C112.563 35.9412 112.328 36.157 112.112 36.3728C112.073 36.412 111.994 36.4316 111.936 36.3924C111.504 36.1374 111.053 35.8824 110.583 35.647C110.053 35.3724 109.406 35.0585 108.602 34.7839C107.367 34.372 106.308 33.9993 105.818 34.4701C105.543 34.7251 105.484 35.1959 105.563 35.5293C105.7 36.1374 106.327 36.4316 107.21 36.8435C107.484 36.9809 107.759 37.1182 108.073 37.2751C109.053 37.7851 109.975 38.452 110.818 39.2562C110.857 39.2759 110.877 39.3151 110.916 39.3543C110.975 39.4132 111.034 39.472 111.112 39.5309C111.171 39.5897 111.171 39.6878 111.112 39.7466C111.034 39.6878 110.994 39.7074 110.955 39.7074Z" fill="black"/>
<path d="M111.014 32.3908C110.994 32.3908 110.975 32.3908 110.955 32.3712C110.877 32.332 110.857 32.2535 110.877 32.1751C111.249 31.3905 111.779 30.7235 112.426 30.2135C114.053 28.9581 115.916 29.0758 116.642 29.1739C116.72 29.1935 116.779 29.2524 116.759 29.3505C116.74 29.4289 116.681 29.4878 116.583 29.4681C115.897 29.3701 114.132 29.272 112.583 30.4489C111.955 30.9197 111.445 31.567 111.112 32.3124C111.132 32.3712 111.073 32.3908 111.014 32.3908Z" fill="black"/>
<path d="M120.857 35.6078C117.563 36.922 114.269 38.2363 110.955 39.5505C110.896 39.4916 110.837 39.4328 110.759 39.3739C114.033 37.9028 117.308 36.4316 120.602 34.9605C120.72 35.2547 120.798 35.4705 120.857 35.6078Z" fill="black"/>
<path d="M58.6972 40.237C58.5795 40.8255 58.7364 41.4335 58.7756 41.512C58.8737 41.8651 59.0109 42.1201 59.1286 42.2966C58.756 42.2378 58.3639 42.1789 57.9913 42.1397C56.4618 40.8059 54.9127 39.472 53.3832 38.1382C50.9125 39.9232 48.4418 41.7082 45.9711 43.5128C45.7358 42.9243 44.4416 39.5112 46.1672 36.0001C48.481 31.2728 54.0107 30.9589 54.246 30.9589C58.9717 30.7824 62.7758 34.3132 64.1288 38.0597C65.1877 40.9824 64.6387 43.6305 64.3249 44.7682C63.8935 44.1012 63.4621 43.4539 63.0111 42.787C63.7563 42.022 63.9916 40.9039 63.6386 39.9624C63.2072 38.8247 62.0111 38.1382 60.8346 38.3147C59.7169 38.4716 58.8737 39.3543 58.6972 40.237Z" fill="black"/>
<path d="M57.7362 52.732C57.6774 52.732 57.6185 52.6928 57.5989 52.6536L57.0695 51.5355C56.6185 51.7709 56.1479 51.9474 55.6773 52.0455C55.2263 52.1436 54.7556 52.2024 54.3242 52.1828C51.0692 52.0651 48.873 48.8089 47.9318 47.4163C46.716 45.6116 45.9513 43.3559 45.9513 43.3363C45.9317 43.2578 45.9709 43.1597 46.0493 43.1401C46.1278 43.1205 46.2062 43.1401 46.2258 43.2186V43.2382C46.2258 43.2578 46.9906 45.4743 48.1671 47.2593C49.0887 48.6128 51.2064 51.7905 54.3242 51.8886C54.7556 51.9082 55.187 51.869 55.6184 51.7513C56.089 51.6336 56.5793 51.457 57.0499 51.202H57.0695C57.1087 51.1824 57.1479 51.1824 57.1871 51.1824C57.2263 51.202 57.2656 51.2216 57.2852 51.2609L57.8734 52.5163C57.9127 52.5947 57.8734 52.6732 57.795 52.7124C57.7754 52.7124 57.7558 52.732 57.7362 52.732Z" fill="black"/>
<path d="M66.0698 47.377C66.0306 47.377 65.9718 47.3574 65.9522 47.3182L65.2855 46.2786C64.7168 45.3959 64.1481 44.4936 63.5795 43.6109C63.5403 43.552 63.5599 43.454 63.6187 43.4147C63.6775 43.3755 63.7756 43.3951 63.8148 43.454C64.3834 44.3367 64.9521 45.239 65.5208 46.1217L66.1875 47.1613C66.2267 47.2201 66.2071 47.3182 66.1482 47.3574C66.1286 47.3574 66.109 47.377 66.0698 47.377Z" fill="black"/>
<path d="M57.7361 52.5751L59.7754 51.2609C59.795 51.2216 59.8146 51.202 59.8343 51.1628C60.6578 49.5739 60.9716 48.1224 61.0892 47.1416C60.6578 47.9851 59.8735 49.2209 58.5205 50.2801C58.0106 50.692 57.5008 50.9862 57.0498 51.2216C57.0694 51.2609 57.089 51.3001 57.1086 51.3393C57.3047 51.7512 57.5204 52.1632 57.7361 52.5751Z" fill="black"/>
<path d="M76.9138 71.7197V111.774C75.6393 112.186 74.3451 112.579 73.0705 112.991C72.5607 113.147 72.0312 113.324 71.5214 113.481C71.1684 113.599 69.9331 113.971 69.5605 114.109C69.4429 114.148 66.2074 115.168 66.0505 115.207C65.3642 111.304 63.07 91.649 62.7955 86.4313C61.7954 91.3547 59.9326 94.8855 58.56 97.0628C56.7168 99.9659 55.3049 102.182 52.5989 103.34C51.7557 103.712 49.4027 104.556 42.069 102.594C38.9512 101.771 34.6765 100.358 29.8135 97.8474C29.8135 93.022 29.8135 88.1967 29.8135 83.3713C32.4214 84.6463 35.4804 85.9213 38.9708 87.0393C41.5984 87.8632 44.0691 88.4713 46.3241 88.9224C46.8535 86.804 47.4614 84.6267 48.1085 82.4101C49.2262 78.644 50.4223 75.074 51.6577 71.7197H76.9138V71.7197Z" fill="#009691"/>
<path fill-rule="evenodd" clip-rule="evenodd" d="M65.9721 115.344C65.9917 115.364 66.0309 115.364 66.0505 115.364C66.0505 115.364 66.0701 115.364 66.0897 115.344L76.9726 111.912C77.0315 111.892 77.0707 111.833 77.0707 111.774V71.7394C77.0707 71.6413 76.9922 71.5824 76.9138 71.5824H51.7165C51.6577 71.5824 51.5988 71.6217 51.5792 71.6805C50.285 75.1917 49.0889 78.7813 48.03 82.3709C47.4026 84.4894 46.8143 86.6274 46.2652 88.7655C43.8337 88.2947 41.4023 87.6671 39.0492 86.9217C35.9314 85.9409 32.8528 84.7051 29.9115 83.2732C29.8723 83.234 29.8135 83.2536 29.7742 83.2732C29.7154 83.2928 29.6958 83.332 29.6958 83.3909V97.8671C29.6958 97.9259 29.7154 97.9847 29.7742 98.0044C33.7352 100.025 37.8727 101.633 42.069 102.751C49.6448 104.783 51.9323 103.819 52.6873 103.501L52.6969 103.497C55.4422 102.32 56.8932 100.044 58.7168 97.1609C60.5601 94.2382 61.9131 91.0017 62.7366 87.5101C63.1876 94.0028 65.2858 111.716 65.9133 115.246C65.9133 115.286 65.9329 115.325 65.9721 115.344ZM62.9327 86.4313C62.9327 86.3528 62.8739 86.294 62.7955 86.294C62.717 86.294 62.6582 86.3528 62.6582 86.4313C61.8738 90.2759 60.462 93.8263 58.4423 97.004L58.4404 97.0069C56.5786 99.9477 55.2256 102.085 52.5597 103.222C51.8341 103.536 49.638 104.477 42.1278 102.477C37.9707 101.359 33.8921 99.7894 29.9703 97.7886V83.6459C32.8528 85.0386 35.8726 86.2547 38.9315 87.2159C41.3434 87.9809 43.8141 88.6086 46.3045 89.099C46.3829 89.099 46.4613 89.0597 46.4809 88.9813C47.03 86.804 47.6379 84.6267 48.2653 82.469C49.3242 78.9186 50.5007 75.3486 51.7753 71.8767H76.7569V111.657L66.1486 115.011C65.4623 110.892 63.2072 91.6882 62.9327 86.4313Z" fill="black"/>
<path d="M83.7769 103.183H104.19C104.17 103.183 104.15 103.202 104.131 103.202C101.856 103.928 99.5619 104.634 97.2873 105.36C96.8559 105.497 96.4049 105.635 95.9735 105.772C93.2479 106.635 90.5419 107.479 87.8163 108.342C86.4633 108.773 85.1103 109.185 83.7769 109.617V103.183Z" fill="#009691"/>
<path fill-rule="evenodd" clip-rule="evenodd" d="M83.6985 109.754C83.7181 109.774 83.7377 109.774 83.7769 109.774C83.7769 109.774 83.7965 109.774 83.8161 109.754L87.8555 108.479C89.2183 108.047 90.5762 107.621 91.9341 107.194C93.2921 106.768 94.65 106.341 96.0128 105.909L96.052 105.89C96.3991 105.795 96.7334 105.688 97.0755 105.578C97.1587 105.551 97.2423 105.524 97.3266 105.497C98.4639 105.135 99.6061 104.777 100.748 104.419C101.891 104.061 103.033 103.703 104.17 103.34L104.249 103.32C104.307 103.301 104.347 103.222 104.347 103.163C104.347 103.104 104.288 103.046 104.209 103.046H83.7965C83.6985 103.046 83.6396 103.124 83.6396 103.202V109.636C83.6396 109.676 83.6593 109.734 83.6985 109.754ZM83.9142 109.421V103.34H103.248L97.2482 105.223C96.9011 105.317 96.5667 105.425 96.2247 105.535C96.1415 105.561 96.0579 105.588 95.9736 105.615L95.9344 105.635C94.5715 106.066 93.2136 106.493 91.8557 106.92C90.4978 107.346 89.1399 107.773 87.7771 108.204L83.9142 109.421Z" fill="black"/>
<path d="M99.0521 72.2493C103.268 80.5663 107.504 88.8832 111.719 97.2197H83.7769V72.2493H99.0521Z" fill="#009691"/>
<path fill-rule="evenodd" clip-rule="evenodd" d="M83.777 97.357H111.72C111.778 97.357 111.818 97.3374 111.857 97.2786C111.876 97.2393 111.876 97.1805 111.857 97.1413L99.1895 72.1709C99.1503 72.1316 99.1111 72.0924 99.0522 72.0924H83.777C83.6789 72.0924 83.6201 72.1709 83.6201 72.2493V97.2001C83.6201 97.2982 83.6986 97.357 83.777 97.357ZM111.484 97.0628H83.9142V72.3866H98.9542L111.484 97.0628Z" fill="black"/>
<path d="M134.073 66.2666H52.6772C53.0694 64.7563 53.54 63.2263 54.1675 61.7355C54.8146 60.1466 55.6186 58.597 56.5794 57.1259C56.9716 56.5178 57.403 55.9293 57.8736 55.3605C57.6187 55.0859 56.3049 53.9678 55.9911 53.752C59.3638 51.5747 62.717 49.3974 66.0897 47.2201C66.5015 46.9455 66.9132 46.6709 67.325 46.4159C67.5603 47.0632 67.7956 47.7301 68.0309 48.3774C68.5604 48.2009 69.0898 48.0439 69.5996 47.9066C71.1487 47.4751 72.5802 47.2201 73.7763 47.0239C89.1692 44.3955 103.425 51.4766 112.033 57.1455C115.112 59.1855 117.484 61.0293 118.896 62.1866C118.171 60.4997 117.426 58.8324 116.7 57.1455C114.249 51.5159 111.798 45.8666 109.347 40.237C109.896 40.0212 110.425 39.8055 110.974 39.5701C114.249 38.2362 117.543 36.922 120.818 35.5882C120.818 35.6078 120.837 35.6078 120.837 35.6274C120.857 35.6666 120.896 35.7255 120.916 35.7647C123.289 39.6878 126.289 45.1997 129.014 52.0847C129.701 53.8109 130.367 55.4978 130.975 57.1259C132.25 60.4409 133.348 63.5205 134.073 66.2666Z" fill="#009691"/>
<path fill-rule="evenodd" clip-rule="evenodd" d="M52.6771 66.4236H134.073C134.112 66.4236 134.171 66.404 134.152 66.3843C134.171 66.3647 134.191 66.3059 134.171 66.2666C133.544 63.8736 132.583 61.0489 131.073 57.1063C130.465 55.537 129.838 53.9286 129.171 52.222L129.112 52.0651C126.877 46.4355 124.151 40.9432 120.994 35.7255C120.975 35.7059 120.955 35.6666 120.935 35.6274L120.916 35.6078C120.916 35.6078 120.916 35.5882 120.896 35.5686C120.857 35.5097 120.778 35.4901 120.72 35.5097L109.249 40.1389C109.209 40.1586 109.19 40.1782 109.17 40.2174C109.15 40.2566 109.15 40.2959 109.17 40.3351L118.484 61.7355C116.386 60.0682 114.288 58.5186 112.072 57.067C102.895 51.0255 88.7769 44.3562 73.6978 46.9259C72.482 47.1416 71.0506 47.3966 69.5211 47.8086C69.0505 47.9262 68.5603 48.0832 68.0896 48.2401L67.4229 46.4159C67.4033 46.357 67.3641 46.3374 67.3249 46.3178C67.2857 46.2982 67.2465 46.3178 67.2072 46.3374L65.9915 47.1416L55.893 53.6736C55.8537 53.6932 55.8341 53.752 55.8341 53.7913C55.8341 53.8305 55.8537 53.8893 55.893 53.9089C56.1871 54.0855 57.2852 55.027 57.6774 55.3997C57.246 55.9293 56.8538 56.4786 56.4616 57.067C55.54 58.4597 54.7164 60.0289 54.0301 61.6963C53.4419 63.1086 52.9516 64.6386 52.5399 66.247C52.5203 66.2863 52.5399 66.3255 52.5595 66.3647C52.5987 66.404 52.6379 66.4236 52.6771 66.4236ZM133.877 66.1293H52.8732C53.2654 64.5993 53.7556 63.1478 54.3047 61.7551C54.991 60.1074 55.7949 58.5774 56.7165 57.1847C57.1087 56.5766 57.5401 55.9882 57.9911 55.4389C58.0499 55.3801 58.0499 55.3016 57.9911 55.2428C57.7558 55.0074 56.7165 54.1247 56.2459 53.752L66.168 47.3378L67.2465 46.6316L67.8936 48.4166C67.9132 48.4951 67.9916 48.5343 68.07 48.5147C68.5799 48.3382 69.1093 48.1813 69.6191 48.0439C71.1486 47.632 72.5605 47.377 73.7762 47.1613C88.7573 44.5916 102.797 51.2413 111.935 57.2436C114.308 58.8128 116.563 60.4605 118.798 62.2847C118.837 62.3239 118.916 62.3239 118.974 62.2847C119.014 62.2455 119.033 62.167 119.014 62.1082L109.523 40.2959L120.739 35.7647C120.747 35.7797 120.751 35.7918 120.755 35.8022C120.762 35.8189 120.766 35.831 120.778 35.8432C123.936 41.0412 126.661 46.5336 128.877 52.1436L128.936 52.3005C129.602 54.007 130.23 55.6155 130.838 57.1847C132.308 61.0097 133.25 63.7951 133.877 66.1293Z" fill="black"/>
<path d="M134.975 72.2493C134.955 74.2305 134.465 75.8586 133.348 77.0551C128.896 81.7824 116.249 77.5847 109.327 75.2701C106.483 74.3286 103.993 73.2693 101.895 72.2493H134.975Z" fill="#009691"/>
<path fill-rule="evenodd" clip-rule="evenodd" d="M109.307 75.4074C113.876 76.9374 121.092 79.3501 126.74 79.3501C129.544 79.3501 131.956 78.7616 133.465 77.1532C134.563 75.9763 135.113 74.3874 135.132 72.2493C135.132 72.2101 135.113 72.1709 135.093 72.1513C135.073 72.1316 135.034 72.112 134.995 72.112H101.915C101.856 72.112 101.797 72.1709 101.778 72.2297C101.758 72.2886 101.797 72.3474 101.856 72.3866C104.268 73.544 106.758 74.564 109.307 75.4074ZM109.386 75.1132C107.072 74.3286 104.778 73.4263 102.562 72.3866H134.818C134.779 74.3678 134.269 75.8586 133.25 76.9374C128.843 81.6198 116.221 77.3988 109.41 75.1214L109.386 75.1132Z" fill="black"/>
<path d="M114.328 184.371C114.289 184.371 114.249 184.351 114.21 184.312L95.0523 162.519C93.4051 160.636 91.7384 158.753 90.0912 156.87C90.0716 156.851 90.052 156.811 90.052 156.772C90.0324 155.987 90.0128 155.183 90.0128 154.261C89.9736 151.554 89.9736 148.808 90.0128 146.101C90.052 143.983 90.1109 141.786 90.2089 139.589C90.2285 139.04 90.2481 138.49 90.2873 137.941C90.4246 135.215 90.6011 132.469 90.8168 129.762C91.0129 127.427 91.2286 125.074 91.4835 122.759C91.4835 122.7 91.5423 122.641 91.6207 122.622C91.6992 122.622 91.758 122.661 91.7776 122.72C92.5816 125.074 93.464 127.427 94.4052 129.703C94.9542 131.017 95.5229 132.331 96.1111 133.606C96.1896 133.783 96.268 133.959 96.3465 134.136C96.8955 135.332 97.4838 136.607 98.0916 137.843C99.68 141.178 100.994 143.689 102.327 145.984C102.974 147.102 103.621 148.122 104.249 149.083C105.465 150.907 106.739 152.594 108.033 154.104C109.406 155.674 110.857 157.125 112.367 158.4C112.563 158.557 112.759 158.734 112.955 158.891C114.485 160.126 115.896 161.068 118.661 162.206C119.21 162.441 119.818 162.676 120.465 162.912C122.426 163.657 124.936 164.501 128.603 165.658C130.701 166.325 133.25 167.109 136.603 168.129L136.76 168.169C139.094 168.875 141.466 169.601 143.976 170.346L144.917 170.621C147.741 171.464 150.467 172.268 153.075 173.033L154.996 173.602C155.075 173.622 155.114 173.7 155.094 173.779C155.075 173.857 154.996 173.896 154.918 173.877L152.996 173.308C150.408 172.543 147.663 171.739 144.839 170.895L143.898 170.621C141.388 169.875 139.035 169.149 136.682 168.443L136.525 168.404C133.172 167.384 130.623 166.599 128.525 165.932C124.858 164.775 122.328 163.912 120.367 163.186C119.72 162.931 119.112 162.696 118.544 162.461C115.759 161.303 114.328 160.362 112.779 159.106C112.583 158.949 112.367 158.773 112.171 158.616C110.641 157.321 109.171 155.87 107.798 154.281C106.484 152.771 105.21 151.064 103.994 149.22C103.347 148.239 102.719 147.219 102.053 146.101C100.7 143.806 99.4054 141.276 97.7975 137.941C97.2092 136.686 96.621 135.411 96.0523 134.234C95.9739 134.057 95.8955 133.881 95.817 133.704C95.2288 132.429 94.6601 131.115 94.1111 129.781C93.2483 127.682 92.4443 125.544 91.6992 123.406C91.4835 125.505 91.2678 127.643 91.1109 129.742C90.8952 132.449 90.7187 135.175 90.5815 137.882C90.5619 138.432 90.5226 138.981 90.503 139.53C90.405 141.727 90.3462 143.904 90.3069 146.023C90.2677 148.71 90.2481 151.456 90.3069 154.163C90.3266 155.046 90.3266 155.85 90.3462 156.615C91.9933 158.479 93.6404 160.362 95.268 162.225L114.426 184.018C114.485 184.077 114.465 184.175 114.406 184.234C114.406 184.371 114.367 184.371 114.328 184.371Z" fill="black"/>
<path d="M154.937 156.105C154.917 156.105 154.898 156.105 154.878 156.086C154.408 155.889 153.937 155.674 153.486 155.477L144.819 151.652C142.093 150.456 139.387 149.259 136.662 148.063C135.309 147.474 133.956 146.866 132.603 146.278L132.367 146.18C131.073 145.611 129.799 145.042 128.504 144.473L125.896 143.316C125.857 143.296 125.838 143.277 125.818 143.237L116.661 121.386C115.563 118.777 114.484 116.188 113.386 113.579L109.052 103.242C109.013 103.163 109.052 103.085 109.131 103.045C109.209 103.006 109.288 103.045 109.327 103.124L113.661 113.461C114.759 116.07 115.837 118.659 116.935 121.268L126.073 143.061L128.622 144.179C129.916 144.748 131.191 145.317 132.485 145.886L132.72 145.984C134.073 146.572 135.426 147.18 136.779 147.769C139.505 148.965 142.211 150.162 144.937 151.358L153.604 155.183C154.074 155.379 154.525 155.595 154.996 155.791C155.074 155.831 155.114 155.909 155.074 155.987C155.055 156.066 154.996 156.105 154.937 156.105Z" fill="black"/>
<path d="M68.7566 155.026C68.6782 155.026 68.6194 154.967 68.6194 154.889C68.5998 154.693 68.5801 154.497 68.5605 154.301C68.3645 151.829 68.286 149.161 68.3252 146.14C68.3645 143.237 68.5213 140.511 68.6782 137.98C68.6978 137.49 68.737 137.019 68.7566 136.588L68.7762 136.431C68.9135 134.155 69.0115 132.017 69.1096 129.84C69.2272 127.133 69.3057 124.387 69.3449 121.68C69.3841 119.248 69.4233 116.698 69.4233 114.128C69.4233 114.05 69.4822 113.971 69.5802 113.971C69.6586 113.971 69.7371 114.03 69.7175 114.128C69.7175 116.698 69.6979 119.248 69.639 121.7C69.5802 124.407 69.5018 127.153 69.4037 129.86C69.3253 132.017 69.2076 134.175 69.0704 136.45L69.0508 136.607C69.0312 137.059 68.9919 137.529 68.9723 138C68.8155 140.53 68.6782 143.257 68.6194 146.14C68.5801 149.142 68.6586 151.809 68.8547 154.281C68.8743 154.477 68.8939 154.673 68.9135 154.869C68.8939 154.948 68.8351 155.007 68.7566 155.026Z" fill="black"/>
<path d="M112.269 97.357H104.111C104.033 97.357 103.955 97.2982 103.955 97.2001C103.955 97.102 104.013 97.0432 104.111 97.0432H112.269C112.347 97.0432 112.426 97.102 112.426 97.2001C112.426 97.2982 112.347 97.357 112.269 97.357Z" fill="black"/>
<path d="M110.111 105.517H97.2872C97.2088 105.517 97.1304 105.458 97.1304 105.36C97.1304 105.262 97.1892 105.203 97.2872 105.203H110.111C110.19 105.203 110.268 105.262 110.268 105.36C110.268 105.458 110.19 105.517 110.111 105.517Z" fill="black"/>
<path d="M76.9141 113.657H71.5021C71.4237 113.657 71.3452 113.599 71.3452 113.5C71.3452 113.402 71.404 113.344 71.5021 113.344H76.9141C76.9926 113.344 77.071 113.402 77.071 113.5C77.071 113.599 76.9926 113.657 76.9141 113.657Z" fill="black"/>
<path d="M113.524 113.657H83.777C83.6986 113.657 83.6201 113.599 83.6201 113.5C83.6201 113.402 83.6789 113.344 83.777 113.344H113.524C113.602 113.344 113.68 113.402 113.68 113.5C113.68 113.599 113.602 113.657 113.524 113.657Z" fill="black"/>
<path d="M116.935 121.817H83.777C83.6986 121.817 83.6201 121.759 83.6201 121.66C83.6201 121.562 83.6789 121.504 83.777 121.504H116.955C117.034 121.504 117.112 121.562 117.112 121.66C117.112 121.759 117.034 121.817 116.935 121.817Z" fill="black"/>
<path d="M76.9139 121.817H69.4625C69.3841 121.817 69.3057 121.759 69.3057 121.66C69.3057 121.562 69.3645 121.504 69.4625 121.504H76.9139C76.9923 121.504 77.0708 121.562 77.0708 121.66C77.0708 121.759 76.9923 121.817 76.9139 121.817Z" fill="black"/>
<path d="M120.426 129.977H94.2677C94.1893 129.977 94.1108 129.919 94.1108 129.82C94.1108 129.722 94.1697 129.664 94.2677 129.664H120.426C120.504 129.664 120.583 129.722 120.583 129.82C120.583 129.919 120.504 129.977 120.426 129.977Z" fill="black"/>
<path d="M90.9734 129.977H83.777C83.6986 129.977 83.6201 129.919 83.6201 129.82C83.6201 129.722 83.6789 129.664 83.777 129.664H90.9734C91.0519 129.664 91.1303 129.722 91.1303 129.82C91.1303 129.919 91.0519 129.977 90.9734 129.977Z" fill="black"/>
<path d="M76.9138 129.977H69.2272C69.1487 129.977 69.0703 129.919 69.0703 129.82C69.0703 129.722 69.1291 129.664 69.2272 129.664H76.9138C76.9923 129.664 77.0707 129.722 77.0707 129.82C77.0707 129.919 76.9923 129.977 76.9138 129.977Z" fill="black"/>
<path d="M123.779 138.118H97.9347C97.8563 138.118 97.7778 138.059 97.7778 137.961C97.7778 137.863 97.8367 137.804 97.9347 137.804H123.779C123.858 137.804 123.936 137.863 123.936 137.961C123.936 138.059 123.858 138.118 123.779 138.118Z" fill="black"/>
<path d="M76.9141 138.118H68.796C68.7176 138.118 68.6392 138.059 68.6392 137.961C68.6392 137.863 68.698 137.804 68.796 137.804H76.9141C76.9925 137.804 77.0709 137.863 77.0709 137.961C77.0709 138.059 76.9925 138.118 76.9141 138.118Z" fill="black"/>
<path d="M90.444 138.118H83.777C83.6986 138.118 83.6201 138.059 83.6201 137.961C83.6201 137.863 83.6789 137.804 83.777 137.804H90.444C90.5224 137.804 90.6009 137.863 90.6009 137.961C90.6009 138.059 90.5224 138.118 90.444 138.118Z" fill="black"/>
<path d="M132.662 146.278H102.19C102.111 146.278 102.033 146.219 102.033 146.121C102.033 146.023 102.092 145.964 102.19 145.964H132.662C132.74 145.964 132.819 146.023 132.819 146.121C132.819 146.219 132.74 146.278 132.662 146.278Z" fill="black"/>
<path d="M76.9139 146.278H68.4625C68.3841 146.278 68.3057 146.219 68.3057 146.121C68.3057 146.023 68.3645 145.964 68.4625 145.964H76.9139C76.9924 145.964 77.0708 146.023 77.0708 146.121C77.0708 146.219 76.9924 146.278 76.9139 146.278Z" fill="black"/>
<path d="M90.1695 146.278H83.777C83.6986 146.278 83.6201 146.219 83.6201 146.121C83.6201 146.023 83.6789 145.964 83.777 145.964H90.1695C90.2479 145.964 90.3263 146.023 90.3263 146.121C90.3263 146.219 90.2479 146.278 90.1695 146.278Z" fill="black"/>
<path d="M90.1695 155.026H83.777C83.6986 155.026 83.6201 154.967 83.6201 154.869C83.6201 154.771 83.6789 154.712 83.777 154.712H90.1695C90.2479 154.712 90.3263 154.771 90.3263 154.869C90.3263 154.967 90.2479 155.026 90.1695 155.026Z" fill="black"/>
<path d="M151.133 154.438H107.916C107.837 154.438 107.759 154.379 107.759 154.281C107.759 154.183 107.818 154.124 107.916 154.124H151.133C151.212 154.124 151.29 154.183 151.29 154.281C151.29 154.379 151.232 154.438 151.133 154.438Z" fill="black"/>
<path d="M95.1697 162.578H83.777C83.6986 162.578 83.6201 162.519 83.6201 162.421C83.6201 162.323 83.6789 162.264 83.777 162.264H95.1893C95.2677 162.264 95.3462 162.323 95.3462 162.421C95.3462 162.519 95.2481 162.578 95.1697 162.578Z" fill="black"/>
<path d="M154.937 162.578H118.602C118.524 162.578 118.445 162.519 118.445 162.421C118.445 162.323 118.504 162.264 118.602 162.264H154.937C155.016 162.264 155.094 162.323 155.094 162.421C155.094 162.519 155.016 162.578 154.937 162.578Z" fill="black"/>
<path d="M102.347 170.738H83.777C83.6986 170.738 83.6201 170.679 83.6201 170.581C83.6201 170.483 83.6789 170.424 83.777 170.424H102.347C102.425 170.424 102.503 170.483 102.503 170.581C102.503 170.679 102.425 170.738 102.347 170.738Z" fill="black"/>
<path d="M154.937 170.738H143.917C143.839 170.738 143.76 170.679 143.76 170.581C143.76 170.483 143.819 170.424 143.917 170.424H154.937C155.016 170.424 155.094 170.483 155.094 170.581C155.094 170.679 155.016 170.738 154.937 170.738Z" fill="black"/>
<path d="M109.504 178.898H83.777C83.6986 178.898 83.6201 178.839 83.6201 178.741C83.6201 178.643 83.6789 178.584 83.777 178.584H109.523C109.602 178.584 109.68 178.643 109.68 178.741C109.68 178.839 109.582 178.898 109.504 178.898Z" fill="black"/>
<path d="M71.5216 155.026C71.4432 155.026 71.3647 154.967 71.3647 154.869V113.481C71.3647 113.402 71.4236 113.324 71.5216 113.324C71.6197 113.324 71.6785 113.383 71.6785 113.481V154.869C71.6589 154.948 71.6001 155.026 71.5216 155.026Z" fill="black"/>
<path d="M87.8165 184.371C87.7381 184.371 87.6597 184.312 87.6597 184.214V178.722V108.342C87.6597 108.263 87.7185 108.185 87.8165 108.185C87.9146 108.185 87.9734 108.244 87.9734 108.342V184.234C87.9538 184.312 87.895 184.371 87.8165 184.371Z" fill="black"/>
<path d="M95.9738 133.881C95.8953 133.881 95.8169 133.822 95.8169 133.724V105.772C95.8169 105.694 95.8757 105.615 95.9738 105.615C96.0718 105.615 96.1306 105.674 96.1306 105.772V133.744C96.111 133.822 96.0522 133.881 95.9738 133.881Z" fill="black"/>
<path d="M95.9738 184.371C95.8953 184.371 95.8169 184.312 95.8169 184.214V163.343C95.8169 163.265 95.8757 163.186 95.9738 163.186C96.0718 163.186 96.1306 163.245 96.1306 163.343V184.234C96.111 184.312 96.0522 184.371 95.9738 184.371Z" fill="black"/>
<path d="M104.111 149.397C104.033 149.397 103.955 149.338 103.955 149.24V103.202C103.955 103.124 104.013 103.046 104.111 103.046C104.21 103.046 104.268 103.104 104.268 103.202V149.24C104.268 149.318 104.19 149.397 104.111 149.397Z" fill="black"/>
<path d="M104.111 184.371C104.033 184.371 103.955 184.312 103.955 184.214V172.602C103.955 172.523 104.013 172.445 104.111 172.445C104.21 172.445 104.268 172.504 104.268 172.602V184.214C104.268 184.312 104.19 184.371 104.111 184.371Z" fill="black"/>
<path d="M112.269 158.753C112.19 158.753 112.112 158.694 112.112 158.596V110.519C112.112 110.44 112.171 110.362 112.269 110.362C112.367 110.362 112.426 110.421 112.426 110.519V158.596C112.406 158.694 112.347 158.753 112.269 158.753Z" fill="black"/>
<path d="M112.269 184.371C112.19 184.371 112.112 184.312 112.112 184.214V181.86C112.112 181.782 112.171 181.703 112.269 181.703C112.367 181.703 112.426 181.762 112.426 181.86V184.214C112.406 184.312 112.347 184.371 112.269 184.371Z" fill="black"/>
<path d="M120.426 163.304C120.347 163.304 120.269 163.245 120.269 163.147V129.82C120.269 129.742 120.328 129.664 120.426 129.664C120.524 129.664 120.583 129.722 120.583 129.82V163.147C120.563 163.245 120.504 163.304 120.426 163.304Z" fill="black"/>
<path d="M128.564 166.05C128.485 166.05 128.407 165.991 128.407 165.893V144.336C128.407 144.257 128.466 144.179 128.564 144.179C128.662 144.179 128.72 144.238 128.72 144.336V165.913C128.72 165.991 128.642 166.05 128.564 166.05Z" fill="black"/>
<path d="M136.721 168.561C136.642 168.561 136.564 168.502 136.564 168.404V147.926C136.564 147.847 136.623 147.769 136.721 147.769C136.819 147.769 136.878 147.827 136.878 147.926V168.424C136.858 168.502 136.799 168.561 136.721 168.561Z" fill="black"/>
<path d="M144.878 171.013C144.8 171.013 144.721 170.954 144.721 170.856V151.496C144.721 151.417 144.78 151.339 144.878 151.339C144.976 151.339 145.035 151.397 145.035 151.496V170.856C145.015 170.954 144.956 171.013 144.878 171.013Z" fill="black"/>
<path d="M153.016 173.426C152.937 173.426 152.859 173.367 152.859 173.269V155.105C152.859 155.026 152.918 154.948 153.016 154.948C153.114 154.948 153.173 155.007 153.173 155.105V173.269C153.173 173.367 153.094 173.426 153.016 173.426Z" fill="black"/>
</g>
</svg>
