<svg width="190" height="190" viewBox="0 0 190 190" fill="none" xmlns="http://www.w3.org/2000/svg">
<mask id="mask0" mask-type="alpha" maskUnits="userSpaceOnUse" x="0" y="0" width="190" height="190">
<rect width="190" height="190" fill="white"/>
</mask>
<g mask="url(#mask0)">
<path opacity="0.1" fill-rule="evenodd" clip-rule="evenodd" d="M94.349 177.519C140.182 177.519 177.337 140.364 177.337 94.5306C177.337 48.6975 140.182 11.5424 94.349 11.5424C48.5159 11.5424 11.3608 48.6975 11.3608 94.5306C11.3608 140.364 48.5159 177.519 94.349 177.519Z" fill="#FFF4F2"/>
<path d="M155.882 17.883C153.827 17.883 151.67 16.312 149.463 13.2205C149.412 13.1445 149.412 13.0178 149.513 12.9671C149.589 12.9164 149.716 12.9164 149.767 13.0178C151.974 16.1092 154.08 17.6296 156.06 17.5029C157.658 17.4269 158.775 16.312 159.967 15.1717C161.16 14.006 162.403 12.7897 164.204 12.6884C166.209 12.587 168.29 13.93 170.37 16.6414C170.446 16.7174 170.421 16.8441 170.345 16.9201C170.269 16.9961 170.142 16.9708 170.066 16.8948C168.061 14.2848 166.082 12.9924 164.23 13.0938C162.581 13.1698 161.439 14.2848 160.246 15.4504C159.079 16.616 157.861 17.807 156.11 17.9084C156.034 17.8577 155.958 17.883 155.882 17.883Z" fill="black"/>
<path d="M178.642 161.636C175.039 161.636 171.207 158.849 167.3 153.375C167.249 153.299 167.249 153.173 167.351 153.122C167.427 153.071 167.554 153.071 167.604 153.173C171.588 158.748 175.394 161.459 178.997 161.281C181.915 161.129 183.945 159.153 186.051 157.05C188.157 154.972 190.364 152.818 193.511 152.666C197.038 152.489 200.691 154.845 204.396 159.685C204.472 159.761 204.447 159.888 204.37 159.964C204.294 160.04 204.167 160.015 204.091 159.938C200.463 155.225 196.911 152.894 193.536 153.071C190.517 153.223 188.385 155.327 186.305 157.354C184.224 159.406 182.067 161.51 178.997 161.687C178.87 161.636 178.769 161.636 178.642 161.636Z" fill="black"/>
<path d="M-5.31505 42.7415C-8.18225 42.7415 -11.2017 40.5369 -14.2972 36.2038C-14.348 36.1277 -14.348 36.001 -14.2465 35.9504C-14.1704 35.8997 -14.0435 35.8997 -13.9928 36.001C-10.8718 40.3849 -7.85239 42.5134 -5.03594 42.3614C-2.75234 42.2347 -1.15382 40.6889 0.495455 39.0418C2.1701 37.3947 3.89549 35.697 6.40746 35.5703C9.19853 35.4436 12.0911 37.2934 15.0344 41.1197C15.1105 41.1957 15.0852 41.3224 15.009 41.3984C14.9329 41.4745 14.806 41.4491 14.7299 41.3731C11.8881 37.6481 9.09703 35.849 6.43283 35.9757C4.0731 36.1024 2.39846 37.7495 0.774563 39.3459C-0.874708 40.9677 -2.57473 42.6401 -5.01057 42.7668C-5.11207 42.7415 -5.21356 42.7415 -5.31505 42.7415Z" fill="black"/>
<path fill-rule="evenodd" clip-rule="evenodd" d="M22.6209 75.3032C22.6463 75.3793 22.697 75.4046 22.7732 75.4046C22.8029 75.4046 22.8239 75.3959 22.8413 75.3887C22.8536 75.3836 22.8641 75.3793 22.8747 75.3793L27.0359 72.9973C27.1374 72.9466 27.1628 72.8453 27.112 72.7439L24.7269 68.5882C24.6762 68.4868 24.5747 68.4615 24.4732 68.5122L20.3119 70.8941C20.2104 70.9448 20.1851 71.0461 20.2358 71.1475L22.6209 75.3032ZM22.8493 74.9485L20.6418 71.1222L24.4732 68.9176L26.6807 72.7439L22.8493 74.9485Z" fill="black"/>
<path fill-rule="evenodd" clip-rule="evenodd" d="M79.4069 15.8052C79.4069 15.8812 79.483 15.9572 79.5845 15.9572H79.6353L82.9084 15.4504C82.9592 15.4504 83.0099 15.4251 83.0353 15.3744C83.0607 15.3237 83.0607 15.273 83.0607 15.2223L82.5532 11.9535C82.5532 11.9028 82.5278 11.8521 82.4771 11.8268C82.4264 11.8015 82.3756 11.8015 82.3249 11.8015L79.0517 12.3083C78.9502 12.3336 78.8741 12.435 78.8994 12.5363L79.4069 15.8052ZM79.7368 15.5518L79.3054 12.663L82.198 12.2322L82.6293 15.121L79.7368 15.5518Z" fill="black"/>
<path fill-rule="evenodd" clip-rule="evenodd" d="M179.226 90.9126C179.454 91.3687 179.911 91.6221 180.393 91.6221C180.596 91.6221 180.774 91.5714 180.977 91.4954C181.611 91.166 181.89 90.3805 181.56 89.747C181.408 89.4175 181.129 89.1895 180.799 89.0881C180.469 88.9868 180.139 89.0121 179.809 89.1641C179.48 89.3162 179.251 89.5949 179.15 89.9243C179.048 90.2538 179.074 90.6085 179.226 90.9126ZM179.987 89.4936C180.114 89.4175 180.241 89.3922 180.393 89.3922C180.495 89.3922 180.596 89.4175 180.698 89.4429C180.926 89.5189 181.129 89.6709 181.23 89.899C181.459 90.3551 181.281 90.9126 180.824 91.1407C180.368 91.3687 179.809 91.1913 179.581 90.7352C179.48 90.5072 179.454 90.2538 179.53 90.0257C179.606 89.7976 179.759 89.5949 179.987 89.4936Z" fill="black"/>
<path fill-rule="evenodd" clip-rule="evenodd" d="M130.357 151.475C130.763 152.235 131.524 152.691 132.336 152.691C132.666 152.691 132.995 152.615 133.274 152.438C134.366 151.906 134.797 150.588 134.264 149.498C134.01 148.992 133.554 148.586 132.995 148.409C132.437 148.231 131.854 148.282 131.321 148.536C130.813 148.789 130.407 149.245 130.23 149.803C130.052 150.36 130.103 150.943 130.357 151.475ZM131.498 148.89C131.752 148.764 132.031 148.688 132.31 148.688C132.513 148.688 132.716 148.713 132.894 148.789C133.351 148.941 133.706 149.27 133.934 149.701C134.391 150.588 134.01 151.678 133.122 152.134C132.234 152.59 131.143 152.21 130.686 151.323C130.458 150.892 130.433 150.385 130.585 149.929C130.737 149.473 131.067 149.118 131.498 148.89Z" fill="black"/>
<path fill-rule="evenodd" clip-rule="evenodd" d="M165.84 40.2527C165.869 40.2699 165.893 40.2835 165.93 40.2835C166.006 40.2835 166.057 40.2582 166.082 40.2075L169 36.5332C169.076 36.4318 169.051 36.3305 168.975 36.2545L165.296 33.3404C165.194 33.2643 165.093 33.2897 165.017 33.3657L162.099 37.04C162.023 37.1413 162.048 37.2427 162.124 37.3187L165.803 40.2328C165.817 40.2396 165.829 40.2464 165.84 40.2527ZM165.905 39.8527L162.505 37.1667L165.194 33.7711L168.594 36.4572L165.905 39.8527Z" fill="black"/>
<path d="M95.4658 158.155L99.1483 161.062L96.2375 164.739L92.555 161.832L95.4658 158.155Z" fill="#FFDEE9"/>
<path d="M136.599 112.811C136.549 112.811 136.473 112.786 136.422 112.735C136.346 112.634 136.371 112.507 136.447 112.431C136.498 112.38 136.599 112.304 136.752 112.152L137.157 111.798C137.259 111.722 137.385 111.722 137.462 111.823C137.538 111.924 137.538 112.051 137.436 112.127L137.03 112.482C136.878 112.609 136.752 112.71 136.701 112.761C136.701 112.786 136.65 112.811 136.599 112.811Z" fill="black"/>
<path d="M144.993 113.724C144.942 113.724 144.866 113.698 144.84 113.648C144.764 113.572 144.764 113.42 144.866 113.343C145.145 113.09 145.905 112.38 146.768 111.417C147.934 110.074 148.923 108.655 149.684 107.16C149.988 106.577 150.292 105.969 150.495 105.386C150.825 104.499 150.85 103.916 150.571 103.586C150.394 103.384 150.14 103.333 150.064 103.308C149.81 103.282 149.506 103.358 149.202 103.612C148.568 104.093 147.909 105.056 147.351 105.893C147.249 106.045 147.148 106.197 147.046 106.349C146.717 106.83 146.336 107.337 145.956 107.844C144.942 109.162 143.775 110.454 142.508 111.696C142.431 111.772 142.305 111.772 142.203 111.696C142.127 111.62 142.102 111.493 142.178 111.417C143.37 109.846 144.409 108.224 145.271 106.552C145.449 106.197 145.626 105.842 145.804 105.487C146.894 103.181 147.173 101.965 146.691 101.356C146.666 101.331 146.387 100.976 145.981 100.951C145.5 100.925 144.967 101.382 144.359 102.37C143.978 103.004 143.598 103.739 143.243 104.473V104.499C143.243 104.499 143.243 104.499 143.243 104.524L143.218 104.575C143.04 104.93 142.863 105.259 142.71 105.589C141.924 107.058 140.961 108.452 139.82 109.77L139.794 109.795C139.794 109.795 139.794 109.821 139.769 109.821C139.49 110.15 139.16 110.505 138.78 110.885C138.755 110.911 138.755 110.936 138.729 110.936C138.4 111.265 138.07 111.595 137.715 111.924C137.487 112.127 137.259 112.355 137.005 112.558C137.005 112.558 137.005 112.558 136.98 112.558C136.954 112.583 136.954 112.583 136.929 112.583L136.903 112.609L136.878 112.634L136.853 112.659L136.827 112.685C136.827 112.685 136.827 112.685 136.853 112.685L136.827 112.71L136.802 112.735C136.802 112.735 136.777 112.761 136.751 112.786C136.65 112.837 136.523 112.811 136.447 112.735C136.371 112.634 136.396 112.507 136.498 112.431C136.523 112.406 136.548 112.406 136.548 112.38C136.548 112.38 136.574 112.38 136.574 112.355L136.599 112.33L136.625 112.304C136.625 112.304 136.65 112.304 136.65 112.279L136.675 112.254L136.701 112.228C136.954 112.026 137.182 111.823 137.385 111.62C137.74 111.291 138.07 110.961 138.374 110.657C138.4 110.632 138.425 110.606 138.425 110.606C138.805 110.226 139.11 109.872 139.389 109.542L139.414 109.517L139.439 109.491C140.555 108.199 141.519 106.83 142.254 105.386C142.431 105.082 142.584 104.727 142.761 104.397L142.786 104.372V104.347L142.812 104.321C143.167 103.586 143.547 102.826 143.953 102.193C144.409 101.483 145.094 100.545 145.981 100.571C146.565 100.621 146.92 101.052 146.996 101.128C147.604 101.888 147.376 103.181 146.159 105.715C145.981 106.07 145.804 106.425 145.626 106.78C145.17 107.667 144.638 108.554 144.08 109.415C144.612 108.832 145.094 108.224 145.576 107.616C145.956 107.134 146.311 106.628 146.641 106.146C146.742 105.994 146.844 105.842 146.945 105.69C147.554 104.778 148.188 103.84 148.898 103.308C149.303 103.004 149.709 102.877 150.089 102.928C150.242 102.953 150.597 103.054 150.875 103.358C151.256 103.815 151.256 104.524 150.875 105.589C150.647 106.197 150.343 106.805 150.039 107.413C149.253 108.934 148.264 110.378 147.046 111.747C146.184 112.735 145.398 113.445 145.119 113.724C145.094 113.698 145.043 113.724 144.993 113.724Z" fill="black"/>
<path d="M147.173 116.435C147.123 116.435 147.072 116.41 147.021 116.359C146.945 116.283 146.945 116.131 147.021 116.055L147.3 115.802C147.757 115.371 148.416 114.737 149.151 114.028C149.151 114.028 149.151 114.028 149.177 114.002C150.521 112.685 151.738 111.443 152.803 110.328C153.056 110.074 153.437 109.669 153.69 109.238C153.944 108.832 154.02 108.452 153.919 108.148C153.817 107.793 153.513 107.489 153.158 107.363C152.904 107.287 152.625 107.312 152.296 107.489C151.687 107.768 150.952 108.452 150.115 109.238L150.064 109.289C148.974 110.277 148.01 111.189 147.148 111.95C146.032 112.963 145.297 113.572 145.145 113.673L145.12 113.698C145.018 113.749 144.891 113.749 144.815 113.648C144.739 113.546 144.765 113.42 144.866 113.343L144.891 113.318C144.967 113.242 145.627 112.71 146.869 111.595C147.731 110.835 148.72 109.948 149.785 108.934L149.836 108.883C150.698 108.072 151.459 107.388 152.118 107.058C152.549 106.856 152.93 106.805 153.31 106.932C153.792 107.084 154.223 107.515 154.35 108.021C154.476 108.452 154.375 108.934 154.071 109.441C153.792 109.897 153.411 110.328 153.132 110.606C152.067 111.722 150.825 112.963 149.481 114.281C149.481 114.281 149.481 114.281 149.456 114.307C148.72 115.016 148.086 115.65 147.605 116.081L147.326 116.334C147.275 116.41 147.224 116.435 147.173 116.435Z" fill="black"/>
<path d="M139.11 123.455C139.034 123.455 138.957 123.405 138.932 123.354C138.881 123.253 138.907 123.126 139.008 123.05C141.595 121.529 143.902 120.161 145.931 118.97C147.934 117.778 149.658 116.765 151.053 115.954C151.94 115.447 154.248 114.104 154.121 112.913C154.121 112.837 154.096 112.659 153.969 112.558C153.411 112.026 151.205 113.115 149.405 114.357C149.303 114.433 149.177 114.408 149.1 114.307C149.024 114.205 149.05 114.078 149.151 114.002C150.368 113.166 153.31 111.316 154.273 112.228C154.502 112.456 154.527 112.735 154.552 112.837C154.73 114.307 152.397 115.65 151.307 116.309C149.912 117.12 148.188 118.133 146.184 119.324C144.156 120.516 141.848 121.884 139.262 123.405C139.186 123.455 139.16 123.455 139.11 123.455Z" fill="black"/>
<path d="M132.694 113.597C132.644 113.597 132.618 113.572 132.568 113.546C132.466 113.47 132.441 113.343 132.517 113.242C133.607 111.696 133.759 111.468 133.785 111.468C134.292 110.733 134.748 109.973 135.179 109.238C135.23 109.162 135.281 109.086 135.306 108.985C135.661 108.351 135.991 107.743 136.27 107.185C136.498 106.754 136.701 106.374 136.904 106.019C136.904 106.019 136.904 105.994 136.929 105.994C137.664 104.651 138.298 103.84 139.11 103.891C139.617 103.916 139.997 104.296 140.099 104.423C140.378 104.727 140.682 105.386 140.149 107.413C139.845 108.554 139.389 109.669 138.806 110.759L138.755 110.835C138.755 110.86 138.729 110.885 138.704 110.911C138.628 110.987 138.476 110.987 138.4 110.911C138.324 110.835 138.324 110.733 138.374 110.657L138.425 110.556C139.008 109.517 139.439 108.427 139.744 107.312C140.099 105.969 140.124 105.082 139.794 104.702C139.744 104.651 139.465 104.347 139.11 104.321H139.084C138.501 104.321 137.969 105.082 137.335 106.222C137.335 106.222 137.335 106.247 137.309 106.247C137.107 106.602 136.929 106.982 136.701 107.388C136.422 107.945 136.092 108.554 135.737 109.187C135.687 109.263 135.636 109.339 135.611 109.441C135.179 110.176 134.723 110.936 134.216 111.696C134.216 111.696 134.064 111.924 132.948 113.47C132.821 113.572 132.77 113.597 132.694 113.597Z" fill="black"/>
<path d="M132.872 113.141C135.382 116.258 137.893 119.35 140.428 122.467C139.997 122.72 139.566 122.974 139.135 123.227C137.005 119.933 134.85 116.663 132.72 113.369C132.745 113.318 132.821 113.217 132.872 113.141Z" fill="black"/>
<path d="M76.4009 101.204C76.3502 101.204 76.2995 101.179 76.2488 101.128C76.1727 101.052 76.1727 100.9 76.2488 100.824C76.832 100.267 77.4152 99.633 77.9731 98.9994C78.2774 98.6446 78.5563 98.2898 79.1142 97.5549C79.5199 97.0227 80.1031 96.2624 80.7624 95.3247C81.4471 94.3363 81.6246 94.0575 81.7767 93.6774C81.9796 93.1199 82.2078 92.5623 81.9796 92.0554C81.9542 92.0048 81.7514 91.5486 81.3456 91.4726C81.0667 91.3965 80.8131 91.5232 80.6103 91.65C79.7228 92.1568 79.1649 92.9931 78.4803 93.9562L78.252 94.2603C78.252 94.2603 78.2013 94.3363 77.1109 95.8315C76.2488 97.0227 75.2598 98.1884 74.1695 99.2782C74.0934 99.3542 73.9666 99.3542 73.8652 99.3035C73.7891 99.2275 73.7638 99.1008 73.8398 99.0247C74.9048 97.5549 75.8431 96.0089 76.6292 94.463C76.8067 94.1336 76.9588 93.8041 77.1109 93.4747C78.0999 91.3205 78.3281 90.1547 77.897 89.5972C77.8717 89.5718 77.6181 89.2677 77.2631 89.2424C76.832 89.217 76.3502 89.6479 75.8177 90.5602C75.4627 91.1431 75.1331 91.8527 74.8034 92.537L74.7781 92.5623C74.7781 92.5623 74.7781 92.5623 74.7781 92.5876C74.6259 92.9171 74.4484 93.2466 74.2963 93.576C73.3327 95.5021 72.2169 97.4028 70.9744 99.1768C70.8984 99.2782 70.7716 99.3035 70.6701 99.2275C70.5687 99.1515 70.5434 99.0247 70.6194 98.9234C71.8366 97.1494 72.9523 95.2993 73.9159 93.3733C74.068 93.0438 74.2455 92.7397 74.3977 92.4102C74.3977 92.4102 74.3977 92.4102 74.3977 92.3849L74.4231 92.3342C74.7527 91.65 75.0823 90.9404 75.4627 90.3321C75.8684 89.6479 76.5024 88.7609 77.3138 88.8116C77.8463 88.8622 78.176 89.2677 78.252 89.3438C78.8099 90.0534 78.607 91.2698 77.5167 93.6521C77.3645 93.9815 77.2124 94.3363 77.0349 94.6658C76.6545 95.4007 76.2741 96.1357 75.8431 96.8453C76.1727 96.4398 76.5024 96.0343 76.8067 95.6035C77.8717 94.1589 77.9477 94.0575 77.9477 94.0322L78.176 93.7281C78.8606 92.7144 79.4692 91.8527 80.4328 91.2952C80.7117 91.1431 81.0667 90.9657 81.4978 91.0671C82.081 91.2191 82.3599 91.802 82.4107 91.9034C82.715 92.5876 82.436 93.2973 82.2078 93.8548C82.0557 94.2603 81.8782 94.5644 81.1428 95.5781C80.4835 96.5158 79.9003 97.2761 79.4946 97.8083C78.9367 98.5432 78.6324 98.9234 78.3281 99.2782C77.7702 99.9371 77.187 100.545 76.5784 101.128C76.5024 101.179 76.4517 101.204 76.4009 101.204Z" fill="black"/>
<path d="M78.353 103.739C78.3023 103.739 78.2516 103.713 78.2009 103.688C78.1248 103.612 78.1248 103.46 78.2009 103.384L78.4037 103.181C78.8348 102.75 79.418 102.167 80.128 101.458C80.128 101.458 80.128 101.458 80.1534 101.432C80.7873 100.773 81.4466 100.115 82.0806 99.4302C82.5116 98.9487 82.9681 98.4672 83.4245 97.9857C83.6527 97.7323 83.9824 97.3775 84.2106 96.972C84.4388 96.5918 84.4895 96.237 84.4135 95.9583C84.3374 95.6288 84.0584 95.3247 83.7542 95.2487C83.5259 95.1726 83.2724 95.198 82.9934 95.35C82.8413 95.4261 82.6891 95.5274 82.537 95.6288C82.0806 95.9583 81.5988 96.4398 81.0155 96.9973L80.9902 97.0227C80.052 97.935 79.1644 98.7713 78.353 99.5316C77.3387 100.469 76.7048 101.052 76.5526 101.154C76.5273 101.179 76.5019 101.179 76.4766 101.204C76.3751 101.23 76.2483 101.179 76.1976 101.078C76.1723 100.976 76.1976 100.875 76.2991 100.824C76.3751 100.773 76.9583 100.241 78.0741 99.2275C78.8855 98.4672 79.773 97.6309 80.7113 96.7439L80.7366 96.7186C81.3198 96.161 81.827 95.6542 82.3088 95.3247C82.4863 95.198 82.6638 95.0713 82.8159 94.9952C83.1963 94.7925 83.5767 94.7672 83.9063 94.8685C84.3627 95.0206 84.7431 95.4261 84.8699 95.8822C84.9713 96.2877 84.8952 96.7439 84.6163 97.2254C84.3627 97.6562 84.0077 98.0617 83.7542 98.3152C83.2977 98.7967 82.8413 99.3035 82.4102 99.7597C81.7763 100.444 81.117 101.103 80.483 101.762L80.4577 101.787C79.773 102.497 79.1644 103.08 78.7587 103.51L78.5559 103.713C78.4544 103.739 78.4037 103.739 78.353 103.739Z" fill="black"/>
<path d="M79.2916 106.526C79.2155 106.526 79.1648 106.501 79.1141 106.45C79.038 106.349 79.0634 106.222 79.1648 106.146C80.2552 105.335 81.2187 104.626 82.1063 103.941C82.3091 103.789 82.588 103.561 82.8923 103.333C84.4138 102.091 85.0731 101.128 84.8956 100.368C84.8449 100.089 84.7181 99.9371 84.642 99.8864C84.3124 99.633 83.5009 99.8611 82.3852 100.571C81.3455 101.23 80.0269 102.269 78.5055 103.688C78.4294 103.764 78.2773 103.764 78.2012 103.662C78.1251 103.586 78.1251 103.434 78.2266 103.358C79.7734 101.939 81.092 100.875 82.157 100.191C83.5009 99.3542 84.3884 99.1261 84.8956 99.5316C85.0224 99.633 85.2252 99.8611 85.3013 100.241C85.5802 101.483 84.2109 102.775 83.1459 103.637C82.8416 103.891 82.5627 104.093 82.3345 104.271C81.447 104.955 80.4834 105.665 79.393 106.476C79.3676 106.526 79.3169 106.526 79.2916 106.526Z" fill="black"/>
<path d="M70.6445 100.672C70.6192 100.672 70.6192 100.672 70.6445 100.672C70.5178 100.672 70.4163 100.571 70.4417 100.444C70.467 99.9624 70.5431 99.4556 70.6192 98.9741C70.7206 98.3912 70.8728 97.859 70.9995 97.4028C71.2278 96.5665 71.4306 95.8569 71.3546 94.9952C71.3292 94.7165 71.2785 94.4123 71.0503 94.1843C71.0503 94.1843 70.746 93.9055 70.2895 93.8801C69.5288 93.8548 68.3877 96.3891 67.7031 98.7967C67.6777 98.9234 67.5509 98.9741 67.4495 98.9487C67.3227 98.9234 67.272 98.7967 67.2974 98.6953C67.3481 98.5432 67.7031 97.2507 68.2356 95.9836C68.9456 94.2856 69.6302 93.4493 70.2642 93.4493H70.2895C70.9235 93.4747 71.3292 93.8548 71.3546 93.8801C71.6842 94.2096 71.7603 94.6404 71.7856 94.9699C71.8617 95.8822 71.6588 96.6425 71.4306 97.5295C71.3038 98.011 71.1771 98.4925 71.0503 99.0754C70.9742 99.5316 70.8981 100.013 70.8728 100.495C70.8474 100.571 70.746 100.672 70.6445 100.672Z" fill="black"/>
<path d="M78.4041 104.271C78.328 104.271 78.2266 104.22 78.2012 104.144C77.7448 103.029 77.0855 102.015 76.2487 101.154C75.3612 100.267 74.2708 99.557 73.1044 99.1008C73.0029 99.0501 72.9269 98.9234 72.9776 98.822C73.0283 98.7206 73.1551 98.6446 73.2565 98.6953C74.4737 99.1768 75.6147 99.9118 76.553 100.849C77.4405 101.762 78.1251 102.801 78.6069 103.992C78.6576 104.093 78.6069 104.22 78.4801 104.271C78.4548 104.271 78.4294 104.271 78.4041 104.271Z" fill="black"/>
<path d="M61.9724 70.9195L57.408 73.5044L56.5966 77.1285C56.4191 76.9764 55.5569 76.2415 54.3144 76.3429C52.9958 76.4442 52.2351 77.3819 52.0069 77.686C51.1194 78.9278 51.2208 80.6258 51.9562 81.8169C52.9451 83.4389 54.7962 83.6416 55.0244 83.667C53.1733 85.4663 51.3222 87.2656 49.4711 89.0903C47.265 89.0903 45.0336 89.0903 42.8275 89.0903C42.3203 87.4177 41.7117 84.9341 41.4328 81.8676C41.0778 77.9648 40.8496 75.5826 42.0414 72.8962C42.4725 71.9078 44.2728 68.2585 48.4822 66.7126C48.4822 66.7126 53.503 64.8372 58.6759 67.9037C60.2988 68.8667 61.3892 70.1592 61.3892 70.1592C61.592 70.3619 61.7949 70.6407 61.9724 70.9195Z" fill="black"/>
<path d="M57.2813 78.0155C57.2052 78.0155 57.1291 77.9648 57.1038 77.9141C56.977 77.686 56.8248 77.4833 56.6473 77.2805C56.4952 77.1031 56.3177 76.9511 56.1402 76.8244C56.0387 76.7483 56.0387 76.6216 56.0895 76.5203C56.1655 76.4189 56.2923 76.4189 56.3938 76.4696C56.5966 76.6216 56.7741 76.799 56.9516 76.9764C57.1545 77.2045 57.332 77.4326 57.4588 77.686C57.5095 77.7874 57.4841 77.9141 57.3827 77.9901C57.3573 77.9901 57.3066 78.0155 57.2813 78.0155Z" fill="black"/>
<path d="M55.4806 84.0218C55.3031 84.0218 55.1256 83.9964 54.9228 83.9711C54.7199 83.9457 54.5171 83.9204 54.3142 83.895C54.1874 83.8697 54.1113 83.7683 54.1367 83.6416C54.1621 83.5149 54.2635 83.4389 54.3903 83.4642C54.5931 83.4895 54.7706 83.5149 54.9735 83.5402C55.151 83.5656 55.3285 83.5656 55.4806 83.5909C55.6074 83.5909 55.6835 83.6923 55.6835 83.819C55.7089 83.9457 55.6074 84.0218 55.4806 84.0218Z" fill="black"/>
<path d="M57.3571 92.4103C57.2303 92.4103 57.1289 92.3089 57.1289 92.1822L57.1543 91.1178C57.1543 91.0164 57.2303 90.9404 57.3064 90.915C57.7628 90.7883 58.1939 90.6363 58.5996 90.4335C59.6393 89.9774 60.5268 89.3438 61.2875 88.5835C61.3129 88.5581 64.2544 85.441 64.0008 79.8655C64.0008 79.7642 64.0008 79.6628 64.0008 79.6628C64.0008 79.4854 63.9754 79.1306 63.9247 78.6491C63.7219 76.571 63.4176 73.7325 61.82 71.325C61.7693 71.2489 61.7186 71.1729 61.6679 71.0969C61.5918 70.9955 61.6172 70.8688 61.7186 70.7928C61.82 70.7167 61.9468 70.7421 62.0229 70.8435C62.0736 70.9195 62.1243 70.9955 62.175 71.0715C63.8486 73.5805 64.1276 76.4696 64.3558 78.573C64.4065 79.0546 64.4319 79.4347 64.4319 79.6121C64.4319 79.6121 64.4319 79.7135 64.4319 79.8148C64.7108 85.593 61.744 88.7355 61.6172 88.8623C60.8311 89.6732 59.8929 90.3322 58.8025 90.8137C58.4221 90.9911 58.0164 91.1431 57.6107 91.2698L57.5853 92.1822C57.56 92.3089 57.4586 92.4103 57.3571 92.4103Z" fill="black"/>
<path d="M42.9543 93.2973C42.8275 93.2973 42.7514 93.1959 42.726 93.0945L42.7007 88.8623C42.7007 88.7356 42.8021 88.6342 42.9035 88.6342C43.005 88.6342 43.1318 88.7356 43.1318 88.8369L43.1571 93.0692C43.1825 93.1959 43.081 93.2973 42.9543 93.2973Z" fill="black"/>
<path d="M57.5093 90.9404C57.4586 91.1431 57.3826 91.3712 57.3572 91.6753C57.3318 91.8781 57.3318 92.0555 57.3572 92.2075L55.4047 92.3342C55.2525 92.3089 55.1004 92.2582 54.9482 92.2075C53.5789 91.802 52.4632 91.1431 51.5757 90.4589C53.0464 90.8137 54.7454 91.0417 56.6218 90.9911C56.9261 90.9657 57.2304 90.9657 57.5093 90.9404Z" fill="black"/>
<path d="M25.3057 177.233C25.2549 177.233 25.2042 177.208 25.1535 177.182C25.1028 177.132 25.0774 177.081 25.0774 177.03C25.0774 172.57 25.0521 167.932 25.0014 163.244C25.0014 162.078 24.976 160.887 24.9507 159.696C24.9253 157.465 24.8746 155.185 24.8239 152.701V152.397C24.621 141.728 24.2914 130.881 23.8096 120.211C23.8096 120.085 23.8856 119.983 24.0124 119.983C24.1392 119.983 24.2406 120.059 24.2406 120.186C24.6971 130.855 25.0267 141.702 25.2549 152.372V152.676C25.3057 155.159 25.331 157.44 25.3817 159.67C25.4071 160.861 25.4071 162.027 25.4325 163.218C25.4832 167.805 25.5085 172.367 25.5085 176.777L78.1 172.57C77.7196 166.386 77.3646 160 77.0603 153.639C76.7053 146.34 76.401 138.889 76.1474 131.54C76.1474 131.413 76.2489 131.312 76.3503 131.312C76.4771 131.312 76.5785 131.413 76.5785 131.514C76.8321 138.864 77.1364 146.289 77.4914 153.613C77.821 160.05 78.176 166.488 78.5564 172.747C78.5564 172.874 78.4803 172.975 78.3535 172.975L25.3057 177.233Z" fill="black"/>
<path d="M98.6648 141.322C98.3859 141.322 98.1069 141.297 97.8534 141.271C93.5172 140.841 89.6629 139.143 84.8957 136.583C82.9432 135.544 80.7624 134.302 78.4295 132.984C76.2741 131.742 74.1188 130.399 74.0934 130.374C73.5102 129.994 73.003 129.664 72.648 129.436C72.5466 129.36 72.5212 129.233 72.5973 129.132C72.6734 129.031 72.8002 129.005 72.9016 129.081C73.2566 129.31 73.7384 129.639 74.347 130.019C74.3723 130.044 76.5024 131.388 78.6578 132.604C80.9653 133.922 83.146 135.164 85.0986 136.203C89.8404 138.762 93.644 140.41 97.9041 140.866C100.592 141.145 105.03 139.878 112.256 137.47C114.437 136.735 116.871 135.899 119.686 134.936L120.345 134.708C124.961 133.136 129.246 131.464 131.401 130.627C134.571 129.386 137.766 128.068 140.885 126.725C139.338 123.962 137.69 121.2 135.94 118.539C135.256 117.5 134.571 116.461 133.861 115.422C133.354 114.687 132.923 114.078 132.517 113.521C132.492 113.47 132.466 113.445 132.441 113.394L101.353 123.177C101.302 123.202 101.226 123.177 101.175 123.151C100.465 122.695 99.8059 122.264 99.1466 121.833C98.9437 121.707 98.7409 121.555 98.5127 121.428L97.7773 120.946C97.4223 120.718 97.0673 120.465 96.6869 120.211C96.4587 120.059 96.2305 119.907 96.0023 119.73C95.3937 119.324 94.7851 118.868 94.1512 118.437C92.7312 117.424 91.3365 116.385 89.9672 115.346C86.975 113.039 85.0478 111.443 83.3742 109.998C81.7514 108.63 80.3567 107.439 78.3535 105.943L78.3027 105.918C75.2345 103.637 69.5037 99.4049 62.8093 97.0227C62.429 96.8959 62.0232 96.7439 61.5922 96.6172C61.1104 96.4651 49.4459 92.8664 37.8322 96.8453C37.7308 96.8959 37.604 96.8199 37.5533 96.7185C37.5025 96.6172 37.5786 96.4905 37.68 96.4398C49.4206 92.4356 61.2118 96.0596 61.7189 96.2117C62.15 96.3384 62.5557 96.4905 62.9361 96.6172C69.6558 99.0247 75.4374 103.282 78.531 105.563L78.5817 105.589C80.5849 107.084 82.0049 108.275 83.6278 109.643C85.3014 111.063 87.2032 112.685 90.1954 114.965C91.5647 116.004 92.9594 117.044 94.3794 118.057C94.988 118.488 95.6219 118.944 96.2051 119.35C96.4334 119.502 96.6616 119.654 96.8898 119.806C97.2702 120.059 97.6252 120.313 97.9802 120.541L98.6902 121.022C98.893 121.174 99.1212 121.301 99.3241 121.428C99.958 121.859 100.592 122.264 101.251 122.695L132.39 112.913C132.492 112.887 132.568 112.913 132.618 112.989L132.669 113.065C132.72 113.115 132.745 113.191 132.796 113.242C133.202 113.8 133.633 114.408 134.14 115.143C134.85 116.157 135.535 117.221 136.219 118.26C137.994 120.997 139.693 123.835 141.291 126.674C141.316 126.725 141.316 126.801 141.316 126.851C141.291 126.902 141.265 126.953 141.189 126.978C138.02 128.372 134.749 129.715 131.477 130.982C129.322 131.818 125.037 133.466 120.422 135.062L119.762 135.29C116.948 136.253 114.513 137.09 112.333 137.825C105.765 140.08 101.479 141.322 98.6648 141.322Z" fill="black"/>
<path d="M25.2295 159.924C25.2041 159.924 25.2041 159.924 25.1787 159.924C25.1787 159.924 25.1534 159.924 25.128 159.924C22.009 159.29 19.4479 158.048 17.4954 156.198C15.4922 154.298 13.9707 151.637 12.9818 148.317C10.6996 140.663 11.4857 130.374 15.0865 120.769C19.0676 110.125 25.838 102.015 34.1046 97.935C35.271 97.3521 36.4882 96.8453 37.7561 96.4144C37.8828 96.3637 38.035 96.4651 38.035 96.6172C38.035 96.7185 37.9589 96.7946 37.8828 96.8199C36.6403 97.2507 35.4232 97.7576 34.2821 98.3151C26.0916 102.345 19.4226 110.353 15.4668 120.896C11.9168 130.399 11.1307 140.587 13.3621 148.165C14.3257 151.434 15.8218 154.019 17.7743 155.869C19.6762 157.668 22.1612 158.885 25.2041 159.493C25.2041 159.493 25.2295 159.493 25.2548 159.493C25.3816 159.518 25.4577 159.645 25.4323 159.746C25.407 159.873 25.3055 159.924 25.2295 159.924Z" fill="black"/>
<path d="M63.8743 91.7767C63.57 93.4493 63.2657 95.1219 62.9614 96.7946C62.5557 96.6425 62.15 96.5158 61.7442 96.3891C61.0596 96.161 49.4459 92.6637 37.8321 96.6172C37.2235 95.5781 36.6403 94.5644 36.0317 93.5253L55.4049 92.3089L57.3574 92.1822L59.1071 92.0808L63.8743 91.7767Z" fill="#FF735A"/>
<path d="M69.5797 173.685C69.5544 173.685 69.5544 173.685 69.5797 173.685C69.4276 173.66 69.3515 173.558 69.3769 173.457L74.0173 130.171C74.0427 130.044 74.1441 129.968 74.2455 129.968C74.3723 129.968 74.4484 130.095 74.4484 130.197L69.808 173.482C69.7826 173.609 69.6812 173.685 69.5797 173.685Z" fill="black"/>
<path d="M112.332 137.673C104.877 140.156 100.567 141.347 97.8787 141.094C93.6947 140.663 89.9671 139.092 84.9971 136.431C90.4743 134.226 101.86 131.007 111.724 137.293C111.901 137.394 112.104 137.521 112.332 137.673Z" fill="#FF735A"/>
<path d="M25.1787 159.696C22.8711 159.239 20.0057 158.251 17.6475 156.021C15.6189 154.095 14.1228 151.409 13.1846 148.215C16.5318 148.722 21.0961 149.888 25.0519 152.397C25.0519 152.498 25.0519 152.6 25.0519 152.701C25.1026 155.058 25.1279 157.389 25.1787 159.696Z" fill="#FF735A"/>
<path fill-rule="evenodd" clip-rule="evenodd" d="M102.95 61.9734C104.066 61.3145 105.562 60.5796 107.413 59.9206L122.501 59.3124C122.703 59.3378 122.982 59.3884 123.312 59.4645C123.312 59.4645 124.022 59.6165 124.783 59.8446C125.569 60.0727 127.293 60.7316 129.525 61.7453C129.753 61.8467 130.006 61.9734 130.235 62.1001C130.488 62.2268 130.767 62.3789 131.046 62.531C131.133 62.5861 131.219 62.6388 131.305 62.6906C131.493 62.8054 131.675 62.9156 131.832 63.0378C131.748 63.2058 131.612 63.4434 131.452 63.7217C131.419 63.7793 131.385 63.8386 131.35 63.8995C128.561 68.6893 125.036 71.7811 122.881 73.4031C119.229 76.1401 115.679 77.6353 113.144 78.4716C113.068 78.4463 112.991 78.421 112.915 78.421C112.713 78.421 112.535 78.5223 112.459 78.6997C112.396 78.7251 112.332 78.7441 112.269 78.7631C112.205 78.7821 112.142 78.8011 112.079 78.8264C112.002 78.6871 111.933 78.5477 111.866 78.4146C111.8 78.2816 111.736 78.1549 111.673 78.0408C111.622 77.9394 111.546 77.7874 111.445 77.61C111.318 77.3819 111.115 77.1285 110.887 77.0018C110.785 76.9257 110.684 76.9004 110.582 76.9004C110.582 76.9004 110.227 76.9004 109.923 77.2298C109.771 77.4072 109.619 77.8381 110.278 79.3586C109.264 79.6121 108.376 79.7895 107.641 79.9162C107.565 79.7134 107.362 79.5867 107.159 79.5867C106.931 79.5867 106.703 79.7641 106.652 79.9922C106.272 80.0682 105.891 80.1189 105.486 80.1696C104.218 80.3217 103.051 80.347 101.986 80.3217C101.821 80.309 101.663 80.3027 101.504 80.2963C101.346 80.29 101.188 80.2837 101.023 80.271C96.2048 79.9922 92.0715 78.6997 88.8765 77.2298L88.8765 77.2298C89.3076 76.4695 89.7386 75.7093 90.2204 74.949C90.3472 74.7209 90.4993 74.4928 90.6515 74.2647L90.6515 74.2647C91.3361 73.2003 92.0715 72.1613 92.8576 71.1475L93.4662 70.3873C94.0494 69.6523 94.6833 68.9174 95.3426 68.2078C95.5455 67.9797 95.7483 67.7516 95.9766 67.5235C96.7119 66.7632 97.498 66.0283 98.2841 65.344C98.3602 65.268 98.7152 64.9639 99.0955 64.6598C99.1166 64.6429 99.1385 64.6254 99.1611 64.6073C99.8195 64.0804 101.136 63.0269 102.95 61.9734ZM104.471 71.1475C104.243 70.9955 104.015 70.8181 103.812 70.6407L104.471 71.1475Z" fill="#FF735A"/>
<path d="M107.413 59.9206L107.4 59.5955C107.367 59.5968 107.335 59.603 107.304 59.614L107.413 59.9206ZM102.95 61.9734L103.113 62.2548L103.115 62.2536L102.95 61.9734ZM122.501 59.3124L122.541 58.9895C122.523 58.9873 122.505 58.9865 122.487 58.9872L122.501 59.3124ZM123.312 59.4645L123.239 59.7816L123.244 59.7827L123.312 59.4645ZM124.783 59.8446L124.689 60.1564L124.692 60.1572L124.783 59.8446ZM129.525 61.7453L129.39 62.0416L129.392 62.0427L129.525 61.7453ZM130.235 62.1001L130.076 62.3849L130.089 62.3912L130.235 62.1001ZM131.046 62.531L131.221 62.2563C131.214 62.2524 131.208 62.2487 131.202 62.2452L131.046 62.531ZM131.305 62.6906L131.474 62.4125L131.474 62.4125L131.305 62.6906ZM131.832 63.0378L132.123 63.1834C132.193 63.0446 132.154 62.8761 132.032 62.7809L131.832 63.0378ZM131.452 63.7217L131.17 63.5598L131.17 63.5598L131.452 63.7217ZM131.35 63.8995L131.632 64.0633L131.633 64.061L131.35 63.8995ZM122.881 73.4031L123.076 73.6635L123.077 73.6631L122.881 73.4031ZM113.144 78.4716L113.041 78.7804C113.107 78.8025 113.179 78.8027 113.246 78.7807L113.144 78.4716ZM112.459 78.6997L112.58 79.0019C112.66 78.9699 112.724 78.9073 112.758 78.828L112.459 78.6997ZM112.269 78.7631L112.362 79.0748L112.362 79.0748L112.269 78.7631ZM112.079 78.8264L111.793 78.9824C111.872 79.127 112.046 79.1898 112.199 79.1286L112.079 78.8264ZM111.866 78.4146L111.575 78.5602V78.5602L111.866 78.4146ZM111.673 78.0408L111.382 78.1864C111.384 78.1906 111.386 78.1948 111.388 78.1989L111.673 78.0408ZM111.445 77.61L111.16 77.7681L111.162 77.7715L111.445 77.61ZM110.887 77.0018L110.692 77.2622C110.703 77.271 110.716 77.2791 110.729 77.2863L110.887 77.0018ZM109.923 77.2298L109.684 77.0089L109.676 77.018L109.923 77.2298ZM110.278 79.3586L110.357 79.6744C110.45 79.6512 110.528 79.5884 110.57 79.5027C110.612 79.4169 110.615 79.3169 110.577 79.2292L110.278 79.3586ZM107.641 79.9162L107.336 80.0305C107.391 80.1768 107.542 80.2634 107.696 80.2369L107.641 79.9162ZM106.652 79.9922L106.716 80.3113C106.842 80.2861 106.942 80.1886 106.97 80.0629L106.652 79.9922ZM105.486 80.1696L105.524 80.4928L105.526 80.4926L105.486 80.1696ZM101.986 80.3217L101.961 80.6462C101.967 80.6466 101.973 80.6469 101.979 80.647L101.986 80.3217ZM101.023 80.271L101.048 79.9464L101.042 79.9461L101.023 80.271ZM88.8765 77.2298L88.5978 77.0617C88.55 77.141 88.5382 77.2369 88.5654 77.3255C88.5926 77.414 88.6563 77.4868 88.7404 77.5255L88.8765 77.2298ZM88.8765 77.2298L89.1552 77.398L89.1596 77.3903L88.8765 77.2298ZM90.2204 74.949L90.4953 75.1232C90.4986 75.1179 90.5018 75.1126 90.5049 75.1071L90.2204 74.949ZM90.6515 74.2647L90.3822 74.082L90.3807 74.0841L90.6515 74.2647ZM90.6515 74.2647L90.9209 74.4475L90.9252 74.4408L90.6515 74.2647ZM92.8576 71.1475L92.6035 70.9441L92.6004 70.9481L92.8576 71.1475ZM93.4662 70.3873L93.7202 70.5906L93.7211 70.5896L93.4662 70.3873ZM95.3426 68.2078L95.5811 68.4293L95.5858 68.4241L95.3426 68.2078ZM95.9766 67.5235L96.2067 67.7537L96.2105 67.7498L95.9766 67.5235ZM98.2841 65.344L98.4978 65.5895C98.5034 65.5846 98.5089 65.5795 98.5142 65.5742L98.2841 65.344ZM99.0955 64.6598L99.2988 64.9139L99.2988 64.9139L99.0955 64.6598ZM99.1611 64.6073L98.9578 64.3532V64.3532L99.1611 64.6073ZM104.471 71.1475L104.291 71.4184C104.437 71.5157 104.634 71.4797 104.736 71.3371C104.838 71.1944 104.809 70.9965 104.67 70.8895L104.471 71.1475ZM103.812 70.6407L104.01 70.3827C103.871 70.2756 103.672 70.2984 103.56 70.4343C103.449 70.5702 103.466 70.77 103.598 70.8857L103.812 70.6407ZM107.304 59.614C105.433 60.2799 103.918 61.0237 102.784 61.6932L103.115 62.2536C104.213 61.6053 105.69 60.8792 107.522 60.2272L107.304 59.614ZM122.487 58.9872L107.4 59.5955L107.426 60.2458L122.514 59.6376L122.487 58.9872ZM123.385 59.1473C123.048 59.0697 122.758 59.0166 122.541 58.9895L122.46 59.6353C122.649 59.6589 122.916 59.7072 123.239 59.7816L123.385 59.1473ZM124.876 59.5329C124.489 59.4167 124.115 59.3202 123.839 59.2528C123.701 59.2191 123.587 59.1926 123.507 59.1744C123.467 59.1654 123.435 59.1584 123.414 59.1536C123.403 59.1512 123.395 59.1494 123.389 59.1482C123.386 59.1476 123.384 59.1471 123.383 59.1468C123.382 59.1466 123.381 59.1465 123.381 59.1464C123.381 59.1464 123.38 59.1463 123.38 59.1463C123.38 59.1463 123.38 59.1463 123.38 59.1463C123.38 59.1463 123.38 59.1462 123.38 59.1462C123.38 59.1462 123.38 59.1462 123.312 59.4645C123.244 59.7827 123.244 59.7827 123.244 59.7827C123.244 59.7827 123.244 59.7827 123.244 59.7827C123.244 59.7827 123.244 59.7827 123.244 59.7827C123.244 59.7827 123.244 59.7827 123.244 59.7828C123.244 59.7828 123.245 59.7829 123.245 59.783C123.247 59.7833 123.249 59.7837 123.251 59.7843C123.256 59.7854 123.264 59.787 123.274 59.7893C123.294 59.7937 123.324 59.8004 123.363 59.8091C123.44 59.8266 123.55 59.8524 123.685 59.8852C123.954 59.9509 124.316 60.0444 124.689 60.1563L124.876 59.5329ZM129.659 61.449C127.424 60.4335 125.682 59.7668 124.873 59.5321L124.692 60.1572C125.455 60.3786 127.162 61.0297 129.39 62.0416L129.659 61.449ZM130.393 61.8156C130.156 61.6844 129.894 61.5534 129.657 61.4479L129.392 62.0427C129.611 62.14 129.856 62.2624 130.077 62.3847L130.393 61.8156ZM131.202 62.2452C130.924 62.0939 130.64 61.9388 130.38 61.809L130.089 62.3912C130.336 62.5149 130.61 62.6639 130.89 62.8167L131.202 62.2452ZM131.474 62.4125C131.388 62.3605 131.304 62.3094 131.221 62.2563L130.871 62.8056C130.961 62.8628 131.051 62.9172 131.136 62.9687L131.474 62.4125ZM132.032 62.7809C131.857 62.645 131.659 62.5251 131.474 62.4125L131.136 62.9687C131.328 63.0857 131.493 63.1861 131.632 63.2948L132.032 62.7809ZM131.734 63.8836C131.892 63.609 132.034 63.3617 132.123 63.1834L131.541 62.8922C131.462 63.0498 131.332 63.2777 131.17 63.5598L131.734 63.8836ZM131.633 64.061C131.667 64.0004 131.701 63.9412 131.734 63.8836L131.17 63.5598C131.137 63.6173 131.103 63.6769 131.068 63.7379L131.633 64.061ZM123.077 73.6631C125.253 72.025 128.813 68.9026 131.632 64.0632L131.069 63.7357C128.309 68.476 124.819 71.5372 122.685 73.143L123.077 73.6631ZM113.246 78.7807C115.805 77.9366 119.389 76.4271 123.076 73.6635L122.686 73.1427C119.07 75.8531 115.554 77.3341 113.042 78.1626L113.246 78.7807ZM112.915 78.7464C112.929 78.7464 112.954 78.7514 113.041 78.7804L113.246 78.1629C113.181 78.1412 113.054 78.0955 112.915 78.0955V78.7464ZM112.758 78.828C112.774 78.7899 112.82 78.7464 112.915 78.7464V78.0955C112.605 78.0955 112.296 78.2547 112.16 78.5715L112.758 78.828ZM112.362 79.0748C112.424 79.0564 112.501 79.0335 112.58 79.0019L112.338 78.3975C112.29 78.4166 112.241 78.4317 112.175 78.4514L112.362 79.0748ZM112.199 79.1286C112.247 79.1095 112.297 79.0944 112.362 79.0748L112.175 78.4514C112.114 78.4698 112.037 78.4927 111.958 78.5243L112.199 79.1286ZM111.575 78.5602C111.641 78.6925 111.714 78.8371 111.793 78.9824L112.364 78.6705C112.291 78.5371 112.224 78.4028 112.157 78.269L111.575 78.5602ZM111.388 78.1989C111.448 78.3056 111.508 78.4257 111.575 78.5602L112.157 78.269C112.091 78.1375 112.025 78.0041 111.957 77.8827L111.388 78.1989ZM111.162 77.7715C111.259 77.9405 111.331 78.0856 111.382 78.1864L111.964 77.8952C111.913 77.7933 111.833 77.6343 111.727 77.4484L111.162 77.7715ZM110.729 77.2863C110.882 77.3713 111.048 77.5659 111.16 77.7681L111.729 77.4519C111.588 77.1979 111.348 76.8856 111.045 76.7172L110.729 77.2863ZM110.582 77.2258C110.606 77.2258 110.623 77.2287 110.638 77.2332C110.652 77.2376 110.669 77.2456 110.692 77.2622L111.082 76.7413C110.917 76.6181 110.745 76.5749 110.582 76.5749V77.2258ZM110.162 77.4507C110.27 77.334 110.384 77.2783 110.467 77.2511C110.51 77.2373 110.544 77.231 110.566 77.228C110.577 77.2266 110.584 77.226 110.587 77.2258C110.588 77.2257 110.589 77.2257 110.588 77.2258C110.588 77.2258 110.587 77.2258 110.586 77.2258C110.586 77.2258 110.585 77.2258 110.585 77.2258C110.584 77.2258 110.584 77.2258 110.584 77.2258C110.583 77.2258 110.583 77.2258 110.583 77.2258C110.583 77.2258 110.583 77.2258 110.583 77.2258C110.583 77.2258 110.582 77.2258 110.582 76.9004C110.582 76.5749 110.582 76.5749 110.582 76.5749C110.582 76.5749 110.582 76.5749 110.582 76.5749C110.582 76.5749 110.581 76.5749 110.581 76.5749C110.581 76.5749 110.58 76.5749 110.58 76.575C110.579 76.575 110.578 76.575 110.577 76.575C110.574 76.575 110.572 76.5751 110.569 76.5752C110.563 76.5753 110.555 76.5757 110.546 76.5762C110.529 76.5773 110.506 76.5793 110.479 76.583C110.424 76.5904 110.351 76.6046 110.266 76.632C110.097 76.6872 109.881 76.7962 109.684 77.009L110.162 77.4507ZM110.577 79.2292C110.253 78.4819 110.142 78.0324 110.121 77.7648C110.101 77.5128 110.162 77.4519 110.17 77.4417L109.676 77.018C109.533 77.1852 109.441 77.4284 109.472 77.8163C109.501 78.1886 109.644 78.7148 109.98 79.4881L110.577 79.2292ZM107.696 80.2369C108.439 80.109 109.334 79.93 110.357 79.6744L110.199 79.0429C109.194 79.2942 108.314 79.47 107.586 79.5955L107.696 80.2369ZM107.159 79.9122C107.236 79.9122 107.311 79.9636 107.336 80.0305L107.946 79.8019C107.819 79.4633 107.488 79.2613 107.159 79.2613V79.9122ZM106.97 80.0629C106.987 79.9868 107.08 79.9122 107.159 79.9122V79.2613C106.782 79.2613 106.419 79.5415 106.334 79.9216L106.97 80.0629ZM105.526 80.4926C105.932 80.4418 106.323 80.3899 106.716 80.3113L106.588 79.6731C106.221 79.7466 105.851 79.7961 105.445 79.8467L105.526 80.4926ZM101.979 80.647C103.055 80.6726 104.237 80.6471 105.524 80.4927L105.447 79.8465C104.198 79.9962 103.048 80.0214 101.994 79.9963L101.979 80.647ZM101.491 80.6215C101.651 80.6279 101.803 80.634 101.961 80.6462L102.011 79.9972C101.84 79.984 101.675 79.9775 101.517 79.9711L101.491 80.6215ZM100.998 80.5955C101.169 80.6087 101.334 80.6152 101.491 80.6215L101.517 79.9711C101.358 79.9648 101.206 79.9586 101.048 79.9465L100.998 80.5955ZM88.7404 77.5255C91.9658 79.0094 96.1388 80.3144 101.004 80.5959L101.042 79.9461C96.2708 79.67 92.1772 78.3901 89.0125 76.9342L88.7404 77.5255ZM88.5979 77.0616L88.5978 77.0617L89.1551 77.398L89.1551 77.398L88.5979 77.0616ZM89.9455 74.7748C89.4588 75.5429 89.0239 76.31 88.5934 77.0693L89.1596 77.3903C89.5912 76.629 90.0185 75.8756 90.4953 75.1232L89.9455 74.7748ZM90.3807 74.0841C90.2301 74.31 90.0703 74.5492 89.936 74.7909L90.5049 75.1071C90.6241 74.8926 90.7686 74.6757 90.9222 74.4453L90.3807 74.0841ZM90.3822 74.082L90.3822 74.082L90.9208 74.4475L90.9208 74.4475L90.3822 74.082ZM92.6004 70.9481C91.8086 71.9693 91.0677 73.0161 90.3778 74.0887L90.9252 74.4408C91.6046 73.3845 92.3345 72.3532 93.1148 71.347L92.6004 70.9481ZM93.2121 70.1839L92.6035 70.9442L93.1117 71.3509L93.7202 70.5906L93.2121 70.1839ZM95.1042 67.9863C94.4396 68.7016 93.8001 69.443 93.2112 70.185L93.7211 70.5896C94.2987 69.8617 94.9271 69.1331 95.581 68.4293L95.1042 67.9863ZM95.7465 67.2933C95.5105 67.5292 95.3015 67.7643 95.0994 67.9915L95.5858 68.4241C95.7895 68.1951 95.9862 67.974 96.2066 67.7537L95.7465 67.2933ZM98.0704 65.0985C97.2785 65.7879 96.4855 66.5292 95.7426 67.2973L96.2105 67.7498C96.9383 66.9972 97.7175 66.2687 98.4978 65.5895L98.0704 65.0985ZM98.8923 64.4056C98.5139 64.7081 98.1449 65.0231 98.054 65.1138L98.5142 65.5742C98.5755 65.5129 98.9165 65.2196 99.2988 64.9139L98.8923 64.4056ZM98.9578 64.3532C98.9351 64.3713 98.9133 64.3888 98.8923 64.4056L99.2988 64.9139C99.3199 64.897 99.3418 64.8795 99.3645 64.8614L98.9578 64.3532ZM102.786 61.692C100.951 62.7581 99.6188 63.8242 98.9578 64.3532L99.3645 64.8614C100.02 64.3367 101.321 63.2957 103.113 62.2548L102.786 61.692ZM104.652 70.8767C104.437 70.7334 104.22 70.5648 104.026 70.3957L103.598 70.8857C103.81 71.0713 104.05 71.2576 104.291 71.4184L104.652 70.8767ZM103.614 70.8987L104.273 71.4056L104.67 70.8895L104.01 70.3827L103.614 70.8987Z" fill="black"/>
<path d="M99.1966 64.9639C99.1966 65.2426 98.9683 65.4961 98.6641 65.4961C98.5119 65.4961 98.3851 65.4454 98.2837 65.344C98.5373 65.1159 98.8162 64.8878 99.0951 64.6598C99.1458 64.7358 99.1966 64.8372 99.1966 64.9639Z" fill="black"/>
<path d="M96.3566 68.005C96.3566 68.2838 96.1284 68.5372 95.8241 68.5372C95.5959 68.5372 95.393 68.3852 95.3423 68.1824C95.5451 67.9543 95.7734 67.7263 95.9762 67.4982C96.2044 67.5742 96.3566 67.7769 96.3566 68.005Z" fill="black"/>
<path d="M101.504 68.5372C101.798 68.5372 102.037 68.2989 102.037 68.005C102.037 67.7111 101.798 67.4728 101.504 67.4728C101.21 67.4728 100.972 67.7111 100.972 68.005C100.972 68.2989 101.21 68.5372 101.504 68.5372Z" fill="black"/>
<path d="M93.5167 70.6407C93.5167 70.9195 93.2885 71.1729 92.9842 71.1729C92.9335 71.1729 92.8827 71.1729 92.832 71.1476C93.0349 70.8941 93.2378 70.6407 93.4406 70.3873C93.4913 70.4633 93.5167 70.5393 93.5167 70.6407Z" fill="black"/>
<path d="M98.6643 71.1729C98.9584 71.1729 99.1969 70.9346 99.1969 70.6407C99.1969 70.3468 98.9584 70.1085 98.6643 70.1085C98.3702 70.1085 98.1318 70.3468 98.1318 70.6407C98.1318 70.9346 98.3702 71.1729 98.6643 71.1729Z" fill="black"/>
<path d="M104.471 71.1475C104.421 71.1475 104.37 71.1729 104.319 71.1729C104.04 71.1729 103.787 70.9448 103.787 70.6407C104.015 70.8181 104.243 70.9955 104.471 71.1475Z" fill="black"/>
<path d="M121.79 59.5912C121.79 59.8193 121.663 59.9967 121.46 60.0727C121.562 59.8193 121.663 59.5912 121.739 59.3631C121.765 59.4391 121.79 59.5152 121.79 59.5912Z" fill="black"/>
<path d="M124.098 62.7337C124.392 62.7337 124.63 62.4954 124.63 62.2015C124.63 61.9076 124.392 61.6693 124.098 61.6693C123.804 61.6693 123.565 61.9076 123.565 62.2015C123.565 62.4954 123.804 62.7337 124.098 62.7337Z" fill="black"/>
<path d="M130.285 62.2015C130.285 62.4803 130.057 62.7337 129.753 62.7337C129.448 62.7337 129.22 62.5056 129.22 62.2015C129.22 61.9734 129.347 61.796 129.55 61.72C129.778 61.8467 130.032 61.9734 130.26 62.0748C130.285 62.1255 130.285 62.1761 130.285 62.2015Z" fill="black"/>
<path d="M121.258 65.8002C121.552 65.8002 121.79 65.5619 121.79 65.268C121.79 64.9741 121.552 64.7358 121.258 64.7358C120.964 64.7358 120.725 64.9741 120.725 65.268C120.725 65.5619 120.964 65.8002 121.258 65.8002Z" fill="black"/>
<path d="M126.938 65.8002C127.232 65.8002 127.47 65.5619 127.47 65.268C127.47 64.9741 127.232 64.7358 126.938 64.7358C126.644 64.7358 126.405 64.9741 126.405 65.268C126.405 65.5619 126.644 65.8002 126.938 65.8002Z" fill="black"/>
<path d="M118.418 68.4105C118.712 68.4105 118.95 68.1722 118.95 67.8783C118.95 67.5844 118.712 67.3461 118.418 67.3461C118.124 67.3461 117.885 67.5844 117.885 67.8783C117.885 68.1722 118.124 68.4105 118.418 68.4105Z" fill="black"/>
<path d="M124.098 68.4105C124.392 68.4105 124.63 68.1722 124.63 67.8783C124.63 67.5844 124.392 67.3461 124.098 67.3461C123.804 67.3461 123.565 67.5844 123.565 67.8783C123.565 68.1722 123.804 68.4105 124.098 68.4105Z" fill="black"/>
<path d="M115.806 71.1982C116.1 71.1982 116.338 70.9599 116.338 70.666C116.338 70.3721 116.1 70.1338 115.806 70.1338C115.512 70.1338 115.273 70.3721 115.273 70.666C115.273 70.9599 115.512 71.1982 115.806 71.1982Z" fill="black"/>
<path d="M121.461 71.1982C121.755 71.1982 121.993 70.9599 121.993 70.666C121.993 70.3721 121.755 70.1338 121.461 70.1338C121.167 70.1338 120.928 70.3721 120.928 70.666C120.928 70.9599 121.167 71.1982 121.461 71.1982Z" fill="black"/>
<path d="M112.966 73.8339C113.26 73.8339 113.499 73.5956 113.499 73.3017C113.499 73.0078 113.26 72.7695 112.966 72.7695C112.672 72.7695 112.434 73.0078 112.434 73.3017C112.434 73.5956 112.672 73.8339 112.966 73.8339Z" fill="black"/>
<path d="M118.646 73.8339C118.94 73.8339 119.178 73.5956 119.178 73.3017C119.178 73.0078 118.94 72.7695 118.646 72.7695C118.352 72.7695 118.113 73.0078 118.113 73.3017C118.113 73.5956 118.352 73.8339 118.646 73.8339Z" fill="black"/>
<path d="M90.6766 74.4168C90.6766 74.6956 90.4738 74.8983 90.2202 74.9236C90.3724 74.6956 90.4991 74.4675 90.6513 74.2394C90.6766 74.3154 90.6766 74.3661 90.6766 74.4168Z" fill="black"/>
<path d="M95.824 74.949C96.1181 74.949 96.3565 74.7107 96.3565 74.4168C96.3565 74.1229 96.1181 73.8846 95.824 73.8846C95.5299 73.8846 95.2915 74.1229 95.2915 74.4168C95.2915 74.7107 95.5299 74.949 95.824 74.949Z" fill="black"/>
<path d="M101.504 74.949C101.798 74.949 102.037 74.7107 102.037 74.4168C102.037 74.1229 101.798 73.8846 101.504 73.8846C101.21 73.8846 100.972 74.1229 100.972 74.4168C100.972 74.7107 101.21 74.949 101.504 74.949Z" fill="black"/>
<path d="M92.9842 77.5846C93.2783 77.5846 93.5167 77.3464 93.5167 77.0524C93.5167 76.7585 93.2783 76.5202 92.9842 76.5202C92.6901 76.5202 92.4517 76.7585 92.4517 77.0524C92.4517 77.3464 92.6901 77.5846 92.9842 77.5846Z" fill="black"/>
<path d="M98.6643 77.5846C98.9584 77.5846 99.1969 77.3464 99.1969 77.0524C99.1969 76.7585 98.9584 76.5202 98.6643 76.5202C98.3702 76.5202 98.1318 76.7585 98.1318 77.0524C98.1318 77.3464 98.3702 77.5846 98.6643 77.5846Z" fill="black"/>
<path d="M104.345 77.5846C104.639 77.5846 104.877 77.3464 104.877 77.0524C104.877 76.7585 104.639 76.5202 104.345 76.5202C104.05 76.5202 103.812 76.7585 103.812 77.0524C103.812 77.3464 104.05 77.5846 104.345 77.5846Z" fill="black"/>
<path d="M107.159 74.949C107.453 74.949 107.691 74.7107 107.691 74.4168C107.691 74.1229 107.453 73.8846 107.159 73.8846C106.865 73.8846 106.626 74.1229 106.626 74.4168C106.626 74.7107 106.865 74.949 107.159 74.949Z" fill="black"/>
<path d="M102.011 80.0936C102.011 80.1696 101.986 80.2457 101.961 80.3217C101.631 80.3217 101.301 80.2963 100.997 80.271C100.972 80.2203 100.972 80.1443 100.972 80.0936C100.972 79.8148 101.2 79.5614 101.504 79.5614C101.783 79.5867 102.011 79.8148 102.011 80.0936Z" fill="black"/>
<path d="M107.92 72.2626C106.551 72.2626 105.334 71.9332 104.345 71.2996C104.091 71.1476 103.863 70.9702 103.66 70.7674C102.899 70.0832 102.265 69.1455 101.809 68.005V67.9797L101.733 67.777C101.733 67.777 101.733 67.777 101.733 67.7516C101.251 66.4338 100.997 64.8625 100.947 63.0885C100.947 62.9618 101.048 62.8604 101.15 62.8604C101.276 62.8604 101.352 62.9618 101.352 63.0632C101.403 64.7865 101.657 66.3071 102.113 67.5996L102.189 67.8276V67.853C102.62 68.9174 103.204 69.8044 103.914 70.438C104.116 70.6154 104.319 70.7674 104.548 70.9195C105.714 71.6798 107.235 71.9585 109.036 71.7304C115.705 70.9195 119.534 64.0262 121.233 59.9713C121.233 59.9713 121.233 59.9713 121.233 59.946C121.334 59.6926 121.436 59.4645 121.512 59.2617C121.537 59.2364 121.537 59.211 121.537 59.1857L121.588 59.059C121.613 59.0083 121.613 58.9576 121.638 58.9323C121.689 58.8309 121.791 58.7549 121.917 58.8056C122.019 58.8562 122.095 58.9576 122.044 59.0843C122.019 59.135 122.019 59.1857 121.993 59.2364L121.943 59.3378C121.943 59.3631 121.917 59.3884 121.917 59.4138C121.841 59.6165 121.74 59.8446 121.638 60.0981C121.638 60.0981 121.638 60.0981 121.638 60.1234C119.914 64.2796 116.009 71.3503 109.112 72.1613C108.706 72.2626 108.3 72.2626 107.92 72.2626Z" fill="black"/>
<path d="M104.243 83.6416C104.192 83.6163 104.522 82.4252 104.623 81.5382C104.674 81.082 104.699 80.6512 104.699 80.6512C104.699 80.5498 104.699 80.4484 104.699 80.347C104.953 80.3217 105.207 80.3217 105.486 80.2964C105.511 80.2964 105.536 80.2964 105.587 80.2964C105.308 81.3101 104.243 83.6416 104.243 83.6416Z" fill="black"/>
<path fill-rule="evenodd" clip-rule="evenodd" d="M104.193 83.8444L104.269 83.8697H104.345C104.522 83.7683 105.613 81.0313 105.79 80.3724L105.866 80.0683L105.46 80.0936C105.334 80.1063 105.207 80.1126 105.08 80.119C104.953 80.1253 104.827 80.1316 104.7 80.1443H104.497V80.347V80.6258C104.497 80.6512 104.471 81.082 104.421 81.5128C104.345 81.969 104.243 82.5519 104.142 82.9574C103.99 83.667 103.964 83.7937 104.193 83.8444ZM104.928 80.6258V80.5244C105.055 80.5244 105.182 80.5244 105.308 80.4991C105.22 80.7653 105.093 81.0812 104.965 81.4033C104.91 81.5412 104.854 81.6802 104.801 81.8169C104.805 81.7995 104.81 81.7829 104.814 81.7667C104.834 81.6887 104.852 81.6221 104.852 81.5382C104.903 81.082 104.928 80.6512 104.928 80.6258Z" fill="black"/>
<path d="M108.098 79.8909C107.971 80.271 107.768 80.8286 107.515 81.5382C107.083 82.8053 106.855 83.4389 106.83 83.4389C106.805 83.4389 106.931 82.932 107.083 82.2224C107.286 81.3101 107.438 80.5498 107.515 79.9922C107.692 79.9669 107.895 79.9416 108.098 79.8909Z" fill="black"/>
<path fill-rule="evenodd" clip-rule="evenodd" d="M106.779 83.6416C106.83 83.667 106.855 83.667 106.881 83.667C107.007 83.667 107.083 83.4642 107.438 82.4252L107.717 81.6142C107.777 81.4478 107.833 81.2898 107.887 81.1405C108.062 80.6529 108.203 80.2579 108.301 79.9669L108.427 79.6121L108.047 79.6881C107.936 79.702 107.833 79.7234 107.733 79.7442C107.65 79.7613 107.569 79.778 107.489 79.7895L107.337 79.8148L107.312 79.9669C107.294 80.0661 107.276 80.1662 107.258 80.2671C107.148 80.8885 107.033 81.5395 106.881 82.1717C106.861 82.2578 106.846 82.3367 106.831 82.4111C106.807 82.5337 106.785 82.6442 106.754 82.7546L106.752 82.7626C106.576 83.4903 106.552 83.5911 106.779 83.6416ZM107.692 80.3217C107.698 80.2773 107.705 80.233 107.717 80.195C107.717 80.195 107.743 80.1696 107.768 80.195C107.725 80.2588 107.701 80.3227 107.679 80.4015C107.684 80.3759 107.688 80.3488 107.692 80.3217ZM107.667 80.4484C107.671 80.4322 107.675 80.4166 107.679 80.4015C107.676 80.4179 107.672 80.4336 107.667 80.4484Z" fill="black"/>
<path d="M110.608 80.0429C110.532 80.2203 110.481 80.3977 110.405 80.5751C110.329 80.4991 110.227 80.4231 110.126 80.3471C110.202 80.0683 110.278 79.7895 110.354 79.5107C110.43 79.6628 110.506 79.8402 110.608 80.0429Z" fill="black"/>
<path d="M110.481 80.9299L110.253 80.7272C110.177 80.6512 110.075 80.5751 109.974 80.4991L109.847 80.3977L109.898 80.2457C109.974 79.9669 110.05 79.6881 110.126 79.4094L110.278 78.8265L110.532 79.384C110.608 79.5614 110.684 79.7388 110.785 79.9162L110.836 79.9923L110.811 80.0683C110.76 80.1697 110.735 80.2964 110.684 80.3977L110.481 80.9299Z" fill="black"/>
<path d="M113.245 80.119C113.143 80.195 113.067 80.2964 112.991 80.3724C112.89 80.195 112.788 80.0176 112.687 79.8402C112.738 79.6374 112.814 79.4347 112.839 79.2573C112.966 79.5614 113.093 79.8402 113.245 80.119Z" fill="black"/>
<path d="M112.966 80.7525L112.687 80.2964C112.611 80.1697 112.56 80.0683 112.484 79.9669L112.434 79.8909L112.459 79.7895C112.51 79.5868 112.56 79.4094 112.611 79.232L112.763 78.6491L113.017 79.2066C113.144 79.4854 113.27 79.7642 113.397 80.0429L113.473 80.195L113.372 80.2964C113.27 80.3977 113.194 80.4738 113.144 80.5498L112.966 80.7525Z" fill="black"/>
<path d="M116.897 82.5265C115.908 80.7272 115.071 79.232 114.488 78.0915C114.716 78.0155 114.944 77.9141 115.172 77.8381C115.832 79.8149 116.77 82.1971 116.897 82.5265Z" fill="black"/>
<path fill-rule="evenodd" clip-rule="evenodd" d="M114.31 78.1929C114.868 79.2826 115.654 80.7272 116.719 82.6279L117.125 82.4758C116.998 82.1971 116.06 79.7642 115.401 77.7874L115.325 77.5593L115.122 77.6354C115.008 77.6734 114.894 77.7177 114.78 77.7621C114.665 77.8064 114.551 77.8508 114.437 77.8888L114.209 77.9648L114.31 78.1929ZM115.629 79.7642C115.299 79.1813 115.02 78.6744 114.792 78.2182C114.83 78.2056 114.875 78.1866 114.919 78.1676C114.963 78.1485 115.008 78.1295 115.046 78.1169C115.223 78.6491 115.426 79.232 115.629 79.7642Z" fill="black"/>
<path d="M151.484 90.2814C150.698 93.2719 148.746 94.9192 148.746 94.9192C145.652 97.5042 141.443 96.7946 140.454 96.5918C140.783 97.8083 141.138 99.0754 141.569 100.368C142.026 101.787 142.508 103.13 143.015 104.423C142.837 104.778 142.66 105.132 142.482 105.462C141.848 106.653 140.961 108.072 139.617 109.618L139.592 109.643C139.287 109.998 138.958 110.353 138.603 110.733C138.577 110.759 138.577 110.784 138.552 110.784C138.577 110.759 138.577 110.708 138.603 110.682C139.338 109.365 139.718 108.224 139.947 107.388C140.479 105.36 140.124 104.803 139.947 104.6C139.896 104.55 139.566 104.169 139.11 104.144C138.4 104.093 137.817 104.904 137.132 106.171C136.675 106.982 136.168 108.021 135.534 109.137C135.484 109.213 135.433 109.289 135.408 109.39C135.053 109.998 134.596 110.759 134.013 111.62C133.658 112.178 133.227 112.761 132.745 113.394C132.694 113.318 132.618 113.217 132.568 113.141C122.146 116.41 111.749 119.679 101.327 122.974C100.719 122.594 100.034 122.137 99.2985 121.656C99.0957 121.529 98.8928 121.377 98.6646 121.25C98.5125 121.149 98.3857 121.048 98.2335 120.972C98.1321 120.896 98.0307 120.845 97.9546 120.769C97.5996 120.541 97.2446 120.287 96.8642 120.034C96.636 119.882 96.4078 119.73 96.1796 119.578C95.5963 119.172 94.9878 118.742 94.3538 118.285C94.937 113.901 95.5203 109.517 96.1289 105.132C88.6737 108.427 85.6816 106.577 84.9462 106.019C84.1348 105.437 83.5008 104.6 83.0697 103.51C84.1601 102.623 85.3773 101.407 85.1491 100.317C85.1237 100.241 85.0476 99.9118 84.8194 99.7344C84.3376 99.3542 83.374 99.7344 82.3344 100.419C82.309 100.165 82.2837 99.8864 82.2583 99.6076C82.6894 99.1261 83.1458 98.6446 83.6022 98.1631C83.8558 97.8843 84.1855 97.5295 84.4137 97.0987C84.6419 96.7185 84.7433 96.3131 84.6419 95.9076C84.5405 95.5021 84.2108 95.1473 83.8305 95.0459C83.5262 94.9445 83.2219 94.9952 82.8922 95.1726C82.7401 95.2487 82.5626 95.35 82.4104 95.4767C83.0444 90.4588 85.1744 84.1738 88.902 77.3059C92.5027 78.9532 97.2446 80.3977 102.849 80.3977C102.722 81.1327 102.595 82.0197 102.367 82.9827C102.341 83.1347 102.291 83.2868 102.24 83.4642C102.24 83.4895 102.215 83.5402 102.215 83.5656C102.189 83.6416 102.164 83.7176 102.139 83.7937C102.139 83.819 102.113 83.8443 102.113 83.8697C102.063 84.0217 102.012 84.1738 101.961 84.3512C101.936 84.4272 101.91 84.5033 101.885 84.5793C101.784 84.9088 101.631 85.2889 101.479 85.669C101.429 85.8211 101.352 85.9478 101.302 86.0999C101.302 86.1252 101.302 86.1252 101.276 86.1506C101.251 86.2266 101.2 86.328 101.175 86.404C101.124 86.5054 101.074 86.6067 101.023 86.7081C100.997 86.7588 100.972 86.8095 100.947 86.8855C100.921 86.9108 100.921 86.9615 100.896 86.9869L101.251 87.3417L101.682 87.7725L102.899 89.0396L106.678 92.9171C106.957 92.5116 109.898 88.3047 112.079 85.0355C114.741 87.8992 118.241 91.5232 118.57 91.8527L121.689 87.4177L122.704 85.9732L123.059 85.4663L123.337 85.0608C123.312 85.0355 123.287 85.0101 123.261 84.9594C123.236 84.9088 123.185 84.8581 123.16 84.8074C123.084 84.706 123.033 84.6046 122.957 84.5286C122.906 84.4526 122.856 84.3766 122.805 84.3005L122.78 84.2752C122.704 84.1485 122.602 84.0217 122.526 83.8697C122.323 83.5149 122.12 83.1854 121.968 82.856C121.943 82.7799 121.892 82.7293 121.867 82.6532C121.791 82.5012 121.715 82.3491 121.638 82.1971C121.613 82.1717 121.613 82.1464 121.588 82.121C121.562 82.045 121.512 81.969 121.486 81.8929C121.461 81.8676 121.461 81.8169 121.436 81.7916C121.36 81.6395 121.309 81.4875 121.233 81.3354C120.802 80.2963 120.523 79.308 120.244 78.5477C120.218 78.5223 120.218 78.4717 120.193 78.4463C119.914 77.686 119.635 77.1792 119.255 77.1285C118.976 77.1031 118.697 77.3059 118.57 77.4833C118.367 77.7367 118.342 78.1169 118.443 78.8265C118.494 79.1306 118.52 79.3333 118.545 79.384C118.9 80.8032 119.458 82.1464 119.382 82.1971C119.356 82.1971 118.266 80.5244 117.784 79.5614C117.353 78.6744 117.023 77.8634 116.795 77.1285C121.892 74.8223 127.623 70.8181 131.376 63.9502C131.553 63.6461 131.705 63.3419 131.858 63.0125C144.891 73.9353 152.955 84.6807 151.484 90.2814Z" fill="#009691"/>
<path fill-rule="evenodd" clip-rule="evenodd" d="M101.175 123.151L101.251 123.202L132.441 113.445C132.454 113.47 132.466 113.489 132.479 113.508C132.492 113.527 132.504 113.546 132.517 113.572L132.694 113.825L132.872 113.597C132.999 113.418 133.126 113.241 133.252 113.065C133.555 112.643 133.854 112.227 134.14 111.798C134.647 111.037 135.103 110.277 135.534 109.542C135.56 109.441 135.611 109.365 135.661 109.289C136.016 108.655 136.346 108.047 136.625 107.489C136.758 107.257 136.88 107.024 136.998 106.798C137.061 106.68 137.122 106.564 137.183 106.45L137.233 106.349C137.867 105.183 138.425 104.397 139.008 104.448C139.344 104.472 139.612 104.746 139.683 104.818C139.687 104.822 139.69 104.826 139.693 104.828C140.023 105.208 139.997 106.095 139.642 107.439C139.338 108.554 138.907 109.643 138.324 110.683L137.538 112.102L138.603 111.037C138.618 111.037 138.624 111.028 138.633 111.014C138.638 111.006 138.644 110.996 138.653 110.987C139.034 110.606 139.363 110.252 139.642 109.922L139.718 109.846C140.86 108.528 141.823 107.134 142.584 105.69C142.684 105.472 142.796 105.254 142.912 105.029C142.971 104.914 143.031 104.796 143.091 104.676L143.142 104.575V104.473L143.116 104.423C142.609 103.105 142.102 101.762 141.671 100.393C141.291 99.2528 140.936 98.0871 140.631 96.9466C142.381 97.2508 146.007 97.4788 148.771 95.1726C148.847 95.122 150.8 93.4747 151.586 90.4335C153.056 84.8834 145.5 74.3661 131.908 62.9872L131.705 62.8098L131.579 63.0632C131.503 63.2152 131.42 63.3673 131.338 63.5194C131.255 63.6714 131.173 63.8235 131.097 63.9755C127.953 69.7284 123.084 74.138 116.618 77.0525L116.44 77.1285L116.491 77.3059C116.745 78.1422 117.074 78.9532 117.48 79.7642C117.733 80.271 118.165 80.9806 118.469 81.4621C119.029 82.367 119.113 82.5026 119.219 82.523C119.238 82.5265 119.257 82.5265 119.28 82.5265H119.331L119.382 82.5012C119.585 82.3998 119.559 82.2984 119.28 81.4875C119.077 80.9299 118.849 80.195 118.646 79.4347C118.646 79.4248 118.639 79.3879 118.626 79.3284C118.607 79.2356 118.576 79.0879 118.545 78.9025C118.469 78.2689 118.494 77.9395 118.646 77.7114C118.773 77.5593 118.976 77.4073 119.154 77.4326C119.458 77.458 119.711 78.0662 119.914 78.5984C119.94 78.6237 119.965 78.6744 119.965 78.6998C120.015 78.8662 120.076 79.0436 120.14 79.2319C120.174 79.3303 120.209 79.4317 120.244 79.5361C120.276 79.6293 120.309 79.7251 120.343 79.8231C120.521 80.3378 120.72 80.9127 120.954 81.4875C120.989 81.5925 121.036 81.6974 121.087 81.8108C121.11 81.8616 121.133 81.9141 121.157 81.969L121.207 82.045C121.22 82.083 121.239 82.121 121.258 82.1591C121.277 82.1971 121.296 82.2351 121.309 82.2731C121.322 82.2858 121.328 82.2984 121.334 82.3111C121.341 82.3238 121.347 82.3365 121.36 82.3491L121.588 82.8053L121.689 83.008C121.867 83.3629 122.044 83.6923 122.247 84.0218C122.285 84.0851 122.33 84.1485 122.374 84.2118C122.418 84.2752 122.463 84.3386 122.501 84.4019C122.501 84.4273 122.526 84.4526 122.526 84.4526C122.551 84.4779 122.57 84.5096 122.589 84.5413C122.608 84.573 122.627 84.6047 122.653 84.63L122.678 84.6807C122.716 84.7314 122.748 84.7821 122.78 84.8327C122.811 84.8834 122.843 84.9341 122.881 84.9848L122.982 85.1115L118.469 91.5739C117.683 90.763 114.589 87.5444 112.155 84.9341L111.977 84.7314L111.825 84.9595C109.898 87.8739 107.362 91.4979 106.576 92.613L101.074 86.9615L101.15 86.8095C101.2 86.7335 101.226 86.6828 101.251 86.6067H101.327V86.4293C101.34 86.404 101.353 86.3723 101.365 86.3406C101.378 86.309 101.391 86.2773 101.403 86.2519L101.429 86.1759C101.454 86.0999 101.486 86.0302 101.517 85.9605C101.549 85.8908 101.581 85.8211 101.606 85.7451C101.727 85.4636 101.832 85.1661 101.933 84.878C101.959 84.803 101.986 84.7286 102.012 84.6553C102.023 84.622 102.029 84.5935 102.035 84.5678C102.042 84.5349 102.048 84.5064 102.063 84.4779L102.088 84.4273C102.113 84.3512 102.139 84.2689 102.164 84.1865C102.189 84.1041 102.215 84.0218 102.24 83.9457L102.265 83.819C102.277 83.7842 102.283 83.7493 102.289 83.7169C102.296 83.6786 102.302 83.6437 102.316 83.6163C102.316 83.5909 102.322 83.5719 102.329 83.5529C102.335 83.5339 102.341 83.5149 102.341 83.4896C102.353 83.4491 102.365 83.41 102.376 83.3718C102.414 83.2428 102.449 83.1254 102.468 83.008C102.62 82.2731 102.747 81.5635 102.849 80.9553C102.899 80.7525 102.925 80.5751 102.95 80.3977L103.001 80.1443H102.747C98.0307 80.1443 93.3649 79.1306 88.902 77.0778L88.7245 77.0018L88.6231 77.1792C85.0477 83.7683 82.7909 90.0787 82.1062 95.4261L82.0301 95.9329L82.4359 95.6288C82.588 95.5274 82.7402 95.4261 82.8923 95.35C83.1712 95.198 83.4248 95.1726 83.653 95.2487C83.9573 95.3247 84.2362 95.6288 84.3123 95.9583C84.3884 96.237 84.3377 96.5918 84.1095 96.972C83.8956 97.3519 83.5927 97.6874 83.3676 97.9366C83.3525 97.9534 83.3377 97.9697 83.3234 97.9857C82.8669 98.4672 82.4105 98.9487 81.9794 99.4303L81.9287 99.5063V99.6077L81.9287 99.6078C81.9541 99.8865 81.9794 100.165 82.0048 100.419L82.0301 100.773L82.3344 100.596C83.4502 99.8864 84.2616 99.6583 84.5912 99.9118C84.718 100.013 84.7941 100.191 84.8448 100.393C85.0223 101.154 84.363 102.117 82.8416 103.358L82.7148 103.46L82.7655 103.612C83.2219 104.727 83.8812 105.589 84.718 106.197C86.0113 107.16 89.181 108.3 95.7739 105.487C95.2921 109.238 94.785 112.963 94.2778 116.689L94.0496 118.387L94.151 118.463C94.4434 118.661 94.7303 118.866 95.0144 119.068C95.3463 119.304 95.6742 119.537 96.0021 119.755L96.6868 120.211C96.8414 120.314 96.9919 120.418 97.1399 120.519C97.3558 120.667 97.5665 120.811 97.7771 120.946L98.5125 121.428C98.6553 121.507 98.7882 121.596 98.9173 121.683C98.9946 121.735 99.0705 121.786 99.1465 121.833L99.1474 121.834C99.8064 122.265 100.465 122.695 101.175 123.151ZM95.3202 118.674C95.0672 118.493 94.812 118.311 94.5567 118.133L94.785 116.663C95.0545 114.602 95.3313 112.549 95.6076 110.498C95.851 108.691 96.0942 106.886 96.3318 105.082L96.3825 104.702L96.0275 104.854C89.1302 107.869 86.062 106.501 85.0477 105.766C84.3123 105.234 83.7291 104.473 83.298 103.51C84.3377 102.649 85.5802 101.407 85.3266 100.216C85.2505 99.9118 85.1238 99.6583 84.9209 99.5063C84.4391 99.1261 83.6277 99.3035 82.4612 99.9878C82.4612 99.9244 82.4549 99.8674 82.4485 99.8104C82.4422 99.7534 82.4359 99.6964 82.4359 99.633C82.6514 99.4049 82.8669 99.1705 83.0825 98.9361C83.298 98.7016 83.5136 98.4672 83.7291 98.2391C83.9827 97.9857 84.3377 97.5802 84.5912 97.1494C84.8702 96.6679 84.9463 96.2117 84.8448 95.8062C84.718 95.35 84.3377 94.9446 83.8812 94.7925C83.5262 94.6911 83.1712 94.7165 82.7909 94.9192C82.7537 94.9192 82.7302 94.9328 82.7004 94.95C82.6894 94.9563 82.6777 94.9631 82.6641 94.9699C83.3994 89.7999 85.5802 83.7937 88.9781 77.5086C93.3649 79.4854 97.9293 80.5244 102.57 80.5498C102.557 80.6005 102.551 80.6512 102.544 80.7019C102.538 80.7525 102.532 80.8032 102.519 80.8539C102.503 80.9482 102.488 81.0444 102.472 81.1422C102.384 81.6756 102.289 82.2604 102.139 82.8813C102.11 82.9677 102.089 83.054 102.067 83.145C102.051 83.2142 102.034 83.2862 102.012 83.3629C102.012 83.3733 102.007 83.3838 102.002 83.3961C101.995 83.4135 101.986 83.4345 101.986 83.4642C101.974 83.5022 101.967 83.5339 101.961 83.5656C101.955 83.5973 101.948 83.629 101.936 83.667L101.91 83.7937C101.86 83.9457 101.809 84.0978 101.758 84.2752L101.733 84.3259C101.72 84.3512 101.714 84.3766 101.708 84.4019C101.701 84.4273 101.695 84.4526 101.682 84.4779C101.581 84.8327 101.454 85.1875 101.302 85.5423C101.276 85.6184 101.245 85.6881 101.213 85.7577C101.181 85.8274 101.15 85.8971 101.124 85.9732L101.099 86.0492C101.074 86.1252 101.048 86.1759 101.023 86.2266L101.023 86.2266L100.998 86.2773L100.845 86.5814L100.769 86.7081L100.719 86.7588V86.8095C100.719 86.8348 100.719 86.8602 100.693 86.8855L100.617 87.0122L106.678 93.2466L106.83 93.0438C107.362 92.3089 109.999 88.4821 112.079 85.3903C114.843 88.3554 118.367 91.9794 118.393 92.0048L118.57 92.1822L123.49 85.1622L123.566 85.0355L123.515 84.9341L123.49 84.9088L123.464 84.8834V84.8327L123.388 84.7821L123.363 84.7567C123.338 84.706 123.312 84.6807 123.287 84.6553L123.135 84.4273L123.109 84.3766L122.957 84.1485L122.932 84.1231C122.83 83.9964 122.754 83.8697 122.678 83.743C122.475 83.4136 122.298 83.0842 122.12 82.7548L122.12 82.7546L122.019 82.5519L121.791 82.0957C121.791 82.0704 121.791 82.045 121.765 82.0197C121.753 81.9817 121.734 81.9436 121.715 81.9056C121.696 81.8676 121.677 81.8296 121.664 81.7916L121.639 81.7409C121.639 81.7156 121.613 81.6902 121.613 81.6902C121.537 81.5382 121.461 81.3861 121.41 81.234C121.172 80.6983 120.996 80.1781 120.833 79.6977C120.788 79.5646 120.744 79.4345 120.7 79.308C120.655 79.1834 120.615 79.0537 120.575 78.9257C120.526 78.7674 120.477 78.6118 120.421 78.4717C120.421 78.459 120.415 78.44 120.409 78.421C120.402 78.402 120.396 78.383 120.396 78.3703C120.092 77.5593 119.787 77.0018 119.28 76.9258C118.9 76.8751 118.57 77.1538 118.393 77.3819C118.139 77.686 118.114 78.1169 118.215 78.8772C118.235 78.9836 118.254 79.0827 118.271 79.1673C118.297 79.3043 118.317 79.4034 118.317 79.4347L118.317 79.4348C118.444 79.8909 118.57 80.3471 118.697 80.7525C118.418 80.3217 118.139 79.8402 117.962 79.46C117.607 78.7251 117.302 77.9902 117.049 77.2299C123.49 74.2647 128.384 69.8297 131.553 64.0516C131.638 63.9164 131.722 63.7587 131.807 63.601C131.849 63.5222 131.891 63.4433 131.934 63.3673C145.069 74.3915 152.651 84.9088 151.256 90.2054C150.521 93.0218 148.744 94.6075 148.602 94.7339C148.597 94.7383 148.594 94.741 148.594 94.7418C145.804 97.0987 141.975 96.6679 140.479 96.3638L140.15 96.2877L140.251 96.6172C140.581 97.8843 140.961 99.1515 141.367 100.419C141.798 101.762 142.28 103.105 142.787 104.397C142.684 104.619 142.571 104.841 142.461 105.055C142.407 105.159 142.355 105.261 142.305 105.36C141.57 106.805 140.606 108.174 139.49 109.466L139.44 109.517C139.718 108.832 139.972 108.148 140.15 107.464C140.682 105.437 140.378 104.778 140.099 104.473C139.997 104.347 139.617 103.967 139.11 103.941C138.324 103.891 137.69 104.676 136.98 105.969L136.904 106.07C136.701 106.425 136.498 106.805 136.27 107.236C135.991 107.793 135.661 108.402 135.306 109.035C135.281 109.137 135.23 109.213 135.179 109.289C134.748 110.024 134.292 110.784 133.785 111.519C133.43 112.026 133.075 112.533 132.694 113.039L132.593 112.887L101.327 122.695C101.156 122.583 100.987 122.473 100.819 122.364C100.339 122.052 99.8697 121.747 99.4 121.428C99.3445 121.393 99.2871 121.359 99.2288 121.323C99.0742 121.23 98.9134 121.133 98.7661 121.022L98.0561 120.541C97.8454 120.406 97.6348 120.261 97.4188 120.113C97.2708 120.012 97.1204 119.909 96.9657 119.806L96.2811 119.35C95.9673 119.136 95.6455 118.906 95.3202 118.674Z" fill="black"/>
<path d="M117.581 59.7179C117.328 58.5268 116.44 54.0411 116.238 53.002C116.542 53.1287 116.973 53.2808 117.48 53.3062C117.734 53.3315 118.951 53.4075 119.864 52.6472C120.979 51.7095 121.258 49.8849 120.472 48.567C120.396 48.4403 119.788 47.4773 118.621 47.1732C117.708 46.9451 116.948 47.2239 116.643 47.3506C115.959 47.6547 115.578 48.1362 115.401 48.3643C114.463 47.4013 113.423 46.1848 112.459 44.7149C110.887 42.358 109.974 40.1278 109.391 38.3792C108.884 39.4182 108.098 40.7361 106.957 42.0539C105.461 43.7772 103.914 44.8923 102.747 45.5766C102.722 47.3252 102.823 53.2555 106.779 55.9165C107.109 56.1446 107.464 56.322 107.844 56.4994C107.692 57.6398 107.54 58.8056 107.388 59.946C106.83 60.1234 106.247 60.3515 105.638 60.6049C104.497 61.0864 103.483 61.644 102.621 62.1762C97.3716 60.7316 92.1226 59.2617 86.8989 57.8172C90.6011 45.3231 98.4619 36.3517 107.16 35.4901C111.648 35.0593 115.173 36.7826 115.832 37.112C122.729 40.6094 126.659 49.2006 126.127 59.1857C123.287 59.3378 120.422 59.5152 117.581 59.7179Z" fill="black"/>
<path d="M113.803 55.2829C113.322 55.8404 112.612 56.5247 111.648 57.1329C110.507 57.8425 109.417 58.1973 108.529 58.3747C108.174 58.4508 107.743 58.5014 107.743 58.5014C107.667 58.5014 107.616 58.5268 107.591 58.5268C107.616 58.096 107.642 57.6144 107.743 57.1076C107.768 56.9048 107.819 56.7021 107.87 56.4994C108.047 56.55 108.326 56.6261 108.681 56.6768C108.681 56.6768 109.214 56.7528 109.822 56.7021C110.532 56.6514 112.003 56.1952 113.803 55.2829Z" fill="black"/>
<path d="M117.81 53.5342C117.708 53.5342 117.582 53.5342 117.48 53.5089C117.024 53.4836 116.593 53.3568 116.162 53.1794C116.086 53.1541 116.009 53.1034 115.959 53.0781C115.857 53.0274 115.807 52.9007 115.857 52.7993C115.908 52.6979 116.035 52.6472 116.136 52.6979C116.187 52.7233 116.263 52.7486 116.314 52.7993C116.694 52.9767 117.074 53.0781 117.48 53.1034C118.368 53.1794 119.154 52.9514 119.712 52.4952C120.751 51.6082 121.005 49.9102 120.27 48.6937C120.168 48.5163 119.61 47.6547 118.571 47.3759C118.444 47.3506 118.317 47.3252 118.165 47.2999C117.1 47.1985 116.06 47.7054 115.452 48.6684C115.376 48.7698 115.249 48.7951 115.147 48.7444C115.046 48.6684 115.021 48.5417 115.071 48.4403C115.781 47.3506 116.973 46.7423 118.19 46.8691C118.342 46.8944 118.52 46.9197 118.647 46.9451C119.813 47.2492 120.447 48.1615 120.625 48.4403C121.461 49.8342 121.157 51.7856 119.965 52.7993C119.458 53.2808 118.672 53.5342 117.81 53.5342Z" fill="black"/>
<path d="M110.456 84.9088C110.405 84.9088 110.354 84.8834 110.329 84.8581C110.227 84.782 110.202 84.6553 110.278 84.554L110.836 83.819C110.912 83.7176 111.039 83.6923 111.14 83.7683C111.242 83.8444 111.267 83.9711 111.191 84.0724L110.633 84.8074C110.608 84.8834 110.532 84.9088 110.456 84.9088Z" fill="black"/>
<path d="M104.37 78.7758C104.598 79.0039 104.7 79.3587 104.725 80.0683C104.725 80.1443 104.725 80.2457 104.725 80.3217C104.091 80.3724 103.457 80.3724 102.823 80.3724C102.849 80.271 102.849 80.1697 102.874 80.0429C102.874 80.0176 102.899 79.9669 102.899 79.9416C103.051 79.1559 103.254 78.5984 103.635 78.497C103.914 78.421 104.193 78.5984 104.37 78.7758Z" fill="black"/>
<path d="M107.92 77.5847C107.87 77.9901 107.819 77.9901 107.717 78.6237C107.641 79.0292 107.591 79.4854 107.54 80.0176C107.134 80.0683 106.754 80.1443 106.323 80.195C106.069 80.2203 105.841 80.2457 105.613 80.271C105.968 78.9278 106.145 77.7367 106.323 76.8244C106.45 76.1401 106.602 75.3038 107.084 75.1771C107.362 75.1011 107.667 75.3038 107.667 75.3291C108.199 75.7346 108.022 76.8244 107.92 77.5847Z" fill="black"/>
<path d="M110.304 79.4093C109.923 79.5107 109.543 79.6121 109.137 79.6881C108.782 79.7641 108.427 79.8402 108.098 79.8909C108.63 78.3703 108.985 77.2552 109.137 76.5963C109.188 76.3429 109.366 75.6333 109.847 75.4558C110.101 75.3545 110.405 75.4305 110.608 75.5572C110.988 75.8107 111.141 76.4189 110.887 77.0018C110.836 76.9511 110.735 76.9004 110.608 76.8751C110.608 76.8751 110.354 76.8244 110.126 77.0018C109.847 77.2045 109.847 77.5847 109.822 77.8381C109.771 78.5223 110.076 79.0799 110.304 79.4093Z" fill="black"/>
<path d="M112.129 78.9025C112.282 78.8518 112.434 78.8011 112.586 78.7504L111.901 77.0018C111.698 77.1285 111.546 77.3819 111.445 77.61L112.129 78.9025Z" fill="black"/>
<path d="M114.538 78.1676C113.879 78.421 113.245 78.6491 112.636 78.8265C112.636 78.8011 112.611 78.7758 112.611 78.7504C112.332 78.0915 112.079 77.4833 111.926 77.0018C111.926 76.9764 111.901 76.9511 111.901 76.9004C111.698 76.2415 111.622 75.684 111.926 75.3545C112.104 75.1518 112.408 75.0757 112.662 75.1264C113.194 75.2278 113.448 75.912 113.549 76.1401C113.727 76.5963 114.057 77.2299 114.488 78.0915C114.513 78.1169 114.513 78.1422 114.538 78.1676Z" fill="black"/>
<path d="M116.82 77.2045C116.263 77.458 115.73 77.7114 115.198 77.9141C115.198 77.8888 115.172 77.8634 115.172 77.8381C114.817 76.7484 114.538 75.7853 114.564 75.3545C114.564 75.1771 114.564 74.6956 114.868 74.4928C114.868 74.4928 115.071 74.3661 115.35 74.4168C115.908 74.5182 116.237 75.6079 116.795 77.1538C116.82 77.1538 116.82 77.1792 116.82 77.2045Z" fill="black"/>
<path d="M116.897 82.7293C116.821 82.7293 116.744 82.6786 116.719 82.6279C115.679 80.7779 114.919 79.3587 114.336 78.2689C114.285 78.1676 114.31 78.0408 114.437 77.9902C114.538 77.9395 114.665 77.9648 114.716 78.0915C114.969 78.573 115.274 79.1306 115.603 79.7642C115.401 79.1813 115.172 78.573 114.995 77.9902C114.969 77.8888 115.02 77.7621 115.122 77.7114C115.248 77.686 115.35 77.7367 115.401 77.8381C116.009 79.6628 116.846 81.8169 117.099 82.4505C117.15 82.5519 117.099 82.6786 116.998 82.7293C116.973 82.7293 116.922 82.7293 116.897 82.7293Z" fill="black"/>
<path d="M119.382 82.4252C119.306 82.4252 119.255 82.3998 119.204 82.3238C117.911 80.6512 117.176 78.8265 116.618 77.2552C116.567 77.1539 116.643 77.0271 116.744 76.9765C116.846 76.9258 116.973 77.0018 117.023 77.1032C117.607 78.7251 118.291 80.4231 119.559 82.0704C119.585 82.1211 119.61 82.1718 119.61 82.1971C119.61 82.3238 119.508 82.4252 119.382 82.4252Z" fill="black"/>
<path d="M115.147 84.0978C115.071 84.0978 114.995 84.0471 114.944 83.9711L114.893 83.8697C114.716 83.5402 114.335 82.8306 113.904 81.969C113.6 81.3861 113.296 80.7779 113.042 80.2203C112.915 79.9416 112.763 79.6628 112.636 79.384C112.56 79.232 112.51 79.0799 112.433 78.9278C112.383 78.8265 112.433 78.6998 112.535 78.6491C112.636 78.5984 112.763 78.6491 112.814 78.7504C112.89 78.9025 112.941 79.0546 113.017 79.2066C113.143 79.4854 113.27 79.7642 113.397 80.0429C113.676 80.6005 113.955 81.2087 114.259 81.7916C114.69 82.6279 115.071 83.3375 115.248 83.6923L115.299 83.7937C115.35 83.895 115.324 84.0218 115.197 84.0724C115.223 84.0724 115.172 84.0978 115.147 84.0978Z" fill="black"/>
<path d="M112.18 78.9785C111.876 79.0799 111.546 79.1559 111.216 79.2573C110.912 79.3333 110.633 79.4094 110.329 79.4854C110.101 79.0546 109.822 78.4717 109.796 77.8128C109.771 77.4833 109.822 77.3059 109.949 77.1792C110.126 76.9764 110.557 76.9258 110.582 76.9258C110.633 76.9258 110.684 76.9258 110.735 76.9511C110.811 76.9764 110.836 77.0018 110.887 77.0271C111.115 77.1538 111.318 77.4073 111.445 77.6354C111.546 77.8128 111.622 77.9395 111.673 78.0662C111.8 78.2689 111.977 78.5984 112.18 78.9785Z" fill="black"/>
<path d="M115.147 84.0978C115.071 84.0978 115.02 84.0725 114.969 84.0218L114.944 83.9964C114.563 83.3629 114.183 82.7546 113.803 82.1717L113.676 81.9943C113.397 81.5635 113.118 81.1327 112.788 80.5751C112.712 80.4484 112.636 80.3217 112.484 80.0429L112.433 79.9669C112.256 79.6628 112.18 79.5107 112.104 79.384C112.028 79.2573 111.977 79.1813 111.901 79.0039L111.875 78.9785L112.256 78.7505L112.078 78.8518L112.281 78.7505L112.307 78.8011C112.383 78.9532 112.433 79.0292 112.509 79.1813C112.585 79.308 112.662 79.4601 112.839 79.7642L112.89 79.8402C113.042 80.119 113.118 80.2457 113.194 80.3724C113.498 80.9299 113.777 81.3354 114.056 81.7663L114.183 81.9437C114.563 82.5266 114.944 83.1348 115.324 83.7684C115.4 83.8697 115.375 83.9964 115.273 84.0725C115.248 84.0978 115.197 84.0978 115.147 84.0978Z" fill="black"/>
<path d="M113.676 84.8834C113.6 84.8834 113.549 84.8581 113.498 84.8074C112.941 84.0471 112.383 83.2868 111.85 82.5012C111.8 82.4505 110.861 81.082 110.405 80.1443C110.379 80.0683 110.227 79.7642 110.177 79.6375L110.151 79.5868C110.126 79.5614 110.126 79.5361 110.101 79.4854L110.075 79.4601L110.278 79.3587L110.481 79.2827L110.278 79.3587L110.481 79.2827L110.506 79.3333C110.506 79.3587 110.532 79.384 110.532 79.4094L110.557 79.4601C110.608 79.5868 110.76 79.8909 110.785 79.9416C111.216 80.8286 112.205 82.2224 112.205 82.2478C112.738 83.0081 113.296 83.7937 113.853 84.5286C113.93 84.63 113.904 84.7567 113.803 84.8327C113.777 84.8581 113.727 84.8834 113.676 84.8834Z" fill="black"/>
<path d="M118.57 92.1062C118.519 92.1062 118.469 92.0808 118.418 92.0301C118.393 92.0048 114.69 88.2034 111.926 85.2129C111.597 84.8581 111.267 84.5033 110.963 84.1485C110.303 83.4136 109.822 82.8814 109.517 82.5012C109.467 82.4505 109.416 82.3745 109.365 82.3238C109.238 82.1971 109.162 82.0704 109.086 81.969C108.503 81.158 108.326 80.5245 108.554 80.119C108.579 80.0683 108.731 79.8149 109.036 79.7135C109.315 79.6121 109.593 79.7135 109.822 79.8402C110.075 79.9669 110.253 80.0936 110.303 80.1443C110.658 80.4484 111.546 81.4622 112.586 82.6786C112.662 82.78 112.662 82.9067 112.56 82.9827C112.459 83.0588 112.332 83.0588 112.256 82.9574C111.09 81.5889 110.303 80.7272 110.025 80.4738C109.999 80.4484 109.847 80.3471 109.644 80.2457C109.492 80.1697 109.34 80.0936 109.188 80.1443C109.036 80.195 108.96 80.3217 108.96 80.3471C108.909 80.4484 108.807 80.8032 109.467 81.7409C109.543 81.8423 109.619 81.969 109.746 82.0957C109.796 82.1464 109.822 82.1971 109.872 82.2478C110.177 82.6279 110.658 83.1601 111.318 83.8951C111.622 84.2245 111.952 84.5793 112.281 84.9341C114.716 87.5444 117.809 90.763 118.595 91.574L123.109 85.1115L123.008 84.9848C122.931 84.8834 122.881 84.7821 122.805 84.6807C122.805 84.6807 122.805 84.6554 122.779 84.6554C122.729 84.5793 122.678 84.5033 122.627 84.4273C122.627 84.4273 122.602 84.4019 122.602 84.3766C122.526 84.2499 122.424 84.1232 122.348 83.9964C122.145 83.667 121.968 83.3375 121.79 82.9827L121.689 82.78C121.613 82.6279 121.537 82.4759 121.461 82.3238C121.435 82.2985 121.435 82.2731 121.41 82.2478C121.385 82.1718 121.334 82.0957 121.309 82.0197C121.309 82.0197 121.309 81.9944 121.283 81.969L121.258 81.9183C121.182 81.7409 121.106 81.5889 121.055 81.4368C120.776 80.7526 120.548 80.0683 120.345 79.4854C120.244 79.1813 120.142 78.9025 120.066 78.6491C120.066 78.6237 120.041 78.5731 120.015 78.5477C119.813 78.0155 119.559 77.4073 119.255 77.3819C119.077 77.3566 118.874 77.5087 118.748 77.6607C118.595 77.8888 118.57 78.2183 118.646 78.8518C118.671 79.0039 118.697 79.1813 118.748 79.384C118.824 79.7388 118.976 80.3978 119.584 82.1464C119.584 82.1718 119.61 82.1971 119.61 82.2224C119.61 82.3492 119.508 82.4505 119.407 82.4505C119.305 82.4505 119.229 82.3998 119.204 82.2985C119.204 82.2985 119.204 82.2985 119.204 82.2731C118.595 80.4991 118.443 79.8149 118.367 79.4347C118.316 79.232 118.291 79.0546 118.266 78.8772C118.164 78.1169 118.19 77.6861 118.443 77.3819C118.621 77.1539 118.95 76.8751 119.331 76.9258C119.838 77.0018 120.142 77.5593 120.446 78.3703C120.446 78.3957 120.472 78.4463 120.472 78.4717C120.573 78.7251 120.649 79.0292 120.751 79.308C120.954 79.8909 121.156 80.5498 121.461 81.2341C121.511 81.3861 121.588 81.5382 121.664 81.6902C121.664 81.6902 121.689 81.7156 121.689 81.7409L121.714 81.7916C121.74 81.8676 121.79 81.9437 121.816 82.0197C121.841 82.045 121.841 82.0704 121.841 82.0957C121.917 82.2478 121.993 82.3998 122.069 82.5519L122.171 82.7546C122.348 83.0841 122.526 83.4136 122.729 83.743C122.805 83.8697 122.881 83.9964 122.982 84.1232L123.008 84.1485C123.058 84.2245 123.109 84.3006 123.16 84.3766C123.16 84.3766 123.16 84.4019 123.185 84.4019C123.236 84.478 123.312 84.5793 123.363 84.6554C123.388 84.6807 123.413 84.706 123.439 84.7567L123.464 84.8074C123.464 84.8074 123.464 84.8074 123.489 84.8328C123.515 84.8581 123.515 84.8834 123.54 84.9088L123.565 84.9341C123.591 85.0102 123.591 85.0862 123.565 85.1622L123.287 85.5677C123.287 85.5677 123.287 85.5677 123.287 85.593L118.824 91.9795C118.722 92.0808 118.646 92.1062 118.57 92.1062C118.57 92.1062 118.595 92.1062 118.57 92.1062Z" fill="black"/>
<path d="M109.111 84.2499C109.086 84.2499 109.061 84.2499 109.01 84.2245C108.909 84.1738 108.858 84.0471 108.909 83.9458L109.593 82.4759C109.644 82.3745 109.771 82.3238 109.872 82.3745C109.974 82.4252 110.024 82.5519 109.974 82.6533L109.289 84.1232C109.289 84.1992 109.213 84.2499 109.111 84.2499Z" fill="black"/>
<path d="M108.656 67.4982C108.63 67.4982 108.63 67.4982 108.605 67.4982C108.554 67.4982 108.504 67.4475 108.453 67.3968L104.446 61.1878C104.37 61.0864 104.421 60.9597 104.497 60.8837C104.598 60.8077 104.725 60.8584 104.801 60.9344L108.706 66.9407L119.458 59.059C119.559 58.983 119.686 59.0083 119.762 59.1097C119.838 59.2111 119.813 59.3378 119.712 59.4138L108.782 67.4222C108.732 67.4729 108.706 67.4982 108.656 67.4982Z" fill="black"/>
<path d="M108.681 68.0557C109.115 68.0557 109.467 67.704 109.467 67.2701C109.467 66.8362 109.115 66.4845 108.681 66.4845C108.247 66.4845 107.895 66.8362 107.895 67.2701C107.895 67.704 108.247 68.0557 108.681 68.0557Z" fill="black"/>
<path d="M96.56 37.1374C96.5346 37.1374 96.5093 37.1374 96.4839 37.1374L91.0067 35.186C90.9053 35.1353 90.8292 35.0339 90.8799 34.9072C90.9306 34.8058 91.0321 34.7298 91.1588 34.7805L96.6361 36.7319C96.7375 36.7826 96.8136 36.884 96.7629 37.0107C96.7121 37.0867 96.6361 37.1374 96.56 37.1374Z" fill="black"/>
<path d="M102.215 32.2716C102.139 32.2716 102.063 32.2209 102.012 32.1448L99.5521 26.8735C99.5014 26.7721 99.5521 26.6454 99.6536 26.5947C99.755 26.5441 99.8818 26.5947 99.9325 26.6961L102.392 31.9674C102.443 32.0688 102.392 32.1955 102.291 32.2462C102.291 32.2716 102.265 32.2716 102.215 32.2716Z" fill="black"/>
<path d="M108.96 31.4352C108.934 31.4352 108.909 31.4352 108.884 31.4352C108.782 31.3846 108.706 31.2832 108.757 31.1565L110.684 25.6824C110.735 25.581 110.836 25.505 110.963 25.5557C111.064 25.6064 111.14 25.7077 111.09 25.8345L109.163 31.3085C109.137 31.3846 109.061 31.4352 108.96 31.4352Z" fill="black"/>
</g>
</svg>
