<svg width="250" height="212" viewBox="0 0 250 212" fill="none" xmlns="http://www.w3.org/2000/svg">
<path d="M221.418 117.228C217.851 117.228 214.083 114.487 210.227 109.049C210.182 108.982 210.182 108.871 210.271 108.826C210.338 108.781 210.449 108.781 210.494 108.871C214.418 114.375 218.208 117.072 221.775 116.894C224.673 116.738 226.657 114.777 228.775 112.704C230.87 110.654 233.01 108.514 236.131 108.38C239.609 108.202 243.221 110.542 246.877 115.311C246.944 115.378 246.921 115.49 246.855 115.557C246.788 115.623 246.676 115.601 246.609 115.534C243.02 110.854 239.52 108.559 236.154 108.737C233.166 108.893 231.049 110.966 228.998 112.971C226.947 114.999 224.806 117.094 221.797 117.25C221.663 117.228 221.529 117.228 221.418 117.228Z" fill="black"/>
<path d="M22.2487 177.068C19.2837 177.068 16.1626 174.795 12.9524 170.293C12.9078 170.226 12.9078 170.114 12.997 170.07C13.0861 170.025 13.1753 170.025 13.2199 170.114C16.4747 174.661 19.5958 176.89 22.5385 176.734C24.9239 176.6 26.5736 174.995 28.3125 173.279C30.0514 171.563 31.8349 169.802 34.4209 169.669C37.319 169.513 40.3064 171.452 43.3383 175.419C43.4051 175.486 43.3828 175.597 43.316 175.664C43.2491 175.708 43.1376 175.708 43.0707 175.642C40.1057 171.786 37.2076 169.892 34.4432 170.025C31.9686 170.137 30.2297 171.875 28.5577 173.524C26.8635 175.196 25.1023 176.934 22.5831 177.09C22.4494 177.068 22.3379 177.068 22.2487 177.068Z" fill="black"/>
<path d="M6.64331 65.1663C4.61461 65.1663 2.45215 63.6063 0.245107 60.5084C0.200521 60.4415 0.200521 60.3301 0.289694 60.2855C0.356574 60.241 0.468041 60.241 0.512628 60.3301C2.71967 63.428 4.83754 64.9435 6.82165 64.832C8.42678 64.7429 9.54145 63.6508 10.723 62.4919C11.9045 61.3107 13.153 60.1072 14.9364 60.0181C16.9206 59.929 18.9938 61.2439 21.0671 63.9628C21.134 64.0297 21.1117 64.1411 21.0448 64.208C20.9779 64.2749 20.8665 64.2526 20.7996 64.1857C18.7932 61.5559 16.8314 60.2855 14.9587 60.3747C13.2867 60.4638 12.1721 61.5782 10.9682 62.7594C9.78667 63.9183 8.58283 65.0995 6.84395 65.1886C6.77707 65.1663 6.71019 65.1663 6.64331 65.1663Z" fill="black"/>
<path d="M31.2022 115.884L34.5932 118.947L31.5294 122.337L28.1384 119.274L31.2022 115.884Z" fill="#FFD6D3"/>
<path d="M93.8135 2.76283L97.2046 5.82574L94.1407 9.21577L90.7497 6.15286L93.8135 2.76283Z" fill="#FFD6D3"/>
<path fill-rule="evenodd" clip-rule="evenodd" d="M246.186 141.922C246.208 141.944 246.253 141.966 246.297 141.966C246.311 141.966 246.333 141.958 246.364 141.946C246.383 141.939 246.406 141.93 246.431 141.922L249.753 138.601C249.82 138.534 249.82 138.423 249.753 138.356L246.431 135.035C246.364 134.968 246.253 134.968 246.186 135.035L242.864 138.356C242.797 138.423 242.797 138.534 242.864 138.601L246.186 141.922ZM246.297 141.565L243.199 138.467L246.297 135.369L249.396 138.467L246.297 141.565Z" fill="black"/>
<path d="M239.074 87.6536C239.052 87.6536 239.03 87.6536 239.007 87.6536C238.918 87.6313 238.874 87.5199 238.918 87.4308L240.835 82.394C240.858 82.3048 240.969 82.2602 241.058 82.3048C241.147 82.3271 241.192 82.4385 241.147 82.5277L239.23 87.5645C239.208 87.609 239.141 87.6536 239.074 87.6536Z" fill="black"/>
<path d="M242.775 33.9872C242.73 33.9872 242.686 33.965 242.641 33.9204L239.074 29.8642C239.007 29.7973 239.029 29.6859 239.096 29.619C239.163 29.5522 239.275 29.5745 239.342 29.6413L242.909 33.6975C242.975 33.7644 242.953 33.8758 242.886 33.9427C242.864 33.965 242.819 33.9872 242.775 33.9872Z" fill="black"/>
<path d="M12.5734 140.651C12.5288 140.651 12.4842 140.629 12.4619 140.607L8.64977 136.774C8.58289 136.707 8.58289 136.595 8.64977 136.528C8.71665 136.461 8.82812 136.461 8.895 136.528L12.7072 140.362C12.774 140.429 12.774 140.54 12.7072 140.607C12.6626 140.629 12.618 140.651 12.5734 140.651Z" fill="black"/>
<path d="M17.1882 94.3396C17.1659 94.3396 17.1213 94.3396 17.099 94.3173L12.3951 91.6429C12.3059 91.5984 12.2836 91.4869 12.3282 91.4201C12.3728 91.3532 12.4843 91.3086 12.5511 91.3532L17.255 94.0276C17.3442 94.0722 17.3665 94.1836 17.3219 94.2505C17.2996 94.3173 17.2327 94.3396 17.1882 94.3396Z" fill="black"/>
<path d="M10.6785 201.227C10.6339 201.227 10.6116 201.204 10.567 201.182L6.39812 197.75C6.33124 197.683 6.30895 197.594 6.37583 197.505C6.44271 197.438 6.53188 197.416 6.62106 197.483L10.7899 200.915C10.8568 200.982 10.8791 201.071 10.8122 201.16C10.7676 201.204 10.723 201.227 10.6785 201.227Z" fill="black"/>
<path d="M38.5007 82.5277C38.4562 82.5277 38.4116 82.5054 38.3893 82.4831C38.3224 82.4162 38.3224 82.3048 38.3893 82.2379L42.1569 78.3601C42.2237 78.2932 42.3352 78.2932 42.4021 78.3601C42.469 78.4269 42.469 78.5383 42.4021 78.6052L38.6122 82.4608C38.5899 82.5054 38.5453 82.5277 38.5007 82.5277Z" fill="black"/>
<path d="M36.3383 46.1781C36.2937 46.1781 36.2491 46.1558 36.2045 46.1112L32.9051 41.8544C32.8382 41.7876 32.8605 41.6761 32.9274 41.6093C32.9943 41.5424 33.1058 41.5647 33.1726 41.6316L36.4721 45.8883C36.5389 45.9552 36.5167 46.0666 36.4498 46.1335C36.4052 46.1558 36.3829 46.1781 36.3383 46.1781Z" fill="black"/>
<path d="M15.0257 21.0832C14.9811 21.0832 14.9142 21.0609 14.8919 21.0164C14.8473 20.9495 14.8473 20.8381 14.9142 20.7712L19.2168 17.5174C19.2837 17.4728 19.3952 17.4728 19.4621 17.5396C19.5066 17.6065 19.5066 17.7179 19.4398 17.7848L15.1371 21.0609C15.0926 21.0832 15.0703 21.0832 15.0257 21.0832Z" fill="black"/>
<path d="M43.0485 22.0861C43.0262 22.0861 43.0262 22.0861 43.0039 22.0861C42.9147 22.0638 42.8701 21.9747 42.8924 21.8856L44.23 16.6482C44.2523 16.559 44.3415 16.5145 44.4306 16.5367C44.5198 16.559 44.5644 16.6482 44.5421 16.7373L43.2045 21.9747C43.1822 22.0193 43.1153 22.0861 43.0485 22.0861Z" fill="black"/>
<path d="M73.0109 8.78097C72.944 8.78097 72.8995 8.75868 72.8772 8.69182L70.0459 4.10076C70.0013 4.01162 70.0236 3.92247 70.0905 3.8779C70.1797 3.83332 70.2688 3.85561 70.3134 3.92247L73.1447 8.51353C73.1893 8.60268 73.167 8.69182 73.1001 8.7364C73.0778 8.75868 73.0555 8.78097 73.0109 8.78097Z" fill="black"/>
<path d="M119.47 10.6531C119.426 10.6531 119.403 10.6531 119.359 10.6085C119.292 10.5639 119.27 10.4525 119.337 10.3633L122.591 6.03971C122.636 5.97285 122.747 5.95056 122.837 6.01742C122.926 6.08428 122.926 6.17343 122.859 6.26257L119.604 10.5862C119.582 10.6308 119.515 10.6531 119.47 10.6531Z" fill="black"/>
<path d="M148.095 9.42728C148.05 9.42728 148.006 9.40499 147.961 9.3827L144.327 5.39338C144.26 5.32652 144.26 5.21509 144.327 5.14823C144.394 5.08137 144.506 5.08137 144.572 5.14823L148.229 9.13755C148.295 9.20441 148.295 9.31584 148.229 9.3827C148.184 9.40499 148.139 9.42728 148.095 9.42728Z" fill="black"/>
<path d="M41.0868 1.84979C41.0645 1.84979 41.0645 1.84979 41.0422 1.84979L35.8479 0.334295C35.7587 0.312008 35.7141 0.222861 35.7364 0.133715C35.7587 0.0445677 35.8479 -5.73322e-06 35.937 0.022281L41.1314 1.53778C41.2206 1.56006 41.2652 1.64921 41.2429 1.73836C41.2206 1.80522 41.1537 1.84979 41.0868 1.84979Z" fill="black"/>
<path d="M199.86 9.44957C199.816 9.44957 199.771 9.42729 199.749 9.405C199.682 9.33814 199.682 9.24899 199.726 9.15985L203.338 5.12595C203.405 5.05909 203.494 5.05909 203.583 5.10367C203.65 5.17053 203.65 5.25967 203.605 5.34882L200.016 9.38271C199.972 9.42729 199.905 9.44957 199.86 9.44957Z" fill="black"/>
<path d="M177.567 6.24028C177.5 6.24028 177.433 6.1957 177.411 6.12884C177.388 6.0397 177.433 5.95055 177.522 5.92826L182.672 4.30133C182.761 4.27905 182.85 4.32362 182.873 4.41277C182.895 4.50191 182.85 4.59106 182.761 4.61335L177.611 6.24028C177.589 6.24028 177.589 6.24028 177.567 6.24028Z" fill="black"/>
<path d="M45.0994 201.516C45.0548 201.516 45.0102 201.494 44.9879 201.472C44.9211 201.405 44.9211 201.294 44.9656 201.227L48.5772 197.215C48.6441 197.148 48.7555 197.148 48.8224 197.193C48.8893 197.26 48.8893 197.371 48.8447 197.438L45.2332 201.45C45.1886 201.494 45.144 201.516 45.0994 201.516Z" fill="black"/>
<path d="M210.36 83.33C210.316 83.33 210.249 83.3077 210.227 83.2631L206.994 78.9395C206.95 78.8727 206.95 78.7612 207.039 78.7167C207.106 78.6721 207.217 78.6721 207.262 78.7612L210.494 83.0849C210.539 83.1517 210.539 83.2631 210.45 83.3077C210.427 83.3077 210.383 83.33 210.36 83.33Z" fill="black"/>
<path d="M232.498 59.7952C232.431 59.7952 232.364 59.7506 232.342 59.6838C232.319 59.5946 232.342 59.5055 232.431 59.4609L237.469 57.5443C237.558 57.522 237.647 57.5443 237.692 57.6334C237.714 57.7226 237.692 57.8117 237.603 57.8563L232.564 59.7729C232.542 59.7952 232.52 59.7952 232.498 59.7952Z" fill="black"/>
<path d="M218.163 31.8254C218.118 31.8254 218.074 31.8031 218.029 31.7585L214.574 27.6132C214.507 27.5464 214.529 27.4349 214.596 27.3681C214.663 27.3012 214.774 27.3235 214.841 27.3904L218.297 31.5357C218.364 31.6025 218.341 31.714 218.275 31.7808C218.252 31.8031 218.208 31.8254 218.163 31.8254Z" fill="black"/>
<path d="M227.771 13.8623C227.705 13.8623 227.638 13.8177 227.615 13.7509C227.571 13.6617 227.615 13.5726 227.705 13.528L232.698 11.4554C232.787 11.4108 232.877 11.4554 232.921 11.5445C232.966 11.6336 232.921 11.7228 232.832 11.7674L227.838 13.84C227.816 13.8623 227.794 13.8623 227.771 13.8623Z" fill="black"/>
<path d="M218.386 142.501C218.341 142.501 218.297 142.479 218.274 142.457L214.373 138.735C214.306 138.668 214.306 138.556 214.373 138.49C214.44 138.423 214.552 138.423 214.618 138.49L218.52 142.211C218.587 142.278 218.587 142.39 218.52 142.457C218.475 142.479 218.431 142.501 218.386 142.501Z" fill="black"/>
<path d="M78.874 187.164C78.8517 187.164 78.8071 187.164 78.7848 187.141L74.3039 184.133C74.237 184.088 74.2147 183.977 74.2593 183.91C74.3039 183.843 74.4153 183.821 74.4822 183.865L78.9632 186.874C79.0301 186.919 79.0524 187.03 79.0078 187.097C78.9632 187.119 78.9186 187.164 78.874 187.164Z" fill="black"/>
<path d="M103.062 195.677C103.04 195.677 103.018 195.677 102.995 195.655C102.906 195.61 102.884 195.521 102.906 195.432L105.202 190.551C105.247 190.462 105.336 190.44 105.425 190.462C105.515 190.507 105.537 190.596 105.515 190.685L103.218 195.588C103.174 195.633 103.129 195.677 103.062 195.677Z" fill="black"/>
<path d="M212.924 203.901C212.879 203.901 212.857 203.879 212.813 203.856L208.644 200.424C208.577 200.357 208.555 200.268 208.621 200.179C208.688 200.112 208.777 200.09 208.867 200.157L213.036 203.589C213.102 203.656 213.125 203.745 213.058 203.834C213.013 203.879 212.969 203.901 212.924 203.901Z" fill="black"/>
<path d="M237.536 164.587C237.514 164.587 237.469 164.587 237.447 164.565C237.38 164.52 237.358 164.409 237.402 164.342L240.456 159.885C240.501 159.818 240.612 159.796 240.679 159.84C240.746 159.885 240.768 159.996 240.724 160.063L237.67 164.52C237.647 164.565 237.603 164.587 237.536 164.587Z" fill="black"/>
<path d="M210.516 172.365C211.92 172.365 213.058 171.228 213.058 169.825C213.058 168.421 211.92 167.284 210.516 167.284C209.113 167.284 207.975 168.421 207.975 169.825C207.975 171.228 209.113 172.365 210.516 172.365Z" fill="#FFD6D3"/>
<path d="M76.6222 203.723C78.0997 203.723 79.2974 202.525 79.2974 201.048C79.2974 199.571 78.0997 198.374 76.6222 198.374C75.1448 198.374 73.947 199.571 73.947 201.048C73.947 202.525 75.1448 203.723 76.6222 203.723Z" fill="#FFD6D3"/>
<path d="M10.6784 40.8961C11.4172 40.8961 12.016 40.2974 12.016 39.5589C12.016 38.8204 11.4172 38.2217 10.6784 38.2217C9.93969 38.2217 9.34082 38.8204 9.34082 39.5589C9.34082 40.2974 9.93969 40.8961 10.6784 40.8961Z" fill="#FFD6D3"/>
<path d="M215.265 54.803C217.653 54.803 219.59 52.8673 219.59 50.4794C219.59 48.0915 217.653 46.1558 215.265 46.1558C212.876 46.1558 210.94 48.0915 210.94 50.4794C210.94 52.8673 212.876 54.803 215.265 54.803Z" fill="#FFD6D3"/>
<path fill-rule="evenodd" clip-rule="evenodd" d="M37.1407 149.588C37.5197 149.923 38.0101 150.101 38.5006 150.101H38.6343C39.1694 150.056 39.6598 149.789 40.0388 149.388C40.4178 148.987 40.5961 148.452 40.5516 147.895C40.507 147.36 40.2617 146.847 39.8382 146.49C39.4369 146.112 38.9019 145.933 38.3445 145.978C37.2076 146.067 36.3604 147.048 36.4273 148.184C36.4719 148.719 36.7171 149.232 37.1407 149.588ZM37.3413 149.343C37.0069 149.053 36.784 148.63 36.7617 148.162C36.6948 147.204 37.4305 146.379 38.3668 146.334C38.8127 146.312 39.2585 146.446 39.6152 146.758C39.9496 147.048 40.1726 147.471 40.1949 147.939C40.2172 148.385 40.0834 148.831 39.7713 149.187C39.4815 149.521 39.0579 149.744 38.5897 149.767C38.1439 149.789 37.698 149.655 37.3413 149.343Z" fill="black"/>
<path fill-rule="evenodd" clip-rule="evenodd" d="M162.073 13.684C162.273 13.7955 162.496 13.8623 162.719 13.8623C163.098 13.8623 163.5 13.6617 163.722 13.3274C163.901 13.06 163.945 12.7257 163.879 12.436C163.812 12.1462 163.633 11.8788 163.366 11.7005C162.808 11.3439 162.073 11.4999 161.716 12.0571C161.538 12.3245 161.493 12.6366 161.56 12.9486C161.627 13.2383 161.805 13.5057 162.073 13.684ZM163.433 13.1269C163.187 13.528 162.652 13.6395 162.251 13.3943C162.05 13.2606 161.917 13.0823 161.872 12.8594C161.828 12.6366 161.85 12.4137 161.984 12.2131C162.229 11.8119 162.764 11.7005 163.165 11.9457C163.366 12.0571 163.5 12.2577 163.544 12.4805C163.589 12.7034 163.566 12.9263 163.433 13.1269Z" fill="black"/>
<path fill-rule="evenodd" clip-rule="evenodd" d="M236.488 198.775C236.711 198.909 236.956 198.976 237.202 198.976C237.244 198.976 237.286 198.971 237.33 198.966C237.38 198.96 237.433 198.953 237.491 198.953C237.848 198.864 238.138 198.664 238.339 198.352C238.539 198.062 238.606 197.705 238.517 197.349C238.428 196.992 238.227 196.702 237.915 196.502C237.291 196.123 236.466 196.301 236.065 196.925C235.686 197.549 235.864 198.374 236.488 198.775ZM236.979 196.636C237.046 196.613 237.135 196.613 237.202 196.613C237.38 196.613 237.581 196.658 237.737 196.769C238.205 197.081 238.339 197.705 238.049 198.173C237.915 198.396 237.692 198.552 237.424 198.619C237.157 198.686 236.889 198.619 236.667 198.485C236.198 198.173 236.065 197.549 236.354 197.081C236.488 196.858 236.711 196.702 236.979 196.636Z" fill="black"/>
<path fill-rule="evenodd" clip-rule="evenodd" d="M55.4703 74.3449H197.656C197.745 74.3449 197.835 74.2558 197.835 74.1666V63.7794C197.835 63.6679 197.745 63.601 197.656 63.601H55.4703C55.3588 63.601 55.292 63.6902 55.292 63.7794V74.1666C55.292 74.2781 55.3811 74.3449 55.4703 74.3449ZM197.5 74.0106H55.6485V63.9577H197.5V74.0106Z" fill="black"/>
<path fill-rule="evenodd" clip-rule="evenodd" d="M55.4703 74.3449H197.656C197.745 74.3449 197.835 74.2558 197.835 74.1666V19.2435C197.835 19.1321 197.745 19.0652 197.656 19.0652H55.4703C55.3588 19.0652 55.292 19.1543 55.292 19.2435V74.1666C55.292 74.2781 55.3811 74.3449 55.4703 74.3449ZM197.5 74.0106H55.6485V19.3995H197.5V74.0106Z" fill="black"/>
<path fill-rule="evenodd" clip-rule="evenodd" d="M116.792 109.497H197.656C197.745 109.497 197.835 109.43 197.857 109.341V80.9651C197.857 80.8537 197.768 80.7868 197.679 80.7868H116.792C116.681 80.7868 116.614 80.876 116.614 80.9651V109.318C116.614 109.43 116.703 109.497 116.792 109.497ZM197.5 109.162H116.948V81.1212H197.5V109.162Z" fill="black"/>
<path d="M117.482 120.9L142.934 116.117L163.005 161.822L197.679 178.088L197.997 196.336L158.439 184.303C158.439 184.303 152.404 182.187 147.565 177.407C142.758 173.257 143.576 173.257 139.168 167.218C134.759 161.178 117.482 120.9 117.482 120.9Z" fill="#FEB4AB"/>
<path d="M100.365 127.046L125.817 127.737L123.992 175.11L151.708 208.089L123.398 211.606L99.3511 175.85L100.365 127.046Z" fill="#FEB4AB"/>
<path fill-rule="evenodd" clip-rule="evenodd" d="M55.4703 175.03H108.993C109.083 175.03 109.172 174.941 109.172 174.852V80.3633C109.172 80.2518 109.083 80.185 108.993 80.185H55.4703C55.3588 80.185 55.292 80.2741 55.292 80.3633V174.852C55.292 174.963 55.3811 175.03 55.4703 175.03ZM108.837 174.696H55.6485V80.5416H108.837V174.696Z" fill="black"/>
<path d="M148.723 40.1294C148.679 40.1294 148.634 40.1071 148.612 40.0848C146.651 38.0341 143.041 34.1557 140.835 31.2579C140.301 30.5446 139.186 29.0958 139.699 28.0481C139.899 27.6469 140.278 27.3571 140.702 27.2903C141.66 27.1565 142.484 28.2042 143.086 28.962L143.153 29.0512C143.977 30.0988 144.891 31.1688 145.916 32.2387C145.47 31.5923 145.114 31.0127 144.958 30.7898C144.49 30.0765 144.089 29.4747 143.732 28.962C142.462 27.0897 141.927 26.3095 142.261 25.4625C142.462 24.9498 142.952 24.5486 143.42 24.4817C144.445 24.3257 145.314 25.6185 146.607 27.5577L146.718 27.7138C147.832 29.3855 149.013 31.1019 150.216 32.8405C150.261 32.9074 150.261 33.0188 150.172 33.0634C150.105 33.108 149.994 33.108 149.949 33.0188C148.746 31.2802 147.565 29.5639 146.451 27.8921L146.339 27.7361C145.158 25.9751 144.311 24.6823 143.487 24.816C143.13 24.8606 142.752 25.195 142.596 25.5962C142.328 26.2649 142.818 27.0005 144.022 28.7837C144.378 29.2964 144.779 29.8982 145.247 30.6115C145.403 30.8567 145.804 31.4808 146.272 32.1718C146.629 32.7068 146.985 33.2195 147.297 33.6653L147.364 33.7544C148.189 34.7352 148.211 34.7575 148.189 34.8912C148.189 34.9358 148.166 34.9804 148.122 35.0027C147.966 35.1141 147.921 35.1364 147.052 33.8882C147.052 33.8882 147.052 33.8882 147.03 33.8659C145.47 32.3279 144.089 30.7898 142.908 29.2741L142.841 29.1849C142.328 28.5162 141.548 27.5132 140.768 27.6246C140.457 27.6692 140.145 27.8921 140.011 28.1819C139.587 29.0512 140.657 30.4555 141.103 31.0573C143.309 33.955 146.896 37.8112 148.857 39.8619C148.924 39.9288 148.924 40.0403 148.857 40.1071C148.813 40.1071 148.768 40.1294 148.723 40.1294Z" fill="black"/>
<path d="M158.996 39.6613C158.929 39.6613 158.862 39.6168 158.84 39.5499C158.84 39.5276 158.817 39.4607 158.773 39.3716C158.706 39.2155 158.617 38.9704 158.483 38.6583C157.948 37.2763 156.879 34.6683 156.233 33.1749C155.564 31.6592 154.896 30.2549 154.539 29.5639L154.45 29.3856C154.361 29.2072 154.294 29.0735 154.004 28.4271L153.692 27.7361C152.734 25.6185 152.244 24.5486 151.553 24.504C151.241 24.4817 150.885 24.6823 150.684 24.9498C150.328 25.4625 150.64 26.2203 151.219 27.6023C151.375 27.9813 151.531 28.3825 151.709 28.8506C152.088 29.8537 152.467 30.9013 152.779 31.9712C152.801 32.0604 152.757 32.1495 152.69 32.1718C152.623 32.2164 152.511 32.1718 152.489 32.105C151.442 30.344 150.484 28.6054 149.615 26.9336L149.503 26.733C148.768 25.3287 148.144 24.1251 147.342 24.1251C147.03 24.1251 146.718 24.2811 146.54 24.5263C146.116 25.1281 146.696 26.3095 147.832 28.4717C148.567 29.8759 149.325 31.2802 150.083 32.6399C150.127 32.7291 150.105 32.8182 150.016 32.8628C149.927 32.9074 149.838 32.8851 149.793 32.796C149.035 31.414 148.278 30.0097 147.52 28.6277C146.272 26.2872 145.693 25.1058 146.228 24.348C146.473 24.0136 146.896 23.7907 147.297 23.7907C148.3 23.7907 148.991 25.0835 149.771 26.577L149.882 26.7776C150.528 28.0036 151.219 29.2741 151.954 30.5669C151.776 30.0097 151.576 29.4747 151.375 28.962C151.197 28.4939 151.019 28.0927 150.885 27.7361C150.261 26.2426 149.927 25.4179 150.395 24.7492C150.662 24.3703 151.13 24.1474 151.553 24.1696C152.467 24.2142 152.935 25.2619 153.982 27.58L154.294 28.271C154.584 28.8952 154.651 29.0289 154.74 29.2072L154.829 29.3633C155.185 30.0766 155.876 31.5031 156.522 32.9966C157.191 34.5123 158.238 37.1203 158.773 38.5023C158.907 38.8143 158.996 39.0595 159.063 39.2155C159.107 39.3047 159.129 39.3716 159.129 39.3939C159.152 39.483 159.107 39.5722 159.018 39.6168C159.04 39.6613 159.018 39.6613 158.996 39.6613Z" fill="black"/>
<path d="M147.676 43.9857C147.632 43.9857 147.587 43.9634 147.565 43.9411C147.498 43.8742 147.431 43.8073 147.364 43.7405C147.32 43.7182 147.297 43.6736 147.253 43.6513C146.295 42.7597 145.27 42.0241 144.2 41.4669C143.866 41.2885 143.554 41.1325 143.242 40.9988C142.217 40.5084 141.392 40.1295 141.192 39.2824C141.058 38.7252 141.214 38.101 141.593 37.7667C142.306 37.1203 143.598 37.5438 145.091 38.0565C146.05 38.3908 146.785 38.7698 147.387 39.0595C147.877 39.3047 148.367 39.5722 148.835 39.862C149.08 39.6391 149.347 39.4162 149.615 39.2156C149.927 38.9927 150.462 38.6806 151.13 38.48C151.954 38.2125 152.823 38.1456 153.693 38.2571C153.782 38.2794 153.849 38.3462 153.849 38.4354C153.826 38.5246 153.759 38.5914 153.67 38.5914C152.846 38.48 152.021 38.5691 151.241 38.8143C150.595 39.0149 150.105 39.3047 149.815 39.5053C149.503 39.7059 149.236 39.9511 148.991 40.1963C148.946 40.2409 148.857 40.2632 148.79 40.2186C148.3 39.9288 147.788 39.6391 147.253 39.3716C146.651 39.0595 145.916 38.7029 145.002 38.3908C143.598 37.9227 142.395 37.4992 141.838 38.0342C141.526 38.3239 141.459 38.8589 141.548 39.2378C141.704 39.9288 142.417 40.2632 143.42 40.7313C143.732 40.8873 144.044 41.0434 144.401 41.2217C145.515 41.8012 146.562 42.5591 147.52 43.473C147.565 43.4953 147.587 43.5399 147.632 43.5844C147.698 43.6513 147.765 43.7182 147.854 43.7851C147.921 43.8519 147.921 43.9634 147.854 44.0302C147.765 43.9634 147.721 43.9857 147.676 43.9857Z" fill="black"/>
<path d="M147.743 35.6714C147.721 35.6714 147.699 35.6714 147.676 35.6491C147.587 35.6045 147.565 35.5154 147.587 35.4262C148.011 34.5346 148.612 33.7767 149.347 33.1972C151.197 31.7706 153.314 31.9044 154.138 32.0158C154.227 32.0381 154.294 32.105 154.272 32.2164C154.25 32.3056 154.183 32.3725 154.071 32.3502C153.292 32.2387 151.286 32.1273 149.526 33.4647C148.813 33.9996 148.233 34.7352 147.855 35.5822C147.877 35.6491 147.81 35.6714 147.743 35.6714Z" fill="black"/>
<path d="M158.929 39.327C155.185 40.8205 151.442 42.3139 147.676 43.8073C147.609 43.7405 147.543 43.6736 147.453 43.6067C151.175 41.935 154.896 40.2632 158.639 38.5914C158.773 38.9258 158.862 39.171 158.929 39.327Z" fill="black"/>
<path d="M88.2926 44.5875C88.1589 45.2562 88.3372 45.9472 88.3817 46.0364C88.4932 46.4376 88.6491 46.7274 88.7828 46.928C88.3595 46.8611 87.9138 46.7942 87.4904 46.7497C85.7524 45.2339 83.992 43.7182 82.254 42.2025C79.4464 44.2309 76.6387 46.2593 73.8311 48.31C73.5637 47.6413 72.0931 43.7628 74.0539 39.7728C76.6833 34.4009 82.967 34.0442 83.2344 34.0442C88.6046 33.8436 92.9274 37.8559 94.4649 42.1133C95.6682 45.4345 95.0443 48.4437 94.6878 49.7366C94.1975 48.9787 93.7073 48.2431 93.1948 47.4852C94.0416 46.6159 94.3089 45.3454 93.9079 44.2754C93.4176 42.9826 92.0584 42.2025 90.7214 42.4031C89.4513 42.5814 88.4932 43.5845 88.2926 44.5875Z" fill="black"/>
<path d="M87.2008 58.7864C87.134 58.7864 87.0671 58.7418 87.0448 58.6972L86.4432 57.4267C85.9307 57.6942 85.3959 57.8948 84.8611 58.0062C84.3486 58.1177 83.8138 58.1845 83.3236 58.1622C79.6247 58.0285 77.129 54.3283 76.0595 52.7457C74.6779 50.695 73.8089 48.1317 73.8089 48.1094C73.7866 48.0202 73.8312 47.9087 73.9203 47.8865C74.0094 47.8642 74.0986 47.8865 74.1209 47.9756V47.9979C74.1209 48.0202 74.9899 50.539 76.3268 52.5674C77.3741 54.1054 79.7807 57.7164 83.3236 57.8279C83.8138 57.8502 84.3041 57.8056 84.7943 57.6719C85.3291 57.5381 85.8861 57.3375 86.4209 57.0477H86.4432C86.4878 57.0254 86.5323 57.0254 86.5769 57.0254C86.6215 57.0477 86.666 57.07 86.6883 57.1146L87.3568 58.5412C87.4014 58.6303 87.3568 58.7195 87.2677 58.7641C87.2454 58.7641 87.2231 58.7864 87.2008 58.7864Z" fill="black"/>
<path d="M96.671 52.7011C96.6264 52.7011 96.5596 52.6789 96.5373 52.6343L95.7797 51.4529C95.1335 50.4498 94.4873 49.4245 93.8411 48.4214C93.7965 48.3545 93.8188 48.2431 93.8856 48.1985C93.9525 48.1539 94.0639 48.1762 94.1084 48.2431C94.7546 49.2462 95.4008 50.2715 96.047 51.2746L96.8047 52.4559C96.8492 52.5228 96.8269 52.6343 96.7601 52.6789C96.7378 52.6789 96.7155 52.7011 96.671 52.7011Z" fill="black"/>
<path d="M87.2008 58.608L89.5182 57.1146C89.5405 57.07 89.5628 57.0477 89.585 57.0031C90.5209 55.1976 90.8774 53.5482 91.0111 52.4337C90.5209 53.3921 89.6296 54.7964 88.0921 56.0001C87.5128 56.4682 86.9334 56.8025 86.4209 57.07C86.4432 57.1146 86.4655 57.1592 86.4877 57.2038C86.7106 57.6719 86.9557 58.14 87.2008 58.608Z" fill="black"/>
<path d="M108.993 80.3633V125.88C107.545 126.348 106.074 126.794 104.626 127.262C104.047 127.44 103.445 127.641 102.866 127.819C102.464 127.953 101.061 128.376 100.637 128.532C100.504 128.577 96.827 129.736 96.6487 129.781C95.8688 125.345 93.2617 103.01 92.9498 97.0809C91.8134 102.676 89.6965 106.688 88.1367 109.162C86.0421 112.461 84.4378 114.98 81.3628 116.295C80.4046 116.719 77.7307 117.677 69.3969 115.448C65.854 114.512 60.9963 112.907 55.4702 110.054C55.4702 104.57 55.4702 99.0871 55.4702 93.6037C58.4338 95.0525 61.9099 96.5014 65.8763 97.7719C68.8621 98.7081 71.6698 99.3991 74.2323 99.9118C74.8339 97.5045 75.5247 95.0302 76.26 92.5115C77.5301 88.2317 78.8894 84.1749 80.2932 80.3633H108.993V80.3633Z" fill="#007E7A"/>
<path fill-rule="evenodd" clip-rule="evenodd" d="M96.5597 129.937C96.582 129.959 96.6266 129.959 96.6489 129.959C96.6489 129.959 96.6711 129.959 96.6934 129.937L109.06 126.036C109.127 126.014 109.172 125.947 109.172 125.88V80.3856C109.172 80.2741 109.083 80.2072 108.993 80.2072H80.3602C80.2933 80.2072 80.2265 80.2518 80.2042 80.3187C78.7335 84.3086 77.3743 88.3878 76.171 92.4669C75.458 94.8742 74.7895 97.3038 74.1656 99.7335C71.4025 99.1985 68.6395 98.4852 65.9655 97.6382C62.4226 96.5237 58.9242 95.1194 55.5818 93.4922C55.5372 93.4476 55.4704 93.4699 55.4258 93.4922C55.359 93.5145 55.3367 93.5591 55.3367 93.626V110.076C55.3367 110.143 55.359 110.21 55.4258 110.232C59.9269 112.528 64.6286 114.356 69.3971 115.626C78.006 117.935 80.6055 116.84 81.4634 116.478L81.4743 116.473C84.5939 115.136 86.2428 112.55 88.3151 109.274C90.4097 105.952 91.9472 102.275 92.8831 98.3069C93.3956 105.685 95.7798 125.813 96.4929 129.825C96.4929 129.87 96.5152 129.914 96.5597 129.937ZM93.1059 97.0809C93.1059 96.9918 93.0391 96.9249 92.9499 96.9249C92.8608 96.9249 92.7939 96.9918 92.7939 97.0809C91.9026 101.45 90.2983 105.484 88.0032 109.095L88.001 109.099C85.8853 112.441 84.3478 114.869 81.3183 116.161C80.4939 116.518 77.9982 117.588 69.4639 115.314C64.74 114.044 60.1052 112.261 55.6486 109.987V93.9157C58.9242 95.4983 62.3557 96.8803 65.8318 97.9725C68.5726 98.8419 71.3802 99.5552 74.2101 100.112C74.2993 100.112 74.3884 100.068 74.4107 99.9787C75.0346 97.5045 75.7254 95.0302 76.4384 92.5783C77.6417 88.5438 78.9786 84.487 80.427 80.5416H108.815V125.746L96.7603 129.558C95.9804 124.877 93.4179 103.055 93.1059 97.0809Z" fill="black"/>
<path d="M116.792 116.117H139.989C139.967 116.117 139.944 116.139 139.922 116.139C137.337 116.964 134.73 117.766 132.145 118.591C131.655 118.747 131.143 118.903 130.652 119.059C127.555 120.04 124.48 120.998 121.383 121.979C119.845 122.47 118.308 122.938 116.792 123.428V116.117Z" fill="#007E7A"/>
<path fill-rule="evenodd" clip-rule="evenodd" d="M116.703 123.584C116.726 123.606 116.748 123.606 116.792 123.606C116.792 123.606 116.815 123.606 116.837 123.584L121.427 122.135C122.976 121.645 124.519 121.16 126.062 120.675C127.605 120.19 129.148 119.706 130.697 119.215L130.741 119.193C131.136 119.085 131.516 118.963 131.905 118.838C131.999 118.808 132.094 118.778 132.19 118.747C133.482 118.335 134.78 117.928 136.078 117.521C137.376 117.114 138.674 116.707 139.966 116.295L140.056 116.273C140.122 116.251 140.167 116.161 140.167 116.094C140.167 116.028 140.1 115.961 140.011 115.961H116.815C116.703 115.961 116.636 116.05 116.636 116.139V123.45C116.636 123.495 116.659 123.562 116.703 123.584ZM116.948 123.205V116.295H138.919L132.101 118.435C131.706 118.543 131.326 118.665 130.938 118.789C130.843 118.82 130.748 118.85 130.652 118.881L130.608 118.903C129.059 119.393 127.516 119.878 125.973 120.363C124.43 120.848 122.887 121.333 121.338 121.823L116.948 123.205Z" fill="black"/>
<path d="M134.151 80.9651C138.942 90.4162 143.755 99.8672 148.545 109.341H116.792V80.9651H134.151Z" fill="#007E7A"/>
<path fill-rule="evenodd" clip-rule="evenodd" d="M116.793 109.497H148.545C148.612 109.497 148.657 109.474 148.701 109.407C148.724 109.363 148.724 109.296 148.701 109.251L134.307 80.876C134.262 80.8314 134.218 80.7868 134.151 80.7868H116.793C116.681 80.7868 116.614 80.876 116.614 80.9651V109.318C116.614 109.43 116.703 109.497 116.793 109.497ZM148.278 109.162H116.948V81.1212H134.039L148.278 109.162Z" fill="black"/>
<path d="M173.948 74.1666H81.4519C81.8976 72.4502 82.4323 70.7116 83.1454 69.0176C83.8807 67.212 84.7943 65.4511 85.8862 63.7794C86.3318 63.0884 86.822 62.4196 87.3568 61.7732C87.0672 61.4612 85.5742 60.1906 85.2177 59.9454C89.0503 57.4712 92.8607 54.997 96.6933 52.5228C97.1612 52.2107 97.6292 51.8987 98.0971 51.6089C98.3645 52.3445 98.6319 53.1023 98.8993 53.8379C99.5009 53.6373 100.103 53.459 100.682 53.3029C102.442 52.8126 104.069 52.5228 105.428 52.2999C122.92 49.313 139.12 57.3598 148.902 63.8016C152.4 66.1198 155.096 68.2151 156.701 69.5302C155.876 67.6133 155.029 65.7186 154.205 63.8016C151.42 57.4043 148.634 50.9848 145.849 44.5875C146.473 44.3423 147.075 44.0971 147.698 43.8296C151.42 42.3139 155.163 40.8204 158.884 39.3047C158.884 39.327 158.907 39.327 158.907 39.3493C158.929 39.3938 158.974 39.4607 158.996 39.5053C161.692 43.9633 165.101 50.2269 168.199 58.0508C168.978 60.0123 169.736 61.9293 170.427 63.7794C171.875 67.5464 173.123 71.046 173.948 74.1666Z" fill="#007E7A"/>
<path fill-rule="evenodd" clip-rule="evenodd" d="M81.4518 74.3449H173.947C173.992 74.3449 174.059 74.3226 174.037 74.3004C174.059 74.2781 174.081 74.2112 174.059 74.1666C173.346 71.4472 172.254 68.2374 170.538 63.7571C169.847 61.9739 169.134 60.1461 168.377 58.2068L168.31 58.0285C165.77 51.6312 162.672 45.3899 159.085 39.4607C159.063 39.4385 159.04 39.3939 159.018 39.3494L159.018 39.3493L158.996 39.327C158.996 39.327 158.996 39.3047 158.973 39.2824C158.929 39.2155 158.84 39.1933 158.773 39.2155L145.738 44.476C145.693 44.4983 145.671 44.5206 145.648 44.5652C145.626 44.6098 145.626 44.6544 145.648 44.6989L156.233 69.0176C153.848 67.1229 151.464 65.362 148.946 63.7125C138.518 56.8471 122.474 49.2684 105.339 52.1885C103.957 52.4336 102.331 52.7234 100.593 53.1915C100.058 53.3253 99.5008 53.5036 98.9661 53.6819L98.2084 51.6089C98.1862 51.542 98.1416 51.5197 98.097 51.4975C98.0525 51.4752 98.0079 51.4975 97.9633 51.5197L96.5818 52.4336L85.1062 59.8563C85.0616 59.8786 85.0394 59.9454 85.0394 59.99C85.0394 60.0346 85.0616 60.1015 85.1062 60.1238C85.4404 60.3244 86.6883 61.3943 87.1339 61.8178C86.6437 62.4197 86.1981 63.0438 85.7524 63.7125C84.7051 65.2951 83.7692 67.0783 82.9893 68.973C82.3209 70.5779 81.7638 72.3165 81.2959 74.1443C81.2736 74.1889 81.2959 74.2335 81.3181 74.2781C81.3627 74.3226 81.4073 74.3449 81.4518 74.3449ZM173.725 74.0106H81.6747C82.1203 72.2719 82.6774 70.6225 83.3013 69.0399C84.0812 67.1675 84.9948 65.4288 86.0421 63.8462C86.4877 63.1552 86.9779 62.4865 87.4905 61.8624C87.5573 61.7955 87.5573 61.7064 87.4905 61.6395C87.2231 61.372 86.0421 60.369 85.5073 59.9454L96.7824 52.6565L98.0079 51.8541L98.7432 53.8825C98.7655 53.9717 98.8546 54.0162 98.9438 53.994C99.5231 53.7933 100.125 53.615 100.704 53.459C102.442 52.9909 104.047 52.7011 105.428 52.4559C122.452 49.5359 138.406 57.0923 148.79 63.9131C151.486 65.6963 154.049 67.5687 156.589 69.6417C156.634 69.6863 156.723 69.6863 156.79 69.6417C156.834 69.5971 156.857 69.508 156.834 69.4411L146.049 44.6544L158.795 39.5053C158.804 39.5223 158.809 39.5361 158.813 39.5479C158.821 39.5669 158.826 39.5807 158.84 39.5945C162.427 45.5014 165.525 51.7426 168.043 58.1177L168.109 58.296C168.867 60.2352 169.58 62.063 170.271 63.8462C171.942 68.1928 173.012 71.358 173.725 74.0106Z" fill="black"/>
<path d="M174.973 80.9651C174.95 83.2164 174.393 85.0665 173.123 86.4262C168.065 91.7982 153.693 87.0281 145.827 84.3978C142.596 83.3279 139.766 82.1242 137.382 80.9651H174.973Z" fill="#007E7A"/>
<path fill-rule="evenodd" clip-rule="evenodd" d="M145.804 84.5538C150.996 86.2925 159.196 89.0342 165.614 89.0342C168.8 89.0342 171.541 88.3655 173.257 86.5377C174.504 85.2003 175.128 83.3947 175.151 80.9651C175.151 80.9205 175.128 80.876 175.106 80.8537C175.084 80.8314 175.039 80.8091 174.995 80.8091H137.404C137.337 80.8091 137.27 80.876 137.248 80.9428C137.225 81.0097 137.27 81.0766 137.337 81.1211C140.078 82.4363 142.908 83.5954 145.804 84.5538ZM145.893 84.2195C143.264 83.3279 140.657 82.3025 138.139 81.1211H174.794C174.75 83.3725 174.17 85.0665 173.012 86.2925C168.004 91.6134 153.66 86.8168 145.921 84.2289L145.893 84.2195Z" fill="black"/>
<path d="M151.509 208.376C151.464 208.376 151.42 208.354 151.375 208.309L129.605 183.545C127.733 181.405 125.839 179.265 123.967 177.125C123.945 177.103 123.923 177.058 123.923 177.014C123.9 176.122 123.878 175.208 123.878 174.161C123.834 171.084 123.834 167.964 123.878 164.888C123.923 162.48 123.99 159.984 124.101 157.487C124.123 156.863 124.146 156.239 124.19 155.615C124.346 152.517 124.547 149.396 124.792 146.32C125.015 143.668 125.26 140.993 125.549 138.362C125.549 138.296 125.616 138.229 125.705 138.206C125.794 138.206 125.861 138.251 125.884 138.318C126.797 140.993 127.8 143.668 128.869 146.253C129.493 147.747 130.14 149.24 130.808 150.689C130.897 150.89 130.986 151.09 131.075 151.291C131.699 152.65 132.368 154.099 133.059 155.504C134.864 159.293 136.356 162.146 137.872 164.754C138.607 166.025 139.342 167.184 140.055 168.276C141.437 170.349 142.885 172.266 144.356 173.982C145.916 175.765 147.565 177.415 149.28 178.864C149.503 179.042 149.726 179.243 149.949 179.421C151.687 180.825 153.291 181.895 156.433 183.188C157.057 183.456 157.748 183.723 158.483 183.991C160.712 184.838 163.564 185.796 167.731 187.111C170.115 187.869 173.012 188.761 176.822 189.92L177 189.964C179.652 190.767 182.348 191.592 185.2 192.439L186.27 192.751C189.479 193.709 192.576 194.623 195.539 195.492L197.723 196.139C197.812 196.161 197.857 196.25 197.835 196.339C197.812 196.428 197.723 196.473 197.634 196.451L195.45 195.804C192.509 194.935 189.389 194.021 186.181 193.063L185.111 192.751C182.259 191.904 179.585 191.079 176.911 190.276L176.733 190.232C172.922 189.073 170.026 188.181 167.641 187.423C163.475 186.108 160.6 185.127 158.372 184.303C157.636 184.013 156.946 183.745 156.3 183.478C153.135 182.163 151.509 181.093 149.748 179.666C149.526 179.488 149.28 179.287 149.058 179.109C147.32 177.638 145.648 175.988 144.089 174.183C142.596 172.466 141.147 170.527 139.766 168.432C139.03 167.317 138.317 166.158 137.56 164.888C136.022 162.28 134.552 159.404 132.724 155.615C132.056 154.189 131.387 152.74 130.741 151.402C130.652 151.202 130.563 151.001 130.474 150.8C129.805 149.352 129.159 147.858 128.535 146.342C127.555 143.957 126.641 141.528 125.794 139.098C125.549 141.483 125.304 143.913 125.126 146.298C124.881 149.374 124.68 152.472 124.524 155.548C124.502 156.172 124.458 156.796 124.435 157.421C124.324 159.917 124.257 162.391 124.212 164.799C124.168 167.852 124.146 170.973 124.212 174.049C124.235 175.052 124.235 175.966 124.257 176.835C126.129 178.953 128 181.093 129.85 183.21L151.62 207.975C151.687 208.042 151.665 208.153 151.598 208.22C151.598 208.376 151.553 208.376 151.509 208.376Z" fill="black"/>
<path d="M197.656 176.256C197.634 176.256 197.612 176.256 197.59 176.234C197.055 176.011 196.52 175.765 196.007 175.543L186.159 171.196C183.061 169.836 179.986 168.477 176.889 167.117C175.351 166.448 173.814 165.757 172.276 165.088L172.009 164.977C170.538 164.331 169.09 163.684 167.619 163.038L164.656 161.723C164.611 161.7 164.589 161.678 164.567 161.633L154.16 136.802C152.913 133.838 151.687 130.895 150.439 127.931L145.515 116.184C145.47 116.095 145.515 116.005 145.604 115.961C145.693 115.916 145.782 115.961 145.827 116.05L150.751 127.797C151.999 130.761 153.225 133.704 154.472 136.668L164.856 161.433L167.753 162.703C169.224 163.35 170.672 163.996 172.143 164.643L172.41 164.754C173.948 165.423 175.485 166.114 177.023 166.782C180.12 168.142 183.195 169.502 186.292 170.862L196.141 175.208C196.676 175.431 197.188 175.676 197.723 175.899C197.812 175.944 197.857 176.033 197.812 176.122C197.79 176.211 197.723 176.256 197.656 176.256Z" fill="black"/>
<path d="M99.7238 175.03C99.6346 175.03 99.5678 174.963 99.5678 174.874C99.5455 174.651 99.5232 174.428 99.5009 174.205C99.2781 171.397 99.189 168.365 99.2336 164.932C99.2781 161.633 99.4564 158.535 99.6346 155.66C99.6569 155.102 99.7015 154.567 99.7238 154.077L99.7461 153.899C99.902 151.313 100.013 148.883 100.125 146.409C100.259 143.333 100.348 140.213 100.392 137.136C100.437 134.373 100.481 131.475 100.481 128.555C100.481 128.466 100.548 128.376 100.66 128.376C100.749 128.376 100.838 128.443 100.816 128.555C100.816 131.475 100.793 134.373 100.726 137.159C100.66 140.235 100.571 143.355 100.459 146.432C100.37 148.883 100.236 151.335 100.08 153.921L100.058 154.099C100.036 154.612 99.9912 155.147 99.9689 155.682C99.7906 158.557 99.6346 161.656 99.5678 164.932C99.5232 168.343 99.6124 171.374 99.8352 174.183C99.8575 174.406 99.8798 174.629 99.902 174.852C99.8798 174.941 99.8129 175.008 99.7238 175.03Z" fill="black"/>
<path d="M149.169 109.497H139.899C139.81 109.497 139.721 109.43 139.721 109.318C139.721 109.207 139.788 109.14 139.899 109.14H149.169C149.258 109.14 149.347 109.207 149.347 109.318C149.347 109.43 149.258 109.497 149.169 109.497Z" fill="black"/>
<path d="M146.718 118.769H132.145C132.056 118.769 131.967 118.702 131.967 118.591C131.967 118.48 132.034 118.413 132.145 118.413H146.718C146.807 118.413 146.896 118.48 146.896 118.591C146.896 118.702 146.807 118.769 146.718 118.769Z" fill="black"/>
<path d="M108.993 128.02H102.843C102.754 128.02 102.665 127.953 102.665 127.841C102.665 127.73 102.732 127.663 102.843 127.663H108.993C109.082 127.663 109.172 127.73 109.172 127.841C109.172 127.953 109.082 128.02 108.993 128.02Z" fill="black"/>
<path d="M150.595 128.02H116.792C116.703 128.02 116.614 127.953 116.614 127.841C116.614 127.73 116.681 127.663 116.792 127.663H150.595C150.684 127.663 150.773 127.73 150.773 127.841C150.773 127.953 150.684 128.02 150.595 128.02Z" fill="black"/>
<path d="M154.472 137.293H116.792C116.703 137.293 116.614 137.226 116.614 137.114C116.614 137.003 116.681 136.936 116.792 136.936H154.495C154.584 136.936 154.673 137.003 154.673 137.114C154.673 137.226 154.584 137.293 154.472 137.293Z" fill="black"/>
<path d="M108.993 137.293H100.526C100.437 137.293 100.348 137.226 100.348 137.114C100.348 137.003 100.415 136.936 100.526 136.936H108.993C109.082 136.936 109.172 137.003 109.172 137.114C109.172 137.226 109.082 137.293 108.993 137.293Z" fill="black"/>
<path d="M158.439 146.565H128.714C128.625 146.565 128.535 146.498 128.535 146.387C128.535 146.275 128.602 146.209 128.714 146.209H158.439C158.528 146.209 158.617 146.275 158.617 146.387C158.617 146.498 158.528 146.565 158.439 146.565Z" fill="black"/>
<path d="M124.97 146.565H116.792C116.703 146.565 116.614 146.498 116.614 146.387C116.614 146.275 116.681 146.209 116.792 146.209H124.97C125.059 146.209 125.148 146.275 125.148 146.387C125.148 146.498 125.059 146.565 124.97 146.565Z" fill="black"/>
<path d="M108.993 146.565H100.259C100.169 146.565 100.08 146.498 100.08 146.387C100.08 146.275 100.147 146.209 100.259 146.209H108.993C109.083 146.209 109.172 146.275 109.172 146.387C109.172 146.498 109.083 146.565 108.993 146.565Z" fill="black"/>
<path d="M162.249 155.816H132.88C132.791 155.816 132.702 155.749 132.702 155.637C132.702 155.526 132.769 155.459 132.88 155.459H162.249C162.338 155.459 162.427 155.526 162.427 155.637C162.427 155.749 162.338 155.816 162.249 155.816Z" fill="black"/>
<path d="M108.993 155.816H99.7683C99.6792 155.816 99.5901 155.749 99.5901 155.637C99.5901 155.526 99.6569 155.459 99.7683 155.459H108.993C109.083 155.459 109.172 155.526 109.172 155.637C109.172 155.749 109.083 155.816 108.993 155.816Z" fill="black"/>
<path d="M124.368 155.816H116.792C116.703 155.816 116.614 155.749 116.614 155.637C116.614 155.526 116.681 155.459 116.792 155.459H124.368C124.458 155.459 124.547 155.526 124.547 155.637C124.547 155.749 124.458 155.816 124.368 155.816Z" fill="black"/>
<path d="M172.343 165.088H137.716C137.627 165.088 137.538 165.022 137.538 164.91C137.538 164.799 137.604 164.732 137.716 164.732H172.343C172.432 164.732 172.521 164.799 172.521 164.91C172.521 165.022 172.432 165.088 172.343 165.088Z" fill="black"/>
<path d="M108.993 165.088H99.3894C99.3003 165.088 99.2112 165.022 99.2112 164.91C99.2112 164.799 99.278 164.732 99.3894 164.732H108.993C109.082 164.732 109.172 164.799 109.172 164.91C109.172 165.022 109.082 165.088 108.993 165.088Z" fill="black"/>
<path d="M124.056 165.088H116.792C116.703 165.088 116.614 165.022 116.614 164.91C116.614 164.799 116.681 164.732 116.792 164.732H124.056C124.146 164.732 124.235 164.799 124.235 164.91C124.235 165.022 124.146 165.088 124.056 165.088Z" fill="black"/>
<path d="M124.056 175.03H116.792C116.703 175.03 116.614 174.963 116.614 174.852C116.614 174.74 116.681 174.673 116.792 174.673H124.056C124.146 174.673 124.235 174.74 124.235 174.852C124.235 174.963 124.146 175.03 124.056 175.03Z" fill="black"/>
<path d="M193.334 174.361H144.222C144.133 174.361 144.044 174.294 144.044 174.183C144.044 174.071 144.111 174.005 144.222 174.005H193.334C193.423 174.005 193.512 174.071 193.512 174.183C193.512 174.294 193.445 174.361 193.334 174.361Z" fill="black"/>
<path d="M129.739 183.612H116.792C116.703 183.612 116.614 183.545 116.614 183.433C116.614 183.322 116.681 183.255 116.792 183.255H129.761C129.85 183.255 129.939 183.322 129.939 183.433C129.939 183.545 129.828 183.612 129.739 183.612Z" fill="black"/>
<path d="M197.656 183.612H156.366C156.277 183.612 156.188 183.545 156.188 183.433C156.188 183.322 156.255 183.255 156.366 183.255H197.656C197.746 183.255 197.835 183.322 197.835 183.433C197.835 183.545 197.746 183.612 197.656 183.612Z" fill="black"/>
<path d="M137.894 192.884H116.792C116.703 192.884 116.614 192.817 116.614 192.706C116.614 192.595 116.681 192.528 116.792 192.528H137.894C137.983 192.528 138.072 192.595 138.072 192.706C138.072 192.817 137.983 192.884 137.894 192.884Z" fill="black"/>
<path d="M197.656 192.884H185.133C185.044 192.884 184.955 192.817 184.955 192.706C184.955 192.595 185.022 192.528 185.133 192.528H197.656C197.745 192.528 197.834 192.595 197.834 192.706C197.834 192.817 197.745 192.884 197.656 192.884Z" fill="black"/>
<path d="M146.027 202.157H116.792C116.703 202.157 116.614 202.09 116.614 201.979C116.614 201.867 116.681 201.8 116.792 201.8H146.05C146.139 201.8 146.228 201.867 146.228 201.979C146.228 202.09 146.116 202.157 146.027 202.157Z" fill="black"/>
<path d="M102.866 175.03C102.776 175.03 102.687 174.963 102.687 174.852V127.819C102.687 127.73 102.754 127.641 102.866 127.641C102.977 127.641 103.044 127.708 103.044 127.819V174.852C103.021 174.941 102.955 175.03 102.866 175.03Z" fill="black"/>
<path d="M121.383 208.376C121.293 208.376 121.204 208.309 121.204 208.198V201.956V121.979C121.204 121.89 121.271 121.801 121.383 121.801C121.494 121.801 121.561 121.868 121.561 121.979V208.22C121.539 208.309 121.472 208.376 121.383 208.376Z" fill="black"/>
<path d="M130.652 151.001C130.563 151.001 130.474 150.934 130.474 150.823V119.059C130.474 118.97 130.541 118.881 130.652 118.881C130.764 118.881 130.83 118.948 130.83 119.059V150.845C130.808 150.934 130.741 151.001 130.652 151.001Z" fill="black"/>
<path d="M130.652 208.376C130.563 208.376 130.474 208.309 130.474 208.198V184.481C130.474 184.392 130.541 184.303 130.652 184.303C130.764 184.303 130.83 184.369 130.83 184.481V208.22C130.808 208.309 130.741 208.376 130.652 208.376Z" fill="black"/>
<path d="M139.899 168.633C139.81 168.633 139.721 168.566 139.721 168.454V116.139C139.721 116.05 139.788 115.961 139.899 115.961C140.011 115.961 140.078 116.028 140.078 116.139V168.454C140.078 168.543 139.989 168.633 139.899 168.633Z" fill="black"/>
<path d="M139.899 208.376C139.81 208.376 139.721 208.309 139.721 208.198V195.002C139.721 194.913 139.788 194.824 139.899 194.824C140.011 194.824 140.078 194.89 140.078 195.002V208.198C140.078 208.309 139.989 208.376 139.899 208.376Z" fill="black"/>
<path d="M149.169 179.265C149.08 179.265 148.991 179.198 148.991 179.087V124.453C148.991 124.364 149.058 124.275 149.169 124.275C149.281 124.275 149.347 124.342 149.347 124.453V179.087C149.325 179.198 149.258 179.265 149.169 179.265Z" fill="black"/>
<path d="M149.169 208.376C149.08 208.376 148.991 208.309 148.991 208.198V205.523C148.991 205.434 149.058 205.345 149.169 205.345C149.281 205.345 149.347 205.411 149.347 205.523V208.198C149.325 208.309 149.258 208.376 149.169 208.376Z" fill="black"/>
<path d="M158.439 184.436C158.35 184.436 158.26 184.369 158.26 184.258V146.387C158.26 146.298 158.327 146.209 158.439 146.209C158.55 146.209 158.617 146.275 158.617 146.387V184.258C158.595 184.369 158.528 184.436 158.439 184.436Z" fill="black"/>
<path d="M167.686 187.557C167.597 187.557 167.508 187.49 167.508 187.379V162.882C167.508 162.793 167.575 162.703 167.686 162.703C167.797 162.703 167.864 162.77 167.864 162.882V187.401C167.864 187.49 167.775 187.557 167.686 187.557Z" fill="black"/>
<path d="M176.956 190.41C176.866 190.41 176.777 190.343 176.777 190.232V166.961C176.777 166.872 176.844 166.782 176.956 166.782C177.067 166.782 177.134 166.849 177.134 166.961V190.254C177.112 190.343 177.045 190.41 176.956 190.41Z" fill="black"/>
<path d="M186.225 193.196C186.136 193.196 186.047 193.13 186.047 193.018V171.018C186.047 170.928 186.114 170.839 186.225 170.839C186.337 170.839 186.404 170.906 186.404 171.018V193.018C186.381 193.13 186.315 193.196 186.225 193.196Z" fill="black"/>
<path d="M195.473 195.938C195.384 195.938 195.294 195.871 195.294 195.76V175.119C195.294 175.03 195.361 174.941 195.473 174.941C195.584 174.941 195.651 175.008 195.651 175.119V195.76C195.651 195.871 195.562 195.938 195.473 195.938Z" fill="black"/>
</svg>
