<svg width="250" height="195" viewBox="0 0 250 195" fill="none" xmlns="http://www.w3.org/2000/svg">
<path d="M221.817 20.8724C218.734 20.8724 215.476 18.5131 212.16 13.8235C212.102 13.7361 212.102 13.5905 212.218 13.5322C212.306 13.474 212.451 13.474 212.509 13.5905C215.854 18.3092 219.083 20.6102 222.108 20.4646C224.58 20.319 226.267 18.6587 228.071 16.8819C229.874 15.1051 231.736 13.2701 234.441 13.1244C237.437 12.9788 240.578 14.9886 243.72 19.1247C243.807 19.2121 243.778 19.3578 243.691 19.4451C243.603 19.5325 243.458 19.5034 243.371 19.416C240.316 15.4255 237.321 13.4449 234.47 13.5905C231.939 13.707 230.223 15.4255 228.391 17.2023C226.617 18.95 224.784 20.7559 222.166 20.9015C222.05 20.8724 221.934 20.8724 221.817 20.8724Z" fill="black"/>
<path d="M29.2616 92.5263C26.4111 92.5263 23.4151 90.3417 20.3319 86.0017C20.2737 85.9143 20.2737 85.7687 20.3901 85.7104C20.4773 85.6522 20.6228 85.6522 20.681 85.7687C23.7933 90.1087 26.7601 92.235 29.5525 92.0894C31.8213 91.9729 33.392 90.4291 35.0499 88.798C36.7079 87.1668 38.424 85.4483 40.9546 85.3318C43.7469 85.1861 46.6265 87.0503 49.5352 90.866C49.6225 90.9534 49.5934 91.099 49.5061 91.1864C49.4189 91.2738 49.2735 91.2447 49.1862 91.1573C46.3648 87.4581 43.6015 85.6522 40.9837 85.7978C38.6567 85.9143 37.0569 87.4872 35.3699 89.1475C33.741 90.7786 32.0249 92.4389 29.6107 92.5554C29.4652 92.5263 29.3489 92.5263 29.2616 92.5263Z" fill="black"/>
<path fill-rule="evenodd" clip-rule="evenodd" d="M33.0429 53.5826C33.072 53.6118 33.1302 53.6409 33.1883 53.6409L36.9115 53.3787C36.9288 53.3701 36.9462 53.364 36.9628 53.3581C37.0018 53.3444 37.0365 53.3322 37.0569 53.2914C37.086 53.2622 37.1151 53.204 37.1151 53.1457L36.8533 49.4174C36.8533 49.3009 36.7369 49.2135 36.6206 49.2135L32.8975 49.4756C32.7811 49.4756 32.6938 49.5922 32.6938 49.7087L32.9556 53.437C32.9643 53.4544 32.9704 53.4718 32.9762 53.4884C32.9899 53.5274 33.0021 53.5622 33.0429 53.5826ZM33.3628 53.204L33.1302 49.9126L36.417 49.6795L36.6497 52.971L33.3628 53.204Z" fill="black"/>
<path fill-rule="evenodd" clip-rule="evenodd" d="M239.893 134.813C239.927 134.833 239.954 134.849 239.997 134.849C240.055 134.849 240.113 134.82 240.171 134.761L243.778 130.188C243.836 130.13 243.836 130.072 243.836 130.013C243.836 129.955 243.807 129.897 243.749 129.868L239.182 126.256C239.066 126.169 238.949 126.198 238.862 126.285L235.255 130.858C235.168 130.975 235.197 131.091 235.284 131.179L239.851 134.79C239.867 134.798 239.88 134.806 239.893 134.813ZM239.967 134.324L235.75 130.975L239.095 126.751L243.312 130.101L239.967 134.324Z" fill="black"/>
<path d="M191.164 66.5824L193.158 70.8901L188.856 72.8865L186.862 68.5788L191.164 66.5824Z" fill="#01BDB7"/>
<path d="M65.9111 41.0286C65.8529 41.0286 65.7947 40.9995 65.7656 40.9704C65.6784 40.883 65.6784 40.7374 65.7656 40.65L68.7616 37.4751C68.8489 37.3877 68.9943 37.3877 69.0816 37.4751C69.1688 37.5625 69.1688 37.7081 69.0816 37.7955L66.0565 40.9704C66.0274 40.9995 65.9692 41.0286 65.9111 41.0286Z" fill="black"/>
<path d="M2.4141 82.7685C2.32684 82.7685 2.26867 82.7103 2.21049 82.652L0.290751 78.7489C0.232577 78.6324 0.290751 78.5159 0.378012 78.4577C0.49436 78.3994 0.610707 78.4577 0.668881 78.545L2.61771 82.4481C2.67588 82.5646 2.61771 82.6812 2.53045 82.7394C2.47227 82.7685 2.44319 82.7685 2.4141 82.7685Z" fill="black"/>
<path d="M150.99 18.6878C150.932 18.6878 150.874 18.6587 150.845 18.6296C150.758 18.5422 150.758 18.3966 150.845 18.3092L153.812 15.1343C153.899 15.0469 154.045 15.0469 154.132 15.1343C154.219 15.2216 154.219 15.3673 154.132 15.4547L151.165 18.6296C151.107 18.6587 151.049 18.6878 150.99 18.6878Z" fill="black"/>
<path d="M192.73 17.3188C192.672 17.3188 192.585 17.2897 192.556 17.2314L190.2 13.5613C190.142 13.4739 190.171 13.3283 190.258 13.2701C190.374 13.2118 190.491 13.2409 190.549 13.3283L192.905 16.9984C192.963 17.0858 192.934 17.2314 192.847 17.2897C192.818 17.3188 192.788 17.3188 192.73 17.3188Z" fill="black"/>
<path d="M9.94771 136.159C9.86045 136.159 9.80227 136.13 9.77319 136.043C9.71501 135.926 9.7441 135.81 9.83136 135.752L13.5545 133.48C13.6708 133.421 13.7872 133.451 13.8454 133.538C13.9035 133.654 13.8744 133.771 13.7872 133.829L10.0641 136.101C10.035 136.159 9.97679 136.159 9.94771 136.159Z" fill="black"/>
<path d="M218.414 110.702C218.385 110.702 218.356 110.702 218.327 110.673L214.458 108.692C214.342 108.634 214.313 108.517 214.371 108.401C214.429 108.284 214.545 108.255 214.662 108.313L218.53 110.294C218.647 110.352 218.676 110.469 218.618 110.585C218.588 110.673 218.501 110.702 218.414 110.702Z" fill="black"/>
<path d="M246.134 169.19C246.105 169.19 246.076 169.19 246.047 169.161C245.93 169.103 245.901 168.986 245.96 168.87L247.908 164.967C247.967 164.85 248.083 164.821 248.199 164.879C248.316 164.937 248.345 165.054 248.286 165.171L246.338 169.074C246.309 169.161 246.221 169.19 246.134 169.19Z" fill="black"/>
<path d="M203.376 159.52C203.289 159.52 203.231 159.491 203.172 159.403C203.114 159.287 203.143 159.17 203.26 159.112L207.07 157.015C207.186 156.956 207.303 156.986 207.361 157.102C207.419 157.219 207.39 157.335 207.274 157.393L203.463 159.491C203.434 159.52 203.405 159.52 203.376 159.52Z" fill="black"/>
<path d="M244.563 89.1475C244.505 89.1475 244.476 89.1475 244.447 89.1183C244.36 89.0601 244.33 88.9144 244.389 88.8271L246.919 85.2735C246.977 85.1861 247.123 85.157 247.21 85.2152C247.297 85.2735 247.326 85.4191 247.268 85.5065L244.738 89.0601C244.709 89.0892 244.65 89.1475 244.563 89.1475Z" fill="black"/>
<path d="M177.78 49.4757C177.75 49.4757 177.721 49.4757 177.692 49.4466C177.576 49.3883 177.547 49.2718 177.605 49.1553L179.554 45.2522C179.612 45.1357 179.728 45.1066 179.845 45.1648C179.961 45.2231 179.99 45.3396 179.932 45.4561L177.983 49.3592C177.925 49.4174 177.838 49.4757 177.78 49.4757Z" fill="black"/>
<path d="M213.44 67.2435C213.411 67.2435 213.353 67.2435 213.324 67.2144C213.208 67.1561 213.178 67.0105 213.237 66.9231L215.447 63.1656C215.505 63.0491 215.651 63.02 215.738 63.0783C215.854 63.1365 215.884 63.2822 215.825 63.3695L213.615 67.127C213.586 67.2144 213.527 67.2435 213.44 67.2435Z" fill="black"/>
<path d="M94.969 166.015C94.8527 166.015 94.7654 165.928 94.7654 165.84C94.7363 165.724 94.8236 165.607 94.9399 165.578L99.2448 164.85C99.3611 164.821 99.4775 164.908 99.5066 165.025C99.5357 165.141 99.4484 165.258 99.3321 165.287L95.0272 166.015C94.969 166.015 94.969 166.015 94.969 166.015Z" fill="black"/>
<path d="M38.8311 9.68736C38.7729 9.68736 38.6857 9.65823 38.6566 9.59998L36.1842 6.01729C36.126 5.9299 36.126 5.78426 36.2424 5.72601C36.3296 5.66775 36.4751 5.66775 36.5333 5.78426L39.0056 9.36696C39.0638 9.45434 39.0638 9.59998 38.9475 9.65823C38.9184 9.68736 38.8893 9.68736 38.8311 9.68736Z" fill="black"/>
<path d="M8.92967 25.7076C8.87149 25.7076 8.81332 25.6784 8.78423 25.6493C8.69697 25.5619 8.69697 25.4454 8.75514 25.3289L11.6348 22.0666C11.722 21.9792 11.8384 21.9792 11.9547 22.0375C12.042 22.1249 12.042 22.2414 11.9838 22.3579L9.10419 25.6202C9.04601 25.6784 8.98784 25.7076 8.92967 25.7076Z" fill="black"/>
<path d="M67.2781 143.063C67.2199 143.063 67.1617 143.033 67.1035 143.004C67.0163 142.917 67.0163 142.771 67.1035 142.684L70.3031 139.742C70.3904 139.655 70.5358 139.655 70.6231 139.742C70.7103 139.829 70.7103 139.975 70.6231 140.062L67.4235 143.004C67.3944 143.033 67.3362 143.063 67.2781 143.063Z" fill="black"/>
<path d="M74.9281 183.667C74.899 183.667 74.8699 183.667 74.8699 183.667C74.7535 183.637 74.6954 183.492 74.7245 183.404L76.0625 179.268C76.0915 179.152 76.237 179.093 76.3242 179.123C76.4406 179.152 76.4988 179.297 76.4697 179.385L75.1317 183.521C75.1026 183.608 75.0153 183.667 74.9281 183.667Z" fill="black"/>
<path d="M8.4643 183.2C8.40612 183.2 8.34795 183.171 8.31886 183.142C8.2316 183.055 8.2316 182.909 8.31886 182.822L11.2566 179.618C11.3439 179.53 11.4893 179.53 11.5766 179.618C11.6639 179.705 11.6639 179.851 11.5766 179.938L8.63882 183.142C8.58065 183.171 8.52247 183.2 8.4643 183.2Z" fill="black"/>
<path fill-rule="evenodd" clip-rule="evenodd" d="M95.1726 10.7651C95.5216 11.1146 95.987 11.3185 96.4815 11.3185C96.976 11.3185 97.4414 11.1146 97.7904 10.7651C98.1394 10.4156 98.3431 9.94953 98.3431 9.45436C98.3431 8.95919 98.1394 8.49315 97.7904 8.14362C97.0632 7.41543 95.8998 7.41543 95.1726 8.14362C94.4454 8.87181 94.4454 10.0369 95.1726 10.7651ZM95.4925 10.4738C94.9399 9.9204 94.9399 9.01744 95.4925 8.46402C96.0452 7.91059 96.9469 7.91059 97.4704 8.49315C97.7322 8.7553 97.8777 9.10483 97.8777 9.48348C97.8777 9.86214 97.7322 10.2117 97.4704 10.4738C97.2087 10.736 96.8596 10.8816 96.4815 10.8816C96.1034 10.8816 95.7543 10.736 95.4925 10.4738Z" fill="black"/>
<path d="M38.8312 175.016C39.6987 175.016 40.4019 174.311 40.4019 173.443C40.4019 172.574 39.6987 171.87 38.8312 171.87C37.9637 171.87 37.2605 172.574 37.2605 173.443C37.2605 174.311 37.9637 175.016 38.8312 175.016Z" fill="#01BDB7"/>
<path d="M92.3801 57.8644C93.0709 57.8644 93.6309 57.3037 93.6309 56.6119C93.6309 55.9202 93.0709 55.3594 92.3801 55.3594C91.6894 55.3594 91.1294 55.9202 91.1294 56.6119C91.1294 57.3037 91.6894 57.8644 92.3801 57.8644Z" fill="#01BDB7"/>
<path d="M220.479 183.433C221.62 183.433 222.544 182.508 222.544 181.365C222.544 180.223 221.62 179.297 220.479 179.297C219.339 179.297 218.414 180.223 218.414 181.365C218.414 182.508 219.339 183.433 220.479 183.433Z" fill="#01BDB7"/>
<path fill-rule="evenodd" clip-rule="evenodd" d="M245.668 46.0386C246.018 46.2425 246.396 46.359 246.803 46.359C247.006 46.359 247.21 46.3299 247.385 46.2716C247.995 46.0969 248.461 45.7182 248.781 45.1939C249.101 44.6696 249.188 44.0871 249.013 43.4754C248.839 42.8637 248.461 42.3685 247.937 42.0772C247.414 41.7568 246.803 41.6986 246.221 41.8442C245.61 42.019 245.145 42.3977 244.825 42.9219C244.505 43.4462 244.418 44.0288 244.592 44.6405C244.767 45.2522 245.145 45.7473 245.668 46.0386ZM246.374 42.2701C246.52 42.2451 246.651 42.2229 246.803 42.2229C247.123 42.2229 247.443 42.3103 247.705 42.4559C248.141 42.6889 248.461 43.0967 248.577 43.5628C248.723 44.0288 248.635 44.524 248.403 44.9609C248.17 45.3978 247.763 45.7182 247.297 45.8347C246.832 45.9803 246.337 45.893 245.901 45.6599C245.465 45.4269 245.145 45.0191 245.029 44.5531C244.883 44.0871 244.97 43.5919 245.203 43.155C245.436 42.7181 245.843 42.3977 246.308 42.2811C246.331 42.2774 246.352 42.2737 246.374 42.2701Z" fill="black"/>
<path d="M48.1681 128.353C49.8227 128.353 51.164 127.01 51.164 125.353C51.164 123.696 49.8227 122.353 48.1681 122.353C46.5135 122.353 45.1721 123.696 45.1721 125.353C45.1721 127.01 46.5135 128.353 48.1681 128.353Z" fill="#01BDB7"/>
<path fill-rule="evenodd" clip-rule="evenodd" d="M106.325 32.4781C106.354 32.5072 106.383 32.5072 106.412 32.5072C106.468 32.5072 106.518 32.4864 106.561 32.4685C106.606 32.4498 106.643 32.4342 106.673 32.4491C106.717 32.3473 106.76 32.2528 106.804 32.1583C106.847 32.0638 106.891 31.9693 106.935 31.8675C106.935 31.8385 106.935 31.8094 106.964 31.7803C107.37 30.9952 107.951 30.3556 108.735 29.8031C108.939 29.6577 109.171 29.5124 109.404 29.367C110.362 28.7855 111.437 28.4075 112.395 28.0876C112.599 28.0004 112.802 27.9422 113.005 27.8841C114.458 27.4189 115.968 27.2153 117.537 27.1863C117.595 27.1863 117.653 27.1572 117.711 27.099C117.769 27.0409 117.769 26.9537 117.769 26.8955L116.375 16.777H127.993C128.139 16.777 128.255 16.6607 128.255 16.5153C128.255 16.3699 128.139 16.2536 127.993 16.2536H116.084C116.026 16.2536 115.968 16.2827 115.91 16.3408C115.852 16.399 115.852 16.4862 115.852 16.5444L117.246 26.6629C115.736 26.692 114.254 26.9246 112.86 27.3607C112.628 27.4189 112.424 27.477 112.192 27.5643C112.139 27.5835 112.086 27.6029 112.032 27.6224C111.115 27.9555 110.103 28.3233 109.142 28.8727C108.91 28.989 108.648 29.1634 108.445 29.3088C107.603 29.9194 106.964 30.6173 106.528 31.4314C106.513 31.4459 106.506 31.4605 106.499 31.475C106.492 31.4895 106.484 31.5041 106.47 31.5186C106.38 31.676 106.308 31.8507 106.239 32.016C106.219 32.0645 106.199 32.1121 106.179 32.1583C106.121 32.2746 106.208 32.42 106.325 32.4781ZM119.715 43.2654C119.686 43.2654 119.657 43.2654 119.628 43.2363C119.018 43.0037 118.437 42.713 117.856 42.4222C117.74 42.3641 117.682 42.2187 117.74 42.1024C117.798 41.9861 117.943 41.9279 118.059 41.9861C118.495 42.2187 118.931 42.4222 119.396 42.5967L117.798 30.8208C115.91 30.8208 114.254 31.0243 112.976 31.3732C112.773 31.4314 112.599 31.4895 112.424 31.5477C112.308 31.6058 112.163 31.5186 112.105 31.4023C112.047 31.286 112.134 31.1406 112.25 31.0825C112.424 31.0243 112.628 30.9662 112.831 30.908C114.196 30.53 115.997 30.3265 118.001 30.3265C118.118 30.3265 118.234 30.4137 118.234 30.53L119.918 42.9456C119.918 43.0328 119.889 43.12 119.831 43.1782C119.831 43.2363 119.773 43.2654 119.715 43.2654ZM132.031 57.7454H121.69C121.574 57.7454 121.458 57.6581 121.458 57.5418L121.284 56.2043L121.229 55.7909C121.072 54.6151 120.914 53.4209 120.732 52.25C120.528 50.738 120.325 49.2551 120.093 47.7432C118.786 47.307 117.537 46.7546 116.317 46.1149C116.026 45.9695 115.736 45.795 115.474 45.6206C115.358 45.5624 115.329 45.388 115.387 45.2717C115.445 45.1554 115.62 45.1263 115.736 45.1844C115.997 45.3589 116.288 45.5043 116.578 45.6497C117.798 46.3184 119.105 46.8709 120.412 47.307C120.499 47.3361 120.557 47.4233 120.587 47.5105C120.795 48.8908 120.979 50.2944 121.162 51.6796L121.162 51.6796L121.226 52.1627C121.313 52.817 121.407 53.4784 121.501 54.1399C121.596 54.8014 121.69 55.4629 121.777 56.1171L121.923 57.2511H132.031C132.176 57.2511 132.292 57.3674 132.292 57.5128C132.292 57.6581 132.176 57.7454 132.031 57.7454Z" fill="black"/>
<path opacity="0.1" d="M145.974 24.6857C144.725 33.8447 143.476 43.0328 142.197 52.1918C141.965 53.9655 141.704 55.7391 141.471 57.4837H132.031C132.147 55.5065 132.293 53.5293 132.409 51.5521C131.799 51.0288 131.102 50.2728 130.463 49.2842C129.214 47.3652 128.836 45.4752 128.72 44.3703C128.487 44.4285 128.197 44.4575 127.848 44.4575C125.612 44.3412 123.317 41.6372 123.23 38.8458C123.143 36.3162 124.857 33.554 126.657 33.4086C127.558 33.3214 128.168 33.8447 128.168 33.8447C128.371 34.0192 128.633 34.2809 128.894 35.0369C129.097 35.5893 129.359 36.4907 129.388 37.6537C129.446 36.8687 129.562 35.7638 129.882 34.5135C129.911 34.4553 129.911 34.3972 129.94 34.3099C129.94 34.2809 129.969 34.2227 129.969 34.1936C129.969 34.1646 129.998 34.1355 129.998 34.0773C129.998 34.0483 130.027 34.0192 130.027 33.9901C130.085 33.7575 130.172 33.4958 130.259 33.205C130.288 33.1178 130.317 33.0306 130.346 32.9724C130.346 32.9143 130.375 32.8852 130.405 32.8271C130.405 32.7689 130.434 32.7398 130.463 32.6817C130.521 32.5072 130.579 32.3037 130.666 32.1002C130.666 32.0711 130.666 32.0711 130.695 32.042C130.724 31.9838 130.753 31.8966 130.782 31.8094C130.782 31.8094 130.782 31.8094 130.782 31.7803C130.84 31.6349 130.898 31.4896 130.956 31.3442V31.3151C130.985 31.2569 131.014 31.1697 131.044 31.1116C131.073 31.0243 131.131 30.9371 131.16 30.8208C131.247 30.6173 131.363 30.3847 131.479 30.1811C131.537 30.0648 131.595 29.9776 131.654 29.8613C131.741 29.7159 131.799 29.5705 131.886 29.4251C131.973 29.2507 132.089 29.1053 132.176 28.9308C132.205 28.9018 132.205 28.8727 132.234 28.8436C132.293 28.7273 132.38 28.6401 132.467 28.5238C132.583 28.3493 132.728 28.1749 132.873 27.9713C132.932 27.9132 132.961 27.855 133.019 27.7678C133.048 27.7387 133.048 27.7096 133.077 27.7096C133.135 27.6515 133.193 27.5643 133.251 27.5061C133.309 27.4189 133.396 27.3607 133.454 27.2735C133.513 27.1863 133.6 27.1281 133.687 27.0409C133.745 26.9827 133.832 26.8955 133.89 26.8374C133.977 26.7501 134.064 26.692 134.152 26.6047C134.21 26.5466 134.268 26.4884 134.326 26.4303C134.413 26.3431 134.5 26.2558 134.616 26.1977C134.674 26.1395 134.762 26.0814 134.82 26.0232C134.994 25.8778 135.168 25.7615 135.371 25.6452C135.459 25.5871 135.546 25.5289 135.633 25.4708C138.45 23.7262 142.488 23.4064 145.974 24.6857Z" fill="black"/>
<path fill-rule="evenodd" clip-rule="evenodd" d="M132.031 57.7454H141.471C141.587 57.7454 141.704 57.6291 141.646 57.4256L141.849 56.0008C141.936 55.3612 142.023 54.7142 142.11 54.0673C142.197 53.4203 142.285 52.7734 142.372 52.1337C143.513 43.9565 144.631 35.7562 145.746 27.574C145.88 26.5916 146.014 25.6094 146.148 24.6276C146.177 24.5113 146.119 24.395 146.003 24.3659C142.43 23.0575 138.334 23.3773 135.371 25.2091L135.11 25.3836C135.064 25.4167 135.019 25.4484 134.975 25.4792C134.827 25.5835 134.693 25.6784 134.558 25.7906C134.529 25.8197 134.493 25.8488 134.457 25.8779C134.42 25.907 134.384 25.936 134.355 25.9651C134.311 26.0087 134.26 26.0523 134.21 26.096C134.159 26.1396 134.108 26.1832 134.064 26.2268C133.977 26.2849 133.919 26.3431 133.861 26.4013C133.774 26.4594 133.687 26.5466 133.6 26.6339L133.396 26.8374C133.309 26.8955 133.222 26.9828 133.164 27.07C133.135 27.1136 133.099 27.15 133.062 27.1863C133.026 27.2227 132.99 27.259 132.961 27.3026C132.932 27.3462 132.903 27.3826 132.873 27.4189C132.844 27.4553 132.815 27.4916 132.786 27.5352C132.786 27.5643 132.757 27.5934 132.757 27.5934C132.728 27.6515 132.67 27.7388 132.612 27.7969C132.467 27.9714 132.322 28.1749 132.205 28.3494L132.176 28.3784C132.147 28.4366 132.111 28.4875 132.075 28.5384C132.038 28.5892 132.002 28.6401 131.973 28.6983C131.944 28.7273 131.915 28.7564 131.915 28.7855C131.871 28.8727 131.821 28.9527 131.77 29.0326C131.719 29.1126 131.668 29.1926 131.624 29.2798C131.581 29.3525 131.545 29.4252 131.508 29.4979C131.472 29.5706 131.436 29.6432 131.392 29.7159C131.334 29.8032 131.276 29.9195 131.218 30.0358C131.102 30.2393 130.985 30.4719 130.898 30.6755L130.782 30.9662L130.782 30.9662C130.753 31.0244 130.724 31.0825 130.695 31.1698V31.1988C130.637 31.3733 130.579 31.5187 130.521 31.664C130.506 31.6931 130.499 31.7222 130.492 31.7513C130.484 31.7804 130.477 31.8094 130.463 31.8385L130.434 31.8967C130.434 31.8967 130.405 31.9257 130.405 31.9548C130.375 32.0566 130.339 32.1583 130.303 32.2601C130.267 32.3619 130.23 32.4636 130.201 32.5654C130.201 32.5799 130.194 32.6018 130.187 32.6236C130.179 32.6454 130.172 32.6672 130.172 32.6817C130.143 32.7399 130.114 32.798 130.114 32.8271L130.027 33.0888C129.987 33.2355 129.947 33.3699 129.91 33.4949C129.866 33.6425 129.826 33.777 129.795 33.9029L129.649 34.4263C129.562 34.8334 129.475 35.2404 129.388 35.6766C129.33 35.4149 129.243 35.1532 129.156 34.9206C128.836 34.0774 128.575 33.7866 128.342 33.6122C128.313 33.5831 127.616 33.0306 126.658 33.1179C124.74 33.2923 122.91 36.1127 122.998 38.8168C123.085 41.6953 125.438 44.5448 127.848 44.6902C128.081 44.6902 128.284 44.6902 128.516 44.6611C128.749 46.3766 129.33 48.0049 130.259 49.4296C130.782 50.2438 131.45 50.9997 132.176 51.6685L131.799 57.4837C131.799 57.5419 131.828 57.6 131.857 57.6582C131.886 57.7163 131.973 57.7454 132.031 57.7454ZM141.268 57.2511H132.293L132.612 51.5522C132.612 51.465 132.583 51.4068 132.525 51.3487C131.77 50.709 131.131 49.953 130.608 49.1389C129.707 47.7141 129.097 46.0568 128.923 44.3122C128.918 44.301 128.912 44.2887 128.906 44.276C128.882 44.2226 128.854 44.1612 128.807 44.1377C128.749 44.1087 128.662 44.0796 128.604 44.1087C128.342 44.1668 128.081 44.1959 127.819 44.1668C125.699 44.0505 123.52 41.3755 123.433 38.7877C123.375 36.3744 125.002 33.7575 126.658 33.6122C127.442 33.554 127.994 33.9901 127.994 33.9901C128.168 34.1355 128.4 34.3681 128.662 35.095C128.952 35.8801 129.097 36.7233 129.126 37.6247C129.126 37.741 129.214 37.8573 129.359 37.8573C129.504 37.8573 129.62 37.7701 129.62 37.6247C129.678 36.5779 129.853 35.5312 130.114 34.5135L130.259 33.9901C130.299 33.8295 130.353 33.6551 130.412 33.4668C130.438 33.3823 130.465 33.2951 130.492 33.2051C130.521 33.1469 130.55 33.0597 130.579 32.9725C130.593 32.9434 130.601 32.9216 130.608 32.8998C130.615 32.878 130.622 32.8562 130.637 32.8271V32.798C130.637 32.7835 130.644 32.7689 130.651 32.7544C130.659 32.7399 130.666 32.7253 130.666 32.7108V32.6817C130.69 32.6091 130.719 32.5365 130.749 32.4618C130.792 32.357 130.835 32.2481 130.869 32.1293L130.898 32.013C130.898 31.9548 130.927 31.8967 130.956 31.8385L131.131 31.4024L131.16 31.3442L131.247 31.1698L131.363 30.9081C131.421 30.8063 131.472 30.6973 131.523 30.5882C131.574 30.4792 131.624 30.3702 131.683 30.2684C131.712 30.2102 131.741 30.1594 131.77 30.1085C131.799 30.0576 131.828 30.0067 131.857 29.9485C131.899 29.8439 131.956 29.7542 132.017 29.658C132.04 29.6206 132.065 29.5822 132.089 29.5415C132.176 29.367 132.264 29.2216 132.38 29.0472C132.398 29.0472 132.405 29.0361 132.414 29.0207C132.42 29.0112 132.427 29.0001 132.438 28.989C132.459 28.9566 132.481 28.9201 132.504 28.881C132.543 28.8152 132.586 28.7422 132.641 28.6692C132.714 28.582 132.779 28.4947 132.844 28.4075C132.91 28.3203 132.975 28.2331 133.048 28.1458C133.077 28.0586 133.135 28.0004 133.193 27.9423L133.222 27.9132L133.251 27.8841C133.309 27.7969 133.367 27.7388 133.425 27.6806C133.454 27.637 133.491 27.6006 133.527 27.5643C133.563 27.528 133.6 27.4916 133.629 27.448C133.687 27.3608 133.745 27.3026 133.832 27.2154L134.035 27.0119C134.122 26.9537 134.21 26.8665 134.297 26.7793L134.297 26.7792C134.355 26.7502 134.413 26.692 134.471 26.6339C134.515 26.5902 134.565 26.5539 134.616 26.5176C134.667 26.4812 134.718 26.4449 134.762 26.4013C134.82 26.3722 134.907 26.314 134.965 26.2559C135.052 26.1977 135.139 26.1323 135.226 26.0669C135.313 26.0015 135.401 25.936 135.488 25.8779C135.546 25.8488 135.633 25.7906 135.72 25.7325C138.45 24.0461 142.372 23.6972 145.712 24.8602L141.965 52.1628C141.878 52.8024 141.791 53.4494 141.704 54.0963C141.617 54.7433 141.529 55.3902 141.442 56.0299L141.268 57.2511Z" fill="black"/>
<path d="M161.746 67.7476C161.717 67.7476 161.687 67.7476 161.658 67.7185C159.829 66.9916 157.999 66.2938 156.198 65.6832C153.845 64.84 151.434 64.0549 149.052 63.3571C148.965 63.328 148.878 63.2408 148.878 63.1245C148.762 61.4962 148.733 54.2562 148.849 52.657C148.849 52.5989 148.878 52.5407 148.936 52.4826C149.633 51.9011 150.272 51.2323 150.853 50.5054C152.102 48.9644 153.061 47.1616 153.642 45.2135C153.671 45.0972 153.816 45.01 153.932 45.0391C154.164 45.0972 154.368 45.0972 154.6 45.0972C156.575 44.9809 158.579 42.2478 158.667 39.6018C158.725 37.5956 157.737 35.095 156.227 34.7461C155.472 34.5716 154.745 34.9205 154.658 34.9787C153.613 35.5021 153.322 36.607 153.264 36.9559C153.235 37.1013 153.119 37.1885 152.973 37.1594C152.828 37.1303 152.741 37.014 152.77 36.8687C152.857 36.4907 153.206 35.1822 154.426 34.5716C154.571 34.4844 155.413 34.0773 156.343 34.3099C158.115 34.7461 159.248 37.4211 159.16 39.66C159.073 42.5967 156.866 45.5043 154.629 45.6497C154.426 45.6497 154.252 45.6497 154.048 45.6206C153.438 47.5687 152.48 49.3424 151.231 50.8834C150.65 51.5812 150.011 52.25 149.343 52.8315C149.256 54.547 149.256 61.0891 149.372 62.95C151.695 63.6479 154.048 64.4329 156.372 65.247C158.173 65.8867 160.003 66.5555 161.833 67.2824C161.949 67.3405 162.036 67.4859 161.978 67.6022C161.92 67.6894 161.833 67.7476 161.746 67.7476Z" fill="black"/>
<path d="M119.163 65.8577C119.047 65.8577 118.96 65.7705 118.931 65.6542C118.902 65.5088 118.989 65.3925 119.105 65.3634C119.802 65.1889 120.47 65.0436 121.168 64.8691C123.172 64.4039 125.234 63.9677 127.384 63.5607C128.749 63.299 130.114 63.0373 131.421 62.8047L131.77 57.4547C131.77 57.3093 131.886 57.222 132.031 57.222C132.176 57.222 132.263 57.3384 132.263 57.4837L131.915 63.0082C131.915 63.1245 131.828 63.2117 131.711 63.2408C130.317 63.4734 128.894 63.7642 127.471 64.0259C125.35 64.4329 123.259 64.8982 121.284 65.3343C120.587 65.4797 119.889 65.6542 119.221 65.7995C119.221 65.8577 119.192 65.8577 119.163 65.8577Z" fill="black"/>
<path fill-rule="evenodd" clip-rule="evenodd" d="M129.155 37.6246C129.184 37.7409 129.271 37.8572 129.417 37.8572C129.533 37.8572 129.649 37.77 129.62 37.6828C129.678 36.636 129.852 35.5893 130.114 34.5716L130.259 34.0483C130.299 33.8877 130.353 33.7132 130.411 33.5249C130.437 33.4404 130.464 33.3532 130.491 33.2632C130.52 33.205 130.549 33.1178 130.578 33.0306C130.593 33.0015 130.6 32.9797 130.607 32.9579C130.615 32.9361 130.622 32.9143 130.636 32.8852V32.8561C130.636 32.8416 130.644 32.827 130.651 32.8125C130.658 32.798 130.666 32.7834 130.666 32.7689V32.7398C130.724 32.5654 130.782 32.3909 130.869 32.1874L130.898 32.0711C130.898 32.0351 130.909 32.0103 130.924 31.976C130.934 31.9548 130.945 31.9299 130.956 31.8966L131.13 31.4605L131.159 31.4023L131.246 31.2279L131.363 30.9662C131.421 30.8644 131.472 30.7554 131.522 30.6463C131.573 30.5373 131.624 30.4283 131.682 30.3265C131.711 30.2683 131.74 30.2175 131.769 30.1666C131.798 30.1157 131.827 30.0648 131.856 30.0067C131.915 29.8904 132.002 29.745 132.089 29.5996C132.176 29.4251 132.263 29.2797 132.379 29.1053C132.397 29.1053 132.404 29.0942 132.414 29.0788C132.419 29.0694 132.426 29.0582 132.437 29.0471C132.495 28.9308 132.554 28.8436 132.641 28.7273C132.713 28.6401 132.779 28.5528 132.844 28.4656C132.909 28.3784 132.975 28.2912 133.047 28.2039C133.076 28.1167 133.135 28.0585 133.193 28.0004L133.222 27.9713L133.251 27.9422C133.309 27.855 133.367 27.7969 133.425 27.7387C133.454 27.6951 133.49 27.6587 133.527 27.6224C133.563 27.5861 133.599 27.5497 133.628 27.5061C133.686 27.4189 133.744 27.3607 133.832 27.2735L134.035 27.07C134.073 27.013 134.123 26.9684 134.178 26.92C134.207 26.8943 134.237 26.8676 134.267 26.8373L134.442 26.6629C134.485 26.6193 134.536 26.5829 134.587 26.5466C134.638 26.5102 134.688 26.4739 134.732 26.4303C134.79 26.4012 134.877 26.3431 134.935 26.2849C135.023 26.2267 135.11 26.1613 135.197 26.0959C135.284 26.0305 135.371 25.9651 135.458 25.9069C135.516 25.8778 135.603 25.8197 135.691 25.7615L135.691 25.7615C138.508 24.017 142.517 23.6971 145.886 24.9474C145.944 24.9765 146.031 24.9474 146.089 24.9183C146.147 24.8892 146.205 24.8311 146.205 24.7439L147.338 16.5444C147.338 16.4571 147.338 16.399 147.28 16.3408C147.251 16.2827 147.164 16.2536 147.106 16.2536H128.022C127.935 16.2536 127.877 16.2827 127.819 16.3408C127.761 16.399 127.732 16.4571 127.761 16.5444C127.79 16.7188 127.848 16.8642 127.906 17.0096C128.865 19.3066 132.06 20.0917 135.168 19.6846C134.093 20.2661 132.786 21.1093 131.624 22.2142C130.085 23.668 129.068 25.2672 129.039 25.3254C128.952 25.4417 128.894 25.5289 128.865 25.5871L128.836 25.6452C127.441 27.9422 126.628 30.5591 126.425 33.3504C126.396 33.4377 126.425 33.5249 126.483 33.554C126.541 33.583 126.628 33.6121 126.686 33.6121C127.47 33.554 128.022 33.9901 128.022 33.9901C128.197 34.1355 128.429 34.3681 128.69 35.095C128.981 35.8801 129.126 36.7233 129.155 37.6246ZM128.342 33.6121C128.313 33.583 127.761 33.1469 126.948 33.1178C127.209 30.501 127.993 28.0876 129.242 25.8778L129.271 25.8197C129.283 25.7956 129.3 25.7665 129.32 25.7325C129.348 25.6843 129.383 25.6261 129.417 25.558C129.417 25.5289 130.433 23.9297 131.915 22.5341C133.803 20.7604 136.126 19.6264 137.027 19.2194C137.172 19.1612 137.23 19.0158 137.172 18.8995C137.143 18.7832 136.998 18.7251 136.882 18.7542C132.583 20.0335 129.155 18.7251 128.313 16.7479C128.313 16.7334 128.305 16.7188 128.298 16.7043C128.291 16.6897 128.284 16.6752 128.284 16.6607H146.757C146.583 17.9255 146.409 19.1976 146.235 20.4696C146.06 21.7417 145.886 23.0138 145.712 24.2786C142.197 23.0865 138.276 23.4645 135.371 25.2382L135.11 25.4126C135.063 25.4458 135.018 25.4774 134.975 25.5082C134.827 25.6125 134.692 25.7074 134.558 25.8197C134.529 25.8488 134.492 25.8778 134.456 25.9069C134.42 25.936 134.384 25.9651 134.354 25.9941C134.267 26.0523 134.151 26.1395 134.064 26.2267C133.977 26.2849 133.919 26.343 133.861 26.4012L133.861 26.4012C133.774 26.4594 133.686 26.5466 133.599 26.6338L133.599 26.6338L133.396 26.8373C133.309 26.8955 133.222 26.9827 133.164 27.07C133.135 27.1136 133.098 27.1499 133.062 27.1863C133.026 27.2226 132.989 27.259 132.96 27.3026C132.931 27.3462 132.902 27.3825 132.873 27.4189C132.844 27.4552 132.815 27.4916 132.786 27.5352C132.786 27.5643 132.757 27.5933 132.757 27.5933C132.728 27.6515 132.67 27.7387 132.612 27.7969C132.466 27.9713 132.321 28.1749 132.205 28.3493C132.161 28.4075 132.125 28.4656 132.089 28.5238C132.053 28.5819 132.016 28.6401 131.973 28.6982C131.944 28.7273 131.915 28.7564 131.915 28.7855C131.871 28.8727 131.82 28.9526 131.769 29.0326C131.718 29.1126 131.668 29.1925 131.624 29.2797C131.581 29.3524 131.544 29.4251 131.508 29.4978C131.472 29.5705 131.435 29.6432 131.392 29.7159C131.334 29.8031 131.276 29.9194 131.217 30.0357L131.217 30.0357C131.101 30.2393 130.985 30.4719 130.898 30.6754L130.782 30.9662C130.753 31.0534 130.724 31.1116 130.695 31.1697L130.927 31.2569L130.695 31.1988C130.636 31.3732 130.578 31.5186 130.52 31.664C130.506 31.6931 130.499 31.7222 130.491 31.7512C130.484 31.7803 130.477 31.8094 130.462 31.8385L130.433 31.8966C130.433 31.9111 130.426 31.9184 130.419 31.9257C130.411 31.933 130.404 31.9402 130.404 31.9548C130.375 32.0565 130.339 32.1583 130.302 32.2601C130.266 32.3618 130.23 32.4636 130.201 32.5654C130.201 32.5799 130.194 32.6017 130.186 32.6235C130.179 32.6453 130.172 32.6671 130.172 32.6817C130.143 32.7398 130.114 32.798 130.114 32.827L130.027 33.0887C129.987 33.2354 129.947 33.3699 129.909 33.4949C129.866 33.6425 129.826 33.7769 129.794 33.9029L129.649 34.4262L129.649 34.4263C129.562 34.8333 129.475 35.2404 129.387 35.6765C129.329 35.4148 129.242 35.1531 129.155 34.9205C128.836 34.0773 128.574 33.7866 128.342 33.6121Z" fill="black"/>
<path d="M156.256 34.5135C155.413 34.3099 154.6 34.717 154.513 34.7752C153.322 35.3858 153.032 36.6651 152.974 36.8977C152.974 36.8105 153.003 36.7233 153.003 36.636C153.003 36.5779 153.003 36.5197 153.032 36.4616C153.032 36.4034 153.032 36.3162 153.061 36.258C153.061 36.1417 153.09 36.0254 153.09 35.9091C153.09 35.8219 153.09 35.7347 153.09 35.6474C153.119 35.0368 153.09 34.3099 152.974 33.4667C152.974 33.4086 152.944 33.3213 152.944 33.2632C152.944 33.2341 152.944 33.205 152.944 33.176C152.944 33.1178 152.915 33.0597 152.915 33.0015C152.886 32.8852 152.886 32.7689 152.857 32.6526C152.828 32.5654 152.828 32.4781 152.799 32.3618C152.77 32.2746 152.77 32.1874 152.741 32.1001C152.712 31.9838 152.683 31.8966 152.654 31.7803C152.625 31.6931 152.596 31.6349 152.596 31.5477C152.567 31.4605 152.538 31.3732 152.509 31.286C152.48 31.1697 152.451 31.0825 152.393 30.9662C152.364 30.8789 152.334 30.7917 152.276 30.6754C152.247 30.5882 152.189 30.4719 152.16 30.3846C152.131 30.2974 152.102 30.2102 152.044 30.123C152.044 30.0939 152.015 30.0648 152.015 30.0648C151.986 29.9776 151.928 29.9194 151.899 29.8322V29.8031C151.841 29.7159 151.812 29.6287 151.754 29.5124C151.695 29.4251 151.637 29.3379 151.608 29.2507C151.55 29.1344 151.463 29.0181 151.405 28.9018C151.376 28.8436 151.318 28.7564 151.26 28.6982C151.26 28.6982 151.26 28.6982 151.231 28.6691C151.173 28.5819 151.115 28.5238 151.085 28.4365C150.998 28.3202 150.94 28.2039 150.853 28.1167C149.575 26.4884 147.89 25.3545 146.031 24.6857C146.409 21.9525 146.787 19.2194 147.164 16.4862H128.081C127.79 15.2941 128.139 13.753 129.039 12.8517C130.346 11.5433 132.757 11.3397 134.819 12.6481C131.45 10.3802 130.259 6.57122 131.508 3.7799C132.263 2.09348 134.093 0.465211 135.952 0.523363C138.654 0.639668 141.587 4.36142 141.616 10.0022C141.732 5.05925 143.737 1.74456 145.944 1.4538C147.687 1.22119 149.11 2.96577 149.197 3.08207C150.998 5.35002 150.534 9.47884 147.658 13.1424C148.007 12.7354 149.866 10.5547 152.422 10.7873C152.828 10.8163 154.426 10.9617 155.123 12.1248C155.849 13.3751 155.123 14.9742 154.862 15.4976C153.235 18.9577 148.297 19.5392 147.513 19.6264C148.123 19.9172 148.936 20.3533 149.807 21.0221C149.807 21.0221 150.359 21.4873 150.94 22.0107C156.052 26.8083 156.256 33.205 156.256 34.5135Z" fill="#007E7A"/>
<path fill-rule="evenodd" clip-rule="evenodd" d="M153.235 36.9559L152.741 36.8686V36.8105C152.741 36.7843 152.747 36.7582 152.753 36.7294C152.761 36.6942 152.77 36.655 152.77 36.6069L152.799 36.4325C152.799 36.3743 152.799 36.2871 152.828 36.229C152.828 36.1708 152.835 36.1126 152.843 36.0545C152.85 35.9963 152.857 35.9382 152.857 35.88V35.6184C152.886 34.8914 152.857 34.1645 152.741 33.4667V33.4376C152.741 33.3795 152.741 33.3504 152.712 33.2923V33.205C152.712 33.1497 152.7 33.1061 152.692 33.0742C152.687 33.0557 152.683 33.0412 152.683 33.0306C152.668 32.9724 152.661 32.9143 152.654 32.8561C152.647 32.798 152.639 32.7398 152.625 32.6817C152.609 32.6344 152.602 32.5872 152.594 32.5354C152.587 32.4915 152.58 32.4442 152.567 32.3909C152.552 32.3473 152.545 32.3037 152.538 32.26C152.53 32.2164 152.523 32.1728 152.509 32.1292C152.494 32.071 152.48 32.0202 152.465 31.9693C152.451 31.9184 152.436 31.8675 152.422 31.8094C152.407 31.7658 152.4 31.7294 152.393 31.6931C152.385 31.6567 152.378 31.6204 152.363 31.5768L152.276 31.3151C152.247 31.1988 152.218 31.1115 152.16 30.9952L152.16 30.9952C152.131 30.908 152.102 30.8208 152.044 30.7335C152.032 30.6982 152.016 30.6629 151.998 30.6256C151.973 30.5709 151.945 30.512 151.928 30.4428C151.899 30.3556 151.87 30.2683 151.812 30.2102L151.783 30.1229C151.753 30.0357 151.724 29.9776 151.666 29.8903L151.637 29.8613C151.623 29.8176 151.601 29.7813 151.579 29.745C151.557 29.7086 151.536 29.6723 151.521 29.6286L151.492 29.5996L151.463 29.5414C151.448 29.5123 151.427 29.476 151.405 29.4397C151.383 29.4033 151.361 29.367 151.347 29.3379C151.318 29.2797 151.281 29.2216 151.245 29.1635L151.245 29.1634L151.245 29.1634C151.209 29.1053 151.173 29.0471 151.143 28.989C151.114 28.9308 151.085 28.8727 151.027 28.8145L150.998 28.7564L150.998 28.7563C150.94 28.6691 150.882 28.5819 150.824 28.5238C150.78 28.4656 150.744 28.4147 150.708 28.3638C150.671 28.3129 150.635 28.2621 150.592 28.2039C149.401 26.721 147.774 25.558 145.857 24.8601L145.683 24.802L145.712 24.5985C145.886 23.2755 146.068 21.9525 146.249 20.6296C146.431 19.3066 146.612 17.9836 146.787 16.6607H127.79L127.732 16.4862C127.383 15.1487 127.819 13.5495 128.749 12.6191C129.823 11.5432 131.537 11.1943 133.222 11.6595C130.956 9.36252 130.114 6.16413 131.276 3.6345C132.06 1.919 133.948 0.145355 135.981 0.232584C138.334 0.319813 140.89 2.99483 141.645 7.32718C142.255 3.86711 143.882 1.42471 145.915 1.16302C147.745 0.930413 149.226 2.67499 149.372 2.87852C151.027 4.94293 150.824 8.31577 148.994 11.5142C149.865 10.9036 151.056 10.3802 152.422 10.4965C154.193 10.6419 154.978 11.3688 155.326 11.9794C156.131 13.3322 155.342 14.9985 155.073 15.5678L155.065 15.5848C153.7 18.4634 150.156 19.4229 148.326 19.7427C148.907 20.0626 149.459 20.4115 149.953 20.8186C149.953 20.8186 150.534 21.2838 151.085 21.8071C155.878 26.2849 156.43 32.1292 156.459 34.4553V34.7751L156.14 34.6879C155.384 34.5135 154.658 34.8624 154.571 34.9205C153.583 35.5311 153.293 36.636 153.235 36.9559ZM152.044 29.5705L152.044 29.5705C152.066 29.6068 152.088 29.6432 152.102 29.6868C152.102 29.6868 152.102 29.7159 152.131 29.7159C152.137 29.7273 152.142 29.7398 152.148 29.7532C152.152 29.7605 152.155 29.7681 152.158 29.7759C152.18 29.8269 152.207 29.8877 152.247 29.9485L152.276 30.0066C152.291 30.0502 152.313 30.0938 152.334 30.1374L152.334 30.1375C152.356 30.1811 152.378 30.2247 152.393 30.2683C152.407 30.3119 152.429 30.3628 152.451 30.4137C152.472 30.4646 152.494 30.5155 152.509 30.5591C152.523 30.6027 152.545 30.6536 152.567 30.7045C152.589 30.7554 152.61 30.8062 152.625 30.8498C152.643 30.9228 152.673 30.9958 152.7 31.0616L152.7 31.0617L152.7 31.0617C152.715 31.1007 152.73 31.1372 152.741 31.1697L152.828 31.4314C152.831 31.4408 152.834 31.4499 152.838 31.4587C152.84 31.4669 152.843 31.4749 152.846 31.4827C152.868 31.5441 152.886 31.595 152.886 31.664C152.915 31.7803 152.944 31.8966 152.973 31.9838C153.002 32.0711 153.032 32.1583 153.032 32.2455C153.046 32.2891 153.053 32.34 153.061 32.3909L153.061 32.3909C153.068 32.4418 153.075 32.4927 153.09 32.5363C153.119 32.6526 153.148 32.7689 153.148 32.8852C153.148 32.9143 153.155 32.9433 153.162 32.9724C153.17 33.0015 153.177 33.0306 153.177 33.0596V33.1469C153.177 33.1759 153.184 33.1978 153.191 33.2196C153.199 33.2414 153.206 33.2632 153.206 33.2923V33.3213C153.293 33.9901 153.322 34.6879 153.322 35.3857C153.583 35.0368 153.903 34.6879 154.397 34.4553C154.542 34.3681 155.21 34.0482 155.994 34.1355C155.936 31.7221 155.239 26.314 150.766 22.1561C150.214 21.6327 149.662 21.1965 149.662 21.1965C148.965 20.6732 148.21 20.208 147.426 19.83L146.903 19.5683C146.787 20.3824 146.678 21.1965 146.569 22.0107L146.569 22.0108C146.46 22.8249 146.351 23.639 146.235 24.4531C148.152 25.18 149.778 26.3721 150.998 27.8841L151.26 28.233C151.289 28.2621 151.311 28.2984 151.332 28.3347L151.332 28.3348C151.354 28.3711 151.376 28.4074 151.405 28.4365L151.463 28.5238C151.478 28.5528 151.499 28.5819 151.521 28.611L151.521 28.611L151.521 28.611C151.543 28.6401 151.565 28.6691 151.579 28.6982C151.623 28.7564 151.659 28.8145 151.695 28.8727C151.732 28.9308 151.768 28.989 151.812 29.0471C151.834 29.0815 151.853 29.1159 151.87 29.1486C151.897 29.1986 151.922 29.2445 151.957 29.2797L152.015 29.3379L151.986 29.4542C152 29.4978 152.022 29.5341 152.044 29.5705ZM147.367 16.2245H128.197C127.993 15.1196 128.371 13.7821 129.155 13.0261C130.433 11.7177 132.728 11.6595 134.616 12.8517L134.877 12.4446C131.827 10.3511 130.491 6.65843 131.74 3.89619C132.466 2.32607 134.18 0.72688 136.01 0.755956C139.205 0.901337 141.413 5.64076 141.442 10.0022H141.936C142.052 5.55353 143.795 2.00623 146.031 1.71547C147.534 1.52407 148.83 3.00401 149.028 3.2295C149.041 3.24379 149.049 3.25304 149.052 3.25651C150.853 5.52446 150.214 9.53698 147.513 13.0261L147.89 13.346C148.355 12.7644 150.098 10.8745 152.451 11.078C153.7 11.1652 154.542 11.6014 154.949 12.2992C155.609 13.4194 154.908 14.9084 154.667 15.4209L154.658 15.4394C153.177 18.6088 148.82 19.2775 147.513 19.4229L146.932 19.481C147.004 18.9867 147.07 18.4925 147.135 17.9982C147.2 17.5039 147.266 17.0096 147.338 16.5153L147.367 16.2245Z" fill="black"/>
<path fill-rule="evenodd" clip-rule="evenodd" d="M199.419 129.913C198.693 124.533 196.718 117.817 193.087 108.745C192.899 108.275 192.712 107.81 192.526 107.35L192.525 107.348C192.251 106.67 191.981 106.001 191.722 105.343C189.863 100.662 188.207 96.7075 186.58 93.2184C184.257 88.2754 181.933 84.3211 178.912 80.7447C177.605 79.2036 176.211 77.7208 174.613 76.2669C169.879 71.9637 165.26 69.2887 162.007 67.6604C161.966 67.6398 161.928 67.6228 161.893 67.6069C161.829 67.578 161.773 67.5526 161.717 67.515C160.526 72.9523 157.505 77.5754 153.438 80.7447C149.836 83.536 145.45 85.1933 140.832 85.3097C139.67 85.3387 138.566 85.2515 137.463 85.1061C133.687 84.5537 130.23 82.9545 127.383 80.7738C123.607 77.8952 120.877 73.9408 119.773 70.0156C119.279 68.271 119.163 66.7299 119.163 65.6541C118.176 65.8577 116.752 66.2066 115.068 66.759C114.513 66.9367 113.959 67.1482 113.417 67.3548L113.417 67.3548C113.249 67.4188 113.083 67.4822 112.918 67.5441C108.213 69.4631 104.001 72.4289 97.7558 77.9824C97.49 78.2243 97.2198 78.4684 96.9457 78.7159C96.2313 79.3613 95.4907 80.0302 94.735 80.7447C93.8055 81.617 92.876 82.5183 91.8884 83.4778L91.8887 83.4773L91.8889 83.477C92.4406 82.5759 92.9923 81.6748 93.544 80.7447C94.3573 79.3781 95.1707 78.0115 96.013 76.5868C100.138 69.4922 103.768 62.6593 106.964 56.1462L107.312 55.4484L104.001 54.3144C102.314 53.7432 100.627 53.1666 98.9371 52.5893L98.937 52.5893L98.9363 52.589C96.6703 51.8147 94.4003 51.039 92.1208 50.2728C91.4962 50.0547 90.8717 49.8439 90.2472 49.6331C89.6227 49.4223 88.9982 49.2115 88.3737 48.9934C88.0252 48.8771 87.6766 48.7608 87.3571 48.6445C85.2657 51.2614 83.4068 53.791 81.7511 56.1462C78.7302 60.4786 76.4646 64.3166 74.7799 67.3115L74.585 67.6635C72.3957 71.619 69.9233 76.0859 67.7797 80.7447C66.1821 84.2338 64.7878 87.8102 63.8293 91.3575C62.5222 96.1842 62.0284 100.953 62.987 105.314C63.1903 106.274 63.4807 107.233 63.8293 108.164C63.9845 108.563 64.1565 108.945 64.3326 109.337C64.3873 109.458 64.4423 109.581 64.4974 109.705L64.5041 109.718C65.1772 111.036 66.9208 114.451 70.6553 116.567C75.5642 119.329 80.8797 118.137 87.4442 116.567C87.7347 116.508 88.0542 116.421 88.3737 116.334C92.7307 115.229 98.7434 113.194 105.366 109.268C105.335 109.441 105.286 109.674 105.225 109.966L105.225 109.966C105.174 110.214 105.113 110.505 105.047 110.839C104.378 114.066 102.984 121.132 101.27 129.883C100.783 132.374 100.265 134.998 99.7308 137.711C98.6735 143.076 97.5483 148.785 96.4487 154.482C95.5863 158.871 94.7313 163.239 93.9133 167.417C93.1057 171.542 92.334 175.484 91.627 179.08C90.5174 184.76 89.5611 189.541 88.9101 192.796L88.6352 194.171C88.7656 194.171 88.9032 194.164 89.0409 194.157L89.0418 194.156L89.0427 194.156C89.1804 194.149 89.318 194.142 89.4485 194.142C91.5689 194.069 93.6893 193.989 95.8097 193.909C97.9301 193.829 100.05 193.749 102.171 193.677C103.968 193.604 105.765 193.539 107.562 193.474L107.574 193.473L107.585 193.473C109.382 193.408 111.179 193.342 112.976 193.27C113.615 193.241 114.254 193.212 114.864 193.212C116.985 193.139 119.105 193.059 121.225 192.979C123.346 192.899 125.466 192.819 127.587 192.746L127.912 192.735L127.915 192.735C131.119 192.622 134.348 192.509 137.55 192.368C138.479 192.339 139.38 192.31 140.309 192.252C142.43 192.179 144.55 192.099 146.67 192.019H146.671C148.791 191.939 150.911 191.859 153.032 191.787C154.542 191.729 156.06 191.67 157.577 191.612L157.814 191.603C159.253 191.548 160.691 191.493 162.123 191.438C162.719 191.409 163.321 191.387 163.924 191.365C164.527 191.343 165.13 191.322 165.725 191.292C167.841 191.22 169.957 191.14 172.073 191.06L172.086 191.06C174.207 190.98 176.327 190.9 178.447 190.827L180.132 190.769C180.016 189.519 179.9 188.269 179.813 187.047C179.58 184.372 179.348 181.726 179.115 179.08C179.043 178.295 178.978 177.503 178.912 176.711C178.847 175.918 178.781 175.126 178.709 174.341C178.622 173.269 178.535 172.168 178.448 171.066L178.447 171.055C178.404 170.46 178.353 169.872 178.302 169.283L178.302 169.282L178.302 169.28C178.251 168.692 178.2 168.104 178.157 167.508C178.084 166.52 178.004 165.538 177.925 164.557C177.845 163.576 177.765 162.594 177.692 161.606C177.489 159.221 177.315 156.866 177.14 154.482C177.024 153.057 176.908 151.633 176.821 150.208C177.286 150.411 177.837 150.615 178.476 150.818C179.958 151.284 181.933 151.72 184.228 151.72C184.78 151.72 185.651 151.72 186.726 151.603C188.033 151.487 189.601 151.167 191.199 150.528C192.186 150.121 193.174 149.597 194.104 148.87C194.124 148.85 194.144 148.833 194.164 148.818C194.173 148.811 194.182 148.804 194.191 148.798C194.207 148.785 194.224 148.773 194.241 148.759C194.253 148.748 194.265 148.737 194.278 148.725C195.004 148.143 197.705 145.846 199.129 140.467C199.477 139.101 199.71 137.676 199.826 136.135C199.826 134.274 199.739 132.21 199.419 129.913ZM129.998 100.778C130.056 100.633 130.201 100.284 130.579 100.109C132.408 99.2081 136.533 104.529 137.056 105.227L136.707 104.703C136.359 104.209 134.413 101.214 133.106 98.016C132.931 97.6089 132.786 97.1727 132.641 96.7366C132.496 96.2714 132.205 95.3409 132.612 94.4977C132.873 94.0034 133.396 93.451 134.006 93.451C134.712 93.451 135.225 94.2471 135.547 94.7457L135.575 94.7885C136.359 96.0388 136.882 97.0274 137.346 97.9869C137.35 97.9942 137.354 98.002 137.357 98.0101C137.361 98.0172 137.364 98.0246 137.367 98.0322C137.391 98.0846 137.418 98.146 137.463 98.1904C137.596 98.4569 137.726 98.7235 137.858 98.9941L137.859 98.9962L137.859 98.9964C138.13 99.5517 138.409 100.124 138.741 100.749C138.741 100.749 139.322 101.854 140.193 103.221C140.6 103.86 141.093 104.587 141.587 105.285C141.546 105.219 141.502 105.151 141.456 105.079C141.341 104.897 141.21 104.692 141.064 104.442C141.054 104.42 141.039 104.399 141.023 104.375C140.996 104.336 140.966 104.293 140.948 104.238C140.817 104.024 140.685 103.792 140.543 103.54C140.434 103.348 140.319 103.144 140.193 102.93C140.124 102.791 140.048 102.647 139.969 102.495L139.968 102.494C139.881 102.327 139.79 102.153 139.699 101.97C139.685 101.941 139.67 101.919 139.656 101.898C139.641 101.876 139.627 101.854 139.612 101.825L139.612 101.825L139.612 101.825C139.525 101.65 139.438 101.476 139.38 101.331C139.351 101.287 139.329 101.236 139.307 101.185C139.285 101.134 139.263 101.083 139.234 101.04C138.828 100.139 138.421 99.1209 138.044 98.016C137.985 97.8417 137.927 97.6383 137.869 97.435L137.869 97.4344C137.84 97.3181 137.811 97.2018 137.753 97.0855C137.747 97.0674 137.741 97.0505 137.735 97.0344L137.735 97.0342C137.713 96.9727 137.695 96.9219 137.695 96.8529C137.68 96.8238 137.673 96.7875 137.666 96.7511C137.659 96.7148 137.651 96.6785 137.637 96.6494C137.622 96.6057 137.608 96.5548 137.593 96.5039C137.579 96.4531 137.564 96.4022 137.55 96.3586C137.521 96.2714 137.492 96.1842 137.492 96.0969C137.477 96.0533 137.47 96.0097 137.463 95.9661C137.455 95.9225 137.448 95.8789 137.434 95.8352V95.8062C137.23 94.992 137.027 94.0907 136.94 93.2475C136.795 92.1135 136.853 91.1249 137.434 90.6306C137.45 90.6139 137.457 90.6068 137.466 90.6038C137.472 90.6015 137.479 90.6015 137.492 90.6015C137.506 90.6015 137.513 90.5943 137.521 90.587C137.528 90.5797 137.535 90.5724 137.55 90.5724C137.564 90.5724 137.572 90.5652 137.579 90.5579C137.586 90.5506 137.593 90.5434 137.608 90.5434C137.622 90.5288 137.644 90.5216 137.666 90.5143C137.688 90.507 137.709 90.4998 137.724 90.4852C137.739 90.4852 137.76 90.478 137.782 90.4707C137.804 90.4634 137.826 90.4561 137.84 90.4561C137.853 90.4561 137.86 90.4561 137.866 90.4539C137.874 90.4509 137.882 90.4438 137.898 90.4271H137.956H138.014H138.073H138.102H138.16H138.363C138.799 90.4561 139.176 90.7469 139.525 91.183C139.616 91.2919 139.695 91.4121 139.777 91.5365L139.777 91.5366C139.826 91.6116 139.877 91.6881 139.932 91.7646C139.946 91.7936 139.961 91.8155 139.975 91.8373C139.99 91.8591 140.004 91.8809 140.019 91.91C140.027 91.9258 140.035 91.9395 140.042 91.9523C140.049 91.9628 140.056 91.9727 140.062 91.9826C140.077 92.0044 140.091 92.0263 140.106 92.0553L140.106 92.0555C140.164 92.1717 140.222 92.288 140.28 92.4333C140.288 92.4489 140.296 92.4624 140.303 92.4749C140.323 92.5092 140.338 92.5361 140.338 92.5787C140.353 92.5932 140.36 92.6151 140.367 92.6369C140.375 92.6587 140.382 92.6805 140.396 92.695C140.396 92.7095 140.404 92.7241 140.411 92.7386C140.418 92.7532 140.425 92.7677 140.425 92.7822L140.512 92.9567C140.542 93.0149 140.571 93.073 140.571 93.1312C140.745 93.5673 140.919 94.0325 141.093 94.4977C141.122 94.5559 141.152 94.614 141.152 94.7013C141.195 94.8321 141.239 94.9557 141.282 95.0793L141.283 95.0804C141.326 95.2036 141.369 95.3268 141.413 95.4573L141.587 95.8934C141.645 96.0388 141.703 96.2132 141.761 96.3877C141.786 96.4603 141.815 96.5329 141.845 96.6076C141.887 96.7124 141.931 96.8213 141.965 96.9401C141.979 96.9837 141.994 97.0201 142.008 97.0564L142.008 97.0564C142.023 97.0928 142.037 97.1291 142.052 97.1727C142.168 97.4926 142.313 97.8124 142.459 98.1323C142.604 98.4521 142.749 98.7719 142.894 99.1209C142.913 99.1772 142.944 99.2335 142.979 99.2976C142.998 99.3329 143.019 99.3704 143.04 99.4116C143.055 99.4417 143.07 99.4698 143.084 99.4969C143.126 99.5749 143.163 99.6452 143.185 99.7315C143.259 99.8679 143.328 100.01 143.399 100.154L143.399 100.155C143.494 100.349 143.591 100.549 143.708 100.749C143.751 100.836 143.802 100.931 143.853 101.025L143.853 101.025L143.853 101.026C143.904 101.12 143.955 101.214 143.998 101.302C144.091 101.467 144.184 101.636 144.278 101.807L144.278 101.807C144.449 102.118 144.624 102.437 144.811 102.755L144.811 102.755C144.87 102.843 144.928 102.93 144.986 103.046C145.03 103.124 145.078 103.201 145.128 103.28L145.128 103.28C145.208 103.409 145.291 103.542 145.363 103.686C144.608 101.912 144.056 100.255 143.591 98.7719L143.591 98.7718C143.533 98.5974 143.475 98.423 143.446 98.2486C143.446 98.234 143.439 98.2195 143.432 98.205C143.424 98.1904 143.417 98.1759 143.417 98.1613C143.388 98.0741 143.366 97.9942 143.345 97.9142C143.323 97.8342 143.301 97.7543 143.272 97.667C143.243 97.5507 143.214 97.4417 143.185 97.3327L143.184 97.3314C143.156 97.2228 143.127 97.1142 143.098 96.9983C143.069 96.9111 143.047 96.8238 143.025 96.7366C143.003 96.6494 142.981 96.5621 142.952 96.4749C142.938 96.4026 142.923 96.3374 142.909 96.2723L142.909 96.2714L142.909 96.2705C142.894 96.2053 142.88 96.1402 142.865 96.0679C142.851 95.9952 142.836 95.9298 142.822 95.8643C142.807 95.7989 142.793 95.7335 142.778 95.6608L142.604 94.8757C142.081 92.1716 141.732 90.2235 142.778 89.3803C143.098 89.1186 143.679 88.886 144.201 89.0314C145.091 89.2541 145.385 90.3298 146.1 92.9508L146.1 92.9512C146.319 93.752 146.576 94.6971 146.903 95.8062L147.077 96.4168C147.135 96.6203 147.193 96.8238 147.251 96.9983C147.28 97.1001 147.309 97.1946 147.338 97.2891C147.368 97.3836 147.397 97.4781 147.426 97.5798C147.455 97.6815 147.484 97.776 147.513 97.8705L147.513 97.8706C147.542 97.9651 147.571 98.0596 147.6 98.1613C147.629 98.2195 147.658 98.3067 147.658 98.3649L147.919 99.0627C147.948 99.1209 147.97 99.1863 147.992 99.2517C148.014 99.3171 148.036 99.3825 148.065 99.4407C148.094 99.557 148.152 99.6733 148.21 99.7896C148.268 99.9205 148.319 100.051 148.37 100.182C148.42 100.313 148.471 100.444 148.529 100.575C148.558 100.691 148.617 100.778 148.675 100.865C148.675 100.88 148.682 100.895 148.689 100.909C148.696 100.924 148.704 100.938 148.704 100.953C148.718 100.996 148.74 101.04 148.762 101.084C148.784 101.127 148.805 101.171 148.82 101.214L148.82 101.215C148.878 101.331 148.936 101.447 148.965 101.534C149.003 101.629 149.053 101.724 149.108 101.827L149.109 101.828C149.137 101.883 149.167 101.939 149.197 101.999C149.604 102.843 150.127 103.744 150.185 103.831C149.662 101.883 149.517 100.226 149.459 99.0627C149.43 98.7138 149.43 98.423 149.43 98.1613C149.459 96.9692 149.662 96.3877 150.098 96.0097C150.127 95.9952 150.156 95.9734 150.185 95.9515C150.214 95.9297 150.243 95.9079 150.272 95.8934C150.29 95.8754 150.308 95.8686 150.333 95.8591C150.348 95.8532 150.366 95.8464 150.388 95.8352C150.403 95.8352 150.41 95.828 150.417 95.8207C150.425 95.8134 150.432 95.8062 150.446 95.8062C150.461 95.8062 150.468 95.7989 150.475 95.7916C150.483 95.7844 150.49 95.7771 150.505 95.7771C150.519 95.7626 150.541 95.7553 150.563 95.748C150.584 95.7407 150.606 95.7335 150.621 95.7189C150.65 95.6899 150.708 95.6899 150.737 95.6899C150.766 95.6899 150.766 95.6899 150.795 95.6608C150.81 95.6462 150.817 95.6462 150.824 95.6462C150.831 95.6462 150.839 95.6462 150.853 95.6317C150.882 95.6317 150.904 95.6244 150.926 95.6172C150.948 95.6099 150.969 95.6026 150.998 95.6026C151.027 95.6026 151.085 95.6026 151.115 95.5736H151.144H151.173H151.289H151.347H151.463H151.521C151.608 95.6026 151.695 95.6317 151.783 95.6899C151.797 95.7044 151.819 95.7189 151.841 95.7335C151.862 95.748 151.884 95.7626 151.899 95.7771C151.928 95.8062 151.957 95.8352 151.986 95.8352L152.044 95.8934L152.073 95.9225L152.102 95.9515C152.131 95.9806 152.16 96.0097 152.16 96.0388C152.171 96.0499 152.178 96.061 152.184 96.0705C152.193 96.0858 152.2 96.0969 152.218 96.0969C152.233 96.1115 152.247 96.1333 152.262 96.1551C152.276 96.1769 152.291 96.1987 152.305 96.2132C152.334 96.2423 152.364 96.3005 152.364 96.3295C152.393 96.3877 152.422 96.4458 152.451 96.4749C152.462 96.5103 152.479 96.5456 152.496 96.5829C152.522 96.6376 152.55 96.6965 152.567 96.7657L152.596 96.882C152.61 96.9111 152.618 96.9329 152.625 96.9547C152.632 96.9765 152.639 96.9983 152.654 97.0274C152.654 97.0564 152.654 97.0855 152.683 97.0855C152.683 97.1146 152.683 97.1437 152.712 97.1437C152.712 97.1582 152.719 97.18 152.727 97.2018C152.734 97.2236 152.741 97.2454 152.741 97.26C152.746 97.2789 152.751 97.2985 152.755 97.3187C152.78 97.4227 152.809 97.5405 152.857 97.638C152.857 97.6458 152.859 97.6556 152.862 97.6665C152.865 97.6759 152.868 97.686 152.872 97.6961C152.879 97.7179 152.886 97.7397 152.886 97.7543C152.886 97.7883 152.896 97.8224 152.905 97.8506C152.91 97.8706 152.915 97.8876 152.915 97.8997C152.915 97.9287 152.923 97.9578 152.93 97.9869C152.937 98.016 152.944 98.045 152.944 98.0741C153.045 98.5276 153.139 99.023 153.239 99.5519C153.427 100.549 153.638 101.665 153.961 102.843C154.019 103.104 154.106 103.366 154.193 103.628C154.208 103.657 154.215 103.686 154.223 103.715C154.23 103.744 154.237 103.773 154.252 103.802C154.266 103.86 154.288 103.926 154.31 103.991C154.331 104.057 154.353 104.122 154.368 104.18C154.382 104.209 154.39 104.231 154.397 104.253C154.404 104.275 154.411 104.296 154.426 104.326L154.426 104.326C154.513 104.587 154.6 104.849 154.716 105.111C154.724 105.133 154.732 105.154 154.739 105.174C154.746 105.192 154.753 105.21 154.76 105.227C154.774 105.263 154.789 105.3 154.803 105.343C154.818 105.358 154.825 105.38 154.832 105.401C154.84 105.423 154.847 105.445 154.862 105.459C155.065 106.012 155.326 106.623 155.617 107.233L155.965 107.931C155.965 107.945 155.973 107.953 155.98 107.96C155.987 107.967 155.994 107.975 155.994 107.989C156.034 108.088 156.087 108.188 156.135 108.278L156.136 108.278L156.136 108.278C156.158 108.32 156.179 108.359 156.198 108.396C156.285 108.571 156.372 108.745 156.488 108.92C156.546 109.007 156.604 109.094 156.633 109.21L156.721 109.385V109.414L156.052 109.995H156.023L155.21 110.722L152.944 112.816L145.683 119.213C145.334 118.835 144.986 118.486 144.637 118.137L144.637 118.137L144.608 118.108C144.463 117.962 144.347 117.846 144.23 117.701L143.967 117.431C142.73 116.165 141.569 114.978 140.483 113.892L140.367 113.775L140.251 113.659L140.077 113.485L139.903 113.31L139.525 112.932L138.915 112.321L138.247 111.653L137.985 111.391L137.492 110.897L137.346 110.751L135.458 108.861L135.255 108.658C135.195 108.618 135.15 108.565 135.108 108.516C135.089 108.494 135.07 108.473 135.052 108.454L135.051 108.454L135.051 108.454C134.761 108.163 134.5 107.902 134.209 107.64L134.209 107.64C134.006 107.437 133.774 107.204 133.541 107.001L133.396 106.855L133.251 106.71C133.088 106.532 132.917 106.354 132.743 106.172L132.742 106.171C132.575 105.997 132.405 105.819 132.234 105.634C132.147 105.547 132.06 105.459 131.973 105.343L131.944 105.314C131.923 105.293 131.906 105.273 131.89 105.254C131.861 105.218 131.836 105.187 131.798 105.169C131.74 105.096 131.682 105.031 131.624 104.965C131.566 104.9 131.508 104.834 131.45 104.762C131.421 104.733 131.392 104.696 131.363 104.66C131.334 104.624 131.305 104.587 131.276 104.558C131.247 104.529 131.218 104.5 131.189 104.442C131.159 104.384 131.101 104.326 131.072 104.296C131.043 104.238 130.985 104.18 130.956 104.151L130.608 103.628C130.579 103.57 130.549 103.511 130.52 103.482C130.375 103.25 130.259 103.046 130.172 102.814C130.157 102.784 130.15 102.763 130.143 102.741C130.136 102.719 130.128 102.697 130.114 102.668C130.099 102.625 130.077 102.581 130.056 102.537C130.034 102.494 130.012 102.45 129.998 102.406C129.983 102.377 129.976 102.356 129.969 102.334C129.961 102.312 129.954 102.29 129.94 102.261C129.94 102.247 129.932 102.225 129.925 102.203C129.918 102.181 129.91 102.159 129.91 102.145C129.881 102.087 129.881 102.028 129.881 101.999V101.941C129.852 101.854 129.852 101.767 129.852 101.68V101.65V101.621V101.505C129.852 101.214 129.91 100.982 129.998 100.778ZM83.4939 96.3586L88.3447 88.886L91.8012 83.5942C91.6348 83.8607 91.469 84.1267 91.3035 84.392C90.3142 85.9786 89.3401 87.5409 88.3447 89.0605C86.7181 91.561 85.0915 94.0034 83.4939 96.3586Z" fill="#FF735A"/>
<path d="M183.879 128.342C183.821 128.342 183.792 128.342 183.734 128.313L156.662 109.617C156.546 109.53 156.517 109.385 156.604 109.268C156.692 109.152 156.837 109.123 156.953 109.21L184.024 127.877C184.141 127.964 184.17 128.11 184.083 128.226C184.024 128.313 183.966 128.342 183.879 128.342Z" fill="black"/>
<path d="M179.348 151.284C179.319 151.284 179.29 151.284 179.29 151.284C178.418 151.022 177.518 150.76 176.646 150.44C168.862 147.765 163.546 143.986 156.343 138.548C150.621 134.216 144.928 129.767 139.409 125.319C139.351 125.26 139.322 125.202 139.322 125.144C139.322 125.086 139.351 124.999 139.409 124.941L156.662 109.239C156.75 109.152 156.924 109.152 157.011 109.269C157.098 109.385 157.098 109.53 156.982 109.617L139.932 125.144C145.363 129.535 150.998 133.925 156.633 138.199C163.808 143.608 169.094 147.387 176.792 150.033C177.663 150.324 178.535 150.615 179.406 150.877C179.551 150.906 179.609 151.051 179.58 151.196C179.551 151.225 179.464 151.284 179.348 151.284Z" fill="black"/>
<path d="M171.651 119.91C171.534 119.91 171.418 119.823 171.418 119.707L167.991 97.9869C167.962 97.8415 168.049 97.7252 168.194 97.6961C168.339 97.667 168.455 97.7543 168.484 97.8997L171.883 119.62C171.912 119.765 171.825 119.881 171.68 119.91H171.651Z" fill="black"/>
<path d="M105.017 111.1C104.988 111.1 104.988 111.1 104.959 111.1C104.814 111.071 104.756 110.926 104.785 110.81L106.615 103.221C106.644 103.075 106.789 103.017 106.905 103.046C107.051 103.075 107.109 103.221 107.08 103.337L105.25 110.926C105.221 111.042 105.134 111.1 105.017 111.1Z" fill="black"/>
<path d="M140.048 80.8028C138.77 80.8028 137.637 80.6575 136.707 80.483C129.765 79.1164 123.753 73.2721 120.993 65.218C120.935 65.1017 121.022 64.9563 121.138 64.8981C121.255 64.84 121.4 64.9272 121.458 65.0435C124.159 72.9232 130.027 78.6512 136.794 79.9887C139.292 80.483 143.301 80.6284 148.065 78.5349C154.745 75.5691 157.969 69.7539 159.306 66.5555C159.364 66.4392 159.509 66.381 159.625 66.4101C159.741 66.4683 159.799 66.6136 159.77 66.73C158.405 70.0156 155.123 75.9471 148.297 78.971C145.16 80.3667 142.342 80.8028 140.048 80.8028Z" fill="black"/>
<path d="M63.7712 108.425C63.626 108.425 63.5098 108.309 63.5098 108.193V91.3866C63.5098 91.2412 63.626 91.1249 63.7712 91.1249C63.9164 91.1249 64.0326 91.2412 64.0326 91.3866V108.164C64.0326 108.309 63.9164 108.425 63.7712 108.425Z" fill="black"/>
<path d="M88.3447 116.596C88.1994 116.596 88.0833 116.479 88.0833 116.363V48.9934C88.0833 48.8481 88.1994 48.7318 88.3447 48.7318C88.4899 48.7318 88.6061 48.8481 88.6061 48.9934V116.334C88.6061 116.479 88.4899 116.596 88.3447 116.596Z" fill="black"/>
<path d="M112.918 193.531C112.773 193.531 112.657 193.415 112.657 193.299V67.515C112.657 67.3696 112.773 67.2533 112.918 67.2533C113.063 67.2533 113.18 67.3696 113.18 67.515V193.27C113.151 193.415 113.034 193.531 112.918 193.531Z" fill="black"/>
<path d="M137.463 90.8632C137.317 90.8632 137.23 90.7469 137.23 90.6016V85.048C137.23 84.9026 137.346 84.7863 137.463 84.7863C137.579 84.7863 137.695 84.9026 137.695 85.048V90.6016C137.724 90.7469 137.608 90.8632 137.463 90.8632Z" fill="black"/>
<path d="M137.463 98.4521C137.317 98.4521 137.23 98.3358 137.23 98.2195V95.8062C137.23 95.6608 137.346 95.5445 137.463 95.5445C137.579 95.5445 137.695 95.6608 137.695 95.7771V98.1904C137.724 98.3649 137.608 98.4521 137.463 98.4521Z" fill="black"/>
<path d="M137.463 192.63C137.317 192.63 137.23 192.514 137.23 192.397V110.868C137.23 110.722 137.346 110.635 137.463 110.635C137.579 110.635 137.695 110.751 137.695 110.868V192.368C137.724 192.514 137.608 192.63 137.463 192.63Z" fill="black"/>
<path d="M162.036 191.7C161.891 191.7 161.804 191.583 161.804 191.467V67.6604C161.804 67.515 161.92 67.3987 162.036 67.3987C162.152 67.3987 162.268 67.515 162.268 67.6604V191.467C162.298 191.612 162.181 191.7 162.036 191.7Z" fill="black"/>
<path d="M186.61 151.894C186.464 151.894 186.377 151.778 186.377 151.662V93.2184C186.377 93.073 186.493 92.9567 186.61 92.9567C186.726 92.9567 186.842 93.073 186.842 93.2184V151.633C186.842 151.778 186.726 151.894 186.61 151.894Z" fill="black"/>
<path d="M179.028 179.342H91.5688C91.4236 179.342 91.3074 179.226 91.3074 179.11C91.3074 178.993 91.4236 178.877 91.5688 178.877H179.028C179.174 178.877 179.261 178.993 179.261 179.11C179.261 179.226 179.174 179.342 179.028 179.342Z" fill="black"/>
<path d="M177.053 154.744H96.3906C96.2453 154.744 96.1292 154.627 96.1292 154.511C96.1292 154.395 96.2453 154.278 96.3906 154.278H177.053C177.198 154.278 177.286 154.395 177.286 154.511C177.286 154.627 177.169 154.744 177.053 154.744Z" fill="black"/>
<path d="M199.419 130.145H101.212C101.067 130.145 100.951 130.029 100.951 129.913C100.951 129.796 101.067 129.68 101.212 129.68H199.419C199.564 129.68 199.651 129.796 199.651 129.913C199.651 130.029 199.564 130.145 199.419 130.145Z" fill="black"/>
<path d="M131.973 105.576H62.9289C62.7837 105.576 62.6675 105.46 62.6675 105.343C62.6675 105.227 62.7837 105.111 62.9289 105.111H131.973C132.118 105.111 132.234 105.227 132.234 105.343C132.234 105.46 132.118 105.576 131.973 105.576Z" fill="black"/>
<path d="M191.751 105.576H154.832C154.687 105.576 154.6 105.46 154.6 105.343C154.6 105.227 154.716 105.111 154.832 105.111H191.751C191.896 105.111 191.983 105.227 191.983 105.343C191.983 105.46 191.896 105.576 191.751 105.576Z" fill="black"/>
<path d="M178.941 80.9773H153.467C153.322 80.9773 153.235 80.861 153.235 80.7156C153.235 80.5702 153.351 80.4539 153.467 80.4539H178.941C179.086 80.4539 179.174 80.5702 179.174 80.7156C179.174 80.861 179.086 80.9773 178.941 80.9773Z" fill="black"/>
<path d="M127.413 80.9773H94.706C94.5608 80.9773 94.4446 80.861 94.4446 80.7156C94.4446 80.5702 94.5608 80.4539 94.706 80.4539H127.383C127.529 80.4539 127.645 80.5702 127.645 80.7156C127.645 80.861 127.529 80.9773 127.413 80.9773Z" fill="black"/>
<path d="M93.5151 80.9773H67.7507C67.6054 80.9773 67.4893 80.861 67.4893 80.7156C67.4893 80.5702 67.6054 80.4539 67.7507 80.4539H93.5151C93.6603 80.4539 93.7765 80.5702 93.7765 80.7156C93.7765 80.861 93.6603 80.9773 93.5151 80.9773Z" fill="black"/>
<path d="M106.906 56.3788H81.6931C81.5478 56.3788 81.4316 56.2625 81.4316 56.1172C81.4316 55.9718 81.5478 55.8555 81.6931 55.8555H106.906C107.051 55.8555 107.167 55.9718 107.167 56.1172C107.167 56.2625 107.051 56.3788 106.906 56.3788Z" fill="black"/>
<path d="M151.405 105.954C151.289 105.954 151.172 105.808 151.114 105.721C151.085 105.692 151.085 105.663 151.085 105.634C151.056 105.576 151.027 105.518 150.969 105.459C150.708 105.052 150.272 104.355 149.981 103.831C149.981 103.831 149.981 103.831 149.981 103.802C149.836 103.57 149.371 102.726 148.994 101.97C148.936 101.825 148.849 101.68 148.791 101.534V101.505C148.732 101.389 148.674 101.273 148.645 101.156L148.529 100.895C148.529 100.865 148.5 100.836 148.5 100.807C148.471 100.72 148.413 100.604 148.384 100.517C148.268 100.255 148.181 99.9932 148.064 99.7315L148.035 99.6152C148.006 99.5279 147.977 99.4407 147.948 99.3826C147.89 99.2662 147.861 99.1209 147.803 99.0046C147.716 98.801 147.658 98.5975 147.571 98.394L147.454 98.1032C147.396 97.8997 147.338 97.7252 147.251 97.5217L147.077 96.9402C147.019 96.7657 146.961 96.6203 146.932 96.4459L146.902 96.3586C146.844 96.1551 146.786 95.9806 146.728 95.7771C146.38 94.6141 146.118 93.5964 145.886 92.8113C145.218 90.3689 144.956 89.3513 144.201 89.1768C143.765 89.0605 143.272 89.264 142.981 89.4966C142.052 90.2526 142.429 92.3461 142.894 94.7594C142.952 95.0211 143.01 95.2828 143.068 95.5445C143.097 95.6899 143.126 95.8062 143.155 95.9225C143.185 96.0679 143.214 96.1842 143.243 96.3296C143.272 96.504 143.33 96.6785 143.388 96.8529C143.446 97.0274 143.475 97.2018 143.533 97.3763L143.562 97.5217C143.62 97.6671 143.649 97.8415 143.707 97.9869C143.707 98.016 143.736 98.045 143.736 98.0741C143.795 98.2486 143.853 98.423 143.882 98.6266C144.375 100.255 144.956 101.912 145.624 103.511C145.683 103.628 145.624 103.773 145.508 103.831C145.392 103.889 145.247 103.86 145.189 103.744L144.811 103.104C144.753 103.017 144.695 102.901 144.637 102.814C144.346 102.319 144.085 101.825 143.824 101.331C143.736 101.156 143.62 100.953 143.533 100.778C143.359 100.429 143.185 100.08 143.01 99.7605L142.72 99.1499C142.575 98.801 142.4 98.4812 142.255 98.1614C142.11 97.8415 141.965 97.4926 141.848 97.2018L141.819 97.1437C141.79 97.0855 141.761 97.0274 141.761 96.9983L141.732 96.9402C141.674 96.7657 141.587 96.6203 141.529 96.4459C141.471 96.2714 141.413 96.126 141.355 95.9516C141.296 95.8062 141.238 95.6608 141.209 95.5154C141.122 95.2537 141.035 94.992 140.919 94.7304C140.89 94.6722 140.861 94.6141 140.861 94.5268C140.687 94.0907 140.541 93.6255 140.338 93.1893C140.309 93.1312 140.28 93.073 140.28 93.0439V93.0149C140.251 92.9567 140.251 92.9276 140.222 92.8695C140.193 92.8404 140.193 92.8113 140.193 92.7823L140.077 92.5206C140.018 92.4043 139.96 92.288 139.902 92.1717C139.873 92.1135 139.844 92.0844 139.815 92.0263C139.786 91.9681 139.757 91.939 139.728 91.8809C139.612 91.6483 139.467 91.4738 139.35 91.3284C139.031 90.9214 138.711 90.6888 138.363 90.6597C138.218 90.6597 137.927 90.6597 137.666 90.8632C137.666 90.8632 137.666 90.8632 137.637 90.8632C137.201 91.2121 137.085 91.9972 137.23 93.2475C137.317 94.0616 137.52 94.9339 137.724 95.7771C137.724 95.7771 137.724 95.8062 137.724 95.8353C137.753 95.9225 137.753 95.9806 137.782 96.0679C137.811 96.1551 137.84 96.2423 137.84 96.3296V96.3586C137.869 96.4459 137.898 96.5331 137.898 96.6203C137.927 96.6785 137.927 96.7657 137.956 96.8238C137.956 96.882 137.985 96.9111 137.985 96.9692L138.014 97.0565C138.043 97.1728 138.072 97.26 138.101 97.3763L138.13 97.4635C138.188 97.638 138.247 97.8124 138.305 97.9869C138.624 98.9755 139.031 99.9932 139.467 100.982C139.496 101.069 139.554 101.185 139.612 101.273C139.699 101.447 139.786 101.621 139.844 101.767L139.931 101.912C140.106 102.232 140.251 102.552 140.425 102.843C140.657 103.25 140.89 103.657 141.151 104.151L141.267 104.355C141.471 104.674 141.645 104.965 141.79 105.169L141.587 105.314L141.384 105.459L141.587 105.314L141.355 105.43C141.209 105.227 141.035 104.936 140.832 104.587L140.716 104.384C140.425 103.918 140.193 103.482 139.96 103.075C139.786 102.784 139.641 102.465 139.467 102.116L139.379 101.97C139.292 101.796 139.205 101.621 139.147 101.447C139.089 101.36 139.06 101.243 139.002 101.156C138.537 100.139 138.13 99.1209 137.811 98.1032C137.753 97.9287 137.695 97.7543 137.637 97.5798L137.608 97.4926C137.579 97.3763 137.549 97.2891 137.52 97.1728L137.491 97.0855C137.491 97.0274 137.462 96.9983 137.462 96.9402C137.433 96.882 137.433 96.8238 137.404 96.7366C137.375 96.6494 137.346 96.5622 137.346 96.4749V96.4459C137.317 96.3586 137.288 96.2714 137.288 96.1551C137.259 96.0679 137.259 95.9806 137.23 95.8934C137.027 95.0211 136.823 94.1198 136.707 93.3056C136.533 91.8518 136.707 90.9504 137.317 90.4852C137.317 90.4852 137.317 90.4852 137.346 90.4562C137.724 90.1654 138.13 90.1363 138.363 90.1654C138.857 90.2235 139.292 90.4852 139.699 91.0086C139.844 91.1831 139.989 91.3866 140.106 91.6192C140.135 91.6774 140.164 91.7064 140.193 91.7646C140.222 91.7937 140.251 91.8518 140.28 91.91C140.338 92.0263 140.396 92.1426 140.454 92.288L140.57 92.5787C140.57 92.6078 140.599 92.6369 140.599 92.6659C140.628 92.695 140.628 92.7532 140.657 92.8113V92.8404C140.687 92.8986 140.716 92.9567 140.716 93.0149C140.89 93.451 141.064 93.9162 141.238 94.3814C141.267 94.4396 141.296 94.4977 141.296 94.585C141.384 94.8467 141.471 95.0793 141.558 95.341C141.616 95.4863 141.674 95.6317 141.732 95.7771C141.79 95.9225 141.848 96.0969 141.906 96.2714C141.965 96.4168 142.023 96.5912 142.11 96.7366L142.139 96.7948C142.168 96.8529 142.197 96.9111 142.197 96.9402L142.226 96.9983C142.342 97.3181 142.487 97.638 142.633 97.9578C142.778 98.2777 142.923 98.5975 143.068 98.9464L143.359 99.557C143.533 99.8769 143.678 100.226 143.882 100.575C143.882 100.575 143.882 100.604 143.911 100.604C143.707 99.9932 143.504 99.3826 143.33 98.772C143.272 98.5975 143.214 98.423 143.185 98.2486C143.185 98.2195 143.155 98.1904 143.155 98.1614C143.097 97.9869 143.068 97.8415 143.01 97.6671L142.981 97.5217C142.923 97.3472 142.894 97.1728 142.836 96.9983C142.778 96.8238 142.749 96.6494 142.691 96.4749C142.662 96.3296 142.633 96.2132 142.604 96.0679C142.575 95.9516 142.545 95.8062 142.516 95.6608C142.458 95.3991 142.4 95.1374 142.342 94.8757C141.848 92.2007 141.442 90.0782 142.604 89.1477C142.952 88.857 143.591 88.5662 144.259 88.7407C145.276 89.0023 145.595 90.0782 146.293 92.7241C146.525 93.5673 146.786 94.5268 147.106 95.6608C147.164 95.8643 147.222 96.0679 147.28 96.2714L147.309 96.3877C147.367 96.5622 147.396 96.7075 147.454 96.882L147.629 97.4635C147.687 97.6671 147.745 97.8415 147.803 98.016L147.89 98.3067C147.948 98.5103 148.035 98.7138 148.093 98.9173C148.152 99.0336 148.181 99.179 148.239 99.2953C148.268 99.3826 148.297 99.4698 148.326 99.5279L148.355 99.6442C148.442 99.9059 148.558 100.168 148.674 100.4C148.703 100.517 148.761 100.604 148.791 100.691L148.936 101.04C148.994 101.156 149.023 101.273 149.081 101.36V101.389C149.139 101.534 149.226 101.68 149.284 101.796C149.662 102.552 150.127 103.395 150.243 103.628C150.243 103.628 150.243 103.628 150.243 103.657C150.533 104.18 150.969 104.849 151.23 105.256C151.521 105.721 151.579 105.837 151.376 105.983C151.492 105.925 151.463 105.954 151.405 105.954Z" fill="black"/>
<path d="M138.944 108.251C138.857 108.251 138.799 108.222 138.74 108.134C138.247 107.408 137.782 106.71 137.346 106.099L137.288 105.983C137.172 105.808 137.056 105.634 136.94 105.459C136.911 105.43 136.881 105.401 136.852 105.343C136.765 105.227 136.678 105.081 136.591 104.965L136.504 104.82C135.981 104.006 134.122 101.156 132.902 98.0741C132.728 97.638 132.554 97.2018 132.437 96.7948C132.292 96.3586 131.944 95.3409 132.437 94.3814C132.728 93.7999 133.338 93.2184 134.035 93.2184C134.035 93.2184 134.035 93.2184 134.064 93.2184C134.964 93.2475 135.516 94.1779 135.836 94.6722C136.62 95.9515 137.172 96.9692 137.608 97.8706C137.637 97.9287 137.666 98.016 137.724 98.0741L138.014 98.6556C138.334 99.2662 138.624 99.9059 139.002 100.604C139.002 100.604 139.612 101.709 140.454 103.046C140.919 103.773 141.384 104.471 141.819 105.081C141.848 105.111 141.848 105.111 141.848 105.14C141.907 105.256 141.877 105.401 141.761 105.459C141.645 105.547 141.5 105.518 141.413 105.401C141.413 105.401 141.413 105.401 141.384 105.372C140.919 104.762 140.454 104.064 139.989 103.308C139.118 101.941 138.537 100.836 138.508 100.836C138.13 100.139 137.811 99.4988 137.491 98.8592L137.201 98.2776C137.172 98.2195 137.143 98.1323 137.085 98.0741C136.649 97.1728 136.126 96.1551 135.313 94.9048C135.052 94.4687 134.558 93.6836 133.948 93.6836C133.483 93.6545 132.989 94.1197 132.757 94.585C132.379 95.3409 132.67 96.2423 132.786 96.6203C132.931 97.0274 133.076 97.4635 133.251 97.8706C134.471 100.895 136.301 103.715 136.823 104.529L136.911 104.674C136.998 104.791 137.085 104.936 137.172 105.052C137.201 105.081 137.23 105.111 137.23 105.169C137.346 105.343 137.462 105.518 137.579 105.692L137.637 105.808C138.072 106.448 138.508 107.117 139.031 107.844C139.118 107.96 139.089 108.105 138.973 108.193C139.031 108.222 138.973 108.251 138.944 108.251Z" fill="black"/>
<path d="M145.654 119.445C145.595 119.445 145.537 119.416 145.479 119.358C145.16 119.038 144.84 118.718 144.55 118.398L144.434 118.282L144.405 118.253C144.405 118.253 144.405 118.253 144.376 118.224L143.998 117.846C142.662 116.479 141.413 115.2 140.251 114.037L139.67 113.455C139.554 113.339 139.438 113.223 139.292 113.077L138.682 112.467C138.189 111.973 137.724 111.507 137.259 111.042L137.201 110.984C137.172 110.955 137.143 110.926 137.114 110.897C136.446 110.228 135.807 109.617 135.226 109.007C135.168 108.949 135.081 108.861 135.023 108.803C134.964 108.745 134.906 108.687 134.848 108.629L134.5 108.28C134.325 108.105 134.151 107.931 133.977 107.756L133.919 107.698C133.28 107.059 132.495 106.274 131.769 105.459C129.939 103.366 129.271 101.796 129.736 100.662C129.91 100.284 130.143 99.9931 130.433 99.8478C132.35 98.9173 136.126 103.57 137.23 105.023C137.317 105.14 137.288 105.285 137.172 105.372C137.056 105.459 136.911 105.43 136.823 105.314C134.587 102.406 131.827 99.7024 130.636 100.284C130.346 100.429 130.23 100.72 130.172 100.836C129.794 101.767 130.433 103.192 132.118 105.111C132.844 105.925 133.628 106.71 134.267 107.32L134.325 107.378C134.5 107.553 134.674 107.727 134.848 107.902L135.197 108.251C135.255 108.309 135.313 108.367 135.371 108.425C135.429 108.483 135.516 108.571 135.574 108.629C136.184 109.21 136.794 109.85 137.462 110.519C137.491 110.548 137.521 110.577 137.55 110.606L137.579 110.664C138.043 111.129 138.508 111.595 139.002 112.089L139.612 112.699C139.728 112.816 139.844 112.932 139.989 113.077L140.57 113.659C141.732 114.822 142.952 116.101 144.317 117.468L144.695 117.875C144.724 117.904 144.724 117.904 144.724 117.904L144.84 118.02C145.102 118.282 145.363 118.544 145.625 118.805L155.878 109.792L155.907 109.763L156.43 109.298C156.43 109.298 156.43 109.298 156.43 109.268L156.285 108.978C156.198 108.803 156.081 108.629 155.994 108.454C155.994 108.454 155.994 108.454 155.994 108.425C155.936 108.28 155.849 108.134 155.791 108.018C155.791 108.018 155.791 107.989 155.762 107.96C155.646 107.698 155.529 107.466 155.413 107.233C155.123 106.623 154.861 106.041 154.629 105.43L154.542 105.198C154.513 105.14 154.513 105.111 154.484 105.052C154.368 104.791 154.28 104.5 154.193 104.238C154.193 104.209 154.164 104.18 154.164 104.151L154.135 104.093C154.077 103.947 154.048 103.831 154.019 103.686L153.961 103.511C153.874 103.221 153.787 102.959 153.729 102.697C153.409 101.476 153.177 100.342 152.973 99.3244C152.886 98.8301 152.77 98.3358 152.683 97.8996C152.683 97.8415 152.654 97.7833 152.654 97.7252C152.334 96.3005 151.986 95.6608 151.434 95.5445C151.027 95.4282 150.504 95.6608 150.214 95.8934C149.807 96.2132 149.662 96.7947 149.633 97.8415C149.633 98.1032 149.633 98.3939 149.662 98.7429C149.72 100.313 149.982 101.912 150.388 103.482C150.388 103.511 150.388 103.511 150.388 103.54C150.388 103.686 150.272 103.773 150.156 103.773C150.04 103.773 149.923 103.686 149.923 103.57C149.517 101.97 149.255 100.342 149.168 98.7429C149.139 98.3649 149.139 98.0741 149.139 97.8124C149.168 96.5912 149.372 95.9225 149.894 95.4863C150.272 95.1665 150.911 94.8757 151.55 95.0211C152.421 95.2537 152.799 96.2132 153.119 97.5798C153.119 97.638 153.148 97.6961 153.148 97.7543C153.235 98.1904 153.351 98.6847 153.438 99.179C153.641 100.197 153.845 101.331 154.164 102.523C154.222 102.755 154.309 103.017 154.397 103.308L154.455 103.482C154.484 103.599 154.542 103.744 154.571 103.86L154.6 103.918C154.6 103.947 154.629 103.977 154.629 104.006C154.716 104.267 154.803 104.529 154.919 104.791C154.949 104.849 154.949 104.878 154.978 104.936L155.065 105.169C155.297 105.75 155.529 106.332 155.82 106.942C155.936 107.175 156.052 107.408 156.168 107.64L156.198 107.669C156.285 107.844 156.343 107.96 156.43 108.105C156.43 108.105 156.43 108.105 156.43 108.134C156.517 108.309 156.604 108.454 156.691 108.629L156.837 108.92L156.924 109.094C156.924 109.094 156.924 109.123 156.953 109.123C157.011 109.21 156.982 109.356 156.895 109.414L156.227 109.995C156.227 109.995 156.227 109.995 156.198 110.024L145.741 119.213C145.77 119.416 145.712 119.445 145.654 119.445Z" fill="black"/>
<path d="M156.808 109.385C156.575 109.588 156.343 109.792 156.139 109.995C156.139 109.995 156.139 109.995 156.11 109.995L155.326 110.722C154.861 111.158 154.397 111.595 153.903 112.031C153.583 112.321 153.264 112.641 152.915 112.932C150.562 115.084 148.21 117.264 145.857 119.416L145.828 119.387C145.566 119.125 145.334 118.864 145.073 118.602C144.927 118.427 144.753 118.282 144.608 118.108L144.579 118.079C147.367 115.985 150.156 113.892 152.944 111.798C153.409 111.449 153.903 111.071 154.368 110.722C155.094 110.17 155.849 109.617 156.575 109.065C156.604 109.123 156.662 109.181 156.691 109.21C156.72 109.268 156.778 109.327 156.808 109.385Z" fill="black"/>
<path d="M140.222 72.8069C140.164 72.8069 140.077 72.7778 140.048 72.7196L131.508 63.1826C131.421 63.0954 131.421 62.921 131.537 62.8337C131.624 62.7465 131.798 62.7465 131.886 62.8628L140.251 72.1963L148.965 62.95C149.052 62.8628 149.226 62.8337 149.314 62.95C149.401 63.0373 149.43 63.2117 149.314 63.2989L140.425 72.7487C140.367 72.7778 140.309 72.8069 140.222 72.8069Z" fill="black"/>
<path d="M140.28 74.6096C141.034 74.6096 141.645 73.9977 141.645 73.243C141.645 72.4882 141.034 71.8764 140.28 71.8764C139.526 71.8764 138.915 72.4882 138.915 73.243C138.915 73.9977 139.526 74.6096 140.28 74.6096Z" fill="black"/>
<path d="M106.354 37.7409C106.295 37.7409 106.208 37.7119 106.15 37.6537C106.063 37.5374 106.063 37.392 106.179 37.3048C107.051 36.5779 107.893 35.9382 108.735 35.3858L108.881 35.2985C109.607 34.8333 110.304 34.4553 110.972 34.1355C111.059 34.1064 111.146 34.0483 111.262 33.9901C111.611 33.8156 112.076 33.5249 112.25 33.0015C112.395 32.5654 112.337 31.9548 112.105 31.4895C112.018 31.3442 111.931 31.1988 111.814 31.1116C111.727 31.0534 111.64 30.9953 111.553 30.9662C111.001 30.7626 109.926 30.9662 108.387 31.6059C107.428 32.0129 106.993 32.2165 106.499 32.4781C104.988 33.2923 103.972 34.0483 103.507 34.3681L103.42 34.4262C101.909 35.5311 100.021 36.4325 97.7557 37.1594C97.6105 37.1885 97.4943 37.1303 97.4362 36.985C97.4072 36.8687 97.4653 36.7233 97.6105 36.6651C99.818 35.9673 101.677 35.0659 103.129 34.0192L103.217 33.961C103.681 33.6412 104.727 32.8561 106.266 32.042C106.76 31.7803 107.225 31.5477 108.183 31.1406C109.897 30.4428 111.001 30.2102 111.698 30.4719C111.843 30.53 111.989 30.5882 112.105 30.7045C112.25 30.8499 112.395 31.0243 112.511 31.2279C112.831 31.8094 112.918 32.5654 112.686 33.1469C112.511 33.6412 112.105 34.0773 111.466 34.3972C111.35 34.4553 111.262 34.5135 111.175 34.5426C110.507 34.8624 109.839 35.2404 109.142 35.6765L109.084 35.7056C109.055 35.7347 109.026 35.7347 108.997 35.7638C108.183 36.3162 107.312 36.9559 106.47 37.6537C106.47 37.7409 106.412 37.7409 106.354 37.7409Z" fill="black"/>
<path d="M103.972 54.547C103.827 54.547 103.71 54.4307 103.71 54.2853C103.71 54.198 103.769 54.1108 103.827 54.0817C104.32 53.7038 105.134 53.0932 106.15 52.3081C107.37 51.3777 108.503 50.5344 109.52 49.7785C110.769 48.848 111.844 48.0339 112.773 47.307C113.935 46.4056 114.806 45.7369 115.445 45.1844C115.561 45.0972 115.678 44.9809 115.823 44.8646C116.665 44.1668 117.856 43.2072 117.74 42.2186C117.682 41.7534 117.391 41.3173 117.304 41.201C116.752 40.4741 115.968 40.2996 115.649 40.2705C115.561 40.2705 115.503 40.2124 115.474 40.1252C115.445 40.067 115.445 39.9798 115.474 39.8925C115.823 39.2529 115.707 38.4678 115.213 37.9735C114.748 37.4792 113.993 37.3338 113.383 37.6246C113.267 37.6828 113.151 37.6246 113.063 37.5374C113.005 37.4211 113.034 37.3048 113.122 37.2175C113.848 36.636 114.08 35.5893 113.615 34.8914C113.441 34.6297 113.18 34.4262 112.86 34.2808C112.57 34.1645 112.221 34.1355 111.902 34.1645C111.756 34.1936 111.64 34.0773 111.611 33.961C111.582 33.8156 111.698 33.6993 111.814 33.6702C112.221 33.6121 112.657 33.6702 113.005 33.8156C113.412 33.9901 113.761 34.2518 113.993 34.6007C114.458 35.3276 114.4 36.258 113.935 36.9849C114.516 36.9558 115.126 37.1885 115.532 37.6246C116.113 38.2061 116.288 39.0784 115.997 39.8344C116.462 39.9507 117.13 40.2415 117.653 40.9102C117.798 41.1137 118.147 41.608 118.205 42.1896C118.35 43.4398 117.043 44.4866 116.113 45.2716C115.997 45.388 115.852 45.4752 115.736 45.5624C115.068 46.1149 114.225 46.8127 113.034 47.7141C112.105 48.441 111.001 49.2551 109.781 50.1855C108.765 50.9415 107.661 51.7847 106.412 52.7152C105.395 53.4711 104.582 54.1108 104.088 54.4888C104.059 54.547 104.001 54.547 103.972 54.547Z" fill="black"/>
<path d="M92.0917 50.5054C92.0626 50.5054 92.0626 50.5054 92.0336 50.5054C91.8884 50.4763 91.8012 50.36 91.8303 50.2147C92.2369 48.1793 92.7017 46.1149 93.2245 44.1087C94.5607 38.9331 95.2578 36.3162 96.4487 34.8624C97.233 33.932 97.7558 33.6703 98.4529 33.3505C99.1791 33.0015 100.196 32.5363 102.055 31.0244C102.897 30.3265 103.594 29.6868 104.233 29.1053C105.773 27.7097 106.789 26.7792 107.893 27.0991C108.561 27.3026 109.113 27.9132 109.491 28.9599C109.549 29.0762 109.462 29.2216 109.345 29.2798C109.229 29.3379 109.084 29.2507 109.026 29.1344C108.706 28.2621 108.271 27.7387 107.748 27.5643C106.905 27.3317 105.976 28.1749 104.553 29.4833C103.914 30.0648 103.217 30.7045 102.374 31.4023C100.457 32.9725 99.4405 33.4377 98.6853 33.7866C97.9882 34.1064 97.5525 34.31 96.8553 35.1823C95.7225 36.5488 95.0254 39.282 93.7474 44.225C93.2245 46.2021 92.7598 48.2666 92.3822 50.3019C92.295 50.4182 92.2079 50.5054 92.0917 50.5054Z" fill="black"/>
<path d="M109.984 40.067C109.897 40.067 109.839 40.038 109.781 39.9798C109.694 39.8635 109.723 39.7181 109.839 39.6309L113.092 37.2466C113.209 37.1594 113.354 37.1885 113.441 37.3048C113.528 37.4211 113.499 37.5665 113.383 37.6537L110.13 40.038C110.101 40.038 110.043 40.067 109.984 40.067Z" fill="black"/>
<path d="M113.732 42.6839C113.673 42.6839 113.615 42.6548 113.586 42.6257C113.47 42.5385 113.47 42.3931 113.557 42.2768L115.503 39.8635C115.59 39.7472 115.736 39.7472 115.852 39.8344C115.968 39.9216 115.968 40.067 115.881 40.1833L113.935 42.5966C113.877 42.6548 113.819 42.6839 113.732 42.6839Z" fill="black"/>
</svg>
