<svg width="150" height="129" viewBox="0 0 150 129" fill="none" xmlns="http://www.w3.org/2000/svg">
<path opacity="0.1" fill-rule="evenodd" clip-rule="evenodd" d="M111.5 168C157.616 168 195 130.84 195 85C195 39.1604 157.616 2 111.5 2C65.3842 2 28 39.1604 28 85C28 130.84 65.3842 168 111.5 168Z" fill="#FFF4F2"/>
<path d="M11.0213 33.1085C8.14501 33.1085 5.11605 30.8996 2.01073 26.5579C1.95983 26.4818 1.95983 26.3548 2.06164 26.304C2.138 26.2532 2.26527 26.2532 2.31617 26.3548C5.44695 30.7473 8.47591 32.88 11.3012 32.7277C13.5921 32.6007 15.1956 31.0519 16.8501 29.4016C18.53 27.7513 20.2609 26.0501 22.7807 25.9232C25.5806 25.7962 28.4823 27.6497 31.4349 31.4836C31.5113 31.5597 31.4858 31.6867 31.4095 31.7629C31.3331 31.839 31.2058 31.8136 31.1295 31.7375C28.2787 28.0051 25.4788 26.2025 22.8062 26.3294C20.439 26.4564 18.7591 28.1067 17.1301 29.7063C15.4756 31.3312 13.7702 33.007 11.3267 33.1339C11.2249 33.1085 11.1231 33.1085 11.0213 33.1085Z" fill="black"/>
<path fill-rule="evenodd" clip-rule="evenodd" d="M39.0455 65.7347C39.071 65.8108 39.1219 65.8362 39.1982 65.8362C39.2281 65.8362 39.2491 65.8275 39.2666 65.8203C39.279 65.8152 39.2895 65.8108 39.3001 65.8108L43.4744 63.4242C43.5762 63.3734 43.6017 63.2718 43.5508 63.1703L41.1582 59.0063C41.1072 58.9048 41.0054 58.8794 40.9036 58.9301L36.7293 61.3168C36.6274 61.3676 36.602 61.4691 36.6529 61.5707L39.0455 65.7347ZM39.2746 65.3792L37.0602 61.5453L40.9036 59.3364L43.1181 63.1703L39.2746 65.3792Z" fill="black"/>
<path fill-rule="evenodd" clip-rule="evenodd" d="M96.0103 6.11898C96.0103 6.19515 96.0867 6.27132 96.1885 6.27132H96.2394L99.5229 5.76352C99.5738 5.76352 99.6247 5.73813 99.6502 5.68735C99.6756 5.63657 99.6756 5.58579 99.6756 5.53501L99.1666 2.2597C99.1666 2.20892 99.1411 2.15814 99.0902 2.13275C99.0393 2.10736 98.9884 2.10736 98.9375 2.10736L95.654 2.61516C95.5522 2.64055 95.4758 2.74211 95.5013 2.84367L96.0103 6.11898ZM96.3412 5.86508L95.9085 2.97062L98.8102 2.53899L99.2429 5.43345L96.3412 5.86508Z" fill="black"/>
<path d="M73.0004 10.9177C72.9749 10.9177 72.9495 10.9177 72.924 10.8923C72.8222 10.8415 72.7713 10.74 72.8222 10.6384L74.4512 6.57601C74.5021 6.47445 74.604 6.42367 74.7058 6.47445C74.8076 6.52523 74.8585 6.62679 74.8076 6.72835L73.1786 10.7907C73.1531 10.8669 73.0768 10.9177 73.0004 10.9177Z" fill="black"/>
<path d="M34.693 8.25174C34.6421 8.25174 34.5912 8.22635 34.5402 8.17557C34.4639 8.0994 34.4893 7.97245 34.5657 7.89628L37.9256 5.10338C38.0019 5.02721 38.1292 5.0526 38.2055 5.12877C38.2819 5.20494 38.2565 5.33189 38.1801 5.40806L34.8457 8.22635C34.7948 8.25174 34.7439 8.25174 34.693 8.25174Z" fill="black"/>
<path d="M3.30889 4.5702C3.23253 4.5702 3.18162 4.54481 3.15617 4.46864L0.839907 0.761703C0.789 0.685533 0.814453 0.558583 0.916267 0.507803C1.01808 0.457023 1.11989 0.482413 1.1708 0.558583L3.48707 4.26552C3.53797 4.36708 3.51252 4.46864 3.43616 4.51942C3.38525 4.5702 3.3598 4.5702 3.30889 4.5702Z" fill="black"/>
<path d="M79.1349 41.3095C79.084 41.3095 79.033 41.2841 78.9821 41.2333C78.9058 41.1571 78.9312 41.0302 79.0076 40.954L82.3165 38.085C82.3929 38.0088 82.5202 38.0342 82.5965 38.1104C82.6729 38.1865 82.6474 38.3135 82.5711 38.3896L79.2621 41.2587C79.2112 41.3095 79.1858 41.3095 79.1349 41.3095Z" fill="black"/>
<path d="M17.5374 53.776C17.4865 53.776 17.4356 53.7506 17.4101 53.7252L14.4066 50.5514C14.3303 50.4753 14.3303 50.3483 14.4066 50.2722C14.483 50.196 14.6103 50.196 14.6866 50.2722L17.6901 53.4459C17.7665 53.5221 17.7665 53.649 17.6901 53.7252C17.6392 53.776 17.5883 53.776 17.5374 53.776Z" fill="black"/>
<path d="M25.6062 87.6716C25.5553 87.6716 25.5298 87.6716 25.5044 87.6462C25.428 87.5954 25.4026 87.4685 25.4535 87.3923L28.0752 83.8885C28.1261 83.8123 28.2534 83.7869 28.3297 83.8377C28.4061 83.8885 28.4315 84.0154 28.3806 84.0916L25.7589 87.5954C25.7335 87.6462 25.6826 87.6716 25.6062 87.6716Z" fill="black"/>
<path d="M4.58165 108.669C4.50529 108.669 4.45438 108.644 4.42893 108.568L2.18903 104.81C2.13812 104.708 2.16357 104.607 2.26539 104.556C2.3672 104.505 2.46902 104.531 2.51992 104.632L4.75983 108.39C4.81073 108.491 4.78528 108.593 4.68347 108.644C4.65801 108.669 4.63256 108.669 4.58165 108.669Z" fill="black"/>
<path fill-rule="evenodd" clip-rule="evenodd" d="M6.64331 74.545C6.87239 75.002 7.33055 75.2559 7.81417 75.2559C8.01779 75.2559 8.22142 75.2051 8.3996 75.1289C8.73049 74.9766 8.95957 74.6973 9.06139 74.3672C9.1632 74.0372 9.13775 73.6817 8.98503 73.377C8.65413 72.7423 7.86507 72.463 7.22874 72.7931C6.89784 72.9454 6.66876 73.2247 6.56695 73.5548C6.46513 73.8848 6.49059 74.2403 6.64331 74.545ZM7.40691 73.1231C7.53418 73.047 7.6869 73.0216 7.81417 73.0216C8.14506 73.0216 8.47596 73.2247 8.65413 73.5294C8.75594 73.7579 8.7814 74.0118 8.70504 74.2403C8.62868 74.4688 8.47596 74.6719 8.24688 74.7735C7.78871 75.002 7.22874 74.8243 6.99966 74.3672C6.77058 73.9102 6.94875 73.3516 7.40691 73.1231Z" fill="black"/>
<path d="M51.7468 35.4952C53.1525 35.4952 54.2921 34.3584 54.2921 32.9562C54.2921 31.5539 53.1525 30.4172 51.7468 30.4172C50.341 30.4172 49.2014 31.5539 49.2014 32.9562C49.2014 34.3584 50.341 35.4952 51.7468 35.4952Z" fill="#FFDEE9"/>
<path d="M143.201 2.539C143.904 2.539 144.474 1.97062 144.474 1.2695C144.474 0.568374 143.904 0 143.201 0C142.498 0 141.928 0.568374 141.928 1.2695C141.928 1.97062 142.498 2.539 143.201 2.539Z" fill="#FFDEE9"/>
<path d="M13.8977 123.979C14.6005 123.979 15.1703 123.411 15.1703 122.71C15.1703 122.009 14.6005 121.44 13.8977 121.44C13.1948 121.44 12.625 122.009 12.625 122.71C12.625 123.411 13.1948 123.979 13.8977 123.979Z" fill="#FFDEE9"/>
<path d="M149.466 104.104C149.415 104.104 149.39 104.079 149.339 104.053C149.237 103.977 149.212 103.85 149.288 103.749C150.382 102.2 150.535 101.971 150.56 101.971C151.069 101.235 151.527 100.473 151.959 99.7365C152.01 99.6603 152.061 99.5841 152.086 99.4825C152.443 98.8477 152.773 98.2383 153.053 97.6796C153.282 97.2479 153.485 96.867 153.689 96.5115C153.689 96.5115 153.689 96.4861 153.714 96.4861C154.452 95.1403 155.088 94.3277 155.902 94.3785C156.411 94.4039 156.792 94.7848 156.894 94.9118C157.174 95.2165 157.479 95.8767 156.945 97.9082C156.64 99.0508 156.182 100.168 155.597 101.26L155.546 101.336C155.546 101.362 155.52 101.387 155.495 101.412C155.419 101.489 155.266 101.489 155.19 101.412C155.113 101.336 155.113 101.235 155.164 101.158L155.215 101.057C155.8 100.016 156.233 98.9239 156.538 97.8066C156.894 96.4608 156.92 95.572 156.589 95.1911C156.538 95.1403 156.258 94.8356 155.902 94.8102H155.877C155.292 94.8102 154.757 95.572 154.121 96.7147C154.121 96.7147 154.121 96.7401 154.096 96.7401C153.892 97.0956 153.714 97.4765 153.485 97.8828C153.206 98.4414 152.875 99.0508 152.519 99.6857C152.468 99.7618 152.417 99.838 152.392 99.9396C151.959 100.676 151.501 101.438 150.993 102.2C150.993 102.2 150.84 102.428 149.721 103.977C149.594 104.079 149.543 104.104 149.466 104.104Z" fill="black"/>
<path d="M149.644 103.647C152.163 106.77 154.681 109.868 157.225 112.992C156.792 113.246 156.36 113.499 155.927 113.753C153.791 110.452 151.628 107.177 149.492 103.876C149.517 103.825 149.593 103.723 149.644 103.647Z" fill="black"/>
<path d="M92.9948 91.6868C92.9439 91.6868 92.893 91.6614 92.8421 91.6107C92.7658 91.5345 92.7658 91.3821 92.8421 91.3059C93.4272 90.7473 94.0123 90.1125 94.5719 89.4776C94.8771 89.1221 95.1569 88.7666 95.7166 88.0302C96.1236 87.497 96.7086 86.7352 97.37 85.7957C98.0568 84.8053 98.2349 84.526 98.3875 84.1451C98.591 83.5865 98.8199 83.0278 98.591 82.52C98.5656 82.4692 98.3621 82.0121 97.9551 81.9359C97.6753 81.8597 97.4209 81.9867 97.2174 82.1137C96.3271 82.6215 95.7674 83.4595 95.0806 84.4244L94.8517 84.7292C94.8517 84.7292 94.8008 84.8053 93.707 86.3035C92.8421 87.497 91.8501 88.6651 90.7563 89.757C90.6799 89.8331 90.5528 89.8331 90.451 89.7824C90.3747 89.7062 90.3493 89.5792 90.4256 89.503C91.4939 88.0302 92.4351 86.4813 93.2237 84.9323C93.4018 84.6022 93.5544 84.2721 93.707 83.942C94.6991 81.7836 94.928 80.6155 94.4956 80.0568C94.4701 80.0314 94.2158 79.7267 93.8596 79.7013C93.4272 79.6759 92.9439 80.1076 92.4097 81.0218C92.0536 81.6058 91.7229 82.3168 91.3922 83.0024L91.3668 83.0278C91.3668 83.0278 91.3668 83.0278 91.3668 83.0532C91.2141 83.3833 91.0361 83.7134 90.8834 84.0435C89.9168 85.9734 88.7976 87.8779 87.5511 89.6554C87.4748 89.757 87.3476 89.7824 87.2459 89.7062C87.1441 89.63 87.1187 89.503 87.195 89.4015C88.416 87.624 89.5353 85.7703 90.5019 83.8404C90.6545 83.5103 90.8326 83.2056 90.9852 82.8755C90.9852 82.8755 90.9852 82.8755 90.9852 82.8501L91.0106 82.7993C91.3413 82.1137 91.672 81.4027 92.0536 80.7932C92.4606 80.1076 93.0965 79.2189 93.9105 79.2697C94.4447 79.3204 94.7754 79.7267 94.8517 79.8029C95.4113 80.5139 95.2078 81.7328 94.114 84.1197C93.9614 84.4498 93.8088 84.8053 93.6307 85.1354C93.2491 85.8718 92.8676 86.6082 92.4351 87.3192C92.7658 86.913 93.0965 86.5067 93.4018 86.075C94.4701 84.6276 94.5464 84.526 94.5464 84.5006L94.7754 84.1959C95.4622 83.1802 96.0727 82.3168 97.0393 81.7582C97.3191 81.6058 97.6753 81.4281 98.1077 81.5296C98.6928 81.682 98.9726 82.266 99.0234 82.3676C99.3287 83.0532 99.0489 83.7642 98.8199 84.3229C98.6673 84.7292 98.4893 85.0339 97.7516 86.0496C97.0902 86.9891 96.5051 87.7509 96.0981 88.2842C95.5385 89.0206 95.2333 89.4015 94.928 89.757C94.3684 90.4172 93.7833 91.0266 93.1728 91.6107C93.0965 91.6614 93.0456 91.6868 92.9948 91.6868Z" fill="black"/>
<path d="M94.9536 94.2262C94.9027 94.2262 94.8518 94.2008 94.801 94.1754C94.7247 94.0992 94.7247 93.9468 94.801 93.8707L95.0045 93.6675C95.4369 93.2358 96.022 92.6518 96.7342 91.9408C96.7342 91.9408 96.7342 91.9408 96.7597 91.9154C97.3956 91.2552 98.057 90.595 98.6929 89.9093C99.1253 89.4269 99.5832 88.9444 100.041 88.4619C100.27 88.208 100.601 87.8525 100.83 87.4462C101.059 87.0653 101.109 86.7098 101.033 86.4305C100.957 86.1004 100.677 85.7957 100.372 85.7195C100.143 85.6433 99.8885 85.6687 99.6087 85.8211C99.456 85.8973 99.3034 85.9988 99.1508 86.1004C98.6929 86.4305 98.2096 86.913 97.6245 87.4716L97.5991 87.497C96.6579 88.4112 95.7676 89.2491 94.9536 90.0109C93.9361 90.9505 93.3002 91.5345 93.1475 91.6361C93.1221 91.6615 93.0967 91.6615 93.0712 91.6869C92.9695 91.7122 92.8423 91.6615 92.7914 91.5599C92.766 91.4583 92.7914 91.3567 92.8932 91.306C92.9695 91.2552 93.5545 90.7219 94.6738 89.7062C95.4878 88.9444 96.3781 88.1064 97.3193 87.2177L97.3447 87.1923C97.9298 86.6337 98.4385 86.1258 98.9218 85.7957C99.0999 85.6687 99.278 85.5418 99.4306 85.4656C99.8122 85.2624 100.194 85.237 100.524 85.3386C100.982 85.491 101.364 85.8973 101.491 86.3543C101.593 86.7606 101.516 87.2177 101.237 87.7002C100.982 88.1318 100.626 88.5381 100.372 88.7921C99.9139 89.2745 99.456 89.7824 99.0236 90.2395C98.3877 90.9251 97.7263 91.5853 97.0903 92.2455L97.0649 92.2709C96.3781 92.9819 95.7676 93.5659 95.3606 93.9976L95.1571 94.2008C95.0553 94.2262 95.0045 94.2262 94.9536 94.2262Z" fill="black"/>
<path d="M95.8948 97.0194C95.8185 97.0194 95.7676 96.994 95.7167 96.9432C95.6404 96.8416 95.6659 96.7146 95.7676 96.6385C96.8614 95.8259 97.828 95.1149 98.7184 94.4293C98.9219 94.2769 99.2017 94.0484 99.5069 93.8198C101.033 92.5756 101.695 91.6106 101.516 90.8489C101.466 90.5695 101.338 90.4172 101.262 90.3664C100.931 90.1125 100.117 90.341 98.9982 91.052C97.9552 91.7122 96.6325 92.7533 95.1062 94.1753C95.0299 94.2515 94.8773 94.2515 94.801 94.1499C94.7247 94.0738 94.7247 93.9214 94.8264 93.8452C96.3781 92.4232 97.7009 91.3567 98.7692 90.6711C100.117 89.8331 101.008 89.6046 101.516 90.0109C101.644 90.1125 101.847 90.341 101.923 90.7219C102.203 91.9662 100.83 93.2612 99.7613 94.1246C99.456 94.3785 99.1762 94.5816 98.9473 94.7594C98.057 95.445 97.0904 96.156 95.9965 96.9686C95.9711 97.0194 95.9202 97.0194 95.8948 97.0194Z" fill="black"/>
<path d="M87.2206 91.1536C87.1951 91.1536 87.1951 91.1536 87.2206 91.1536C87.0934 91.1536 86.9916 91.052 87.0171 90.9251C87.0425 90.4426 87.1188 89.9347 87.1951 89.4523C87.2969 88.8682 87.4495 88.335 87.5767 87.8779C87.8056 87.0399 88.0091 86.3289 87.9328 85.4656C87.9074 85.1862 87.8565 84.8815 87.6276 84.653C87.6276 84.653 87.3223 84.3737 86.8644 84.3483C86.1013 84.3229 84.9566 86.8622 84.2698 89.2745C84.2444 89.4015 84.1172 89.4523 84.0154 89.4269C83.8882 89.4015 83.8374 89.2745 83.8628 89.1729C83.9137 89.0206 84.2698 87.7255 84.804 86.4559C85.5162 84.7546 86.2031 83.9166 86.839 83.9166H86.8644C87.5004 83.942 87.9074 84.3229 87.9328 84.3483C88.2635 84.6784 88.3398 85.1101 88.3652 85.4402C88.4416 86.3543 88.2381 87.1161 88.0091 88.0049C87.8819 88.4873 87.7547 88.9698 87.6276 89.5538C87.5512 90.0109 87.4749 90.4934 87.4495 90.9758C87.4241 91.052 87.3223 91.1536 87.2206 91.1536Z" fill="black"/>
<path d="M95.0045 94.7594C94.9282 94.7594 94.8264 94.7086 94.801 94.6324C94.3431 93.5151 93.6817 92.4994 92.8423 91.6361C91.952 90.7473 90.8582 90.0363 89.6881 89.5792C89.5863 89.5284 89.51 89.4015 89.5609 89.2999C89.6117 89.1983 89.7389 89.1221 89.8407 89.1729C91.0617 89.6554 92.2064 90.3918 93.1476 91.3313C94.0379 92.2455 94.7247 93.2866 95.208 94.4801C95.2589 94.5816 95.208 94.7086 95.0808 94.7594C95.0554 94.7594 95.0299 94.7594 95.0045 94.7594Z" fill="black"/>
<path d="M78.521 61.3422L73.9422 63.9323L73.1282 67.5635C72.9502 67.4112 72.0853 66.6748 70.8389 66.7763C69.5161 66.8779 68.753 67.8175 68.5241 68.1222C67.6337 69.3664 67.7355 71.0678 68.4732 72.2612C69.4652 73.8864 71.3222 74.0895 71.5511 74.1149C69.6942 75.9178 67.8372 77.7207 65.9803 79.549C63.7672 79.549 61.5287 79.549 59.3157 79.549C58.8069 77.8731 58.1964 75.3846 57.9166 72.312C57.5605 68.4015 57.3316 66.0145 58.5271 63.3229C58.9596 62.3326 60.7656 58.676 64.9882 57.127C64.9882 57.127 70.0249 55.2479 75.2141 58.3205C76.8421 59.2854 77.9359 60.5805 77.9359 60.5805C78.1394 60.7836 78.3429 61.0629 78.521 61.3422Z" fill="black"/>
<path d="M73.8152 68.4523C73.7388 68.4523 73.6625 68.4015 73.6371 68.3507C73.5099 68.1222 73.3573 67.919 73.1792 67.7159C73.0266 67.5381 72.8485 67.3858 72.6705 67.2588C72.5687 67.1826 72.5687 67.0557 72.6196 66.9541C72.6959 66.8525 72.8231 66.8525 72.9248 66.9033C73.1283 67.0557 73.3064 67.2334 73.4845 67.4112C73.688 67.6397 73.866 67.8682 73.9932 68.1222C74.0441 68.2237 74.0187 68.3507 73.9169 68.4269C73.8915 68.4269 73.8406 68.4523 73.8152 68.4523Z" fill="black"/>
<path d="M72.0091 74.4704C71.831 74.4704 71.6529 74.445 71.4494 74.4196C71.2459 74.3942 71.0424 74.3688 70.8389 74.3434C70.7118 74.318 70.6354 74.2165 70.6609 74.0895C70.6863 73.9625 70.7881 73.8864 70.9153 73.9118C71.1188 73.9371 71.2968 73.9625 71.5003 73.9879C71.6784 74.0133 71.8564 74.0133 72.0091 74.0387C72.1363 74.0387 72.2126 74.1403 72.2126 74.2673C72.238 74.3942 72.1363 74.4704 72.0091 74.4704Z" fill="black"/>
<path d="M73.8915 82.8755C73.7643 82.8755 73.6626 82.7739 73.6626 82.647L73.688 81.5804C73.688 81.4789 73.7643 81.4027 73.8407 81.3773C74.2985 81.2503 74.731 81.098 75.138 80.8948C76.1809 80.4378 77.0712 79.8029 77.8343 79.0411C77.8598 79.0158 80.8105 75.8924 80.5562 70.306C80.5562 70.2044 80.5562 70.1028 80.5562 70.1028C80.5562 69.9251 80.5307 69.5696 80.4798 69.0871C80.2763 67.0049 79.9711 64.1609 78.3685 61.7485C78.3177 61.6723 78.2668 61.5962 78.2159 61.52C78.1396 61.4184 78.165 61.2914 78.2668 61.2153C78.3685 61.1391 78.4957 61.1645 78.572 61.2661C78.6229 61.3422 78.6738 61.4184 78.7247 61.4946C80.4035 64.0085 80.6833 66.9033 80.9123 69.0109C80.9632 69.4934 80.9886 69.8743 80.9886 70.052C80.9886 70.052 80.9886 70.1536 80.9886 70.2552C81.2684 76.0448 78.2922 79.1935 78.165 79.3205C77.3765 80.133 76.4353 80.7933 75.3415 81.2757C74.9599 81.4535 74.5529 81.6058 74.1459 81.7328L74.1205 82.647C74.095 82.7739 73.9933 82.8755 73.8915 82.8755Z" fill="black"/>
<path d="M59.4431 83.7642C59.3159 83.7642 59.2396 83.6627 59.2142 83.5611L59.1887 79.3205C59.1887 79.1935 59.2905 79.0919 59.3922 79.0919C59.494 79.0919 59.6212 79.1935 59.6212 79.2951L59.6466 83.5357C59.672 83.6627 59.5703 83.7642 59.4431 83.7642Z" fill="black"/>
<path d="M74.0442 81.4027C73.9933 81.6058 73.917 81.8344 73.8915 82.1391C73.8661 82.3422 73.8661 82.52 73.8915 82.6723L71.9329 82.7993C71.7802 82.7739 71.6276 82.7231 71.475 82.6723C70.1014 82.2661 68.9821 81.6058 68.0918 80.9202C69.5672 81.2757 71.2715 81.5043 73.1539 81.4535C73.4591 81.4281 73.7644 81.4281 74.0442 81.4027Z" fill="black"/>
<path d="M41.7384 167.866C41.6875 167.866 41.6366 167.84 41.5857 167.815C41.5349 167.764 41.5094 167.713 41.5094 167.663C41.5094 163.194 41.484 158.547 41.4331 153.849C41.4331 152.681 41.4077 151.487 41.3822 150.294C41.3568 148.059 41.3059 145.774 41.255 143.285V142.981C41.0515 132.29 40.7209 121.422 40.2375 110.732C40.2375 110.605 40.3139 110.503 40.441 110.503C40.5682 110.503 40.67 110.579 40.67 110.706C41.1279 121.397 41.4585 132.265 41.6875 142.955V143.26C41.7384 145.749 41.7638 148.034 41.8147 150.269C41.8401 151.462 41.8401 152.63 41.8655 153.824C41.9164 158.42 41.9419 162.99 41.9419 167.409L94.6992 163.194C94.3177 156.998 93.9615 150.599 93.6563 144.225C93.3002 136.912 92.9949 129.446 92.7405 122.082C92.7405 121.955 92.8423 121.854 92.944 121.854C93.0712 121.854 93.173 121.955 93.173 122.057C93.4274 129.421 93.7326 136.861 94.0887 144.2C94.4194 150.649 94.7756 157.099 95.1571 163.371C95.1571 163.498 95.0808 163.6 94.9536 163.6L41.7384 167.866Z" fill="black"/>
<path d="M115.329 131.884C115.049 131.884 114.769 131.859 114.515 131.833C110.165 131.402 106.299 129.7 101.517 127.135C99.5579 126.094 97.3702 124.85 95.03 123.53C92.8678 122.285 90.7056 120.94 90.6802 120.914C90.0951 120.533 89.5864 120.203 89.2302 119.975C89.1285 119.898 89.1031 119.772 89.1794 119.67C89.2557 119.568 89.3829 119.543 89.4846 119.619C89.8407 119.848 90.3241 120.178 90.9346 120.559C90.96 120.584 93.0967 121.93 95.2589 123.149C97.5737 124.469 99.7614 125.713 101.72 126.755C106.477 129.319 110.292 130.97 114.566 131.427C117.262 131.706 121.714 130.437 128.964 128.024C131.151 127.288 133.593 126.45 136.417 125.485L137.078 125.256C141.708 123.682 146.007 122.006 148.169 121.168C151.349 119.924 154.554 118.603 157.683 117.258C156.131 114.49 154.477 111.722 152.722 109.056C152.035 108.015 151.349 106.973 150.636 105.932C150.128 105.196 149.695 104.587 149.288 104.028C149.263 103.977 149.237 103.952 149.212 103.901L118.025 113.703C117.975 113.728 117.898 113.703 117.847 113.677C117.135 113.22 116.474 112.788 115.812 112.357C115.609 112.23 115.405 112.077 115.176 111.95L114.439 111.468C114.083 111.239 113.727 110.986 113.345 110.732C113.116 110.579 112.887 110.427 112.658 110.249C112.048 109.843 111.437 109.386 110.801 108.954C109.377 107.938 107.978 106.897 106.604 105.856C103.602 103.545 101.669 101.946 99.9903 100.498C98.3623 99.127 96.9632 97.9336 94.9537 96.4354L94.9028 96.41C91.8249 94.1246 86.076 89.884 79.3605 87.497C78.9789 87.3701 78.5719 87.2177 78.1395 87.0907C77.6562 86.9384 65.9549 83.3326 54.3046 87.3193C54.2028 87.3701 54.0756 87.2939 54.0247 87.1923C53.9739 87.0907 54.0502 86.9638 54.1519 86.913C65.9295 82.9009 77.7579 86.5321 78.2667 86.6845C78.6991 86.8114 79.1061 86.9638 79.4877 87.0907C86.2286 89.5031 92.0284 93.7691 95.1317 96.0545L95.1826 96.0799C97.1922 97.578 98.6167 98.7715 100.245 100.143C101.924 101.565 103.831 103.19 106.833 105.475C108.207 106.516 109.606 107.557 111.03 108.573C111.641 109.005 112.277 109.462 112.862 109.868C113.091 110.021 113.32 110.173 113.548 110.325C113.93 110.579 114.286 110.833 114.642 111.062L115.355 111.544C115.558 111.697 115.787 111.824 115.99 111.95C116.626 112.382 117.262 112.788 117.924 113.22L149.161 103.418C149.263 103.393 149.339 103.418 149.39 103.495L149.441 103.571C149.492 103.622 149.517 103.698 149.568 103.749C149.975 104.307 150.407 104.917 150.916 105.653C151.628 106.669 152.315 107.735 153.002 108.776C154.783 111.519 156.487 114.363 158.09 117.207C158.115 117.258 158.115 117.334 158.115 117.385C158.09 117.435 158.064 117.486 157.988 117.512C154.808 118.908 151.527 120.254 148.245 121.524C146.083 122.362 141.784 124.012 137.154 125.612L136.493 125.84C133.67 126.805 131.228 127.643 129.04 128.38C122.452 130.64 118.153 131.884 115.329 131.884Z" fill="black"/>
<path d="M41.662 150.522C41.6366 150.522 41.6366 150.522 41.6112 150.522C41.6112 150.522 41.5857 150.522 41.5603 150.522C38.4315 149.888 35.8623 148.643 33.9036 146.79C31.894 144.885 30.3678 142.219 29.3757 138.892C27.0864 131.224 27.8749 120.914 31.487 111.29C35.4807 100.625 42.2725 92.4995 50.5652 88.4112C51.7353 87.8271 52.9563 87.3193 54.2282 86.8876C54.3554 86.8368 54.508 86.9384 54.508 87.0907C54.508 87.1923 54.4317 87.2685 54.3554 87.2939C53.1089 87.7256 51.8879 88.2334 50.7432 88.7921C42.5269 92.8296 35.8369 100.854 31.8686 111.417C28.3074 120.94 27.5188 131.148 29.7573 138.74C30.7239 142.016 32.2247 144.606 34.1834 146.46C36.0912 148.262 38.5841 149.481 41.6366 150.091C41.6366 150.091 41.662 150.091 41.6875 150.091C41.8147 150.116 41.891 150.243 41.8655 150.345C41.8401 150.472 41.7384 150.522 41.662 150.522Z" fill="black"/>
<path d="M80.4289 82.2407C80.1237 83.9166 79.8184 85.5925 79.5132 87.2685C79.1062 87.1161 78.6992 86.9892 78.2922 86.8622C77.6053 86.6336 65.955 83.1294 54.3046 87.0907C53.6941 86.0496 53.109 85.0339 52.4985 83.9928L71.9328 82.7739L73.8915 82.6469L75.6467 82.5454L80.4289 82.2407Z" fill="#FF735A"/>
<path d="M86.1522 164.311C86.1267 164.311 86.1267 164.311 86.1522 164.311C85.9995 164.285 85.9232 164.184 85.9487 164.082L90.6037 120.711C90.6292 120.584 90.7309 120.508 90.8327 120.508C90.9599 120.508 91.0362 120.635 91.0362 120.736L86.3811 164.108C86.3557 164.235 86.2539 164.311 86.1522 164.311Z" fill="black"/>
<path d="M129.04 128.227C121.561 130.716 117.237 131.909 114.54 131.655C110.343 131.224 106.604 129.649 101.618 126.983C107.113 124.774 118.534 121.549 128.429 127.846C128.607 127.948 128.811 128.075 129.04 128.227Z" fill="#FF735A"/>
<path fill-rule="evenodd" clip-rule="evenodd" d="M119.628 52.3785C120.747 51.7183 122.248 50.9819 124.105 50.3217L139.24 49.7122C139.444 49.7376 139.724 49.7884 140.054 49.8646C140.054 49.8646 140.767 50.017 141.53 50.2455C142.318 50.474 144.048 51.1343 146.287 52.15C146.516 52.2515 146.77 52.3785 146.999 52.5055C147.253 52.6324 147.533 52.7848 147.813 52.9372C147.9 52.9924 147.987 53.0452 148.072 53.0971C148.262 53.2121 148.444 53.3225 148.601 53.445C148.517 53.6133 148.38 53.8512 148.22 54.13C148.187 54.1878 148.153 54.2473 148.118 54.3084C145.32 59.1077 141.784 62.2056 139.622 63.8308C135.959 66.5732 132.398 68.0714 129.854 68.9093C129.778 68.884 129.701 68.8586 129.625 68.8586C129.422 68.8586 129.243 68.9601 129.167 69.1379C129.104 69.1633 129.04 69.1823 128.976 69.2014C128.913 69.2204 128.849 69.2395 128.786 69.2649C128.709 69.1252 128.639 68.9855 128.573 68.8522C128.506 68.7189 128.442 68.5919 128.379 68.4777C128.328 68.3761 128.251 68.2237 128.15 68.046C128.022 67.8175 127.819 67.5635 127.59 67.4366C127.488 67.3604 127.387 67.335 127.285 67.335C127.285 67.335 126.929 67.335 126.623 67.6651C126.471 67.8428 126.318 68.2745 126.98 69.7981C125.962 70.052 125.072 70.2298 124.334 70.3568C124.258 70.1536 124.054 70.0266 123.851 70.0266C123.622 70.0266 123.393 70.2044 123.342 70.4329C122.96 70.5091 122.579 70.5599 122.172 70.6107C120.9 70.763 119.73 70.7884 118.661 70.763C118.496 70.7503 118.337 70.744 118.178 70.7376C118.019 70.7313 117.86 70.7249 117.695 70.7123C112.862 70.4329 108.715 69.1379 105.51 67.6651L105.51 67.665C105.943 66.9033 106.375 66.1415 106.858 65.3797C106.986 65.1512 107.138 64.9227 107.291 64.6941C107.978 63.6276 108.715 62.5865 109.504 61.5708L110.114 60.809C110.7 60.0726 111.335 59.3362 111.997 58.6252L111.997 58.6252C112.2 58.3966 112.404 58.1681 112.633 57.9396C113.37 57.1778 114.159 56.4414 114.948 55.7558C115.024 55.6796 115.38 55.3749 115.762 55.0702C115.783 55.0533 115.805 55.0357 115.827 55.0176C116.488 54.4897 117.808 53.4341 119.628 52.3785ZM121.154 61.5708C120.925 61.4184 120.696 61.2407 120.493 61.0629L121.154 61.5708Z" fill="#FF735A"/>
<path d="M124.105 50.3217L124.095 50.0719C124.07 50.0729 124.045 50.0777 124.021 50.0861L124.105 50.3217ZM119.628 52.3785L119.754 52.5948L119.755 52.5938L119.628 52.3785ZM139.24 49.7122L139.271 49.4642C139.258 49.4625 139.244 49.4619 139.23 49.4625L139.24 49.7122ZM140.054 49.8646L139.998 50.1083L140.002 50.1091L140.054 49.8646ZM141.53 50.2455L141.458 50.485L141.46 50.4856L141.53 50.2455ZM146.287 52.15L146.183 52.3776L146.185 52.3785L146.287 52.15ZM146.999 52.5055L146.877 52.7243L146.887 52.7292L146.999 52.5055ZM147.813 52.9372L147.947 52.7261C147.942 52.7231 147.937 52.7203 147.932 52.7176L147.813 52.9372ZM148.072 53.0971L147.943 53.3108V53.3108L148.072 53.0971ZM148.601 53.445L148.825 53.557C148.878 53.4503 148.849 53.3207 148.755 53.2475L148.601 53.445ZM148.22 54.13L148.437 54.2545V54.2545L148.22 54.13ZM148.118 54.3084L148.334 54.4343L148.335 54.4326L148.118 54.3084ZM139.622 63.8308L139.772 64.0309L139.772 64.0306L139.622 63.8308ZM129.854 68.9093L129.775 69.1466C129.826 69.1635 129.881 69.1636 129.932 69.1468L129.854 68.9093ZM129.167 69.1379L129.26 69.3701C129.321 69.3455 129.371 69.2974 129.397 69.2365L129.167 69.1379ZM128.976 69.2014L129.048 69.4409L129.048 69.4409L128.976 69.2014ZM128.786 69.2649L128.566 69.3847C128.627 69.4957 128.761 69.5439 128.878 69.497L128.786 69.2649ZM128.573 68.8522L128.796 68.7403V68.7403L128.573 68.8522ZM128.379 68.4777L128.155 68.5897L128.16 68.5992L128.379 68.4777ZM128.15 68.046L127.931 68.1676L127.933 68.1702L128.15 68.046ZM127.59 67.4366L127.44 67.6367C127.449 67.6435 127.459 67.6497 127.469 67.6552L127.59 67.4366ZM127.285 67.335V67.085H127.285L127.285 67.335ZM126.623 67.6651L126.44 67.4952L126.434 67.5022L126.623 67.6651ZM126.98 69.7981L127.04 70.0407C127.111 70.0229 127.171 69.9746 127.204 69.9087C127.236 69.8428 127.238 69.766 127.209 69.6986L126.98 69.7981ZM124.334 70.3568L124.1 70.4447C124.142 70.557 124.258 70.6235 124.376 70.6031L124.334 70.3568ZM123.342 70.4329L123.391 70.6781C123.488 70.6587 123.564 70.5839 123.586 70.4873L123.342 70.4329ZM122.172 70.6107L122.202 70.8589L122.203 70.8588L122.172 70.6107ZM118.661 70.763L118.642 71.0127L118.656 71.013L118.661 70.763ZM118.178 70.7376L118.188 70.4878H118.188L118.178 70.7376ZM117.695 70.7123L117.714 70.4629L117.709 70.4627L117.695 70.7123ZM105.51 67.6651L105.293 67.542C105.258 67.6028 105.251 67.6754 105.272 67.742C105.294 67.8085 105.342 67.863 105.406 67.8923L105.51 67.6651ZM105.51 67.665L105.293 67.5416L105.293 67.5419L105.51 67.665ZM106.858 65.3797L107.07 65.5137C107.072 65.5096 107.075 65.5055 107.077 65.5013L106.858 65.3797ZM107.291 64.6941L107.499 64.833L107.501 64.8295L107.291 64.6941ZM109.504 61.5708L109.309 61.4144L109.306 61.4175L109.504 61.5708ZM110.114 60.809L110.31 60.9653L110.31 60.9645L110.114 60.809ZM111.997 58.6252L112.18 58.7955L112.185 58.7898L111.997 58.6252ZM111.997 58.6252L111.81 58.4589L111.809 58.4605L111.997 58.6252ZM112.633 57.9396L112.809 58.1165L112.812 58.1135L112.633 57.9396ZM114.948 55.7558L115.112 55.9444C115.116 55.9407 115.12 55.9368 115.124 55.9327L114.948 55.7558ZM115.762 55.0702L115.606 54.8748L115.606 54.8748L115.762 55.0702ZM115.827 55.0176L115.983 55.2129L115.983 55.2129L115.827 55.0176ZM121.154 61.5708L121.016 61.7789C121.128 61.8536 121.279 61.8259 121.358 61.7162C121.436 61.6066 121.413 61.4546 121.307 61.3725L121.154 61.5708ZM120.493 61.0629L120.645 60.8646C120.538 60.7824 120.385 60.8 120.3 60.9045C120.214 61.0089 120.227 61.1624 120.328 61.2512L120.493 61.0629ZM124.021 50.0861C122.149 50.7517 120.634 51.4948 119.501 52.1632L119.755 52.5938C120.861 51.9418 122.347 51.2121 124.189 50.5572L124.021 50.0861ZM139.23 49.4625L124.095 50.0719L124.115 50.5715L139.25 49.962L139.23 49.4625ZM140.111 49.621C139.774 49.5436 139.486 49.4909 139.271 49.4642L139.209 49.9603C139.402 49.9843 139.673 50.0333 139.998 50.1082L140.111 49.621ZM141.601 50.006C141.214 49.8901 140.841 49.7938 140.565 49.7265C140.427 49.6928 140.313 49.6663 140.233 49.6482C140.193 49.6391 140.162 49.6322 140.14 49.6274C140.129 49.6251 140.121 49.6233 140.116 49.6221C140.113 49.6214 140.111 49.621 140.109 49.6207C140.108 49.6205 140.108 49.6204 140.107 49.6203C140.107 49.6202 140.107 49.6202 140.107 49.6202C140.107 49.6202 140.107 49.6202 140.107 49.6202C140.107 49.6202 140.107 49.6201 140.107 49.6201C140.107 49.6201 140.107 49.6201 140.054 49.8646C140.002 50.1091 140.002 50.1091 140.002 50.1091C140.002 50.1091 140.002 50.1091 140.002 50.1091C140.002 50.1091 140.002 50.1091 140.002 50.1091C140.002 50.1091 140.002 50.1091 140.002 50.1092C140.003 50.1092 140.003 50.1093 140.004 50.1094C140.005 50.1097 140.007 50.1101 140.01 50.1107C140.015 50.1118 140.023 50.1135 140.033 50.1158C140.053 50.1203 140.083 50.127 140.122 50.1358C140.2 50.1534 140.311 50.1793 140.447 50.2122C140.718 50.2783 141.082 50.3724 141.458 50.485L141.601 50.006ZM146.39 51.9223C144.148 50.9052 142.406 50.239 141.599 50.0054L141.46 50.4856C142.231 50.7091 143.948 51.3633 146.183 52.3776L146.39 51.9223ZM147.12 52.2868C146.885 52.1565 146.624 52.0262 146.388 51.9215L146.185 52.3785C146.407 52.4769 146.655 52.6006 146.878 52.7241L147.12 52.2868ZM147.932 52.7176C147.654 52.5658 147.37 52.4111 147.11 52.2818L146.887 52.7292C147.137 52.8538 147.412 53.0038 147.693 53.1567L147.932 52.7176ZM148.202 52.8834C148.116 52.8313 148.031 52.7798 147.947 52.7261L147.679 53.1482C147.768 53.205 147.857 53.2591 147.943 53.3108L148.202 52.8834ZM148.755 53.2475C148.584 53.1146 148.389 52.9967 148.202 52.8834L147.943 53.3108C148.135 53.4275 148.304 53.5304 148.448 53.6425L148.755 53.2475ZM148.437 54.2545C148.596 53.9786 148.737 53.7332 148.825 53.557L148.378 53.3331C148.298 53.4934 148.165 53.7238 148.004 54.0055L148.437 54.2545ZM148.335 54.4326C148.37 54.3717 148.404 54.3123 148.437 54.2545L148.004 54.0055C147.97 54.0633 147.936 54.123 147.901 54.1842L148.335 54.4326ZM139.772 64.0306C141.951 62.3931 145.514 59.2716 148.334 54.4343L147.902 54.1825C145.126 58.9437 141.617 62.0181 139.472 63.6309L139.772 64.0306ZM129.932 69.1468C132.494 68.3028 136.082 66.7937 139.772 64.0309L139.472 63.6306C135.836 66.3527 132.301 67.8399 129.776 68.6719L129.932 69.1468ZM129.625 69.1086C129.654 69.1086 129.69 69.1184 129.775 69.1466L129.933 68.6721C129.865 68.6495 129.749 68.6086 129.625 68.6086V69.1086ZM129.397 69.2365C129.427 69.1659 129.504 69.1086 129.625 69.1086V68.6086C129.339 68.6086 129.06 68.7544 128.937 69.0393L129.397 69.2365ZM129.048 69.4409C129.11 69.4223 129.184 69.4002 129.26 69.3701L129.074 68.9057C129.023 68.9263 128.97 68.9424 128.905 68.9619L129.048 69.4409ZM128.878 69.497C128.93 69.4764 128.983 69.4604 129.048 69.4409L128.905 68.9619C128.843 68.9805 128.768 69.0025 128.693 69.0327L128.878 69.497ZM128.349 68.9642C128.415 69.0969 128.487 69.2405 128.566 69.3847L129.005 69.145C128.931 69.0099 128.863 68.8741 128.796 68.7403L128.349 68.9642ZM128.16 68.5992C128.221 68.7079 128.282 68.8297 128.349 68.9642L128.796 68.7403C128.73 68.6081 128.664 68.476 128.597 68.3561L128.16 68.5992ZM127.933 68.1702C128.031 68.3415 128.104 68.4885 128.155 68.5896L128.602 68.3657C128.551 68.2637 128.472 68.106 128.367 67.9218L127.933 68.1702ZM127.469 67.6552C127.64 67.7502 127.815 67.9589 127.931 68.1676L128.368 67.9244C128.23 67.676 127.998 67.3769 127.711 67.2179L127.469 67.6552ZM127.285 67.585C127.339 67.585 127.387 67.5968 127.44 67.6367L127.74 67.2364C127.59 67.124 127.434 67.085 127.285 67.085V67.585ZM126.807 67.8348C126.925 67.7067 127.051 67.6446 127.146 67.614C127.193 67.5987 127.232 67.5913 127.258 67.5879C127.271 67.5862 127.28 67.5854 127.284 67.5851C127.287 67.585 127.288 67.585 127.288 67.585C127.288 67.5849 127.288 67.585 127.287 67.585C127.287 67.585 127.287 67.585 127.286 67.585C127.286 67.585 127.286 67.585 127.286 67.585C127.285 67.585 127.285 67.585 127.285 67.585C127.285 67.585 127.285 67.585 127.285 67.585C127.285 67.585 127.285 67.585 127.285 67.335C127.285 67.085 127.285 67.085 127.285 67.085C127.284 67.085 127.284 67.085 127.284 67.085C127.284 67.085 127.284 67.085 127.284 67.085C127.283 67.085 127.283 67.085 127.283 67.085C127.282 67.085 127.281 67.085 127.28 67.085C127.278 67.0851 127.276 67.0851 127.273 67.0852C127.268 67.0853 127.261 67.0856 127.253 67.0861C127.237 67.0871 127.216 67.089 127.191 67.0924C127.14 67.0993 127.071 67.1126 126.991 67.1385C126.831 67.1904 126.627 67.2934 126.44 67.4954L126.807 67.8348ZM127.209 69.6986C126.882 68.9467 126.768 68.4874 126.745 68.2071C126.724 67.9388 126.789 67.8565 126.813 67.828L126.434 67.5022C126.306 67.6515 126.217 67.8739 126.247 68.2467C126.276 68.6076 126.415 69.1259 126.75 69.8977L127.209 69.6986ZM124.376 70.6031C125.119 70.4752 126.016 70.2963 127.04 70.0407L126.919 69.5555C125.908 69.8078 125.024 69.9843 124.292 70.1104L124.376 70.6031ZM123.851 70.2766C123.958 70.2766 124.063 70.346 124.1 70.4447L124.568 70.2688C124.452 69.9612 124.151 69.7766 123.851 69.7766V70.2766ZM123.586 70.4873C123.611 70.3756 123.736 70.2766 123.851 70.2766V69.7766C123.507 69.7766 123.175 70.0331 123.098 70.3786L123.586 70.4873ZM122.203 70.8588C122.61 70.8079 123 70.7562 123.391 70.6781L123.293 70.1878C122.921 70.262 122.548 70.3119 122.141 70.3626L122.203 70.8588ZM118.656 71.013C119.732 71.0386 120.915 71.013 122.202 70.8589L122.142 70.3625C120.885 70.513 119.727 70.5383 118.667 70.5131L118.656 71.013ZM118.168 70.9874C118.328 70.9938 118.482 71 118.642 71.0123L118.681 70.5138C118.51 70.5007 118.346 70.4942 118.188 70.4878L118.168 70.9874ZM117.676 70.9615C117.846 70.9746 118.01 70.9811 118.168 70.9874L118.188 70.4878C118.028 70.4815 117.874 70.4753 117.714 70.463L117.676 70.9615ZM105.406 67.8923C108.634 69.3758 112.811 70.6804 117.68 70.9618L117.709 70.4627C112.912 70.1854 108.796 68.9 105.615 67.4379L105.406 67.8923ZM105.293 67.5419L105.293 67.542L105.728 67.7882L105.728 67.7882L105.293 67.5419ZM106.647 65.2458C106.16 66.0136 105.725 66.7806 105.293 67.5416L105.728 67.7885C106.161 67.0259 106.59 66.2694 107.07 65.5137L106.647 65.2458ZM107.083 64.5553C106.932 64.7821 106.773 65.0192 106.64 65.2582L107.077 65.5013C107.198 65.2832 107.345 65.0632 107.499 64.833L107.083 64.5553ZM109.306 61.4175C108.513 62.4389 107.772 63.486 107.081 64.5588L107.501 64.8295C108.184 63.7692 108.917 62.7341 109.701 61.7241L109.306 61.4175ZM109.919 60.6526L109.309 61.4144L109.699 61.7271L110.31 60.9653L109.919 60.6526ZM111.814 58.4549C111.148 59.1703 110.508 59.9117 109.919 60.6535L110.31 60.9645C110.891 60.2335 111.523 59.502 112.18 58.7955L111.814 58.4549ZM111.809 58.4605L111.809 58.4606L112.185 58.7898L112.185 58.7898L111.809 58.4605ZM112.456 57.7626C112.221 57.9972 112.013 58.2311 111.81 58.4589L112.184 58.7914C112.388 58.5622 112.586 58.3391 112.809 58.1165L112.456 57.7626ZM114.784 55.5671C113.991 56.2566 113.197 56.9979 112.453 57.7657L112.812 58.1135C113.544 57.3577 114.327 56.6262 115.112 55.9444L114.784 55.5671ZM115.606 54.8748C115.225 55.1783 114.859 55.4914 114.771 55.5789L115.124 55.9327C115.189 55.8678 115.535 55.5714 115.918 55.2655L115.606 54.8748ZM115.671 54.8223C115.649 54.8405 115.627 54.858 115.606 54.8748L115.918 55.2655C115.939 55.2486 115.961 55.231 115.983 55.2129L115.671 54.8223ZM119.503 52.1623C117.666 53.2276 116.334 54.2928 115.671 54.8223L115.983 55.2129C116.642 54.6866 117.95 53.6406 119.754 52.5948L119.503 52.1623ZM121.293 61.3627C121.074 61.217 120.854 61.046 120.657 60.8746L120.328 61.2512C120.539 61.4353 120.777 61.6198 121.016 61.7789L121.293 61.3627ZM120.341 61.2612L121.002 61.7691L121.307 61.3725L120.645 60.8646L120.341 61.2612Z" fill="black"/>
<path d="M115.864 55.3749C115.864 55.6542 115.635 55.9081 115.329 55.9081C115.177 55.9081 115.05 55.8574 114.948 55.7558C115.202 55.5272 115.482 55.2987 115.762 55.0702C115.813 55.1464 115.864 55.2479 115.864 55.3749Z" fill="black"/>
<path d="M113.015 58.422C113.015 58.7014 112.786 58.9553 112.48 58.9553C112.251 58.9553 112.048 58.8029 111.997 58.5998C112.201 58.3713 112.43 58.1427 112.633 57.9142C112.862 57.9904 113.015 58.1935 113.015 58.422Z" fill="black"/>
<path d="M118.178 58.9553C118.473 58.9553 118.712 58.7166 118.712 58.422C118.712 58.1275 118.473 57.8888 118.178 57.8888C117.883 57.8888 117.644 58.1275 117.644 58.422C117.644 58.7166 117.883 58.9553 118.178 58.9553Z" fill="black"/>
<path d="M110.166 61.0629C110.166 61.3422 109.937 61.5962 109.631 61.5962C109.581 61.5962 109.53 61.5962 109.479 61.5708C109.682 61.3169 109.886 61.0629 110.089 60.809C110.14 60.8852 110.166 60.9613 110.166 61.0629Z" fill="black"/>
<path d="M115.329 61.5962C115.624 61.5962 115.864 61.3574 115.864 61.0629C115.864 60.7684 115.624 60.5297 115.329 60.5297C115.034 60.5297 114.795 60.7684 114.795 61.0629C114.795 61.3574 115.034 61.5962 115.329 61.5962Z" fill="black"/>
<path d="M121.154 61.5708C121.103 61.5708 121.053 61.5962 121.002 61.5962C120.722 61.5962 120.468 61.3676 120.468 61.0629C120.696 61.2407 120.925 61.4184 121.154 61.5708Z" fill="black"/>
<path d="M138.528 49.9916C138.528 50.2201 138.401 50.3979 138.198 50.474C138.299 50.2201 138.401 49.9916 138.477 49.763C138.503 49.8392 138.528 49.9154 138.528 49.9916Z" fill="black"/>
<path d="M140.843 53.1403C141.138 53.1403 141.377 52.9016 141.377 52.607C141.377 52.3125 141.138 52.0738 140.843 52.0738C140.548 52.0738 140.309 52.3125 140.309 52.607C140.309 52.9016 140.548 53.1403 140.843 53.1403Z" fill="black"/>
<path d="M147.05 52.6071C147.05 52.8864 146.821 53.1403 146.516 53.1403C146.21 53.1403 145.981 52.9118 145.981 52.6071C145.981 52.3785 146.109 52.2008 146.312 52.1246C146.541 52.2516 146.795 52.3785 147.024 52.4801C147.05 52.5309 147.05 52.5817 147.05 52.6071Z" fill="black"/>
<path d="M137.994 56.2129C138.289 56.2129 138.528 55.9741 138.528 55.6796C138.528 55.3851 138.289 55.1463 137.994 55.1463C137.699 55.1463 137.46 55.3851 137.46 55.6796C137.46 55.9741 137.699 56.2129 137.994 56.2129Z" fill="black"/>
<path d="M143.692 56.2129C143.987 56.2129 144.226 55.9741 144.226 55.6796C144.226 55.3851 143.987 55.1463 143.692 55.1463C143.397 55.1463 143.158 55.3851 143.158 55.6796C143.158 55.9741 143.397 56.2129 143.692 56.2129Z" fill="black"/>
<path d="M135.145 58.8283C135.44 58.8283 135.679 58.5896 135.679 58.2951C135.679 58.0006 135.44 57.7618 135.145 57.7618C134.85 57.7618 134.611 58.0006 134.611 58.2951C134.611 58.5896 134.85 58.8283 135.145 58.8283Z" fill="black"/>
<path d="M140.843 58.8283C141.138 58.8283 141.377 58.5896 141.377 58.2951C141.377 58.0006 141.138 57.7618 140.843 57.7618C140.548 57.7618 140.309 58.0006 140.309 58.2951C140.309 58.5896 140.548 58.8283 140.843 58.8283Z" fill="black"/>
<path d="M132.525 61.6216C132.82 61.6216 133.059 61.3828 133.059 61.0883C133.059 60.7938 132.82 60.5551 132.525 60.5551C132.23 60.5551 131.991 60.7938 131.991 61.0883C131.991 61.3828 132.23 61.6216 132.525 61.6216Z" fill="black"/>
<path d="M138.198 61.6216C138.493 61.6216 138.732 61.3828 138.732 61.0883C138.732 60.7938 138.493 60.5551 138.198 60.5551C137.902 60.5551 137.663 60.7938 137.663 61.0883C137.663 61.3828 137.902 61.6216 138.198 61.6216Z" fill="black"/>
<path d="M129.676 64.2624C129.971 64.2624 130.21 64.0237 130.21 63.7292C130.21 63.4347 129.971 63.1959 129.676 63.1959C129.381 63.1959 129.142 63.4347 129.142 63.7292C129.142 64.0237 129.381 64.2624 129.676 64.2624Z" fill="black"/>
<path d="M135.374 64.2624C135.669 64.2624 135.908 64.0237 135.908 63.7292C135.908 63.4347 135.669 63.1959 135.374 63.1959C135.079 63.1959 134.84 63.4347 134.84 63.7292C134.84 64.0237 135.079 64.2624 135.374 64.2624Z" fill="black"/>
<path d="M107.317 64.8465C107.317 65.1258 107.113 65.3289 106.859 65.3543C107.011 65.1258 107.138 64.8973 107.291 64.6687C107.317 64.7449 107.317 64.7957 107.317 64.8465Z" fill="black"/>
<path d="M112.48 65.3797C112.775 65.3797 113.014 65.141 113.014 64.8465C113.014 64.552 112.775 64.3132 112.48 64.3132C112.185 64.3132 111.946 64.552 111.946 64.8465C111.946 65.141 112.185 65.3797 112.48 65.3797Z" fill="black"/>
<path d="M118.178 65.3797C118.473 65.3797 118.712 65.141 118.712 64.8465C118.712 64.552 118.473 64.3132 118.178 64.3132C117.883 64.3132 117.644 64.552 117.644 64.8465C117.644 65.141 117.883 65.3797 118.178 65.3797Z" fill="black"/>
<path d="M109.631 68.0206C109.926 68.0206 110.166 67.7818 110.166 67.4873C110.166 67.1928 109.926 66.9541 109.631 66.9541C109.336 66.9541 109.097 67.1928 109.097 67.4873C109.097 67.7818 109.336 68.0206 109.631 68.0206Z" fill="black"/>
<path d="M115.329 68.0206C115.624 68.0206 115.864 67.7818 115.864 67.4873C115.864 67.1928 115.624 66.9541 115.329 66.9541C115.034 66.9541 114.795 67.1928 114.795 67.4873C114.795 67.7818 115.034 68.0206 115.329 68.0206Z" fill="black"/>
<path d="M121.027 68.0206C121.322 68.0206 121.562 67.7818 121.562 67.4873C121.562 67.1928 121.322 66.9541 121.027 66.9541C120.732 66.9541 120.493 67.1928 120.493 67.4873C120.493 67.7818 120.732 68.0206 121.027 68.0206Z" fill="black"/>
<path d="M123.851 65.3797C124.146 65.3797 124.385 65.141 124.385 64.8465C124.385 64.552 124.146 64.3132 123.851 64.3132C123.556 64.3132 123.317 64.552 123.317 64.8465C123.317 65.141 123.556 65.3797 123.851 65.3797Z" fill="black"/>
<path d="M118.687 70.5345C118.687 70.6107 118.662 70.6869 118.636 70.763C118.305 70.763 117.975 70.7376 117.669 70.7123C117.644 70.6615 117.644 70.5853 117.644 70.5345C117.644 70.2552 117.873 70.0013 118.178 70.0013C118.458 70.0266 118.687 70.2552 118.687 70.5345Z" fill="black"/>
<path d="M124.614 62.6881C123.24 62.6881 122.019 62.358 121.027 61.7231C120.773 61.5708 120.544 61.393 120.34 61.1899C119.577 60.5043 118.941 59.5647 118.484 58.422V58.3966L118.407 58.1935C118.407 58.1935 118.407 58.1935 118.407 58.1681C117.924 56.8477 117.67 55.2733 117.619 53.4958C117.619 53.3688 117.72 53.2673 117.822 53.2673C117.949 53.2673 118.026 53.3688 118.026 53.4704C118.077 55.1971 118.331 56.7207 118.789 58.0157L118.865 58.2443V58.2697C119.298 59.3362 119.883 60.2249 120.595 60.8598C120.798 61.0375 121.002 61.1899 121.231 61.3422C122.401 62.104 123.927 62.3833 125.733 62.1548C132.423 61.3422 136.264 54.4353 137.969 50.3725C137.969 50.3725 137.969 50.3725 137.969 50.3471C138.07 50.0931 138.172 49.8646 138.248 49.6615C138.274 49.6361 138.274 49.6107 138.274 49.5853L138.325 49.4583C138.35 49.4075 138.35 49.3567 138.376 49.3313C138.427 49.2298 138.528 49.1536 138.655 49.2044C138.757 49.2552 138.834 49.3567 138.783 49.4837C138.757 49.5345 138.757 49.5853 138.732 49.6361L138.681 49.7376C138.681 49.763 138.655 49.7884 138.655 49.8138C138.579 50.017 138.477 50.2455 138.376 50.4994C138.376 50.4994 138.376 50.4994 138.376 50.5248C136.646 54.6893 132.729 61.7739 125.81 62.5865C125.403 62.6881 124.996 62.6881 124.614 62.6881Z" fill="black"/>
<path d="M120.925 74.0895C120.875 74.0641 121.205 72.8707 121.307 71.9819C121.358 71.5248 121.383 71.0931 121.383 71.0931C121.383 70.9916 121.383 70.89 121.383 70.7884C121.638 70.763 121.892 70.763 122.172 70.7376C122.197 70.7376 122.223 70.7376 122.274 70.7376C121.994 71.7534 120.925 74.0895 120.925 74.0895Z" fill="black"/>
<path fill-rule="evenodd" clip-rule="evenodd" d="M120.874 74.2926L120.951 74.318H121.027C121.205 74.2165 122.299 71.474 122.477 70.8138L122.553 70.5091L122.146 70.5345C122.019 70.5472 121.892 70.5535 121.765 70.5599C121.638 70.5662 121.51 70.5726 121.383 70.5853H121.18V70.7884V71.0677C121.18 71.0931 121.154 71.5248 121.103 71.9565C121.027 72.4136 120.925 72.9976 120.824 73.4039C120.671 74.1149 120.646 74.2419 120.874 74.2926ZM121.612 71.0677V70.9662C121.739 70.9662 121.867 70.9662 121.994 70.9408C121.905 71.2075 121.778 71.524 121.649 71.8468C121.594 71.9849 121.538 72.1242 121.485 72.2612C121.489 72.2438 121.494 72.2271 121.498 72.2109C121.518 72.1328 121.536 72.066 121.536 71.9819C121.587 71.5248 121.612 71.0931 121.612 71.0677Z" fill="black"/>
<path d="M124.792 70.3314C124.665 70.7123 124.461 71.2709 124.207 71.9819C123.774 73.2516 123.545 73.8864 123.52 73.8864C123.494 73.8864 123.622 73.3785 123.774 72.6675C123.978 71.7534 124.13 70.9916 124.207 70.4329C124.385 70.4075 124.588 70.3821 124.792 70.3314Z" fill="black"/>
<path fill-rule="evenodd" clip-rule="evenodd" d="M123.469 74.0895C123.52 74.1149 123.545 74.1149 123.571 74.1149C123.698 74.1149 123.774 73.9118 124.13 72.8707L124.41 72.0581C124.47 71.8914 124.527 71.7331 124.58 71.5835C124.756 71.0949 124.898 70.6991 124.995 70.4075L125.122 70.052L124.741 70.1282C124.63 70.1421 124.526 70.1636 124.426 70.1844C124.343 70.2016 124.262 70.2183 124.181 70.2298L124.029 70.2552L124.003 70.4075C123.985 70.5069 123.968 70.6072 123.95 70.7084C123.84 71.331 123.724 71.9832 123.571 72.6167C123.552 72.703 123.536 72.782 123.521 72.8566C123.497 72.9795 123.475 73.0901 123.444 73.2008L123.442 73.2087C123.265 73.9379 123.241 74.0389 123.469 74.0895ZM124.385 70.763C124.391 70.7186 124.398 70.6742 124.41 70.6361C124.41 70.6361 124.436 70.6107 124.461 70.6361C124.418 70.7 124.394 70.764 124.372 70.843C124.377 70.8173 124.381 70.7902 124.385 70.763ZM124.359 70.89C124.363 70.8737 124.368 70.8581 124.372 70.843C124.368 70.8594 124.364 70.8752 124.359 70.89Z" fill="black"/>
<path d="M127.31 70.4837C127.234 70.6615 127.183 70.8392 127.107 71.017C127.03 70.9408 126.929 70.8646 126.827 70.7884C126.903 70.5091 126.98 70.2298 127.056 69.9505C127.132 70.1028 127.208 70.2806 127.31 70.4837Z" fill="black"/>
<path d="M127.183 71.3725L126.954 71.1693C126.878 71.0931 126.776 71.017 126.674 70.9408L126.547 70.8392L126.598 70.6869C126.674 70.4075 126.751 70.1282 126.827 69.8489L126.98 69.2648L127.234 69.8235C127.31 70.0012 127.387 70.179 127.488 70.3567L127.539 70.4329L127.514 70.5091C127.463 70.6107 127.437 70.7376 127.387 70.8392L127.183 71.3725Z" fill="black"/>
<path d="M129.956 70.5599C129.854 70.6361 129.778 70.7376 129.701 70.8138C129.599 70.6361 129.498 70.4583 129.396 70.2806C129.447 70.0774 129.523 69.8743 129.549 69.6965C129.676 70.0012 129.803 70.2806 129.956 70.5599Z" fill="black"/>
<path d="M129.676 71.1947L129.396 70.7376C129.32 70.6107 129.269 70.5091 129.192 70.4075L129.142 70.3314L129.167 70.2298C129.218 70.0266 129.269 69.8489 129.32 69.6711L129.472 69.0871L129.727 69.6457C129.854 69.9251 129.981 70.2044 130.108 70.4837L130.185 70.6361L130.083 70.7376C129.981 70.8392 129.905 70.9154 129.854 70.9916L129.676 71.1947Z" fill="black"/>
<path d="M133.619 72.9722C132.627 71.1693 131.787 69.6711 131.202 68.5285C131.431 68.4523 131.66 68.3507 131.889 68.2745C132.55 70.2552 133.492 72.6421 133.619 72.9722Z" fill="black"/>
<path fill-rule="evenodd" clip-rule="evenodd" d="M131.024 68.63C131.584 69.7219 132.372 71.1693 133.441 73.0738L133.848 72.9214C133.72 72.6421 132.779 70.2044 132.118 68.2237L132.042 67.9952L131.838 68.0714C131.724 68.1095 131.609 68.1539 131.495 68.1983C131.38 68.2428 131.266 68.2872 131.151 68.3253L130.922 68.4015L131.024 68.63ZM132.347 70.2044C132.016 69.6203 131.736 69.1125 131.507 68.6554C131.546 68.6427 131.59 68.6237 131.635 68.6046C131.679 68.5856 131.724 68.5665 131.762 68.5538C131.94 69.0871 132.143 69.6711 132.347 70.2044Z" fill="black"/>
<path d="M168.315 80.7425C167.527 83.7388 165.568 85.3894 165.568 85.3894C162.465 87.9795 158.242 87.2685 157.25 87.0653C157.581 88.2842 157.937 89.5538 158.369 90.8489C158.827 92.2709 159.311 93.6167 159.819 94.9118C159.641 95.2673 159.463 95.6228 159.285 95.9529C158.649 97.1463 157.759 98.5684 156.411 100.117L156.385 100.143C156.08 100.498 155.749 100.854 155.393 101.235C155.368 101.26 155.368 101.285 155.342 101.285C155.368 101.26 155.368 101.209 155.393 101.184C156.131 99.8634 156.512 98.7207 156.741 97.8827C157.276 95.8513 156.919 95.2927 156.741 95.0895C156.691 95.0387 156.36 94.6578 155.902 94.6324C155.19 94.5817 154.605 95.3942 153.918 96.6639C153.46 97.4765 152.951 98.5176 152.315 99.6349C152.264 99.711 152.214 99.7872 152.188 99.8888C151.832 100.498 151.374 101.26 150.789 102.123C150.433 102.682 150 103.266 149.517 103.901C149.466 103.825 149.39 103.723 149.339 103.647C138.884 106.923 128.455 110.198 118 113.499C117.39 113.119 116.703 112.661 115.965 112.179C115.762 112.052 115.558 111.9 115.329 111.773C115.177 111.671 115.049 111.57 114.897 111.493C114.795 111.417 114.693 111.366 114.617 111.29C114.261 111.062 113.905 110.808 113.523 110.554C113.294 110.401 113.065 110.249 112.836 110.097C112.251 109.69 111.641 109.259 111.005 108.802C111.59 104.409 112.175 100.016 112.785 95.6228C105.307 98.9239 102.305 97.0702 101.567 96.5115C100.753 95.9275 100.118 95.0895 99.6851 93.9976C100.779 93.1089 102 91.89 101.771 90.7981C101.746 90.7219 101.669 90.3918 101.44 90.2141C100.957 89.8332 99.9903 90.2141 98.9474 90.8997C98.922 90.6457 98.8965 90.3664 98.8711 90.0871C99.3035 89.6046 99.7614 89.1222 100.219 88.6397C100.474 88.3604 100.804 88.0049 101.033 87.5732C101.262 87.1923 101.364 86.786 101.262 86.3797C101.16 85.9734 100.83 85.6179 100.448 85.5164C100.143 85.4148 99.8377 85.4656 99.507 85.6433C99.3544 85.7195 99.1763 85.8211 99.0237 85.948C99.6597 80.9202 101.796 74.6228 105.536 67.7413C109.148 69.3918 113.905 70.8392 119.526 70.8392C119.399 71.5756 119.272 72.4644 119.043 73.4293C119.018 73.5816 118.967 73.734 118.916 73.9118C118.916 73.9372 118.89 73.9879 118.89 74.0133C118.865 74.0895 118.84 74.1657 118.814 74.2419C118.814 74.2673 118.789 74.2927 118.789 74.318C118.738 74.4704 118.687 74.6228 118.636 74.8005C118.611 74.8767 118.585 74.9529 118.56 75.0291C118.458 75.3592 118.305 75.7401 118.153 76.1209C118.102 76.2733 118.026 76.4003 117.975 76.5526C117.975 76.578 117.975 76.578 117.949 76.6034C117.924 76.6796 117.873 76.7812 117.847 76.8573C117.797 76.9589 117.746 77.0605 117.695 77.1621C117.669 77.2128 117.644 77.2636 117.619 77.3398C117.593 77.3652 117.593 77.416 117.568 77.4414L117.924 77.7969L118.356 78.2286L119.577 79.4982L123.367 83.3833C123.647 82.9771 126.598 78.7618 128.786 75.4861C131.457 78.3555 134.967 81.9867 135.298 82.3168L138.426 77.8731L139.444 76.4257L139.8 75.9178L140.08 75.5115C140.054 75.4861 140.029 75.4607 140.004 75.4099C139.978 75.3592 139.927 75.3084 139.902 75.2576C139.825 75.156 139.775 75.0544 139.698 74.9783C139.647 74.9021 139.597 74.8259 139.546 74.7497L139.52 74.7243C139.444 74.5974 139.342 74.4704 139.266 74.318C139.062 73.9625 138.859 73.6324 138.706 73.3023C138.681 73.2261 138.63 73.1754 138.604 73.0992C138.528 72.9468 138.452 72.7945 138.376 72.6421C138.35 72.6167 138.35 72.5913 138.325 72.5659C138.299 72.4898 138.248 72.4136 138.223 72.3374C138.197 72.312 138.197 72.2612 138.172 72.2358C138.096 72.0835 138.045 71.9311 137.969 71.7787C137.536 70.7376 137.256 69.7473 136.976 68.9855C136.951 68.9601 136.951 68.9093 136.926 68.8839C136.646 68.1222 136.366 67.6143 135.984 67.5635C135.705 67.5381 135.425 67.7413 135.298 67.919C135.094 68.1729 135.069 68.5538 135.17 69.2648C135.221 69.5696 135.247 69.7727 135.272 69.8235C135.628 71.2455 136.188 72.5913 136.112 72.6421C136.086 72.6421 134.992 70.9662 134.509 70.0012C134.077 69.1125 133.746 68.2999 133.517 67.5635C138.63 65.2527 144.379 61.2407 148.144 54.3592C148.322 54.0544 148.474 53.7497 148.627 53.4196C161.702 64.364 169.791 75.1306 168.315 80.7425Z" fill="#009691"/>
<path fill-rule="evenodd" clip-rule="evenodd" d="M117.847 113.677L117.924 113.728L149.212 103.952C149.225 103.977 149.237 103.996 149.25 104.015C149.263 104.034 149.275 104.053 149.288 104.079L149.466 104.333L149.644 104.104C149.772 103.924 149.899 103.747 150.026 103.571C150.329 103.148 150.629 102.731 150.916 102.301C151.425 101.539 151.883 100.778 152.315 100.041C152.341 99.9396 152.391 99.8634 152.442 99.7872C152.798 99.1524 153.129 98.543 153.409 97.9843C153.542 97.7511 153.665 97.5179 153.784 97.2919C153.846 97.1734 153.907 97.0568 153.969 96.9432L154.019 96.8416C154.655 95.6736 155.215 94.8864 155.8 94.9372C156.137 94.9612 156.406 95.2351 156.477 95.3077C156.481 95.3118 156.484 95.3153 156.487 95.3181C156.818 95.6989 156.792 96.5877 156.436 97.9335C156.131 99.0508 155.698 100.143 155.113 101.184L154.325 102.606L155.393 101.539C155.409 101.539 155.415 101.53 155.423 101.516C155.428 101.508 155.434 101.498 155.444 101.489C155.826 101.108 156.156 100.752 156.436 100.422L156.512 100.346C157.657 99.0254 158.624 97.6288 159.387 96.1814C159.488 95.9632 159.6 95.7449 159.716 95.5193C159.775 95.4037 159.835 95.2861 159.896 95.1657L159.946 95.0641V94.9626L159.921 94.9118C159.412 93.5913 158.903 92.2455 158.471 90.8743C158.089 89.7316 157.733 88.5635 157.428 87.4208C159.183 87.7255 162.821 87.9541 165.594 85.6433C165.67 85.5925 167.629 83.942 168.417 80.8948C169.892 75.3338 162.312 64.7957 148.678 53.3942L148.474 53.2165L148.347 53.4704C148.271 53.6228 148.188 53.7751 148.105 53.9275C148.023 54.0798 147.94 54.2322 147.864 54.3846C144.709 60.1488 139.825 64.5671 133.339 67.4873L133.161 67.5635L133.212 67.7413C133.466 68.5792 133.797 69.3918 134.204 70.2044C134.458 70.7122 134.89 71.4233 135.196 71.9057C135.758 72.8124 135.842 72.9483 135.949 72.9686C135.967 72.9722 135.987 72.9722 136.01 72.9722H136.061L136.111 72.9468C136.315 72.8453 136.29 72.7437 136.01 71.9311C135.806 71.3725 135.577 70.6361 135.374 69.8743C135.374 69.8644 135.366 69.8274 135.354 69.7678C135.334 69.6748 135.303 69.5268 135.272 69.341C135.196 68.7062 135.221 68.3761 135.374 68.1476C135.501 67.9952 135.704 67.8428 135.883 67.8682C136.188 67.8936 136.442 68.5031 136.646 69.0363C136.671 69.0617 136.697 69.1125 136.697 69.1379C136.747 69.3047 136.808 69.4824 136.873 69.6711C136.907 69.7697 136.941 69.8713 136.976 69.9758C137.009 70.0692 137.042 70.1652 137.076 70.2634C137.254 70.7791 137.454 71.3551 137.689 71.9311C137.724 72.0363 137.771 72.1415 137.822 72.255C137.845 72.3059 137.868 72.3585 137.892 72.4136L137.943 72.4898C137.956 72.5278 137.975 72.5659 137.994 72.604C138.013 72.6421 138.032 72.6802 138.045 72.7183C138.057 72.731 138.064 72.7437 138.07 72.7564C138.077 72.7691 138.083 72.7818 138.096 72.7945L138.325 73.2515L138.426 73.4547C138.604 73.8102 138.782 74.1403 138.986 74.4704C139.024 74.5339 139.069 74.5974 139.113 74.6609C139.158 74.7243 139.202 74.7878 139.24 74.8513C139.24 74.8767 139.266 74.9021 139.266 74.9021C139.291 74.9275 139.31 74.9592 139.329 74.991C139.348 75.0227 139.367 75.0544 139.393 75.0798L139.418 75.1306C139.457 75.1814 139.488 75.2322 139.52 75.283C139.552 75.3338 139.584 75.3846 139.622 75.4353L139.724 75.5623L135.196 82.0375C134.407 81.2249 131.304 78 128.862 75.3846L128.684 75.1814L128.531 75.41C126.598 78.3301 124.054 81.9613 123.266 83.0786L117.746 77.416L117.822 77.2636C117.873 77.1875 117.898 77.1367 117.924 77.0605H118V76.8827C118.013 76.8574 118.025 76.8256 118.038 76.7939C118.051 76.7621 118.064 76.7304 118.076 76.705L118.102 76.6288C118.127 76.5526 118.159 76.4828 118.191 76.413C118.223 76.3431 118.254 76.2733 118.28 76.1971C118.401 75.9151 118.506 75.617 118.608 75.3283C118.634 75.2532 118.661 75.1787 118.687 75.1052C118.698 75.0718 118.704 75.0433 118.71 75.0175C118.717 74.9845 118.723 74.956 118.738 74.9275L118.763 74.8767C118.789 74.8005 118.814 74.718 118.839 74.6355C118.865 74.5529 118.89 74.4704 118.916 74.3942L118.941 74.2673C118.953 74.2323 118.959 74.1974 118.965 74.1649C118.972 74.1266 118.978 74.0916 118.992 74.0641C118.992 74.0387 118.998 74.0197 119.005 74.0006C119.011 73.9816 119.017 73.9625 119.017 73.9372C119.029 73.8966 119.041 73.8574 119.052 73.8192C119.09 73.6899 119.125 73.5723 119.145 73.4547C119.297 72.7183 119.424 72.0073 119.526 71.3979C119.577 71.1947 119.603 71.017 119.628 70.8392L119.679 70.5853H119.424C114.693 70.5853 110.013 69.5696 105.536 67.5127L105.358 67.4366L105.256 67.6143C101.669 74.2165 99.4052 80.5393 98.7183 85.8973L98.642 86.4051L99.049 86.1004L99.0491 86.1004C99.2017 85.9988 99.3543 85.8972 99.5069 85.8211C99.7867 85.6687 100.041 85.6433 100.27 85.7195C100.575 85.7957 100.855 86.1004 100.931 86.4305C101.008 86.7098 100.957 87.0653 100.728 87.4462C100.513 87.8269 100.21 88.163 99.9838 88.4128C99.9686 88.4296 99.9538 88.4459 99.9393 88.4619C99.4815 88.9444 99.0236 89.4269 98.5912 89.9093L98.5403 89.9855V90.0871C98.5657 90.3664 98.5912 90.6457 98.6166 90.8997L98.642 91.2552L98.9473 91.0774C100.067 90.3664 100.881 90.1379 101.211 90.3918C101.338 90.4934 101.415 90.6711 101.466 90.8743C101.644 91.6361 100.982 92.601 99.456 93.8453L99.3288 93.9468L99.3797 94.0992C99.8376 95.2165 100.499 96.0798 101.338 96.6893C102.636 97.6542 105.815 98.7969 112.429 95.9783C111.946 99.7364 111.437 103.469 110.928 107.202L110.699 108.903L110.801 108.979C111.094 109.179 111.382 109.383 111.667 109.585C112 109.822 112.329 110.056 112.658 110.275L113.345 110.732C113.5 110.835 113.651 110.938 113.799 111.04C114.016 111.188 114.227 111.332 114.439 111.468L115.176 111.95C115.32 112.03 115.453 112.119 115.583 112.206C115.66 112.258 115.736 112.309 115.812 112.357C116.474 112.788 117.135 113.22 117.847 113.677ZM111.974 109.191C111.72 109.01 111.464 108.827 111.208 108.649L111.437 107.177C111.708 105.111 111.985 103.054 112.262 100.999C112.507 99.1882 112.75 97.3801 112.989 95.572L113.04 95.1911L112.684 95.3434C105.765 98.3652 102.687 96.994 101.669 96.2576C100.931 95.7243 100.346 94.9626 99.9139 93.9976C100.957 93.1343 102.203 91.89 101.949 90.6965C101.873 90.3918 101.745 90.1379 101.542 89.9855C101.059 89.6046 100.245 89.7824 99.0745 90.468C99.0745 90.4045 99.0681 90.3474 99.0618 90.2902C99.0554 90.2331 99.049 90.176 99.049 90.1125C99.2652 89.884 99.4814 89.6491 99.6976 89.4142C99.9139 89.1793 100.13 88.9444 100.346 88.7159C100.601 88.4619 100.957 88.0557 101.211 87.624C101.491 87.1415 101.567 86.6844 101.466 86.2782C101.338 85.8211 100.957 85.4148 100.499 85.2624C100.143 85.1609 99.7867 85.1863 99.4052 85.3894C99.3679 85.3894 99.3443 85.403 99.3144 85.4203C99.3034 85.4266 99.2916 85.4334 99.278 85.4402C100.016 80.26 102.203 74.2419 105.612 67.9444C110.013 69.9251 114.591 70.9662 119.246 70.9916C119.234 71.0424 119.227 71.0931 119.221 71.1439C119.215 71.1947 119.208 71.2455 119.196 71.2963C119.18 71.3908 119.164 71.4871 119.148 71.5852C119.06 72.1196 118.964 72.7055 118.814 73.3277C118.785 73.4142 118.764 73.5007 118.743 73.5919C118.726 73.6613 118.709 73.7334 118.687 73.8102C118.687 73.8207 118.682 73.8312 118.677 73.8436C118.67 73.861 118.661 73.882 118.661 73.9118C118.649 73.9499 118.642 73.9816 118.636 74.0133C118.63 74.0451 118.623 74.0768 118.61 74.1149L118.585 74.2419C118.534 74.3942 118.483 74.5466 118.432 74.7243L118.407 74.7751C118.394 74.8005 118.388 74.8259 118.382 74.8513C118.375 74.8767 118.369 74.9021 118.356 74.9275C118.254 75.283 118.127 75.6385 117.975 75.994C117.949 76.0702 117.917 76.14 117.886 76.2098C117.854 76.2797 117.822 76.3495 117.796 76.4257L117.771 76.5018C117.746 76.578 117.72 76.6288 117.695 76.6796L117.695 76.6796L117.669 76.7304L117.517 77.0351L117.44 77.1621L117.389 77.2129V77.2636C117.389 77.289 117.389 77.3144 117.364 77.3398L117.288 77.4668L123.367 83.7135L123.52 83.5103C124.054 82.7739 126.7 78.9396 128.785 75.8416C131.558 78.8126 135.094 82.4438 135.119 82.4692L135.297 82.647L140.232 75.6131L140.309 75.4861L140.258 75.3846L140.232 75.3592L140.207 75.3338V75.283L140.131 75.2322L140.105 75.2068C140.08 75.156 140.054 75.1306 140.029 75.1052L139.876 74.8767L139.851 74.8259L139.698 74.5974L139.673 74.572C139.571 74.445 139.495 74.3181 139.418 74.1911C139.215 73.861 139.037 73.531 138.859 73.2009L138.859 73.2008L138.757 72.9976L138.528 72.5405C138.528 72.5151 138.528 72.4898 138.503 72.4644C138.49 72.4263 138.471 72.3882 138.452 72.3501C138.433 72.312 138.414 72.2739 138.401 72.2358L138.375 72.185C138.375 72.1596 138.35 72.1343 138.35 72.1343C138.274 71.9819 138.197 71.8295 138.146 71.6772C137.907 71.1403 137.731 70.6191 137.568 70.1377C137.523 70.0043 137.478 69.874 137.434 69.7473C137.389 69.6224 137.348 69.4925 137.308 69.3643C137.259 69.2057 137.211 69.0498 137.154 68.9093C137.154 68.8966 137.148 68.8776 137.142 68.8586C137.135 68.8395 137.129 68.8205 137.129 68.8078C136.824 67.9952 136.518 67.4366 136.01 67.3604C135.628 67.3096 135.297 67.5889 135.119 67.8174C134.865 68.1222 134.84 68.5538 134.941 69.3156C134.961 69.4224 134.98 69.5217 134.997 69.6065C135.024 69.7437 135.043 69.8429 135.043 69.8743C135.17 70.3314 135.297 70.7884 135.425 71.1947C135.145 70.763 134.865 70.2806 134.687 69.8997C134.331 69.1633 134.026 68.4269 133.771 67.6651C140.232 64.6941 145.142 60.2503 148.321 54.4607C148.406 54.3253 148.491 54.1673 148.576 54.0093C148.618 53.9303 148.661 53.8513 148.703 53.7751C161.88 64.8211 169.485 75.3592 168.086 80.6663C167.349 83.4882 165.566 85.077 165.424 85.2037C165.419 85.2081 165.416 85.2108 165.415 85.2116C162.617 87.5732 158.776 87.1415 157.275 86.8368L156.945 86.7606L157.047 87.0907C157.377 88.3604 157.759 89.63 158.166 90.8997C158.598 92.2455 159.082 93.5913 159.59 94.8864C159.488 95.1084 159.373 95.3304 159.263 95.5447C159.21 95.649 159.157 95.7515 159.107 95.8513C158.369 97.2987 157.403 98.6699 156.283 99.965L156.233 100.016C156.512 99.3301 156.767 98.6445 156.945 97.9589C157.479 95.9275 157.174 95.2673 156.894 94.9626C156.792 94.8356 156.411 94.4547 155.902 94.4293C155.113 94.3785 154.477 95.1657 153.765 96.4607L153.689 96.5623C153.485 96.9178 153.282 97.2987 153.053 97.7304C152.773 98.289 152.442 98.8985 152.086 99.5333C152.061 99.6349 152.01 99.711 151.959 99.7872C151.527 100.524 151.069 101.285 150.56 102.022C150.204 102.53 149.848 103.038 149.466 103.545L149.364 103.393L118 113.22C117.829 113.108 117.659 112.998 117.491 112.889C117.009 112.576 116.538 112.27 116.067 111.95C116.011 111.916 115.953 111.881 115.895 111.846C115.74 111.752 115.579 111.655 115.431 111.544L114.719 111.062C114.507 110.926 114.296 110.782 114.079 110.633C113.931 110.532 113.78 110.429 113.625 110.325L112.938 109.868C112.623 109.654 112.3 109.424 111.974 109.191Z" fill="black"/>
<path d="M134.305 50.1185C134.051 48.9251 133.161 44.4305 132.957 43.3894C133.263 43.5163 133.695 43.6687 134.204 43.6941C134.458 43.7195 135.679 43.7957 136.595 43.0339C137.714 42.0943 137.994 40.266 137.205 38.9456C137.129 38.8186 136.519 37.8537 135.348 37.549C134.433 37.3205 133.67 37.5998 133.364 37.7267C132.677 38.0315 132.296 38.5139 132.118 38.7425C131.177 37.7775 130.134 36.5587 129.167 35.0859C127.59 32.7243 126.674 30.4897 126.089 28.7376C125.58 29.7787 124.792 31.0992 123.647 32.4196C122.146 34.1463 120.595 35.2636 119.425 35.9492C119.399 37.7013 119.501 43.6433 123.469 46.3096C123.8 46.5381 124.156 46.7159 124.537 46.8936C124.385 48.0363 124.232 49.2044 124.08 50.3471C123.52 50.5248 122.935 50.7533 122.324 51.0073C121.18 51.4897 120.162 52.0484 119.297 52.5816C114.032 51.1342 108.766 49.6614 103.526 48.214C107.24 35.6953 115.126 26.7062 123.851 25.8428C128.353 25.4111 131.889 27.1379 132.55 27.468C139.469 30.9722 143.412 39.5804 142.878 49.5853C140.029 49.7376 137.154 49.9154 134.305 50.1185Z" fill="black"/>
<path d="M130.515 45.6747C130.032 46.2334 129.32 46.919 128.353 47.5284C127.208 48.2394 126.114 48.5949 125.224 48.7727C124.868 48.8489 124.436 48.8997 124.436 48.8997C124.359 48.8997 124.308 48.925 124.283 48.925C124.308 48.4934 124.334 48.0109 124.436 47.503C124.461 47.2999 124.512 47.0968 124.563 46.8936C124.741 46.9444 125.021 47.0206 125.377 47.0714C125.377 47.0714 125.911 47.1475 126.521 47.0968C127.234 47.046 128.709 46.5889 130.515 45.6747Z" fill="black"/>
<path d="M134.534 43.9226C134.433 43.9226 134.305 43.9226 134.204 43.8972C133.746 43.8718 133.313 43.7449 132.881 43.5671C132.805 43.5417 132.728 43.491 132.677 43.4656C132.576 43.4148 132.525 43.2878 132.576 43.1862C132.627 43.0847 132.754 43.0339 132.856 43.0847C132.906 43.1101 132.983 43.1354 133.034 43.1862C133.415 43.364 133.797 43.4656 134.204 43.491C135.094 43.5671 135.883 43.3386 136.442 42.8815C137.485 41.9928 137.74 40.2914 137.002 39.0726C136.9 38.8948 136.34 38.0315 135.298 37.7521C135.17 37.7267 135.043 37.7013 134.891 37.676C133.822 37.5744 132.779 38.0822 132.169 39.0472C132.092 39.1488 131.965 39.1741 131.863 39.1234C131.762 39.0472 131.736 38.9202 131.787 38.8186C132.499 37.7267 133.695 37.1173 134.916 37.2443C135.069 37.2697 135.247 37.2951 135.374 37.3205C136.544 37.6252 137.18 38.5393 137.358 38.8186C138.197 40.2153 137.892 42.1705 136.697 43.1862C136.188 43.6687 135.399 43.9226 134.534 43.9226Z" fill="black"/>
<path d="M127.157 75.3592C127.107 75.3592 127.056 75.3338 127.03 75.3084C126.929 75.2322 126.903 75.1052 126.979 75.0037L127.539 74.2673C127.615 74.1657 127.743 74.1403 127.844 74.2165C127.946 74.2927 127.971 74.4196 127.895 74.5212L127.336 75.2576C127.31 75.3338 127.234 75.3592 127.157 75.3592Z" fill="black"/>
<path d="M121.052 69.2141C121.281 69.4426 121.383 69.7981 121.409 70.5091C121.409 70.5853 121.409 70.6869 121.409 70.763C120.773 70.8138 120.137 70.8138 119.501 70.8138C119.526 70.7122 119.526 70.6107 119.552 70.4837C119.552 70.4583 119.577 70.4075 119.577 70.3821C119.73 69.595 119.933 69.0363 120.315 68.9347C120.595 68.8586 120.874 69.0363 121.052 69.2141Z" fill="black"/>
<path d="M124.614 68.0206C124.563 68.4269 124.512 68.4269 124.41 69.0617C124.334 69.468 124.283 69.9251 124.232 70.4583C123.825 70.5091 123.444 70.5853 123.011 70.6361C122.757 70.6615 122.528 70.6869 122.299 70.7122C122.655 69.3664 122.833 68.1729 123.011 67.2588C123.138 66.5732 123.291 65.7352 123.774 65.6083C124.054 65.5321 124.359 65.7352 124.359 65.7606C124.893 66.1669 124.715 67.2588 124.614 68.0206Z" fill="black"/>
<path d="M127.005 69.8489C126.623 69.9504 126.242 70.052 125.835 70.1282C125.479 70.2044 125.122 70.2806 124.792 70.3313C125.326 68.8078 125.682 67.6905 125.835 67.0303C125.886 66.7763 126.064 66.0653 126.547 65.8876C126.801 65.786 127.107 65.8622 127.31 65.9891C127.692 66.2431 127.844 66.8525 127.59 67.4365C127.539 67.3858 127.437 67.335 127.31 67.3096C127.31 67.3096 127.056 67.2588 126.827 67.4365C126.547 67.6397 126.547 68.0206 126.521 68.2745C126.471 68.9601 126.776 69.5188 127.005 69.8489Z" fill="black"/>
<path d="M128.836 69.341C128.989 69.2902 129.141 69.2395 129.294 69.1887L128.607 67.4366C128.404 67.5635 128.251 67.8174 128.149 68.046L128.836 69.341Z" fill="black"/>
<path d="M131.253 68.6046C130.591 68.8585 129.955 69.0871 129.345 69.2648C129.345 69.2394 129.319 69.214 129.319 69.1887C129.04 68.5284 128.785 67.919 128.633 67.4365C128.633 67.4111 128.607 67.3858 128.607 67.335C128.404 66.6747 128.327 66.1161 128.633 65.786C128.811 65.5828 129.116 65.5067 129.37 65.5575C129.905 65.659 130.159 66.3446 130.261 66.5732C130.439 67.0303 130.769 67.6651 131.202 68.5284C131.227 68.5538 131.227 68.5792 131.253 68.6046Z" fill="black"/>
<path d="M133.542 67.6397C132.983 67.8936 132.448 68.1476 131.914 68.3507C131.914 68.3253 131.889 68.2999 131.889 68.2745C131.533 67.1826 131.253 66.2177 131.278 65.786C131.278 65.6083 131.278 65.1258 131.583 64.9226C131.583 64.9226 131.787 64.7957 132.067 64.8465C132.626 64.948 132.957 66.0399 133.517 67.5889C133.542 67.5889 133.542 67.6143 133.542 67.6397Z" fill="black"/>
<path d="M133.618 73.1754C133.542 73.1754 133.466 73.1246 133.44 73.0738C132.397 71.2201 131.634 69.7981 131.049 68.7062C130.998 68.6046 131.024 68.4776 131.151 68.4269C131.253 68.3761 131.38 68.4015 131.431 68.5284C131.685 69.0109 131.99 69.5695 132.321 70.2044C132.118 69.6203 131.889 69.0109 131.711 68.4269C131.685 68.3253 131.736 68.1983 131.838 68.1475C131.965 68.1221 132.067 68.1729 132.118 68.2745C132.728 70.1028 133.568 72.2612 133.822 72.896C133.873 72.9976 133.822 73.1246 133.72 73.1754C133.695 73.1754 133.644 73.1754 133.618 73.1754Z" fill="black"/>
<path d="M136.111 72.8706C136.035 72.8706 135.984 72.8453 135.933 72.7691C134.636 71.0931 133.898 69.2648 133.339 67.6905C133.288 67.5889 133.364 67.4619 133.466 67.4112C133.568 67.3604 133.695 67.4365 133.746 67.5381C134.331 69.1633 135.018 70.8646 136.289 72.5151C136.315 72.5659 136.34 72.6167 136.34 72.6421C136.34 72.7691 136.239 72.8706 136.111 72.8706Z" fill="black"/>
<path d="M131.863 74.5466C131.787 74.5466 131.711 74.4958 131.66 74.4196L131.609 74.318C131.431 73.9879 131.049 73.2769 130.617 72.4136C130.312 71.8295 130.006 71.2201 129.752 70.6615C129.625 70.3821 129.472 70.1028 129.345 69.8235C129.269 69.6711 129.218 69.5188 129.142 69.3664C129.091 69.2648 129.142 69.1379 129.243 69.0871C129.345 69.0363 129.472 69.0871 129.523 69.1887C129.599 69.341 129.65 69.4934 129.727 69.6457C129.854 69.9251 129.981 70.2044 130.108 70.4837C130.388 71.0424 130.668 71.6518 130.973 72.2358C131.405 73.0738 131.787 73.7848 131.965 74.1403L132.016 74.2419C132.067 74.3434 132.041 74.4704 131.914 74.5212C131.94 74.5212 131.889 74.5466 131.863 74.5466Z" fill="black"/>
<path d="M128.887 69.4172C128.582 69.5188 128.251 69.5949 127.921 69.6965C127.615 69.7727 127.336 69.8489 127.03 69.9251C126.801 69.4934 126.522 68.9093 126.496 68.2491C126.471 67.919 126.522 67.7413 126.649 67.6143C126.827 67.4112 127.259 67.3604 127.285 67.3604C127.336 67.3604 127.386 67.3604 127.437 67.3858C127.514 67.4112 127.539 67.4365 127.59 67.4619C127.819 67.5889 128.022 67.8428 128.15 68.0714C128.251 68.2491 128.328 68.3761 128.378 68.5031C128.506 68.7062 128.684 69.0363 128.887 69.4172Z" fill="black"/>
<path d="M131.863 74.5466C131.787 74.5466 131.736 74.5212 131.685 74.4704L131.66 74.445C131.278 73.8102 130.897 73.2008 130.515 72.6167L130.388 72.439C130.108 72.0073 129.828 71.5756 129.498 71.017C129.421 70.89 129.345 70.763 129.192 70.4837L129.141 70.4075C128.963 70.1028 128.887 69.9504 128.811 69.8235C128.734 69.6965 128.684 69.6203 128.607 69.4426L128.582 69.4172L128.963 69.1887L128.785 69.2902L128.989 69.1887L129.014 69.2394C129.091 69.3918 129.141 69.468 129.218 69.6203C129.294 69.7473 129.37 69.8997 129.548 70.2044L129.599 70.2806C129.752 70.5599 129.828 70.6868 129.905 70.8138C130.21 71.3725 130.49 71.7787 130.769 72.2104L130.897 72.3882C131.278 72.9722 131.66 73.5816 132.041 74.2165C132.118 74.318 132.092 74.445 131.99 74.5212C131.965 74.5466 131.914 74.5466 131.863 74.5466Z" fill="black"/>
<path d="M130.388 75.3338C130.312 75.3338 130.261 75.3084 130.21 75.2576C129.65 74.4958 129.091 73.734 128.557 72.9468C128.506 72.896 127.564 71.5248 127.107 70.5853C127.081 70.5091 126.929 70.2044 126.878 70.0774L126.852 70.0266C126.827 70.0012 126.827 69.9758 126.801 69.9251L126.776 69.8997L126.979 69.7981L127.183 69.7219L126.979 69.7981L127.183 69.7219L127.208 69.7727C127.208 69.7981 127.234 69.8235 127.234 69.8489L127.259 69.8997C127.31 70.0266 127.463 70.3313 127.488 70.3821C127.921 71.2709 128.913 72.6675 128.913 72.6929C129.447 73.4547 130.006 74.2419 130.566 74.9783C130.642 75.0798 130.617 75.2068 130.515 75.283C130.49 75.3084 130.439 75.3338 130.388 75.3338Z" fill="black"/>
<path d="M135.297 82.5708C135.247 82.5708 135.196 82.5454 135.145 82.4946C135.119 82.4692 131.406 78.6603 128.633 75.6639C128.302 75.3084 127.971 74.9529 127.666 74.5974C127.005 73.861 126.522 73.3277 126.216 72.9468C126.165 72.896 126.115 72.8199 126.064 72.7691C125.936 72.6421 125.86 72.5151 125.784 72.4136C125.199 71.601 125.021 70.9662 125.25 70.5599C125.275 70.5091 125.428 70.2552 125.733 70.1536C126.013 70.052 126.293 70.1536 126.522 70.2806C126.776 70.4075 126.954 70.5345 127.005 70.5853C127.361 70.89 128.251 71.9057 129.294 73.1246C129.371 73.2262 129.371 73.3531 129.269 73.4293C129.167 73.5055 129.04 73.5055 128.964 73.4039C127.793 72.0327 127.005 71.1693 126.725 70.9154C126.7 70.89 126.547 70.7884 126.343 70.6869C126.191 70.6107 126.038 70.5345 125.886 70.5853C125.733 70.6361 125.657 70.763 125.657 70.7884C125.606 70.89 125.504 71.2455 126.165 72.185C126.242 72.2866 126.318 72.4136 126.445 72.5405C126.496 72.5913 126.522 72.6421 126.572 72.6929C126.878 73.0738 127.361 73.607 128.022 74.3434C128.328 74.6736 128.658 75.0291 128.989 75.3846C131.431 78 134.534 81.2249 135.323 82.0375L139.851 75.5623L139.749 75.4353C139.673 75.3338 139.622 75.2322 139.546 75.1306C139.546 75.1306 139.546 75.1052 139.52 75.1052C139.469 75.0291 139.418 74.9529 139.367 74.8767C139.367 74.8767 139.342 74.8513 139.342 74.8259C139.266 74.6989 139.164 74.572 139.088 74.445C138.884 74.1149 138.706 73.7848 138.528 73.4293L138.426 73.2262C138.35 73.0738 138.274 72.9214 138.197 72.7691C138.172 72.7437 138.172 72.7183 138.146 72.6929C138.121 72.6167 138.07 72.5405 138.045 72.4644C138.045 72.4644 138.045 72.439 138.019 72.4136L137.994 72.3628C137.918 72.185 137.841 72.0327 137.79 71.8803C137.511 71.1947 137.282 70.5091 137.078 69.9251C136.976 69.6203 136.875 69.341 136.798 69.0871C136.798 69.0617 136.773 69.0109 136.747 68.9855C136.544 68.4523 136.29 67.8428 135.984 67.8174C135.806 67.7921 135.603 67.9444 135.476 68.0968C135.323 68.3253 135.297 68.6554 135.374 69.2902C135.399 69.4426 135.425 69.6203 135.476 69.8235C135.552 70.179 135.704 70.8392 136.315 72.5913C136.315 72.6167 136.34 72.6421 136.34 72.6675C136.34 72.7945 136.239 72.896 136.137 72.896C136.035 72.896 135.959 72.8453 135.933 72.7437C135.933 72.7437 135.933 72.7437 135.933 72.7183C135.323 70.9408 135.17 70.2552 135.094 69.8743C135.043 69.6711 135.018 69.4934 134.992 69.3156C134.89 68.5538 134.916 68.1222 135.17 67.8174C135.348 67.5889 135.679 67.3096 136.061 67.3604C136.569 67.4365 136.875 67.9952 137.18 68.8078C137.18 68.8332 137.205 68.8839 137.205 68.9093C137.307 69.1633 137.383 69.468 137.485 69.7473C137.689 70.3314 137.892 70.9916 138.197 71.6772C138.248 71.8295 138.325 71.9819 138.401 72.1343C138.401 72.1343 138.426 72.1596 138.426 72.185L138.452 72.2358C138.477 72.312 138.528 72.3882 138.553 72.4644C138.579 72.4898 138.579 72.5151 138.579 72.5405C138.655 72.6929 138.732 72.8453 138.808 72.9976L138.91 73.2008C139.088 73.5309 139.266 73.861 139.469 74.1911C139.546 74.318 139.622 74.445 139.724 74.572L139.749 74.5974C139.8 74.6736 139.851 74.7497 139.902 74.8259C139.902 74.8259 139.902 74.8513 139.927 74.8513C139.978 74.9275 140.054 75.0291 140.105 75.1052C140.131 75.1306 140.156 75.156 140.181 75.2068L140.207 75.2576C140.207 75.2576 140.207 75.2576 140.232 75.283C140.258 75.3084 140.258 75.3338 140.283 75.3592L140.309 75.3846C140.334 75.4607 140.334 75.5369 140.309 75.6131L140.029 76.0194C140.029 76.0194 140.029 76.0194 140.029 76.0448L135.552 82.4438C135.45 82.5454 135.374 82.5708 135.297 82.5708C135.297 82.5708 135.323 82.5708 135.297 82.5708Z" fill="black"/>
<path d="M125.809 74.6989C125.784 74.6989 125.758 74.6989 125.707 74.6735C125.606 74.6228 125.555 74.4958 125.606 74.3942L126.292 72.9214C126.343 72.8199 126.471 72.7691 126.572 72.8199C126.674 72.8706 126.725 72.9976 126.674 73.0992L125.987 74.572C125.987 74.6481 125.911 74.6989 125.809 74.6989Z" fill="black"/>
<path d="M125.351 57.9142C125.326 57.9142 125.326 57.9142 125.301 57.9142C125.25 57.9142 125.199 57.8634 125.148 57.8126L121.129 51.5913C121.053 51.4898 121.103 51.3628 121.18 51.2866C121.281 51.2104 121.409 51.2612 121.485 51.3374L125.402 57.3555L136.188 49.4583C136.29 49.3821 136.417 49.4075 136.493 49.5091C136.569 49.6107 136.544 49.7376 136.442 49.8138L125.479 57.838C125.428 57.8888 125.402 57.9142 125.351 57.9142Z" fill="black"/>
<path d="M125.377 58.4728C125.812 58.4728 126.166 58.1204 126.166 57.6857C126.166 57.2509 125.812 56.8985 125.377 56.8985C124.941 56.8985 124.588 57.2509 124.588 57.6857C124.588 58.1204 124.941 58.4728 125.377 58.4728Z" fill="black"/>
<path d="M113.218 27.4934C113.192 27.4934 113.167 27.4934 113.142 27.4934L107.647 25.5381C107.545 25.4873 107.469 25.3858 107.52 25.2588C107.571 25.1572 107.672 25.081 107.8 25.1318L113.294 27.0871C113.396 27.1379 113.472 27.2394 113.421 27.3664C113.37 27.4426 113.294 27.4934 113.218 27.4934Z" fill="black"/>
<path d="M118.89 22.6179C118.814 22.6179 118.738 22.5671 118.687 22.491L116.219 17.2092C116.169 17.1076 116.219 16.9807 116.321 16.9299C116.423 16.8791 116.55 16.9299 116.601 17.0315L119.068 22.3132C119.119 22.4148 119.068 22.5417 118.967 22.5925C118.967 22.6179 118.941 22.6179 118.89 22.6179Z" fill="black"/>
<path d="M125.657 21.78C125.631 21.78 125.606 21.78 125.58 21.78C125.479 21.7292 125.402 21.6276 125.453 21.5006L127.386 16.0157C127.437 15.9142 127.539 15.838 127.666 15.8888C127.768 15.9396 127.844 16.0411 127.793 16.1681L125.86 21.653C125.835 21.7292 125.758 21.78 125.657 21.78Z" fill="black"/>
</svg>
