<svg width="117" height="118" viewBox="0 0 117 118" fill="none" xmlns="http://www.w3.org/2000/svg">
<path fill-rule="evenodd" clip-rule="evenodd" d="M2.74438 107.283C2.74438 107.928 3.26583 108.449 3.91078 108.449C4.55574 108.449 5.07718 107.928 5.07718 107.283C5.07718 106.639 4.55574 106.118 3.91078 106.118C3.26583 106.118 2.74438 106.639 2.74438 107.283ZM2.95022 107.297C2.95022 106.762 3.38934 106.337 3.91078 106.337C4.43223 106.337 4.87135 106.762 4.87135 107.297C4.87135 107.832 4.44596 108.257 3.91078 108.257C3.37561 108.257 2.95022 107.832 2.95022 107.297Z" fill="white"/>
<path fill-rule="evenodd" clip-rule="evenodd" d="M18.3468 38.04C18.4566 38.0811 18.5663 38.0949 18.6761 38.0949C18.8682 38.0949 19.0466 38.0537 19.2113 37.9577C19.472 37.8069 19.6779 37.5737 19.7602 37.2857C19.8425 36.9977 19.8288 36.6823 19.6779 36.4217C19.5269 36.1611 19.2936 35.9554 19.0055 35.8731C18.4017 35.6949 17.7704 36.0377 17.5921 36.6274C17.5097 36.9154 17.5234 37.2309 17.6744 37.4914C17.8253 37.752 18.0586 37.9577 18.3468 38.04ZM17.7979 36.7097C17.9214 36.312 18.2782 36.0514 18.6761 36.0514C18.7722 36.0514 18.8545 36.0651 18.9506 36.0926C19.1839 36.1749 19.3897 36.3257 19.4995 36.5451C19.623 36.7646 19.6367 37.0114 19.5681 37.2446C19.4857 37.4777 19.3348 37.6697 19.1152 37.7931C18.8957 37.9166 18.6487 37.9303 18.4154 37.8617C18.1821 37.7794 17.9763 37.6286 17.8665 37.4091C17.743 37.1897 17.7293 36.9429 17.7979 36.7097Z" fill="white"/>
<path d="M82.5674 103.841C83.492 103.841 84.2416 103.092 84.2416 102.168C84.2416 101.244 83.492 100.495 82.5674 100.495C81.6428 100.495 80.8933 101.244 80.8933 102.168C80.8933 103.092 81.6428 103.841 82.5674 103.841Z" fill="#FF735A"/>
<path d="M2.36022 78.8949C3.11051 78.8949 3.71873 78.287 3.71873 77.5372C3.71873 76.7873 3.11051 76.1794 2.36022 76.1794C1.60994 76.1794 1.00171 76.7873 1.00171 77.5372C1.00171 78.287 1.60994 78.8949 2.36022 78.8949Z" fill="#FF735A"/>
<path fill-rule="evenodd" clip-rule="evenodd" d="M103.672 11.5851C103.769 11.64 103.892 11.6811 104.002 11.6811H104.112C104.263 11.6537 104.4 11.5577 104.482 11.4343C104.578 11.2971 104.606 11.1463 104.578 10.9954C104.551 10.8446 104.455 10.7074 104.331 10.6251C104.057 10.4469 103.7 10.5154 103.522 10.776C103.343 11.0503 103.412 11.4069 103.672 11.5851ZM103.7 10.8857C103.769 10.776 103.878 10.7211 104.002 10.7211C104.07 10.7211 104.153 10.7486 104.208 10.8034C104.29 10.8583 104.345 10.9406 104.359 11.0366C104.386 11.1326 104.359 11.2286 104.304 11.3109C104.249 11.3931 104.166 11.448 104.07 11.4617C103.974 11.4891 103.878 11.4617 103.796 11.4069C103.631 11.2834 103.59 11.0503 103.7 10.8857Z" fill="white"/>
<path fill-rule="evenodd" clip-rule="evenodd" d="M113.086 107.763C113.182 107.818 113.306 107.859 113.415 107.859H113.525C113.676 107.832 113.813 107.736 113.896 107.613C114.074 107.338 114.005 106.982 113.745 106.803C113.47 106.625 113.113 106.694 112.935 106.954C112.839 107.091 112.811 107.242 112.839 107.393C112.866 107.544 112.962 107.681 113.086 107.763ZM113.113 107.078C113.182 106.968 113.292 106.913 113.415 106.913C113.484 106.913 113.553 106.941 113.621 106.968C113.786 107.091 113.827 107.325 113.717 107.489C113.662 107.571 113.58 107.626 113.484 107.64C113.388 107.667 113.292 107.64 113.209 107.585C113.127 107.53 113.072 107.448 113.059 107.352C113.031 107.256 113.059 107.16 113.113 107.078Z" fill="white"/>
<path fill-rule="evenodd" clip-rule="evenodd" d="M95.3704 62.5337C95.5076 62.616 95.6585 62.6709 95.8232 62.6709C95.8644 62.6709 95.9193 62.6709 95.9741 62.6571C96.1937 62.616 96.3721 62.4926 96.4956 62.3143C96.7563 61.944 96.6603 61.4366 96.2898 61.1897C96.1114 61.0663 95.8918 61.0251 95.686 61.0663C95.4664 61.1074 95.288 61.2309 95.1645 61.4091C94.9038 61.7794 94.9999 62.2869 95.3704 62.5337ZM95.7134 61.2857C95.7546 61.272 95.782 61.272 95.8232 61.272C95.9467 61.272 96.0565 61.2994 96.1663 61.3817C96.4407 61.5737 96.5093 61.944 96.3172 62.2183C96.2349 62.3417 96.0976 62.4377 95.933 62.4651C95.7683 62.4926 95.6174 62.4651 95.4801 62.3691C95.2057 62.1771 95.1371 61.8069 95.3292 61.5326C95.4115 61.4091 95.5488 61.3131 95.7134 61.2857Z" fill="white"/>
<path fill-rule="evenodd" clip-rule="evenodd" d="M1.93485 16.8926C1.94857 16.9063 1.97602 16.92 2.00346 16.92C2.03091 16.92 2.05835 16.92 2.07208 16.8926L3.97948 14.9863C3.9932 14.9726 4.00693 14.9451 4.00693 14.9177C4.00693 14.8903 3.9932 14.8629 3.97948 14.8491L2.0858 12.9429C2.04463 12.9017 1.97602 12.9017 1.93485 12.9429L0.0274447 14.8491C0.0137224 14.8629 0 14.8903 0 14.9177C0 14.9451 0.0137224 14.9726 0.0274447 14.9863L1.93485 16.8926ZM2.00346 16.6731L0.247002 14.9177L2.00346 13.1623L3.75992 14.9177L2.00346 16.6731Z" fill="white"/>
<path fill-rule="evenodd" clip-rule="evenodd" d="M15.1359 96.0926L17.2079 96.2846C17.2628 96.2846 17.304 96.2434 17.304 96.1886L17.4961 94.1314C17.4961 94.0766 17.4549 94.0217 17.4 94.0217L15.3417 93.8297C15.2868 93.8297 15.2319 93.8709 15.2319 93.9257L15.0398 95.9829C15.0398 95.9966 15.0535 96.024 15.0672 96.0514C15.081 96.0789 15.1084 96.0926 15.1359 96.0926ZM17.1119 96.0651L15.2594 95.9006L15.424 94.0491L17.2765 94.2137L17.1119 96.0651Z" fill="white"/>
<path d="M111.452 21.147L113.032 20.8615L113.317 22.4406L111.737 22.7261L111.452 21.147Z" fill="#FF735A"/>
<path fill-rule="evenodd" clip-rule="evenodd" d="M72.7696 81.0206H72.7834C72.8108 81.0206 72.8383 81.0206 72.8657 80.9931L74.3614 79.8686C74.4026 79.8411 74.4026 79.7726 74.3752 79.7314L73.2362 78.2229C73.2088 78.1817 73.1402 78.1817 73.099 78.2091L71.6032 79.3337C71.5758 79.3474 71.5621 79.3749 71.5621 79.4023C71.5484 79.4297 71.5621 79.4571 71.5758 79.4846L72.701 80.9794C72.7148 81.0069 72.7422 81.0206 72.7696 81.0206ZM72.8108 80.7737L71.8091 79.4434L73.1402 78.4423L74.1419 79.7726L72.8108 80.7737Z" fill="white"/>
<path d="M112.372 66.936C112.345 66.936 112.331 66.9223 112.304 66.9086C112.263 66.8674 112.249 66.8126 112.29 66.7577L114.362 64.1657C114.403 64.1246 114.458 64.1109 114.513 64.152C114.554 64.1932 114.568 64.248 114.527 64.3029L112.455 66.8949C112.441 66.9223 112.4 66.936 112.372 66.936Z" fill="white"/>
<path d="M114.444 5.4C114.417 5.4 114.403 5.38628 114.376 5.37257C114.335 5.33143 114.321 5.27657 114.362 5.22171L116.434 2.62971C116.475 2.58857 116.53 2.57486 116.585 2.616C116.626 2.65714 116.64 2.712 116.599 2.76686L114.527 5.35885C114.513 5.38628 114.486 5.4 114.444 5.4Z" fill="white"/>
<path d="M110.355 92.4994C110.328 92.4994 110.287 92.4857 110.273 92.4583C110.245 92.4172 110.245 92.3486 110.3 92.3212L113.031 90.4149C113.072 90.3874 113.141 90.3874 113.168 90.4423C113.196 90.4834 113.196 90.552 113.141 90.5794L110.41 92.4857C110.396 92.4857 110.383 92.4994 110.355 92.4994Z" fill="white"/>
<path d="M103.522 42.6754C103.494 42.6754 103.453 42.6617 103.439 42.6343C103.412 42.5931 103.412 42.5246 103.467 42.4971L106.184 40.5909C106.225 40.5634 106.293 40.5634 106.321 40.6183C106.348 40.6594 106.348 40.728 106.293 40.7554L103.576 42.6617C103.563 42.6754 103.549 42.6754 103.522 42.6754Z" fill="white"/>
<path d="M12.1992 61.9714C12.1718 61.9714 12.1581 61.9577 12.1306 61.944C12.0895 61.9029 12.0757 61.848 12.1169 61.7931L14.189 59.2011C14.2301 59.16 14.285 59.1463 14.3399 59.1874C14.3811 59.2286 14.3948 59.2834 14.3536 59.3383L12.2816 61.9303C12.2541 61.9577 12.2267 61.9714 12.1992 61.9714Z" fill="white"/>
<path d="M3.91077 37.0389C3.89705 37.0389 3.88333 37.0389 3.8696 37.0251L0.878132 35.5851C0.823242 35.5577 0.80952 35.5029 0.836965 35.448C0.864409 35.3931 0.919299 35.3794 0.974188 35.4069L3.96566 36.8606C4.02055 36.888 4.03427 36.9429 4.00683 36.9977C3.99311 37.0251 3.95194 37.0389 3.91077 37.0389Z" fill="white"/>
<path d="M17.4822 20.856C17.441 20.856 17.3998 20.8286 17.3861 20.7874L16.1648 17.7017C16.1374 17.6469 16.1648 17.592 16.2197 17.5646C16.2746 17.5371 16.3295 17.5646 16.3569 17.6194L17.5782 20.7051C17.6057 20.76 17.5782 20.8149 17.5233 20.8423C17.5096 20.856 17.4959 20.856 17.4822 20.856Z" fill="white"/>
<path d="M33.0984 7.75886C33.0709 7.75886 33.0435 7.74515 33.0297 7.73143L30.6832 5.38629C30.6421 5.34515 30.6421 5.27657 30.6832 5.23543C30.7244 5.19429 30.793 5.19429 30.8342 5.23543L33.1807 7.58057C33.2219 7.62172 33.2219 7.69029 33.1807 7.73143C33.1532 7.74515 33.1258 7.75886 33.0984 7.75886Z" fill="white"/>
<path d="M32.0417 53.5234C32.0143 53.5234 31.9868 53.5097 31.9731 53.496L29.558 51.2194C29.5168 51.1783 29.5168 51.1097 29.558 51.0686C29.5991 51.0274 29.6678 51.0274 29.7089 51.0686L32.1241 53.3451C32.1652 53.3863 32.1652 53.4549 32.1241 53.496C32.0966 53.5234 32.0692 53.5234 32.0417 53.5234Z" fill="white"/>
<path d="M47.9871 105.062C47.9596 105.062 47.9185 105.048 47.9047 105.021L46.0934 102.223C46.0659 102.182 46.0797 102.113 46.1208 102.086C46.162 102.058 46.2306 102.072 46.258 102.113L48.0557 104.911C48.0831 104.952 48.0694 105.021 48.0282 105.048C48.0282 105.062 48.0008 105.062 47.9871 105.062Z" fill="white"/>
<path d="M24.412 73.368C24.3709 73.368 24.3434 73.3543 24.316 73.3131C24.2885 73.2583 24.3022 73.2034 24.3571 73.176L27.2937 71.6126C27.3486 71.5851 27.4035 71.5988 27.4309 71.6537C27.4584 71.7086 27.4447 71.7634 27.3898 71.7908L24.4532 73.3543C24.4532 73.368 24.4395 73.368 24.412 73.368Z" fill="white"/>
<path d="M95.8233 80.9383C95.7958 80.9383 95.7684 80.9246 95.7409 80.9109L93.5042 78.456C93.463 78.4149 93.463 78.3463 93.5179 78.3051C93.5591 78.264 93.6277 78.264 93.6689 78.3189L95.9056 80.7737C95.9468 80.8149 95.9468 80.8834 95.8919 80.9246C95.8644 80.9383 95.8507 80.9383 95.8233 80.9383Z" fill="white"/>
<path d="M96.0839 111.905C96.0702 111.905 96.0564 111.905 96.0427 111.891C95.9878 111.864 95.9604 111.809 95.9878 111.754L97.2914 108.696C97.3189 108.641 97.3738 108.614 97.4287 108.641C97.4836 108.669 97.511 108.723 97.4836 108.778L96.1799 111.837C96.1662 111.878 96.125 111.905 96.0839 111.905Z" fill="white"/>
<path d="M69.1293 42.1173C69.0744 42.1173 69.0332 42.0762 69.0332 42.035C69.0194 41.9801 69.0606 41.9253 69.1156 41.9116C71.8765 41.4863 73.0441 40.279 73.4287 39.8811C74.0193 39.2775 74.1841 38.8522 74.4589 38.1937C74.6786 37.6449 74.9533 36.9727 75.5852 35.9301C76.4231 34.5444 77.0687 33.8722 77.5357 33.3783C77.8516 33.0491 78.0714 32.8159 78.195 32.5278C78.2362 32.4454 78.3049 32.2259 78.3049 32.0202C78.3324 31.2656 77.4395 30.6894 76.478 30.0721C75.3929 29.3724 74.2803 28.659 74.1429 27.534C74.1017 27.2322 74.1704 27.0813 74.2528 26.903C74.3215 26.7383 74.4176 26.5326 74.4726 26.0798C74.5825 25.1744 74.4039 24.1454 73.9918 23.2811C73.621 22.4854 73.1127 21.9504 72.6732 21.8818C72.3161 21.8269 72.0688 22.1425 71.6842 22.6089C71.2859 23.1028 70.7227 23.7888 69.7612 24.2964C68.8958 24.7491 68.3189 24.7491 67.5222 24.7491C66.9316 24.7491 66.2036 24.7491 65.1322 24.9411C63.2778 25.2841 60.9839 25.6957 59.9812 27.4106C58.8411 29.3449 59.94 31.883 59.9812 31.9927C60.3796 32.9119 60.9153 33.4195 61.4235 33.9134C62.0141 34.4759 62.5636 35.0109 62.7833 36.0673C62.9482 36.8218 62.8245 37.2745 62.7147 37.6861C62.6185 38.0702 62.5224 38.4132 62.6872 38.9345C62.852 39.4833 63.2229 39.9909 63.7723 40.4436C63.8135 40.4848 63.8273 40.5397 63.7861 40.5945C63.7448 40.6357 63.6899 40.6494 63.635 40.6082C63.0581 40.1281 62.6597 39.593 62.4811 38.9894C62.3026 38.3995 62.3987 38.0291 62.5086 37.6175C62.6185 37.2197 62.7284 36.7944 62.5773 36.0947C62.3575 35.0932 61.863 34.613 61.2724 34.0368C60.7779 33.5567 60.201 33.0079 59.7889 32.0476C59.734 31.9378 58.6076 29.3038 59.8026 27.2734C60.8603 25.4762 63.2091 25.0509 65.091 24.7079C66.1761 24.5021 66.9178 24.5159 67.5222 24.5159C68.2914 24.5159 68.8409 24.5159 69.665 24.0906C70.5853 23.5967 71.1073 22.9656 71.5194 22.4443C71.9177 21.9504 72.2336 21.5663 72.7007 21.6486C73.2226 21.7309 73.7721 22.2934 74.1841 23.1714C74.6099 24.0769 74.7885 25.1469 74.6924 26.0798C74.6374 26.56 74.5413 26.7795 74.4589 26.9578C74.3902 27.1225 74.3352 27.2322 74.3627 27.4929C74.4726 28.5218 75.5577 29.2078 76.6017 29.88C77.6044 30.5248 78.5659 31.1421 78.5247 32.0064C78.5109 32.2397 78.4423 32.4866 78.4011 32.5826C78.2637 32.9119 78.0302 33.1588 77.7005 33.5018C77.2335 33.982 76.6017 34.6542 75.7775 36.0124C75.1594 37.0276 74.8847 37.6998 74.6649 38.2486C74.4039 38.8934 74.2116 39.3598 73.5935 39.9909C73.1952 40.4025 71.9864 41.6509 69.1705 42.0899C69.1431 42.1173 69.1431 42.1173 69.1293 42.1173Z" fill="white"/>
<path d="M65.242 50.6094C65.2008 50.6094 65.1596 50.582 65.1458 50.5408C65.1321 50.4859 65.1596 50.431 65.2145 50.4173C72.0138 48.332 76.3269 46.3291 76.945 45.5059C77.1373 45.2453 77.2747 45.0395 77.3845 44.82C77.7279 44.1752 78.0164 43.4755 78.1812 42.817C78.4285 41.8704 79.4861 41.253 80.7224 40.5396C81.8075 39.9086 83.0437 39.1815 83.964 38.0977C85.1865 36.6572 86.1755 34.078 85.5025 31.8418C85.0217 30.2367 83.7031 29.0294 81.7113 27.1911C81.1894 26.7109 80.7636 26.3542 80.4202 26.0798C79.6647 25.4625 79.2526 25.1195 78.9779 24.3512C78.6208 23.3772 78.8405 22.6501 79.0741 21.8681C79.2526 21.2782 79.4312 20.6745 79.4037 19.8788C79.3625 18.1228 78.1537 15.6259 75.5577 13.9934C72.5083 12.0864 69.0468 12.9507 65.3794 13.8699C63.003 14.4735 61.5608 14.8302 60.0636 16.0101C59.2531 16.6411 58.6762 17.2722 58.0581 17.9445C57.3026 18.7676 56.4373 19.7005 54.9675 20.8392C53.5253 21.9641 52.55 22.3071 51.6847 22.5952C50.8742 22.8696 50.2424 23.0891 49.4732 23.8711C48.6078 24.7354 48.0309 25.8466 47.7287 27.2459C47.715 27.3008 47.66 27.342 47.6051 27.3282C47.5502 27.3145 47.5089 27.2597 47.5227 27.2048C47.8386 25.7643 48.4293 24.6256 49.3221 23.7339C50.1325 22.9244 50.8193 22.6775 51.616 22.4031C52.4676 22.115 53.4291 21.7721 54.8439 20.6745C56.2999 19.5359 57.1516 18.6167 57.907 17.7935C58.5251 17.1213 59.1158 16.4902 59.9262 15.8454C61.4646 14.6382 62.9069 14.2678 65.3244 13.6641C69.0331 12.7312 72.5358 11.8532 75.6675 13.8013C77.5906 15.0086 79.5548 17.3408 79.6098 19.8514C79.6235 20.6745 79.4312 21.333 79.2664 21.9092C79.0328 22.6775 78.8405 23.3497 79.1702 24.2689C79.4312 24.9823 79.8021 25.2841 80.5575 25.9015C80.9009 26.1896 81.3267 26.5325 81.8624 27.0264C83.8816 28.8785 85.214 30.0995 85.7222 31.7595C86.4228 34.078 85.3926 36.7258 84.1426 38.2074C83.1948 39.3187 81.9586 40.0458 80.846 40.6906C79.651 41.3902 78.6345 41.9801 78.401 42.8444C78.2224 43.5304 77.934 44.2301 77.5768 44.9023C77.4532 45.1218 77.3159 45.3413 77.1236 45.6157C76.3681 46.6309 71.3957 48.7299 65.2969 50.5957C65.2695 50.6094 65.2557 50.6094 65.242 50.6094Z" fill="white"/>
<path d="M65.8328 65.6042C64.0471 65.6042 62.0142 65.3299 59.8989 64.493C58.8687 64.0814 57.8797 63.5738 56.9594 62.9565C56.9182 62.929 56.9044 62.8605 56.9319 62.8193C56.9594 62.7781 57.028 62.7644 57.0693 62.7919C57.9896 63.3955 58.9648 63.9168 59.9675 64.3147C65.091 66.3451 69.8024 65.0143 71.3409 64.5753C72.0551 64.3695 78.3874 62.4626 81.7664 57.414C82.9477 55.658 83.5521 54.2861 83.5658 54.2724C84.074 53.1886 84.4037 52.2557 84.6922 51.4325C85.0768 50.3213 85.4064 49.361 86.052 48.4281C86.5328 47.7284 87.0959 47.2208 87.4668 46.8778C87.5492 46.7955 87.6179 46.7406 87.6866 46.672C89.7332 44.7102 91.3266 43.9694 92.604 43.3658C93.6342 42.8856 94.4447 42.5015 95.0902 41.6509C95.9831 40.4848 95.777 39.4696 95.4062 37.6449C95.1177 36.2319 94.7331 34.2975 94.7468 31.4714C94.7468 28.3846 95.1315 26.56 95.4474 25.1058C95.7908 23.4595 96.0243 22.3757 95.4611 20.5922C94.8155 18.5206 93.7853 17.7112 91.7387 16.1198C90.5711 15.2144 89.1289 14.0894 87.2608 12.3334C83.7581 9.05453 81.6153 6.28329 80.0632 4.25288C78.0302 1.5914 76.9039 0.137183 74.8435 0.233216C73.6073 0.288092 72.8793 0.795695 71.7529 1.56396C70.5854 2.35966 68.9783 3.45718 65.9976 4.48611C62.3713 5.73453 60.2285 5.52875 58.333 5.3504C56.6709 5.18577 55.2424 5.04858 53.1957 5.95404C50.6683 7.06528 49.7618 8.86247 48.6354 11.1535C47.4541 13.5406 45.9706 16.5177 42.0284 19.6182C40.8059 20.5785 39.9131 21.1135 39.1988 21.5388C38.1412 22.1699 37.5093 22.5403 36.7539 23.7064C33.8006 28.22 35.8335 34.4621 36.9324 37.8233C37.1247 38.4132 37.3033 38.8659 37.3582 39.0443L37.372 39.058C38.3197 41.5274 39.5972 43.8596 41.1906 45.9586C41.218 45.9998 41.218 46.0684 41.1768 46.1096C41.1356 46.137 41.0669 46.137 41.0257 46.0958C39.4324 43.9694 38.1274 41.6372 37.1797 39.1403L37.1659 39.1266C37.0973 38.9482 36.9324 38.4955 36.7264 37.9056C35.6275 34.517 33.5809 28.2063 36.5753 23.6104C37.3582 22.4031 38.045 21.9916 39.089 21.3742C39.8032 20.9489 40.6823 20.4276 41.9048 19.4673C45.8058 16.3805 47.2756 13.4446 48.4568 11.0712C49.6107 8.75272 50.531 6.91437 53.1271 5.77569C55.2286 4.85652 56.6847 4.99371 58.3742 5.15834C60.2423 5.33668 62.3713 5.54247 65.9564 4.30776C68.9096 3.27883 70.503 2.19503 71.6705 1.41305C72.7831 0.658505 73.5798 0.109745 74.871 0.0548686C77.0413 -0.0548834 78.1813 1.44049 80.2692 4.15685C81.8214 6.18726 83.9504 8.9585 87.4531 12.2236C89.3212 13.9659 90.7634 15.0909 91.9172 15.9963C93.9364 17.574 95.049 18.4383 95.7084 20.5785C96.2853 22.4168 96.038 23.583 95.6946 25.2018C95.3924 26.656 95.0078 28.4669 95.0078 31.5263C95.0078 34.3386 95.3924 36.2593 95.6671 37.6586C96.0243 39.4833 96.2441 40.5808 95.31 41.8292C94.637 42.721 93.7991 43.1051 92.7414 43.599C91.4777 44.1889 89.8981 44.9297 87.8789 46.8641C87.8102 46.919 87.7415 46.9876 87.6591 47.0699C87.302 47.3991 86.7388 47.9067 86.2855 48.579C85.6674 49.4981 85.3377 50.4448 84.9531 51.5423C84.6647 52.3791 84.335 53.312 83.8268 54.4095C83.8268 54.4233 83.1949 55.8089 82.0137 57.5924C78.6072 62.7095 72.1925 64.6302 71.4782 64.836C70.4892 65.0281 68.4288 65.6042 65.8328 65.6042Z" fill="white"/>
<path d="M60.2422 47.3168C60.2285 47.3168 60.201 47.3168 60.1873 47.3031C59.3769 46.7955 58.5252 46.48 57.5225 46.3428C56.2451 46.1644 55.4759 46.3702 54.9264 46.5211C54.8715 46.5349 54.8166 46.5074 54.8028 46.4525C54.7891 46.3977 54.8166 46.3428 54.8715 46.3291C55.4484 46.1782 56.2314 45.9724 57.55 46.1507C58.5939 46.3016 59.473 46.6172 60.2972 47.1385C60.3384 47.1659 60.3659 47.2345 60.3247 47.2757C60.3109 47.3031 60.2834 47.3168 60.2422 47.3168Z" fill="white"/>
<path d="M68.7447 39.744C68.7173 39.744 68.6761 39.7302 68.6623 39.7028C68.6349 39.6616 68.6349 39.593 68.6898 39.5656C69.0195 39.3324 69.3079 39.058 69.5414 38.7425C69.72 38.5092 69.8299 38.3446 69.8848 38.0977C69.981 37.6998 69.8711 37.3157 69.7612 37.0687C69.7337 37.0139 69.7612 36.959 69.8161 36.9316C69.8711 36.9041 69.926 36.9316 69.9535 36.9864C70.0771 37.2608 70.2008 37.6861 70.0909 38.1388C70.0222 38.4406 69.8711 38.6327 69.7063 38.8522C69.459 39.1952 69.1568 39.4833 68.7997 39.7302C68.786 39.744 68.7722 39.744 68.7447 39.744Z" fill="white"/>
<path d="M69.198 40.7592C69.1705 40.7592 69.143 40.7454 69.1293 40.7317C69.0881 40.6906 69.0881 40.622 69.1293 40.5808C69.2392 40.4848 69.3353 40.3613 69.4177 40.2516C69.5414 40.0869 69.7199 39.8263 69.7886 39.4559C69.8573 39.0854 69.7886 38.7699 69.7062 38.5641C69.6925 38.5092 69.7199 38.4544 69.7749 38.4269C69.8298 38.4132 69.8848 38.4406 69.9122 38.4955C69.9947 38.7287 70.0771 39.0854 69.9947 39.497C69.9122 39.9086 69.7199 40.183 69.5826 40.375C69.4864 40.5122 69.3903 40.622 69.2667 40.7454C69.2529 40.7454 69.2254 40.7592 69.198 40.7592Z" fill="white"/>
<path d="M67.4535 43.6539C67.426 43.6539 67.3985 43.6401 67.3711 43.6127C67.3299 43.5715 67.3436 43.5029 67.3848 43.4618C67.9755 42.9679 68.5386 42.4603 69.0606 41.9253C69.4315 41.5411 69.7062 41.2393 69.7611 40.8003C69.7886 40.5671 69.7611 40.3201 69.665 40.0732C69.6512 40.0183 69.665 39.9634 69.7199 39.936C69.7749 39.9223 69.8298 39.936 69.8573 39.9909C69.9672 40.2653 69.9946 40.5396 69.9672 40.814C69.8985 41.3216 69.61 41.6509 69.2117 42.0625C68.6897 42.5975 68.1128 43.1188 67.5222 43.6127C67.4947 43.6539 67.4672 43.6539 67.4535 43.6539Z" fill="white"/>
<path d="M68.1266 38.7699C68.0991 38.7699 68.0717 38.7562 68.0579 38.7425C68.0167 38.7013 68.0167 38.6327 68.0579 38.5916C68.6486 37.9879 69.2392 37.3843 69.8161 36.7806C69.9397 36.6435 70.0771 36.5063 70.2007 36.3828L70.2282 36.3554L70.2419 36.3416C70.7776 35.7792 70.9837 35.3676 70.8875 35.1206C70.8601 35.0383 70.7914 34.9972 70.7639 34.9697C70.6403 34.8874 70.4205 34.956 70.1046 35.1755C69.981 35.2578 69.8436 35.3539 69.6788 35.4911C69.4865 35.642 69.2942 35.8203 69.0744 35.9987C68.9233 36.1221 68.7722 36.2593 68.6074 36.3965C67.9206 36.9727 67.1788 37.5352 66.3959 38.0702C66.3547 38.0977 66.286 38.0977 66.2585 38.0428C66.2311 38.0016 66.2311 37.933 66.286 37.9056C67.0552 37.3706 67.7969 36.8081 68.4837 36.2319C68.6486 36.0947 68.7997 35.9712 68.9508 35.834C69.1705 35.6557 69.3766 35.4773 69.5551 35.3264C69.72 35.1892 69.8711 35.0795 69.9947 34.9972C70.2694 34.8188 70.6128 34.6268 70.8738 34.7914C70.9287 34.8326 71.0249 34.9011 71.0798 35.0383C71.2584 35.4773 70.7776 36.0673 70.4068 36.4651L70.393 36.4788L70.3656 36.5063C70.2419 36.6435 70.1183 36.7806 69.981 36.9178C69.404 37.5215 68.8134 38.1388 68.2228 38.7425C68.1816 38.7699 68.1541 38.7699 68.1266 38.7699Z" fill="white"/>
<path d="M64.3767 39.8126C64.363 39.8126 64.3493 39.8126 64.3355 39.7988C64.2806 39.7714 64.2669 39.7165 64.2806 39.6616C64.4866 39.2226 64.7064 38.7836 64.9674 38.3858C65.558 37.4666 66.1624 36.5063 67.2475 36.0398C67.4261 35.9575 67.7008 35.8752 68.2503 35.6831C68.6898 35.5322 69.1294 35.4088 69.5689 35.2853C69.6239 35.2716 69.6788 35.299 69.6925 35.3539C69.7063 35.4088 69.6788 35.4636 69.6239 35.4773C69.198 35.6008 68.7585 35.738 68.3327 35.8752C67.7832 36.0535 67.5085 36.1496 67.3437 36.2182C66.3135 36.6709 65.7229 37.6038 65.146 38.4955C64.8987 38.8934 64.6652 39.3049 64.4729 39.744C64.4454 39.7851 64.4042 39.8126 64.3767 39.8126Z" fill="white"/>
<path d="M64.4179 39.6068C65.5855 40.7866 66.7668 41.9527 67.9343 43.1325C67.7695 43.2697 67.6184 43.4206 67.4536 43.5578C66.4234 42.2683 65.4069 40.9924 64.3767 39.7028C64.3904 39.6754 64.4042 39.6479 64.4179 39.6068Z" fill="white"/>
<path d="M70.0223 35.0932C69.8849 35.1755 69.7476 35.2853 69.5965 35.4087V35.3813L69.2256 33.5429C69.2943 33.5429 69.3767 33.5292 69.4591 33.5155C69.5415 33.5018 69.6239 33.4744 69.6926 33.4469C69.8162 33.9957 69.9261 34.5444 70.0223 35.0932Z" fill="white"/>
<path d="M70.6127 38.0016L70.1457 38.0977L69.8984 36.8629C70.0358 36.7258 70.1732 36.5748 70.3105 36.4377L70.6127 38.0016Z" fill="white"/>
<path d="M69.3355 33.6801C69.308 33.6801 69.2805 33.6664 69.2668 33.6527C68.9921 33.3783 68.8822 33.0628 68.9921 32.8707C69.0058 32.8433 69.1019 32.7061 69.253 32.6786C69.3767 32.6649 69.4728 32.7198 69.514 32.7472C69.6926 32.8707 69.775 33.1725 69.7063 33.5292C69.6926 33.5841 69.6376 33.6253 69.5827 33.6115C69.5278 33.5978 69.4866 33.5429 69.5003 33.4881C69.5552 33.2137 69.514 32.9942 69.4041 32.9119C69.3904 32.8982 69.3355 32.8707 69.2805 32.8707C69.2118 32.8844 69.1706 32.953 69.1569 32.953C69.1019 33.0491 69.1844 33.2686 69.4041 33.4881C69.4453 33.5292 69.4453 33.5978 69.4041 33.639C69.3904 33.6664 69.3629 33.6801 69.3355 33.6801Z" fill="white"/>
<path d="M36.5203 110.411L27.6469 109.423C27.6195 109.423 27.592 109.409 27.5783 109.382C27.5645 109.354 27.5508 109.327 27.5645 109.299L39.5285 69.034C39.5422 68.9791 39.5972 68.9517 39.6521 68.9654C39.7071 68.9791 39.7345 69.034 39.7208 69.0889L27.798 109.231L36.4654 110.191C39.295 102.275 42.1658 94.2358 45.0091 86.3199C47.1245 80.4208 49.2673 74.4393 51.3963 68.5538C51.4101 68.499 51.4787 68.4715 51.5337 68.4852C51.5886 68.499 51.6161 68.5676 51.6024 68.6224C49.487 74.5079 47.3305 80.4894 45.2152 86.3885C42.3718 94.3318 39.4873 102.399 36.644 110.342C36.6028 110.383 36.5615 110.411 36.5203 110.411Z" fill="white"/>
<path d="M30.8475 109.629C30.8337 109.629 30.82 109.629 30.82 109.629C30.765 109.615 30.7376 109.546 30.7513 109.491L44.6658 68.8968C44.6795 68.842 44.7482 68.8145 44.8031 68.8282C44.8581 68.842 44.8855 68.9105 44.8718 68.9654L30.9436 109.56C30.9299 109.601 30.8887 109.629 30.8475 109.629Z" fill="white"/>
<path d="M72.2062 116.461C72.1375 115.651 71.9177 114.567 71.1073 113.758C70.0908 112.743 68.7859 112.825 66.1074 112.386C65.0085 112.208 63.4701 111.906 61.6295 111.371C61.5059 110.973 61.3823 110.575 61.2449 110.164C62.0828 110.068 62.7696 109.999 63.0993 109.972C61.1076 96.0742 59.1021 82.1768 57.1104 68.2795C55.2286 68.3755 53.3605 68.4853 51.4787 68.5813L47.3579 79.7348C49.8578 90.1613 52.3578 100.601 54.8577 111.028C55.05 110.987 55.3385 110.946 55.6681 110.891C56.0939 112.715 56.506 114.54 56.9318 116.365C62.0279 116.392 67.1239 116.419 72.2062 116.461Z" fill="#FFF4F2"/>
<path d="M43.0723 73.9043C43.0173 73.9043 42.9624 73.8631 42.9624 73.7945C42.9624 73.7259 43.0036 73.6848 43.0723 73.6848C43.6767 73.6848 45.7645 73.5476 47.2755 71.8327C48.2919 70.6803 48.5392 69.377 48.5941 68.691C48.5941 68.6362 48.6491 68.595 48.704 68.595C48.759 68.595 48.8002 68.6499 48.8002 68.7048C48.7315 69.4044 48.4705 70.7626 47.4266 71.9562C45.8744 73.7671 43.7041 73.9043 43.0723 73.9043Z" fill="white"/>
<path fill-rule="evenodd" clip-rule="evenodd" d="M68.1679 33.4195C68.3739 33.6939 68.8409 34.1054 69.3629 34.1054C69.4316 34.1054 69.4865 34.1054 69.5415 34.0917C70.1733 33.9682 70.4892 33.2274 70.5854 32.8021C70.8052 31.8006 70.1046 30.5934 68.7997 29.7428C68.7585 29.7154 68.6898 29.7291 68.6624 29.7702C67.742 31.1558 67.5497 32.5963 68.1679 33.4195ZM68.3464 33.2823C67.7833 32.5552 67.9618 31.2519 68.786 29.9623C69.9535 30.7717 70.5854 31.8555 70.4068 32.7335C70.3244 33.0902 70.0497 33.7625 69.514 33.8722C69.0195 33.982 68.5525 33.543 68.3464 33.2823Z" fill="white"/>
<path fill-rule="evenodd" clip-rule="evenodd" d="M68.5801 33.639C68.7174 33.8173 69.0334 34.1054 69.3905 34.1054H69.5004C69.9399 34.0094 70.1597 33.5155 70.2146 33.2274C70.3657 32.5552 69.8987 31.7458 69.0334 31.1833C68.9921 31.1558 68.9235 31.1696 68.896 31.2107C68.2916 32.1299 68.168 33.0902 68.5801 33.639ZM68.7449 33.5292C68.3878 33.0628 68.4977 32.2396 69.0196 31.4165C69.7614 31.9241 70.146 32.6101 70.0223 33.1863C69.9811 33.4058 69.8026 33.831 69.4729 33.8996C69.1707 33.9682 68.8685 33.6801 68.7449 33.5292Z" fill="white"/>
<path d="M46.4651 29.8525C46.5201 30.5111 46.575 31.1558 46.6299 31.8144C46.6025 31.8692 46.0668 32.1436 45.9981 32.1299C45.9569 32.0064 45.8607 31.7869 45.641 31.5811C45.5723 31.5125 45.2701 31.2519 44.8031 31.2107C44.8031 31.2107 44.336 31.1696 43.8828 31.4714C43.8553 31.4851 43.8416 31.4988 43.8141 31.5125C43.7042 31.5949 43.6355 31.6635 43.608 31.6772C43.5531 31.732 42.935 32.4317 43.2234 33.2823C43.3883 33.7762 43.7866 34.0917 44.1437 34.2289C44.2399 34.2701 44.3223 34.2838 44.3773 34.2975C44.4734 34.6816 44.6108 35.2304 44.6932 35.6145C44.8031 36.0535 44.913 36.4925 45.0091 36.9315H44.2399C44.2262 36.4377 44.2124 35.9438 44.1987 35.4499C43.7591 35.0795 42.8388 34.1877 42.5641 32.7884C42.1246 30.6208 43.3196 27.8221 45.7096 27.2185C47.0832 26.8755 48.3607 27.3694 49.3496 28.1377C48.292 28.7825 46.4651 29.8525 46.4651 29.8525Z" fill="white"/>
<path d="M44.6933 34.5444C44.5559 34.5444 44.4048 34.5307 44.2675 34.5033C44.2125 34.4896 44.1713 34.4347 44.185 34.3798C44.1988 34.3249 44.2537 34.2838 44.3087 34.2975C44.4872 34.3386 44.6795 34.3524 44.8581 34.3249C44.9817 34.3112 45.1053 34.2838 45.229 34.2426C45.2839 34.2289 45.3389 34.2563 45.3663 34.3112C45.3801 34.3661 45.3526 34.421 45.2976 34.4484C45.1603 34.4896 45.0229 34.5307 44.8856 34.5444C44.8169 34.5307 44.7619 34.5444 44.6933 34.5444Z" fill="white"/>
<path d="M49.4183 39.3598C49.3634 39.3598 49.3222 39.3186 49.3222 39.2775C49.3222 39.2363 49.3085 39.1815 49.3085 39.1266V39.1129C49.2398 38.5915 49.1024 37.4391 49.02 36.5886C48.9788 36.2593 48.9513 35.9712 48.9376 35.7929C48.9376 35.738 48.9788 35.6831 49.0337 35.6831C49.1986 35.6694 49.3634 35.642 49.5145 35.6008C50.0777 35.4636 50.5584 35.2029 50.9018 34.86C52.1655 33.5429 51.5337 31.1421 50.8331 29.9348C50.4623 29.3038 49.9403 28.7001 49.3359 28.2337C48.7865 27.7947 48.2096 27.5066 47.6052 27.342C47.0008 27.1773 46.3827 27.1773 45.7921 27.3282C43.4432 27.9319 42.3032 30.6757 42.729 32.7747C42.9762 34.0094 43.7454 34.8737 44.3361 35.3813C44.3635 35.395 44.3773 35.4225 44.3773 35.4636C44.391 35.7654 44.4047 36.6434 44.4185 36.9453C44.4322 37.3431 44.446 38.1388 44.4597 38.6464V38.8248C44.4597 38.8796 44.4185 38.9345 44.3635 38.9345C44.3086 38.9345 44.2536 38.8934 44.2536 38.8385V38.6601C44.2399 38.1663 44.2262 37.3705 44.2124 36.959C44.2124 36.6709 44.185 35.8615 44.1712 35.5185C43.5531 34.9834 42.7976 34.1054 42.5367 32.8296C42.0834 30.6345 43.2921 27.7672 45.7509 27.1362C46.3827 26.9715 47.0283 26.9853 47.6739 27.1499C48.292 27.3145 48.8964 27.6163 49.4733 28.0691C50.0914 28.5492 50.6408 29.1666 51.0254 29.8251C51.7535 31.0872 52.4128 33.5978 51.0667 34.9972C50.6958 35.3813 50.1876 35.6557 49.5832 35.8066C49.4458 35.834 49.3222 35.8615 49.1848 35.8752C49.1986 36.0535 49.226 36.3005 49.2535 36.5611C49.3497 37.4117 49.4733 38.5641 49.542 39.0854V39.1129C49.5557 39.1677 49.5557 39.2226 49.5557 39.2501C49.5694 39.3049 49.5282 39.3598 49.4733 39.3735C49.4321 39.3598 49.4183 39.3598 49.4183 39.3598Z" fill="white"/>
<path d="M49.5146 35.6831C49.3635 35.7105 49.1986 35.7517 49.0201 35.7654C49.0338 35.9301 49.0613 36.2182 49.1025 36.5611C48.608 36.4102 47.9349 36.1358 47.3031 35.5734C46.9734 35.2715 46.7262 34.9697 46.5476 34.6953C46.8498 34.9697 47.6327 35.6008 48.7316 35.6557C49.0338 35.6694 49.2948 35.6282 49.5283 35.5871C49.5283 35.6145 49.5283 35.6557 49.5146 35.6831Z" fill="white"/>
<path d="M27.4134 116.406C27.3859 116.406 27.3447 116.392 27.3309 116.365C27.3172 116.337 27.3035 116.31 27.3172 116.269L27.8804 114.197C28.3062 112.619 28.7457 111.042 29.1716 109.45C29.1853 109.395 29.2402 109.368 29.2952 109.382C29.3501 109.395 29.3776 109.45 29.3639 109.505C28.938 111.083 28.4985 112.66 28.0727 114.252L27.5507 116.186L43.1684 116.09C43.2646 115.336 43.141 114.732 42.8113 114.279C42.2756 113.538 41.3141 113.415 39.7207 113.223C39.3224 113.168 38.8828 113.113 38.4021 113.045C36.9598 112.839 35.5725 112.551 34.1577 112.18C34.1302 112.167 34.1027 112.153 34.089 112.139C34.0753 112.112 34.0753 112.084 34.0753 112.057L34.611 110.068C34.6247 110.013 34.6797 109.985 34.7346 109.999C34.7895 110.013 34.817 110.068 34.8033 110.122L34.2951 112.016C35.6686 112.372 37.0285 112.647 38.4158 112.852C38.8966 112.921 39.3499 112.976 39.7345 113.031C41.3828 113.237 42.3718 113.36 42.9624 114.17C43.3333 114.691 43.4569 115.377 43.3333 116.227C43.3195 116.282 43.2783 116.31 43.2371 116.31L27.4134 116.406Z" fill="white"/>
<path d="M43.2097 114.979C39.034 114.965 31.493 114.952 27.8118 114.965V114.759C31.493 114.746 39.034 114.759 43.2097 114.773C43.2647 114.773 43.3059 114.814 43.3059 114.883C43.3059 114.952 43.2647 114.979 43.2097 114.979Z" fill="white"/>
<path d="M29.1443 109.971C30.9162 110.314 32.7019 110.657 34.4738 110.987C34.5562 110.699 34.6386 110.397 34.7348 110.109C32.9079 109.917 31.0948 109.725 29.2679 109.546C29.2267 109.683 29.1855 109.821 29.1443 109.971Z" fill="white"/>
<path d="M65.2423 50.4996C65.0912 50.8426 64.9401 51.1719 64.8028 51.4737C61.0666 59.6365 59.4183 60.3362 58.4156 60.3499C57.6189 60.3636 56.9596 59.9383 56.52 59.5816C56.9596 62.4489 57.3854 65.3299 57.8249 68.1972C57.6051 68.2109 57.3716 68.2246 57.1519 68.2383L56.4788 68.2795C54.7069 68.3755 52.9487 68.4853 51.1767 68.5813C48.9927 68.7048 46.795 68.8282 44.611 68.9517C42.9215 69.0477 41.2457 69.13 39.5562 69.2261C39.254 69.2398 38.9518 69.2535 38.6633 69.281C39.3089 63.3681 39.7759 58.7585 40.0369 56.0833C40.9984 46.3016 41.1083 40.7454 44.3225 38.6327C44.3775 38.5915 44.4324 38.5641 44.4874 38.523C44.8857 38.276 45.7236 37.8096 46.8087 37.837C47.1933 37.8507 47.5505 37.9193 47.9076 38.0702C48.4021 38.276 48.8691 38.6053 49.3911 39.0992C50.5174 40.183 51.8361 42.0076 53.8003 44.8474C54.1712 45.3962 54.542 45.9175 54.8854 46.4251C56.1629 48.2909 57.2755 49.9372 58.1683 51.2679C58.8551 49.9234 59.5419 48.579 60.2424 47.2208" fill="#FF735A"/>
<path d="M60.2424 47.2208C60.682 46.3702 61.1078 45.5334 61.5473 44.6828C62.4402 42.9542 63.333 41.2393 64.2258 39.5382C64.8989 40.3887 65.572 41.2393 66.2588 42.1036C66.7945 42.7621 67.3164 43.4206 67.8384 44.0654C66.9043 46.6172 65.9978 48.7985 65.2286 50.5134" fill="#FF735A"/>
<path d="M45.7922 49.4296C47.001 51.117 48.3609 52.873 49.8993 54.6702C52.2756 57.4414 54.6382 59.8286 56.8634 61.8452C56.7672 61.0633 56.6711 60.2813 56.5749 59.513C54.9129 58.2509 53.1547 56.7967 51.3553 55.1367C49.2125 53.1748 47.3719 51.2405 45.7922 49.4296Z" fill="black"/>
</svg>
