<svg width="24" height="24" viewBox="0 0 24 24" fill="none" xmlns="http://www.w3.org/2000/svg">
<path fill-rule="evenodd" clip-rule="evenodd" d="M12 0C15.2054 0 18.2188 1.24823 20.4853 3.51471C22.7518 5.78119 24 8.79474 24 12C24 14.4602 23.2608 16.8248 21.8622 18.8381C20.5411 20.7398 18.7247 22.2048 16.5981 23.087C16.3978 23.6199 15.8833 24 15.2814 24C14.9808 24 14.7023 23.905 14.4734 23.7437C13.6644 23.9132 12.8337 24 12 24C8.79474 24 5.78119 22.752 3.51471 20.4853C1.24823 18.2188 0 15.2053 0 12C0 9.56085 0.72821 7.21271 2.10571 5.20953C2.25238 4.99622 2.54425 4.94238 2.75757 5.08905C2.97089 5.23572 3.0249 5.5274 2.87805 5.74091C1.60858 7.58698 0.9375 9.75128 0.9375 12C0.9375 18.1 5.90021 23.0625 12 23.0625C12.6416 23.0625 13.2812 23.007 13.9087 22.8981C13.8869 22.8001 13.8752 22.6983 13.8752 22.5938V20.8669C13.298 21.0764 12.6632 21.1875 12 21.1875C11.0257 21.1875 10.1116 20.9489 9.35394 20.5071C9.33435 20.4972 9.31567 20.4858 9.29773 20.4734C9.08936 20.348 8.8927 20.2077 8.71106 20.0513C7.80908 19.2753 7.3125 18.1653 7.3125 16.9259C7.3125 15.943 7.88727 15.2825 8.74274 15.2825H15.2573C16.1127 15.2825 16.6877 15.943 16.6877 16.9259V22.0234C20.5829 20.2083 23.0625 16.3477 23.0625 12C23.0625 5.90021 18.1 0.9375 12 0.9375C9.75165 0.9375 7.58716 1.60858 5.74054 2.87823C5.52722 3.0249 5.23535 2.97107 5.08868 2.75757C4.94202 2.54425 4.99603 2.25256 5.20935 2.1059C7.21289 0.72821 9.56104 0 12 0ZM8.74274 16.22C8.3139 16.22 8.25 16.6622 8.25 16.9259C8.25 17.9116 8.6413 18.7471 9.31165 19.3341C9.73682 18.5596 10.7402 18.0619 12 18.0619C13.2598 18.0619 14.2632 18.5596 14.6885 19.3341C15.3587 18.7471 15.7502 17.9116 15.7502 16.9259C15.7502 16.6622 15.6861 16.22 15.2573 16.22H8.74274ZM10.1039 19.8499C10.3341 19.3438 11.0722 18.9994 12 18.9994C12.9278 18.9994 13.6661 19.344 13.8961 19.8499C13.3524 20.1075 12.7112 20.25 12 20.25C11.289 20.25 10.6476 20.1075 10.1039 19.8499ZM14.9537 22.9285C15.0383 23.0112 15.154 23.0625 15.2814 23.0625C15.54 23.0625 15.7502 22.8523 15.75 22.5938V19.5842C15.6108 19.7507 15.4568 19.9069 15.2889 20.0513C15.1397 20.1799 14.98 20.2974 14.8125 20.4053V22.5938C14.8125 22.7173 14.861 22.8296 14.9394 22.9135C14.9408 22.9149 14.9423 22.9164 14.9437 22.9179C14.9471 22.9213 14.9505 22.9247 14.9537 22.9285Z" fill="#FF735A"/>
<path d="M3.84607 4.31508C3.97351 4.31508 4.10059 4.26327 4.19324 4.16146C4.36737 3.96993 4.35327 3.67348 4.16156 3.49935C3.97003 3.32522 3.67358 3.33932 3.49945 3.53084L3.49927 3.53103C3.32513 3.72256 3.33942 4.019 3.53094 4.19314C3.62067 4.2748 3.73346 4.31508 3.84607 4.31508Z" fill="#009691"/>
<path d="M7.66669 12.0679C7.58319 12.0679 7.50464 12.0353 7.44568 11.9764C7.26276 11.7933 6.96594 11.7933 6.78284 11.9764C6.59973 12.1595 6.59973 12.4563 6.78284 12.6392C6.9328 12.7894 7.11426 12.8963 7.31238 12.9545V13.1087C7.31238 13.3676 7.52222 13.5775 7.78113 13.5775C8.04004 13.5775 8.24988 13.3676 8.24988 13.1087V12.8617C8.35919 12.8038 8.46063 12.7293 8.55054 12.6394C8.78656 12.4032 8.91675 12.0894 8.91675 11.7556C8.91675 11.4216 8.78656 11.1077 8.55054 10.8715L7.67456 9.99554C7.6156 9.93658 7.58301 9.85803 7.58301 9.77472C7.58301 9.69122 7.6156 9.61267 7.67456 9.55371C7.73352 9.49457 7.81207 9.46216 7.89557 9.46216C7.97906 9.46216 8.05743 9.49457 8.11639 9.55371C8.2995 9.73682 8.59631 9.73682 8.77942 9.55371C8.96234 9.37061 8.96252 9.07379 8.77942 8.89069C8.62927 8.74072 8.44781 8.63379 8.24988 8.57556V8.42139C8.24988 8.16248 8.03986 7.95264 7.78113 7.95264C7.52222 7.95264 7.31238 8.16248 7.31238 8.42139V8.6684C7.20288 8.72626 7.10162 8.80078 7.01154 8.89069C6.77551 9.12689 6.64551 9.44073 6.64551 9.77472C6.64551 10.1085 6.77551 10.4224 7.01154 10.6584L7.8877 11.5345C7.94666 11.5935 7.97906 11.6721 7.97906 11.7554C7.97906 11.8389 7.94666 11.9174 7.88751 11.9764C7.82855 12.0353 7.75018 12.0679 7.66669 12.0679Z" fill="#009691"/>
<path d="M16.1044 12.0679C16.0209 12.0679 15.9426 12.0353 15.8834 11.9764C15.7005 11.7933 15.4037 11.7933 15.2206 11.9764C15.0375 12.1595 15.0375 12.4563 15.2206 12.6392C15.3705 12.7894 15.5522 12.8963 15.7501 12.9545V13.1087C15.7501 13.3676 15.96 13.5775 16.2189 13.5775C16.4778 13.5775 16.6876 13.3676 16.6876 13.1087V12.8617C16.7969 12.8038 16.8984 12.7293 16.9883 12.6394C17.2245 12.4032 17.3545 12.0894 17.3545 11.7556C17.3545 11.4216 17.2245 11.1077 16.9883 10.8715L16.1123 9.99554C16.0533 9.93658 16.0208 9.85803 16.0208 9.77472C16.0208 9.69122 16.0533 9.61267 16.1123 9.55371C16.1714 9.49475 16.2498 9.46216 16.3333 9.46216C16.4168 9.46216 16.4954 9.49457 16.5543 9.55371C16.7374 9.73682 17.0342 9.73682 17.2172 9.55371C17.4003 9.37061 17.4003 9.07379 17.2172 8.89087C17.0672 8.74072 16.8857 8.63379 16.6876 8.57556V8.42139C16.6876 8.16248 16.4778 7.95264 16.2189 7.95264C15.96 7.95264 15.7501 8.16248 15.7501 8.42139V8.6684C15.6408 8.72626 15.5394 8.80078 15.4495 8.89069C15.2133 9.12689 15.0833 9.44073 15.0833 9.77472C15.0833 10.1085 15.2133 10.4224 15.4495 10.6586L16.3254 11.5345C16.3844 11.5935 16.417 11.6721 16.417 11.7556C16.417 11.8391 16.3844 11.9174 16.3254 11.9764C16.2665 12.0353 16.1879 12.0679 16.1044 12.0679Z" fill="#009691"/>
</svg>
