<svg width="24" height="24" viewBox="0 0 24 24" fill="none" xmlns="http://www.w3.org/2000/svg">
<path d="M3.84571 4.315C3.97261 4.315 4.09913 4.26373 4.1916 4.16284C4.36665 3.97205 4.35365 3.6756 4.16285 3.50055C3.97206 3.32568 3.67543 3.33868 3.50056 3.52948L3.50038 3.52966C3.32533 3.72046 3.33851 4.01691 3.52931 4.19177C3.61921 4.27435 3.73256 4.315 3.84571 4.315Z" fill="#009691"/>
<path d="M8.24991 11.9605C8.90946 11.9605 9.55985 11.7863 10.131 11.4565C10.3551 11.3271 10.432 11.0403 10.3025 10.8162C10.1731 10.5921 9.88651 10.5152 9.66221 10.6447C9.23337 10.8922 8.74503 11.023 8.24991 11.023C7.7548 11.023 7.26646 10.8922 6.83781 10.6447C6.6135 10.5152 6.32676 10.5921 6.1973 10.8162C6.06803 11.0403 6.14475 11.3271 6.36906 11.4565C6.94016 11.7863 7.59055 11.9605 8.24991 11.9605Z" fill="#009691"/>
<path d="M14.338 10.6447C14.1137 10.5152 13.8271 10.5921 13.6977 10.8162C13.5682 11.0403 13.6449 11.3271 13.8692 11.4565C14.4404 11.7863 15.0907 11.9605 15.7501 11.9605C16.4096 11.9605 17.06 11.7863 17.6311 11.4565C17.8555 11.3271 17.9322 11.0403 17.8027 10.8162C17.6734 10.5921 17.3869 10.5152 17.1624 10.6447C16.7337 10.8922 16.2454 11.023 15.7501 11.023C15.255 11.023 14.7668 10.8922 14.338 10.6447Z" fill="#009691"/>
<path fill-rule="evenodd" clip-rule="evenodd" d="M9.96558 19.1875C9.33606 19.1875 8.89624 18.6929 8.89624 17.985C8.89624 16.3408 10.2016 15.1475 12.0001 15.1475C13.7985 15.1475 15.1039 16.3408 15.1039 17.985C15.1039 18.6929 14.6641 19.1875 14.0345 19.1875H9.96558ZM14.1111 18.222C14.1378 18.1863 14.1664 18.1053 14.1664 17.985C14.1664 16.8663 13.2756 16.085 12.0001 16.085C10.7245 16.085 9.83374 16.8663 9.83374 17.985C9.83374 18.1053 9.8623 18.1863 9.88904 18.222C9.89893 18.2352 9.9101 18.25 9.96558 18.25H14.0344C14.09 18.25 14.1012 18.2352 14.1111 18.222Z" fill="#009691"/>
<path d="M23.5311 4.11951H23.5312C23.79 4.11951 24 3.90967 24 3.65094C24.0002 3.39203 23.7902 3.18201 23.5314 3.18201L21.4816 3.18146L23.8627 0.800171C23.9967 0.666138 24.037 0.464539 23.9643 0.289307C23.8918 0.114258 23.7208 0 23.5312 0H20.3502C20.0912 0 19.8814 0.210022 19.8814 0.46875C19.8814 0.727661 20.0912 0.9375 20.3502 0.9375H22.3995L20.1469 3.19025C17.9229 1.12994 15.0485 0 12 0C9.56104 0 7.21289 0.72821 5.20935 2.1059C4.99603 2.25256 4.94202 2.54443 5.08868 2.75775C5.23535 2.97107 5.52722 3.02509 5.74054 2.87842C7.58716 1.60858 9.75165 0.9375 12 0.9375C18.0998 0.9375 23.0625 5.90021 23.0625 12C23.0625 18.1 18.0998 23.0625 12 23.0625C5.90021 23.0625 0.9375 18.1 0.9375 12C0.9375 9.75128 1.60858 7.58698 2.87805 5.74091C3.02472 5.52759 2.9707 5.23572 2.75757 5.08905C2.54425 4.94238 2.25238 4.99622 2.10571 5.20972C0.728027 7.21271 0 9.56085 0 12C0 15.2053 1.24823 18.2188 3.51471 20.4853C5.78119 22.7518 8.79474 24 12 24C15.2053 24 18.2188 22.7518 20.4853 20.4853C22.7518 18.2188 24 15.2053 24 12C24 9.07159 22.9576 6.30359 21.0491 4.11877L23.5311 4.11951Z" fill="#FF735A"/>
<path d="M18.9762 5.27783C18.9037 5.1026 18.7327 4.98853 18.5432 4.98853H16.7002C16.4413 4.98853 16.2314 5.19836 16.2314 5.45728C16.2314 5.716 16.4413 5.92603 16.7002 5.92603H17.4114L16.3688 6.96863C16.2347 7.10266 16.1946 7.30426 16.2672 7.47931C16.3397 7.65454 16.5105 7.7688 16.7 7.7688L18.543 7.76935H18.5432C18.8019 7.76935 19.0119 7.55951 19.0119 7.30078C19.0119 7.04187 18.8021 6.83203 18.5433 6.83185L17.8316 6.83167L18.8746 5.7887C19.0086 5.65466 19.0487 5.45306 18.9762 5.27783Z" fill="#FF735A"/>
</svg>
